G04 #@! TF.GenerationSoftware,KiCad,Pcbnew,(5.99.0-490-gc7ce93e10)*
G04 #@! TF.CreationDate,2019-12-10T12:04:11+01:00*
G04 #@! TF.ProjectId,LED_Panel_Flat,4c45445f-5061-46e6-956c-5f466c61742e,rev?*
G04 #@! TF.SameCoordinates,Original*
G04 #@! TF.FileFunction,Profile,NP*
%FSLAX46Y46*%
G04 Gerber Fmt 4.6, Leading zero omitted, Abs format (unit mm)*
G04 Created by KiCad (PCBNEW (5.99.0-490-gc7ce93e10)) date 2019-12-10 12:04:11*
%MOMM*%
%LPD*%
G04 APERTURE LIST*
%ADD10C,0.150000*%
G04 APERTURE END LIST*
D10*
X151000000Y-92000000D02*
G75*
G03X151000000Y-92000000I-12000000J0D01*
G01*
X114000000Y-71000000D02*
G75*
G02X118000000Y-67000000I4000000J0D01*
G01*
X160000000Y-67000000D02*
G75*
G02X164000000Y-71000000I0J-4000000D01*
G01*
X118000000Y-117000000D02*
G75*
G02X114000000Y-113000000I0J4000000D01*
G01*
X164000000Y-113000000D02*
G75*
G02X160000000Y-117000000I-4000000J0D01*
G01*
X164000000Y-103000000D02*
X164000000Y-113000000D01*
X159000000Y-98000000D02*
X164000000Y-103000000D01*
X159000000Y-86000000D02*
X159000000Y-98000000D01*
X164000000Y-81000000D02*
X159000000Y-86000000D01*
X164000000Y-71000000D02*
X164000000Y-81000000D01*
X150000000Y-67000000D02*
X160000000Y-67000000D01*
X145000000Y-72000000D02*
X150000000Y-67000000D01*
X133000000Y-72000000D02*
X145000000Y-72000000D01*
X128000000Y-67000000D02*
X133000000Y-72000000D01*
X118000000Y-67000000D02*
X128000000Y-67000000D01*
X114000000Y-81000000D02*
X114000000Y-71000000D01*
X119000000Y-86000000D02*
X114000000Y-81000000D01*
X119000000Y-98000000D02*
X119000000Y-86000000D01*
X114000000Y-103000000D02*
X119000000Y-98000000D01*
X114000000Y-113000000D02*
X114000000Y-103000000D01*
X150000000Y-117000000D02*
X160000000Y-117000000D01*
X145000000Y-112000000D02*
X150000000Y-117000000D01*
X133000000Y-112000000D02*
X145000000Y-112000000D01*
X128000000Y-117000000D02*
X133000000Y-112000000D01*
X118000000Y-117000000D02*
X128000000Y-117000000D01*
M02*
