M48
; DRILL file {KiCad (5.99.0-490-gc7ce93e10)} date Di 10 Dez 2019 12:04:13 CET
; FORMAT={2:4/ absolute / inch / suppress leading zeros}
; #@! TF.CreationDate,2019-12-10T12:04:13+01:00
; #@! TF.GenerationSoftware,Kicad,Pcbnew,(5.99.0-490-gc7ce93e10)
; #@! TF.FileFunction,Plated,1,2,PTH
FMAT,2
INCH,TZ
T1C0.0118
T2C0.0157
T3C0.1260
%
G90
G05
T1
X46063Y-31496
X46063Y-42520
X46850Y-39764
X46850Y-40354
X48425Y-31890
X48819Y-38189
X49016Y-29331
X49016Y-34449
X49016Y-38583
X49213Y-33071
X49409Y-43701
X49606Y-28937
X49803Y-43307
X49803Y-44882
X50000Y-39173
X50197Y-38780
X50394Y-39173
X50591Y-44488
X50984Y-44094
X57283Y-31299
X57677Y-31693
X58661Y-28346
X58661Y-29331
X58661Y-31496
X59252Y-43504
X60039Y-33071
X60039Y-44291
X60433Y-29331
X61024Y-28150
X61811Y-35039
X62205Y-31890
X62795Y-30709
X62795Y-42520
X63189Y-40157
X63780Y-31102
T2
X46850Y-29921
X47244Y-40945
X49803Y-27559
T3
X46457Y-44488
X46457Y-27953
X62992Y-44488
X62992Y-27953
T0
M30
