G04 #@! TF.GenerationSoftware,KiCad,Pcbnew,(5.99.0-492-g30da2b31e)*
G04 #@! TF.CreationDate,2019-12-11T09:51:52+01:00*
G04 #@! TF.ProjectId,LED_Panel_Flat,4c45445f-5061-46e6-956c-5f466c61742e,rev?*
G04 #@! TF.SameCoordinates,Original*
G04 #@! TF.FileFunction,Legend,Bot*
G04 #@! TF.FilePolarity,Positive*
%FSLAX46Y46*%
G04 Gerber Fmt 4.6, Leading zero omitted, Abs format (unit mm)*
G04 Created by KiCad (PCBNEW (5.99.0-492-g30da2b31e)) date 2019-12-11 09:51:52*
%MOMM*%
%LPD*%
G04 APERTURE LIST*
%ADD10C,0.381000*%
%ADD11C,0.304800*%
%ADD12C,6.000000*%
G04 APERTURE END LIST*
D10*
X130028943Y-108592102D02*
X128592102Y-110028943D01*
X118713821Y-104101974D02*
X126796051Y-112184205D01*
X126796051Y-112184205D02*
X132184205Y-106796051D01*
X132184205Y-106796051D02*
X124101974Y-98713821D01*
X124101974Y-98713821D02*
X118713821Y-104101974D01*
D11*
X128899996Y-102690791D02*
X129977627Y-101613160D01*
X129567101Y-101202635D01*
X129413153Y-101151319D01*
X129310522Y-101151319D01*
X129156575Y-101202635D01*
X129002627Y-101356582D01*
X128951312Y-101510529D01*
X128951312Y-101613160D01*
X129002627Y-101767108D01*
X129413153Y-102177634D01*
X127257892Y-101048687D02*
X127873681Y-101664476D01*
X127565787Y-101356582D02*
X128643417Y-100278951D01*
X128592102Y-100535530D01*
X128592102Y-100740793D01*
X128643417Y-100894740D01*
%LPC*%
D12*
X160000000Y-113000000D03*
X160000000Y-71000000D03*
G36*
X131120009Y-105449013D02*
G01*
X129041115Y-107527907D01*
X127860247Y-106347039D01*
X129939141Y-104268145D01*
X131120009Y-105449013D01*
G37*
G36*
X126629881Y-108143089D02*
G01*
X124550987Y-110221983D01*
X123370119Y-109041115D01*
X125449013Y-106962221D01*
X126629881Y-108143089D01*
G37*
G36*
X129323958Y-103652961D02*
G01*
X127245064Y-105731855D01*
X126064196Y-104550987D01*
X128143090Y-102472093D01*
X129323958Y-103652961D01*
G37*
G36*
X124833830Y-106347038D02*
G01*
X122754936Y-108425932D01*
X121574068Y-107245064D01*
X123652962Y-105166170D01*
X124833830Y-106347038D01*
G37*
G36*
X127527907Y-101856910D02*
G01*
X125449013Y-103935804D01*
X124268145Y-102754936D01*
X126347039Y-100676042D01*
X127527907Y-101856910D01*
G37*
G36*
X123037779Y-104550987D02*
G01*
X120958885Y-106629881D01*
X119778017Y-105449013D01*
X121856911Y-103370119D01*
X123037779Y-104550987D01*
G37*
X118000000Y-71000000D03*
X118000000Y-113000000D03*
M02*
