G04 #@! TF.GenerationSoftware,KiCad,Pcbnew,(5.99.0-492-g30da2b31e)*
G04 #@! TF.CreationDate,2019-12-11T09:51:52+01:00*
G04 #@! TF.ProjectId,LED_Panel_Flat,4c45445f-5061-46e6-956c-5f466c61742e,rev?*
G04 #@! TF.SameCoordinates,Original*
G04 #@! TF.FileFunction,Legend,Top*
G04 #@! TF.FilePolarity,Positive*
%FSLAX46Y46*%
G04 Gerber Fmt 4.6, Leading zero omitted, Abs format (unit mm)*
G04 Created by KiCad (PCBNEW (5.99.0-492-g30da2b31e)) date 2019-12-11 09:51:52*
%MOMM*%
%LPD*%
G04 APERTURE LIST*
%ADD10C,0.120000*%
%ADD11C,0.150000*%
%ADD12C,6.000000*%
%ADD13R,1.700000X1.100000*%
%ADD14R,1.100000X1.700000*%
%ADD15R,2.100000X1.300000*%
%ADD16R,1.300000X1.200000*%
%ADD17R,1.200000X1.300000*%
%ADD18R,1.900000X3.000000*%
%ADD19R,3.000000X1.900000*%
G04 APERTURE END LIST*
D10*
X160880000Y-102400000D02*
X160880000Y-103600000D01*
X159120000Y-103600000D02*
X159120000Y-102400000D01*
X149400000Y-112120000D02*
X150600000Y-112120000D01*
X150600000Y-113880000D02*
X149400000Y-113880000D01*
X149400000Y-70120000D02*
X150600000Y-70120000D01*
X150600000Y-71880000D02*
X149400000Y-71880000D01*
X159120000Y-81600000D02*
X159120000Y-80400000D01*
X160880000Y-80400000D02*
X160880000Y-81600000D01*
X124400000Y-69120000D02*
X125600000Y-69120000D01*
X125600000Y-70880000D02*
X124400000Y-70880000D01*
X115930000Y-79000000D02*
X115930000Y-77000000D01*
X118070000Y-77000000D02*
X118070000Y-79000000D01*
X124350000Y-113120000D02*
X125550000Y-113120000D01*
X125550000Y-114880000D02*
X124350000Y-114880000D01*
X118070000Y-105000000D02*
X118070000Y-107000000D01*
X115930000Y-107000000D02*
X115930000Y-105000000D01*
X161760000Y-108580000D02*
X161760000Y-107650000D01*
X161760000Y-105420000D02*
X161760000Y-106350000D01*
X161760000Y-105420000D02*
X159600000Y-105420000D01*
X161760000Y-108580000D02*
X160300000Y-108580000D01*
X152420000Y-114760000D02*
X153350000Y-114760000D01*
X155580000Y-114760000D02*
X154650000Y-114760000D01*
X155580000Y-114760000D02*
X155580000Y-112600000D01*
X152420000Y-114760000D02*
X152420000Y-113300000D01*
X155580000Y-69240000D02*
X154650000Y-69240000D01*
X152420000Y-69240000D02*
X153350000Y-69240000D01*
X152420000Y-69240000D02*
X152420000Y-71400000D01*
X155580000Y-69240000D02*
X155580000Y-70700000D01*
X161760000Y-78580000D02*
X161760000Y-77650000D01*
X161760000Y-75420000D02*
X161760000Y-76350000D01*
X161760000Y-75420000D02*
X159600000Y-75420000D01*
X161760000Y-78580000D02*
X160300000Y-78580000D01*
X152750000Y-82400000D02*
X157400000Y-82400000D01*
X152750000Y-85600000D02*
X157400000Y-85600000D01*
X157400000Y-85600000D02*
X157400000Y-84800000D01*
X152750000Y-87400000D02*
X157400000Y-87400000D01*
X152750000Y-90600000D02*
X157400000Y-90600000D01*
X157400000Y-90600000D02*
X157400000Y-89800000D01*
X152750000Y-93400000D02*
X157400000Y-93400000D01*
X152750000Y-96600000D02*
X157400000Y-96600000D01*
X157400000Y-96600000D02*
X157400000Y-95800000D01*
X152750000Y-98400000D02*
X157400000Y-98400000D01*
X152750000Y-101600000D02*
X157400000Y-101600000D01*
X157400000Y-101600000D02*
X157400000Y-100800000D01*
X155459619Y-78722361D02*
X152171573Y-75434315D01*
X157722361Y-76459619D02*
X154434315Y-73171573D01*
X154434315Y-73171573D02*
X153868629Y-73737258D01*
X148277639Y-80459619D02*
X151565685Y-77171573D01*
X150540381Y-82722361D02*
X153828427Y-79434315D01*
X153828427Y-79434315D02*
X153262742Y-78868629D01*
X152277639Y-108459619D02*
X155565685Y-105171573D01*
X154540381Y-110722361D02*
X157828427Y-107434315D01*
X157828427Y-107434315D02*
X157262742Y-106868629D01*
X150540381Y-101277639D02*
X153828427Y-104565685D01*
X148277639Y-103540381D02*
X151565685Y-106828427D01*
X151565685Y-106828427D02*
X152131371Y-106262742D01*
X140400000Y-78250000D02*
X140400000Y-73600000D01*
X143600000Y-78250000D02*
X143600000Y-73600000D01*
X143600000Y-73600000D02*
X142800000Y-73600000D01*
X145400000Y-78250000D02*
X145400000Y-73600000D01*
X148600000Y-78250000D02*
X148600000Y-73600000D01*
X148600000Y-73600000D02*
X147800000Y-73600000D01*
X148600000Y-105750000D02*
X148600000Y-110400000D01*
X145400000Y-105750000D02*
X145400000Y-110400000D01*
X145400000Y-110400000D02*
X146200000Y-110400000D01*
X143600000Y-105750000D02*
X143600000Y-110400000D01*
X140400000Y-105750000D02*
X140400000Y-110400000D01*
X140400000Y-110400000D02*
X141200000Y-110400000D01*
X129400000Y-78250000D02*
X129400000Y-73600000D01*
X132600000Y-78250000D02*
X132600000Y-73600000D01*
X132600000Y-73600000D02*
X131800000Y-73600000D01*
X134400000Y-78250000D02*
X134400000Y-73600000D01*
X137600000Y-78250000D02*
X137600000Y-73600000D01*
X137600000Y-73600000D02*
X136800000Y-73600000D01*
X137600000Y-105750000D02*
X137600000Y-110400000D01*
X134400000Y-105750000D02*
X134400000Y-110400000D01*
X134400000Y-110400000D02*
X135200000Y-110400000D01*
X132600000Y-105750000D02*
X132600000Y-110400000D01*
X129400000Y-105750000D02*
X129400000Y-110400000D01*
X129400000Y-110400000D02*
X130200000Y-110400000D01*
X125722361Y-75540381D02*
X122434315Y-78828427D01*
X123459619Y-73277639D02*
X120171573Y-76565685D01*
X120171573Y-76565685D02*
X120737258Y-77131371D01*
X127459619Y-82722361D02*
X124171573Y-79434315D01*
X129722361Y-80459619D02*
X126434315Y-77171573D01*
X126434315Y-77171573D02*
X125868629Y-77737258D01*
X122540381Y-105277639D02*
X125828427Y-108565685D01*
X120277639Y-107540381D02*
X123565685Y-110828427D01*
X123565685Y-110828427D02*
X124131371Y-110262742D01*
X129722361Y-103540381D02*
X126434315Y-106828427D01*
X127459619Y-101277639D02*
X124171573Y-104565685D01*
X124171573Y-104565685D02*
X124737258Y-105131371D01*
X125250000Y-90600000D02*
X120600000Y-90600000D01*
X125250000Y-87400000D02*
X120600000Y-87400000D01*
X120600000Y-87400000D02*
X120600000Y-88200000D01*
X125250000Y-85600000D02*
X120600000Y-85600000D01*
X125250000Y-82400000D02*
X120600000Y-82400000D01*
X120600000Y-82400000D02*
X120600000Y-83200000D01*
X125250000Y-101600000D02*
X120600000Y-101600000D01*
X125250000Y-98400000D02*
X120600000Y-98400000D01*
X120600000Y-98400000D02*
X120600000Y-99200000D01*
X125250000Y-96600000D02*
X120600000Y-96600000D01*
X125250000Y-93400000D02*
X120600000Y-93400000D01*
X120600000Y-93400000D02*
X120600000Y-94200000D01*
D11*
X161238095Y-110452380D02*
X161238095Y-109452380D01*
X161238095Y-109928571D02*
X161809523Y-109928571D01*
X161809523Y-110452380D02*
X161809523Y-109452380D01*
X162714285Y-109785714D02*
X162714285Y-110452380D01*
X162476190Y-109404761D02*
X162238095Y-110119047D01*
X162857142Y-110119047D01*
X156738095Y-68452380D02*
X156738095Y-67452380D01*
X156738095Y-67928571D02*
X157309523Y-67928571D01*
X157309523Y-68452380D02*
X157309523Y-67452380D01*
X157690476Y-67452380D02*
X158309523Y-67452380D01*
X157976190Y-67833333D01*
X158119047Y-67833333D01*
X158214285Y-67880952D01*
X158261904Y-67928571D01*
X158309523Y-68023809D01*
X158309523Y-68261904D01*
X158261904Y-68357142D01*
X158214285Y-68404761D01*
X158119047Y-68452380D01*
X157833333Y-68452380D01*
X157738095Y-68404761D01*
X157690476Y-68357142D01*
X158802380Y-103166666D02*
X158326190Y-103500000D01*
X158802380Y-103738095D02*
X157802380Y-103738095D01*
X157802380Y-103357142D01*
X157850000Y-103261904D01*
X157897619Y-103214285D01*
X157992857Y-103166666D01*
X158135714Y-103166666D01*
X158230952Y-103214285D01*
X158278571Y-103261904D01*
X158326190Y-103357142D01*
X158326190Y-103738095D01*
X158230952Y-102595238D02*
X158183333Y-102690476D01*
X158135714Y-102738095D01*
X158040476Y-102785714D01*
X157992857Y-102785714D01*
X157897619Y-102738095D01*
X157850000Y-102690476D01*
X157802380Y-102595238D01*
X157802380Y-102404761D01*
X157850000Y-102309523D01*
X157897619Y-102261904D01*
X157992857Y-102214285D01*
X158040476Y-102214285D01*
X158135714Y-102261904D01*
X158183333Y-102309523D01*
X158230952Y-102404761D01*
X158230952Y-102595238D01*
X158278571Y-102690476D01*
X158326190Y-102738095D01*
X158421428Y-102785714D01*
X158611904Y-102785714D01*
X158707142Y-102738095D01*
X158754761Y-102690476D01*
X158802380Y-102595238D01*
X158802380Y-102404761D01*
X158754761Y-102309523D01*
X158707142Y-102261904D01*
X158611904Y-102214285D01*
X158421428Y-102214285D01*
X158326190Y-102261904D01*
X158278571Y-102309523D01*
X158230952Y-102404761D01*
X149833333Y-115102380D02*
X149500000Y-114626190D01*
X149261904Y-115102380D02*
X149261904Y-114102380D01*
X149642857Y-114102380D01*
X149738095Y-114150000D01*
X149785714Y-114197619D01*
X149833333Y-114292857D01*
X149833333Y-114435714D01*
X149785714Y-114530952D01*
X149738095Y-114578571D01*
X149642857Y-114626190D01*
X149261904Y-114626190D01*
X150166666Y-114102380D02*
X150833333Y-114102380D01*
X150404761Y-115102380D01*
X149833333Y-73102380D02*
X149500000Y-72626190D01*
X149261904Y-73102380D02*
X149261904Y-72102380D01*
X149642857Y-72102380D01*
X149738095Y-72150000D01*
X149785714Y-72197619D01*
X149833333Y-72292857D01*
X149833333Y-72435714D01*
X149785714Y-72530952D01*
X149738095Y-72578571D01*
X149642857Y-72626190D01*
X149261904Y-72626190D01*
X150690476Y-72102380D02*
X150500000Y-72102380D01*
X150404761Y-72150000D01*
X150357142Y-72197619D01*
X150261904Y-72340476D01*
X150214285Y-72530952D01*
X150214285Y-72911904D01*
X150261904Y-73007142D01*
X150309523Y-73054761D01*
X150404761Y-73102380D01*
X150595238Y-73102380D01*
X150690476Y-73054761D01*
X150738095Y-73007142D01*
X150785714Y-72911904D01*
X150785714Y-72673809D01*
X150738095Y-72578571D01*
X150690476Y-72530952D01*
X150595238Y-72483333D01*
X150404761Y-72483333D01*
X150309523Y-72530952D01*
X150261904Y-72578571D01*
X150214285Y-72673809D01*
X162102380Y-81166666D02*
X161626190Y-81500000D01*
X162102380Y-81738095D02*
X161102380Y-81738095D01*
X161102380Y-81357142D01*
X161150000Y-81261904D01*
X161197619Y-81214285D01*
X161292857Y-81166666D01*
X161435714Y-81166666D01*
X161530952Y-81214285D01*
X161578571Y-81261904D01*
X161626190Y-81357142D01*
X161626190Y-81738095D01*
X161102380Y-80261904D02*
X161102380Y-80738095D01*
X161578571Y-80785714D01*
X161530952Y-80738095D01*
X161483333Y-80642857D01*
X161483333Y-80404761D01*
X161530952Y-80309523D01*
X161578571Y-80261904D01*
X161673809Y-80214285D01*
X161911904Y-80214285D01*
X162007142Y-80261904D01*
X162054761Y-80309523D01*
X162102380Y-80404761D01*
X162102380Y-80642857D01*
X162054761Y-80738095D01*
X162007142Y-80785714D01*
X124833333Y-72102380D02*
X124500000Y-71626190D01*
X124261904Y-72102380D02*
X124261904Y-71102380D01*
X124642857Y-71102380D01*
X124738095Y-71150000D01*
X124785714Y-71197619D01*
X124833333Y-71292857D01*
X124833333Y-71435714D01*
X124785714Y-71530952D01*
X124738095Y-71578571D01*
X124642857Y-71626190D01*
X124261904Y-71626190D01*
X125690476Y-71435714D02*
X125690476Y-72102380D01*
X125452380Y-71054761D02*
X125214285Y-71769047D01*
X125833333Y-71769047D01*
X119302380Y-78166666D02*
X118826190Y-78500000D01*
X119302380Y-78738095D02*
X118302380Y-78738095D01*
X118302380Y-78357142D01*
X118350000Y-78261904D01*
X118397619Y-78214285D01*
X118492857Y-78166666D01*
X118635714Y-78166666D01*
X118730952Y-78214285D01*
X118778571Y-78261904D01*
X118826190Y-78357142D01*
X118826190Y-78738095D01*
X118302380Y-77833333D02*
X118302380Y-77214285D01*
X118683333Y-77547619D01*
X118683333Y-77404761D01*
X118730952Y-77309523D01*
X118778571Y-77261904D01*
X118873809Y-77214285D01*
X119111904Y-77214285D01*
X119207142Y-77261904D01*
X119254761Y-77309523D01*
X119302380Y-77404761D01*
X119302380Y-77690476D01*
X119254761Y-77785714D01*
X119207142Y-77833333D01*
X124783333Y-116102380D02*
X124450000Y-115626190D01*
X124211904Y-116102380D02*
X124211904Y-115102380D01*
X124592857Y-115102380D01*
X124688095Y-115150000D01*
X124735714Y-115197619D01*
X124783333Y-115292857D01*
X124783333Y-115435714D01*
X124735714Y-115530952D01*
X124688095Y-115578571D01*
X124592857Y-115626190D01*
X124211904Y-115626190D01*
X125164285Y-115197619D02*
X125211904Y-115150000D01*
X125307142Y-115102380D01*
X125545238Y-115102380D01*
X125640476Y-115150000D01*
X125688095Y-115197619D01*
X125735714Y-115292857D01*
X125735714Y-115388095D01*
X125688095Y-115530952D01*
X125116666Y-116102380D01*
X125735714Y-116102380D01*
X115602380Y-106166666D02*
X115126190Y-106500000D01*
X115602380Y-106738095D02*
X114602380Y-106738095D01*
X114602380Y-106357142D01*
X114650000Y-106261904D01*
X114697619Y-106214285D01*
X114792857Y-106166666D01*
X114935714Y-106166666D01*
X115030952Y-106214285D01*
X115078571Y-106261904D01*
X115126190Y-106357142D01*
X115126190Y-106738095D01*
X115602380Y-105214285D02*
X115602380Y-105785714D01*
X115602380Y-105500000D02*
X114602380Y-105500000D01*
X114745238Y-105595238D01*
X114840476Y-105690476D01*
X114888095Y-105785714D01*
X160904761Y-105047619D02*
X160809523Y-105000000D01*
X160714285Y-104904761D01*
X160571428Y-104761904D01*
X160476190Y-104714285D01*
X160380952Y-104714285D01*
X160428571Y-104952380D02*
X160333333Y-104904761D01*
X160238095Y-104809523D01*
X160190476Y-104619047D01*
X160190476Y-104285714D01*
X160238095Y-104095238D01*
X160333333Y-104000000D01*
X160428571Y-103952380D01*
X160619047Y-103952380D01*
X160714285Y-104000000D01*
X160809523Y-104095238D01*
X160857142Y-104285714D01*
X160857142Y-104619047D01*
X160809523Y-104809523D01*
X160714285Y-104904761D01*
X160619047Y-104952380D01*
X160428571Y-104952380D01*
X161714285Y-104285714D02*
X161714285Y-104952380D01*
X161476190Y-103904761D02*
X161238095Y-104619047D01*
X161857142Y-104619047D01*
X157047619Y-115095238D02*
X157000000Y-115190476D01*
X156904761Y-115285714D01*
X156761904Y-115428571D01*
X156714285Y-115523809D01*
X156714285Y-115619047D01*
X156952380Y-115571428D02*
X156904761Y-115666666D01*
X156809523Y-115761904D01*
X156619047Y-115809523D01*
X156285714Y-115809523D01*
X156095238Y-115761904D01*
X156000000Y-115666666D01*
X155952380Y-115571428D01*
X155952380Y-115380952D01*
X156000000Y-115285714D01*
X156095238Y-115190476D01*
X156285714Y-115142857D01*
X156619047Y-115142857D01*
X156809523Y-115190476D01*
X156904761Y-115285714D01*
X156952380Y-115380952D01*
X156952380Y-115571428D01*
X155952380Y-114809523D02*
X155952380Y-114190476D01*
X156333333Y-114523809D01*
X156333333Y-114380952D01*
X156380952Y-114285714D01*
X156428571Y-114238095D01*
X156523809Y-114190476D01*
X156761904Y-114190476D01*
X156857142Y-114238095D01*
X156904761Y-114285714D01*
X156952380Y-114380952D01*
X156952380Y-114666666D01*
X156904761Y-114761904D01*
X156857142Y-114809523D01*
X152047619Y-69095238D02*
X152000000Y-69190476D01*
X151904761Y-69285714D01*
X151761904Y-69428571D01*
X151714285Y-69523809D01*
X151714285Y-69619047D01*
X151952380Y-69571428D02*
X151904761Y-69666666D01*
X151809523Y-69761904D01*
X151619047Y-69809523D01*
X151285714Y-69809523D01*
X151095238Y-69761904D01*
X151000000Y-69666666D01*
X150952380Y-69571428D01*
X150952380Y-69380952D01*
X151000000Y-69285714D01*
X151095238Y-69190476D01*
X151285714Y-69142857D01*
X151619047Y-69142857D01*
X151809523Y-69190476D01*
X151904761Y-69285714D01*
X151952380Y-69380952D01*
X151952380Y-69571428D01*
X151047619Y-68761904D02*
X151000000Y-68714285D01*
X150952380Y-68619047D01*
X150952380Y-68380952D01*
X151000000Y-68285714D01*
X151047619Y-68238095D01*
X151142857Y-68190476D01*
X151238095Y-68190476D01*
X151380952Y-68238095D01*
X151952380Y-68809523D01*
X151952380Y-68190476D01*
X161904761Y-75047619D02*
X161809523Y-75000000D01*
X161714285Y-74904761D01*
X161571428Y-74761904D01*
X161476190Y-74714285D01*
X161380952Y-74714285D01*
X161428571Y-74952380D02*
X161333333Y-74904761D01*
X161238095Y-74809523D01*
X161190476Y-74619047D01*
X161190476Y-74285714D01*
X161238095Y-74095238D01*
X161333333Y-74000000D01*
X161428571Y-73952380D01*
X161619047Y-73952380D01*
X161714285Y-74000000D01*
X161809523Y-74095238D01*
X161857142Y-74285714D01*
X161857142Y-74619047D01*
X161809523Y-74809523D01*
X161714285Y-74904761D01*
X161619047Y-74952380D01*
X161428571Y-74952380D01*
X162809523Y-74952380D02*
X162238095Y-74952380D01*
X162523809Y-74952380D02*
X162523809Y-73952380D01*
X162428571Y-74095238D01*
X162333333Y-74190476D01*
X162238095Y-74238095D01*
X120238095Y-68452380D02*
X120238095Y-67452380D01*
X120238095Y-67928571D02*
X120809523Y-67928571D01*
X120809523Y-68452380D02*
X120809523Y-67452380D01*
X121238095Y-67547619D02*
X121285714Y-67500000D01*
X121380952Y-67452380D01*
X121619047Y-67452380D01*
X121714285Y-67500000D01*
X121761904Y-67547619D01*
X121809523Y-67642857D01*
X121809523Y-67738095D01*
X121761904Y-67880952D01*
X121190476Y-68452380D01*
X121809523Y-68452380D01*
X117238095Y-109652380D02*
X117238095Y-108652380D01*
X117238095Y-109128571D02*
X117809523Y-109128571D01*
X117809523Y-109652380D02*
X117809523Y-108652380D01*
X118809523Y-109652380D02*
X118238095Y-109652380D01*
X118523809Y-109652380D02*
X118523809Y-108652380D01*
X118428571Y-108795238D01*
X118333333Y-108890476D01*
X118238095Y-108938095D01*
X153785714Y-86952380D02*
X153785714Y-85952380D01*
X154023809Y-85952380D01*
X154166666Y-86000000D01*
X154261904Y-86095238D01*
X154309523Y-86190476D01*
X154357142Y-86380952D01*
X154357142Y-86523809D01*
X154309523Y-86714285D01*
X154261904Y-86809523D01*
X154166666Y-86904761D01*
X154023809Y-86952380D01*
X153785714Y-86952380D01*
X154738095Y-86047619D02*
X154785714Y-86000000D01*
X154880952Y-85952380D01*
X155119047Y-85952380D01*
X155214285Y-86000000D01*
X155261904Y-86047619D01*
X155309523Y-86142857D01*
X155309523Y-86238095D01*
X155261904Y-86380952D01*
X154690476Y-86952380D01*
X155309523Y-86952380D01*
X156166666Y-86285714D02*
X156166666Y-86952380D01*
X155928571Y-85904761D02*
X155690476Y-86619047D01*
X156309523Y-86619047D01*
X153785714Y-91952380D02*
X153785714Y-90952380D01*
X154023809Y-90952380D01*
X154166666Y-91000000D01*
X154261904Y-91095238D01*
X154309523Y-91190476D01*
X154357142Y-91380952D01*
X154357142Y-91523809D01*
X154309523Y-91714285D01*
X154261904Y-91809523D01*
X154166666Y-91904761D01*
X154023809Y-91952380D01*
X153785714Y-91952380D01*
X154738095Y-91047619D02*
X154785714Y-91000000D01*
X154880952Y-90952380D01*
X155119047Y-90952380D01*
X155214285Y-91000000D01*
X155261904Y-91047619D01*
X155309523Y-91142857D01*
X155309523Y-91238095D01*
X155261904Y-91380952D01*
X154690476Y-91952380D01*
X155309523Y-91952380D01*
X155642857Y-90952380D02*
X156261904Y-90952380D01*
X155928571Y-91333333D01*
X156071428Y-91333333D01*
X156166666Y-91380952D01*
X156214285Y-91428571D01*
X156261904Y-91523809D01*
X156261904Y-91761904D01*
X156214285Y-91857142D01*
X156166666Y-91904761D01*
X156071428Y-91952380D01*
X155785714Y-91952380D01*
X155690476Y-91904761D01*
X155642857Y-91857142D01*
X153785714Y-97952380D02*
X153785714Y-96952380D01*
X154023809Y-96952380D01*
X154166666Y-97000000D01*
X154261904Y-97095238D01*
X154309523Y-97190476D01*
X154357142Y-97380952D01*
X154357142Y-97523809D01*
X154309523Y-97714285D01*
X154261904Y-97809523D01*
X154166666Y-97904761D01*
X154023809Y-97952380D01*
X153785714Y-97952380D01*
X154738095Y-97047619D02*
X154785714Y-97000000D01*
X154880952Y-96952380D01*
X155119047Y-96952380D01*
X155214285Y-97000000D01*
X155261904Y-97047619D01*
X155309523Y-97142857D01*
X155309523Y-97238095D01*
X155261904Y-97380952D01*
X154690476Y-97952380D01*
X155309523Y-97952380D01*
X155690476Y-97047619D02*
X155738095Y-97000000D01*
X155833333Y-96952380D01*
X156071428Y-96952380D01*
X156166666Y-97000000D01*
X156214285Y-97047619D01*
X156261904Y-97142857D01*
X156261904Y-97238095D01*
X156214285Y-97380952D01*
X155642857Y-97952380D01*
X156261904Y-97952380D01*
X153785714Y-102952380D02*
X153785714Y-101952380D01*
X154023809Y-101952380D01*
X154166666Y-102000000D01*
X154261904Y-102095238D01*
X154309523Y-102190476D01*
X154357142Y-102380952D01*
X154357142Y-102523809D01*
X154309523Y-102714285D01*
X154261904Y-102809523D01*
X154166666Y-102904761D01*
X154023809Y-102952380D01*
X153785714Y-102952380D01*
X154738095Y-102047619D02*
X154785714Y-102000000D01*
X154880952Y-101952380D01*
X155119047Y-101952380D01*
X155214285Y-102000000D01*
X155261904Y-102047619D01*
X155309523Y-102142857D01*
X155309523Y-102238095D01*
X155261904Y-102380952D01*
X154690476Y-102952380D01*
X155309523Y-102952380D01*
X156261904Y-102952380D02*
X155690476Y-102952380D01*
X155976190Y-102952380D02*
X155976190Y-101952380D01*
X155880952Y-102095238D01*
X155785714Y-102190476D01*
X155690476Y-102238095D01*
X155589255Y-73693484D02*
X156296362Y-72986378D01*
X156464721Y-73154736D01*
X156532064Y-73289423D01*
X156532064Y-73424110D01*
X156498392Y-73525126D01*
X156397377Y-73693484D01*
X156296362Y-73794500D01*
X156128003Y-73895515D01*
X156026988Y-73929187D01*
X155892301Y-73929187D01*
X155757614Y-73861843D01*
X155589255Y-73693484D01*
X156902454Y-73727156D02*
X156969797Y-73727156D01*
X157070812Y-73760828D01*
X157239171Y-73929187D01*
X157272843Y-74030202D01*
X157272843Y-74097545D01*
X157239171Y-74198561D01*
X157171828Y-74265904D01*
X157037141Y-74333248D01*
X156229018Y-74333248D01*
X156666751Y-74770981D01*
X157811591Y-74501607D02*
X157878934Y-74568950D01*
X157912606Y-74669965D01*
X157912606Y-74737309D01*
X157878934Y-74838324D01*
X157777919Y-75006683D01*
X157609560Y-75175042D01*
X157441202Y-75276057D01*
X157340186Y-75309729D01*
X157272843Y-75309729D01*
X157171828Y-75276057D01*
X157104484Y-75208713D01*
X157070812Y-75107698D01*
X157070812Y-75040355D01*
X157104484Y-74939339D01*
X157205499Y-74770981D01*
X157373858Y-74602622D01*
X157542217Y-74501607D01*
X157643232Y-74467935D01*
X157710576Y-74467935D01*
X157811591Y-74501607D01*
X153461251Y-81678511D02*
X152754145Y-80971404D01*
X152922503Y-80803045D01*
X153057190Y-80735702D01*
X153191877Y-80735702D01*
X153292893Y-80769374D01*
X153461251Y-80870389D01*
X153562267Y-80971404D01*
X153663282Y-81139763D01*
X153696954Y-81240778D01*
X153696954Y-81375465D01*
X153629610Y-81510152D01*
X153461251Y-81678511D01*
X154538748Y-80601015D02*
X154134687Y-81005076D01*
X154336717Y-80803045D02*
X153629610Y-80095938D01*
X153663282Y-80264297D01*
X153663282Y-80398984D01*
X153629610Y-80500000D01*
X154875465Y-80264297D02*
X155010152Y-80129610D01*
X155043824Y-80028595D01*
X155043824Y-79961251D01*
X155010152Y-79792893D01*
X154909137Y-79624534D01*
X154639763Y-79355160D01*
X154538748Y-79321488D01*
X154471404Y-79321488D01*
X154370389Y-79355160D01*
X154235702Y-79489847D01*
X154202030Y-79590862D01*
X154202030Y-79658206D01*
X154235702Y-79759221D01*
X154404061Y-79927580D01*
X154505076Y-79961251D01*
X154572419Y-79961251D01*
X154673435Y-79927580D01*
X154808122Y-79792893D01*
X154841793Y-79691877D01*
X154841793Y-79624534D01*
X154808122Y-79523519D01*
X156229018Y-110946278D02*
X155521912Y-110239171D01*
X155690270Y-110070812D01*
X155824957Y-110003469D01*
X155959644Y-110003469D01*
X156060660Y-110037141D01*
X156229018Y-110138156D01*
X156330034Y-110239171D01*
X156431049Y-110407530D01*
X156464721Y-110508545D01*
X156464721Y-110643232D01*
X156397377Y-110777919D01*
X156229018Y-110946278D01*
X157306515Y-109868782D02*
X156902454Y-110272843D01*
X157104484Y-110070812D02*
X156397377Y-109363705D01*
X156431049Y-109532064D01*
X156431049Y-109666751D01*
X156397377Y-109767767D01*
X157306515Y-109060660D02*
X157205499Y-109094331D01*
X157138156Y-109094331D01*
X157037141Y-109060660D01*
X157003469Y-109026988D01*
X156969797Y-108925973D01*
X156969797Y-108858629D01*
X157003469Y-108757614D01*
X157138156Y-108622927D01*
X157239171Y-108589255D01*
X157306515Y-108589255D01*
X157407530Y-108622927D01*
X157441202Y-108656599D01*
X157474873Y-108757614D01*
X157474873Y-108824957D01*
X157441202Y-108925973D01*
X157306515Y-109060660D01*
X157272843Y-109161675D01*
X157272843Y-109229018D01*
X157306515Y-109330034D01*
X157441202Y-109464721D01*
X157542217Y-109498392D01*
X157609560Y-109498392D01*
X157710576Y-109464721D01*
X157845263Y-109330034D01*
X157878934Y-109229018D01*
X157878934Y-109161675D01*
X157845263Y-109060660D01*
X157710576Y-108925973D01*
X157609560Y-108892301D01*
X157542217Y-108892301D01*
X157441202Y-108925973D01*
X148821488Y-105961251D02*
X149528595Y-105254145D01*
X149696954Y-105422503D01*
X149764297Y-105557190D01*
X149764297Y-105691877D01*
X149730625Y-105792893D01*
X149629610Y-105961251D01*
X149528595Y-106062267D01*
X149360236Y-106163282D01*
X149259221Y-106196954D01*
X149124534Y-106196954D01*
X148989847Y-106129610D01*
X148821488Y-105961251D01*
X149898984Y-107038748D02*
X149494923Y-106634687D01*
X149696954Y-106836717D02*
X150404061Y-106129610D01*
X150235702Y-106163282D01*
X150101015Y-106163282D01*
X150000000Y-106129610D01*
X150841793Y-106567343D02*
X151313198Y-107038748D01*
X150303045Y-107442809D01*
X144952380Y-77214285D02*
X143952380Y-77214285D01*
X143952380Y-76976190D01*
X144000000Y-76833333D01*
X144095238Y-76738095D01*
X144190476Y-76690476D01*
X144380952Y-76642857D01*
X144523809Y-76642857D01*
X144714285Y-76690476D01*
X144809523Y-76738095D01*
X144904761Y-76833333D01*
X144952380Y-76976190D01*
X144952380Y-77214285D01*
X144952380Y-75690476D02*
X144952380Y-76261904D01*
X144952380Y-75976190D02*
X143952380Y-75976190D01*
X144095238Y-76071428D01*
X144190476Y-76166666D01*
X144238095Y-76261904D01*
X143952380Y-74833333D02*
X143952380Y-75023809D01*
X144000000Y-75119047D01*
X144047619Y-75166666D01*
X144190476Y-75261904D01*
X144380952Y-75309523D01*
X144761904Y-75309523D01*
X144857142Y-75261904D01*
X144904761Y-75214285D01*
X144952380Y-75119047D01*
X144952380Y-74928571D01*
X144904761Y-74833333D01*
X144857142Y-74785714D01*
X144761904Y-74738095D01*
X144523809Y-74738095D01*
X144428571Y-74785714D01*
X144380952Y-74833333D01*
X144333333Y-74928571D01*
X144333333Y-75119047D01*
X144380952Y-75214285D01*
X144428571Y-75261904D01*
X144523809Y-75309523D01*
X149952380Y-77214285D02*
X148952380Y-77214285D01*
X148952380Y-76976190D01*
X149000000Y-76833333D01*
X149095238Y-76738095D01*
X149190476Y-76690476D01*
X149380952Y-76642857D01*
X149523809Y-76642857D01*
X149714285Y-76690476D01*
X149809523Y-76738095D01*
X149904761Y-76833333D01*
X149952380Y-76976190D01*
X149952380Y-77214285D01*
X149952380Y-75690476D02*
X149952380Y-76261904D01*
X149952380Y-75976190D02*
X148952380Y-75976190D01*
X149095238Y-76071428D01*
X149190476Y-76166666D01*
X149238095Y-76261904D01*
X148952380Y-74785714D02*
X148952380Y-75261904D01*
X149428571Y-75309523D01*
X149380952Y-75261904D01*
X149333333Y-75166666D01*
X149333333Y-74928571D01*
X149380952Y-74833333D01*
X149428571Y-74785714D01*
X149523809Y-74738095D01*
X149761904Y-74738095D01*
X149857142Y-74785714D01*
X149904761Y-74833333D01*
X149952380Y-74928571D01*
X149952380Y-75166666D01*
X149904761Y-75261904D01*
X149857142Y-75309523D01*
X144952380Y-109214285D02*
X143952380Y-109214285D01*
X143952380Y-108976190D01*
X144000000Y-108833333D01*
X144095238Y-108738095D01*
X144190476Y-108690476D01*
X144380952Y-108642857D01*
X144523809Y-108642857D01*
X144714285Y-108690476D01*
X144809523Y-108738095D01*
X144904761Y-108833333D01*
X144952380Y-108976190D01*
X144952380Y-109214285D01*
X144952380Y-107690476D02*
X144952380Y-108261904D01*
X144952380Y-107976190D02*
X143952380Y-107976190D01*
X144095238Y-108071428D01*
X144190476Y-108166666D01*
X144238095Y-108261904D01*
X144285714Y-106833333D02*
X144952380Y-106833333D01*
X143904761Y-107071428D02*
X144619047Y-107309523D01*
X144619047Y-106690476D01*
X139952380Y-109214285D02*
X138952380Y-109214285D01*
X138952380Y-108976190D01*
X139000000Y-108833333D01*
X139095238Y-108738095D01*
X139190476Y-108690476D01*
X139380952Y-108642857D01*
X139523809Y-108642857D01*
X139714285Y-108690476D01*
X139809523Y-108738095D01*
X139904761Y-108833333D01*
X139952380Y-108976190D01*
X139952380Y-109214285D01*
X139952380Y-107690476D02*
X139952380Y-108261904D01*
X139952380Y-107976190D02*
X138952380Y-107976190D01*
X139095238Y-108071428D01*
X139190476Y-108166666D01*
X139238095Y-108261904D01*
X138952380Y-107357142D02*
X138952380Y-106738095D01*
X139333333Y-107071428D01*
X139333333Y-106928571D01*
X139380952Y-106833333D01*
X139428571Y-106785714D01*
X139523809Y-106738095D01*
X139761904Y-106738095D01*
X139857142Y-106785714D01*
X139904761Y-106833333D01*
X139952380Y-106928571D01*
X139952380Y-107214285D01*
X139904761Y-107309523D01*
X139857142Y-107357142D01*
X133952380Y-77214285D02*
X132952380Y-77214285D01*
X132952380Y-76976190D01*
X133000000Y-76833333D01*
X133095238Y-76738095D01*
X133190476Y-76690476D01*
X133380952Y-76642857D01*
X133523809Y-76642857D01*
X133714285Y-76690476D01*
X133809523Y-76738095D01*
X133904761Y-76833333D01*
X133952380Y-76976190D01*
X133952380Y-77214285D01*
X133952380Y-75690476D02*
X133952380Y-76261904D01*
X133952380Y-75976190D02*
X132952380Y-75976190D01*
X133095238Y-76071428D01*
X133190476Y-76166666D01*
X133238095Y-76261904D01*
X133047619Y-75309523D02*
X133000000Y-75261904D01*
X132952380Y-75166666D01*
X132952380Y-74928571D01*
X133000000Y-74833333D01*
X133047619Y-74785714D01*
X133142857Y-74738095D01*
X133238095Y-74738095D01*
X133380952Y-74785714D01*
X133952380Y-75357142D01*
X133952380Y-74738095D01*
X138952380Y-77214285D02*
X137952380Y-77214285D01*
X137952380Y-76976190D01*
X138000000Y-76833333D01*
X138095238Y-76738095D01*
X138190476Y-76690476D01*
X138380952Y-76642857D01*
X138523809Y-76642857D01*
X138714285Y-76690476D01*
X138809523Y-76738095D01*
X138904761Y-76833333D01*
X138952380Y-76976190D01*
X138952380Y-77214285D01*
X138952380Y-75690476D02*
X138952380Y-76261904D01*
X138952380Y-75976190D02*
X137952380Y-75976190D01*
X138095238Y-76071428D01*
X138190476Y-76166666D01*
X138238095Y-76261904D01*
X138952380Y-74738095D02*
X138952380Y-75309523D01*
X138952380Y-75023809D02*
X137952380Y-75023809D01*
X138095238Y-75119047D01*
X138190476Y-75214285D01*
X138238095Y-75309523D01*
X133952380Y-109214285D02*
X132952380Y-109214285D01*
X132952380Y-108976190D01*
X133000000Y-108833333D01*
X133095238Y-108738095D01*
X133190476Y-108690476D01*
X133380952Y-108642857D01*
X133523809Y-108642857D01*
X133714285Y-108690476D01*
X133809523Y-108738095D01*
X133904761Y-108833333D01*
X133952380Y-108976190D01*
X133952380Y-109214285D01*
X133952380Y-107690476D02*
X133952380Y-108261904D01*
X133952380Y-107976190D02*
X132952380Y-107976190D01*
X133095238Y-108071428D01*
X133190476Y-108166666D01*
X133238095Y-108261904D01*
X132952380Y-107071428D02*
X132952380Y-106976190D01*
X133000000Y-106880952D01*
X133047619Y-106833333D01*
X133142857Y-106785714D01*
X133333333Y-106738095D01*
X133571428Y-106738095D01*
X133761904Y-106785714D01*
X133857142Y-106833333D01*
X133904761Y-106880952D01*
X133952380Y-106976190D01*
X133952380Y-107071428D01*
X133904761Y-107166666D01*
X133857142Y-107214285D01*
X133761904Y-107261904D01*
X133571428Y-107309523D01*
X133333333Y-107309523D01*
X133142857Y-107261904D01*
X133047619Y-107214285D01*
X133000000Y-107166666D01*
X132952380Y-107071428D01*
X128952380Y-108738095D02*
X127952380Y-108738095D01*
X127952380Y-108500000D01*
X128000000Y-108357142D01*
X128095238Y-108261904D01*
X128190476Y-108214285D01*
X128380952Y-108166666D01*
X128523809Y-108166666D01*
X128714285Y-108214285D01*
X128809523Y-108261904D01*
X128904761Y-108357142D01*
X128952380Y-108500000D01*
X128952380Y-108738095D01*
X128952380Y-107690476D02*
X128952380Y-107500000D01*
X128904761Y-107404761D01*
X128857142Y-107357142D01*
X128714285Y-107261904D01*
X128523809Y-107214285D01*
X128142857Y-107214285D01*
X128047619Y-107261904D01*
X128000000Y-107309523D01*
X127952380Y-107404761D01*
X127952380Y-107595238D01*
X128000000Y-107690476D01*
X128047619Y-107738095D01*
X128142857Y-107785714D01*
X128380952Y-107785714D01*
X128476190Y-107738095D01*
X128523809Y-107690476D01*
X128571428Y-107595238D01*
X128571428Y-107404761D01*
X128523809Y-107309523D01*
X128476190Y-107261904D01*
X128380952Y-107214285D01*
X121030202Y-75074026D02*
X120323095Y-74366920D01*
X120491454Y-74198561D01*
X120626141Y-74131217D01*
X120760828Y-74131217D01*
X120861843Y-74164889D01*
X121030202Y-74265904D01*
X121131217Y-74366920D01*
X121232233Y-74535278D01*
X121265904Y-74636294D01*
X121265904Y-74770981D01*
X121198561Y-74905668D01*
X121030202Y-75074026D01*
X121434263Y-73861843D02*
X121333248Y-73895515D01*
X121265904Y-73895515D01*
X121164889Y-73861843D01*
X121131217Y-73828171D01*
X121097545Y-73727156D01*
X121097545Y-73659813D01*
X121131217Y-73558797D01*
X121265904Y-73424110D01*
X121366920Y-73390439D01*
X121434263Y-73390439D01*
X121535278Y-73424110D01*
X121568950Y-73457782D01*
X121602622Y-73558797D01*
X121602622Y-73626141D01*
X121568950Y-73727156D01*
X121434263Y-73861843D01*
X121400591Y-73962858D01*
X121400591Y-74030202D01*
X121434263Y-74131217D01*
X121568950Y-74265904D01*
X121669965Y-74299576D01*
X121737309Y-74299576D01*
X121838324Y-74265904D01*
X121973011Y-74131217D01*
X122006683Y-74030202D01*
X122006683Y-73962858D01*
X121973011Y-73861843D01*
X121838324Y-73727156D01*
X121737309Y-73693484D01*
X121669965Y-73693484D01*
X121568950Y-73727156D01*
X127158206Y-77297969D02*
X127865312Y-76590862D01*
X128033671Y-76759221D01*
X128101015Y-76893908D01*
X128101015Y-77028595D01*
X128067343Y-77129610D01*
X127966328Y-77297969D01*
X127865312Y-77398984D01*
X127696954Y-77500000D01*
X127595938Y-77533671D01*
X127461251Y-77533671D01*
X127326564Y-77466328D01*
X127158206Y-77297969D01*
X128505076Y-77230625D02*
X128976480Y-77702030D01*
X127966328Y-78106091D01*
X120390439Y-109565736D02*
X121097545Y-108858629D01*
X121265904Y-109026988D01*
X121333248Y-109161675D01*
X121333248Y-109296362D01*
X121299576Y-109397377D01*
X121198561Y-109565736D01*
X121097545Y-109666751D01*
X120929187Y-109767767D01*
X120828171Y-109801438D01*
X120693484Y-109801438D01*
X120558797Y-109734095D01*
X120390439Y-109565736D01*
X122107698Y-109868782D02*
X121973011Y-109734095D01*
X121871996Y-109700423D01*
X121804652Y-109700423D01*
X121636294Y-109734095D01*
X121467935Y-109835110D01*
X121198561Y-110104484D01*
X121164889Y-110205499D01*
X121164889Y-110272843D01*
X121198561Y-110373858D01*
X121333248Y-110508545D01*
X121434263Y-110542217D01*
X121501607Y-110542217D01*
X121602622Y-110508545D01*
X121770981Y-110340186D01*
X121804652Y-110239171D01*
X121804652Y-110171828D01*
X121770981Y-110070812D01*
X121636294Y-109936125D01*
X121535278Y-109902454D01*
X121467935Y-109902454D01*
X121366920Y-109936125D01*
X124297969Y-103841793D02*
X123590862Y-103134687D01*
X123759221Y-102966328D01*
X123893908Y-102898984D01*
X124028595Y-102898984D01*
X124129610Y-102932656D01*
X124297969Y-103033671D01*
X124398984Y-103134687D01*
X124500000Y-103303045D01*
X124533671Y-103404061D01*
X124533671Y-103538748D01*
X124466328Y-103673435D01*
X124297969Y-103841793D01*
X124634687Y-102090862D02*
X124297969Y-102427580D01*
X124601015Y-102797969D01*
X124601015Y-102730625D01*
X124634687Y-102629610D01*
X124803045Y-102461251D01*
X124904061Y-102427580D01*
X124971404Y-102427580D01*
X125072419Y-102461251D01*
X125240778Y-102629610D01*
X125274450Y-102730625D01*
X125274450Y-102797969D01*
X125240778Y-102898984D01*
X125072419Y-103067343D01*
X124971404Y-103101015D01*
X124904061Y-103101015D01*
X122261904Y-86952380D02*
X122261904Y-85952380D01*
X122500000Y-85952380D01*
X122642857Y-86000000D01*
X122738095Y-86095238D01*
X122785714Y-86190476D01*
X122833333Y-86380952D01*
X122833333Y-86523809D01*
X122785714Y-86714285D01*
X122738095Y-86809523D01*
X122642857Y-86904761D01*
X122500000Y-86952380D01*
X122261904Y-86952380D01*
X123690476Y-86285714D02*
X123690476Y-86952380D01*
X123452380Y-85904761D02*
X123214285Y-86619047D01*
X123833333Y-86619047D01*
X122261904Y-81952380D02*
X122261904Y-80952380D01*
X122500000Y-80952380D01*
X122642857Y-81000000D01*
X122738095Y-81095238D01*
X122785714Y-81190476D01*
X122833333Y-81380952D01*
X122833333Y-81523809D01*
X122785714Y-81714285D01*
X122738095Y-81809523D01*
X122642857Y-81904761D01*
X122500000Y-81952380D01*
X122261904Y-81952380D01*
X123166666Y-80952380D02*
X123785714Y-80952380D01*
X123452380Y-81333333D01*
X123595238Y-81333333D01*
X123690476Y-81380952D01*
X123738095Y-81428571D01*
X123785714Y-81523809D01*
X123785714Y-81761904D01*
X123738095Y-81857142D01*
X123690476Y-81904761D01*
X123595238Y-81952380D01*
X123309523Y-81952380D01*
X123214285Y-81904761D01*
X123166666Y-81857142D01*
X122261904Y-97952380D02*
X122261904Y-96952380D01*
X122500000Y-96952380D01*
X122642857Y-97000000D01*
X122738095Y-97095238D01*
X122785714Y-97190476D01*
X122833333Y-97380952D01*
X122833333Y-97523809D01*
X122785714Y-97714285D01*
X122738095Y-97809523D01*
X122642857Y-97904761D01*
X122500000Y-97952380D01*
X122261904Y-97952380D01*
X123214285Y-97047619D02*
X123261904Y-97000000D01*
X123357142Y-96952380D01*
X123595238Y-96952380D01*
X123690476Y-97000000D01*
X123738095Y-97047619D01*
X123785714Y-97142857D01*
X123785714Y-97238095D01*
X123738095Y-97380952D01*
X123166666Y-97952380D01*
X123785714Y-97952380D01*
X122261904Y-92952380D02*
X122261904Y-91952380D01*
X122500000Y-91952380D01*
X122642857Y-92000000D01*
X122738095Y-92095238D01*
X122785714Y-92190476D01*
X122833333Y-92380952D01*
X122833333Y-92523809D01*
X122785714Y-92714285D01*
X122738095Y-92809523D01*
X122642857Y-92904761D01*
X122500000Y-92952380D01*
X122261904Y-92952380D01*
X123785714Y-92952380D02*
X123214285Y-92952380D01*
X123500000Y-92952380D02*
X123500000Y-91952380D01*
X123404761Y-92095238D01*
X123309523Y-92190476D01*
X123214285Y-92238095D01*
%LPC*%
D12*
X160000000Y-113000000D03*
X160000000Y-71000000D03*
D13*
X160000000Y-103950000D03*
X160000000Y-102050000D03*
D14*
X150950000Y-113000000D03*
X149050000Y-113000000D03*
X150950000Y-71000000D03*
X149050000Y-71000000D03*
D13*
X160000000Y-80050000D03*
X160000000Y-81950000D03*
D14*
X125950000Y-70000000D03*
X124050000Y-70000000D03*
D15*
X117000000Y-76550000D03*
X117000000Y-79450000D03*
D14*
X125900000Y-114000000D03*
X124000000Y-114000000D03*
D15*
X117000000Y-107450000D03*
X117000000Y-104550000D03*
D16*
X160000000Y-106050000D03*
X160000000Y-107950000D03*
X162000000Y-107000000D03*
D17*
X154950000Y-113000000D03*
X153050000Y-113000000D03*
X154000000Y-115000000D03*
X153050000Y-71000000D03*
X154950000Y-71000000D03*
X154000000Y-69000000D03*
D16*
X160000000Y-76050000D03*
X160000000Y-77950000D03*
X162000000Y-77000000D03*
D12*
X118000000Y-71000000D03*
X118000000Y-113000000D03*
D18*
X156500000Y-84000000D03*
X153500000Y-84000000D03*
X156500000Y-89000000D03*
X153500000Y-89000000D03*
X156500000Y-95000000D03*
X153500000Y-95000000D03*
X156500000Y-100000000D03*
X153500000Y-100000000D03*
G36*
X152206928Y-75328249D02*
G01*
X154328249Y-73206928D01*
X155671752Y-74550431D01*
X153550431Y-76671752D01*
X152206928Y-75328249D01*
G37*
G36*
X154328248Y-77449569D02*
G01*
X156449569Y-75328248D01*
X157793072Y-76671751D01*
X155671751Y-78793072D01*
X154328248Y-77449569D01*
G37*
G36*
X151671751Y-77206928D02*
G01*
X153793072Y-79328249D01*
X152449569Y-80671752D01*
X150328248Y-78550431D01*
X151671751Y-77206928D01*
G37*
G36*
X149550431Y-79328248D02*
G01*
X151671752Y-81449569D01*
X150328249Y-82793072D01*
X148206928Y-80671751D01*
X149550431Y-79328248D01*
G37*
G36*
X155671751Y-105206928D02*
G01*
X157793072Y-107328249D01*
X156449569Y-108671752D01*
X154328248Y-106550431D01*
X155671751Y-105206928D01*
G37*
G36*
X153550431Y-107328248D02*
G01*
X155671752Y-109449569D01*
X154328249Y-110793072D01*
X152206928Y-108671751D01*
X153550431Y-107328248D01*
G37*
G36*
X153793072Y-104671751D02*
G01*
X151671751Y-106793072D01*
X150328248Y-105449569D01*
X152449569Y-103328248D01*
X153793072Y-104671751D01*
G37*
G36*
X151671752Y-102550431D02*
G01*
X149550431Y-104671752D01*
X148206928Y-103328249D01*
X150328249Y-101206928D01*
X151671752Y-102550431D01*
G37*
D19*
X142000000Y-74500000D03*
X142000000Y-77500000D03*
X147000000Y-74500000D03*
X147000000Y-77500000D03*
X147000000Y-109500000D03*
X147000000Y-106500000D03*
X142000000Y-109500000D03*
X142000000Y-106500000D03*
X131000000Y-74500000D03*
X131000000Y-77500000D03*
X136000000Y-74500000D03*
X136000000Y-77500000D03*
X136000000Y-109500000D03*
X136000000Y-106500000D03*
X131000000Y-109500000D03*
X131000000Y-106500000D03*
G36*
X122328249Y-78793072D02*
G01*
X120206928Y-76671751D01*
X121550431Y-75328248D01*
X123671752Y-77449569D01*
X122328249Y-78793072D01*
G37*
G36*
X124449569Y-76671752D02*
G01*
X122328248Y-74550431D01*
X123671751Y-73206928D01*
X125793072Y-75328249D01*
X124449569Y-76671752D01*
G37*
G36*
X124206928Y-79328249D02*
G01*
X126328249Y-77206928D01*
X127671752Y-78550431D01*
X125550431Y-80671752D01*
X124206928Y-79328249D01*
G37*
G36*
X126328248Y-81449569D02*
G01*
X128449569Y-79328248D01*
X129793072Y-80671751D01*
X127671751Y-82793072D01*
X126328248Y-81449569D01*
G37*
G36*
X125793072Y-108671751D02*
G01*
X123671751Y-110793072D01*
X122328248Y-109449569D01*
X124449569Y-107328248D01*
X125793072Y-108671751D01*
G37*
G36*
X123671752Y-106550431D02*
G01*
X121550431Y-108671752D01*
X120206928Y-107328249D01*
X122328249Y-105206928D01*
X123671752Y-106550431D01*
G37*
G36*
X126328249Y-106793072D02*
G01*
X124206928Y-104671751D01*
X125550431Y-103328248D01*
X127671752Y-105449569D01*
X126328249Y-106793072D01*
G37*
G36*
X128449569Y-104671752D02*
G01*
X126328248Y-102550431D01*
X127671751Y-101206928D01*
X129793072Y-103328249D01*
X128449569Y-104671752D01*
G37*
D18*
X121500000Y-89000000D03*
X124500000Y-89000000D03*
X121500000Y-84000000D03*
X124500000Y-84000000D03*
X121500000Y-100000000D03*
X124500000Y-100000000D03*
X121500000Y-95000000D03*
X124500000Y-95000000D03*
M02*
