G04 #@! TF.GenerationSoftware,KiCad,Pcbnew,(5.99.0-492-g30da2b31e)*
G04 #@! TF.CreationDate,2019-12-10T20:34:04+01:00*
G04 #@! TF.ProjectId,Feeder,46656564-6572-42e6-9b69-6361645f7063,0.1*
G04 #@! TF.SameCoordinates,Original*
G04 #@! TF.FileFunction,Copper,L2,Bot*
G04 #@! TF.FilePolarity,Positive*
%FSLAX46Y46*%
G04 Gerber Fmt 4.6, Leading zero omitted, Abs format (unit mm)*
G04 Created by KiCad (PCBNEW (5.99.0-492-g30da2b31e)) date 2019-12-10 20:34:04*
%MOMM*%
%LPD*%
G04 APERTURE LIST*
%ADD10C,1.750000*%
%ADD11R,1.750000X1.750000*%
%ADD12R,1.700000X1.700000*%
%ADD13O,1.700000X1.700000*%
%ADD14O,1.700000X1.200000*%
%ADD15R,1.700000X1.200000*%
%ADD16C,1.450000*%
%ADD17C,0.800000*%
%ADD18C,0.300000*%
%ADD19C,0.250000*%
%ADD20C,0.750000*%
G04 APERTURE END LIST*
D10*
X153500000Y-64000000D03*
X153500000Y-66500000D03*
X153500000Y-69000000D03*
X153500000Y-71500000D03*
D11*
X153500000Y-74000000D03*
D12*
X175200000Y-82500000D03*
D13*
X162280000Y-102460000D03*
X159740000Y-102460000D03*
D12*
X157200000Y-102460000D03*
D14*
X179900000Y-101500000D03*
X179900000Y-103500000D03*
X179900000Y-105500000D03*
D15*
X179900000Y-107500000D03*
D16*
X151765000Y-84455000D03*
X154305000Y-85725000D03*
X151765000Y-86995000D03*
X154305000Y-88265000D03*
X151765000Y-89535000D03*
X154305000Y-90805000D03*
X151765000Y-92075000D03*
X154305000Y-93345000D03*
X151765000Y-94615000D03*
X154305000Y-95885000D03*
D13*
X172740000Y-53500000D03*
X172740000Y-56040000D03*
X170200000Y-53500000D03*
X170200000Y-56040000D03*
X167660000Y-53500000D03*
D12*
X167660000Y-56040000D03*
X162560000Y-60960000D03*
D13*
X162560000Y-63500000D03*
X162560000Y-66040000D03*
X162560000Y-68580000D03*
X162560000Y-71120000D03*
X162560000Y-73660000D03*
X162560000Y-76200000D03*
X162560000Y-78740000D03*
X177800000Y-78740000D03*
X177800000Y-76200000D03*
X177800000Y-73660000D03*
X177800000Y-71120000D03*
X177800000Y-68580000D03*
X177800000Y-66040000D03*
X177800000Y-63500000D03*
D12*
X177800000Y-60960000D03*
D17*
X175100000Y-93400000D03*
X182100000Y-93700000D03*
X165500000Y-89200000D03*
X166200000Y-90000000D03*
X171400000Y-83600000D03*
X170000000Y-82500000D03*
X165100000Y-99600000D03*
X179000000Y-87100000D03*
X179800000Y-86100000D03*
X161750000Y-84350000D03*
X160550000Y-92500000D03*
X167900000Y-94000000D03*
X174700000Y-88100000D03*
X169900000Y-104300000D03*
X170000000Y-102600000D03*
X166600000Y-68500000D03*
X165100000Y-69300000D03*
X157200000Y-72700000D03*
X157200000Y-69100000D03*
X158300000Y-68800000D03*
X158300000Y-74000000D03*
X164500000Y-85099994D03*
X163974148Y-93420627D03*
X173500000Y-91800000D03*
X172800000Y-89300000D03*
X173900000Y-89100000D03*
X174300000Y-92600000D03*
X168200000Y-91800000D03*
X159300000Y-64600000D03*
X166425010Y-93202532D03*
X177100000Y-93800000D03*
X181100000Y-94300000D03*
X159300000Y-80200000D03*
X159400000Y-57900000D03*
X178200000Y-91235000D03*
X173500000Y-102700000D03*
X173500000Y-105100000D03*
X158800000Y-87200000D03*
X152000000Y-56100000D03*
X179700000Y-96500000D03*
X163000000Y-81700000D03*
X171800000Y-100500000D03*
X179400000Y-90300000D03*
X187400000Y-79600000D03*
X165600000Y-103800000D03*
X170000000Y-95700000D03*
X172650000Y-97550000D03*
X156400000Y-91900000D03*
X155150000Y-79000000D03*
D18*
X175100000Y-93400000D02*
X175900000Y-93400000D01*
X175900000Y-93400000D02*
X176300000Y-93000000D01*
X181400000Y-93000000D02*
X182100000Y-93700000D01*
X176300000Y-93000000D02*
X181400000Y-93000000D01*
D19*
X165100001Y-89599999D02*
X165100001Y-94299999D01*
X165500000Y-89200000D02*
X165100001Y-89599999D01*
X163515000Y-95885000D02*
X154305000Y-95885000D01*
X165100001Y-94299999D02*
X163515000Y-95885000D01*
X166200000Y-90000000D02*
X165700000Y-90500000D01*
X165700000Y-90500000D02*
X165700000Y-94600000D01*
X165700000Y-94600000D02*
X163900000Y-96400000D01*
X163900000Y-96400000D02*
X156200000Y-96400000D01*
X156200000Y-96400000D02*
X155100000Y-97500000D01*
X155100000Y-97500000D02*
X153300000Y-97500000D01*
X153300000Y-97500000D02*
X153000000Y-97200000D01*
X153000000Y-94650000D02*
X154305000Y-93345000D01*
X153000000Y-97200000D02*
X153000000Y-94650000D01*
X151800000Y-89500000D02*
X151765000Y-89535000D01*
X151800000Y-88900000D02*
X151800000Y-89500000D01*
X153700000Y-87000000D02*
X151800000Y-88900000D01*
X155200000Y-87000000D02*
X153700000Y-87000000D01*
X155800000Y-86400000D02*
X155200000Y-87000000D01*
X155800000Y-83700000D02*
X155800000Y-86400000D01*
X155900000Y-83600000D02*
X155800000Y-83700000D01*
X171400000Y-83600000D02*
X155900000Y-83600000D01*
X151800000Y-86300000D02*
X151800000Y-86960000D01*
X153600000Y-84500000D02*
X151800000Y-86300000D01*
X154000000Y-84500000D02*
X153600000Y-84500000D01*
X151800000Y-86960000D02*
X151765000Y-86995000D01*
X156000000Y-82500000D02*
X154000000Y-84500000D01*
X170000000Y-82500000D02*
X156000000Y-82500000D01*
X165100000Y-99600000D02*
X164500000Y-100200000D01*
X164500000Y-100200000D02*
X160500000Y-100200000D01*
X159740000Y-100960000D02*
X159740000Y-102460000D01*
X160500000Y-100200000D02*
X159740000Y-100960000D01*
D18*
X172740000Y-56040000D02*
X181440000Y-56040000D01*
X181440000Y-56040000D02*
X182000000Y-56600000D01*
X182000000Y-56600000D02*
X182000000Y-79200000D01*
X179000000Y-82200000D02*
X179000000Y-87100000D01*
X182000000Y-79200000D02*
X179000000Y-82200000D01*
X179800000Y-86100000D02*
X179800000Y-82400000D01*
X179800000Y-82400000D02*
X182700000Y-79500000D01*
X182700000Y-79500000D02*
X182700000Y-56400000D01*
X179800000Y-53500000D02*
X172740000Y-53500000D01*
X182700000Y-56400000D02*
X179800000Y-53500000D01*
X160550000Y-92500000D02*
X161750000Y-91300000D01*
X161750000Y-91300000D02*
X161750000Y-84350000D01*
D19*
X167900000Y-94000000D02*
X169300000Y-92600000D01*
X169300000Y-92600000D02*
X169300000Y-89200000D01*
X170400000Y-88100000D02*
X174700000Y-88100000D01*
X169300000Y-89200000D02*
X170400000Y-88100000D01*
X169900000Y-102700000D02*
X170000000Y-102600000D01*
X169900000Y-104300000D02*
X169900000Y-102700000D01*
D20*
X163762081Y-78740000D02*
X166200000Y-76302081D01*
X162560000Y-78740000D02*
X163762081Y-78740000D01*
X166200000Y-68900000D02*
X166600000Y-68500000D01*
X166200000Y-76302081D02*
X166200000Y-68900000D01*
X165100000Y-69300000D02*
X165100000Y-76000000D01*
X164900000Y-76200000D02*
X162560000Y-76200000D01*
X165100000Y-76000000D02*
X164900000Y-76200000D01*
X157200000Y-72700000D02*
X157200000Y-69100000D01*
X158300000Y-68800000D02*
X158300000Y-74000000D01*
D19*
X164500000Y-85099994D02*
X164500000Y-92894775D01*
X164500000Y-92894775D02*
X163974148Y-93420627D01*
D18*
X173500000Y-91800000D02*
X172800000Y-91100000D01*
X172800000Y-91100000D02*
X172800000Y-89300000D01*
X173900000Y-89100000D02*
X173900000Y-90800000D01*
X174300000Y-91200000D02*
X174300000Y-92600000D01*
X173900000Y-90800000D02*
X174300000Y-91200000D01*
D19*
X168200000Y-91800000D02*
X166797468Y-93202532D01*
X166797468Y-93202532D02*
X166425010Y-93202532D01*
X151765000Y-94615000D02*
X151765000Y-97065000D01*
X151765000Y-97065000D02*
X152800000Y-98100000D01*
X152800000Y-98100000D02*
X155300000Y-98100000D01*
X155300000Y-98100000D02*
X156400000Y-97000000D01*
X156400000Y-97000000D02*
X164100000Y-97000000D01*
X166425010Y-94674990D02*
X166425010Y-93202532D01*
X164100000Y-97000000D02*
X166425010Y-94674990D01*
D18*
X177665685Y-93800000D02*
X177765685Y-93900000D01*
X177100000Y-93800000D02*
X177665685Y-93800000D01*
X180700000Y-93900000D02*
X181100000Y-94300000D01*
X177765685Y-93900000D02*
X180700000Y-93900000D01*
X157200000Y-102460000D02*
X152360000Y-102460000D01*
X151765000Y-101865000D02*
X151765000Y-94615000D01*
X152360000Y-102460000D02*
X151765000Y-101865000D01*
X159300000Y-64600000D02*
X159300000Y-80200000D01*
D20*
X159400000Y-57900000D02*
X159900000Y-58400000D01*
X159900000Y-58400000D02*
X169600000Y-58400000D01*
X170200000Y-57800000D02*
X170200000Y-56040000D01*
X169600000Y-58400000D02*
X170200000Y-57800000D01*
D18*
X178200000Y-91235000D02*
X178200000Y-82100000D01*
X178200000Y-82100000D02*
X181300000Y-79000000D01*
X181300000Y-79000000D02*
X181300000Y-57700000D01*
X181300000Y-57700000D02*
X180300000Y-56700000D01*
X180300000Y-56700000D02*
X175000000Y-56700000D01*
X173900000Y-57800000D02*
X170200000Y-57800000D01*
X175000000Y-56700000D02*
X173900000Y-57800000D01*
X173500000Y-102700000D02*
X173500000Y-105100000D01*
D20*
X152000000Y-56100000D02*
X152900000Y-55200000D01*
X152900000Y-55200000D02*
X157300000Y-55200000D01*
X157300000Y-55200000D02*
X158300000Y-56200000D01*
X158300000Y-56200000D02*
X158300000Y-58600000D01*
X158300000Y-58600000D02*
X159200000Y-59500000D01*
X159200000Y-59500000D02*
X162100000Y-59500000D01*
X162560000Y-59960000D02*
X162560000Y-60960000D01*
X162100000Y-59500000D02*
X162560000Y-59960000D01*
D19*
X172365685Y-100500000D02*
X172900000Y-99965685D01*
X171800000Y-100500000D02*
X172365685Y-100500000D01*
X155150000Y-79000000D02*
X155100000Y-79000000D01*
G36*
X188526000Y-50196337D02*
G01*
X188526001Y-81803662D01*
X185700585Y-84629079D01*
X185676587Y-84644574D01*
X185644919Y-84684745D01*
X185637027Y-84692637D01*
X185620836Y-84715295D01*
X185575462Y-84772852D01*
X185573082Y-84782121D01*
X185568457Y-84788593D01*
X185523245Y-84939772D01*
X185526000Y-85009879D01*
X185526001Y-109803662D01*
X183803664Y-111526000D01*
X151196337Y-111526000D01*
X149474000Y-109803664D01*
X149474000Y-104413723D01*
X169024377Y-104413723D01*
X169091490Y-104654911D01*
X169223600Y-104867567D01*
X169410085Y-105034597D01*
X169635954Y-105142572D01*
X169883049Y-105182814D01*
X170131507Y-105152088D01*
X170361354Y-105052862D01*
X170554114Y-104893114D01*
X170694289Y-104685686D01*
X170770848Y-104446516D01*
X170774385Y-104176330D01*
X170704113Y-103935238D01*
X170569415Y-103724212D01*
X170499000Y-103662676D01*
X170499000Y-103321663D01*
X170654114Y-103193114D01*
X170794289Y-102985686D01*
X170849334Y-102813723D01*
X172624377Y-102813723D01*
X172691490Y-103054911D01*
X172823600Y-103267567D01*
X172876000Y-103314500D01*
X172876001Y-104483223D01*
X172838689Y-104514922D01*
X172701059Y-104724047D01*
X172627654Y-104963394D01*
X172624377Y-105213723D01*
X172691490Y-105454911D01*
X172823600Y-105667567D01*
X173010085Y-105834597D01*
X173235954Y-105942572D01*
X173483049Y-105982814D01*
X173731507Y-105952088D01*
X173961354Y-105852862D01*
X174154114Y-105693114D01*
X174294289Y-105485686D01*
X174370848Y-105246516D01*
X174374385Y-104976330D01*
X174304113Y-104735238D01*
X174169415Y-104524212D01*
X174124000Y-104484524D01*
X174124000Y-103318071D01*
X174154114Y-103293114D01*
X174294289Y-103085686D01*
X174370848Y-102846516D01*
X174374385Y-102576330D01*
X174304113Y-102335238D01*
X174169415Y-102124212D01*
X173980904Y-101959473D01*
X173753733Y-101854264D01*
X173506164Y-101817044D01*
X173258100Y-101850804D01*
X173029482Y-101952830D01*
X172838689Y-102114922D01*
X172701059Y-102324047D01*
X172627654Y-102563394D01*
X172624377Y-102813723D01*
X170849334Y-102813723D01*
X170870848Y-102746516D01*
X170874385Y-102476330D01*
X170804113Y-102235238D01*
X170669415Y-102024212D01*
X170480904Y-101859473D01*
X170253733Y-101754264D01*
X170006164Y-101717044D01*
X169758100Y-101750804D01*
X169529482Y-101852830D01*
X169338689Y-102014922D01*
X169201059Y-102224047D01*
X169127654Y-102463394D01*
X169124377Y-102713723D01*
X169191490Y-102954911D01*
X169301001Y-103131189D01*
X169301000Y-103661984D01*
X169238689Y-103714922D01*
X169101059Y-103924047D01*
X169027654Y-104163394D01*
X169024377Y-104413723D01*
X149474000Y-104413723D01*
X149474000Y-94610795D01*
X150560556Y-94610795D01*
X150581490Y-94838626D01*
X150645129Y-95058389D01*
X150749176Y-95262152D01*
X150889876Y-95442564D01*
X151062152Y-95593116D01*
X151141001Y-95639099D01*
X151141000Y-101837764D01*
X151133785Y-101920224D01*
X151155213Y-102000194D01*
X151169587Y-102081712D01*
X151183526Y-102105855D01*
X151190740Y-102132780D01*
X151238219Y-102200589D01*
X151279614Y-102272287D01*
X151343038Y-102325506D01*
X151899501Y-102881970D01*
X151952713Y-102945386D01*
X152024409Y-102986779D01*
X152092219Y-103034260D01*
X152119144Y-103041474D01*
X152143287Y-103055413D01*
X152224805Y-103069787D01*
X152304775Y-103091215D01*
X152387238Y-103084000D01*
X155869143Y-103084000D01*
X155869143Y-103322213D01*
X155903502Y-103494945D01*
X156008265Y-103651735D01*
X156165055Y-103756498D01*
X156337787Y-103790857D01*
X158062213Y-103790857D01*
X158234945Y-103756498D01*
X158391735Y-103651735D01*
X158496498Y-103494945D01*
X158530857Y-103322213D01*
X158530857Y-103012414D01*
X158531990Y-103015622D01*
X158653473Y-103226461D01*
X158811344Y-103411630D01*
X159000315Y-103564929D01*
X159214058Y-103681223D01*
X159445415Y-103756619D01*
X159686639Y-103788591D01*
X159929648Y-103776068D01*
X160166308Y-103719470D01*
X160388688Y-103620691D01*
X160589346Y-103483042D01*
X160761557Y-103311130D01*
X160899558Y-103110713D01*
X160923530Y-103056998D01*
X160972887Y-103169705D01*
X161111153Y-103379792D01*
X161282838Y-103563582D01*
X161483036Y-103715815D01*
X161706021Y-103832141D01*
X161945418Y-103909234D01*
X162150000Y-103938532D01*
X162150000Y-102590000D01*
X162410000Y-102590000D01*
X162410000Y-103945205D01*
X162692466Y-103889020D01*
X162927343Y-103799094D01*
X163143711Y-103670878D01*
X163335383Y-103508041D01*
X163496879Y-103315237D01*
X163623580Y-103097979D01*
X163711864Y-102862479D01*
X163764089Y-102590000D01*
X162410000Y-102590000D01*
X162150000Y-102590000D01*
X162150000Y-102330000D01*
X162410000Y-102330000D01*
X163761197Y-102330000D01*
X163719979Y-102087596D01*
X163636646Y-101850299D01*
X163514522Y-101630435D01*
X163514173Y-101630000D01*
X178414050Y-101630000D01*
X178479824Y-101902924D01*
X178577127Y-102116929D01*
X178713141Y-102308675D01*
X178882961Y-102471241D01*
X179071261Y-102592825D01*
X179033893Y-102613538D01*
X178868229Y-102755530D01*
X178734501Y-102927933D01*
X178638169Y-103123704D01*
X178583171Y-103334846D01*
X178571752Y-103552735D01*
X178604379Y-103768470D01*
X178679718Y-103973238D01*
X178794694Y-104158674D01*
X178944608Y-104317205D01*
X179123337Y-104442351D01*
X179253586Y-104498715D01*
X179224725Y-104507760D01*
X179033893Y-104613538D01*
X178868229Y-104755530D01*
X178734501Y-104927933D01*
X178638169Y-105123704D01*
X178583171Y-105334846D01*
X178571752Y-105552735D01*
X178604379Y-105768470D01*
X178679718Y-105973238D01*
X178794694Y-106158674D01*
X178944608Y-106317205D01*
X179090192Y-106419143D01*
X179037787Y-106419143D01*
X178865055Y-106453502D01*
X178708265Y-106558265D01*
X178603502Y-106715055D01*
X178569143Y-106887787D01*
X178569143Y-108112213D01*
X178603502Y-108284945D01*
X178708265Y-108441735D01*
X178865055Y-108546498D01*
X179037787Y-108580857D01*
X180762213Y-108580857D01*
X180934945Y-108546498D01*
X181091735Y-108441735D01*
X181196498Y-108284945D01*
X181230857Y-108112213D01*
X181230857Y-106887787D01*
X181196498Y-106715055D01*
X181091735Y-106558265D01*
X180934945Y-106453502D01*
X180762213Y-106419143D01*
X180707148Y-106419143D01*
X180766107Y-106386462D01*
X180931771Y-106244470D01*
X181065499Y-106072067D01*
X181161831Y-105876296D01*
X181216829Y-105665154D01*
X181228248Y-105447265D01*
X181195621Y-105231530D01*
X181120282Y-105026762D01*
X181005306Y-104841326D01*
X180855392Y-104682795D01*
X180676663Y-104557649D01*
X180546414Y-104501285D01*
X180575275Y-104492240D01*
X180766107Y-104386462D01*
X180931771Y-104244470D01*
X181065499Y-104072067D01*
X181161831Y-103876296D01*
X181216829Y-103665154D01*
X181228248Y-103447265D01*
X181195621Y-103231530D01*
X181120282Y-103026762D01*
X181005306Y-102841326D01*
X180855392Y-102682795D01*
X180723494Y-102590440D01*
X180818603Y-102541455D01*
X181003474Y-102396237D01*
X181157551Y-102218679D01*
X181275272Y-102015190D01*
X181352392Y-101793109D01*
X181376035Y-101630000D01*
X178414050Y-101630000D01*
X163514173Y-101630000D01*
X163357100Y-101434291D01*
X163284560Y-101370000D01*
X178423965Y-101370000D01*
X179770000Y-101370000D01*
X179770000Y-100268000D01*
X180030000Y-100268000D01*
X180030000Y-101370000D01*
X181385950Y-101370000D01*
X181320176Y-101097076D01*
X181222873Y-100883071D01*
X181086859Y-100691325D01*
X180917039Y-100528759D01*
X180719544Y-100401238D01*
X180498655Y-100312217D01*
X180193697Y-100268000D01*
X180030000Y-100268000D01*
X179770000Y-100268000D01*
X179591284Y-100268000D01*
X179415975Y-100284726D01*
X179190394Y-100350904D01*
X178981397Y-100458545D01*
X178796526Y-100603763D01*
X178642449Y-100781321D01*
X178524728Y-100984810D01*
X178447608Y-101206891D01*
X178423965Y-101370000D01*
X163284560Y-101370000D01*
X163168881Y-101267476D01*
X162955245Y-101134757D01*
X162722302Y-101039932D01*
X162410000Y-100970982D01*
X162410000Y-102330000D01*
X162150000Y-102330000D01*
X162150000Y-100982848D01*
X161975842Y-101004077D01*
X161734883Y-101076140D01*
X161509510Y-101187770D01*
X161306168Y-101335778D01*
X161130671Y-101515930D01*
X160988037Y-101723077D01*
X160924843Y-101859527D01*
X160806091Y-101665360D01*
X160643428Y-101484387D01*
X160450508Y-101336087D01*
X160339000Y-101279149D01*
X160339000Y-101208113D01*
X160748113Y-100799000D01*
X164473864Y-100799000D01*
X164553011Y-100805925D01*
X164629768Y-100785358D01*
X164708030Y-100771559D01*
X164731208Y-100758177D01*
X164757052Y-100751252D01*
X164822137Y-100705680D01*
X164890970Y-100665938D01*
X164942050Y-100605063D01*
X165066925Y-100480188D01*
X165083049Y-100482814D01*
X165331507Y-100452088D01*
X165561354Y-100352862D01*
X165754114Y-100193114D01*
X165894289Y-99985686D01*
X165970848Y-99746516D01*
X165974385Y-99476330D01*
X165904113Y-99235238D01*
X165769415Y-99024212D01*
X165580904Y-98859473D01*
X165353733Y-98754264D01*
X165106164Y-98717044D01*
X164858100Y-98750804D01*
X164629482Y-98852830D01*
X164438689Y-99014922D01*
X164301059Y-99224047D01*
X164227654Y-99463394D01*
X164225853Y-99601000D01*
X160526135Y-99601000D01*
X160446989Y-99594075D01*
X160370233Y-99614641D01*
X160291969Y-99628442D01*
X160268796Y-99641821D01*
X160242945Y-99648748D01*
X160177858Y-99694324D01*
X160109031Y-99734061D01*
X160057950Y-99794937D01*
X159334936Y-100517951D01*
X159274061Y-100569031D01*
X159234324Y-100637858D01*
X159188748Y-100702949D01*
X159181823Y-100728793D01*
X159168442Y-100751969D01*
X159154641Y-100830235D01*
X159134075Y-100906989D01*
X159141000Y-100986139D01*
X159141000Y-101278686D01*
X159061150Y-101316687D01*
X158864165Y-101459542D01*
X158696513Y-101635903D01*
X158563806Y-101839864D01*
X158530857Y-101919214D01*
X158530857Y-101597787D01*
X158496498Y-101425055D01*
X158391735Y-101268265D01*
X158234945Y-101163502D01*
X158062213Y-101129143D01*
X156337787Y-101129143D01*
X156165055Y-101163502D01*
X156008265Y-101268265D01*
X155903502Y-101425055D01*
X155869143Y-101597787D01*
X155869143Y-101836000D01*
X152618469Y-101836000D01*
X152389000Y-101606532D01*
X152389000Y-98542067D01*
X152409031Y-98565939D01*
X152477854Y-98605674D01*
X152542948Y-98651252D01*
X152568792Y-98658177D01*
X152591968Y-98671558D01*
X152670234Y-98685359D01*
X152746988Y-98705925D01*
X152826138Y-98699000D01*
X155273864Y-98699000D01*
X155353011Y-98705925D01*
X155429768Y-98685358D01*
X155508030Y-98671559D01*
X155531208Y-98658177D01*
X155557052Y-98651252D01*
X155622137Y-98605680D01*
X155690970Y-98565938D01*
X155742050Y-98505063D01*
X156648114Y-97599000D01*
X164073864Y-97599000D01*
X164153011Y-97605925D01*
X164229768Y-97585358D01*
X164308030Y-97571559D01*
X164331208Y-97558177D01*
X164357052Y-97551252D01*
X164422137Y-97505680D01*
X164490970Y-97465938D01*
X164542050Y-97405063D01*
X166830083Y-95117031D01*
X166890949Y-95065960D01*
X166930679Y-94997143D01*
X166976263Y-94932043D01*
X166983189Y-94906194D01*
X166996568Y-94883021D01*
X167010367Y-94804768D01*
X167030936Y-94728002D01*
X167024010Y-94648844D01*
X167024010Y-93841321D01*
X167037972Y-93829750D01*
X167027654Y-93863394D01*
X167024377Y-94113723D01*
X167091490Y-94354911D01*
X167223600Y-94567567D01*
X167410085Y-94734597D01*
X167635954Y-94842572D01*
X167883049Y-94882814D01*
X168131507Y-94852088D01*
X168361354Y-94752862D01*
X168554114Y-94593114D01*
X168694289Y-94385686D01*
X168770848Y-94146517D01*
X168773106Y-93974008D01*
X169705072Y-93042042D01*
X169765939Y-92990969D01*
X169805674Y-92922146D01*
X169851252Y-92857052D01*
X169858177Y-92831208D01*
X169871558Y-92808032D01*
X169885359Y-92729766D01*
X169905925Y-92653012D01*
X169899000Y-92573862D01*
X169899000Y-89448113D01*
X170648114Y-88699000D01*
X172157430Y-88699000D01*
X172138689Y-88714922D01*
X172001059Y-88924047D01*
X171927654Y-89163394D01*
X171924377Y-89413723D01*
X171991490Y-89654911D01*
X172123600Y-89867567D01*
X172176001Y-89914501D01*
X172176000Y-91072764D01*
X172168785Y-91155224D01*
X172190213Y-91235194D01*
X172204587Y-91316712D01*
X172218526Y-91340855D01*
X172225740Y-91367780D01*
X172273219Y-91435589D01*
X172314614Y-91507287D01*
X172378038Y-91560506D01*
X172625758Y-91808227D01*
X172624377Y-91913724D01*
X172691490Y-92154911D01*
X172823600Y-92367567D01*
X173010085Y-92534597D01*
X173235954Y-92642572D01*
X173424906Y-92673345D01*
X173424377Y-92713724D01*
X173491490Y-92954911D01*
X173623600Y-93167567D01*
X173810085Y-93334597D01*
X174035954Y-93442572D01*
X174224906Y-93473345D01*
X174224377Y-93513724D01*
X174291490Y-93754911D01*
X174423600Y-93967567D01*
X174610085Y-94134597D01*
X174835954Y-94242572D01*
X175083049Y-94282814D01*
X175331507Y-94252088D01*
X175561354Y-94152862D01*
X175716845Y-94024000D01*
X175872764Y-94024000D01*
X175955224Y-94031215D01*
X176035188Y-94009789D01*
X176116712Y-93995413D01*
X176140856Y-93981474D01*
X176167782Y-93974259D01*
X176229246Y-93931221D01*
X176291490Y-94154911D01*
X176423600Y-94367567D01*
X176610085Y-94534597D01*
X176835954Y-94642572D01*
X177083049Y-94682814D01*
X177331507Y-94652088D01*
X177561354Y-94552862D01*
X177616341Y-94507292D01*
X177630502Y-94509789D01*
X177710460Y-94531215D01*
X177792920Y-94524000D01*
X180255063Y-94524000D01*
X180291490Y-94654911D01*
X180423600Y-94867567D01*
X180610085Y-95034597D01*
X180835954Y-95142572D01*
X181083049Y-95182814D01*
X181331507Y-95152088D01*
X181561354Y-95052862D01*
X181754114Y-94893114D01*
X181894289Y-94685686D01*
X181934940Y-94558693D01*
X182083049Y-94582814D01*
X182331507Y-94552088D01*
X182561354Y-94452862D01*
X182754114Y-94293114D01*
X182894289Y-94085686D01*
X182970848Y-93846516D01*
X182974385Y-93576330D01*
X182904113Y-93335238D01*
X182769415Y-93124212D01*
X182580904Y-92959473D01*
X182353733Y-92854264D01*
X182106164Y-92817044D01*
X182100309Y-92817841D01*
X181860504Y-92578036D01*
X181807287Y-92514614D01*
X181735580Y-92473214D01*
X181667782Y-92425741D01*
X181640856Y-92418526D01*
X181616712Y-92404587D01*
X181535188Y-92390211D01*
X181455224Y-92368785D01*
X181372762Y-92376000D01*
X176327235Y-92376000D01*
X176244775Y-92368785D01*
X176164809Y-92390212D01*
X176083287Y-92404587D01*
X176059144Y-92418526D01*
X176032217Y-92425741D01*
X175964405Y-92473223D01*
X175892713Y-92514614D01*
X175839499Y-92578032D01*
X175675442Y-92742090D01*
X175580905Y-92659473D01*
X175353733Y-92554264D01*
X175173719Y-92527200D01*
X175174385Y-92476330D01*
X175104113Y-92235238D01*
X174969415Y-92024212D01*
X174924000Y-91984524D01*
X174924000Y-91227235D01*
X174931215Y-91144775D01*
X174909788Y-91064809D01*
X174895413Y-90983287D01*
X174881474Y-90959144D01*
X174874259Y-90932217D01*
X174826777Y-90864405D01*
X174785386Y-90792713D01*
X174721970Y-90739501D01*
X174524000Y-90541532D01*
X174524000Y-89718071D01*
X174554114Y-89693114D01*
X174694289Y-89485686D01*
X174770848Y-89246516D01*
X174774385Y-88976330D01*
X174773031Y-88971686D01*
X174931507Y-88952088D01*
X175161354Y-88852862D01*
X175354114Y-88693114D01*
X175494289Y-88485686D01*
X175570848Y-88246516D01*
X175574385Y-87976330D01*
X175504113Y-87735238D01*
X175369415Y-87524212D01*
X175180904Y-87359473D01*
X174953733Y-87254264D01*
X174706164Y-87217044D01*
X174458100Y-87250804D01*
X174229482Y-87352830D01*
X174055076Y-87501000D01*
X170426135Y-87501000D01*
X170346988Y-87494075D01*
X170270228Y-87514643D01*
X170191969Y-87528442D01*
X170168796Y-87541821D01*
X170142947Y-87548747D01*
X170077847Y-87594331D01*
X170009030Y-87634061D01*
X169957955Y-87694932D01*
X168894930Y-88757957D01*
X168834062Y-88809030D01*
X168794332Y-88877846D01*
X168748748Y-88942948D01*
X168741822Y-88968795D01*
X168728442Y-88991969D01*
X168714645Y-89070221D01*
X168694075Y-89146988D01*
X168701001Y-89226150D01*
X168701000Y-91077035D01*
X168680904Y-91059473D01*
X168453733Y-90954264D01*
X168206164Y-90917044D01*
X167958100Y-90950804D01*
X167729482Y-91052830D01*
X167538689Y-91214922D01*
X167401059Y-91424047D01*
X167327654Y-91663394D01*
X167325508Y-91827378D01*
X166758947Y-92393940D01*
X166678743Y-92356796D01*
X166431174Y-92319576D01*
X166299000Y-92337564D01*
X166299000Y-90868475D01*
X166431507Y-90852088D01*
X166661354Y-90752862D01*
X166854114Y-90593114D01*
X166994289Y-90385686D01*
X167070848Y-90146516D01*
X167074385Y-89876330D01*
X167004113Y-89635238D01*
X166869415Y-89424212D01*
X166680904Y-89259473D01*
X166453733Y-89154264D01*
X166373522Y-89142205D01*
X166374385Y-89076330D01*
X166304113Y-88835238D01*
X166169415Y-88624212D01*
X165980904Y-88459473D01*
X165753733Y-88354264D01*
X165506164Y-88317044D01*
X165258100Y-88350804D01*
X165099000Y-88421806D01*
X165099000Y-85738783D01*
X165154114Y-85693108D01*
X165294289Y-85485680D01*
X165370848Y-85246510D01*
X165374385Y-84976324D01*
X165304113Y-84735232D01*
X165169415Y-84524206D01*
X164980904Y-84359467D01*
X164753733Y-84254258D01*
X164506164Y-84217038D01*
X164258100Y-84250798D01*
X164029482Y-84352824D01*
X163838689Y-84514916D01*
X163701059Y-84724041D01*
X163627654Y-84963388D01*
X163624377Y-85213717D01*
X163691490Y-85454905D01*
X163823600Y-85667561D01*
X163901000Y-85736886D01*
X163901001Y-92548465D01*
X163732248Y-92571431D01*
X163503630Y-92673457D01*
X163312837Y-92835549D01*
X163175207Y-93044674D01*
X163101802Y-93284021D01*
X163098525Y-93534350D01*
X163165638Y-93775538D01*
X163297748Y-93988194D01*
X163484233Y-94155224D01*
X163710102Y-94263199D01*
X163957197Y-94303441D01*
X164205655Y-94272715D01*
X164336777Y-94216109D01*
X163266887Y-95286000D01*
X155345217Y-95286000D01*
X155252825Y-95141810D01*
X155095192Y-94975988D01*
X154909046Y-94842966D01*
X154701103Y-94747544D01*
X154478870Y-94693164D01*
X154250363Y-94681788D01*
X154023826Y-94713827D01*
X153807435Y-94788126D01*
X153608998Y-94902001D01*
X153599000Y-94910616D01*
X153599000Y-94898113D01*
X153991438Y-94505676D01*
X154015657Y-94514181D01*
X154241964Y-94547801D01*
X154470546Y-94538021D01*
X154693153Y-94485194D01*
X154901756Y-94391226D01*
X155088826Y-94259506D01*
X155247614Y-94094789D01*
X155372389Y-93903017D01*
X155458651Y-93691112D01*
X155503318Y-93466557D01*
X155504137Y-93231811D01*
X155461039Y-93006950D01*
X155376259Y-92794447D01*
X155252825Y-92601810D01*
X155095192Y-92435988D01*
X154909046Y-92302966D01*
X154701103Y-92207544D01*
X154478870Y-92153164D01*
X154250363Y-92141788D01*
X154023826Y-92173827D01*
X153807435Y-92248126D01*
X153608998Y-92362001D01*
X153435674Y-92511347D01*
X153293718Y-92690772D01*
X153188251Y-92893804D01*
X153123080Y-93113117D01*
X153100556Y-93340795D01*
X153121490Y-93568626D01*
X153146813Y-93656073D01*
X152798058Y-94004829D01*
X152712825Y-93871810D01*
X152555192Y-93705988D01*
X152369046Y-93572966D01*
X152161103Y-93477544D01*
X151938870Y-93423164D01*
X151928696Y-93422658D01*
X152013291Y-93414661D01*
X152246601Y-93349520D01*
X152464686Y-93244093D01*
X152630082Y-93123930D01*
X151765000Y-92258848D01*
X150899239Y-93124609D01*
X151077593Y-93251356D01*
X151296772Y-93354494D01*
X151530751Y-93417188D01*
X151619493Y-93424640D01*
X151483826Y-93443827D01*
X151267435Y-93518126D01*
X151068998Y-93632001D01*
X150895674Y-93781347D01*
X150753718Y-93960772D01*
X150648251Y-94163804D01*
X150583080Y-94383117D01*
X150560556Y-94610795D01*
X149474000Y-94610795D01*
X149474000Y-92039334D01*
X150402991Y-92039334D01*
X150418201Y-92281089D01*
X150475981Y-92516329D01*
X150574507Y-92737620D01*
X150713705Y-92942447D01*
X151581152Y-92075000D01*
X151948848Y-92075000D01*
X152817303Y-92943456D01*
X152962367Y-92725117D01*
X153058570Y-92502807D01*
X153114257Y-92265379D01*
X153122372Y-91955496D01*
X153079186Y-91715480D01*
X152994750Y-91488439D01*
X152824049Y-91199799D01*
X151948848Y-92075000D01*
X151581152Y-92075000D01*
X150717107Y-91210955D01*
X150610817Y-91350981D01*
X150500845Y-91566813D01*
X150430833Y-91798708D01*
X150402991Y-92039334D01*
X149474000Y-92039334D01*
X149474000Y-84450795D01*
X150560556Y-84450795D01*
X150581490Y-84678626D01*
X150645129Y-84898389D01*
X150749176Y-85102152D01*
X150889876Y-85282564D01*
X151062152Y-85433116D01*
X151259790Y-85548375D01*
X151475657Y-85624181D01*
X151608910Y-85643977D01*
X151400423Y-85852464D01*
X151267435Y-85898125D01*
X151068998Y-86012001D01*
X150895674Y-86161347D01*
X150753718Y-86340772D01*
X150648251Y-86543804D01*
X150583080Y-86763117D01*
X150560556Y-86990795D01*
X150581490Y-87218626D01*
X150645129Y-87438389D01*
X150749176Y-87642152D01*
X150889876Y-87822564D01*
X151062152Y-87973116D01*
X151259790Y-88088375D01*
X151475657Y-88164181D01*
X151661149Y-88191738D01*
X151489922Y-88362965D01*
X151483826Y-88363827D01*
X151267435Y-88438126D01*
X151068998Y-88552001D01*
X150895674Y-88701347D01*
X150753718Y-88880772D01*
X150648251Y-89083804D01*
X150583080Y-89303117D01*
X150560556Y-89530795D01*
X150581490Y-89758626D01*
X150645129Y-89978389D01*
X150749176Y-90182152D01*
X150889876Y-90362564D01*
X151062152Y-90513116D01*
X151259790Y-90628375D01*
X151475657Y-90704181D01*
X151600052Y-90722661D01*
X151364377Y-90772755D01*
X151140101Y-90864281D01*
X150894188Y-91020341D01*
X151765000Y-91891152D01*
X152645650Y-91010503D01*
X152312644Y-90827431D01*
X152233496Y-90800795D01*
X153100556Y-90800795D01*
X153121490Y-91028626D01*
X153185129Y-91248389D01*
X153289176Y-91452152D01*
X153429876Y-91632564D01*
X153602152Y-91783116D01*
X153799790Y-91898375D01*
X154015657Y-91974181D01*
X154241964Y-92007801D01*
X154470546Y-91998021D01*
X154693153Y-91945194D01*
X154901756Y-91851226D01*
X155088826Y-91719506D01*
X155247614Y-91554789D01*
X155372389Y-91363017D01*
X155458651Y-91151112D01*
X155503318Y-90926557D01*
X155504137Y-90691811D01*
X155461039Y-90466950D01*
X155376259Y-90254447D01*
X155252825Y-90061810D01*
X155095192Y-89895988D01*
X154909046Y-89762966D01*
X154701103Y-89667544D01*
X154478870Y-89613164D01*
X154250363Y-89601788D01*
X154023826Y-89633827D01*
X153807435Y-89708126D01*
X153608998Y-89822001D01*
X153435674Y-89971347D01*
X153293718Y-90150772D01*
X153188251Y-90353804D01*
X153123080Y-90573117D01*
X153100556Y-90800795D01*
X152233496Y-90800795D01*
X152083063Y-90750170D01*
X151931514Y-90727791D01*
X152153153Y-90675194D01*
X152361756Y-90581226D01*
X152548826Y-90449506D01*
X152707614Y-90284789D01*
X152832389Y-90093017D01*
X152918651Y-89881112D01*
X152963318Y-89656557D01*
X152964137Y-89421811D01*
X152921039Y-89196950D01*
X152836259Y-88984447D01*
X152729414Y-88817699D01*
X153116188Y-88430925D01*
X153121490Y-88488626D01*
X153185129Y-88708389D01*
X153289176Y-88912152D01*
X153429876Y-89092564D01*
X153602152Y-89243116D01*
X153799790Y-89358375D01*
X154015657Y-89434181D01*
X154241964Y-89467801D01*
X154470546Y-89458021D01*
X154693153Y-89405194D01*
X154901756Y-89311226D01*
X155088826Y-89179506D01*
X155247614Y-89014789D01*
X155372389Y-88823017D01*
X155458651Y-88611112D01*
X155503318Y-88386557D01*
X155504137Y-88151811D01*
X155461039Y-87926950D01*
X155376259Y-87714447D01*
X155298852Y-87593642D01*
X155329768Y-87585358D01*
X155408030Y-87571559D01*
X155431208Y-87558177D01*
X155457052Y-87551252D01*
X155522137Y-87505680D01*
X155590970Y-87465938D01*
X155642050Y-87405063D01*
X156205070Y-86842044D01*
X156265939Y-86790969D01*
X156305674Y-86722146D01*
X156351252Y-86657052D01*
X156358177Y-86631208D01*
X156371558Y-86608032D01*
X156385359Y-86529766D01*
X156405925Y-86453012D01*
X156399000Y-86373862D01*
X156399000Y-84199000D01*
X160882068Y-84199000D01*
X160877654Y-84213394D01*
X160874377Y-84463723D01*
X160941490Y-84704911D01*
X161073600Y-84917567D01*
X161126001Y-84964501D01*
X161126000Y-91041531D01*
X160549594Y-91617938D01*
X160308100Y-91650804D01*
X160079482Y-91752830D01*
X159888689Y-91914922D01*
X159751059Y-92124047D01*
X159677654Y-92363394D01*
X159674377Y-92613723D01*
X159741490Y-92854911D01*
X159873600Y-93067567D01*
X160060085Y-93234597D01*
X160285954Y-93342572D01*
X160533049Y-93382814D01*
X160781507Y-93352088D01*
X161011354Y-93252862D01*
X161204114Y-93093114D01*
X161344289Y-92885686D01*
X161420848Y-92646517D01*
X161422637Y-92509832D01*
X162171972Y-91760497D01*
X162235386Y-91707288D01*
X162276784Y-91635583D01*
X162324258Y-91567783D01*
X162331473Y-91540860D01*
X162345414Y-91516711D01*
X162359788Y-91435189D01*
X162381215Y-91355225D01*
X162374000Y-91272763D01*
X162374000Y-84968071D01*
X162404114Y-84943114D01*
X162544289Y-84735686D01*
X162620848Y-84496516D01*
X162624385Y-84226330D01*
X162616419Y-84199000D01*
X170758694Y-84199000D01*
X170910085Y-84334597D01*
X171135954Y-84442572D01*
X171383049Y-84482814D01*
X171631507Y-84452088D01*
X171861354Y-84352862D01*
X172054114Y-84193114D01*
X172194289Y-83985686D01*
X172270848Y-83746516D01*
X172274385Y-83476330D01*
X172204113Y-83235238D01*
X172069415Y-83024212D01*
X171880904Y-82859473D01*
X171653733Y-82754264D01*
X171406164Y-82717044D01*
X171158100Y-82750804D01*
X170929482Y-82852830D01*
X170755076Y-83001000D01*
X170716362Y-83001000D01*
X170794289Y-82885686D01*
X170870848Y-82646516D01*
X170874385Y-82376330D01*
X170804113Y-82135238D01*
X170669415Y-81924212D01*
X170480904Y-81759473D01*
X170253733Y-81654264D01*
X170144137Y-81637787D01*
X173869143Y-81637787D01*
X173869143Y-83362213D01*
X173903502Y-83534945D01*
X174008265Y-83691735D01*
X174165055Y-83796498D01*
X174337787Y-83830857D01*
X176062213Y-83830857D01*
X176234945Y-83796498D01*
X176391735Y-83691735D01*
X176496498Y-83534945D01*
X176530857Y-83362213D01*
X176530857Y-81637787D01*
X176496498Y-81465055D01*
X176391735Y-81308265D01*
X176234945Y-81203502D01*
X176062213Y-81169143D01*
X174337787Y-81169143D01*
X174165055Y-81203502D01*
X174008265Y-81308265D01*
X173903502Y-81465055D01*
X173869143Y-81637787D01*
X170144137Y-81637787D01*
X170006164Y-81617044D01*
X169758100Y-81650804D01*
X169529482Y-81752830D01*
X169355076Y-81901000D01*
X156026135Y-81901000D01*
X155946988Y-81894075D01*
X155870234Y-81914641D01*
X155791968Y-81928442D01*
X155768792Y-81941823D01*
X155742948Y-81948748D01*
X155677854Y-81994326D01*
X155609031Y-82034061D01*
X155557955Y-82094931D01*
X154819666Y-82833220D01*
X154796715Y-82708781D01*
X154712996Y-82490116D01*
X154590831Y-82290369D01*
X154434309Y-82116230D01*
X154248676Y-81973531D01*
X154040145Y-81867051D01*
X153815703Y-81800355D01*
X153582864Y-81775677D01*
X153349426Y-81793843D01*
X153123209Y-81854247D01*
X152911787Y-81954863D01*
X152722240Y-82092323D01*
X152560919Y-82262025D01*
X152433224Y-82458283D01*
X152343433Y-82674524D01*
X152294552Y-82903508D01*
X152288218Y-83137566D01*
X152324644Y-83368858D01*
X152334646Y-83397180D01*
X152161103Y-83317544D01*
X151938870Y-83263164D01*
X151710363Y-83251788D01*
X151483826Y-83283827D01*
X151267435Y-83358126D01*
X151068998Y-83472001D01*
X150895674Y-83621347D01*
X150753718Y-83800772D01*
X150648251Y-84003804D01*
X150583080Y-84223117D01*
X150560556Y-84450795D01*
X149474000Y-84450795D01*
X149474000Y-73112787D01*
X152144143Y-73112787D01*
X152144143Y-74887213D01*
X152178502Y-75059945D01*
X152283265Y-75216735D01*
X152440055Y-75321498D01*
X152612787Y-75355857D01*
X154387213Y-75355857D01*
X154559945Y-75321498D01*
X154716735Y-75216735D01*
X154821498Y-75059945D01*
X154855857Y-74887213D01*
X154855857Y-73112787D01*
X154821498Y-72940055D01*
X154716735Y-72783265D01*
X154559945Y-72678502D01*
X154387213Y-72644143D01*
X154220418Y-72644143D01*
X154390378Y-72520659D01*
X154557049Y-72346856D01*
X154690308Y-72146285D01*
X154785944Y-71925285D01*
X154841306Y-71689248D01*
X154849372Y-71381209D01*
X154806438Y-71142599D01*
X154722501Y-70916896D01*
X154599922Y-70709626D01*
X154442575Y-70527338D01*
X154255434Y-70375795D01*
X154044416Y-70259787D01*
X154014513Y-70249723D01*
X154195563Y-70162201D01*
X154390378Y-70020659D01*
X154557049Y-69846856D01*
X154690308Y-69646285D01*
X154785944Y-69425285D01*
X154835565Y-69213723D01*
X156324377Y-69213723D01*
X156351001Y-69309401D01*
X156351000Y-72487271D01*
X156327654Y-72563394D01*
X156324377Y-72813723D01*
X156391490Y-73054911D01*
X156523600Y-73267567D01*
X156710085Y-73434597D01*
X156935954Y-73542572D01*
X157183049Y-73582814D01*
X157431507Y-73552088D01*
X157451001Y-73543672D01*
X157451001Y-73787268D01*
X157427654Y-73863394D01*
X157424377Y-74113723D01*
X157491490Y-74354911D01*
X157623600Y-74567567D01*
X157810085Y-74734597D01*
X158035954Y-74842572D01*
X158283049Y-74882814D01*
X158531507Y-74852088D01*
X158676001Y-74789709D01*
X158676001Y-79583223D01*
X158638689Y-79614922D01*
X158501059Y-79824047D01*
X158427654Y-80063394D01*
X158424377Y-80313723D01*
X158491490Y-80554911D01*
X158623600Y-80767567D01*
X158810085Y-80934597D01*
X159035954Y-81042572D01*
X159283049Y-81082814D01*
X159531507Y-81052088D01*
X159761354Y-80952862D01*
X159954114Y-80793114D01*
X160094289Y-80585686D01*
X160170848Y-80346516D01*
X160174385Y-80076330D01*
X160104113Y-79835238D01*
X159969415Y-79624212D01*
X159924000Y-79584524D01*
X159924000Y-65218071D01*
X159954114Y-65193114D01*
X160094289Y-64985686D01*
X160170848Y-64746516D01*
X160174385Y-64476330D01*
X160104113Y-64235238D01*
X159969415Y-64024212D01*
X159780904Y-63859473D01*
X159553733Y-63754264D01*
X159306164Y-63717044D01*
X159058100Y-63750804D01*
X158829482Y-63852830D01*
X158638689Y-64014922D01*
X158501059Y-64224047D01*
X158427654Y-64463394D01*
X158424377Y-64713723D01*
X158491490Y-64954911D01*
X158623600Y-65167567D01*
X158676000Y-65214500D01*
X158676000Y-68010889D01*
X158553733Y-67954264D01*
X158306164Y-67917044D01*
X158058100Y-67950804D01*
X157829482Y-68052830D01*
X157638689Y-68214922D01*
X157575640Y-68310722D01*
X157453733Y-68254264D01*
X157206164Y-68217044D01*
X156958100Y-68250804D01*
X156729482Y-68352830D01*
X156538689Y-68514922D01*
X156401059Y-68724047D01*
X156327654Y-68963394D01*
X156324377Y-69213723D01*
X154835565Y-69213723D01*
X154841306Y-69189248D01*
X154849372Y-68881209D01*
X154806438Y-68642599D01*
X154722501Y-68416896D01*
X154599922Y-68209626D01*
X154442575Y-68027338D01*
X154255434Y-67875795D01*
X154044416Y-67759787D01*
X154014513Y-67749723D01*
X154195563Y-67662201D01*
X154390378Y-67520659D01*
X154557049Y-67346856D01*
X154690308Y-67146285D01*
X154785944Y-66925285D01*
X154841306Y-66689248D01*
X154849372Y-66381209D01*
X154806438Y-66142599D01*
X154722501Y-65916896D01*
X154599922Y-65709626D01*
X154442575Y-65527338D01*
X154255434Y-65375795D01*
X154044416Y-65259787D01*
X154014513Y-65249723D01*
X154195563Y-65162201D01*
X154390378Y-65020659D01*
X154557049Y-64846856D01*
X154690308Y-64646285D01*
X154785944Y-64425285D01*
X154841306Y-64189248D01*
X154849372Y-63881209D01*
X154806438Y-63642599D01*
X154722501Y-63416896D01*
X154599922Y-63209626D01*
X154442575Y-63027338D01*
X154255434Y-62875795D01*
X154044416Y-62759787D01*
X153816188Y-62682980D01*
X153577967Y-62647802D01*
X153337282Y-62655366D01*
X153101739Y-62705432D01*
X152878785Y-62796417D01*
X152675466Y-62925447D01*
X152498211Y-63088443D01*
X152352621Y-63280251D01*
X152243298Y-63494809D01*
X152173698Y-63725336D01*
X152146020Y-63964545D01*
X152161141Y-64204874D01*
X152218580Y-64438728D01*
X152316525Y-64658714D01*
X152451876Y-64857878D01*
X152620359Y-65029927D01*
X152816646Y-65169421D01*
X152990041Y-65251015D01*
X152878785Y-65296417D01*
X152675466Y-65425447D01*
X152498211Y-65588443D01*
X152352621Y-65780251D01*
X152243298Y-65994809D01*
X152173698Y-66225336D01*
X152146020Y-66464545D01*
X152161141Y-66704874D01*
X152218580Y-66938728D01*
X152316525Y-67158714D01*
X152451876Y-67357878D01*
X152620359Y-67529927D01*
X152816646Y-67669421D01*
X152990041Y-67751015D01*
X152878785Y-67796417D01*
X152675466Y-67925447D01*
X152498211Y-68088443D01*
X152352621Y-68280251D01*
X152243298Y-68494809D01*
X152173698Y-68725336D01*
X152146020Y-68964545D01*
X152161141Y-69204874D01*
X152218580Y-69438728D01*
X152316525Y-69658714D01*
X152451876Y-69857878D01*
X152620359Y-70029927D01*
X152816646Y-70169421D01*
X152990041Y-70251015D01*
X152878785Y-70296417D01*
X152675466Y-70425447D01*
X152498211Y-70588443D01*
X152352621Y-70780251D01*
X152243298Y-70994809D01*
X152173698Y-71225336D01*
X152146020Y-71464545D01*
X152161141Y-71704874D01*
X152218580Y-71938728D01*
X152316525Y-72158714D01*
X152451876Y-72357878D01*
X152620359Y-72529927D01*
X152781076Y-72644143D01*
X152612787Y-72644143D01*
X152440055Y-72678502D01*
X152283265Y-72783265D01*
X152178502Y-72940055D01*
X152144143Y-73112787D01*
X149474000Y-73112787D01*
X149474000Y-61090000D01*
X161070163Y-61090000D01*
X161070163Y-61826325D01*
X161150612Y-62126566D01*
X161297491Y-62301609D01*
X161490508Y-62413047D01*
X161699151Y-62449837D01*
X161752704Y-62449837D01*
X161684165Y-62499542D01*
X161516513Y-62675903D01*
X161383806Y-62879864D01*
X161290491Y-63104592D01*
X161239692Y-63342563D01*
X161233109Y-63585806D01*
X161270965Y-63826176D01*
X161351990Y-64055622D01*
X161473473Y-64266461D01*
X161631344Y-64451630D01*
X161820315Y-64604929D01*
X162034058Y-64721223D01*
X162183726Y-64769998D01*
X162100870Y-64792122D01*
X161881150Y-64896687D01*
X161684165Y-65039542D01*
X161516513Y-65215903D01*
X161383806Y-65419864D01*
X161290491Y-65644592D01*
X161239692Y-65882563D01*
X161233109Y-66125806D01*
X161270965Y-66366176D01*
X161351990Y-66595622D01*
X161473473Y-66806461D01*
X161631344Y-66991630D01*
X161820315Y-67144929D01*
X162034058Y-67261223D01*
X162183726Y-67309998D01*
X162100870Y-67332122D01*
X161881150Y-67436687D01*
X161684165Y-67579542D01*
X161516513Y-67755903D01*
X161383806Y-67959864D01*
X161290491Y-68184592D01*
X161239692Y-68422563D01*
X161233109Y-68665806D01*
X161270965Y-68906176D01*
X161351990Y-69135622D01*
X161473473Y-69346461D01*
X161631344Y-69531630D01*
X161820315Y-69684929D01*
X162034058Y-69801223D01*
X162183726Y-69849998D01*
X162100870Y-69872122D01*
X161881150Y-69976687D01*
X161684165Y-70119542D01*
X161516513Y-70295903D01*
X161383806Y-70499864D01*
X161290491Y-70724592D01*
X161239692Y-70962563D01*
X161233109Y-71205806D01*
X161270965Y-71446176D01*
X161351990Y-71675622D01*
X161473473Y-71886461D01*
X161631344Y-72071630D01*
X161820315Y-72224929D01*
X162034058Y-72341223D01*
X162183726Y-72389998D01*
X162100870Y-72412122D01*
X161881150Y-72516687D01*
X161684165Y-72659542D01*
X161516513Y-72835903D01*
X161383806Y-73039864D01*
X161290491Y-73264592D01*
X161239692Y-73502563D01*
X161233109Y-73745806D01*
X161270965Y-73986176D01*
X161351990Y-74215622D01*
X161473473Y-74426461D01*
X161631344Y-74611630D01*
X161820315Y-74764929D01*
X162034058Y-74881223D01*
X162183726Y-74929998D01*
X162100870Y-74952122D01*
X161881150Y-75056687D01*
X161684165Y-75199542D01*
X161516513Y-75375903D01*
X161383806Y-75579864D01*
X161290491Y-75804592D01*
X161239692Y-76042563D01*
X161233109Y-76285806D01*
X161270965Y-76526176D01*
X161351990Y-76755622D01*
X161473473Y-76966461D01*
X161631344Y-77151630D01*
X161820315Y-77304929D01*
X162034058Y-77421223D01*
X162183726Y-77469998D01*
X162100870Y-77492122D01*
X161881150Y-77596687D01*
X161684165Y-77739542D01*
X161516513Y-77915903D01*
X161383806Y-78119864D01*
X161290491Y-78344592D01*
X161239692Y-78582563D01*
X161233109Y-78825806D01*
X161270965Y-79066176D01*
X161351990Y-79295622D01*
X161473473Y-79506461D01*
X161631344Y-79691630D01*
X161820315Y-79844929D01*
X162034058Y-79961223D01*
X162265415Y-80036619D01*
X162506639Y-80068591D01*
X162749648Y-80056068D01*
X162986308Y-79999470D01*
X163208688Y-79900691D01*
X163409346Y-79763042D01*
X163581557Y-79591130D01*
X163583024Y-79589000D01*
X163666964Y-79589000D01*
X163693293Y-79594958D01*
X163789318Y-79589000D01*
X163822973Y-79589000D01*
X163848694Y-79585316D01*
X163936016Y-79579898D01*
X163968557Y-79568150D01*
X164002814Y-79563245D01*
X164082465Y-79527029D01*
X164165118Y-79497191D01*
X164192258Y-79477109D01*
X164224196Y-79462587D01*
X164299077Y-79398066D01*
X164320625Y-79382122D01*
X164339585Y-79363162D01*
X164408427Y-79303844D01*
X164425973Y-79276774D01*
X166733076Y-76969672D01*
X166755905Y-76955268D01*
X166819595Y-76883153D01*
X166843389Y-76859359D01*
X166858971Y-76838568D01*
X166916889Y-76772990D01*
X166931594Y-76741667D01*
X166952346Y-76713978D01*
X166983054Y-76632062D01*
X167020406Y-76552503D01*
X167025397Y-76519109D01*
X167037710Y-76486264D01*
X167045032Y-76387725D01*
X167049000Y-76361179D01*
X167049000Y-76334345D01*
X167055733Y-76243744D01*
X167049000Y-76212202D01*
X167049000Y-69258195D01*
X167061354Y-69252862D01*
X167254114Y-69093114D01*
X167394289Y-68885686D01*
X167470848Y-68646516D01*
X167474385Y-68376330D01*
X167404113Y-68135238D01*
X167269415Y-67924212D01*
X167080904Y-67759473D01*
X166853733Y-67654264D01*
X166606164Y-67617044D01*
X166358100Y-67650804D01*
X166129482Y-67752830D01*
X165938689Y-67914922D01*
X165850669Y-68048665D01*
X165666928Y-68232406D01*
X165644095Y-68246813D01*
X165580402Y-68318932D01*
X165556611Y-68342722D01*
X165541027Y-68363516D01*
X165483113Y-68429091D01*
X165468407Y-68460414D01*
X165447654Y-68488105D01*
X165444570Y-68496333D01*
X165353733Y-68454264D01*
X165106164Y-68417044D01*
X164858100Y-68450804D01*
X164629482Y-68552830D01*
X164438689Y-68714922D01*
X164301059Y-68924047D01*
X164227654Y-69163394D01*
X164224377Y-69413723D01*
X164251000Y-69509398D01*
X164251001Y-75351000D01*
X163577230Y-75351000D01*
X163463428Y-75224387D01*
X163270508Y-75076087D01*
X163053794Y-74965428D01*
X162938009Y-74931021D01*
X162986308Y-74919470D01*
X163208688Y-74820691D01*
X163409346Y-74683042D01*
X163581557Y-74511130D01*
X163719558Y-74310713D01*
X163818724Y-74088504D01*
X163876119Y-73850351D01*
X163884487Y-73541101D01*
X163840055Y-73300193D01*
X163753051Y-73072947D01*
X163626091Y-72865360D01*
X163463428Y-72684387D01*
X163270508Y-72536087D01*
X163053794Y-72425428D01*
X162938009Y-72391021D01*
X162986308Y-72379470D01*
X163208688Y-72280691D01*
X163409346Y-72143042D01*
X163581557Y-71971130D01*
X163719558Y-71770713D01*
X163818724Y-71548504D01*
X163876119Y-71310351D01*
X163884487Y-71001101D01*
X163840055Y-70760193D01*
X163753051Y-70532947D01*
X163626091Y-70325360D01*
X163463428Y-70144387D01*
X163270508Y-69996087D01*
X163053794Y-69885428D01*
X162938009Y-69851021D01*
X162986308Y-69839470D01*
X163208688Y-69740691D01*
X163409346Y-69603042D01*
X163581557Y-69431130D01*
X163719558Y-69230713D01*
X163818724Y-69008504D01*
X163876119Y-68770351D01*
X163884487Y-68461101D01*
X163840055Y-68220193D01*
X163753051Y-67992947D01*
X163626091Y-67785360D01*
X163463428Y-67604387D01*
X163270508Y-67456087D01*
X163053794Y-67345428D01*
X162938009Y-67311021D01*
X162986308Y-67299470D01*
X163208688Y-67200691D01*
X163409346Y-67063042D01*
X163581557Y-66891130D01*
X163719558Y-66690713D01*
X163818724Y-66468504D01*
X163876119Y-66230351D01*
X163884487Y-65921101D01*
X163840055Y-65680193D01*
X163753051Y-65452947D01*
X163626091Y-65245360D01*
X163463428Y-65064387D01*
X163270508Y-64916087D01*
X163053794Y-64805428D01*
X162938009Y-64771021D01*
X162986308Y-64759470D01*
X163208688Y-64660691D01*
X163409346Y-64523042D01*
X163581557Y-64351130D01*
X163719558Y-64150713D01*
X163818724Y-63928504D01*
X163876119Y-63690351D01*
X163884487Y-63381101D01*
X163840055Y-63140193D01*
X163753051Y-62912947D01*
X163626091Y-62705360D01*
X163463428Y-62524387D01*
X163366448Y-62449837D01*
X163426325Y-62449837D01*
X163726566Y-62369388D01*
X163901609Y-62222509D01*
X164013047Y-62029492D01*
X164049837Y-61820849D01*
X164049837Y-61090000D01*
X161070163Y-61090000D01*
X149474000Y-61090000D01*
X149474000Y-60099151D01*
X161070163Y-60099151D01*
X161070163Y-60830000D01*
X162430000Y-60830000D01*
X162430000Y-59470163D01*
X162690000Y-59470163D01*
X162690000Y-60830000D01*
X164049837Y-60830000D01*
X164049837Y-60097787D01*
X176469143Y-60097787D01*
X176469143Y-61822213D01*
X176503502Y-61994945D01*
X176608265Y-62151735D01*
X176765055Y-62256498D01*
X176937787Y-62290857D01*
X177259477Y-62290857D01*
X177121150Y-62356687D01*
X176924165Y-62499542D01*
X176756513Y-62675903D01*
X176623806Y-62879864D01*
X176530491Y-63104592D01*
X176479692Y-63342563D01*
X176473109Y-63585806D01*
X176510965Y-63826176D01*
X176591990Y-64055622D01*
X176713473Y-64266461D01*
X176871344Y-64451630D01*
X177060315Y-64604929D01*
X177274058Y-64721223D01*
X177423726Y-64769998D01*
X177340870Y-64792122D01*
X177121150Y-64896687D01*
X176924165Y-65039542D01*
X176756513Y-65215903D01*
X176623806Y-65419864D01*
X176530491Y-65644592D01*
X176479692Y-65882563D01*
X176473109Y-66125806D01*
X176510965Y-66366176D01*
X176591990Y-66595622D01*
X176713473Y-66806461D01*
X176871344Y-66991630D01*
X177060315Y-67144929D01*
X177274058Y-67261223D01*
X177423726Y-67309998D01*
X177340870Y-67332122D01*
X177121150Y-67436687D01*
X176924165Y-67579542D01*
X176756513Y-67755903D01*
X176623806Y-67959864D01*
X176530491Y-68184592D01*
X176479692Y-68422563D01*
X176473109Y-68665806D01*
X176510965Y-68906176D01*
X176591990Y-69135622D01*
X176713473Y-69346461D01*
X176871344Y-69531630D01*
X177060315Y-69684929D01*
X177274058Y-69801223D01*
X177423726Y-69849998D01*
X177340870Y-69872122D01*
X177121150Y-69976687D01*
X176924165Y-70119542D01*
X176756513Y-70295903D01*
X176623806Y-70499864D01*
X176530491Y-70724592D01*
X176479692Y-70962563D01*
X176473109Y-71205806D01*
X176510965Y-71446176D01*
X176591990Y-71675622D01*
X176713473Y-71886461D01*
X176871344Y-72071630D01*
X177060315Y-72224929D01*
X177274058Y-72341223D01*
X177423726Y-72389998D01*
X177340870Y-72412122D01*
X177121150Y-72516687D01*
X176924165Y-72659542D01*
X176756513Y-72835903D01*
X176623806Y-73039864D01*
X176530491Y-73264592D01*
X176479692Y-73502563D01*
X176473109Y-73745806D01*
X176510965Y-73986176D01*
X176591990Y-74215622D01*
X176713473Y-74426461D01*
X176871344Y-74611630D01*
X177060315Y-74764929D01*
X177274058Y-74881223D01*
X177423726Y-74929998D01*
X177340870Y-74952122D01*
X177121150Y-75056687D01*
X176924165Y-75199542D01*
X176756513Y-75375903D01*
X176623806Y-75579864D01*
X176530491Y-75804592D01*
X176479692Y-76042563D01*
X176473109Y-76285806D01*
X176510965Y-76526176D01*
X176591990Y-76755622D01*
X176713473Y-76966461D01*
X176871344Y-77151630D01*
X177060315Y-77304929D01*
X177274058Y-77421223D01*
X177423726Y-77469998D01*
X177340870Y-77492122D01*
X177121150Y-77596687D01*
X176924165Y-77739542D01*
X176756513Y-77915903D01*
X176623806Y-78119864D01*
X176530491Y-78344592D01*
X176479692Y-78582563D01*
X176473109Y-78825806D01*
X176510965Y-79066176D01*
X176591990Y-79295622D01*
X176713473Y-79506461D01*
X176871344Y-79691630D01*
X177060315Y-79844929D01*
X177274058Y-79961223D01*
X177505415Y-80036619D01*
X177746639Y-80068591D01*
X177989648Y-80056068D01*
X178226308Y-79999470D01*
X178448688Y-79900691D01*
X178649346Y-79763042D01*
X178821557Y-79591130D01*
X178959558Y-79390713D01*
X179058724Y-79168504D01*
X179116119Y-78930351D01*
X179124487Y-78621101D01*
X179080055Y-78380193D01*
X178993051Y-78152947D01*
X178866091Y-77945360D01*
X178703428Y-77764387D01*
X178510508Y-77616087D01*
X178293794Y-77505428D01*
X178178009Y-77471021D01*
X178226308Y-77459470D01*
X178448688Y-77360691D01*
X178649346Y-77223042D01*
X178821557Y-77051130D01*
X178959558Y-76850713D01*
X179058724Y-76628504D01*
X179116119Y-76390351D01*
X179124487Y-76081101D01*
X179080055Y-75840193D01*
X178993051Y-75612947D01*
X178866091Y-75405360D01*
X178703428Y-75224387D01*
X178510508Y-75076087D01*
X178293794Y-74965428D01*
X178178009Y-74931021D01*
X178226308Y-74919470D01*
X178448688Y-74820691D01*
X178649346Y-74683042D01*
X178821557Y-74511130D01*
X178959558Y-74310713D01*
X179058724Y-74088504D01*
X179116119Y-73850351D01*
X179124487Y-73541101D01*
X179080055Y-73300193D01*
X178993051Y-73072947D01*
X178866091Y-72865360D01*
X178703428Y-72684387D01*
X178510508Y-72536087D01*
X178293794Y-72425428D01*
X178178009Y-72391021D01*
X178226308Y-72379470D01*
X178448688Y-72280691D01*
X178649346Y-72143042D01*
X178821557Y-71971130D01*
X178959558Y-71770713D01*
X179058724Y-71548504D01*
X179116119Y-71310351D01*
X179124487Y-71001101D01*
X179080055Y-70760193D01*
X178993051Y-70532947D01*
X178866091Y-70325360D01*
X178703428Y-70144387D01*
X178510508Y-69996087D01*
X178293794Y-69885428D01*
X178178009Y-69851021D01*
X178226308Y-69839470D01*
X178448688Y-69740691D01*
X178649346Y-69603042D01*
X178821557Y-69431130D01*
X178959558Y-69230713D01*
X179058724Y-69008504D01*
X179116119Y-68770351D01*
X179124487Y-68461101D01*
X179080055Y-68220193D01*
X178993051Y-67992947D01*
X178866091Y-67785360D01*
X178703428Y-67604387D01*
X178510508Y-67456087D01*
X178293794Y-67345428D01*
X178178009Y-67311021D01*
X178226308Y-67299470D01*
X178448688Y-67200691D01*
X178649346Y-67063042D01*
X178821557Y-66891130D01*
X178959558Y-66690713D01*
X179058724Y-66468504D01*
X179116119Y-66230351D01*
X179124487Y-65921101D01*
X179080055Y-65680193D01*
X178993051Y-65452947D01*
X178866091Y-65245360D01*
X178703428Y-65064387D01*
X178510508Y-64916087D01*
X178293794Y-64805428D01*
X178178009Y-64771021D01*
X178226308Y-64759470D01*
X178448688Y-64660691D01*
X178649346Y-64523042D01*
X178821557Y-64351130D01*
X178959558Y-64150713D01*
X179058724Y-63928504D01*
X179116119Y-63690351D01*
X179124487Y-63381101D01*
X179080055Y-63140193D01*
X178993051Y-62912947D01*
X178866091Y-62705360D01*
X178703428Y-62524387D01*
X178510508Y-62376087D01*
X178343594Y-62290857D01*
X178662213Y-62290857D01*
X178834945Y-62256498D01*
X178991735Y-62151735D01*
X179096498Y-61994945D01*
X179130857Y-61822213D01*
X179130857Y-60097787D01*
X179096498Y-59925055D01*
X178991735Y-59768265D01*
X178834945Y-59663502D01*
X178662213Y-59629143D01*
X176937787Y-59629143D01*
X176765055Y-59663502D01*
X176608265Y-59768265D01*
X176503502Y-59925055D01*
X176469143Y-60097787D01*
X164049837Y-60097787D01*
X164049837Y-60093675D01*
X163969388Y-59793435D01*
X163822509Y-59618391D01*
X163629492Y-59506953D01*
X163420849Y-59470163D01*
X162690000Y-59470163D01*
X162430000Y-59470163D01*
X161693675Y-59470163D01*
X161393435Y-59550612D01*
X161218391Y-59697491D01*
X161106953Y-59890508D01*
X161070163Y-60099151D01*
X149474000Y-60099151D01*
X149474000Y-58013723D01*
X158524377Y-58013723D01*
X158591490Y-58254911D01*
X158723600Y-58467567D01*
X158910086Y-58634597D01*
X158955769Y-58656435D01*
X159232406Y-58933073D01*
X159246813Y-58955906D01*
X159318934Y-59019601D01*
X159342722Y-59043389D01*
X159363508Y-59058968D01*
X159429092Y-59116889D01*
X159460413Y-59131594D01*
X159488103Y-59152346D01*
X159570034Y-59183060D01*
X159649576Y-59220406D01*
X159682969Y-59225397D01*
X159715818Y-59237711D01*
X159814374Y-59245035D01*
X159840904Y-59249000D01*
X159867732Y-59249000D01*
X159958337Y-59255733D01*
X159989879Y-59249000D01*
X169504883Y-59249000D01*
X169531212Y-59254958D01*
X169627237Y-59249000D01*
X169660892Y-59249000D01*
X169686613Y-59245316D01*
X169773935Y-59239898D01*
X169806476Y-59228150D01*
X169840733Y-59223245D01*
X169920384Y-59187029D01*
X170003037Y-59157191D01*
X170030177Y-59137109D01*
X170062115Y-59122587D01*
X170136996Y-59058066D01*
X170158544Y-59042122D01*
X170177505Y-59023161D01*
X170246346Y-58963844D01*
X170263892Y-58936774D01*
X170733076Y-58467591D01*
X170755905Y-58453187D01*
X170781682Y-58424000D01*
X173872764Y-58424000D01*
X173955224Y-58431215D01*
X174035188Y-58409789D01*
X174116712Y-58395413D01*
X174140856Y-58381474D01*
X174167782Y-58374259D01*
X174235580Y-58326786D01*
X174307287Y-58285386D01*
X174360506Y-58221962D01*
X175258469Y-57324000D01*
X180041532Y-57324000D01*
X180676001Y-57958469D01*
X180676000Y-78741531D01*
X177778031Y-81639501D01*
X177714615Y-81692712D01*
X177673223Y-81764407D01*
X177625740Y-81832219D01*
X177618524Y-81859150D01*
X177604588Y-81883287D01*
X177590215Y-81964799D01*
X177568785Y-82044776D01*
X177576001Y-82127250D01*
X177576000Y-90618223D01*
X177538689Y-90649922D01*
X177401059Y-90859047D01*
X177327654Y-91098394D01*
X177324377Y-91348723D01*
X177391490Y-91589911D01*
X177523600Y-91802567D01*
X177710085Y-91969597D01*
X177935954Y-92077572D01*
X178183049Y-92117814D01*
X178431507Y-92087088D01*
X178661354Y-91987862D01*
X178854114Y-91828114D01*
X178994289Y-91620686D01*
X179070848Y-91381516D01*
X179074385Y-91111330D01*
X179004113Y-90870238D01*
X178869415Y-90659212D01*
X178824000Y-90619524D01*
X178824000Y-87956911D01*
X178983049Y-87982814D01*
X179231507Y-87952088D01*
X179461354Y-87852862D01*
X179654114Y-87693114D01*
X179794289Y-87485686D01*
X179870848Y-87246516D01*
X179874385Y-86976330D01*
X179873031Y-86971686D01*
X180031507Y-86952088D01*
X180261354Y-86852862D01*
X180454114Y-86693114D01*
X180594289Y-86485686D01*
X180670848Y-86246516D01*
X180674385Y-85976330D01*
X180604113Y-85735238D01*
X180469415Y-85524212D01*
X180424000Y-85484524D01*
X180424000Y-82658468D01*
X183121972Y-79960497D01*
X183185386Y-79907288D01*
X183226784Y-79835583D01*
X183274258Y-79767783D01*
X183281473Y-79740860D01*
X183295414Y-79716711D01*
X183309788Y-79635189D01*
X183331215Y-79555225D01*
X183324000Y-79472765D01*
X183324000Y-56427235D01*
X183331215Y-56344775D01*
X183309788Y-56264811D01*
X183295414Y-56183289D01*
X183281473Y-56159140D01*
X183274258Y-56132217D01*
X183226784Y-56064416D01*
X183185386Y-55992713D01*
X183121968Y-55939499D01*
X180260504Y-53078036D01*
X180207287Y-53014614D01*
X180135580Y-52973214D01*
X180067782Y-52925741D01*
X180040856Y-52918526D01*
X180016712Y-52904587D01*
X179935188Y-52890211D01*
X179855224Y-52868785D01*
X179772762Y-52876000D01*
X173910455Y-52876000D01*
X173806091Y-52705360D01*
X173643428Y-52524387D01*
X173450508Y-52376087D01*
X173233794Y-52265428D01*
X173000543Y-52196114D01*
X172758565Y-52170467D01*
X172515966Y-52189347D01*
X172280870Y-52252122D01*
X172061150Y-52356687D01*
X171864165Y-52499542D01*
X171696513Y-52675903D01*
X171563806Y-52879864D01*
X171557941Y-52893988D01*
X171556646Y-52890299D01*
X171434522Y-52670435D01*
X171277100Y-52474291D01*
X171088881Y-52307476D01*
X170875245Y-52174757D01*
X170642302Y-52079932D01*
X170330000Y-52010982D01*
X170330000Y-53630000D01*
X170070000Y-53630000D01*
X170070000Y-52022848D01*
X169895842Y-52044077D01*
X169654883Y-52116140D01*
X169429510Y-52227770D01*
X169226168Y-52375778D01*
X169050671Y-52555930D01*
X168908037Y-52763077D01*
X168844843Y-52899527D01*
X168726091Y-52705360D01*
X168563428Y-52524387D01*
X168370508Y-52376087D01*
X168153794Y-52265428D01*
X167920543Y-52196114D01*
X167678565Y-52170467D01*
X167435966Y-52189347D01*
X167200870Y-52252122D01*
X166981150Y-52356687D01*
X166784165Y-52499542D01*
X166616513Y-52675903D01*
X166483806Y-52879864D01*
X166390491Y-53104592D01*
X166339692Y-53342563D01*
X166333109Y-53585806D01*
X166370965Y-53826176D01*
X166451990Y-54055622D01*
X166573473Y-54266461D01*
X166731344Y-54451630D01*
X166920315Y-54604929D01*
X167111856Y-54709143D01*
X166797787Y-54709143D01*
X166625055Y-54743502D01*
X166468265Y-54848265D01*
X166363502Y-55005055D01*
X166329143Y-55177787D01*
X166329143Y-56902213D01*
X166363502Y-57074945D01*
X166468265Y-57231735D01*
X166625055Y-57336498D01*
X166797787Y-57370857D01*
X168522213Y-57370857D01*
X168694945Y-57336498D01*
X168851735Y-57231735D01*
X168956498Y-57074945D01*
X168990857Y-56902213D01*
X168990857Y-56592414D01*
X168991990Y-56595622D01*
X169113473Y-56806461D01*
X169271344Y-56991630D01*
X169351000Y-57056250D01*
X169351000Y-57448333D01*
X169248334Y-57551000D01*
X160251668Y-57551000D01*
X160148006Y-57447339D01*
X160069415Y-57324212D01*
X159880904Y-57159473D01*
X159653733Y-57054264D01*
X159406164Y-57017044D01*
X159158100Y-57050804D01*
X158929482Y-57152830D01*
X158738689Y-57314922D01*
X158601059Y-57524047D01*
X158527654Y-57763394D01*
X158524377Y-58013723D01*
X149474000Y-58013723D01*
X149474000Y-50196336D01*
X151196337Y-48474000D01*
X186803664Y-48474000D01*
X188526000Y-50196337D01*
G37*
X188526000Y-50196337D02*
X188526001Y-81803662D01*
X185700585Y-84629079D01*
X185676587Y-84644574D01*
X185644919Y-84684745D01*
X185637027Y-84692637D01*
X185620836Y-84715295D01*
X185575462Y-84772852D01*
X185573082Y-84782121D01*
X185568457Y-84788593D01*
X185523245Y-84939772D01*
X185526000Y-85009879D01*
X185526001Y-109803662D01*
X183803664Y-111526000D01*
X151196337Y-111526000D01*
X149474000Y-109803664D01*
X149474000Y-104413723D01*
X169024377Y-104413723D01*
X169091490Y-104654911D01*
X169223600Y-104867567D01*
X169410085Y-105034597D01*
X169635954Y-105142572D01*
X169883049Y-105182814D01*
X170131507Y-105152088D01*
X170361354Y-105052862D01*
X170554114Y-104893114D01*
X170694289Y-104685686D01*
X170770848Y-104446516D01*
X170774385Y-104176330D01*
X170704113Y-103935238D01*
X170569415Y-103724212D01*
X170499000Y-103662676D01*
X170499000Y-103321663D01*
X170654114Y-103193114D01*
X170794289Y-102985686D01*
X170849334Y-102813723D01*
X172624377Y-102813723D01*
X172691490Y-103054911D01*
X172823600Y-103267567D01*
X172876000Y-103314500D01*
X172876001Y-104483223D01*
X172838689Y-104514922D01*
X172701059Y-104724047D01*
X172627654Y-104963394D01*
X172624377Y-105213723D01*
X172691490Y-105454911D01*
X172823600Y-105667567D01*
X173010085Y-105834597D01*
X173235954Y-105942572D01*
X173483049Y-105982814D01*
X173731507Y-105952088D01*
X173961354Y-105852862D01*
X174154114Y-105693114D01*
X174294289Y-105485686D01*
X174370848Y-105246516D01*
X174374385Y-104976330D01*
X174304113Y-104735238D01*
X174169415Y-104524212D01*
X174124000Y-104484524D01*
X174124000Y-103318071D01*
X174154114Y-103293114D01*
X174294289Y-103085686D01*
X174370848Y-102846516D01*
X174374385Y-102576330D01*
X174304113Y-102335238D01*
X174169415Y-102124212D01*
X173980904Y-101959473D01*
X173753733Y-101854264D01*
X173506164Y-101817044D01*
X173258100Y-101850804D01*
X173029482Y-101952830D01*
X172838689Y-102114922D01*
X172701059Y-102324047D01*
X172627654Y-102563394D01*
X172624377Y-102813723D01*
X170849334Y-102813723D01*
X170870848Y-102746516D01*
X170874385Y-102476330D01*
X170804113Y-102235238D01*
X170669415Y-102024212D01*
X170480904Y-101859473D01*
X170253733Y-101754264D01*
X170006164Y-101717044D01*
X169758100Y-101750804D01*
X169529482Y-101852830D01*
X169338689Y-102014922D01*
X169201059Y-102224047D01*
X169127654Y-102463394D01*
X169124377Y-102713723D01*
X169191490Y-102954911D01*
X169301001Y-103131189D01*
X169301000Y-103661984D01*
X169238689Y-103714922D01*
X169101059Y-103924047D01*
X169027654Y-104163394D01*
X169024377Y-104413723D01*
X149474000Y-104413723D01*
X149474000Y-94610795D01*
X150560556Y-94610795D01*
X150581490Y-94838626D01*
X150645129Y-95058389D01*
X150749176Y-95262152D01*
X150889876Y-95442564D01*
X151062152Y-95593116D01*
X151141001Y-95639099D01*
X151141000Y-101837764D01*
X151133785Y-101920224D01*
X151155213Y-102000194D01*
X151169587Y-102081712D01*
X151183526Y-102105855D01*
X151190740Y-102132780D01*
X151238219Y-102200589D01*
X151279614Y-102272287D01*
X151343038Y-102325506D01*
X151899501Y-102881970D01*
X151952713Y-102945386D01*
X152024409Y-102986779D01*
X152092219Y-103034260D01*
X152119144Y-103041474D01*
X152143287Y-103055413D01*
X152224805Y-103069787D01*
X152304775Y-103091215D01*
X152387238Y-103084000D01*
X155869143Y-103084000D01*
X155869143Y-103322213D01*
X155903502Y-103494945D01*
X156008265Y-103651735D01*
X156165055Y-103756498D01*
X156337787Y-103790857D01*
X158062213Y-103790857D01*
X158234945Y-103756498D01*
X158391735Y-103651735D01*
X158496498Y-103494945D01*
X158530857Y-103322213D01*
X158530857Y-103012414D01*
X158531990Y-103015622D01*
X158653473Y-103226461D01*
X158811344Y-103411630D01*
X159000315Y-103564929D01*
X159214058Y-103681223D01*
X159445415Y-103756619D01*
X159686639Y-103788591D01*
X159929648Y-103776068D01*
X160166308Y-103719470D01*
X160388688Y-103620691D01*
X160589346Y-103483042D01*
X160761557Y-103311130D01*
X160899558Y-103110713D01*
X160923530Y-103056998D01*
X160972887Y-103169705D01*
X161111153Y-103379792D01*
X161282838Y-103563582D01*
X161483036Y-103715815D01*
X161706021Y-103832141D01*
X161945418Y-103909234D01*
X162150000Y-103938532D01*
X162150000Y-102590000D01*
X162410000Y-102590000D01*
X162410000Y-103945205D01*
X162692466Y-103889020D01*
X162927343Y-103799094D01*
X163143711Y-103670878D01*
X163335383Y-103508041D01*
X163496879Y-103315237D01*
X163623580Y-103097979D01*
X163711864Y-102862479D01*
X163764089Y-102590000D01*
X162410000Y-102590000D01*
X162150000Y-102590000D01*
X162150000Y-102330000D01*
X162410000Y-102330000D01*
X163761197Y-102330000D01*
X163719979Y-102087596D01*
X163636646Y-101850299D01*
X163514522Y-101630435D01*
X163514173Y-101630000D01*
X178414050Y-101630000D01*
X178479824Y-101902924D01*
X178577127Y-102116929D01*
X178713141Y-102308675D01*
X178882961Y-102471241D01*
X179071261Y-102592825D01*
X179033893Y-102613538D01*
X178868229Y-102755530D01*
X178734501Y-102927933D01*
X178638169Y-103123704D01*
X178583171Y-103334846D01*
X178571752Y-103552735D01*
X178604379Y-103768470D01*
X178679718Y-103973238D01*
X178794694Y-104158674D01*
X178944608Y-104317205D01*
X179123337Y-104442351D01*
X179253586Y-104498715D01*
X179224725Y-104507760D01*
X179033893Y-104613538D01*
X178868229Y-104755530D01*
X178734501Y-104927933D01*
X178638169Y-105123704D01*
X178583171Y-105334846D01*
X178571752Y-105552735D01*
X178604379Y-105768470D01*
X178679718Y-105973238D01*
X178794694Y-106158674D01*
X178944608Y-106317205D01*
X179090192Y-106419143D01*
X179037787Y-106419143D01*
X178865055Y-106453502D01*
X178708265Y-106558265D01*
X178603502Y-106715055D01*
X178569143Y-106887787D01*
X178569143Y-108112213D01*
X178603502Y-108284945D01*
X178708265Y-108441735D01*
X178865055Y-108546498D01*
X179037787Y-108580857D01*
X180762213Y-108580857D01*
X180934945Y-108546498D01*
X181091735Y-108441735D01*
X181196498Y-108284945D01*
X181230857Y-108112213D01*
X181230857Y-106887787D01*
X181196498Y-106715055D01*
X181091735Y-106558265D01*
X180934945Y-106453502D01*
X180762213Y-106419143D01*
X180707148Y-106419143D01*
X180766107Y-106386462D01*
X180931771Y-106244470D01*
X181065499Y-106072067D01*
X181161831Y-105876296D01*
X181216829Y-105665154D01*
X181228248Y-105447265D01*
X181195621Y-105231530D01*
X181120282Y-105026762D01*
X181005306Y-104841326D01*
X180855392Y-104682795D01*
X180676663Y-104557649D01*
X180546414Y-104501285D01*
X180575275Y-104492240D01*
X180766107Y-104386462D01*
X180931771Y-104244470D01*
X181065499Y-104072067D01*
X181161831Y-103876296D01*
X181216829Y-103665154D01*
X181228248Y-103447265D01*
X181195621Y-103231530D01*
X181120282Y-103026762D01*
X181005306Y-102841326D01*
X180855392Y-102682795D01*
X180723494Y-102590440D01*
X180818603Y-102541455D01*
X181003474Y-102396237D01*
X181157551Y-102218679D01*
X181275272Y-102015190D01*
X181352392Y-101793109D01*
X181376035Y-101630000D01*
X178414050Y-101630000D01*
X163514173Y-101630000D01*
X163357100Y-101434291D01*
X163284560Y-101370000D01*
X178423965Y-101370000D01*
X179770000Y-101370000D01*
X179770000Y-100268000D01*
X180030000Y-100268000D01*
X180030000Y-101370000D01*
X181385950Y-101370000D01*
X181320176Y-101097076D01*
X181222873Y-100883071D01*
X181086859Y-100691325D01*
X180917039Y-100528759D01*
X180719544Y-100401238D01*
X180498655Y-100312217D01*
X180193697Y-100268000D01*
X180030000Y-100268000D01*
X179770000Y-100268000D01*
X179591284Y-100268000D01*
X179415975Y-100284726D01*
X179190394Y-100350904D01*
X178981397Y-100458545D01*
X178796526Y-100603763D01*
X178642449Y-100781321D01*
X178524728Y-100984810D01*
X178447608Y-101206891D01*
X178423965Y-101370000D01*
X163284560Y-101370000D01*
X163168881Y-101267476D01*
X162955245Y-101134757D01*
X162722302Y-101039932D01*
X162410000Y-100970982D01*
X162410000Y-102330000D01*
X162150000Y-102330000D01*
X162150000Y-100982848D01*
X161975842Y-101004077D01*
X161734883Y-101076140D01*
X161509510Y-101187770D01*
X161306168Y-101335778D01*
X161130671Y-101515930D01*
X160988037Y-101723077D01*
X160924843Y-101859527D01*
X160806091Y-101665360D01*
X160643428Y-101484387D01*
X160450508Y-101336087D01*
X160339000Y-101279149D01*
X160339000Y-101208113D01*
X160748113Y-100799000D01*
X164473864Y-100799000D01*
X164553011Y-100805925D01*
X164629768Y-100785358D01*
X164708030Y-100771559D01*
X164731208Y-100758177D01*
X164757052Y-100751252D01*
X164822137Y-100705680D01*
X164890970Y-100665938D01*
X164942050Y-100605063D01*
X165066925Y-100480188D01*
X165083049Y-100482814D01*
X165331507Y-100452088D01*
X165561354Y-100352862D01*
X165754114Y-100193114D01*
X165894289Y-99985686D01*
X165970848Y-99746516D01*
X165974385Y-99476330D01*
X165904113Y-99235238D01*
X165769415Y-99024212D01*
X165580904Y-98859473D01*
X165353733Y-98754264D01*
X165106164Y-98717044D01*
X164858100Y-98750804D01*
X164629482Y-98852830D01*
X164438689Y-99014922D01*
X164301059Y-99224047D01*
X164227654Y-99463394D01*
X164225853Y-99601000D01*
X160526135Y-99601000D01*
X160446989Y-99594075D01*
X160370233Y-99614641D01*
X160291969Y-99628442D01*
X160268796Y-99641821D01*
X160242945Y-99648748D01*
X160177858Y-99694324D01*
X160109031Y-99734061D01*
X160057950Y-99794937D01*
X159334936Y-100517951D01*
X159274061Y-100569031D01*
X159234324Y-100637858D01*
X159188748Y-100702949D01*
X159181823Y-100728793D01*
X159168442Y-100751969D01*
X159154641Y-100830235D01*
X159134075Y-100906989D01*
X159141000Y-100986139D01*
X159141000Y-101278686D01*
X159061150Y-101316687D01*
X158864165Y-101459542D01*
X158696513Y-101635903D01*
X158563806Y-101839864D01*
X158530857Y-101919214D01*
X158530857Y-101597787D01*
X158496498Y-101425055D01*
X158391735Y-101268265D01*
X158234945Y-101163502D01*
X158062213Y-101129143D01*
X156337787Y-101129143D01*
X156165055Y-101163502D01*
X156008265Y-101268265D01*
X155903502Y-101425055D01*
X155869143Y-101597787D01*
X155869143Y-101836000D01*
X152618469Y-101836000D01*
X152389000Y-101606532D01*
X152389000Y-98542067D01*
X152409031Y-98565939D01*
X152477854Y-98605674D01*
X152542948Y-98651252D01*
X152568792Y-98658177D01*
X152591968Y-98671558D01*
X152670234Y-98685359D01*
X152746988Y-98705925D01*
X152826138Y-98699000D01*
X155273864Y-98699000D01*
X155353011Y-98705925D01*
X155429768Y-98685358D01*
X155508030Y-98671559D01*
X155531208Y-98658177D01*
X155557052Y-98651252D01*
X155622137Y-98605680D01*
X155690970Y-98565938D01*
X155742050Y-98505063D01*
X156648114Y-97599000D01*
X164073864Y-97599000D01*
X164153011Y-97605925D01*
X164229768Y-97585358D01*
X164308030Y-97571559D01*
X164331208Y-97558177D01*
X164357052Y-97551252D01*
X164422137Y-97505680D01*
X164490970Y-97465938D01*
X164542050Y-97405063D01*
X166830083Y-95117031D01*
X166890949Y-95065960D01*
X166930679Y-94997143D01*
X166976263Y-94932043D01*
X166983189Y-94906194D01*
X166996568Y-94883021D01*
X167010367Y-94804768D01*
X167030936Y-94728002D01*
X167024010Y-94648844D01*
X167024010Y-93841321D01*
X167037972Y-93829750D01*
X167027654Y-93863394D01*
X167024377Y-94113723D01*
X167091490Y-94354911D01*
X167223600Y-94567567D01*
X167410085Y-94734597D01*
X167635954Y-94842572D01*
X167883049Y-94882814D01*
X168131507Y-94852088D01*
X168361354Y-94752862D01*
X168554114Y-94593114D01*
X168694289Y-94385686D01*
X168770848Y-94146517D01*
X168773106Y-93974008D01*
X169705072Y-93042042D01*
X169765939Y-92990969D01*
X169805674Y-92922146D01*
X169851252Y-92857052D01*
X169858177Y-92831208D01*
X169871558Y-92808032D01*
X169885359Y-92729766D01*
X169905925Y-92653012D01*
X169899000Y-92573862D01*
X169899000Y-89448113D01*
X170648114Y-88699000D01*
X172157430Y-88699000D01*
X172138689Y-88714922D01*
X172001059Y-88924047D01*
X171927654Y-89163394D01*
X171924377Y-89413723D01*
X171991490Y-89654911D01*
X172123600Y-89867567D01*
X172176001Y-89914501D01*
X172176000Y-91072764D01*
X172168785Y-91155224D01*
X172190213Y-91235194D01*
X172204587Y-91316712D01*
X172218526Y-91340855D01*
X172225740Y-91367780D01*
X172273219Y-91435589D01*
X172314614Y-91507287D01*
X172378038Y-91560506D01*
X172625758Y-91808227D01*
X172624377Y-91913724D01*
X172691490Y-92154911D01*
X172823600Y-92367567D01*
X173010085Y-92534597D01*
X173235954Y-92642572D01*
X173424906Y-92673345D01*
X173424377Y-92713724D01*
X173491490Y-92954911D01*
X173623600Y-93167567D01*
X173810085Y-93334597D01*
X174035954Y-93442572D01*
X174224906Y-93473345D01*
X174224377Y-93513724D01*
X174291490Y-93754911D01*
X174423600Y-93967567D01*
X174610085Y-94134597D01*
X174835954Y-94242572D01*
X175083049Y-94282814D01*
X175331507Y-94252088D01*
X175561354Y-94152862D01*
X175716845Y-94024000D01*
X175872764Y-94024000D01*
X175955224Y-94031215D01*
X176035188Y-94009789D01*
X176116712Y-93995413D01*
X176140856Y-93981474D01*
X176167782Y-93974259D01*
X176229246Y-93931221D01*
X176291490Y-94154911D01*
X176423600Y-94367567D01*
X176610085Y-94534597D01*
X176835954Y-94642572D01*
X177083049Y-94682814D01*
X177331507Y-94652088D01*
X177561354Y-94552862D01*
X177616341Y-94507292D01*
X177630502Y-94509789D01*
X177710460Y-94531215D01*
X177792920Y-94524000D01*
X180255063Y-94524000D01*
X180291490Y-94654911D01*
X180423600Y-94867567D01*
X180610085Y-95034597D01*
X180835954Y-95142572D01*
X181083049Y-95182814D01*
X181331507Y-95152088D01*
X181561354Y-95052862D01*
X181754114Y-94893114D01*
X181894289Y-94685686D01*
X181934940Y-94558693D01*
X182083049Y-94582814D01*
X182331507Y-94552088D01*
X182561354Y-94452862D01*
X182754114Y-94293114D01*
X182894289Y-94085686D01*
X182970848Y-93846516D01*
X182974385Y-93576330D01*
X182904113Y-93335238D01*
X182769415Y-93124212D01*
X182580904Y-92959473D01*
X182353733Y-92854264D01*
X182106164Y-92817044D01*
X182100309Y-92817841D01*
X181860504Y-92578036D01*
X181807287Y-92514614D01*
X181735580Y-92473214D01*
X181667782Y-92425741D01*
X181640856Y-92418526D01*
X181616712Y-92404587D01*
X181535188Y-92390211D01*
X181455224Y-92368785D01*
X181372762Y-92376000D01*
X176327235Y-92376000D01*
X176244775Y-92368785D01*
X176164809Y-92390212D01*
X176083287Y-92404587D01*
X176059144Y-92418526D01*
X176032217Y-92425741D01*
X175964405Y-92473223D01*
X175892713Y-92514614D01*
X175839499Y-92578032D01*
X175675442Y-92742090D01*
X175580905Y-92659473D01*
X175353733Y-92554264D01*
X175173719Y-92527200D01*
X175174385Y-92476330D01*
X175104113Y-92235238D01*
X174969415Y-92024212D01*
X174924000Y-91984524D01*
X174924000Y-91227235D01*
X174931215Y-91144775D01*
X174909788Y-91064809D01*
X174895413Y-90983287D01*
X174881474Y-90959144D01*
X174874259Y-90932217D01*
X174826777Y-90864405D01*
X174785386Y-90792713D01*
X174721970Y-90739501D01*
X174524000Y-90541532D01*
X174524000Y-89718071D01*
X174554114Y-89693114D01*
X174694289Y-89485686D01*
X174770848Y-89246516D01*
X174774385Y-88976330D01*
X174773031Y-88971686D01*
X174931507Y-88952088D01*
X175161354Y-88852862D01*
X175354114Y-88693114D01*
X175494289Y-88485686D01*
X175570848Y-88246516D01*
X175574385Y-87976330D01*
X175504113Y-87735238D01*
X175369415Y-87524212D01*
X175180904Y-87359473D01*
X174953733Y-87254264D01*
X174706164Y-87217044D01*
X174458100Y-87250804D01*
X174229482Y-87352830D01*
X174055076Y-87501000D01*
X170426135Y-87501000D01*
X170346988Y-87494075D01*
X170270228Y-87514643D01*
X170191969Y-87528442D01*
X170168796Y-87541821D01*
X170142947Y-87548747D01*
X170077847Y-87594331D01*
X170009030Y-87634061D01*
X169957955Y-87694932D01*
X168894930Y-88757957D01*
X168834062Y-88809030D01*
X168794332Y-88877846D01*
X168748748Y-88942948D01*
X168741822Y-88968795D01*
X168728442Y-88991969D01*
X168714645Y-89070221D01*
X168694075Y-89146988D01*
X168701001Y-89226150D01*
X168701000Y-91077035D01*
X168680904Y-91059473D01*
X168453733Y-90954264D01*
X168206164Y-90917044D01*
X167958100Y-90950804D01*
X167729482Y-91052830D01*
X167538689Y-91214922D01*
X167401059Y-91424047D01*
X167327654Y-91663394D01*
X167325508Y-91827378D01*
X166758947Y-92393940D01*
X166678743Y-92356796D01*
X166431174Y-92319576D01*
X166299000Y-92337564D01*
X166299000Y-90868475D01*
X166431507Y-90852088D01*
X166661354Y-90752862D01*
X166854114Y-90593114D01*
X166994289Y-90385686D01*
X167070848Y-90146516D01*
X167074385Y-89876330D01*
X167004113Y-89635238D01*
X166869415Y-89424212D01*
X166680904Y-89259473D01*
X166453733Y-89154264D01*
X166373522Y-89142205D01*
X166374385Y-89076330D01*
X166304113Y-88835238D01*
X166169415Y-88624212D01*
X165980904Y-88459473D01*
X165753733Y-88354264D01*
X165506164Y-88317044D01*
X165258100Y-88350804D01*
X165099000Y-88421806D01*
X165099000Y-85738783D01*
X165154114Y-85693108D01*
X165294289Y-85485680D01*
X165370848Y-85246510D01*
X165374385Y-84976324D01*
X165304113Y-84735232D01*
X165169415Y-84524206D01*
X164980904Y-84359467D01*
X164753733Y-84254258D01*
X164506164Y-84217038D01*
X164258100Y-84250798D01*
X164029482Y-84352824D01*
X163838689Y-84514916D01*
X163701059Y-84724041D01*
X163627654Y-84963388D01*
X163624377Y-85213717D01*
X163691490Y-85454905D01*
X163823600Y-85667561D01*
X163901000Y-85736886D01*
X163901001Y-92548465D01*
X163732248Y-92571431D01*
X163503630Y-92673457D01*
X163312837Y-92835549D01*
X163175207Y-93044674D01*
X163101802Y-93284021D01*
X163098525Y-93534350D01*
X163165638Y-93775538D01*
X163297748Y-93988194D01*
X163484233Y-94155224D01*
X163710102Y-94263199D01*
X163957197Y-94303441D01*
X164205655Y-94272715D01*
X164336777Y-94216109D01*
X163266887Y-95286000D01*
X155345217Y-95286000D01*
X155252825Y-95141810D01*
X155095192Y-94975988D01*
X154909046Y-94842966D01*
X154701103Y-94747544D01*
X154478870Y-94693164D01*
X154250363Y-94681788D01*
X154023826Y-94713827D01*
X153807435Y-94788126D01*
X153608998Y-94902001D01*
X153599000Y-94910616D01*
X153599000Y-94898113D01*
X153991438Y-94505676D01*
X154015657Y-94514181D01*
X154241964Y-94547801D01*
X154470546Y-94538021D01*
X154693153Y-94485194D01*
X154901756Y-94391226D01*
X155088826Y-94259506D01*
X155247614Y-94094789D01*
X155372389Y-93903017D01*
X155458651Y-93691112D01*
X155503318Y-93466557D01*
X155504137Y-93231811D01*
X155461039Y-93006950D01*
X155376259Y-92794447D01*
X155252825Y-92601810D01*
X155095192Y-92435988D01*
X154909046Y-92302966D01*
X154701103Y-92207544D01*
X154478870Y-92153164D01*
X154250363Y-92141788D01*
X154023826Y-92173827D01*
X153807435Y-92248126D01*
X153608998Y-92362001D01*
X153435674Y-92511347D01*
X153293718Y-92690772D01*
X153188251Y-92893804D01*
X153123080Y-93113117D01*
X153100556Y-93340795D01*
X153121490Y-93568626D01*
X153146813Y-93656073D01*
X152798058Y-94004829D01*
X152712825Y-93871810D01*
X152555192Y-93705988D01*
X152369046Y-93572966D01*
X152161103Y-93477544D01*
X151938870Y-93423164D01*
X151928696Y-93422658D01*
X152013291Y-93414661D01*
X152246601Y-93349520D01*
X152464686Y-93244093D01*
X152630082Y-93123930D01*
X151765000Y-92258848D01*
X150899239Y-93124609D01*
X151077593Y-93251356D01*
X151296772Y-93354494D01*
X151530751Y-93417188D01*
X151619493Y-93424640D01*
X151483826Y-93443827D01*
X151267435Y-93518126D01*
X151068998Y-93632001D01*
X150895674Y-93781347D01*
X150753718Y-93960772D01*
X150648251Y-94163804D01*
X150583080Y-94383117D01*
X150560556Y-94610795D01*
X149474000Y-94610795D01*
X149474000Y-92039334D01*
X150402991Y-92039334D01*
X150418201Y-92281089D01*
X150475981Y-92516329D01*
X150574507Y-92737620D01*
X150713705Y-92942447D01*
X151581152Y-92075000D01*
X151948848Y-92075000D01*
X152817303Y-92943456D01*
X152962367Y-92725117D01*
X153058570Y-92502807D01*
X153114257Y-92265379D01*
X153122372Y-91955496D01*
X153079186Y-91715480D01*
X152994750Y-91488439D01*
X152824049Y-91199799D01*
X151948848Y-92075000D01*
X151581152Y-92075000D01*
X150717107Y-91210955D01*
X150610817Y-91350981D01*
X150500845Y-91566813D01*
X150430833Y-91798708D01*
X150402991Y-92039334D01*
X149474000Y-92039334D01*
X149474000Y-84450795D01*
X150560556Y-84450795D01*
X150581490Y-84678626D01*
X150645129Y-84898389D01*
X150749176Y-85102152D01*
X150889876Y-85282564D01*
X151062152Y-85433116D01*
X151259790Y-85548375D01*
X151475657Y-85624181D01*
X151608910Y-85643977D01*
X151400423Y-85852464D01*
X151267435Y-85898125D01*
X151068998Y-86012001D01*
X150895674Y-86161347D01*
X150753718Y-86340772D01*
X150648251Y-86543804D01*
X150583080Y-86763117D01*
X150560556Y-86990795D01*
X150581490Y-87218626D01*
X150645129Y-87438389D01*
X150749176Y-87642152D01*
X150889876Y-87822564D01*
X151062152Y-87973116D01*
X151259790Y-88088375D01*
X151475657Y-88164181D01*
X151661149Y-88191738D01*
X151489922Y-88362965D01*
X151483826Y-88363827D01*
X151267435Y-88438126D01*
X151068998Y-88552001D01*
X150895674Y-88701347D01*
X150753718Y-88880772D01*
X150648251Y-89083804D01*
X150583080Y-89303117D01*
X150560556Y-89530795D01*
X150581490Y-89758626D01*
X150645129Y-89978389D01*
X150749176Y-90182152D01*
X150889876Y-90362564D01*
X151062152Y-90513116D01*
X151259790Y-90628375D01*
X151475657Y-90704181D01*
X151600052Y-90722661D01*
X151364377Y-90772755D01*
X151140101Y-90864281D01*
X150894188Y-91020341D01*
X151765000Y-91891152D01*
X152645650Y-91010503D01*
X152312644Y-90827431D01*
X152233496Y-90800795D01*
X153100556Y-90800795D01*
X153121490Y-91028626D01*
X153185129Y-91248389D01*
X153289176Y-91452152D01*
X153429876Y-91632564D01*
X153602152Y-91783116D01*
X153799790Y-91898375D01*
X154015657Y-91974181D01*
X154241964Y-92007801D01*
X154470546Y-91998021D01*
X154693153Y-91945194D01*
X154901756Y-91851226D01*
X155088826Y-91719506D01*
X155247614Y-91554789D01*
X155372389Y-91363017D01*
X155458651Y-91151112D01*
X155503318Y-90926557D01*
X155504137Y-90691811D01*
X155461039Y-90466950D01*
X155376259Y-90254447D01*
X155252825Y-90061810D01*
X155095192Y-89895988D01*
X154909046Y-89762966D01*
X154701103Y-89667544D01*
X154478870Y-89613164D01*
X154250363Y-89601788D01*
X154023826Y-89633827D01*
X153807435Y-89708126D01*
X153608998Y-89822001D01*
X153435674Y-89971347D01*
X153293718Y-90150772D01*
X153188251Y-90353804D01*
X153123080Y-90573117D01*
X153100556Y-90800795D01*
X152233496Y-90800795D01*
X152083063Y-90750170D01*
X151931514Y-90727791D01*
X152153153Y-90675194D01*
X152361756Y-90581226D01*
X152548826Y-90449506D01*
X152707614Y-90284789D01*
X152832389Y-90093017D01*
X152918651Y-89881112D01*
X152963318Y-89656557D01*
X152964137Y-89421811D01*
X152921039Y-89196950D01*
X152836259Y-88984447D01*
X152729414Y-88817699D01*
X153116188Y-88430925D01*
X153121490Y-88488626D01*
X153185129Y-88708389D01*
X153289176Y-88912152D01*
X153429876Y-89092564D01*
X153602152Y-89243116D01*
X153799790Y-89358375D01*
X154015657Y-89434181D01*
X154241964Y-89467801D01*
X154470546Y-89458021D01*
X154693153Y-89405194D01*
X154901756Y-89311226D01*
X155088826Y-89179506D01*
X155247614Y-89014789D01*
X155372389Y-88823017D01*
X155458651Y-88611112D01*
X155503318Y-88386557D01*
X155504137Y-88151811D01*
X155461039Y-87926950D01*
X155376259Y-87714447D01*
X155298852Y-87593642D01*
X155329768Y-87585358D01*
X155408030Y-87571559D01*
X155431208Y-87558177D01*
X155457052Y-87551252D01*
X155522137Y-87505680D01*
X155590970Y-87465938D01*
X155642050Y-87405063D01*
X156205070Y-86842044D01*
X156265939Y-86790969D01*
X156305674Y-86722146D01*
X156351252Y-86657052D01*
X156358177Y-86631208D01*
X156371558Y-86608032D01*
X156385359Y-86529766D01*
X156405925Y-86453012D01*
X156399000Y-86373862D01*
X156399000Y-84199000D01*
X160882068Y-84199000D01*
X160877654Y-84213394D01*
X160874377Y-84463723D01*
X160941490Y-84704911D01*
X161073600Y-84917567D01*
X161126001Y-84964501D01*
X161126000Y-91041531D01*
X160549594Y-91617938D01*
X160308100Y-91650804D01*
X160079482Y-91752830D01*
X159888689Y-91914922D01*
X159751059Y-92124047D01*
X159677654Y-92363394D01*
X159674377Y-92613723D01*
X159741490Y-92854911D01*
X159873600Y-93067567D01*
X160060085Y-93234597D01*
X160285954Y-93342572D01*
X160533049Y-93382814D01*
X160781507Y-93352088D01*
X161011354Y-93252862D01*
X161204114Y-93093114D01*
X161344289Y-92885686D01*
X161420848Y-92646517D01*
X161422637Y-92509832D01*
X162171972Y-91760497D01*
X162235386Y-91707288D01*
X162276784Y-91635583D01*
X162324258Y-91567783D01*
X162331473Y-91540860D01*
X162345414Y-91516711D01*
X162359788Y-91435189D01*
X162381215Y-91355225D01*
X162374000Y-91272763D01*
X162374000Y-84968071D01*
X162404114Y-84943114D01*
X162544289Y-84735686D01*
X162620848Y-84496516D01*
X162624385Y-84226330D01*
X162616419Y-84199000D01*
X170758694Y-84199000D01*
X170910085Y-84334597D01*
X171135954Y-84442572D01*
X171383049Y-84482814D01*
X171631507Y-84452088D01*
X171861354Y-84352862D01*
X172054114Y-84193114D01*
X172194289Y-83985686D01*
X172270848Y-83746516D01*
X172274385Y-83476330D01*
X172204113Y-83235238D01*
X172069415Y-83024212D01*
X171880904Y-82859473D01*
X171653733Y-82754264D01*
X171406164Y-82717044D01*
X171158100Y-82750804D01*
X170929482Y-82852830D01*
X170755076Y-83001000D01*
X170716362Y-83001000D01*
X170794289Y-82885686D01*
X170870848Y-82646516D01*
X170874385Y-82376330D01*
X170804113Y-82135238D01*
X170669415Y-81924212D01*
X170480904Y-81759473D01*
X170253733Y-81654264D01*
X170144137Y-81637787D01*
X173869143Y-81637787D01*
X173869143Y-83362213D01*
X173903502Y-83534945D01*
X174008265Y-83691735D01*
X174165055Y-83796498D01*
X174337787Y-83830857D01*
X176062213Y-83830857D01*
X176234945Y-83796498D01*
X176391735Y-83691735D01*
X176496498Y-83534945D01*
X176530857Y-83362213D01*
X176530857Y-81637787D01*
X176496498Y-81465055D01*
X176391735Y-81308265D01*
X176234945Y-81203502D01*
X176062213Y-81169143D01*
X174337787Y-81169143D01*
X174165055Y-81203502D01*
X174008265Y-81308265D01*
X173903502Y-81465055D01*
X173869143Y-81637787D01*
X170144137Y-81637787D01*
X170006164Y-81617044D01*
X169758100Y-81650804D01*
X169529482Y-81752830D01*
X169355076Y-81901000D01*
X156026135Y-81901000D01*
X155946988Y-81894075D01*
X155870234Y-81914641D01*
X155791968Y-81928442D01*
X155768792Y-81941823D01*
X155742948Y-81948748D01*
X155677854Y-81994326D01*
X155609031Y-82034061D01*
X155557955Y-82094931D01*
X154819666Y-82833220D01*
X154796715Y-82708781D01*
X154712996Y-82490116D01*
X154590831Y-82290369D01*
X154434309Y-82116230D01*
X154248676Y-81973531D01*
X154040145Y-81867051D01*
X153815703Y-81800355D01*
X153582864Y-81775677D01*
X153349426Y-81793843D01*
X153123209Y-81854247D01*
X152911787Y-81954863D01*
X152722240Y-82092323D01*
X152560919Y-82262025D01*
X152433224Y-82458283D01*
X152343433Y-82674524D01*
X152294552Y-82903508D01*
X152288218Y-83137566D01*
X152324644Y-83368858D01*
X152334646Y-83397180D01*
X152161103Y-83317544D01*
X151938870Y-83263164D01*
X151710363Y-83251788D01*
X151483826Y-83283827D01*
X151267435Y-83358126D01*
X151068998Y-83472001D01*
X150895674Y-83621347D01*
X150753718Y-83800772D01*
X150648251Y-84003804D01*
X150583080Y-84223117D01*
X150560556Y-84450795D01*
X149474000Y-84450795D01*
X149474000Y-73112787D01*
X152144143Y-73112787D01*
X152144143Y-74887213D01*
X152178502Y-75059945D01*
X152283265Y-75216735D01*
X152440055Y-75321498D01*
X152612787Y-75355857D01*
X154387213Y-75355857D01*
X154559945Y-75321498D01*
X154716735Y-75216735D01*
X154821498Y-75059945D01*
X154855857Y-74887213D01*
X154855857Y-73112787D01*
X154821498Y-72940055D01*
X154716735Y-72783265D01*
X154559945Y-72678502D01*
X154387213Y-72644143D01*
X154220418Y-72644143D01*
X154390378Y-72520659D01*
X154557049Y-72346856D01*
X154690308Y-72146285D01*
X154785944Y-71925285D01*
X154841306Y-71689248D01*
X154849372Y-71381209D01*
X154806438Y-71142599D01*
X154722501Y-70916896D01*
X154599922Y-70709626D01*
X154442575Y-70527338D01*
X154255434Y-70375795D01*
X154044416Y-70259787D01*
X154014513Y-70249723D01*
X154195563Y-70162201D01*
X154390378Y-70020659D01*
X154557049Y-69846856D01*
X154690308Y-69646285D01*
X154785944Y-69425285D01*
X154835565Y-69213723D01*
X156324377Y-69213723D01*
X156351001Y-69309401D01*
X156351000Y-72487271D01*
X156327654Y-72563394D01*
X156324377Y-72813723D01*
X156391490Y-73054911D01*
X156523600Y-73267567D01*
X156710085Y-73434597D01*
X156935954Y-73542572D01*
X157183049Y-73582814D01*
X157431507Y-73552088D01*
X157451001Y-73543672D01*
X157451001Y-73787268D01*
X157427654Y-73863394D01*
X157424377Y-74113723D01*
X157491490Y-74354911D01*
X157623600Y-74567567D01*
X157810085Y-74734597D01*
X158035954Y-74842572D01*
X158283049Y-74882814D01*
X158531507Y-74852088D01*
X158676001Y-74789709D01*
X158676001Y-79583223D01*
X158638689Y-79614922D01*
X158501059Y-79824047D01*
X158427654Y-80063394D01*
X158424377Y-80313723D01*
X158491490Y-80554911D01*
X158623600Y-80767567D01*
X158810085Y-80934597D01*
X159035954Y-81042572D01*
X159283049Y-81082814D01*
X159531507Y-81052088D01*
X159761354Y-80952862D01*
X159954114Y-80793114D01*
X160094289Y-80585686D01*
X160170848Y-80346516D01*
X160174385Y-80076330D01*
X160104113Y-79835238D01*
X159969415Y-79624212D01*
X159924000Y-79584524D01*
X159924000Y-65218071D01*
X159954114Y-65193114D01*
X160094289Y-64985686D01*
X160170848Y-64746516D01*
X160174385Y-64476330D01*
X160104113Y-64235238D01*
X159969415Y-64024212D01*
X159780904Y-63859473D01*
X159553733Y-63754264D01*
X159306164Y-63717044D01*
X159058100Y-63750804D01*
X158829482Y-63852830D01*
X158638689Y-64014922D01*
X158501059Y-64224047D01*
X158427654Y-64463394D01*
X158424377Y-64713723D01*
X158491490Y-64954911D01*
X158623600Y-65167567D01*
X158676000Y-65214500D01*
X158676000Y-68010889D01*
X158553733Y-67954264D01*
X158306164Y-67917044D01*
X158058100Y-67950804D01*
X157829482Y-68052830D01*
X157638689Y-68214922D01*
X157575640Y-68310722D01*
X157453733Y-68254264D01*
X157206164Y-68217044D01*
X156958100Y-68250804D01*
X156729482Y-68352830D01*
X156538689Y-68514922D01*
X156401059Y-68724047D01*
X156327654Y-68963394D01*
X156324377Y-69213723D01*
X154835565Y-69213723D01*
X154841306Y-69189248D01*
X154849372Y-68881209D01*
X154806438Y-68642599D01*
X154722501Y-68416896D01*
X154599922Y-68209626D01*
X154442575Y-68027338D01*
X154255434Y-67875795D01*
X154044416Y-67759787D01*
X154014513Y-67749723D01*
X154195563Y-67662201D01*
X154390378Y-67520659D01*
X154557049Y-67346856D01*
X154690308Y-67146285D01*
X154785944Y-66925285D01*
X154841306Y-66689248D01*
X154849372Y-66381209D01*
X154806438Y-66142599D01*
X154722501Y-65916896D01*
X154599922Y-65709626D01*
X154442575Y-65527338D01*
X154255434Y-65375795D01*
X154044416Y-65259787D01*
X154014513Y-65249723D01*
X154195563Y-65162201D01*
X154390378Y-65020659D01*
X154557049Y-64846856D01*
X154690308Y-64646285D01*
X154785944Y-64425285D01*
X154841306Y-64189248D01*
X154849372Y-63881209D01*
X154806438Y-63642599D01*
X154722501Y-63416896D01*
X154599922Y-63209626D01*
X154442575Y-63027338D01*
X154255434Y-62875795D01*
X154044416Y-62759787D01*
X153816188Y-62682980D01*
X153577967Y-62647802D01*
X153337282Y-62655366D01*
X153101739Y-62705432D01*
X152878785Y-62796417D01*
X152675466Y-62925447D01*
X152498211Y-63088443D01*
X152352621Y-63280251D01*
X152243298Y-63494809D01*
X152173698Y-63725336D01*
X152146020Y-63964545D01*
X152161141Y-64204874D01*
X152218580Y-64438728D01*
X152316525Y-64658714D01*
X152451876Y-64857878D01*
X152620359Y-65029927D01*
X152816646Y-65169421D01*
X152990041Y-65251015D01*
X152878785Y-65296417D01*
X152675466Y-65425447D01*
X152498211Y-65588443D01*
X152352621Y-65780251D01*
X152243298Y-65994809D01*
X152173698Y-66225336D01*
X152146020Y-66464545D01*
X152161141Y-66704874D01*
X152218580Y-66938728D01*
X152316525Y-67158714D01*
X152451876Y-67357878D01*
X152620359Y-67529927D01*
X152816646Y-67669421D01*
X152990041Y-67751015D01*
X152878785Y-67796417D01*
X152675466Y-67925447D01*
X152498211Y-68088443D01*
X152352621Y-68280251D01*
X152243298Y-68494809D01*
X152173698Y-68725336D01*
X152146020Y-68964545D01*
X152161141Y-69204874D01*
X152218580Y-69438728D01*
X152316525Y-69658714D01*
X152451876Y-69857878D01*
X152620359Y-70029927D01*
X152816646Y-70169421D01*
X152990041Y-70251015D01*
X152878785Y-70296417D01*
X152675466Y-70425447D01*
X152498211Y-70588443D01*
X152352621Y-70780251D01*
X152243298Y-70994809D01*
X152173698Y-71225336D01*
X152146020Y-71464545D01*
X152161141Y-71704874D01*
X152218580Y-71938728D01*
X152316525Y-72158714D01*
X152451876Y-72357878D01*
X152620359Y-72529927D01*
X152781076Y-72644143D01*
X152612787Y-72644143D01*
X152440055Y-72678502D01*
X152283265Y-72783265D01*
X152178502Y-72940055D01*
X152144143Y-73112787D01*
X149474000Y-73112787D01*
X149474000Y-61090000D01*
X161070163Y-61090000D01*
X161070163Y-61826325D01*
X161150612Y-62126566D01*
X161297491Y-62301609D01*
X161490508Y-62413047D01*
X161699151Y-62449837D01*
X161752704Y-62449837D01*
X161684165Y-62499542D01*
X161516513Y-62675903D01*
X161383806Y-62879864D01*
X161290491Y-63104592D01*
X161239692Y-63342563D01*
X161233109Y-63585806D01*
X161270965Y-63826176D01*
X161351990Y-64055622D01*
X161473473Y-64266461D01*
X161631344Y-64451630D01*
X161820315Y-64604929D01*
X162034058Y-64721223D01*
X162183726Y-64769998D01*
X162100870Y-64792122D01*
X161881150Y-64896687D01*
X161684165Y-65039542D01*
X161516513Y-65215903D01*
X161383806Y-65419864D01*
X161290491Y-65644592D01*
X161239692Y-65882563D01*
X161233109Y-66125806D01*
X161270965Y-66366176D01*
X161351990Y-66595622D01*
X161473473Y-66806461D01*
X161631344Y-66991630D01*
X161820315Y-67144929D01*
X162034058Y-67261223D01*
X162183726Y-67309998D01*
X162100870Y-67332122D01*
X161881150Y-67436687D01*
X161684165Y-67579542D01*
X161516513Y-67755903D01*
X161383806Y-67959864D01*
X161290491Y-68184592D01*
X161239692Y-68422563D01*
X161233109Y-68665806D01*
X161270965Y-68906176D01*
X161351990Y-69135622D01*
X161473473Y-69346461D01*
X161631344Y-69531630D01*
X161820315Y-69684929D01*
X162034058Y-69801223D01*
X162183726Y-69849998D01*
X162100870Y-69872122D01*
X161881150Y-69976687D01*
X161684165Y-70119542D01*
X161516513Y-70295903D01*
X161383806Y-70499864D01*
X161290491Y-70724592D01*
X161239692Y-70962563D01*
X161233109Y-71205806D01*
X161270965Y-71446176D01*
X161351990Y-71675622D01*
X161473473Y-71886461D01*
X161631344Y-72071630D01*
X161820315Y-72224929D01*
X162034058Y-72341223D01*
X162183726Y-72389998D01*
X162100870Y-72412122D01*
X161881150Y-72516687D01*
X161684165Y-72659542D01*
X161516513Y-72835903D01*
X161383806Y-73039864D01*
X161290491Y-73264592D01*
X161239692Y-73502563D01*
X161233109Y-73745806D01*
X161270965Y-73986176D01*
X161351990Y-74215622D01*
X161473473Y-74426461D01*
X161631344Y-74611630D01*
X161820315Y-74764929D01*
X162034058Y-74881223D01*
X162183726Y-74929998D01*
X162100870Y-74952122D01*
X161881150Y-75056687D01*
X161684165Y-75199542D01*
X161516513Y-75375903D01*
X161383806Y-75579864D01*
X161290491Y-75804592D01*
X161239692Y-76042563D01*
X161233109Y-76285806D01*
X161270965Y-76526176D01*
X161351990Y-76755622D01*
X161473473Y-76966461D01*
X161631344Y-77151630D01*
X161820315Y-77304929D01*
X162034058Y-77421223D01*
X162183726Y-77469998D01*
X162100870Y-77492122D01*
X161881150Y-77596687D01*
X161684165Y-77739542D01*
X161516513Y-77915903D01*
X161383806Y-78119864D01*
X161290491Y-78344592D01*
X161239692Y-78582563D01*
X161233109Y-78825806D01*
X161270965Y-79066176D01*
X161351990Y-79295622D01*
X161473473Y-79506461D01*
X161631344Y-79691630D01*
X161820315Y-79844929D01*
X162034058Y-79961223D01*
X162265415Y-80036619D01*
X162506639Y-80068591D01*
X162749648Y-80056068D01*
X162986308Y-79999470D01*
X163208688Y-79900691D01*
X163409346Y-79763042D01*
X163581557Y-79591130D01*
X163583024Y-79589000D01*
X163666964Y-79589000D01*
X163693293Y-79594958D01*
X163789318Y-79589000D01*
X163822973Y-79589000D01*
X163848694Y-79585316D01*
X163936016Y-79579898D01*
X163968557Y-79568150D01*
X164002814Y-79563245D01*
X164082465Y-79527029D01*
X164165118Y-79497191D01*
X164192258Y-79477109D01*
X164224196Y-79462587D01*
X164299077Y-79398066D01*
X164320625Y-79382122D01*
X164339585Y-79363162D01*
X164408427Y-79303844D01*
X164425973Y-79276774D01*
X166733076Y-76969672D01*
X166755905Y-76955268D01*
X166819595Y-76883153D01*
X166843389Y-76859359D01*
X166858971Y-76838568D01*
X166916889Y-76772990D01*
X166931594Y-76741667D01*
X166952346Y-76713978D01*
X166983054Y-76632062D01*
X167020406Y-76552503D01*
X167025397Y-76519109D01*
X167037710Y-76486264D01*
X167045032Y-76387725D01*
X167049000Y-76361179D01*
X167049000Y-76334345D01*
X167055733Y-76243744D01*
X167049000Y-76212202D01*
X167049000Y-69258195D01*
X167061354Y-69252862D01*
X167254114Y-69093114D01*
X167394289Y-68885686D01*
X167470848Y-68646516D01*
X167474385Y-68376330D01*
X167404113Y-68135238D01*
X167269415Y-67924212D01*
X167080904Y-67759473D01*
X166853733Y-67654264D01*
X166606164Y-67617044D01*
X166358100Y-67650804D01*
X166129482Y-67752830D01*
X165938689Y-67914922D01*
X165850669Y-68048665D01*
X165666928Y-68232406D01*
X165644095Y-68246813D01*
X165580402Y-68318932D01*
X165556611Y-68342722D01*
X165541027Y-68363516D01*
X165483113Y-68429091D01*
X165468407Y-68460414D01*
X165447654Y-68488105D01*
X165444570Y-68496333D01*
X165353733Y-68454264D01*
X165106164Y-68417044D01*
X164858100Y-68450804D01*
X164629482Y-68552830D01*
X164438689Y-68714922D01*
X164301059Y-68924047D01*
X164227654Y-69163394D01*
X164224377Y-69413723D01*
X164251000Y-69509398D01*
X164251001Y-75351000D01*
X163577230Y-75351000D01*
X163463428Y-75224387D01*
X163270508Y-75076087D01*
X163053794Y-74965428D01*
X162938009Y-74931021D01*
X162986308Y-74919470D01*
X163208688Y-74820691D01*
X163409346Y-74683042D01*
X163581557Y-74511130D01*
X163719558Y-74310713D01*
X163818724Y-74088504D01*
X163876119Y-73850351D01*
X163884487Y-73541101D01*
X163840055Y-73300193D01*
X163753051Y-73072947D01*
X163626091Y-72865360D01*
X163463428Y-72684387D01*
X163270508Y-72536087D01*
X163053794Y-72425428D01*
X162938009Y-72391021D01*
X162986308Y-72379470D01*
X163208688Y-72280691D01*
X163409346Y-72143042D01*
X163581557Y-71971130D01*
X163719558Y-71770713D01*
X163818724Y-71548504D01*
X163876119Y-71310351D01*
X163884487Y-71001101D01*
X163840055Y-70760193D01*
X163753051Y-70532947D01*
X163626091Y-70325360D01*
X163463428Y-70144387D01*
X163270508Y-69996087D01*
X163053794Y-69885428D01*
X162938009Y-69851021D01*
X162986308Y-69839470D01*
X163208688Y-69740691D01*
X163409346Y-69603042D01*
X163581557Y-69431130D01*
X163719558Y-69230713D01*
X163818724Y-69008504D01*
X163876119Y-68770351D01*
X163884487Y-68461101D01*
X163840055Y-68220193D01*
X163753051Y-67992947D01*
X163626091Y-67785360D01*
X163463428Y-67604387D01*
X163270508Y-67456087D01*
X163053794Y-67345428D01*
X162938009Y-67311021D01*
X162986308Y-67299470D01*
X163208688Y-67200691D01*
X163409346Y-67063042D01*
X163581557Y-66891130D01*
X163719558Y-66690713D01*
X163818724Y-66468504D01*
X163876119Y-66230351D01*
X163884487Y-65921101D01*
X163840055Y-65680193D01*
X163753051Y-65452947D01*
X163626091Y-65245360D01*
X163463428Y-65064387D01*
X163270508Y-64916087D01*
X163053794Y-64805428D01*
X162938009Y-64771021D01*
X162986308Y-64759470D01*
X163208688Y-64660691D01*
X163409346Y-64523042D01*
X163581557Y-64351130D01*
X163719558Y-64150713D01*
X163818724Y-63928504D01*
X163876119Y-63690351D01*
X163884487Y-63381101D01*
X163840055Y-63140193D01*
X163753051Y-62912947D01*
X163626091Y-62705360D01*
X163463428Y-62524387D01*
X163366448Y-62449837D01*
X163426325Y-62449837D01*
X163726566Y-62369388D01*
X163901609Y-62222509D01*
X164013047Y-62029492D01*
X164049837Y-61820849D01*
X164049837Y-61090000D01*
X161070163Y-61090000D01*
X149474000Y-61090000D01*
X149474000Y-60099151D01*
X161070163Y-60099151D01*
X161070163Y-60830000D01*
X162430000Y-60830000D01*
X162430000Y-59470163D01*
X162690000Y-59470163D01*
X162690000Y-60830000D01*
X164049837Y-60830000D01*
X164049837Y-60097787D01*
X176469143Y-60097787D01*
X176469143Y-61822213D01*
X176503502Y-61994945D01*
X176608265Y-62151735D01*
X176765055Y-62256498D01*
X176937787Y-62290857D01*
X177259477Y-62290857D01*
X177121150Y-62356687D01*
X176924165Y-62499542D01*
X176756513Y-62675903D01*
X176623806Y-62879864D01*
X176530491Y-63104592D01*
X176479692Y-63342563D01*
X176473109Y-63585806D01*
X176510965Y-63826176D01*
X176591990Y-64055622D01*
X176713473Y-64266461D01*
X176871344Y-64451630D01*
X177060315Y-64604929D01*
X177274058Y-64721223D01*
X177423726Y-64769998D01*
X177340870Y-64792122D01*
X177121150Y-64896687D01*
X176924165Y-65039542D01*
X176756513Y-65215903D01*
X176623806Y-65419864D01*
X176530491Y-65644592D01*
X176479692Y-65882563D01*
X176473109Y-66125806D01*
X176510965Y-66366176D01*
X176591990Y-66595622D01*
X176713473Y-66806461D01*
X176871344Y-66991630D01*
X177060315Y-67144929D01*
X177274058Y-67261223D01*
X177423726Y-67309998D01*
X177340870Y-67332122D01*
X177121150Y-67436687D01*
X176924165Y-67579542D01*
X176756513Y-67755903D01*
X176623806Y-67959864D01*
X176530491Y-68184592D01*
X176479692Y-68422563D01*
X176473109Y-68665806D01*
X176510965Y-68906176D01*
X176591990Y-69135622D01*
X176713473Y-69346461D01*
X176871344Y-69531630D01*
X177060315Y-69684929D01*
X177274058Y-69801223D01*
X177423726Y-69849998D01*
X177340870Y-69872122D01*
X177121150Y-69976687D01*
X176924165Y-70119542D01*
X176756513Y-70295903D01*
X176623806Y-70499864D01*
X176530491Y-70724592D01*
X176479692Y-70962563D01*
X176473109Y-71205806D01*
X176510965Y-71446176D01*
X176591990Y-71675622D01*
X176713473Y-71886461D01*
X176871344Y-72071630D01*
X177060315Y-72224929D01*
X177274058Y-72341223D01*
X177423726Y-72389998D01*
X177340870Y-72412122D01*
X177121150Y-72516687D01*
X176924165Y-72659542D01*
X176756513Y-72835903D01*
X176623806Y-73039864D01*
X176530491Y-73264592D01*
X176479692Y-73502563D01*
X176473109Y-73745806D01*
X176510965Y-73986176D01*
X176591990Y-74215622D01*
X176713473Y-74426461D01*
X176871344Y-74611630D01*
X177060315Y-74764929D01*
X177274058Y-74881223D01*
X177423726Y-74929998D01*
X177340870Y-74952122D01*
X177121150Y-75056687D01*
X176924165Y-75199542D01*
X176756513Y-75375903D01*
X176623806Y-75579864D01*
X176530491Y-75804592D01*
X176479692Y-76042563D01*
X176473109Y-76285806D01*
X176510965Y-76526176D01*
X176591990Y-76755622D01*
X176713473Y-76966461D01*
X176871344Y-77151630D01*
X177060315Y-77304929D01*
X177274058Y-77421223D01*
X177423726Y-77469998D01*
X177340870Y-77492122D01*
X177121150Y-77596687D01*
X176924165Y-77739542D01*
X176756513Y-77915903D01*
X176623806Y-78119864D01*
X176530491Y-78344592D01*
X176479692Y-78582563D01*
X176473109Y-78825806D01*
X176510965Y-79066176D01*
X176591990Y-79295622D01*
X176713473Y-79506461D01*
X176871344Y-79691630D01*
X177060315Y-79844929D01*
X177274058Y-79961223D01*
X177505415Y-80036619D01*
X177746639Y-80068591D01*
X177989648Y-80056068D01*
X178226308Y-79999470D01*
X178448688Y-79900691D01*
X178649346Y-79763042D01*
X178821557Y-79591130D01*
X178959558Y-79390713D01*
X179058724Y-79168504D01*
X179116119Y-78930351D01*
X179124487Y-78621101D01*
X179080055Y-78380193D01*
X178993051Y-78152947D01*
X178866091Y-77945360D01*
X178703428Y-77764387D01*
X178510508Y-77616087D01*
X178293794Y-77505428D01*
X178178009Y-77471021D01*
X178226308Y-77459470D01*
X178448688Y-77360691D01*
X178649346Y-77223042D01*
X178821557Y-77051130D01*
X178959558Y-76850713D01*
X179058724Y-76628504D01*
X179116119Y-76390351D01*
X179124487Y-76081101D01*
X179080055Y-75840193D01*
X178993051Y-75612947D01*
X178866091Y-75405360D01*
X178703428Y-75224387D01*
X178510508Y-75076087D01*
X178293794Y-74965428D01*
X178178009Y-74931021D01*
X178226308Y-74919470D01*
X178448688Y-74820691D01*
X178649346Y-74683042D01*
X178821557Y-74511130D01*
X178959558Y-74310713D01*
X179058724Y-74088504D01*
X179116119Y-73850351D01*
X179124487Y-73541101D01*
X179080055Y-73300193D01*
X178993051Y-73072947D01*
X178866091Y-72865360D01*
X178703428Y-72684387D01*
X178510508Y-72536087D01*
X178293794Y-72425428D01*
X178178009Y-72391021D01*
X178226308Y-72379470D01*
X178448688Y-72280691D01*
X178649346Y-72143042D01*
X178821557Y-71971130D01*
X178959558Y-71770713D01*
X179058724Y-71548504D01*
X179116119Y-71310351D01*
X179124487Y-71001101D01*
X179080055Y-70760193D01*
X178993051Y-70532947D01*
X178866091Y-70325360D01*
X178703428Y-70144387D01*
X178510508Y-69996087D01*
X178293794Y-69885428D01*
X178178009Y-69851021D01*
X178226308Y-69839470D01*
X178448688Y-69740691D01*
X178649346Y-69603042D01*
X178821557Y-69431130D01*
X178959558Y-69230713D01*
X179058724Y-69008504D01*
X179116119Y-68770351D01*
X179124487Y-68461101D01*
X179080055Y-68220193D01*
X178993051Y-67992947D01*
X178866091Y-67785360D01*
X178703428Y-67604387D01*
X178510508Y-67456087D01*
X178293794Y-67345428D01*
X178178009Y-67311021D01*
X178226308Y-67299470D01*
X178448688Y-67200691D01*
X178649346Y-67063042D01*
X178821557Y-66891130D01*
X178959558Y-66690713D01*
X179058724Y-66468504D01*
X179116119Y-66230351D01*
X179124487Y-65921101D01*
X179080055Y-65680193D01*
X178993051Y-65452947D01*
X178866091Y-65245360D01*
X178703428Y-65064387D01*
X178510508Y-64916087D01*
X178293794Y-64805428D01*
X178178009Y-64771021D01*
X178226308Y-64759470D01*
X178448688Y-64660691D01*
X178649346Y-64523042D01*
X178821557Y-64351130D01*
X178959558Y-64150713D01*
X179058724Y-63928504D01*
X179116119Y-63690351D01*
X179124487Y-63381101D01*
X179080055Y-63140193D01*
X178993051Y-62912947D01*
X178866091Y-62705360D01*
X178703428Y-62524387D01*
X178510508Y-62376087D01*
X178343594Y-62290857D01*
X178662213Y-62290857D01*
X178834945Y-62256498D01*
X178991735Y-62151735D01*
X179096498Y-61994945D01*
X179130857Y-61822213D01*
X179130857Y-60097787D01*
X179096498Y-59925055D01*
X178991735Y-59768265D01*
X178834945Y-59663502D01*
X178662213Y-59629143D01*
X176937787Y-59629143D01*
X176765055Y-59663502D01*
X176608265Y-59768265D01*
X176503502Y-59925055D01*
X176469143Y-60097787D01*
X164049837Y-60097787D01*
X164049837Y-60093675D01*
X163969388Y-59793435D01*
X163822509Y-59618391D01*
X163629492Y-59506953D01*
X163420849Y-59470163D01*
X162690000Y-59470163D01*
X162430000Y-59470163D01*
X161693675Y-59470163D01*
X161393435Y-59550612D01*
X161218391Y-59697491D01*
X161106953Y-59890508D01*
X161070163Y-60099151D01*
X149474000Y-60099151D01*
X149474000Y-58013723D01*
X158524377Y-58013723D01*
X158591490Y-58254911D01*
X158723600Y-58467567D01*
X158910086Y-58634597D01*
X158955769Y-58656435D01*
X159232406Y-58933073D01*
X159246813Y-58955906D01*
X159318934Y-59019601D01*
X159342722Y-59043389D01*
X159363508Y-59058968D01*
X159429092Y-59116889D01*
X159460413Y-59131594D01*
X159488103Y-59152346D01*
X159570034Y-59183060D01*
X159649576Y-59220406D01*
X159682969Y-59225397D01*
X159715818Y-59237711D01*
X159814374Y-59245035D01*
X159840904Y-59249000D01*
X159867732Y-59249000D01*
X159958337Y-59255733D01*
X159989879Y-59249000D01*
X169504883Y-59249000D01*
X169531212Y-59254958D01*
X169627237Y-59249000D01*
X169660892Y-59249000D01*
X169686613Y-59245316D01*
X169773935Y-59239898D01*
X169806476Y-59228150D01*
X169840733Y-59223245D01*
X169920384Y-59187029D01*
X170003037Y-59157191D01*
X170030177Y-59137109D01*
X170062115Y-59122587D01*
X170136996Y-59058066D01*
X170158544Y-59042122D01*
X170177505Y-59023161D01*
X170246346Y-58963844D01*
X170263892Y-58936774D01*
X170733076Y-58467591D01*
X170755905Y-58453187D01*
X170781682Y-58424000D01*
X173872764Y-58424000D01*
X173955224Y-58431215D01*
X174035188Y-58409789D01*
X174116712Y-58395413D01*
X174140856Y-58381474D01*
X174167782Y-58374259D01*
X174235580Y-58326786D01*
X174307287Y-58285386D01*
X174360506Y-58221962D01*
X175258469Y-57324000D01*
X180041532Y-57324000D01*
X180676001Y-57958469D01*
X180676000Y-78741531D01*
X177778031Y-81639501D01*
X177714615Y-81692712D01*
X177673223Y-81764407D01*
X177625740Y-81832219D01*
X177618524Y-81859150D01*
X177604588Y-81883287D01*
X177590215Y-81964799D01*
X177568785Y-82044776D01*
X177576001Y-82127250D01*
X177576000Y-90618223D01*
X177538689Y-90649922D01*
X177401059Y-90859047D01*
X177327654Y-91098394D01*
X177324377Y-91348723D01*
X177391490Y-91589911D01*
X177523600Y-91802567D01*
X177710085Y-91969597D01*
X177935954Y-92077572D01*
X178183049Y-92117814D01*
X178431507Y-92087088D01*
X178661354Y-91987862D01*
X178854114Y-91828114D01*
X178994289Y-91620686D01*
X179070848Y-91381516D01*
X179074385Y-91111330D01*
X179004113Y-90870238D01*
X178869415Y-90659212D01*
X178824000Y-90619524D01*
X178824000Y-87956911D01*
X178983049Y-87982814D01*
X179231507Y-87952088D01*
X179461354Y-87852862D01*
X179654114Y-87693114D01*
X179794289Y-87485686D01*
X179870848Y-87246516D01*
X179874385Y-86976330D01*
X179873031Y-86971686D01*
X180031507Y-86952088D01*
X180261354Y-86852862D01*
X180454114Y-86693114D01*
X180594289Y-86485686D01*
X180670848Y-86246516D01*
X180674385Y-85976330D01*
X180604113Y-85735238D01*
X180469415Y-85524212D01*
X180424000Y-85484524D01*
X180424000Y-82658468D01*
X183121972Y-79960497D01*
X183185386Y-79907288D01*
X183226784Y-79835583D01*
X183274258Y-79767783D01*
X183281473Y-79740860D01*
X183295414Y-79716711D01*
X183309788Y-79635189D01*
X183331215Y-79555225D01*
X183324000Y-79472765D01*
X183324000Y-56427235D01*
X183331215Y-56344775D01*
X183309788Y-56264811D01*
X183295414Y-56183289D01*
X183281473Y-56159140D01*
X183274258Y-56132217D01*
X183226784Y-56064416D01*
X183185386Y-55992713D01*
X183121968Y-55939499D01*
X180260504Y-53078036D01*
X180207287Y-53014614D01*
X180135580Y-52973214D01*
X180067782Y-52925741D01*
X180040856Y-52918526D01*
X180016712Y-52904587D01*
X179935188Y-52890211D01*
X179855224Y-52868785D01*
X179772762Y-52876000D01*
X173910455Y-52876000D01*
X173806091Y-52705360D01*
X173643428Y-52524387D01*
X173450508Y-52376087D01*
X173233794Y-52265428D01*
X173000543Y-52196114D01*
X172758565Y-52170467D01*
X172515966Y-52189347D01*
X172280870Y-52252122D01*
X172061150Y-52356687D01*
X171864165Y-52499542D01*
X171696513Y-52675903D01*
X171563806Y-52879864D01*
X171557941Y-52893988D01*
X171556646Y-52890299D01*
X171434522Y-52670435D01*
X171277100Y-52474291D01*
X171088881Y-52307476D01*
X170875245Y-52174757D01*
X170642302Y-52079932D01*
X170330000Y-52010982D01*
X170330000Y-53630000D01*
X170070000Y-53630000D01*
X170070000Y-52022848D01*
X169895842Y-52044077D01*
X169654883Y-52116140D01*
X169429510Y-52227770D01*
X169226168Y-52375778D01*
X169050671Y-52555930D01*
X168908037Y-52763077D01*
X168844843Y-52899527D01*
X168726091Y-52705360D01*
X168563428Y-52524387D01*
X168370508Y-52376087D01*
X168153794Y-52265428D01*
X167920543Y-52196114D01*
X167678565Y-52170467D01*
X167435966Y-52189347D01*
X167200870Y-52252122D01*
X166981150Y-52356687D01*
X166784165Y-52499542D01*
X166616513Y-52675903D01*
X166483806Y-52879864D01*
X166390491Y-53104592D01*
X166339692Y-53342563D01*
X166333109Y-53585806D01*
X166370965Y-53826176D01*
X166451990Y-54055622D01*
X166573473Y-54266461D01*
X166731344Y-54451630D01*
X166920315Y-54604929D01*
X167111856Y-54709143D01*
X166797787Y-54709143D01*
X166625055Y-54743502D01*
X166468265Y-54848265D01*
X166363502Y-55005055D01*
X166329143Y-55177787D01*
X166329143Y-56902213D01*
X166363502Y-57074945D01*
X166468265Y-57231735D01*
X166625055Y-57336498D01*
X166797787Y-57370857D01*
X168522213Y-57370857D01*
X168694945Y-57336498D01*
X168851735Y-57231735D01*
X168956498Y-57074945D01*
X168990857Y-56902213D01*
X168990857Y-56592414D01*
X168991990Y-56595622D01*
X169113473Y-56806461D01*
X169271344Y-56991630D01*
X169351000Y-57056250D01*
X169351000Y-57448333D01*
X169248334Y-57551000D01*
X160251668Y-57551000D01*
X160148006Y-57447339D01*
X160069415Y-57324212D01*
X159880904Y-57159473D01*
X159653733Y-57054264D01*
X159406164Y-57017044D01*
X159158100Y-57050804D01*
X158929482Y-57152830D01*
X158738689Y-57314922D01*
X158601059Y-57524047D01*
X158527654Y-57763394D01*
X158524377Y-58013723D01*
X149474000Y-58013723D01*
X149474000Y-50196336D01*
X151196337Y-48474000D01*
X186803664Y-48474000D01*
X188526000Y-50196337D01*
M02*
