M48
; DRILL file {KiCad (5.99.0-492-g30da2b31e)} date Di 10 Dez 2019 20:34:07 CET
; FORMAT={2:4/ absolute / inch / suppress leading zeros}
; #@! TF.CreationDate,2019-12-10T20:34:07+01:00
; #@! TF.GenerationSoftware,Kicad,Pcbnew,(5.99.0-492-g30da2b31e)
; #@! TF.FileFunction,Plated,1,2,PTH
FMAT,2
INCH,TZ
T1C0.0157
T2C0.0276
T3C0.0320
T4C0.0354
T5C0.0394
%
G90
G05
T1
X59843Y-22087
X61083Y-31102
X61575Y-36181
X61890Y-27205
X61890Y-28622
X62323Y-27087
X62323Y-29134
X62520Y-34331
X62717Y-25433
X62717Y-31575
X62756Y-22795
X63209Y-36417
X63681Y-33209
X64173Y-32165
X64557Y-36780
X64764Y-33504
X65000Y-27283
X65000Y-39213
X65157Y-35118
X65197Y-40866
X65433Y-35433
X65522Y-36694
X65591Y-26969
X66102Y-37008
X66220Y-36142
X66890Y-41063
X66929Y-32480
X66929Y-37677
X66929Y-40394
X67480Y-32913
X67638Y-39567
X67972Y-38406
X68031Y-35157
X68307Y-36142
X68307Y-40433
X68307Y-41378
X68465Y-35079
X68622Y-36457
X68780Y-34685
X68937Y-36772
X69724Y-36929
X70157Y-35919
X70472Y-34291
X70630Y-35551
X70748Y-37992
X70787Y-33898
X71299Y-37126
X71693Y-36890
X73780Y-31339
T2
X70827Y-39961
X70827Y-40748
X70827Y-41535
X70827Y-42323
T3
X59750Y-33250
X59750Y-34250
X59750Y-35250
X59750Y-36250
X59750Y-37250
X60750Y-33750
X60750Y-34750
X60750Y-35750
X60750Y-36750
X60750Y-37750
T4
X60433Y-25197
X60433Y-26181
X60433Y-27165
X60433Y-28150
X60433Y-29134
T5
X68976Y-32480
X61890Y-40339
X62890Y-40339
X63890Y-40339
X66008Y-21063
X66008Y-22063
X67008Y-21063
X67008Y-22063
X68008Y-21063
X68008Y-22063
X64000Y-24000
X64000Y-25000
X64000Y-26000
X64000Y-27000
X64000Y-28000
X64000Y-29000
X64000Y-30000
X64000Y-31000
X70000Y-24000
X70000Y-25000
X70000Y-26000
X70000Y-27000
X70000Y-28000
X70000Y-29000
X70000Y-30000
X70000Y-31000
T0
M30
