G04 #@! TF.GenerationSoftware,KiCad,Pcbnew,(5.99.0-492-g30da2b31e)*
G04 #@! TF.CreationDate,2019-12-10T20:34:04+01:00*
G04 #@! TF.ProjectId,Feeder,46656564-6572-42e6-9b69-6361645f7063,0.1*
G04 #@! TF.SameCoordinates,Original*
G04 #@! TF.FileFunction,Copper,L1,Top*
G04 #@! TF.FilePolarity,Positive*
%FSLAX46Y46*%
G04 Gerber Fmt 4.6, Leading zero omitted, Abs format (unit mm)*
G04 Created by KiCad (PCBNEW (5.99.0-492-g30da2b31e)) date 2019-12-10 20:34:04*
%MOMM*%
%LPD*%
G04 APERTURE LIST*
%ADD10C,1.750000*%
%ADD11R,1.750000X1.750000*%
%ADD12R,1.550000X0.600000*%
%ADD13R,1.700000X1.700000*%
%ADD14O,1.700000X1.700000*%
%ADD15R,0.750000X0.800000*%
%ADD16R,0.800000X0.750000*%
%ADD17R,1.000000X1.250000*%
%ADD18O,1.700000X1.200000*%
%ADD19R,1.700000X1.200000*%
%ADD20R,1.300000X1.700000*%
%ADD21R,0.600000X1.200000*%
%ADD22R,1.200000X0.600000*%
%ADD23R,0.800000X0.800000*%
%ADD24R,1.000000X1.600000*%
%ADD25R,0.300000X2.000000*%
%ADD26C,1.450000*%
%ADD27R,0.500000X0.900000*%
%ADD28R,0.900000X0.500000*%
%ADD29R,1.500000X2.000000*%
%ADD30R,3.800000X2.000000*%
%ADD31C,0.800000*%
%ADD32C,0.250000*%
%ADD33C,0.300000*%
%ADD34C,0.500000*%
%ADD35C,0.750000*%
G04 APERTURE END LIST*
D10*
X153500000Y-64000000D03*
X153500000Y-66500000D03*
X153500000Y-69000000D03*
X153500000Y-71500000D03*
D11*
X153500000Y-74000000D03*
D12*
X182300000Y-88695000D03*
X182300000Y-89965000D03*
X182300000Y-91235000D03*
X182300000Y-92505000D03*
X176900000Y-92505000D03*
X176900000Y-91235000D03*
X176900000Y-89965000D03*
X176900000Y-88695000D03*
D13*
X175200000Y-82500000D03*
D14*
X162280000Y-102460000D03*
X159740000Y-102460000D03*
D13*
X157200000Y-102460000D03*
D15*
X178700000Y-96050000D03*
X178700000Y-94550000D03*
D16*
X181350000Y-84800000D03*
X182850000Y-84800000D03*
D15*
X165600000Y-104550000D03*
X165600000Y-106050000D03*
D16*
X156650000Y-79800000D03*
X155150000Y-79800000D03*
D15*
X160600000Y-105250000D03*
X160600000Y-106750000D03*
X172650000Y-95500000D03*
X172650000Y-97000000D03*
X174450000Y-97000000D03*
X174450000Y-95500000D03*
D16*
X158550000Y-91900000D03*
X157050000Y-91900000D03*
D15*
X180600000Y-96050000D03*
X180600000Y-94550000D03*
D17*
X154200000Y-60100000D03*
X152200000Y-60100000D03*
X161300000Y-57100000D03*
X159300000Y-57100000D03*
D18*
X179900000Y-101500000D03*
X179900000Y-103500000D03*
X179900000Y-105500000D03*
D19*
X179900000Y-107500000D03*
D20*
X163450000Y-53600000D03*
X159950000Y-53600000D03*
D21*
X163570000Y-87190000D03*
X164370000Y-87190000D03*
X165170000Y-87190000D03*
X165970000Y-87190000D03*
X166770000Y-87190000D03*
X167570000Y-87190000D03*
X168370000Y-87190000D03*
X169170000Y-87190000D03*
D22*
X170620000Y-88640000D03*
X170620000Y-89440000D03*
X170620000Y-90240000D03*
X170620000Y-91040000D03*
X170620000Y-91840000D03*
X170620000Y-92640000D03*
X170620000Y-93440000D03*
X170620000Y-94240000D03*
D21*
X169170000Y-95690000D03*
X168370000Y-95690000D03*
X167570000Y-95690000D03*
X166770000Y-95690000D03*
X165970000Y-95690000D03*
X165170000Y-95690000D03*
X164370000Y-95690000D03*
X163570000Y-95690000D03*
D22*
X162120000Y-94240000D03*
X162120000Y-93440000D03*
X162120000Y-92640000D03*
X162120000Y-91840000D03*
X162120000Y-91040000D03*
X162120000Y-90240000D03*
X162120000Y-89440000D03*
X162120000Y-88640000D03*
D23*
X182080000Y-71120000D03*
X183680000Y-71120000D03*
X183680000Y-63500000D03*
X182080000Y-63500000D03*
X182080000Y-66040000D03*
X183680000Y-66040000D03*
X183680000Y-68580000D03*
X182080000Y-68580000D03*
X182080000Y-73660000D03*
X183680000Y-73660000D03*
X183680000Y-76200000D03*
X182080000Y-76200000D03*
X182080000Y-78740000D03*
X183680000Y-78740000D03*
X183680000Y-60960000D03*
X182080000Y-60960000D03*
D24*
X168580000Y-106640000D03*
X171780000Y-106640000D03*
X168580000Y-101640000D03*
X171780000Y-101640000D03*
D25*
X159700000Y-85090000D03*
X158750000Y-85090000D03*
X157800000Y-85090000D03*
D26*
X151765000Y-84455000D03*
X154305000Y-85725000D03*
X151765000Y-86995000D03*
X154305000Y-88265000D03*
X151765000Y-89535000D03*
X154305000Y-90805000D03*
X151765000Y-92075000D03*
X154305000Y-93345000D03*
X151765000Y-94615000D03*
X154305000Y-95885000D03*
D14*
X172740000Y-53500000D03*
X172740000Y-56040000D03*
X170200000Y-53500000D03*
X170200000Y-56040000D03*
X167660000Y-53500000D03*
D13*
X167660000Y-56040000D03*
D27*
X185940000Y-66040000D03*
X187440000Y-66040000D03*
X158550000Y-77400000D03*
X160050000Y-77400000D03*
X157850000Y-90050000D03*
X156350000Y-90050000D03*
X187440000Y-78740000D03*
X185940000Y-78740000D03*
X185940000Y-76200000D03*
X187440000Y-76200000D03*
X187440000Y-68580000D03*
X185940000Y-68580000D03*
X185940000Y-73660000D03*
X187440000Y-73660000D03*
X187440000Y-71120000D03*
X185940000Y-71120000D03*
X156650000Y-78200000D03*
X155150000Y-78200000D03*
X179150000Y-82500000D03*
X177650000Y-82500000D03*
X181350000Y-82500000D03*
X182850000Y-82500000D03*
X187440000Y-63500000D03*
X185940000Y-63500000D03*
X185940000Y-60960000D03*
X187440000Y-60960000D03*
X164350000Y-108300000D03*
X165850000Y-108300000D03*
D28*
X162800000Y-106750000D03*
X162800000Y-105250000D03*
D27*
X174850000Y-105500000D03*
X176350000Y-105500000D03*
D13*
X162560000Y-60960000D03*
D14*
X162560000Y-63500000D03*
X162560000Y-66040000D03*
X162560000Y-68580000D03*
X162560000Y-71120000D03*
X162560000Y-73660000D03*
X162560000Y-76200000D03*
X162560000Y-78740000D03*
X177800000Y-78740000D03*
X177800000Y-76200000D03*
X177800000Y-73660000D03*
X177800000Y-71120000D03*
X177800000Y-68580000D03*
X177800000Y-66040000D03*
X177800000Y-63500000D03*
D13*
X177800000Y-60960000D03*
D29*
X151900000Y-57150000D03*
X156500000Y-57150000D03*
X154200000Y-57150000D03*
D30*
X154200000Y-50850000D03*
D31*
X175100000Y-93400000D03*
X182100000Y-93700000D03*
X165500000Y-89200000D03*
X166200000Y-90000000D03*
X171400000Y-83600000D03*
X170000000Y-82500000D03*
X165100000Y-99600000D03*
X179000000Y-87100000D03*
X179800000Y-86100000D03*
X161750000Y-84350000D03*
X160550000Y-92500000D03*
X167900000Y-94000000D03*
X174700000Y-88100000D03*
X169900000Y-104300000D03*
X170000000Y-102600000D03*
X166600000Y-68500000D03*
X165100000Y-69300000D03*
X157200000Y-72700000D03*
X157200000Y-69100000D03*
X158300000Y-68800000D03*
X158300000Y-74000000D03*
X164500000Y-85099994D03*
X163974148Y-93420627D03*
X173500000Y-91800000D03*
X172800000Y-89300000D03*
X173900000Y-89100000D03*
X174300000Y-92600000D03*
X168200000Y-91800000D03*
X159300000Y-64600000D03*
X166425010Y-93202532D03*
X177100000Y-93800000D03*
X181100000Y-94300000D03*
X159300000Y-80200000D03*
X159400000Y-57900000D03*
X178200000Y-91235000D03*
X173500000Y-102700000D03*
X173500000Y-105100000D03*
X158800000Y-87200000D03*
X152000000Y-56100000D03*
X179700000Y-96500000D03*
X163000000Y-81700000D03*
X171800000Y-100500000D03*
X179400000Y-90300000D03*
X187400000Y-79600000D03*
X165600000Y-103800000D03*
X170000000Y-95700000D03*
X172650000Y-97550000D03*
X156400000Y-91900000D03*
X155150000Y-79000000D03*
D32*
X179900000Y-103500000D02*
X167900000Y-103500000D01*
X164370000Y-99970000D02*
X164370000Y-95690000D01*
X167900000Y-103500000D02*
X164370000Y-99970000D01*
D33*
X170620000Y-90240000D02*
X173960000Y-90240000D01*
X175505000Y-88695000D02*
X176900000Y-88695000D01*
X173960000Y-90240000D02*
X175505000Y-88695000D01*
X170620000Y-91040000D02*
X173940000Y-91040000D01*
X175405000Y-92505000D02*
X176900000Y-92505000D01*
X173940000Y-91040000D02*
X175405000Y-92505000D01*
X175060000Y-93440000D02*
X175100000Y-93400000D01*
X170620000Y-93440000D02*
X175060000Y-93440000D01*
X182100000Y-93700000D02*
X183800000Y-93700000D01*
X183800000Y-93700000D02*
X184200000Y-93300000D01*
X184200000Y-93300000D02*
X184200000Y-88900000D01*
X183995000Y-88695000D02*
X182300000Y-88695000D01*
X184200000Y-88900000D02*
X183995000Y-88695000D01*
D32*
X167570000Y-96540000D02*
X167600000Y-96570000D01*
X167570000Y-95690000D02*
X167570000Y-96540000D01*
X167600000Y-96570000D02*
X167600000Y-99600000D01*
X168580000Y-100580000D02*
X168580000Y-101640000D01*
X167600000Y-99600000D02*
X168580000Y-100580000D01*
X162120000Y-90240000D02*
X160376410Y-90240000D01*
X160376410Y-90240000D02*
X157800000Y-87663590D01*
X157800000Y-87663590D02*
X157800000Y-85090000D01*
X160340000Y-89440000D02*
X162120000Y-89440000D01*
X159700000Y-88800000D02*
X160340000Y-89440000D01*
X159700000Y-85090000D02*
X159700000Y-88800000D01*
X165170000Y-88870000D02*
X165500000Y-89200000D01*
X165170000Y-87190000D02*
X165170000Y-88870000D01*
X165970000Y-88040000D02*
X166500000Y-88570000D01*
X165970000Y-87190000D02*
X165970000Y-88040000D01*
X166500000Y-89700000D02*
X166200000Y-90000000D01*
X166500000Y-88570000D02*
X166500000Y-89700000D01*
X171470000Y-89440000D02*
X172000000Y-88910000D01*
X170620000Y-89440000D02*
X171470000Y-89440000D01*
X172000000Y-84200000D02*
X171400000Y-83600000D01*
X172000000Y-88910000D02*
X172000000Y-84200000D01*
X170620000Y-83120000D02*
X170000000Y-82500000D01*
X170620000Y-88640000D02*
X170620000Y-83120000D01*
X165170000Y-99530000D02*
X165100000Y-99600000D01*
X165170000Y-95690000D02*
X165170000Y-99530000D01*
D33*
X179000000Y-87100000D02*
X181865000Y-89965000D01*
X181865000Y-89965000D02*
X182300000Y-89965000D01*
X178200000Y-86400000D02*
X178500000Y-86100000D01*
X178200000Y-88000000D02*
X178200000Y-86400000D01*
X178500000Y-86100000D02*
X179800000Y-86100000D01*
X181435000Y-91235000D02*
X178200000Y-88000000D01*
X182300000Y-91235000D02*
X181435000Y-91235000D01*
D34*
X183680000Y-66040000D02*
X185940000Y-66040000D01*
D32*
X156355000Y-84455000D02*
X151765000Y-84455000D01*
X156800000Y-84900000D02*
X156355000Y-84455000D01*
X156800000Y-87300000D02*
X156800000Y-84900000D01*
X160400000Y-90900000D02*
X156800000Y-87300000D01*
X161130000Y-90900000D02*
X160400000Y-90900000D01*
X161270000Y-91040000D02*
X161130000Y-90900000D01*
X162120000Y-91040000D02*
X161270000Y-91040000D01*
D33*
X156350000Y-87750000D02*
X156800000Y-87300000D01*
X156350000Y-90050000D02*
X156350000Y-87750000D01*
D34*
X185940000Y-78740000D02*
X183680000Y-78740000D01*
X183680000Y-76200000D02*
X185940000Y-76200000D01*
X185940000Y-68580000D02*
X183680000Y-68580000D01*
X185940000Y-73660000D02*
X183680000Y-73660000D01*
X183680000Y-71120000D02*
X185940000Y-71120000D01*
D33*
X161750000Y-83784315D02*
X157765685Y-79800000D01*
X157765685Y-79800000D02*
X156650000Y-79800000D01*
X162120000Y-92640000D02*
X160690000Y-92640000D01*
X160690000Y-92640000D02*
X160550000Y-92500000D01*
X161750000Y-84350000D02*
X161750000Y-83784315D01*
D32*
X157900000Y-77400000D02*
X157100000Y-78200000D01*
X157100000Y-78200000D02*
X156650000Y-78200000D01*
X158550000Y-77400000D02*
X157900000Y-77400000D01*
X156650000Y-78200000D02*
X156650000Y-79800000D01*
D33*
X177650000Y-82500000D02*
X175200000Y-82500000D01*
X181350000Y-84800000D02*
X181350000Y-82500000D01*
X181350000Y-82500000D02*
X179150000Y-82500000D01*
D32*
X163570000Y-94840000D02*
X164410000Y-94000000D01*
X163570000Y-95690000D02*
X163570000Y-94840000D01*
X164410000Y-94000000D02*
X167900000Y-94000000D01*
X179150000Y-83750000D02*
X179150000Y-82500000D01*
X174800000Y-88100000D02*
X179150000Y-83750000D01*
X174700000Y-88100000D02*
X174800000Y-88100000D01*
D34*
X185940000Y-63500000D02*
X183680000Y-63500000D01*
X183680000Y-60960000D02*
X185940000Y-60960000D01*
D33*
X164350000Y-108300000D02*
X163500000Y-108300000D01*
X162800000Y-107600000D02*
X162800000Y-106750000D01*
X163500000Y-108300000D02*
X162800000Y-107600000D01*
X162800000Y-106750000D02*
X160600000Y-106750000D01*
X160600000Y-106725000D02*
X158500000Y-104625000D01*
X160600000Y-106750000D02*
X160600000Y-106725000D01*
X158500000Y-104625000D02*
X158500000Y-94300000D01*
X159360000Y-93440000D02*
X162120000Y-93440000D01*
X158500000Y-94300000D02*
X159360000Y-93440000D01*
D32*
X179900000Y-105500000D02*
X176350000Y-105500000D01*
X174850000Y-105300000D02*
X173850000Y-104300000D01*
X174850000Y-105500000D02*
X174850000Y-105300000D01*
X173850000Y-104300000D02*
X169900000Y-104300000D01*
X170000000Y-102600000D02*
X170000000Y-100500000D01*
X168370000Y-98870000D02*
X168370000Y-95690000D01*
X170000000Y-100500000D02*
X168370000Y-98870000D01*
D35*
X167660000Y-57840000D02*
X167660000Y-56040000D01*
X166600000Y-58900000D02*
X167660000Y-57840000D01*
X166600000Y-68500000D02*
X166600000Y-58900000D01*
D33*
X160640000Y-78740000D02*
X162560000Y-78740000D01*
X160050000Y-78150000D02*
X160640000Y-78740000D01*
X160050000Y-77400000D02*
X160050000Y-78150000D01*
D35*
X167660000Y-53500000D02*
X166400000Y-53500000D01*
X166400000Y-53500000D02*
X165600000Y-54300000D01*
X165600000Y-68800000D02*
X165100000Y-69300000D01*
X165600000Y-54300000D02*
X165600000Y-68800000D01*
X162440000Y-73540000D02*
X162560000Y-73660000D01*
X161560000Y-73660000D02*
X160600000Y-72700000D01*
X160600000Y-72700000D02*
X157200000Y-72700000D01*
X157200000Y-69100000D02*
X157100000Y-69000000D01*
X157100000Y-69000000D02*
X153500000Y-69000000D01*
X162560000Y-73660000D02*
X161560000Y-73660000D01*
X158380000Y-71120000D02*
X158000000Y-71500000D01*
X158000000Y-71500000D02*
X153500000Y-71500000D01*
X162560000Y-71120000D02*
X158380000Y-71120000D01*
X162520000Y-68540000D02*
X162560000Y-68580000D01*
X158520000Y-68580000D02*
X158300000Y-68800000D01*
X158300000Y-74000000D02*
X153500000Y-74000000D01*
X162560000Y-68580000D02*
X158520000Y-68580000D01*
X155360000Y-66040000D02*
X154900000Y-66500000D01*
X154900000Y-66500000D02*
X153500000Y-66500000D01*
X162560000Y-66040000D02*
X155360000Y-66040000D01*
D34*
X182080000Y-60960000D02*
X177800000Y-60960000D01*
D32*
X164370000Y-86033589D02*
X163774999Y-85438588D01*
X163774999Y-85438588D02*
X163774999Y-72579357D01*
X164370000Y-87190000D02*
X164370000Y-86033589D01*
X163774999Y-72579357D02*
X175394356Y-60960000D01*
X175394356Y-60960000D02*
X177800000Y-60960000D01*
D34*
X177800000Y-63500000D02*
X182080000Y-63500000D01*
D32*
X173490767Y-63500000D02*
X164500000Y-72490767D01*
X177800000Y-63500000D02*
X173490767Y-63500000D01*
X164500000Y-72490767D02*
X164500000Y-85099994D01*
X162120000Y-94240000D02*
X163154775Y-94240000D01*
X163154775Y-94240000D02*
X163974148Y-93420627D01*
D34*
X182080000Y-66040000D02*
X177800000Y-66040000D01*
D32*
X166770000Y-80770000D02*
X166770000Y-87190000D01*
X166099978Y-80099978D02*
X166770000Y-80770000D01*
X166099978Y-71527200D02*
X166099978Y-80099978D01*
X171587178Y-66040000D02*
X166099978Y-71527200D01*
X177800000Y-66040000D02*
X171587178Y-66040000D01*
D34*
X182080000Y-68580000D02*
X177800000Y-68580000D01*
D32*
X167570000Y-87190000D02*
X167570000Y-80933590D01*
X167570000Y-80933590D02*
X166549989Y-79913579D01*
X166549989Y-71713600D02*
X169683589Y-68580000D01*
X169683589Y-68580000D02*
X177800000Y-68580000D01*
X166549989Y-79913579D02*
X166549989Y-71713600D01*
D34*
X182080000Y-71120000D02*
X177800000Y-71120000D01*
D32*
X167000000Y-79727178D02*
X168370000Y-81097178D01*
X177800000Y-71120000D02*
X167780000Y-71120000D01*
X167780000Y-71120000D02*
X167000000Y-71900000D01*
X167000000Y-71900000D02*
X167000000Y-79727178D01*
X168370000Y-81097178D02*
X168370000Y-87190000D01*
D34*
X182080000Y-73660000D02*
X177800000Y-73660000D01*
D32*
X169170000Y-81070000D02*
X169170000Y-87190000D01*
X167500000Y-79400000D02*
X169170000Y-81070000D01*
X167500000Y-74200000D02*
X167500000Y-79400000D01*
X168040000Y-73660000D02*
X167500000Y-74200000D01*
X177800000Y-73660000D02*
X168040000Y-73660000D01*
D34*
X182080000Y-76200000D02*
X177800000Y-76200000D01*
D33*
X173460000Y-91840000D02*
X173500000Y-91800000D01*
X170620000Y-91840000D02*
X173460000Y-91840000D01*
X172800000Y-88734315D02*
X172500000Y-88434315D01*
X172800000Y-89300000D02*
X172800000Y-88734315D01*
X172500000Y-88434315D02*
X172500000Y-76700000D01*
X173000000Y-76200000D02*
X177800000Y-76200000D01*
X172500000Y-76700000D02*
X173000000Y-76200000D01*
D34*
X182080000Y-78740000D02*
X177800000Y-78740000D01*
D33*
X176597919Y-78740000D02*
X176537919Y-78800000D01*
X177800000Y-78740000D02*
X176597919Y-78740000D01*
X176537919Y-78800000D02*
X173400000Y-78800000D01*
X173400000Y-78800000D02*
X173100000Y-79100000D01*
X173100000Y-79100000D02*
X173100000Y-88100000D01*
X173900000Y-88900000D02*
X173900000Y-89100000D01*
X173100000Y-88100000D02*
X173900000Y-88900000D01*
X170660000Y-92600000D02*
X170620000Y-92640000D01*
X174300000Y-92600000D02*
X170660000Y-92600000D01*
D32*
X169934998Y-94240000D02*
X170620000Y-94240000D01*
X168200000Y-92505002D02*
X169934998Y-94240000D01*
X168200000Y-91800000D02*
X168200000Y-92505002D01*
X166170000Y-91840000D02*
X166330000Y-92000000D01*
X162970000Y-88640000D02*
X166330000Y-92000000D01*
D35*
X154200000Y-50850000D02*
X154200000Y-57150000D01*
D33*
X180600000Y-94550000D02*
X180600000Y-92700000D01*
X180795000Y-92505000D02*
X182300000Y-92505000D01*
X180600000Y-92700000D02*
X180795000Y-92505000D01*
X159300000Y-64600000D02*
X159300000Y-61700000D01*
X157700000Y-60100000D02*
X154200000Y-60100000D01*
X159300000Y-61700000D02*
X157700000Y-60100000D01*
D32*
X166330000Y-92000000D02*
X166425010Y-92095010D01*
D33*
X163020000Y-88640000D02*
X162970000Y-88640000D01*
X166425010Y-92045010D02*
X166425010Y-92300000D01*
X162120000Y-88640000D02*
X163020000Y-88640000D01*
D32*
X166425010Y-92095010D02*
X166425010Y-92300000D01*
D33*
X163020000Y-88640000D02*
X166425010Y-92045010D01*
X166425010Y-93202532D02*
X166425010Y-92300000D01*
X162120000Y-91840000D02*
X166170000Y-91840000D01*
X176660000Y-94240000D02*
X177100000Y-93800000D01*
X170620000Y-94240000D02*
X176660000Y-94240000D01*
X180850000Y-94300000D02*
X180600000Y-94550000D01*
X181100000Y-94300000D02*
X180850000Y-94300000D01*
X181050000Y-107500000D02*
X182000000Y-106550000D01*
X179900000Y-107500000D02*
X181050000Y-107500000D01*
X182000000Y-95200000D02*
X181100000Y-94300000D01*
X182000000Y-106550000D02*
X182000000Y-95200000D01*
X162500001Y-87659999D02*
X162500001Y-83400001D01*
X162120000Y-88640000D02*
X162120000Y-88040000D01*
X162120000Y-88040000D02*
X162500001Y-87659999D01*
X162500001Y-83400001D02*
X159300000Y-80200000D01*
X171880000Y-95500000D02*
X170620000Y-94240000D01*
X172650000Y-95500000D02*
X171880000Y-95500000D01*
X174450000Y-95500000D02*
X172650000Y-95500000D01*
X161220000Y-91840000D02*
X160930000Y-91550000D01*
X162120000Y-91840000D02*
X161220000Y-91840000D01*
X160930000Y-91550000D02*
X159550000Y-91550000D01*
X159550000Y-91600000D02*
X159250000Y-91900000D01*
X159250000Y-91900000D02*
X158550000Y-91900000D01*
X159550000Y-91550000D02*
X159550000Y-91600000D01*
X158550000Y-90750000D02*
X157850000Y-90050000D01*
X158550000Y-91900000D02*
X158550000Y-90750000D01*
D34*
X154200000Y-60100000D02*
X154200000Y-57150000D01*
D35*
X156550000Y-57100000D02*
X156500000Y-57150000D01*
X159300000Y-57100000D02*
X156550000Y-57100000D01*
X159300000Y-55800000D02*
X159300000Y-57100000D01*
X159950000Y-55150000D02*
X159300000Y-55800000D01*
X159950000Y-53600000D02*
X159950000Y-55150000D01*
X159300000Y-57800000D02*
X159400000Y-57900000D01*
X159300000Y-57100000D02*
X159300000Y-57800000D01*
D33*
X178700000Y-91600000D02*
X178335000Y-91235000D01*
X178700000Y-94550000D02*
X178700000Y-91600000D01*
D35*
X159400000Y-60700000D02*
X159400000Y-57900000D01*
X162200000Y-63500000D02*
X159400000Y-60700000D01*
X162560000Y-63500000D02*
X162200000Y-63500000D01*
D33*
X166190000Y-106640000D02*
X165600000Y-106050000D01*
X168580000Y-106640000D02*
X166190000Y-106640000D01*
X176900000Y-91235000D02*
X178200000Y-91235000D01*
X178335000Y-91235000D02*
X178200000Y-91235000D01*
X168580000Y-105320000D02*
X168580000Y-106640000D01*
X168800000Y-105100000D02*
X168580000Y-105320000D01*
X173500000Y-105100000D02*
X168800000Y-105100000D01*
X177300000Y-98900000D02*
X173500000Y-102700000D01*
X177300000Y-94900000D02*
X177300000Y-98900000D01*
X177650000Y-94550000D02*
X177300000Y-94900000D01*
X178700000Y-94550000D02*
X177650000Y-94550000D01*
X165850000Y-108300000D02*
X168200000Y-108300000D01*
X168580000Y-107920000D02*
X168580000Y-106640000D01*
X168200000Y-108300000D02*
X168580000Y-107920000D01*
D34*
X187440000Y-60960000D02*
X187440000Y-63500000D01*
X187440000Y-63500000D02*
X187440000Y-66040000D01*
X187440000Y-66040000D02*
X187440000Y-68580000D01*
X187440000Y-68580000D02*
X187440000Y-71120000D01*
X187440000Y-71120000D02*
X187440000Y-73660000D01*
X187440000Y-73660000D02*
X187440000Y-76200000D01*
X187440000Y-76200000D02*
X187440000Y-78740000D01*
D32*
X158750000Y-87150000D02*
X158800000Y-87200000D01*
X158750000Y-85090000D02*
X158750000Y-87150000D01*
D35*
X163450000Y-53400000D02*
X163450000Y-53600000D01*
X165450000Y-51400000D02*
X163450000Y-53400000D01*
X169302081Y-51400000D02*
X165450000Y-51400000D01*
X170200000Y-52297919D02*
X169302081Y-51400000D01*
X170200000Y-53500000D02*
X170200000Y-52297919D01*
X162560000Y-58940000D02*
X162560000Y-60960000D01*
X163450000Y-58050000D02*
X162560000Y-58940000D01*
X161300000Y-57100000D02*
X163450000Y-57100000D01*
X163450000Y-57100000D02*
X163450000Y-58050000D01*
X163450000Y-53600000D02*
X163450000Y-57100000D01*
X152075000Y-57325000D02*
X151900000Y-57150000D01*
X151900000Y-56200000D02*
X152000000Y-56100000D01*
X151900000Y-57150000D02*
X151900000Y-56200000D01*
D33*
X180600000Y-96050000D02*
X179700000Y-96050000D01*
X179700000Y-96050000D02*
X178700000Y-96050000D01*
X179700000Y-96050000D02*
X179700000Y-96500000D01*
D32*
X163000000Y-86320000D02*
X163000000Y-81700000D01*
X163570000Y-86890000D02*
X163000000Y-86320000D01*
X163570000Y-87190000D02*
X163570000Y-86890000D01*
X171780000Y-100520000D02*
X171800000Y-100500000D01*
X171780000Y-101640000D02*
X171780000Y-100520000D01*
X169170000Y-98730000D02*
X169170000Y-95690000D01*
X171780000Y-101340000D02*
X169170000Y-98730000D01*
X171780000Y-101640000D02*
X171780000Y-101340000D01*
X163570000Y-87190000D02*
X163570000Y-88518234D01*
X163570000Y-88518234D02*
X169170000Y-94118234D01*
X169170000Y-94118234D02*
X169170000Y-95690000D01*
D33*
X179700000Y-96050000D02*
X179700000Y-90600000D01*
X179065000Y-89965000D02*
X179400000Y-90300000D01*
X176900000Y-89965000D02*
X179065000Y-89965000D01*
X179700000Y-90600000D02*
X179400000Y-90300000D01*
X187440000Y-79560000D02*
X187400000Y-79600000D01*
X187440000Y-78740000D02*
X187440000Y-79560000D01*
X165600000Y-104550000D02*
X165600000Y-103800000D01*
X182850000Y-84800000D02*
X182850000Y-82500000D01*
X183400000Y-82500000D02*
X185300000Y-80600000D01*
X182850000Y-82500000D02*
X183400000Y-82500000D01*
X185300000Y-80600000D02*
X187200000Y-80600000D01*
X187400000Y-80400000D02*
X187400000Y-79600000D01*
X187200000Y-80600000D02*
X187400000Y-80400000D01*
X169990000Y-95690000D02*
X170000000Y-95700000D01*
X169170000Y-95690000D02*
X169990000Y-95690000D01*
D32*
X158750000Y-85090000D02*
X158750000Y-83050000D01*
X158750000Y-83050000D02*
X158500000Y-82800000D01*
X158500000Y-82800000D02*
X155700000Y-82800000D01*
X155150000Y-82250000D02*
X155150000Y-79800000D01*
X155700000Y-82800000D02*
X155150000Y-82250000D01*
D33*
X174450000Y-97000000D02*
X172650000Y-97000000D01*
X172650000Y-97000000D02*
X172650000Y-97550000D01*
X157050000Y-91900000D02*
X156400000Y-91900000D01*
X162800000Y-105250000D02*
X160600000Y-105250000D01*
X162280000Y-104180000D02*
X162280000Y-102460000D01*
X162800000Y-104700000D02*
X162280000Y-104180000D01*
X162800000Y-105250000D02*
X162800000Y-104700000D01*
D32*
X155150000Y-79000000D02*
X155150000Y-79800000D01*
X155150000Y-78200000D02*
X155150000Y-79000000D01*
D34*
X152200000Y-59100000D02*
X151900000Y-58800000D01*
X151900000Y-58800000D02*
X151900000Y-57150000D01*
X152200000Y-60100000D02*
X152200000Y-59100000D01*
G36*
X188526000Y-50196337D02*
G01*
X188526001Y-81803662D01*
X185700585Y-84629079D01*
X185676587Y-84644574D01*
X185644919Y-84684745D01*
X185637027Y-84692637D01*
X185620836Y-84715295D01*
X185575462Y-84772852D01*
X185573082Y-84782121D01*
X185568457Y-84788593D01*
X185523245Y-84939772D01*
X185526000Y-85009879D01*
X185526001Y-109803662D01*
X183803664Y-111526000D01*
X151196337Y-111526000D01*
X149474000Y-109803664D01*
X149474000Y-95880795D01*
X153100556Y-95880795D01*
X153121490Y-96108626D01*
X153185129Y-96328389D01*
X153289176Y-96532152D01*
X153429876Y-96712564D01*
X153602152Y-96863116D01*
X153799790Y-96978375D01*
X154015657Y-97054181D01*
X154241964Y-97087801D01*
X154470546Y-97078021D01*
X154693153Y-97025194D01*
X154901756Y-96931226D01*
X155088826Y-96799506D01*
X155247614Y-96634789D01*
X155372389Y-96443017D01*
X155458651Y-96231112D01*
X155503318Y-96006557D01*
X155504137Y-95771811D01*
X155461039Y-95546950D01*
X155376259Y-95334447D01*
X155252825Y-95141810D01*
X155095192Y-94975988D01*
X154909046Y-94842966D01*
X154701103Y-94747544D01*
X154478870Y-94693164D01*
X154250363Y-94681788D01*
X154023826Y-94713827D01*
X153807435Y-94788126D01*
X153608998Y-94902001D01*
X153435674Y-95051347D01*
X153293718Y-95230772D01*
X153188251Y-95433804D01*
X153123080Y-95653117D01*
X153100556Y-95880795D01*
X149474000Y-95880795D01*
X149474000Y-94610795D01*
X150560556Y-94610795D01*
X150581490Y-94838626D01*
X150645129Y-95058389D01*
X150749176Y-95262152D01*
X150889876Y-95442564D01*
X151062152Y-95593116D01*
X151259790Y-95708375D01*
X151475657Y-95784181D01*
X151701964Y-95817801D01*
X151930546Y-95808021D01*
X152153153Y-95755194D01*
X152361756Y-95661226D01*
X152548826Y-95529506D01*
X152707614Y-95364789D01*
X152832389Y-95173017D01*
X152918651Y-94961112D01*
X152963318Y-94736557D01*
X152964137Y-94501811D01*
X152921039Y-94276950D01*
X152836259Y-94064447D01*
X152712825Y-93871810D01*
X152555192Y-93705988D01*
X152369046Y-93572966D01*
X152161103Y-93477544D01*
X151938870Y-93423164D01*
X151928696Y-93422658D01*
X152013291Y-93414661D01*
X152246601Y-93349520D01*
X152264649Y-93340795D01*
X153100556Y-93340795D01*
X153121490Y-93568626D01*
X153185129Y-93788389D01*
X153289176Y-93992152D01*
X153429876Y-94172564D01*
X153602152Y-94323116D01*
X153799790Y-94438375D01*
X154015657Y-94514181D01*
X154241964Y-94547801D01*
X154470546Y-94538021D01*
X154693153Y-94485194D01*
X154901756Y-94391226D01*
X155088826Y-94259506D01*
X155247614Y-94094789D01*
X155372389Y-93903017D01*
X155458651Y-93691112D01*
X155503318Y-93466557D01*
X155504137Y-93231811D01*
X155461039Y-93006950D01*
X155376259Y-92794447D01*
X155252825Y-92601810D01*
X155095192Y-92435988D01*
X154909046Y-92302966D01*
X154701103Y-92207544D01*
X154478870Y-92153164D01*
X154250363Y-92141788D01*
X154023826Y-92173827D01*
X153807435Y-92248126D01*
X153608998Y-92362001D01*
X153435674Y-92511347D01*
X153293718Y-92690772D01*
X153188251Y-92893804D01*
X153123080Y-93113117D01*
X153100556Y-93340795D01*
X152264649Y-93340795D01*
X152464686Y-93244093D01*
X152630082Y-93123930D01*
X151765000Y-92258848D01*
X150899239Y-93124609D01*
X151077593Y-93251356D01*
X151296772Y-93354494D01*
X151530751Y-93417188D01*
X151619493Y-93424640D01*
X151483826Y-93443827D01*
X151267435Y-93518126D01*
X151068998Y-93632001D01*
X150895674Y-93781347D01*
X150753718Y-93960772D01*
X150648251Y-94163804D01*
X150583080Y-94383117D01*
X150560556Y-94610795D01*
X149474000Y-94610795D01*
X149474000Y-92039334D01*
X150402991Y-92039334D01*
X150418201Y-92281089D01*
X150475981Y-92516329D01*
X150574507Y-92737620D01*
X150713705Y-92942447D01*
X151581152Y-92075000D01*
X151948848Y-92075000D01*
X152817303Y-92943456D01*
X152962367Y-92725117D01*
X153058570Y-92502807D01*
X153114257Y-92265379D01*
X153120420Y-92030000D01*
X156010163Y-92030000D01*
X156010163Y-92291325D01*
X156090612Y-92591566D01*
X156237491Y-92766609D01*
X156430508Y-92878047D01*
X156639151Y-92914837D01*
X156920000Y-92914837D01*
X156920000Y-92030000D01*
X156010163Y-92030000D01*
X153120420Y-92030000D01*
X153122372Y-91955496D01*
X153079186Y-91715480D01*
X152994750Y-91488439D01*
X152824049Y-91199799D01*
X151948848Y-92075000D01*
X151581152Y-92075000D01*
X150717107Y-91210955D01*
X150610817Y-91350981D01*
X150500845Y-91566813D01*
X150430833Y-91798708D01*
X150402991Y-92039334D01*
X149474000Y-92039334D01*
X149474000Y-89530795D01*
X150560556Y-89530795D01*
X150581490Y-89758626D01*
X150645129Y-89978389D01*
X150749176Y-90182152D01*
X150889876Y-90362564D01*
X151062152Y-90513116D01*
X151259790Y-90628375D01*
X151475657Y-90704181D01*
X151600052Y-90722661D01*
X151364377Y-90772755D01*
X151140101Y-90864281D01*
X150894188Y-91020341D01*
X151765000Y-91891152D01*
X152645650Y-91010503D01*
X152312644Y-90827431D01*
X152233496Y-90800795D01*
X153100556Y-90800795D01*
X153121490Y-91028626D01*
X153185129Y-91248389D01*
X153289176Y-91452152D01*
X153429876Y-91632564D01*
X153602152Y-91783116D01*
X153799790Y-91898375D01*
X154015657Y-91974181D01*
X154241964Y-92007801D01*
X154470546Y-91998021D01*
X154693153Y-91945194D01*
X154901756Y-91851226D01*
X155088826Y-91719506D01*
X155247614Y-91554789D01*
X155372389Y-91363017D01*
X155458651Y-91151112D01*
X155503318Y-90926557D01*
X155504137Y-90691811D01*
X155461039Y-90466950D01*
X155376259Y-90254447D01*
X155252825Y-90061810D01*
X155095192Y-89895988D01*
X154909046Y-89762966D01*
X154701103Y-89667544D01*
X154478870Y-89613164D01*
X154250363Y-89601788D01*
X154023826Y-89633827D01*
X153807435Y-89708126D01*
X153608998Y-89822001D01*
X153435674Y-89971347D01*
X153293718Y-90150772D01*
X153188251Y-90353804D01*
X153123080Y-90573117D01*
X153100556Y-90800795D01*
X152233496Y-90800795D01*
X152083063Y-90750170D01*
X151931514Y-90727791D01*
X152153153Y-90675194D01*
X152361756Y-90581226D01*
X152548826Y-90449506D01*
X152707614Y-90284789D01*
X152832389Y-90093017D01*
X152918651Y-89881112D01*
X152963318Y-89656557D01*
X152964137Y-89421811D01*
X152921039Y-89196950D01*
X152836259Y-88984447D01*
X152712825Y-88791810D01*
X152555192Y-88625988D01*
X152369046Y-88492966D01*
X152161103Y-88397544D01*
X151938870Y-88343164D01*
X151710363Y-88331788D01*
X151483826Y-88363827D01*
X151267435Y-88438126D01*
X151068998Y-88552001D01*
X150895674Y-88701347D01*
X150753718Y-88880772D01*
X150648251Y-89083804D01*
X150583080Y-89303117D01*
X150560556Y-89530795D01*
X149474000Y-89530795D01*
X149474000Y-88260795D01*
X153100556Y-88260795D01*
X153121490Y-88488626D01*
X153185129Y-88708389D01*
X153289176Y-88912152D01*
X153429876Y-89092564D01*
X153602152Y-89243116D01*
X153799790Y-89358375D01*
X154015657Y-89434181D01*
X154241964Y-89467801D01*
X154470546Y-89458021D01*
X154693153Y-89405194D01*
X154901756Y-89311226D01*
X155088826Y-89179506D01*
X155247614Y-89014789D01*
X155372389Y-88823017D01*
X155458651Y-88611112D01*
X155503318Y-88386557D01*
X155504137Y-88151811D01*
X155461039Y-87926950D01*
X155376259Y-87714447D01*
X155252825Y-87521810D01*
X155095192Y-87355988D01*
X154909046Y-87222966D01*
X154701103Y-87127544D01*
X154478870Y-87073164D01*
X154250363Y-87061788D01*
X154023826Y-87093827D01*
X153807435Y-87168126D01*
X153608998Y-87282001D01*
X153435674Y-87431347D01*
X153293718Y-87610772D01*
X153188251Y-87813804D01*
X153123080Y-88033117D01*
X153100556Y-88260795D01*
X149474000Y-88260795D01*
X149474000Y-86990795D01*
X150560556Y-86990795D01*
X150581490Y-87218626D01*
X150645129Y-87438389D01*
X150749176Y-87642152D01*
X150889876Y-87822564D01*
X151062152Y-87973116D01*
X151259790Y-88088375D01*
X151475657Y-88164181D01*
X151701964Y-88197801D01*
X151930546Y-88188021D01*
X152153153Y-88135194D01*
X152361756Y-88041226D01*
X152548826Y-87909506D01*
X152707614Y-87744789D01*
X152832389Y-87553017D01*
X152918651Y-87341112D01*
X152963318Y-87116557D01*
X152964137Y-86881811D01*
X152921039Y-86656950D01*
X152836259Y-86444447D01*
X152712825Y-86251810D01*
X152555192Y-86085988D01*
X152369046Y-85952966D01*
X152161103Y-85857544D01*
X151938870Y-85803164D01*
X151710363Y-85791788D01*
X151483826Y-85823827D01*
X151267435Y-85898126D01*
X151068998Y-86012001D01*
X150895674Y-86161347D01*
X150753718Y-86340772D01*
X150648251Y-86543804D01*
X150583080Y-86763117D01*
X150560556Y-86990795D01*
X149474000Y-86990795D01*
X149474000Y-84450795D01*
X150560556Y-84450795D01*
X150581490Y-84678626D01*
X150645129Y-84898389D01*
X150749176Y-85102152D01*
X150889876Y-85282564D01*
X151062152Y-85433116D01*
X151259790Y-85548375D01*
X151475657Y-85624181D01*
X151701964Y-85657801D01*
X151930546Y-85648021D01*
X152153153Y-85595194D01*
X152361756Y-85501226D01*
X152548826Y-85369506D01*
X152707614Y-85204789D01*
X152805725Y-85054000D01*
X153306987Y-85054000D01*
X153293718Y-85070772D01*
X153188251Y-85273804D01*
X153123080Y-85493117D01*
X153100556Y-85720795D01*
X153121490Y-85948626D01*
X153185129Y-86168389D01*
X153289176Y-86372152D01*
X153429876Y-86552564D01*
X153602152Y-86703116D01*
X153799790Y-86818375D01*
X154015657Y-86894181D01*
X154241964Y-86927801D01*
X154470546Y-86918021D01*
X154693153Y-86865194D01*
X154901756Y-86771226D01*
X155088826Y-86639506D01*
X155247614Y-86474789D01*
X155372389Y-86283017D01*
X155458651Y-86071112D01*
X155503318Y-85846557D01*
X155504137Y-85611811D01*
X155461039Y-85386950D01*
X155376259Y-85174447D01*
X155299081Y-85054000D01*
X156106886Y-85054000D01*
X156201001Y-85148116D01*
X156201000Y-87016531D01*
X155928030Y-87289502D01*
X155864615Y-87342712D01*
X155823223Y-87414407D01*
X155775740Y-87482219D01*
X155768524Y-87509150D01*
X155754588Y-87533287D01*
X155740215Y-87614799D01*
X155718785Y-87694776D01*
X155726001Y-87777250D01*
X155726000Y-89306554D01*
X155653502Y-89415055D01*
X155619143Y-89587787D01*
X155619143Y-90512213D01*
X155653502Y-90684945D01*
X155758265Y-90841735D01*
X155915055Y-90946498D01*
X156087787Y-90980857D01*
X156315267Y-90980857D01*
X156158391Y-91112491D01*
X156046953Y-91305508D01*
X156010163Y-91514151D01*
X156010163Y-91770000D01*
X156920000Y-91770000D01*
X156920000Y-90885163D01*
X156876740Y-90885163D01*
X156941735Y-90841735D01*
X157046498Y-90684945D01*
X157080857Y-90512213D01*
X157080857Y-89587787D01*
X157046498Y-89415055D01*
X156974000Y-89306554D01*
X156974000Y-88321113D01*
X157772030Y-89119143D01*
X157587787Y-89119143D01*
X157415055Y-89153502D01*
X157258265Y-89258265D01*
X157153502Y-89415055D01*
X157119143Y-89587787D01*
X157119143Y-90512213D01*
X157153502Y-90684945D01*
X157258265Y-90841735D01*
X157323260Y-90885163D01*
X157180000Y-90885163D01*
X157180000Y-92914837D01*
X157466325Y-92914837D01*
X157766566Y-92834388D01*
X157929453Y-92697709D01*
X157965055Y-92721498D01*
X158137787Y-92755857D01*
X158962213Y-92755857D01*
X159134945Y-92721498D01*
X159291735Y-92616735D01*
X159358398Y-92516967D01*
X159385188Y-92509789D01*
X159466712Y-92495413D01*
X159490856Y-92481474D01*
X159517782Y-92474259D01*
X159585580Y-92426786D01*
X159657287Y-92385386D01*
X159678756Y-92359800D01*
X159677654Y-92363394D01*
X159674377Y-92613723D01*
X159730663Y-92816000D01*
X159387236Y-92816000D01*
X159304777Y-92808785D01*
X159224812Y-92830211D01*
X159143287Y-92844587D01*
X159119144Y-92858526D01*
X159092219Y-92865740D01*
X159024407Y-92913222D01*
X158952713Y-92954614D01*
X158899494Y-93018038D01*
X158078031Y-93839501D01*
X158014615Y-93892712D01*
X157973223Y-93964407D01*
X157925740Y-94032219D01*
X157918524Y-94059150D01*
X157904588Y-94083287D01*
X157890215Y-94164799D01*
X157868785Y-94244776D01*
X157876001Y-94327250D01*
X157876000Y-101129143D01*
X156337787Y-101129143D01*
X156165055Y-101163502D01*
X156008265Y-101268265D01*
X155903502Y-101425055D01*
X155869143Y-101597787D01*
X155869143Y-103322213D01*
X155903502Y-103494945D01*
X156008265Y-103651735D01*
X156165055Y-103756498D01*
X156337787Y-103790857D01*
X157876000Y-103790857D01*
X157876000Y-104597764D01*
X157868785Y-104680224D01*
X157890213Y-104760194D01*
X157904587Y-104841712D01*
X157918526Y-104865855D01*
X157925740Y-104892780D01*
X157973219Y-104960589D01*
X158014614Y-105032287D01*
X158078038Y-105085506D01*
X159744143Y-106751612D01*
X159744143Y-107162213D01*
X159778502Y-107334945D01*
X159883265Y-107491735D01*
X160040055Y-107596498D01*
X160212787Y-107630857D01*
X160987213Y-107630857D01*
X161159945Y-107596498D01*
X161316735Y-107491735D01*
X161395403Y-107374000D01*
X162056553Y-107374000D01*
X162165055Y-107446499D01*
X162176000Y-107448676D01*
X162176000Y-107572764D01*
X162168785Y-107655224D01*
X162190213Y-107735194D01*
X162204587Y-107816712D01*
X162218526Y-107840855D01*
X162225740Y-107867780D01*
X162273219Y-107935589D01*
X162314614Y-108007287D01*
X162378038Y-108060506D01*
X163039501Y-108721970D01*
X163092713Y-108785386D01*
X163164405Y-108826777D01*
X163232217Y-108874259D01*
X163259144Y-108881474D01*
X163283287Y-108895413D01*
X163364809Y-108909788D01*
X163444775Y-108931215D01*
X163527235Y-108924000D01*
X163651324Y-108924000D01*
X163653501Y-108934945D01*
X163758265Y-109091735D01*
X163915055Y-109196498D01*
X164087787Y-109230857D01*
X164612213Y-109230857D01*
X164784945Y-109196498D01*
X164941735Y-109091735D01*
X165046498Y-108934945D01*
X165080857Y-108762213D01*
X165080857Y-107837787D01*
X165046498Y-107665055D01*
X164941735Y-107508265D01*
X164784945Y-107403502D01*
X164612213Y-107369143D01*
X164087787Y-107369143D01*
X163915055Y-107403502D01*
X163758265Y-107508265D01*
X163691161Y-107608693D01*
X163491307Y-107408839D01*
X163591735Y-107341735D01*
X163696498Y-107184945D01*
X163730857Y-107012213D01*
X163730857Y-106487787D01*
X163696498Y-106315055D01*
X163591735Y-106158265D01*
X163478907Y-106082876D01*
X163566566Y-106059388D01*
X163741609Y-105912509D01*
X163853047Y-105719492D01*
X163913615Y-105376000D01*
X161672563Y-105376000D01*
X161790612Y-105816566D01*
X161937491Y-105991609D01*
X162109263Y-106090781D01*
X162056554Y-106126000D01*
X161395403Y-106126000D01*
X161393801Y-106123602D01*
X161466609Y-106062509D01*
X161578047Y-105869492D01*
X161614837Y-105660849D01*
X161614837Y-105380000D01*
X160470000Y-105380000D01*
X160470000Y-105124000D01*
X161686385Y-105124000D01*
X162674000Y-105124000D01*
X162674000Y-104360163D01*
X162926000Y-104360163D01*
X162926000Y-105124000D01*
X163927437Y-105124000D01*
X163809388Y-104683435D01*
X163662509Y-104508391D01*
X163469492Y-104396953D01*
X163260849Y-104360163D01*
X162926000Y-104360163D01*
X162674000Y-104360163D01*
X162333675Y-104360163D01*
X162033435Y-104440612D01*
X161858391Y-104587491D01*
X161746953Y-104780508D01*
X161686385Y-105124000D01*
X160470000Y-105124000D01*
X160470000Y-104210163D01*
X160730000Y-104210163D01*
X160730000Y-105120000D01*
X161614837Y-105120000D01*
X161614837Y-104833675D01*
X161534388Y-104533435D01*
X161387509Y-104358391D01*
X161194492Y-104246953D01*
X160985849Y-104210163D01*
X160730000Y-104210163D01*
X160470000Y-104210163D01*
X160208675Y-104210163D01*
X159908435Y-104290612D01*
X159733391Y-104437491D01*
X159621953Y-104630508D01*
X159586880Y-104829412D01*
X159124000Y-104366532D01*
X159124000Y-104139151D01*
X164585163Y-104139151D01*
X164585163Y-104420000D01*
X165470000Y-104420000D01*
X165470000Y-103510163D01*
X165730000Y-103510163D01*
X165730000Y-104420000D01*
X166614837Y-104420000D01*
X166614837Y-104133675D01*
X166534388Y-103833435D01*
X166387509Y-103658391D01*
X166194492Y-103546953D01*
X165985849Y-103510163D01*
X165730000Y-103510163D01*
X165470000Y-103510163D01*
X165208675Y-103510163D01*
X164908435Y-103590612D01*
X164733391Y-103737491D01*
X164621953Y-103930508D01*
X164585163Y-104139151D01*
X159124000Y-104139151D01*
X159124000Y-103632224D01*
X159214058Y-103681223D01*
X159445415Y-103756619D01*
X159686639Y-103788591D01*
X159929648Y-103776068D01*
X160166308Y-103719470D01*
X160388688Y-103620691D01*
X160589346Y-103483042D01*
X160761557Y-103311130D01*
X160899558Y-103110713D01*
X160923530Y-103056998D01*
X160972887Y-103169705D01*
X161111153Y-103379792D01*
X161282838Y-103563582D01*
X161483036Y-103715815D01*
X161706021Y-103832141D01*
X161945418Y-103909234D01*
X162150000Y-103938532D01*
X162150000Y-102590000D01*
X162410000Y-102590000D01*
X162410000Y-103945205D01*
X162692466Y-103889020D01*
X162927343Y-103799094D01*
X163143711Y-103670878D01*
X163335383Y-103508041D01*
X163496879Y-103315237D01*
X163623580Y-103097979D01*
X163711864Y-102862479D01*
X163764089Y-102590000D01*
X162410000Y-102590000D01*
X162150000Y-102590000D01*
X162150000Y-102330000D01*
X162410000Y-102330000D01*
X163761197Y-102330000D01*
X163719979Y-102087596D01*
X163636646Y-101850299D01*
X163514522Y-101630435D01*
X163357100Y-101434291D01*
X163168881Y-101267476D01*
X162955245Y-101134757D01*
X162722302Y-101039932D01*
X162410000Y-100970982D01*
X162410000Y-102330000D01*
X162150000Y-102330000D01*
X162150000Y-100982848D01*
X161975842Y-101004077D01*
X161734883Y-101076140D01*
X161509510Y-101187770D01*
X161306168Y-101335778D01*
X161130671Y-101515930D01*
X160988037Y-101723077D01*
X160924843Y-101859527D01*
X160806091Y-101665360D01*
X160643428Y-101484387D01*
X160450508Y-101336087D01*
X160233794Y-101225428D01*
X160000543Y-101156114D01*
X159758565Y-101130467D01*
X159515966Y-101149347D01*
X159280870Y-101212122D01*
X159124000Y-101286777D01*
X159124000Y-94558468D01*
X159618468Y-94064000D01*
X161039143Y-94064000D01*
X161039143Y-94552213D01*
X161073502Y-94724945D01*
X161178265Y-94881735D01*
X161335055Y-94986498D01*
X161507787Y-95020857D01*
X162732213Y-95020857D01*
X162803279Y-95006721D01*
X162789143Y-95077787D01*
X162789143Y-96302213D01*
X162823502Y-96474945D01*
X162928265Y-96631735D01*
X163085055Y-96736498D01*
X163257787Y-96770857D01*
X163771001Y-96770857D01*
X163771000Y-99943864D01*
X163764075Y-100023011D01*
X163784641Y-100099765D01*
X163798442Y-100178031D01*
X163811823Y-100201207D01*
X163818748Y-100227051D01*
X163864324Y-100292142D01*
X163904061Y-100360969D01*
X163964937Y-100412050D01*
X167457957Y-103905071D01*
X167509031Y-103965939D01*
X167577846Y-104005669D01*
X167642947Y-104051253D01*
X167668796Y-104058179D01*
X167691969Y-104071558D01*
X167770228Y-104085357D01*
X167846988Y-104105925D01*
X167926138Y-104099000D01*
X169047403Y-104099000D01*
X169027654Y-104163394D01*
X169024377Y-104413723D01*
X169041706Y-104476000D01*
X168827235Y-104476000D01*
X168744775Y-104468785D01*
X168664805Y-104490213D01*
X168583287Y-104504587D01*
X168559144Y-104518526D01*
X168532219Y-104525740D01*
X168464407Y-104573222D01*
X168392713Y-104614614D01*
X168339494Y-104678038D01*
X168158036Y-104859496D01*
X168094614Y-104912713D01*
X168053219Y-104984411D01*
X168005740Y-105052220D01*
X167998526Y-105079145D01*
X167984587Y-105103288D01*
X167970213Y-105184806D01*
X167948785Y-105264776D01*
X167956000Y-105347239D01*
X167956000Y-105381379D01*
X167895055Y-105393502D01*
X167738265Y-105498265D01*
X167633502Y-105655055D01*
X167599143Y-105827787D01*
X167599143Y-106016000D01*
X166455857Y-106016000D01*
X166455857Y-105637787D01*
X166421498Y-105465054D01*
X166393801Y-105423602D01*
X166466609Y-105362509D01*
X166578047Y-105169492D01*
X166614837Y-104960849D01*
X166614837Y-104680000D01*
X164585163Y-104680000D01*
X164585163Y-104966325D01*
X164665612Y-105266566D01*
X164802291Y-105429453D01*
X164778502Y-105465055D01*
X164744143Y-105637787D01*
X164744143Y-106462213D01*
X164778502Y-106634945D01*
X164883265Y-106791735D01*
X165040055Y-106896498D01*
X165212787Y-106930857D01*
X165598388Y-106930857D01*
X165729501Y-107061970D01*
X165782713Y-107125386D01*
X165854409Y-107166779D01*
X165922219Y-107214260D01*
X165949144Y-107221474D01*
X165973287Y-107235413D01*
X166054805Y-107249787D01*
X166134775Y-107271215D01*
X166217238Y-107264000D01*
X167599143Y-107264000D01*
X167599143Y-107452213D01*
X167633502Y-107624945D01*
X167667616Y-107676000D01*
X166548676Y-107676000D01*
X166546499Y-107665055D01*
X166441735Y-107508265D01*
X166284945Y-107403502D01*
X166112213Y-107369143D01*
X165587787Y-107369143D01*
X165415055Y-107403502D01*
X165258265Y-107508265D01*
X165153502Y-107665055D01*
X165119143Y-107837787D01*
X165119143Y-108762213D01*
X165153502Y-108934945D01*
X165258265Y-109091735D01*
X165415055Y-109196498D01*
X165587787Y-109230857D01*
X166112213Y-109230857D01*
X166284945Y-109196498D01*
X166441735Y-109091735D01*
X166546499Y-108934945D01*
X166548676Y-108924000D01*
X168172764Y-108924000D01*
X168255224Y-108931215D01*
X168335188Y-108909789D01*
X168416712Y-108895413D01*
X168440856Y-108881474D01*
X168467782Y-108874259D01*
X168535580Y-108826786D01*
X168607287Y-108785386D01*
X168660505Y-108721963D01*
X169001970Y-108380498D01*
X169065386Y-108327288D01*
X169106784Y-108255583D01*
X169154258Y-108187783D01*
X169161473Y-108160860D01*
X169175414Y-108136711D01*
X169189788Y-108055189D01*
X169211215Y-107975225D01*
X169204504Y-107898521D01*
X169264945Y-107886498D01*
X169421735Y-107781735D01*
X169526498Y-107624945D01*
X169560857Y-107452213D01*
X169560857Y-105827787D01*
X169540212Y-105724000D01*
X170819788Y-105724000D01*
X170799143Y-105827787D01*
X170799143Y-107452213D01*
X170833502Y-107624945D01*
X170938265Y-107781735D01*
X171095055Y-107886498D01*
X171267787Y-107920857D01*
X172292213Y-107920857D01*
X172464945Y-107886498D01*
X172621735Y-107781735D01*
X172726498Y-107624945D01*
X172760857Y-107452213D01*
X172760857Y-105827787D01*
X172740212Y-105724000D01*
X172886606Y-105724000D01*
X173010085Y-105834597D01*
X173235954Y-105942572D01*
X173483049Y-105982814D01*
X173731507Y-105952088D01*
X173961354Y-105852862D01*
X174119143Y-105722096D01*
X174119143Y-105962213D01*
X174153502Y-106134945D01*
X174258265Y-106291735D01*
X174415055Y-106396498D01*
X174587787Y-106430857D01*
X175112213Y-106430857D01*
X175284945Y-106396498D01*
X175441735Y-106291735D01*
X175546498Y-106134945D01*
X175580857Y-105962213D01*
X175580857Y-105037787D01*
X175546498Y-104865055D01*
X175441735Y-104708265D01*
X175284945Y-104603502D01*
X175112213Y-104569143D01*
X174966257Y-104569143D01*
X174496113Y-104099000D01*
X178757694Y-104099000D01*
X178794694Y-104158674D01*
X178944608Y-104317205D01*
X179123337Y-104442351D01*
X179253586Y-104498715D01*
X179224725Y-104507760D01*
X179033893Y-104613538D01*
X178868229Y-104755530D01*
X178755392Y-104901000D01*
X177053649Y-104901000D01*
X177046499Y-104865055D01*
X176941735Y-104708265D01*
X176784945Y-104603502D01*
X176612213Y-104569143D01*
X176087787Y-104569143D01*
X175915055Y-104603502D01*
X175758265Y-104708265D01*
X175653502Y-104865055D01*
X175619143Y-105037787D01*
X175619143Y-105962213D01*
X175653502Y-106134945D01*
X175758265Y-106291735D01*
X175915055Y-106396498D01*
X176087787Y-106430857D01*
X176612213Y-106430857D01*
X176784945Y-106396498D01*
X176941735Y-106291735D01*
X177046499Y-106134945D01*
X177053649Y-106099000D01*
X178757694Y-106099000D01*
X178794694Y-106158674D01*
X178944608Y-106317205D01*
X179090192Y-106419143D01*
X179037787Y-106419143D01*
X178865055Y-106453502D01*
X178708265Y-106558265D01*
X178603502Y-106715055D01*
X178569143Y-106887787D01*
X178569143Y-108112213D01*
X178603502Y-108284945D01*
X178708265Y-108441735D01*
X178865055Y-108546498D01*
X179037787Y-108580857D01*
X180762213Y-108580857D01*
X180934945Y-108546498D01*
X181091735Y-108441735D01*
X181196498Y-108284945D01*
X181230857Y-108112213D01*
X181230857Y-108101736D01*
X181266712Y-108095413D01*
X181290856Y-108081474D01*
X181317782Y-108074259D01*
X181385580Y-108026786D01*
X181457287Y-107985386D01*
X181510506Y-107921962D01*
X182421972Y-107010497D01*
X182485386Y-106957288D01*
X182526780Y-106885591D01*
X182574260Y-106817781D01*
X182581474Y-106790856D01*
X182595413Y-106766713D01*
X182609789Y-106685189D01*
X182631215Y-106605224D01*
X182624000Y-106522762D01*
X182624000Y-95227235D01*
X182631215Y-95144775D01*
X182609788Y-95064811D01*
X182595414Y-94983289D01*
X182581473Y-94959140D01*
X182574258Y-94932217D01*
X182526784Y-94864416D01*
X182485386Y-94792713D01*
X182421968Y-94739499D01*
X182245227Y-94562758D01*
X182331507Y-94552088D01*
X182561354Y-94452862D01*
X182716845Y-94324000D01*
X183772764Y-94324000D01*
X183855224Y-94331215D01*
X183935188Y-94309789D01*
X184016712Y-94295413D01*
X184040856Y-94281474D01*
X184067782Y-94274259D01*
X184135580Y-94226786D01*
X184207287Y-94185386D01*
X184260505Y-94121963D01*
X184621972Y-93760497D01*
X184685386Y-93707288D01*
X184726777Y-93635594D01*
X184774259Y-93567783D01*
X184781474Y-93540856D01*
X184795413Y-93516713D01*
X184809788Y-93435191D01*
X184831215Y-93355225D01*
X184824000Y-93272765D01*
X184824000Y-88927236D01*
X184831215Y-88844776D01*
X184809789Y-88764812D01*
X184795413Y-88683288D01*
X184781474Y-88659144D01*
X184774259Y-88632218D01*
X184726782Y-88564416D01*
X184685386Y-88492713D01*
X184621957Y-88439490D01*
X184455505Y-88273037D01*
X184402287Y-88209614D01*
X184330580Y-88168214D01*
X184262782Y-88120741D01*
X184235856Y-88113526D01*
X184211712Y-88099587D01*
X184130188Y-88085211D01*
X184050224Y-88063785D01*
X183967762Y-88071000D01*
X183428585Y-88071000D01*
X183416735Y-88053265D01*
X183259945Y-87948502D01*
X183087213Y-87914143D01*
X181512787Y-87914143D01*
X181340055Y-87948502D01*
X181183265Y-88053265D01*
X181078502Y-88210055D01*
X181064237Y-88281768D01*
X179872891Y-87090423D01*
X179874385Y-86976330D01*
X179873031Y-86971686D01*
X180031507Y-86952088D01*
X180261354Y-86852862D01*
X180454114Y-86693114D01*
X180594289Y-86485686D01*
X180670848Y-86246516D01*
X180674385Y-85976330D01*
X180604113Y-85735238D01*
X180469415Y-85524212D01*
X180280904Y-85359473D01*
X180053733Y-85254264D01*
X179806164Y-85217044D01*
X179558100Y-85250804D01*
X179329482Y-85352830D01*
X179184503Y-85476000D01*
X178527235Y-85476000D01*
X178444775Y-85468785D01*
X178364805Y-85490213D01*
X178283287Y-85504587D01*
X178259144Y-85518526D01*
X178232219Y-85525740D01*
X178196045Y-85551069D01*
X179555073Y-84192041D01*
X179615939Y-84140969D01*
X179655674Y-84072146D01*
X179701252Y-84007052D01*
X179708177Y-83981208D01*
X179721558Y-83958032D01*
X179735359Y-83879766D01*
X179755925Y-83803012D01*
X179749000Y-83723862D01*
X179749000Y-83280862D01*
X179846499Y-83134945D01*
X179848676Y-83124000D01*
X180651324Y-83124000D01*
X180653501Y-83134945D01*
X180726001Y-83243448D01*
X180726000Y-84004597D01*
X180608265Y-84083265D01*
X180503502Y-84240055D01*
X180469143Y-84412787D01*
X180469143Y-85187213D01*
X180503502Y-85359945D01*
X180608265Y-85516735D01*
X180765055Y-85621498D01*
X180937787Y-85655857D01*
X181762213Y-85655857D01*
X181934946Y-85621498D01*
X181976398Y-85593801D01*
X182037491Y-85666609D01*
X182230508Y-85778047D01*
X182439151Y-85814837D01*
X182720000Y-85814837D01*
X182720000Y-84930000D01*
X182980000Y-84930000D01*
X182980000Y-85814837D01*
X183266325Y-85814837D01*
X183566566Y-85734388D01*
X183741609Y-85587509D01*
X183853047Y-85394492D01*
X183889837Y-85185849D01*
X183889837Y-84930000D01*
X182980000Y-84930000D01*
X182720000Y-84930000D01*
X182720000Y-83785163D01*
X182980000Y-83785163D01*
X182980000Y-84670000D01*
X183889837Y-84670000D01*
X183889837Y-84408675D01*
X183809388Y-84108435D01*
X183662509Y-83933391D01*
X183469492Y-83821953D01*
X183260849Y-83785163D01*
X182980000Y-83785163D01*
X182720000Y-83785163D01*
X182433675Y-83785163D01*
X182133435Y-83865612D01*
X181974000Y-83999394D01*
X181974000Y-83243446D01*
X182017124Y-83178907D01*
X182040612Y-83266566D01*
X182187491Y-83441609D01*
X182380508Y-83553047D01*
X182724000Y-83613615D01*
X182724000Y-82626000D01*
X182976000Y-82626000D01*
X182976000Y-83627437D01*
X183416566Y-83509388D01*
X183591609Y-83362509D01*
X183703047Y-83169492D01*
X183739837Y-82960849D01*
X183739837Y-82626000D01*
X182976000Y-82626000D01*
X182724000Y-82626000D01*
X182724000Y-82374000D01*
X182976000Y-82374000D01*
X183739837Y-82374000D01*
X183739837Y-82033675D01*
X183659388Y-81733435D01*
X183512509Y-81558391D01*
X183319492Y-81446953D01*
X182976000Y-81386385D01*
X182976000Y-82374000D01*
X182724000Y-82374000D01*
X182724000Y-81372563D01*
X182283435Y-81490612D01*
X182108391Y-81637491D01*
X182009219Y-81809263D01*
X181941735Y-81708265D01*
X181784945Y-81603502D01*
X181612213Y-81569143D01*
X181087787Y-81569143D01*
X180915055Y-81603502D01*
X180758265Y-81708265D01*
X180653501Y-81865055D01*
X180651324Y-81876000D01*
X179848676Y-81876000D01*
X179846499Y-81865055D01*
X179741735Y-81708265D01*
X179584945Y-81603502D01*
X179412213Y-81569143D01*
X178887787Y-81569143D01*
X178715055Y-81603502D01*
X178558265Y-81708265D01*
X178453502Y-81865055D01*
X178419143Y-82037787D01*
X178419143Y-82962213D01*
X178453502Y-83134945D01*
X178551000Y-83280863D01*
X178551000Y-83501886D01*
X174818895Y-87233992D01*
X174706164Y-87217044D01*
X174458100Y-87250804D01*
X174229482Y-87352830D01*
X174038689Y-87514922D01*
X173901059Y-87724047D01*
X173831928Y-87949460D01*
X173724000Y-87841532D01*
X173724000Y-81637787D01*
X173869143Y-81637787D01*
X173869143Y-83362213D01*
X173903502Y-83534945D01*
X174008265Y-83691735D01*
X174165055Y-83796498D01*
X174337787Y-83830857D01*
X176062213Y-83830857D01*
X176234945Y-83796498D01*
X176391735Y-83691735D01*
X176496498Y-83534945D01*
X176530857Y-83362213D01*
X176530857Y-83124000D01*
X176951324Y-83124000D01*
X176953501Y-83134945D01*
X177058265Y-83291735D01*
X177215055Y-83396498D01*
X177387787Y-83430857D01*
X177912213Y-83430857D01*
X178084945Y-83396498D01*
X178241735Y-83291735D01*
X178346498Y-83134945D01*
X178380857Y-82962213D01*
X178380857Y-82037787D01*
X178346498Y-81865055D01*
X178241735Y-81708265D01*
X178084945Y-81603502D01*
X177912213Y-81569143D01*
X177387787Y-81569143D01*
X177215055Y-81603502D01*
X177058265Y-81708265D01*
X176953501Y-81865055D01*
X176951324Y-81876000D01*
X176530857Y-81876000D01*
X176530857Y-81637787D01*
X176496498Y-81465055D01*
X176391735Y-81308265D01*
X176234945Y-81203502D01*
X176062213Y-81169143D01*
X174337787Y-81169143D01*
X174165055Y-81203502D01*
X174008265Y-81308265D01*
X173903502Y-81465055D01*
X173869143Y-81637787D01*
X173724000Y-81637787D01*
X173724000Y-79424000D01*
X176510683Y-79424000D01*
X176593143Y-79431215D01*
X176659823Y-79413348D01*
X176713473Y-79506461D01*
X176871344Y-79691630D01*
X177060315Y-79844929D01*
X177274058Y-79961223D01*
X177505415Y-80036619D01*
X177746639Y-80068591D01*
X177989648Y-80056068D01*
X178226308Y-79999470D01*
X178448688Y-79900691D01*
X178649346Y-79763042D01*
X178821557Y-79591130D01*
X178909095Y-79464000D01*
X181326415Y-79464000D01*
X181338265Y-79481735D01*
X181495055Y-79586498D01*
X181667787Y-79620857D01*
X182492213Y-79620857D01*
X182664945Y-79586498D01*
X182821735Y-79481735D01*
X182880000Y-79394535D01*
X182938265Y-79481735D01*
X183095055Y-79586498D01*
X183267787Y-79620857D01*
X184092213Y-79620857D01*
X184264945Y-79586498D01*
X184421735Y-79481735D01*
X184433585Y-79464000D01*
X185303006Y-79464000D01*
X185348265Y-79531735D01*
X185505055Y-79636498D01*
X185677787Y-79670857D01*
X186202213Y-79670857D01*
X186374945Y-79636498D01*
X186531735Y-79531735D01*
X186607124Y-79418907D01*
X186630612Y-79506566D01*
X186777491Y-79681609D01*
X186970508Y-79793047D01*
X187314000Y-79853615D01*
X187314000Y-78866000D01*
X187566000Y-78866000D01*
X187566000Y-79867437D01*
X188006566Y-79749388D01*
X188181609Y-79602509D01*
X188293047Y-79409492D01*
X188329837Y-79200849D01*
X188329837Y-78866000D01*
X187566000Y-78866000D01*
X187314000Y-78866000D01*
X187314000Y-78614000D01*
X187566000Y-78614000D01*
X188329837Y-78614000D01*
X188329837Y-78273675D01*
X188249388Y-77973435D01*
X188102509Y-77798391D01*
X187909492Y-77686953D01*
X187566000Y-77626385D01*
X187566000Y-78614000D01*
X187314000Y-78614000D01*
X187314000Y-77612563D01*
X186873435Y-77730612D01*
X186698391Y-77877491D01*
X186599219Y-78049263D01*
X186531735Y-77948265D01*
X186374945Y-77843502D01*
X186202213Y-77809143D01*
X185677787Y-77809143D01*
X185505055Y-77843502D01*
X185348265Y-77948265D01*
X185303006Y-78016000D01*
X184433585Y-78016000D01*
X184421735Y-77998265D01*
X184264945Y-77893502D01*
X184092213Y-77859143D01*
X183267787Y-77859143D01*
X183095055Y-77893502D01*
X182938265Y-77998265D01*
X182880000Y-78085465D01*
X182821735Y-77998265D01*
X182664945Y-77893502D01*
X182492213Y-77859143D01*
X181667787Y-77859143D01*
X181495055Y-77893502D01*
X181338265Y-77998265D01*
X181326415Y-78016000D01*
X178909295Y-78016000D01*
X178866091Y-77945360D01*
X178703428Y-77764387D01*
X178510508Y-77616087D01*
X178293794Y-77505428D01*
X178178009Y-77471021D01*
X178226308Y-77459470D01*
X178448688Y-77360691D01*
X178649346Y-77223042D01*
X178821557Y-77051130D01*
X178909095Y-76924000D01*
X181326415Y-76924000D01*
X181338265Y-76941735D01*
X181495055Y-77046498D01*
X181667787Y-77080857D01*
X182492213Y-77080857D01*
X182664945Y-77046498D01*
X182821735Y-76941735D01*
X182880000Y-76854535D01*
X182938265Y-76941735D01*
X183095055Y-77046498D01*
X183267787Y-77080857D01*
X184092213Y-77080857D01*
X184264945Y-77046498D01*
X184421735Y-76941735D01*
X184433585Y-76924000D01*
X185303006Y-76924000D01*
X185348265Y-76991735D01*
X185505055Y-77096498D01*
X185677787Y-77130857D01*
X186202213Y-77130857D01*
X186374945Y-77096498D01*
X186531735Y-76991735D01*
X186607124Y-76878907D01*
X186630612Y-76966566D01*
X186777491Y-77141609D01*
X186970508Y-77253047D01*
X187314000Y-77313615D01*
X187314000Y-76326000D01*
X187566000Y-76326000D01*
X187566000Y-77327437D01*
X188006566Y-77209388D01*
X188181609Y-77062509D01*
X188293047Y-76869492D01*
X188329837Y-76660849D01*
X188329837Y-76326000D01*
X187566000Y-76326000D01*
X187314000Y-76326000D01*
X187314000Y-76074000D01*
X187566000Y-76074000D01*
X188329837Y-76074000D01*
X188329837Y-75733675D01*
X188249388Y-75433435D01*
X188102509Y-75258391D01*
X187909492Y-75146953D01*
X187566000Y-75086385D01*
X187566000Y-76074000D01*
X187314000Y-76074000D01*
X187314000Y-75072563D01*
X186873435Y-75190612D01*
X186698391Y-75337491D01*
X186599219Y-75509263D01*
X186531735Y-75408265D01*
X186374945Y-75303502D01*
X186202213Y-75269143D01*
X185677787Y-75269143D01*
X185505055Y-75303502D01*
X185348265Y-75408265D01*
X185303006Y-75476000D01*
X184433585Y-75476000D01*
X184421735Y-75458265D01*
X184264945Y-75353502D01*
X184092213Y-75319143D01*
X183267787Y-75319143D01*
X183095055Y-75353502D01*
X182938265Y-75458265D01*
X182880000Y-75545465D01*
X182821735Y-75458265D01*
X182664945Y-75353502D01*
X182492213Y-75319143D01*
X181667787Y-75319143D01*
X181495055Y-75353502D01*
X181338265Y-75458265D01*
X181326415Y-75476000D01*
X178909295Y-75476000D01*
X178866091Y-75405360D01*
X178703428Y-75224387D01*
X178510508Y-75076087D01*
X178293794Y-74965428D01*
X178178009Y-74931021D01*
X178226308Y-74919470D01*
X178448688Y-74820691D01*
X178649346Y-74683042D01*
X178821557Y-74511130D01*
X178909095Y-74384000D01*
X181326415Y-74384000D01*
X181338265Y-74401735D01*
X181495055Y-74506498D01*
X181667787Y-74540857D01*
X182492213Y-74540857D01*
X182664945Y-74506498D01*
X182821735Y-74401735D01*
X182880000Y-74314535D01*
X182938265Y-74401735D01*
X183095055Y-74506498D01*
X183267787Y-74540857D01*
X184092213Y-74540857D01*
X184264945Y-74506498D01*
X184421735Y-74401735D01*
X184433585Y-74384000D01*
X185303006Y-74384000D01*
X185348265Y-74451735D01*
X185505055Y-74556498D01*
X185677787Y-74590857D01*
X186202213Y-74590857D01*
X186374945Y-74556498D01*
X186531735Y-74451735D01*
X186607124Y-74338907D01*
X186630612Y-74426566D01*
X186777491Y-74601609D01*
X186970508Y-74713047D01*
X187314000Y-74773615D01*
X187314000Y-73786000D01*
X187566000Y-73786000D01*
X187566000Y-74787437D01*
X188006566Y-74669388D01*
X188181609Y-74522509D01*
X188293047Y-74329492D01*
X188329837Y-74120849D01*
X188329837Y-73786000D01*
X187566000Y-73786000D01*
X187314000Y-73786000D01*
X187314000Y-73534000D01*
X187566000Y-73534000D01*
X188329837Y-73534000D01*
X188329837Y-73193675D01*
X188249388Y-72893435D01*
X188102509Y-72718391D01*
X187909492Y-72606953D01*
X187566000Y-72546385D01*
X187566000Y-73534000D01*
X187314000Y-73534000D01*
X187314000Y-72532563D01*
X186873435Y-72650612D01*
X186698391Y-72797491D01*
X186599219Y-72969263D01*
X186531735Y-72868265D01*
X186374945Y-72763502D01*
X186202213Y-72729143D01*
X185677787Y-72729143D01*
X185505055Y-72763502D01*
X185348265Y-72868265D01*
X185303006Y-72936000D01*
X184433585Y-72936000D01*
X184421735Y-72918265D01*
X184264945Y-72813502D01*
X184092213Y-72779143D01*
X183267787Y-72779143D01*
X183095055Y-72813502D01*
X182938265Y-72918265D01*
X182880000Y-73005465D01*
X182821735Y-72918265D01*
X182664945Y-72813502D01*
X182492213Y-72779143D01*
X181667787Y-72779143D01*
X181495055Y-72813502D01*
X181338265Y-72918265D01*
X181326415Y-72936000D01*
X178909295Y-72936000D01*
X178866091Y-72865360D01*
X178703428Y-72684387D01*
X178510508Y-72536087D01*
X178293794Y-72425428D01*
X178178009Y-72391021D01*
X178226308Y-72379470D01*
X178448688Y-72280691D01*
X178649346Y-72143042D01*
X178821557Y-71971130D01*
X178909095Y-71844000D01*
X181326415Y-71844000D01*
X181338265Y-71861735D01*
X181495055Y-71966498D01*
X181667787Y-72000857D01*
X182492213Y-72000857D01*
X182664945Y-71966498D01*
X182821735Y-71861735D01*
X182880000Y-71774535D01*
X182938265Y-71861735D01*
X183095055Y-71966498D01*
X183267787Y-72000857D01*
X184092213Y-72000857D01*
X184264945Y-71966498D01*
X184421735Y-71861735D01*
X184433585Y-71844000D01*
X185303006Y-71844000D01*
X185348265Y-71911735D01*
X185505055Y-72016498D01*
X185677787Y-72050857D01*
X186202213Y-72050857D01*
X186374945Y-72016498D01*
X186531735Y-71911735D01*
X186607124Y-71798907D01*
X186630612Y-71886566D01*
X186777491Y-72061609D01*
X186970508Y-72173047D01*
X187314000Y-72233615D01*
X187314000Y-71246000D01*
X187566000Y-71246000D01*
X187566000Y-72247437D01*
X188006566Y-72129388D01*
X188181609Y-71982509D01*
X188293047Y-71789492D01*
X188329837Y-71580849D01*
X188329837Y-71246000D01*
X187566000Y-71246000D01*
X187314000Y-71246000D01*
X187314000Y-70994000D01*
X187566000Y-70994000D01*
X188329837Y-70994000D01*
X188329837Y-70653675D01*
X188249388Y-70353435D01*
X188102509Y-70178391D01*
X187909492Y-70066953D01*
X187566000Y-70006385D01*
X187566000Y-70994000D01*
X187314000Y-70994000D01*
X187314000Y-69992563D01*
X186873435Y-70110612D01*
X186698391Y-70257491D01*
X186599219Y-70429263D01*
X186531735Y-70328265D01*
X186374945Y-70223502D01*
X186202213Y-70189143D01*
X185677787Y-70189143D01*
X185505055Y-70223502D01*
X185348265Y-70328265D01*
X185303006Y-70396000D01*
X184433585Y-70396000D01*
X184421735Y-70378265D01*
X184264945Y-70273502D01*
X184092213Y-70239143D01*
X183267787Y-70239143D01*
X183095055Y-70273502D01*
X182938265Y-70378265D01*
X182880000Y-70465465D01*
X182821735Y-70378265D01*
X182664945Y-70273502D01*
X182492213Y-70239143D01*
X181667787Y-70239143D01*
X181495055Y-70273502D01*
X181338265Y-70378265D01*
X181326415Y-70396000D01*
X178909295Y-70396000D01*
X178866091Y-70325360D01*
X178703428Y-70144387D01*
X178510508Y-69996087D01*
X178293794Y-69885428D01*
X178178009Y-69851021D01*
X178226308Y-69839470D01*
X178448688Y-69740691D01*
X178649346Y-69603042D01*
X178821557Y-69431130D01*
X178909095Y-69304000D01*
X181326415Y-69304000D01*
X181338265Y-69321735D01*
X181495055Y-69426498D01*
X181667787Y-69460857D01*
X182492213Y-69460857D01*
X182664945Y-69426498D01*
X182821735Y-69321735D01*
X182880000Y-69234535D01*
X182938265Y-69321735D01*
X183095055Y-69426498D01*
X183267787Y-69460857D01*
X184092213Y-69460857D01*
X184264945Y-69426498D01*
X184421735Y-69321735D01*
X184433585Y-69304000D01*
X185303006Y-69304000D01*
X185348265Y-69371735D01*
X185505055Y-69476498D01*
X185677787Y-69510857D01*
X186202213Y-69510857D01*
X186374945Y-69476498D01*
X186531735Y-69371735D01*
X186607124Y-69258907D01*
X186630612Y-69346566D01*
X186777491Y-69521609D01*
X186970508Y-69633047D01*
X187314000Y-69693615D01*
X187314000Y-68706000D01*
X187566000Y-68706000D01*
X187566000Y-69707437D01*
X188006566Y-69589388D01*
X188181609Y-69442509D01*
X188293047Y-69249492D01*
X188329837Y-69040849D01*
X188329837Y-68706000D01*
X187566000Y-68706000D01*
X187314000Y-68706000D01*
X187314000Y-68454000D01*
X187566000Y-68454000D01*
X188329837Y-68454000D01*
X188329837Y-68113675D01*
X188249388Y-67813435D01*
X188102509Y-67638391D01*
X187909492Y-67526953D01*
X187566000Y-67466385D01*
X187566000Y-68454000D01*
X187314000Y-68454000D01*
X187314000Y-67452563D01*
X186873435Y-67570612D01*
X186698391Y-67717491D01*
X186599219Y-67889263D01*
X186531735Y-67788265D01*
X186374945Y-67683502D01*
X186202213Y-67649143D01*
X185677787Y-67649143D01*
X185505055Y-67683502D01*
X185348265Y-67788265D01*
X185303006Y-67856000D01*
X184433585Y-67856000D01*
X184421735Y-67838265D01*
X184264945Y-67733502D01*
X184092213Y-67699143D01*
X183267787Y-67699143D01*
X183095055Y-67733502D01*
X182938265Y-67838265D01*
X182880000Y-67925465D01*
X182821735Y-67838265D01*
X182664945Y-67733502D01*
X182492213Y-67699143D01*
X181667787Y-67699143D01*
X181495055Y-67733502D01*
X181338265Y-67838265D01*
X181326415Y-67856000D01*
X178909295Y-67856000D01*
X178866091Y-67785360D01*
X178703428Y-67604387D01*
X178510508Y-67456087D01*
X178293794Y-67345428D01*
X178178009Y-67311021D01*
X178226308Y-67299470D01*
X178448688Y-67200691D01*
X178649346Y-67063042D01*
X178821557Y-66891130D01*
X178909095Y-66764000D01*
X181326415Y-66764000D01*
X181338265Y-66781735D01*
X181495055Y-66886498D01*
X181667787Y-66920857D01*
X182492213Y-66920857D01*
X182664945Y-66886498D01*
X182821735Y-66781735D01*
X182880000Y-66694535D01*
X182938265Y-66781735D01*
X183095055Y-66886498D01*
X183267787Y-66920857D01*
X184092213Y-66920857D01*
X184264945Y-66886498D01*
X184421735Y-66781735D01*
X184433585Y-66764000D01*
X185303006Y-66764000D01*
X185348265Y-66831735D01*
X185505055Y-66936498D01*
X185677787Y-66970857D01*
X186202213Y-66970857D01*
X186374945Y-66936498D01*
X186531735Y-66831735D01*
X186607124Y-66718907D01*
X186630612Y-66806566D01*
X186777491Y-66981609D01*
X186970508Y-67093047D01*
X187314000Y-67153615D01*
X187314000Y-66166000D01*
X187566000Y-66166000D01*
X187566000Y-67167437D01*
X188006566Y-67049388D01*
X188181609Y-66902509D01*
X188293047Y-66709492D01*
X188329837Y-66500849D01*
X188329837Y-66166000D01*
X187566000Y-66166000D01*
X187314000Y-66166000D01*
X187314000Y-65914000D01*
X187566000Y-65914000D01*
X188329837Y-65914000D01*
X188329837Y-65573675D01*
X188249388Y-65273435D01*
X188102509Y-65098391D01*
X187909492Y-64986953D01*
X187566000Y-64926385D01*
X187566000Y-65914000D01*
X187314000Y-65914000D01*
X187314000Y-64912563D01*
X186873435Y-65030612D01*
X186698391Y-65177491D01*
X186599219Y-65349263D01*
X186531735Y-65248265D01*
X186374945Y-65143502D01*
X186202213Y-65109143D01*
X185677787Y-65109143D01*
X185505055Y-65143502D01*
X185348265Y-65248265D01*
X185303006Y-65316000D01*
X184433585Y-65316000D01*
X184421735Y-65298265D01*
X184264945Y-65193502D01*
X184092213Y-65159143D01*
X183267787Y-65159143D01*
X183095055Y-65193502D01*
X182938265Y-65298265D01*
X182880000Y-65385465D01*
X182821735Y-65298265D01*
X182664945Y-65193502D01*
X182492213Y-65159143D01*
X181667787Y-65159143D01*
X181495055Y-65193502D01*
X181338265Y-65298265D01*
X181326415Y-65316000D01*
X178909295Y-65316000D01*
X178866091Y-65245360D01*
X178703428Y-65064387D01*
X178510508Y-64916087D01*
X178293794Y-64805428D01*
X178178009Y-64771021D01*
X178226308Y-64759470D01*
X178448688Y-64660691D01*
X178649346Y-64523042D01*
X178821557Y-64351130D01*
X178909095Y-64224000D01*
X181326415Y-64224000D01*
X181338265Y-64241735D01*
X181495055Y-64346498D01*
X181667787Y-64380857D01*
X182492213Y-64380857D01*
X182664945Y-64346498D01*
X182821735Y-64241735D01*
X182880000Y-64154535D01*
X182938265Y-64241735D01*
X183095055Y-64346498D01*
X183267787Y-64380857D01*
X184092213Y-64380857D01*
X184264945Y-64346498D01*
X184421735Y-64241735D01*
X184433585Y-64224000D01*
X185303006Y-64224000D01*
X185348265Y-64291735D01*
X185505055Y-64396498D01*
X185677787Y-64430857D01*
X186202213Y-64430857D01*
X186374945Y-64396498D01*
X186531735Y-64291735D01*
X186607124Y-64178907D01*
X186630612Y-64266566D01*
X186777491Y-64441609D01*
X186970508Y-64553047D01*
X187314000Y-64613615D01*
X187314000Y-63626000D01*
X187566000Y-63626000D01*
X187566000Y-64627437D01*
X188006566Y-64509388D01*
X188181609Y-64362509D01*
X188293047Y-64169492D01*
X188329837Y-63960849D01*
X188329837Y-63626000D01*
X187566000Y-63626000D01*
X187314000Y-63626000D01*
X187314000Y-63374000D01*
X187566000Y-63374000D01*
X188329837Y-63374000D01*
X188329837Y-63033675D01*
X188249388Y-62733435D01*
X188102509Y-62558391D01*
X187909492Y-62446953D01*
X187566000Y-62386385D01*
X187566000Y-63374000D01*
X187314000Y-63374000D01*
X187314000Y-62372563D01*
X186873435Y-62490612D01*
X186698391Y-62637491D01*
X186599219Y-62809263D01*
X186531735Y-62708265D01*
X186374945Y-62603502D01*
X186202213Y-62569143D01*
X185677787Y-62569143D01*
X185505055Y-62603502D01*
X185348265Y-62708265D01*
X185303006Y-62776000D01*
X184433585Y-62776000D01*
X184421735Y-62758265D01*
X184264945Y-62653502D01*
X184092213Y-62619143D01*
X183267787Y-62619143D01*
X183095055Y-62653502D01*
X182938265Y-62758265D01*
X182880000Y-62845465D01*
X182821735Y-62758265D01*
X182664945Y-62653502D01*
X182492213Y-62619143D01*
X181667787Y-62619143D01*
X181495055Y-62653502D01*
X181338265Y-62758265D01*
X181326415Y-62776000D01*
X178909295Y-62776000D01*
X178866091Y-62705360D01*
X178703428Y-62524387D01*
X178510508Y-62376087D01*
X178343594Y-62290857D01*
X178662213Y-62290857D01*
X178834945Y-62256498D01*
X178991735Y-62151735D01*
X179096498Y-61994945D01*
X179130857Y-61822213D01*
X179130857Y-61684000D01*
X181326415Y-61684000D01*
X181338265Y-61701735D01*
X181495055Y-61806498D01*
X181667787Y-61840857D01*
X182492213Y-61840857D01*
X182664945Y-61806498D01*
X182821735Y-61701735D01*
X182880000Y-61614535D01*
X182938265Y-61701735D01*
X183095055Y-61806498D01*
X183267787Y-61840857D01*
X184092213Y-61840857D01*
X184264945Y-61806498D01*
X184421735Y-61701735D01*
X184433585Y-61684000D01*
X185303006Y-61684000D01*
X185348265Y-61751735D01*
X185505055Y-61856498D01*
X185677787Y-61890857D01*
X186202213Y-61890857D01*
X186374945Y-61856498D01*
X186531735Y-61751735D01*
X186607124Y-61638907D01*
X186630612Y-61726566D01*
X186777491Y-61901609D01*
X186970508Y-62013047D01*
X187314000Y-62073615D01*
X187314000Y-61086000D01*
X187566000Y-61086000D01*
X187566000Y-62087437D01*
X188006566Y-61969388D01*
X188181609Y-61822509D01*
X188293047Y-61629492D01*
X188329837Y-61420849D01*
X188329837Y-61086000D01*
X187566000Y-61086000D01*
X187314000Y-61086000D01*
X187314000Y-60834000D01*
X187566000Y-60834000D01*
X188329837Y-60834000D01*
X188329837Y-60493675D01*
X188249388Y-60193435D01*
X188102509Y-60018391D01*
X187909492Y-59906953D01*
X187566000Y-59846385D01*
X187566000Y-60834000D01*
X187314000Y-60834000D01*
X187314000Y-59832563D01*
X186873435Y-59950612D01*
X186698391Y-60097491D01*
X186599219Y-60269263D01*
X186531735Y-60168265D01*
X186374945Y-60063502D01*
X186202213Y-60029143D01*
X185677787Y-60029143D01*
X185505055Y-60063502D01*
X185348265Y-60168265D01*
X185303006Y-60236000D01*
X184433585Y-60236000D01*
X184421735Y-60218265D01*
X184264945Y-60113502D01*
X184092213Y-60079143D01*
X183267787Y-60079143D01*
X183095055Y-60113502D01*
X182938265Y-60218265D01*
X182880000Y-60305465D01*
X182821735Y-60218265D01*
X182664945Y-60113502D01*
X182492213Y-60079143D01*
X181667787Y-60079143D01*
X181495055Y-60113502D01*
X181338265Y-60218265D01*
X181326415Y-60236000D01*
X179130857Y-60236000D01*
X179130857Y-60097787D01*
X179096498Y-59925055D01*
X178991735Y-59768265D01*
X178834945Y-59663502D01*
X178662213Y-59629143D01*
X176937787Y-59629143D01*
X176765055Y-59663502D01*
X176608265Y-59768265D01*
X176503502Y-59925055D01*
X176469143Y-60097787D01*
X176469143Y-60361000D01*
X175420491Y-60361000D01*
X175341344Y-60354075D01*
X175264590Y-60374641D01*
X175186324Y-60388442D01*
X175163148Y-60401823D01*
X175137304Y-60408748D01*
X175072216Y-60454323D01*
X175003387Y-60494061D01*
X174952306Y-60554937D01*
X167449000Y-68058243D01*
X167449000Y-59251666D01*
X168193076Y-58507591D01*
X168215905Y-58493187D01*
X168279595Y-58421072D01*
X168303388Y-58397279D01*
X168318972Y-58376487D01*
X168376889Y-58310907D01*
X168391595Y-58279585D01*
X168412345Y-58251899D01*
X168443055Y-58169979D01*
X168480406Y-58090423D01*
X168485397Y-58057029D01*
X168497710Y-58024184D01*
X168505035Y-57925631D01*
X168509000Y-57899095D01*
X168509000Y-57872264D01*
X168515733Y-57781663D01*
X168509000Y-57750121D01*
X168509000Y-57370857D01*
X168522213Y-57370857D01*
X168694945Y-57336498D01*
X168851735Y-57231735D01*
X168956498Y-57074945D01*
X168990857Y-56902213D01*
X168990857Y-56592414D01*
X168991990Y-56595622D01*
X169113473Y-56806461D01*
X169271344Y-56991630D01*
X169460315Y-57144929D01*
X169674058Y-57261223D01*
X169905415Y-57336619D01*
X170146639Y-57368591D01*
X170389648Y-57356068D01*
X170626308Y-57299470D01*
X170848688Y-57200691D01*
X171049346Y-57063042D01*
X171221557Y-56891130D01*
X171359558Y-56690713D01*
X171458724Y-56468504D01*
X171470234Y-56420743D01*
X171531990Y-56595622D01*
X171653473Y-56806461D01*
X171811344Y-56991630D01*
X172000315Y-57144929D01*
X172214058Y-57261223D01*
X172445415Y-57336619D01*
X172686639Y-57368591D01*
X172929648Y-57356068D01*
X173166308Y-57299470D01*
X173388688Y-57200691D01*
X173589346Y-57063042D01*
X173761557Y-56891130D01*
X173899558Y-56690713D01*
X173998724Y-56468504D01*
X174056119Y-56230351D01*
X174064487Y-55921101D01*
X174020055Y-55680193D01*
X173933051Y-55452947D01*
X173806091Y-55245360D01*
X173643428Y-55064387D01*
X173450508Y-54916087D01*
X173233794Y-54805428D01*
X173118009Y-54771021D01*
X173166308Y-54759470D01*
X173388688Y-54660691D01*
X173589346Y-54523042D01*
X173761557Y-54351130D01*
X173899558Y-54150713D01*
X173998724Y-53928504D01*
X174056119Y-53690351D01*
X174064487Y-53381101D01*
X174020055Y-53140193D01*
X173933051Y-52912947D01*
X173806091Y-52705360D01*
X173643428Y-52524387D01*
X173450508Y-52376087D01*
X173233794Y-52265428D01*
X173000543Y-52196114D01*
X172758565Y-52170467D01*
X172515966Y-52189347D01*
X172280870Y-52252122D01*
X172061150Y-52356687D01*
X171864165Y-52499542D01*
X171696513Y-52675903D01*
X171563806Y-52879864D01*
X171557941Y-52893988D01*
X171556646Y-52890299D01*
X171434522Y-52670435D01*
X171277100Y-52474291D01*
X171088881Y-52307476D01*
X170875245Y-52174757D01*
X170642302Y-52079932D01*
X170330000Y-52010982D01*
X170330000Y-53630000D01*
X170070000Y-53630000D01*
X170070000Y-52022848D01*
X169895842Y-52044077D01*
X169654883Y-52116140D01*
X169429510Y-52227770D01*
X169226168Y-52375778D01*
X169050671Y-52555930D01*
X168908037Y-52763077D01*
X168844843Y-52899527D01*
X168726091Y-52705360D01*
X168563428Y-52524387D01*
X168370508Y-52376087D01*
X168153794Y-52265428D01*
X167920543Y-52196114D01*
X167678565Y-52170467D01*
X167435966Y-52189347D01*
X167200870Y-52252122D01*
X166981150Y-52356687D01*
X166784165Y-52499542D01*
X166640185Y-52651000D01*
X166495117Y-52651000D01*
X166468788Y-52645042D01*
X166372763Y-52651000D01*
X166339108Y-52651000D01*
X166313387Y-52654684D01*
X166226065Y-52660102D01*
X166193523Y-52671850D01*
X166159267Y-52676756D01*
X166079619Y-52712970D01*
X165996961Y-52742810D01*
X165969822Y-52762892D01*
X165937886Y-52777412D01*
X165863017Y-52841923D01*
X165841454Y-52857879D01*
X165822488Y-52876845D01*
X165753654Y-52936155D01*
X165736108Y-52963225D01*
X165066929Y-53632405D01*
X165044094Y-53646813D01*
X164980395Y-53718939D01*
X164956610Y-53742723D01*
X164941030Y-53763512D01*
X164883111Y-53829093D01*
X164868406Y-53860414D01*
X164847654Y-53888104D01*
X164816946Y-53970020D01*
X164779594Y-54049579D01*
X164774604Y-54082972D01*
X164762290Y-54115817D01*
X164754965Y-54214370D01*
X164751000Y-54240906D01*
X164751000Y-54267737D01*
X164744267Y-54358336D01*
X164751000Y-54389878D01*
X164751001Y-68448332D01*
X164660220Y-68539113D01*
X164629482Y-68552831D01*
X164438689Y-68714922D01*
X164301059Y-68924047D01*
X164227654Y-69163394D01*
X164224377Y-69413723D01*
X164291490Y-69654911D01*
X164423600Y-69867567D01*
X164610085Y-70034597D01*
X164835954Y-70142572D01*
X165083049Y-70182814D01*
X165331507Y-70152088D01*
X165373119Y-70134124D01*
X163682033Y-71825210D01*
X163719558Y-71770713D01*
X163818724Y-71548504D01*
X163876119Y-71310351D01*
X163884487Y-71001101D01*
X163840055Y-70760193D01*
X163753051Y-70532947D01*
X163626091Y-70325360D01*
X163463428Y-70144387D01*
X163270508Y-69996087D01*
X163053794Y-69885428D01*
X162938009Y-69851021D01*
X162986308Y-69839470D01*
X163208688Y-69740691D01*
X163409346Y-69603042D01*
X163581557Y-69431130D01*
X163719558Y-69230713D01*
X163818724Y-69008504D01*
X163876119Y-68770351D01*
X163884487Y-68461101D01*
X163840055Y-68220193D01*
X163753051Y-67992947D01*
X163626091Y-67785360D01*
X163463428Y-67604387D01*
X163270508Y-67456087D01*
X163053794Y-67345428D01*
X162938009Y-67311021D01*
X162986308Y-67299470D01*
X163208688Y-67200691D01*
X163409346Y-67063042D01*
X163581557Y-66891130D01*
X163719558Y-66690713D01*
X163818724Y-66468504D01*
X163876119Y-66230351D01*
X163884487Y-65921101D01*
X163840055Y-65680193D01*
X163753051Y-65452947D01*
X163626091Y-65245360D01*
X163463428Y-65064387D01*
X163270508Y-64916087D01*
X163053794Y-64805428D01*
X162938009Y-64771021D01*
X162986308Y-64759470D01*
X163208688Y-64660691D01*
X163409346Y-64523042D01*
X163581557Y-64351130D01*
X163719558Y-64150713D01*
X163818724Y-63928504D01*
X163876119Y-63690351D01*
X163884487Y-63381101D01*
X163840055Y-63140193D01*
X163753051Y-62912947D01*
X163626091Y-62705360D01*
X163463428Y-62524387D01*
X163366448Y-62449837D01*
X163426325Y-62449837D01*
X163726566Y-62369388D01*
X163901609Y-62222509D01*
X164013047Y-62029492D01*
X164049837Y-61820849D01*
X164049837Y-61090000D01*
X161070163Y-61090000D01*
X161070163Y-61169496D01*
X160249000Y-60348334D01*
X160249000Y-60099151D01*
X161070163Y-60099151D01*
X161070163Y-60830000D01*
X162430000Y-60830000D01*
X162430000Y-59470163D01*
X162690000Y-59470163D01*
X162690000Y-60830000D01*
X164049837Y-60830000D01*
X164049837Y-60093675D01*
X163969388Y-59793435D01*
X163822509Y-59618391D01*
X163629492Y-59506953D01*
X163420849Y-59470163D01*
X162690000Y-59470163D01*
X162430000Y-59470163D01*
X161693675Y-59470163D01*
X161393435Y-59550612D01*
X161218391Y-59697491D01*
X161106953Y-59890508D01*
X161070163Y-60099151D01*
X160249000Y-60099151D01*
X160249000Y-58114769D01*
X160263646Y-58069016D01*
X160387491Y-58216609D01*
X160580508Y-58328047D01*
X160789151Y-58364837D01*
X161170000Y-58364837D01*
X161170000Y-57230000D01*
X161430000Y-57230000D01*
X161430000Y-58364837D01*
X161816325Y-58364837D01*
X162116566Y-58284388D01*
X162291609Y-58137509D01*
X162403047Y-57944492D01*
X162439837Y-57735849D01*
X162439837Y-57230000D01*
X161430000Y-57230000D01*
X161170000Y-57230000D01*
X161170000Y-55835163D01*
X161430000Y-55835163D01*
X161430000Y-56970000D01*
X162439837Y-56970000D01*
X162439837Y-56458675D01*
X162359388Y-56158435D01*
X162212509Y-55983391D01*
X162019492Y-55871953D01*
X161810849Y-55835163D01*
X161430000Y-55835163D01*
X161170000Y-55835163D01*
X160783675Y-55835163D01*
X160483435Y-55915612D01*
X160308391Y-56062491D01*
X160209219Y-56234263D01*
X160152015Y-56148651D01*
X160483073Y-55817594D01*
X160505906Y-55803187D01*
X160569601Y-55731066D01*
X160593389Y-55707278D01*
X160608968Y-55686492D01*
X160666889Y-55620908D01*
X160681594Y-55589587D01*
X160702346Y-55561897D01*
X160733060Y-55479966D01*
X160770406Y-55400424D01*
X160775397Y-55367031D01*
X160787711Y-55334182D01*
X160795035Y-55235626D01*
X160799000Y-55209096D01*
X160799000Y-55182268D01*
X160805733Y-55091663D01*
X160799000Y-55060121D01*
X160799000Y-54887107D01*
X160941735Y-54791735D01*
X161046498Y-54634945D01*
X161080857Y-54462213D01*
X161080857Y-53730000D01*
X162160163Y-53730000D01*
X162160163Y-54466325D01*
X162240612Y-54766566D01*
X162387491Y-54941609D01*
X162580508Y-55053047D01*
X162789151Y-55089837D01*
X163320000Y-55089837D01*
X163320000Y-53730000D01*
X163580000Y-53730000D01*
X163580000Y-55089837D01*
X164116325Y-55089837D01*
X164416566Y-55009388D01*
X164591609Y-54862509D01*
X164703047Y-54669492D01*
X164739837Y-54460849D01*
X164739837Y-53730000D01*
X163580000Y-53730000D01*
X163320000Y-53730000D01*
X162160163Y-53730000D01*
X161080857Y-53730000D01*
X161080857Y-52739151D01*
X162160163Y-52739151D01*
X162160163Y-53470000D01*
X163320000Y-53470000D01*
X163320000Y-52110163D01*
X163580000Y-52110163D01*
X163580000Y-53470000D01*
X164739837Y-53470000D01*
X164739837Y-52733675D01*
X164659388Y-52433435D01*
X164512509Y-52258391D01*
X164319492Y-52146953D01*
X164110849Y-52110163D01*
X163580000Y-52110163D01*
X163320000Y-52110163D01*
X162783675Y-52110163D01*
X162483435Y-52190612D01*
X162308391Y-52337491D01*
X162196953Y-52530508D01*
X162160163Y-52739151D01*
X161080857Y-52739151D01*
X161080857Y-52737787D01*
X161046498Y-52565055D01*
X160941735Y-52408265D01*
X160784945Y-52303502D01*
X160612213Y-52269143D01*
X159287787Y-52269143D01*
X159115055Y-52303502D01*
X158958265Y-52408265D01*
X158853502Y-52565055D01*
X158819143Y-52737787D01*
X158819143Y-54462213D01*
X158853502Y-54634945D01*
X158958265Y-54791735D01*
X159047784Y-54851550D01*
X158766930Y-55132404D01*
X158744094Y-55146813D01*
X158680395Y-55218939D01*
X158656610Y-55242723D01*
X158641030Y-55263512D01*
X158583111Y-55329093D01*
X158568406Y-55360414D01*
X158547654Y-55388104D01*
X158516946Y-55470020D01*
X158479594Y-55549579D01*
X158474604Y-55582972D01*
X158462290Y-55615817D01*
X158454965Y-55714370D01*
X158451000Y-55740906D01*
X158451000Y-55767737D01*
X158444267Y-55858336D01*
X158451000Y-55889878D01*
X158451000Y-56144137D01*
X158379597Y-56251000D01*
X157730857Y-56251000D01*
X157730857Y-56137787D01*
X157696498Y-55965055D01*
X157591735Y-55808265D01*
X157434945Y-55703502D01*
X157262213Y-55669143D01*
X155737787Y-55669143D01*
X155565055Y-55703502D01*
X155408265Y-55808265D01*
X155350000Y-55895465D01*
X155291735Y-55808265D01*
X155134945Y-55703502D01*
X155049000Y-55686406D01*
X155049000Y-52330857D01*
X156112213Y-52330857D01*
X156284945Y-52296498D01*
X156441735Y-52191735D01*
X156546498Y-52034945D01*
X156580857Y-51862213D01*
X156580857Y-49837787D01*
X156546498Y-49665055D01*
X156441735Y-49508265D01*
X156284945Y-49403502D01*
X156112213Y-49369143D01*
X152287787Y-49369143D01*
X152115055Y-49403502D01*
X151958265Y-49508265D01*
X151853502Y-49665055D01*
X151819143Y-49837787D01*
X151819143Y-51862213D01*
X151853502Y-52034945D01*
X151958265Y-52191735D01*
X152115055Y-52296498D01*
X152287787Y-52330857D01*
X153351000Y-52330857D01*
X153351001Y-55686406D01*
X153265055Y-55703502D01*
X153159527Y-55774013D01*
X153062509Y-55658391D01*
X152869492Y-55546953D01*
X152660849Y-55510163D01*
X152030000Y-55510163D01*
X152030000Y-58789837D01*
X152666325Y-58789837D01*
X152966566Y-58709388D01*
X153141609Y-58562509D01*
X153161813Y-58527514D01*
X153265055Y-58596498D01*
X153437787Y-58630857D01*
X153476001Y-58630857D01*
X153476000Y-59054597D01*
X153358265Y-59133265D01*
X153282876Y-59246093D01*
X153259388Y-59158435D01*
X153112509Y-58983391D01*
X152919492Y-58871953D01*
X152710849Y-58835163D01*
X152330000Y-58835163D01*
X152330000Y-61364837D01*
X152716325Y-61364837D01*
X153016566Y-61284388D01*
X153191609Y-61137509D01*
X153290781Y-60965737D01*
X153358265Y-61066735D01*
X153515055Y-61171498D01*
X153687787Y-61205857D01*
X154712213Y-61205857D01*
X154884945Y-61171498D01*
X155041735Y-61066735D01*
X155146498Y-60909945D01*
X155180857Y-60737213D01*
X155180857Y-60724000D01*
X157441532Y-60724000D01*
X158676001Y-61958469D01*
X158676000Y-63983223D01*
X158638689Y-64014922D01*
X158501059Y-64224047D01*
X158427654Y-64463394D01*
X158424377Y-64713723D01*
X158491490Y-64954911D01*
X158623600Y-65167567D01*
X158649762Y-65191000D01*
X155455117Y-65191000D01*
X155428788Y-65185042D01*
X155332763Y-65191000D01*
X155299108Y-65191000D01*
X155273387Y-65194684D01*
X155186064Y-65200102D01*
X155153521Y-65211850D01*
X155119267Y-65216756D01*
X155039611Y-65252973D01*
X154956960Y-65282811D01*
X154929826Y-65302889D01*
X154897886Y-65317412D01*
X154823010Y-65381929D01*
X154801455Y-65397879D01*
X154782496Y-65416838D01*
X154713654Y-65476156D01*
X154696108Y-65503226D01*
X154548861Y-65650473D01*
X154442575Y-65527338D01*
X154255434Y-65375795D01*
X154044416Y-65259787D01*
X154014513Y-65249723D01*
X154195563Y-65162201D01*
X154390378Y-65020659D01*
X154557049Y-64846856D01*
X154690308Y-64646285D01*
X154785944Y-64425285D01*
X154841306Y-64189248D01*
X154849372Y-63881209D01*
X154806438Y-63642599D01*
X154722501Y-63416896D01*
X154599922Y-63209626D01*
X154442575Y-63027338D01*
X154255434Y-62875795D01*
X154044416Y-62759787D01*
X153816188Y-62682980D01*
X153577967Y-62647802D01*
X153337282Y-62655366D01*
X153101739Y-62705432D01*
X152878785Y-62796417D01*
X152675466Y-62925447D01*
X152498211Y-63088443D01*
X152352621Y-63280251D01*
X152243298Y-63494809D01*
X152173698Y-63725336D01*
X152146020Y-63964545D01*
X152161141Y-64204874D01*
X152218580Y-64438728D01*
X152316525Y-64658714D01*
X152451876Y-64857878D01*
X152620359Y-65029927D01*
X152816646Y-65169421D01*
X152990041Y-65251015D01*
X152878785Y-65296417D01*
X152675466Y-65425447D01*
X152498211Y-65588443D01*
X152352621Y-65780251D01*
X152243298Y-65994809D01*
X152173698Y-66225336D01*
X152146020Y-66464545D01*
X152161141Y-66704874D01*
X152218580Y-66938728D01*
X152316525Y-67158714D01*
X152451876Y-67357878D01*
X152620359Y-67529927D01*
X152816646Y-67669421D01*
X152990041Y-67751015D01*
X152878785Y-67796417D01*
X152675466Y-67925447D01*
X152498211Y-68088443D01*
X152352621Y-68280251D01*
X152243298Y-68494809D01*
X152173698Y-68725336D01*
X152146020Y-68964545D01*
X152161141Y-69204874D01*
X152218580Y-69438728D01*
X152316525Y-69658714D01*
X152451876Y-69857878D01*
X152620359Y-70029927D01*
X152816646Y-70169421D01*
X152990041Y-70251015D01*
X152878785Y-70296417D01*
X152675466Y-70425447D01*
X152498211Y-70588443D01*
X152352621Y-70780251D01*
X152243298Y-70994809D01*
X152173698Y-71225336D01*
X152146020Y-71464545D01*
X152161141Y-71704874D01*
X152218580Y-71938728D01*
X152316525Y-72158714D01*
X152451876Y-72357878D01*
X152620359Y-72529927D01*
X152781076Y-72644143D01*
X152612787Y-72644143D01*
X152440055Y-72678502D01*
X152283265Y-72783265D01*
X152178502Y-72940055D01*
X152144143Y-73112787D01*
X152144143Y-74887213D01*
X152178502Y-75059945D01*
X152283265Y-75216735D01*
X152440055Y-75321498D01*
X152612787Y-75355857D01*
X154387213Y-75355857D01*
X154559945Y-75321498D01*
X154716735Y-75216735D01*
X154821498Y-75059945D01*
X154855857Y-74887213D01*
X154855857Y-74849000D01*
X158075420Y-74849000D01*
X158283049Y-74882814D01*
X158531507Y-74852088D01*
X158761354Y-74752862D01*
X158954114Y-74593114D01*
X159094289Y-74385686D01*
X159170848Y-74146516D01*
X159174385Y-73876330D01*
X159104113Y-73635238D01*
X159049067Y-73549000D01*
X160248334Y-73549000D01*
X160892406Y-74193073D01*
X160906813Y-74215906D01*
X160978933Y-74279600D01*
X161002722Y-74303389D01*
X161023508Y-74318968D01*
X161089092Y-74376889D01*
X161120413Y-74391594D01*
X161148103Y-74412346D01*
X161230019Y-74443054D01*
X161309578Y-74480406D01*
X161342972Y-74485397D01*
X161375817Y-74497710D01*
X161474356Y-74505032D01*
X161500902Y-74509000D01*
X161527735Y-74509000D01*
X161544934Y-74510278D01*
X161631344Y-74611630D01*
X161820315Y-74764929D01*
X162034058Y-74881223D01*
X162183726Y-74929998D01*
X162100870Y-74952122D01*
X161881150Y-75056687D01*
X161684165Y-75199542D01*
X161516513Y-75375903D01*
X161383806Y-75579864D01*
X161290491Y-75804592D01*
X161239692Y-76042563D01*
X161233109Y-76285806D01*
X161270965Y-76526176D01*
X161351990Y-76755622D01*
X161473473Y-76966461D01*
X161631344Y-77151630D01*
X161820315Y-77304929D01*
X162034058Y-77421223D01*
X162183726Y-77469998D01*
X162100870Y-77492122D01*
X161881150Y-77596687D01*
X161684165Y-77739542D01*
X161516513Y-77915903D01*
X161386319Y-78116000D01*
X160898469Y-78116000D01*
X160758264Y-77975796D01*
X160780857Y-77862213D01*
X160780857Y-76937787D01*
X160746498Y-76765055D01*
X160641735Y-76608265D01*
X160484945Y-76503502D01*
X160312213Y-76469143D01*
X159787787Y-76469143D01*
X159615055Y-76503502D01*
X159458265Y-76608265D01*
X159353502Y-76765055D01*
X159319143Y-76937787D01*
X159319143Y-77862213D01*
X159353502Y-78034945D01*
X159424400Y-78141051D01*
X159418785Y-78205224D01*
X159440215Y-78285201D01*
X159454588Y-78366713D01*
X159468524Y-78390850D01*
X159475740Y-78417781D01*
X159523223Y-78485593D01*
X159564615Y-78557287D01*
X159628032Y-78610500D01*
X160179501Y-79161970D01*
X160232713Y-79225386D01*
X160304409Y-79266779D01*
X160372219Y-79314260D01*
X160399144Y-79321474D01*
X160423287Y-79335413D01*
X160504805Y-79349787D01*
X160584775Y-79371215D01*
X160667238Y-79364000D01*
X161391389Y-79364000D01*
X161473473Y-79506461D01*
X161631344Y-79691630D01*
X161820315Y-79844929D01*
X162034058Y-79961223D01*
X162265415Y-80036619D01*
X162506639Y-80068591D01*
X162749648Y-80056068D01*
X162986308Y-79999470D01*
X163175999Y-79915212D01*
X163175999Y-85412452D01*
X163169074Y-85491599D01*
X163189640Y-85568353D01*
X163203441Y-85646619D01*
X163216822Y-85669795D01*
X163223747Y-85695639D01*
X163269323Y-85760730D01*
X163309060Y-85829557D01*
X163369936Y-85880638D01*
X163439461Y-85950163D01*
X163253675Y-85950163D01*
X163124001Y-85984909D01*
X163124001Y-83427237D01*
X163131216Y-83344778D01*
X163109790Y-83264813D01*
X163095414Y-83183288D01*
X163081475Y-83159145D01*
X163074261Y-83132220D01*
X163026779Y-83064408D01*
X162985387Y-82992714D01*
X162921963Y-82939495D01*
X160172891Y-80190423D01*
X160174385Y-80076330D01*
X160104113Y-79835238D01*
X159969415Y-79624212D01*
X159780904Y-79459473D01*
X159553733Y-79354264D01*
X159306164Y-79317044D01*
X159058100Y-79350804D01*
X158829482Y-79452830D01*
X158638689Y-79614922D01*
X158568986Y-79720833D01*
X158226189Y-79378036D01*
X158172972Y-79314614D01*
X158101265Y-79273214D01*
X158033467Y-79225741D01*
X158006541Y-79218526D01*
X157982397Y-79204587D01*
X157900873Y-79190211D01*
X157820909Y-79168785D01*
X157738447Y-79176000D01*
X157453699Y-79176000D01*
X157391735Y-79083265D01*
X157249000Y-78987893D01*
X157249000Y-78980862D01*
X157346498Y-78834946D01*
X157364132Y-78746294D01*
X157422137Y-78705680D01*
X157490970Y-78665938D01*
X157542050Y-78605063D01*
X157957109Y-78190005D01*
X157958265Y-78191735D01*
X158115055Y-78296498D01*
X158287787Y-78330857D01*
X158812213Y-78330857D01*
X158984945Y-78296498D01*
X159141735Y-78191735D01*
X159246498Y-78034945D01*
X159280857Y-77862213D01*
X159280857Y-76937787D01*
X159246498Y-76765055D01*
X159141735Y-76608265D01*
X158984945Y-76503502D01*
X158812213Y-76469143D01*
X158287787Y-76469143D01*
X158115055Y-76503502D01*
X157958265Y-76608265D01*
X157853501Y-76765055D01*
X157847716Y-76794139D01*
X157846988Y-76794075D01*
X157770228Y-76814643D01*
X157691969Y-76828442D01*
X157668796Y-76841821D01*
X157642947Y-76848747D01*
X157577846Y-76894331D01*
X157509031Y-76934061D01*
X157457955Y-76994931D01*
X157123574Y-77329313D01*
X157084946Y-77303502D01*
X156912213Y-77269143D01*
X156387787Y-77269143D01*
X156215055Y-77303502D01*
X156058265Y-77408265D01*
X155982876Y-77521093D01*
X155959388Y-77433435D01*
X155812509Y-77258391D01*
X155619492Y-77146953D01*
X155276000Y-77086385D01*
X155276000Y-78326000D01*
X154260163Y-78326000D01*
X154260163Y-78666325D01*
X154335566Y-78947734D01*
X154258391Y-79012491D01*
X154146953Y-79205508D01*
X154110163Y-79414151D01*
X154110163Y-79670000D01*
X155280000Y-79670000D01*
X155280000Y-80814837D01*
X155566325Y-80814837D01*
X155866566Y-80734388D01*
X156029453Y-80597709D01*
X156065055Y-80621498D01*
X156237787Y-80655857D01*
X157062213Y-80655857D01*
X157234945Y-80621498D01*
X157391735Y-80516735D01*
X157453699Y-80424000D01*
X157507217Y-80424000D01*
X160993212Y-83909996D01*
X160951059Y-83974047D01*
X160877654Y-84213394D01*
X160874377Y-84463723D01*
X160941490Y-84704911D01*
X161073600Y-84917567D01*
X161260085Y-85084597D01*
X161485954Y-85192572D01*
X161733049Y-85232814D01*
X161876002Y-85215135D01*
X161876001Y-87401531D01*
X161698031Y-87579501D01*
X161634615Y-87632712D01*
X161593223Y-87704407D01*
X161545740Y-87772219D01*
X161538524Y-87799150D01*
X161524588Y-87823287D01*
X161518265Y-87859143D01*
X161507787Y-87859143D01*
X161335055Y-87893502D01*
X161178265Y-87998265D01*
X161073502Y-88155055D01*
X161039143Y-88327787D01*
X161039143Y-88841000D01*
X160588114Y-88841000D01*
X160299000Y-88551887D01*
X160299000Y-86262371D01*
X160330857Y-86102213D01*
X160330857Y-84077787D01*
X160296498Y-83905055D01*
X160191735Y-83748265D01*
X160034945Y-83643502D01*
X159862213Y-83609143D01*
X159537787Y-83609143D01*
X159365054Y-83643502D01*
X159355640Y-83649793D01*
X159312509Y-83598391D01*
X159119492Y-83486953D01*
X158776000Y-83426385D01*
X158776000Y-86767437D01*
X159101000Y-86680354D01*
X159101001Y-88117477D01*
X158399000Y-87415477D01*
X158399000Y-86696308D01*
X158724000Y-86753615D01*
X158724000Y-83412563D01*
X158283435Y-83530612D01*
X158142712Y-83648692D01*
X158134945Y-83643502D01*
X157962213Y-83609143D01*
X157637787Y-83609143D01*
X157465055Y-83643502D01*
X157308265Y-83748265D01*
X157203502Y-83905055D01*
X157169143Y-84077787D01*
X157169143Y-84422029D01*
X156797048Y-84049935D01*
X156745970Y-83989062D01*
X156677137Y-83949320D01*
X156612052Y-83903748D01*
X156586208Y-83896823D01*
X156563030Y-83883441D01*
X156484768Y-83869642D01*
X156408012Y-83849075D01*
X156328861Y-83856000D01*
X154560365Y-83856000D01*
X154680767Y-83681140D01*
X154776189Y-83467322D01*
X154831431Y-83238103D01*
X154839480Y-82940652D01*
X154796715Y-82708781D01*
X154712996Y-82490116D01*
X154590831Y-82290369D01*
X154434309Y-82116230D01*
X154248676Y-81973531D01*
X154040145Y-81867051D01*
X153815703Y-81800355D01*
X153582864Y-81775677D01*
X153349426Y-81793843D01*
X153123209Y-81854247D01*
X152911787Y-81954863D01*
X152722240Y-82092323D01*
X152560919Y-82262025D01*
X152433224Y-82458283D01*
X152343433Y-82674524D01*
X152294552Y-82903508D01*
X152288218Y-83137566D01*
X152324644Y-83368858D01*
X152334646Y-83397180D01*
X152161103Y-83317544D01*
X151938870Y-83263164D01*
X151710363Y-83251788D01*
X151483826Y-83283827D01*
X151267435Y-83358126D01*
X151068998Y-83472001D01*
X150895674Y-83621347D01*
X150753718Y-83800772D01*
X150648251Y-84003804D01*
X150583080Y-84223117D01*
X150560556Y-84450795D01*
X149474000Y-84450795D01*
X149474000Y-79930000D01*
X154110163Y-79930000D01*
X154110163Y-80191325D01*
X154190612Y-80491566D01*
X154337491Y-80666609D01*
X154530508Y-80778047D01*
X154739151Y-80814837D01*
X155020000Y-80814837D01*
X155020000Y-79930000D01*
X154110163Y-79930000D01*
X149474000Y-79930000D01*
X149474000Y-77739151D01*
X154260163Y-77739151D01*
X154260163Y-78074000D01*
X155024000Y-78074000D01*
X155024000Y-77072563D01*
X154583435Y-77190612D01*
X154408391Y-77337491D01*
X154296953Y-77530508D01*
X154260163Y-77739151D01*
X149474000Y-77739151D01*
X149474000Y-60230000D01*
X151060163Y-60230000D01*
X151060163Y-60741325D01*
X151140612Y-61041566D01*
X151287491Y-61216609D01*
X151480508Y-61328047D01*
X151689151Y-61364837D01*
X152070000Y-61364837D01*
X152070000Y-60230000D01*
X151060163Y-60230000D01*
X149474000Y-60230000D01*
X149474000Y-59464151D01*
X151060163Y-59464151D01*
X151060163Y-59970000D01*
X152070000Y-59970000D01*
X152070000Y-58835163D01*
X151683675Y-58835163D01*
X151383435Y-58915612D01*
X151208391Y-59062491D01*
X151096953Y-59255508D01*
X151060163Y-59464151D01*
X149474000Y-59464151D01*
X149474000Y-57280000D01*
X150510163Y-57280000D01*
X150510163Y-58166325D01*
X150590612Y-58466566D01*
X150737491Y-58641609D01*
X150930508Y-58753047D01*
X151139151Y-58789837D01*
X151770000Y-58789837D01*
X151770000Y-57280000D01*
X150510163Y-57280000D01*
X149474000Y-57280000D01*
X149474000Y-56139151D01*
X150510163Y-56139151D01*
X150510163Y-57020000D01*
X151770000Y-57020000D01*
X151770000Y-55510163D01*
X151133675Y-55510163D01*
X150833435Y-55590612D01*
X150658391Y-55737491D01*
X150546953Y-55930508D01*
X150510163Y-56139151D01*
X149474000Y-56139151D01*
X149474000Y-50196336D01*
X151196337Y-48474000D01*
X186803664Y-48474000D01*
X188526000Y-50196337D01*
G37*
D32*
X188526000Y-50196337D02*
X188526001Y-81803662D01*
X185700585Y-84629079D01*
X185676587Y-84644574D01*
X185644919Y-84684745D01*
X185637027Y-84692637D01*
X185620836Y-84715295D01*
X185575462Y-84772852D01*
X185573082Y-84782121D01*
X185568457Y-84788593D01*
X185523245Y-84939772D01*
X185526000Y-85009879D01*
X185526001Y-109803662D01*
X183803664Y-111526000D01*
X151196337Y-111526000D01*
X149474000Y-109803664D01*
X149474000Y-95880795D01*
X153100556Y-95880795D01*
X153121490Y-96108626D01*
X153185129Y-96328389D01*
X153289176Y-96532152D01*
X153429876Y-96712564D01*
X153602152Y-96863116D01*
X153799790Y-96978375D01*
X154015657Y-97054181D01*
X154241964Y-97087801D01*
X154470546Y-97078021D01*
X154693153Y-97025194D01*
X154901756Y-96931226D01*
X155088826Y-96799506D01*
X155247614Y-96634789D01*
X155372389Y-96443017D01*
X155458651Y-96231112D01*
X155503318Y-96006557D01*
X155504137Y-95771811D01*
X155461039Y-95546950D01*
X155376259Y-95334447D01*
X155252825Y-95141810D01*
X155095192Y-94975988D01*
X154909046Y-94842966D01*
X154701103Y-94747544D01*
X154478870Y-94693164D01*
X154250363Y-94681788D01*
X154023826Y-94713827D01*
X153807435Y-94788126D01*
X153608998Y-94902001D01*
X153435674Y-95051347D01*
X153293718Y-95230772D01*
X153188251Y-95433804D01*
X153123080Y-95653117D01*
X153100556Y-95880795D01*
X149474000Y-95880795D01*
X149474000Y-94610795D01*
X150560556Y-94610795D01*
X150581490Y-94838626D01*
X150645129Y-95058389D01*
X150749176Y-95262152D01*
X150889876Y-95442564D01*
X151062152Y-95593116D01*
X151259790Y-95708375D01*
X151475657Y-95784181D01*
X151701964Y-95817801D01*
X151930546Y-95808021D01*
X152153153Y-95755194D01*
X152361756Y-95661226D01*
X152548826Y-95529506D01*
X152707614Y-95364789D01*
X152832389Y-95173017D01*
X152918651Y-94961112D01*
X152963318Y-94736557D01*
X152964137Y-94501811D01*
X152921039Y-94276950D01*
X152836259Y-94064447D01*
X152712825Y-93871810D01*
X152555192Y-93705988D01*
X152369046Y-93572966D01*
X152161103Y-93477544D01*
X151938870Y-93423164D01*
X151928696Y-93422658D01*
X152013291Y-93414661D01*
X152246601Y-93349520D01*
X152264649Y-93340795D01*
X153100556Y-93340795D01*
X153121490Y-93568626D01*
X153185129Y-93788389D01*
X153289176Y-93992152D01*
X153429876Y-94172564D01*
X153602152Y-94323116D01*
X153799790Y-94438375D01*
X154015657Y-94514181D01*
X154241964Y-94547801D01*
X154470546Y-94538021D01*
X154693153Y-94485194D01*
X154901756Y-94391226D01*
X155088826Y-94259506D01*
X155247614Y-94094789D01*
X155372389Y-93903017D01*
X155458651Y-93691112D01*
X155503318Y-93466557D01*
X155504137Y-93231811D01*
X155461039Y-93006950D01*
X155376259Y-92794447D01*
X155252825Y-92601810D01*
X155095192Y-92435988D01*
X154909046Y-92302966D01*
X154701103Y-92207544D01*
X154478870Y-92153164D01*
X154250363Y-92141788D01*
X154023826Y-92173827D01*
X153807435Y-92248126D01*
X153608998Y-92362001D01*
X153435674Y-92511347D01*
X153293718Y-92690772D01*
X153188251Y-92893804D01*
X153123080Y-93113117D01*
X153100556Y-93340795D01*
X152264649Y-93340795D01*
X152464686Y-93244093D01*
X152630082Y-93123930D01*
X151765000Y-92258848D01*
X150899239Y-93124609D01*
X151077593Y-93251356D01*
X151296772Y-93354494D01*
X151530751Y-93417188D01*
X151619493Y-93424640D01*
X151483826Y-93443827D01*
X151267435Y-93518126D01*
X151068998Y-93632001D01*
X150895674Y-93781347D01*
X150753718Y-93960772D01*
X150648251Y-94163804D01*
X150583080Y-94383117D01*
X150560556Y-94610795D01*
X149474000Y-94610795D01*
X149474000Y-92039334D01*
X150402991Y-92039334D01*
X150418201Y-92281089D01*
X150475981Y-92516329D01*
X150574507Y-92737620D01*
X150713705Y-92942447D01*
X151581152Y-92075000D01*
X151948848Y-92075000D01*
X152817303Y-92943456D01*
X152962367Y-92725117D01*
X153058570Y-92502807D01*
X153114257Y-92265379D01*
X153120420Y-92030000D01*
X156010163Y-92030000D01*
X156010163Y-92291325D01*
X156090612Y-92591566D01*
X156237491Y-92766609D01*
X156430508Y-92878047D01*
X156639151Y-92914837D01*
X156920000Y-92914837D01*
X156920000Y-92030000D01*
X156010163Y-92030000D01*
X153120420Y-92030000D01*
X153122372Y-91955496D01*
X153079186Y-91715480D01*
X152994750Y-91488439D01*
X152824049Y-91199799D01*
X151948848Y-92075000D01*
X151581152Y-92075000D01*
X150717107Y-91210955D01*
X150610817Y-91350981D01*
X150500845Y-91566813D01*
X150430833Y-91798708D01*
X150402991Y-92039334D01*
X149474000Y-92039334D01*
X149474000Y-89530795D01*
X150560556Y-89530795D01*
X150581490Y-89758626D01*
X150645129Y-89978389D01*
X150749176Y-90182152D01*
X150889876Y-90362564D01*
X151062152Y-90513116D01*
X151259790Y-90628375D01*
X151475657Y-90704181D01*
X151600052Y-90722661D01*
X151364377Y-90772755D01*
X151140101Y-90864281D01*
X150894188Y-91020341D01*
X151765000Y-91891152D01*
X152645650Y-91010503D01*
X152312644Y-90827431D01*
X152233496Y-90800795D01*
X153100556Y-90800795D01*
X153121490Y-91028626D01*
X153185129Y-91248389D01*
X153289176Y-91452152D01*
X153429876Y-91632564D01*
X153602152Y-91783116D01*
X153799790Y-91898375D01*
X154015657Y-91974181D01*
X154241964Y-92007801D01*
X154470546Y-91998021D01*
X154693153Y-91945194D01*
X154901756Y-91851226D01*
X155088826Y-91719506D01*
X155247614Y-91554789D01*
X155372389Y-91363017D01*
X155458651Y-91151112D01*
X155503318Y-90926557D01*
X155504137Y-90691811D01*
X155461039Y-90466950D01*
X155376259Y-90254447D01*
X155252825Y-90061810D01*
X155095192Y-89895988D01*
X154909046Y-89762966D01*
X154701103Y-89667544D01*
X154478870Y-89613164D01*
X154250363Y-89601788D01*
X154023826Y-89633827D01*
X153807435Y-89708126D01*
X153608998Y-89822001D01*
X153435674Y-89971347D01*
X153293718Y-90150772D01*
X153188251Y-90353804D01*
X153123080Y-90573117D01*
X153100556Y-90800795D01*
X152233496Y-90800795D01*
X152083063Y-90750170D01*
X151931514Y-90727791D01*
X152153153Y-90675194D01*
X152361756Y-90581226D01*
X152548826Y-90449506D01*
X152707614Y-90284789D01*
X152832389Y-90093017D01*
X152918651Y-89881112D01*
X152963318Y-89656557D01*
X152964137Y-89421811D01*
X152921039Y-89196950D01*
X152836259Y-88984447D01*
X152712825Y-88791810D01*
X152555192Y-88625988D01*
X152369046Y-88492966D01*
X152161103Y-88397544D01*
X151938870Y-88343164D01*
X151710363Y-88331788D01*
X151483826Y-88363827D01*
X151267435Y-88438126D01*
X151068998Y-88552001D01*
X150895674Y-88701347D01*
X150753718Y-88880772D01*
X150648251Y-89083804D01*
X150583080Y-89303117D01*
X150560556Y-89530795D01*
X149474000Y-89530795D01*
X149474000Y-88260795D01*
X153100556Y-88260795D01*
X153121490Y-88488626D01*
X153185129Y-88708389D01*
X153289176Y-88912152D01*
X153429876Y-89092564D01*
X153602152Y-89243116D01*
X153799790Y-89358375D01*
X154015657Y-89434181D01*
X154241964Y-89467801D01*
X154470546Y-89458021D01*
X154693153Y-89405194D01*
X154901756Y-89311226D01*
X155088826Y-89179506D01*
X155247614Y-89014789D01*
X155372389Y-88823017D01*
X155458651Y-88611112D01*
X155503318Y-88386557D01*
X155504137Y-88151811D01*
X155461039Y-87926950D01*
X155376259Y-87714447D01*
X155252825Y-87521810D01*
X155095192Y-87355988D01*
X154909046Y-87222966D01*
X154701103Y-87127544D01*
X154478870Y-87073164D01*
X154250363Y-87061788D01*
X154023826Y-87093827D01*
X153807435Y-87168126D01*
X153608998Y-87282001D01*
X153435674Y-87431347D01*
X153293718Y-87610772D01*
X153188251Y-87813804D01*
X153123080Y-88033117D01*
X153100556Y-88260795D01*
X149474000Y-88260795D01*
X149474000Y-86990795D01*
X150560556Y-86990795D01*
X150581490Y-87218626D01*
X150645129Y-87438389D01*
X150749176Y-87642152D01*
X150889876Y-87822564D01*
X151062152Y-87973116D01*
X151259790Y-88088375D01*
X151475657Y-88164181D01*
X151701964Y-88197801D01*
X151930546Y-88188021D01*
X152153153Y-88135194D01*
X152361756Y-88041226D01*
X152548826Y-87909506D01*
X152707614Y-87744789D01*
X152832389Y-87553017D01*
X152918651Y-87341112D01*
X152963318Y-87116557D01*
X152964137Y-86881811D01*
X152921039Y-86656950D01*
X152836259Y-86444447D01*
X152712825Y-86251810D01*
X152555192Y-86085988D01*
X152369046Y-85952966D01*
X152161103Y-85857544D01*
X151938870Y-85803164D01*
X151710363Y-85791788D01*
X151483826Y-85823827D01*
X151267435Y-85898126D01*
X151068998Y-86012001D01*
X150895674Y-86161347D01*
X150753718Y-86340772D01*
X150648251Y-86543804D01*
X150583080Y-86763117D01*
X150560556Y-86990795D01*
X149474000Y-86990795D01*
X149474000Y-84450795D01*
X150560556Y-84450795D01*
X150581490Y-84678626D01*
X150645129Y-84898389D01*
X150749176Y-85102152D01*
X150889876Y-85282564D01*
X151062152Y-85433116D01*
X151259790Y-85548375D01*
X151475657Y-85624181D01*
X151701964Y-85657801D01*
X151930546Y-85648021D01*
X152153153Y-85595194D01*
X152361756Y-85501226D01*
X152548826Y-85369506D01*
X152707614Y-85204789D01*
X152805725Y-85054000D01*
X153306987Y-85054000D01*
X153293718Y-85070772D01*
X153188251Y-85273804D01*
X153123080Y-85493117D01*
X153100556Y-85720795D01*
X153121490Y-85948626D01*
X153185129Y-86168389D01*
X153289176Y-86372152D01*
X153429876Y-86552564D01*
X153602152Y-86703116D01*
X153799790Y-86818375D01*
X154015657Y-86894181D01*
X154241964Y-86927801D01*
X154470546Y-86918021D01*
X154693153Y-86865194D01*
X154901756Y-86771226D01*
X155088826Y-86639506D01*
X155247614Y-86474789D01*
X155372389Y-86283017D01*
X155458651Y-86071112D01*
X155503318Y-85846557D01*
X155504137Y-85611811D01*
X155461039Y-85386950D01*
X155376259Y-85174447D01*
X155299081Y-85054000D01*
X156106886Y-85054000D01*
X156201001Y-85148116D01*
X156201000Y-87016531D01*
X155928030Y-87289502D01*
X155864615Y-87342712D01*
X155823223Y-87414407D01*
X155775740Y-87482219D01*
X155768524Y-87509150D01*
X155754588Y-87533287D01*
X155740215Y-87614799D01*
X155718785Y-87694776D01*
X155726001Y-87777250D01*
X155726000Y-89306554D01*
X155653502Y-89415055D01*
X155619143Y-89587787D01*
X155619143Y-90512213D01*
X155653502Y-90684945D01*
X155758265Y-90841735D01*
X155915055Y-90946498D01*
X156087787Y-90980857D01*
X156315267Y-90980857D01*
X156158391Y-91112491D01*
X156046953Y-91305508D01*
X156010163Y-91514151D01*
X156010163Y-91770000D01*
X156920000Y-91770000D01*
X156920000Y-90885163D01*
X156876740Y-90885163D01*
X156941735Y-90841735D01*
X157046498Y-90684945D01*
X157080857Y-90512213D01*
X157080857Y-89587787D01*
X157046498Y-89415055D01*
X156974000Y-89306554D01*
X156974000Y-88321113D01*
X157772030Y-89119143D01*
X157587787Y-89119143D01*
X157415055Y-89153502D01*
X157258265Y-89258265D01*
X157153502Y-89415055D01*
X157119143Y-89587787D01*
X157119143Y-90512213D01*
X157153502Y-90684945D01*
X157258265Y-90841735D01*
X157323260Y-90885163D01*
X157180000Y-90885163D01*
X157180000Y-92914837D01*
X157466325Y-92914837D01*
X157766566Y-92834388D01*
X157929453Y-92697709D01*
X157965055Y-92721498D01*
X158137787Y-92755857D01*
X158962213Y-92755857D01*
X159134945Y-92721498D01*
X159291735Y-92616735D01*
X159358398Y-92516967D01*
X159385188Y-92509789D01*
X159466712Y-92495413D01*
X159490856Y-92481474D01*
X159517782Y-92474259D01*
X159585580Y-92426786D01*
X159657287Y-92385386D01*
X159678756Y-92359800D01*
X159677654Y-92363394D01*
X159674377Y-92613723D01*
X159730663Y-92816000D01*
X159387236Y-92816000D01*
X159304777Y-92808785D01*
X159224812Y-92830211D01*
X159143287Y-92844587D01*
X159119144Y-92858526D01*
X159092219Y-92865740D01*
X159024407Y-92913222D01*
X158952713Y-92954614D01*
X158899494Y-93018038D01*
X158078031Y-93839501D01*
X158014615Y-93892712D01*
X157973223Y-93964407D01*
X157925740Y-94032219D01*
X157918524Y-94059150D01*
X157904588Y-94083287D01*
X157890215Y-94164799D01*
X157868785Y-94244776D01*
X157876001Y-94327250D01*
X157876000Y-101129143D01*
X156337787Y-101129143D01*
X156165055Y-101163502D01*
X156008265Y-101268265D01*
X155903502Y-101425055D01*
X155869143Y-101597787D01*
X155869143Y-103322213D01*
X155903502Y-103494945D01*
X156008265Y-103651735D01*
X156165055Y-103756498D01*
X156337787Y-103790857D01*
X157876000Y-103790857D01*
X157876000Y-104597764D01*
X157868785Y-104680224D01*
X157890213Y-104760194D01*
X157904587Y-104841712D01*
X157918526Y-104865855D01*
X157925740Y-104892780D01*
X157973219Y-104960589D01*
X158014614Y-105032287D01*
X158078038Y-105085506D01*
X159744143Y-106751612D01*
X159744143Y-107162213D01*
X159778502Y-107334945D01*
X159883265Y-107491735D01*
X160040055Y-107596498D01*
X160212787Y-107630857D01*
X160987213Y-107630857D01*
X161159945Y-107596498D01*
X161316735Y-107491735D01*
X161395403Y-107374000D01*
X162056553Y-107374000D01*
X162165055Y-107446499D01*
X162176000Y-107448676D01*
X162176000Y-107572764D01*
X162168785Y-107655224D01*
X162190213Y-107735194D01*
X162204587Y-107816712D01*
X162218526Y-107840855D01*
X162225740Y-107867780D01*
X162273219Y-107935589D01*
X162314614Y-108007287D01*
X162378038Y-108060506D01*
X163039501Y-108721970D01*
X163092713Y-108785386D01*
X163164405Y-108826777D01*
X163232217Y-108874259D01*
X163259144Y-108881474D01*
X163283287Y-108895413D01*
X163364809Y-108909788D01*
X163444775Y-108931215D01*
X163527235Y-108924000D01*
X163651324Y-108924000D01*
X163653501Y-108934945D01*
X163758265Y-109091735D01*
X163915055Y-109196498D01*
X164087787Y-109230857D01*
X164612213Y-109230857D01*
X164784945Y-109196498D01*
X164941735Y-109091735D01*
X165046498Y-108934945D01*
X165080857Y-108762213D01*
X165080857Y-107837787D01*
X165046498Y-107665055D01*
X164941735Y-107508265D01*
X164784945Y-107403502D01*
X164612213Y-107369143D01*
X164087787Y-107369143D01*
X163915055Y-107403502D01*
X163758265Y-107508265D01*
X163691161Y-107608693D01*
X163491307Y-107408839D01*
X163591735Y-107341735D01*
X163696498Y-107184945D01*
X163730857Y-107012213D01*
X163730857Y-106487787D01*
X163696498Y-106315055D01*
X163591735Y-106158265D01*
X163478907Y-106082876D01*
X163566566Y-106059388D01*
X163741609Y-105912509D01*
X163853047Y-105719492D01*
X163913615Y-105376000D01*
X161672563Y-105376000D01*
X161790612Y-105816566D01*
X161937491Y-105991609D01*
X162109263Y-106090781D01*
X162056554Y-106126000D01*
X161395403Y-106126000D01*
X161393801Y-106123602D01*
X161466609Y-106062509D01*
X161578047Y-105869492D01*
X161614837Y-105660849D01*
X161614837Y-105380000D01*
X160470000Y-105380000D01*
X160470000Y-105124000D01*
X161686385Y-105124000D01*
X162674000Y-105124000D01*
X162674000Y-104360163D01*
X162926000Y-104360163D01*
X162926000Y-105124000D01*
X163927437Y-105124000D01*
X163809388Y-104683435D01*
X163662509Y-104508391D01*
X163469492Y-104396953D01*
X163260849Y-104360163D01*
X162926000Y-104360163D01*
X162674000Y-104360163D01*
X162333675Y-104360163D01*
X162033435Y-104440612D01*
X161858391Y-104587491D01*
X161746953Y-104780508D01*
X161686385Y-105124000D01*
X160470000Y-105124000D01*
X160470000Y-104210163D01*
X160730000Y-104210163D01*
X160730000Y-105120000D01*
X161614837Y-105120000D01*
X161614837Y-104833675D01*
X161534388Y-104533435D01*
X161387509Y-104358391D01*
X161194492Y-104246953D01*
X160985849Y-104210163D01*
X160730000Y-104210163D01*
X160470000Y-104210163D01*
X160208675Y-104210163D01*
X159908435Y-104290612D01*
X159733391Y-104437491D01*
X159621953Y-104630508D01*
X159586880Y-104829412D01*
X159124000Y-104366532D01*
X159124000Y-104139151D01*
X164585163Y-104139151D01*
X164585163Y-104420000D01*
X165470000Y-104420000D01*
X165470000Y-103510163D01*
X165730000Y-103510163D01*
X165730000Y-104420000D01*
X166614837Y-104420000D01*
X166614837Y-104133675D01*
X166534388Y-103833435D01*
X166387509Y-103658391D01*
X166194492Y-103546953D01*
X165985849Y-103510163D01*
X165730000Y-103510163D01*
X165470000Y-103510163D01*
X165208675Y-103510163D01*
X164908435Y-103590612D01*
X164733391Y-103737491D01*
X164621953Y-103930508D01*
X164585163Y-104139151D01*
X159124000Y-104139151D01*
X159124000Y-103632224D01*
X159214058Y-103681223D01*
X159445415Y-103756619D01*
X159686639Y-103788591D01*
X159929648Y-103776068D01*
X160166308Y-103719470D01*
X160388688Y-103620691D01*
X160589346Y-103483042D01*
X160761557Y-103311130D01*
X160899558Y-103110713D01*
X160923530Y-103056998D01*
X160972887Y-103169705D01*
X161111153Y-103379792D01*
X161282838Y-103563582D01*
X161483036Y-103715815D01*
X161706021Y-103832141D01*
X161945418Y-103909234D01*
X162150000Y-103938532D01*
X162150000Y-102590000D01*
X162410000Y-102590000D01*
X162410000Y-103945205D01*
X162692466Y-103889020D01*
X162927343Y-103799094D01*
X163143711Y-103670878D01*
X163335383Y-103508041D01*
X163496879Y-103315237D01*
X163623580Y-103097979D01*
X163711864Y-102862479D01*
X163764089Y-102590000D01*
X162410000Y-102590000D01*
X162150000Y-102590000D01*
X162150000Y-102330000D01*
X162410000Y-102330000D01*
X163761197Y-102330000D01*
X163719979Y-102087596D01*
X163636646Y-101850299D01*
X163514522Y-101630435D01*
X163357100Y-101434291D01*
X163168881Y-101267476D01*
X162955245Y-101134757D01*
X162722302Y-101039932D01*
X162410000Y-100970982D01*
X162410000Y-102330000D01*
X162150000Y-102330000D01*
X162150000Y-100982848D01*
X161975842Y-101004077D01*
X161734883Y-101076140D01*
X161509510Y-101187770D01*
X161306168Y-101335778D01*
X161130671Y-101515930D01*
X160988037Y-101723077D01*
X160924843Y-101859527D01*
X160806091Y-101665360D01*
X160643428Y-101484387D01*
X160450508Y-101336087D01*
X160233794Y-101225428D01*
X160000543Y-101156114D01*
X159758565Y-101130467D01*
X159515966Y-101149347D01*
X159280870Y-101212122D01*
X159124000Y-101286777D01*
X159124000Y-94558468D01*
X159618468Y-94064000D01*
X161039143Y-94064000D01*
X161039143Y-94552213D01*
X161073502Y-94724945D01*
X161178265Y-94881735D01*
X161335055Y-94986498D01*
X161507787Y-95020857D01*
X162732213Y-95020857D01*
X162803279Y-95006721D01*
X162789143Y-95077787D01*
X162789143Y-96302213D01*
X162823502Y-96474945D01*
X162928265Y-96631735D01*
X163085055Y-96736498D01*
X163257787Y-96770857D01*
X163771001Y-96770857D01*
X163771000Y-99943864D01*
X163764075Y-100023011D01*
X163784641Y-100099765D01*
X163798442Y-100178031D01*
X163811823Y-100201207D01*
X163818748Y-100227051D01*
X163864324Y-100292142D01*
X163904061Y-100360969D01*
X163964937Y-100412050D01*
X167457957Y-103905071D01*
X167509031Y-103965939D01*
X167577846Y-104005669D01*
X167642947Y-104051253D01*
X167668796Y-104058179D01*
X167691969Y-104071558D01*
X167770228Y-104085357D01*
X167846988Y-104105925D01*
X167926138Y-104099000D01*
X169047403Y-104099000D01*
X169027654Y-104163394D01*
X169024377Y-104413723D01*
X169041706Y-104476000D01*
X168827235Y-104476000D01*
X168744775Y-104468785D01*
X168664805Y-104490213D01*
X168583287Y-104504587D01*
X168559144Y-104518526D01*
X168532219Y-104525740D01*
X168464407Y-104573222D01*
X168392713Y-104614614D01*
X168339494Y-104678038D01*
X168158036Y-104859496D01*
X168094614Y-104912713D01*
X168053219Y-104984411D01*
X168005740Y-105052220D01*
X167998526Y-105079145D01*
X167984587Y-105103288D01*
X167970213Y-105184806D01*
X167948785Y-105264776D01*
X167956000Y-105347239D01*
X167956000Y-105381379D01*
X167895055Y-105393502D01*
X167738265Y-105498265D01*
X167633502Y-105655055D01*
X167599143Y-105827787D01*
X167599143Y-106016000D01*
X166455857Y-106016000D01*
X166455857Y-105637787D01*
X166421498Y-105465054D01*
X166393801Y-105423602D01*
X166466609Y-105362509D01*
X166578047Y-105169492D01*
X166614837Y-104960849D01*
X166614837Y-104680000D01*
X164585163Y-104680000D01*
X164585163Y-104966325D01*
X164665612Y-105266566D01*
X164802291Y-105429453D01*
X164778502Y-105465055D01*
X164744143Y-105637787D01*
X164744143Y-106462213D01*
X164778502Y-106634945D01*
X164883265Y-106791735D01*
X165040055Y-106896498D01*
X165212787Y-106930857D01*
X165598388Y-106930857D01*
X165729501Y-107061970D01*
X165782713Y-107125386D01*
X165854409Y-107166779D01*
X165922219Y-107214260D01*
X165949144Y-107221474D01*
X165973287Y-107235413D01*
X166054805Y-107249787D01*
X166134775Y-107271215D01*
X166217238Y-107264000D01*
X167599143Y-107264000D01*
X167599143Y-107452213D01*
X167633502Y-107624945D01*
X167667616Y-107676000D01*
X166548676Y-107676000D01*
X166546499Y-107665055D01*
X166441735Y-107508265D01*
X166284945Y-107403502D01*
X166112213Y-107369143D01*
X165587787Y-107369143D01*
X165415055Y-107403502D01*
X165258265Y-107508265D01*
X165153502Y-107665055D01*
X165119143Y-107837787D01*
X165119143Y-108762213D01*
X165153502Y-108934945D01*
X165258265Y-109091735D01*
X165415055Y-109196498D01*
X165587787Y-109230857D01*
X166112213Y-109230857D01*
X166284945Y-109196498D01*
X166441735Y-109091735D01*
X166546499Y-108934945D01*
X166548676Y-108924000D01*
X168172764Y-108924000D01*
X168255224Y-108931215D01*
X168335188Y-108909789D01*
X168416712Y-108895413D01*
X168440856Y-108881474D01*
X168467782Y-108874259D01*
X168535580Y-108826786D01*
X168607287Y-108785386D01*
X168660505Y-108721963D01*
X169001970Y-108380498D01*
X169065386Y-108327288D01*
X169106784Y-108255583D01*
X169154258Y-108187783D01*
X169161473Y-108160860D01*
X169175414Y-108136711D01*
X169189788Y-108055189D01*
X169211215Y-107975225D01*
X169204504Y-107898521D01*
X169264945Y-107886498D01*
X169421735Y-107781735D01*
X169526498Y-107624945D01*
X169560857Y-107452213D01*
X169560857Y-105827787D01*
X169540212Y-105724000D01*
X170819788Y-105724000D01*
X170799143Y-105827787D01*
X170799143Y-107452213D01*
X170833502Y-107624945D01*
X170938265Y-107781735D01*
X171095055Y-107886498D01*
X171267787Y-107920857D01*
X172292213Y-107920857D01*
X172464945Y-107886498D01*
X172621735Y-107781735D01*
X172726498Y-107624945D01*
X172760857Y-107452213D01*
X172760857Y-105827787D01*
X172740212Y-105724000D01*
X172886606Y-105724000D01*
X173010085Y-105834597D01*
X173235954Y-105942572D01*
X173483049Y-105982814D01*
X173731507Y-105952088D01*
X173961354Y-105852862D01*
X174119143Y-105722096D01*
X174119143Y-105962213D01*
X174153502Y-106134945D01*
X174258265Y-106291735D01*
X174415055Y-106396498D01*
X174587787Y-106430857D01*
X175112213Y-106430857D01*
X175284945Y-106396498D01*
X175441735Y-106291735D01*
X175546498Y-106134945D01*
X175580857Y-105962213D01*
X175580857Y-105037787D01*
X175546498Y-104865055D01*
X175441735Y-104708265D01*
X175284945Y-104603502D01*
X175112213Y-104569143D01*
X174966257Y-104569143D01*
X174496113Y-104099000D01*
X178757694Y-104099000D01*
X178794694Y-104158674D01*
X178944608Y-104317205D01*
X179123337Y-104442351D01*
X179253586Y-104498715D01*
X179224725Y-104507760D01*
X179033893Y-104613538D01*
X178868229Y-104755530D01*
X178755392Y-104901000D01*
X177053649Y-104901000D01*
X177046499Y-104865055D01*
X176941735Y-104708265D01*
X176784945Y-104603502D01*
X176612213Y-104569143D01*
X176087787Y-104569143D01*
X175915055Y-104603502D01*
X175758265Y-104708265D01*
X175653502Y-104865055D01*
X175619143Y-105037787D01*
X175619143Y-105962213D01*
X175653502Y-106134945D01*
X175758265Y-106291735D01*
X175915055Y-106396498D01*
X176087787Y-106430857D01*
X176612213Y-106430857D01*
X176784945Y-106396498D01*
X176941735Y-106291735D01*
X177046499Y-106134945D01*
X177053649Y-106099000D01*
X178757694Y-106099000D01*
X178794694Y-106158674D01*
X178944608Y-106317205D01*
X179090192Y-106419143D01*
X179037787Y-106419143D01*
X178865055Y-106453502D01*
X178708265Y-106558265D01*
X178603502Y-106715055D01*
X178569143Y-106887787D01*
X178569143Y-108112213D01*
X178603502Y-108284945D01*
X178708265Y-108441735D01*
X178865055Y-108546498D01*
X179037787Y-108580857D01*
X180762213Y-108580857D01*
X180934945Y-108546498D01*
X181091735Y-108441735D01*
X181196498Y-108284945D01*
X181230857Y-108112213D01*
X181230857Y-108101736D01*
X181266712Y-108095413D01*
X181290856Y-108081474D01*
X181317782Y-108074259D01*
X181385580Y-108026786D01*
X181457287Y-107985386D01*
X181510506Y-107921962D01*
X182421972Y-107010497D01*
X182485386Y-106957288D01*
X182526780Y-106885591D01*
X182574260Y-106817781D01*
X182581474Y-106790856D01*
X182595413Y-106766713D01*
X182609789Y-106685189D01*
X182631215Y-106605224D01*
X182624000Y-106522762D01*
X182624000Y-95227235D01*
X182631215Y-95144775D01*
X182609788Y-95064811D01*
X182595414Y-94983289D01*
X182581473Y-94959140D01*
X182574258Y-94932217D01*
X182526784Y-94864416D01*
X182485386Y-94792713D01*
X182421968Y-94739499D01*
X182245227Y-94562758D01*
X182331507Y-94552088D01*
X182561354Y-94452862D01*
X182716845Y-94324000D01*
X183772764Y-94324000D01*
X183855224Y-94331215D01*
X183935188Y-94309789D01*
X184016712Y-94295413D01*
X184040856Y-94281474D01*
X184067782Y-94274259D01*
X184135580Y-94226786D01*
X184207287Y-94185386D01*
X184260505Y-94121963D01*
X184621972Y-93760497D01*
X184685386Y-93707288D01*
X184726777Y-93635594D01*
X184774259Y-93567783D01*
X184781474Y-93540856D01*
X184795413Y-93516713D01*
X184809788Y-93435191D01*
X184831215Y-93355225D01*
X184824000Y-93272765D01*
X184824000Y-88927236D01*
X184831215Y-88844776D01*
X184809789Y-88764812D01*
X184795413Y-88683288D01*
X184781474Y-88659144D01*
X184774259Y-88632218D01*
X184726782Y-88564416D01*
X184685386Y-88492713D01*
X184621957Y-88439490D01*
X184455505Y-88273037D01*
X184402287Y-88209614D01*
X184330580Y-88168214D01*
X184262782Y-88120741D01*
X184235856Y-88113526D01*
X184211712Y-88099587D01*
X184130188Y-88085211D01*
X184050224Y-88063785D01*
X183967762Y-88071000D01*
X183428585Y-88071000D01*
X183416735Y-88053265D01*
X183259945Y-87948502D01*
X183087213Y-87914143D01*
X181512787Y-87914143D01*
X181340055Y-87948502D01*
X181183265Y-88053265D01*
X181078502Y-88210055D01*
X181064237Y-88281768D01*
X179872891Y-87090423D01*
X179874385Y-86976330D01*
X179873031Y-86971686D01*
X180031507Y-86952088D01*
X180261354Y-86852862D01*
X180454114Y-86693114D01*
X180594289Y-86485686D01*
X180670848Y-86246516D01*
X180674385Y-85976330D01*
X180604113Y-85735238D01*
X180469415Y-85524212D01*
X180280904Y-85359473D01*
X180053733Y-85254264D01*
X179806164Y-85217044D01*
X179558100Y-85250804D01*
X179329482Y-85352830D01*
X179184503Y-85476000D01*
X178527235Y-85476000D01*
X178444775Y-85468785D01*
X178364805Y-85490213D01*
X178283287Y-85504587D01*
X178259144Y-85518526D01*
X178232219Y-85525740D01*
X178196045Y-85551069D01*
X179555073Y-84192041D01*
X179615939Y-84140969D01*
X179655674Y-84072146D01*
X179701252Y-84007052D01*
X179708177Y-83981208D01*
X179721558Y-83958032D01*
X179735359Y-83879766D01*
X179755925Y-83803012D01*
X179749000Y-83723862D01*
X179749000Y-83280862D01*
X179846499Y-83134945D01*
X179848676Y-83124000D01*
X180651324Y-83124000D01*
X180653501Y-83134945D01*
X180726001Y-83243448D01*
X180726000Y-84004597D01*
X180608265Y-84083265D01*
X180503502Y-84240055D01*
X180469143Y-84412787D01*
X180469143Y-85187213D01*
X180503502Y-85359945D01*
X180608265Y-85516735D01*
X180765055Y-85621498D01*
X180937787Y-85655857D01*
X181762213Y-85655857D01*
X181934946Y-85621498D01*
X181976398Y-85593801D01*
X182037491Y-85666609D01*
X182230508Y-85778047D01*
X182439151Y-85814837D01*
X182720000Y-85814837D01*
X182720000Y-84930000D01*
X182980000Y-84930000D01*
X182980000Y-85814837D01*
X183266325Y-85814837D01*
X183566566Y-85734388D01*
X183741609Y-85587509D01*
X183853047Y-85394492D01*
X183889837Y-85185849D01*
X183889837Y-84930000D01*
X182980000Y-84930000D01*
X182720000Y-84930000D01*
X182720000Y-83785163D01*
X182980000Y-83785163D01*
X182980000Y-84670000D01*
X183889837Y-84670000D01*
X183889837Y-84408675D01*
X183809388Y-84108435D01*
X183662509Y-83933391D01*
X183469492Y-83821953D01*
X183260849Y-83785163D01*
X182980000Y-83785163D01*
X182720000Y-83785163D01*
X182433675Y-83785163D01*
X182133435Y-83865612D01*
X181974000Y-83999394D01*
X181974000Y-83243446D01*
X182017124Y-83178907D01*
X182040612Y-83266566D01*
X182187491Y-83441609D01*
X182380508Y-83553047D01*
X182724000Y-83613615D01*
X182724000Y-82626000D01*
X182976000Y-82626000D01*
X182976000Y-83627437D01*
X183416566Y-83509388D01*
X183591609Y-83362509D01*
X183703047Y-83169492D01*
X183739837Y-82960849D01*
X183739837Y-82626000D01*
X182976000Y-82626000D01*
X182724000Y-82626000D01*
X182724000Y-82374000D01*
X182976000Y-82374000D01*
X183739837Y-82374000D01*
X183739837Y-82033675D01*
X183659388Y-81733435D01*
X183512509Y-81558391D01*
X183319492Y-81446953D01*
X182976000Y-81386385D01*
X182976000Y-82374000D01*
X182724000Y-82374000D01*
X182724000Y-81372563D01*
X182283435Y-81490612D01*
X182108391Y-81637491D01*
X182009219Y-81809263D01*
X181941735Y-81708265D01*
X181784945Y-81603502D01*
X181612213Y-81569143D01*
X181087787Y-81569143D01*
X180915055Y-81603502D01*
X180758265Y-81708265D01*
X180653501Y-81865055D01*
X180651324Y-81876000D01*
X179848676Y-81876000D01*
X179846499Y-81865055D01*
X179741735Y-81708265D01*
X179584945Y-81603502D01*
X179412213Y-81569143D01*
X178887787Y-81569143D01*
X178715055Y-81603502D01*
X178558265Y-81708265D01*
X178453502Y-81865055D01*
X178419143Y-82037787D01*
X178419143Y-82962213D01*
X178453502Y-83134945D01*
X178551000Y-83280863D01*
X178551000Y-83501886D01*
X174818895Y-87233992D01*
X174706164Y-87217044D01*
X174458100Y-87250804D01*
X174229482Y-87352830D01*
X174038689Y-87514922D01*
X173901059Y-87724047D01*
X173831928Y-87949460D01*
X173724000Y-87841532D01*
X173724000Y-81637787D01*
X173869143Y-81637787D01*
X173869143Y-83362213D01*
X173903502Y-83534945D01*
X174008265Y-83691735D01*
X174165055Y-83796498D01*
X174337787Y-83830857D01*
X176062213Y-83830857D01*
X176234945Y-83796498D01*
X176391735Y-83691735D01*
X176496498Y-83534945D01*
X176530857Y-83362213D01*
X176530857Y-83124000D01*
X176951324Y-83124000D01*
X176953501Y-83134945D01*
X177058265Y-83291735D01*
X177215055Y-83396498D01*
X177387787Y-83430857D01*
X177912213Y-83430857D01*
X178084945Y-83396498D01*
X178241735Y-83291735D01*
X178346498Y-83134945D01*
X178380857Y-82962213D01*
X178380857Y-82037787D01*
X178346498Y-81865055D01*
X178241735Y-81708265D01*
X178084945Y-81603502D01*
X177912213Y-81569143D01*
X177387787Y-81569143D01*
X177215055Y-81603502D01*
X177058265Y-81708265D01*
X176953501Y-81865055D01*
X176951324Y-81876000D01*
X176530857Y-81876000D01*
X176530857Y-81637787D01*
X176496498Y-81465055D01*
X176391735Y-81308265D01*
X176234945Y-81203502D01*
X176062213Y-81169143D01*
X174337787Y-81169143D01*
X174165055Y-81203502D01*
X174008265Y-81308265D01*
X173903502Y-81465055D01*
X173869143Y-81637787D01*
X173724000Y-81637787D01*
X173724000Y-79424000D01*
X176510683Y-79424000D01*
X176593143Y-79431215D01*
X176659823Y-79413348D01*
X176713473Y-79506461D01*
X176871344Y-79691630D01*
X177060315Y-79844929D01*
X177274058Y-79961223D01*
X177505415Y-80036619D01*
X177746639Y-80068591D01*
X177989648Y-80056068D01*
X178226308Y-79999470D01*
X178448688Y-79900691D01*
X178649346Y-79763042D01*
X178821557Y-79591130D01*
X178909095Y-79464000D01*
X181326415Y-79464000D01*
X181338265Y-79481735D01*
X181495055Y-79586498D01*
X181667787Y-79620857D01*
X182492213Y-79620857D01*
X182664945Y-79586498D01*
X182821735Y-79481735D01*
X182880000Y-79394535D01*
X182938265Y-79481735D01*
X183095055Y-79586498D01*
X183267787Y-79620857D01*
X184092213Y-79620857D01*
X184264945Y-79586498D01*
X184421735Y-79481735D01*
X184433585Y-79464000D01*
X185303006Y-79464000D01*
X185348265Y-79531735D01*
X185505055Y-79636498D01*
X185677787Y-79670857D01*
X186202213Y-79670857D01*
X186374945Y-79636498D01*
X186531735Y-79531735D01*
X186607124Y-79418907D01*
X186630612Y-79506566D01*
X186777491Y-79681609D01*
X186970508Y-79793047D01*
X187314000Y-79853615D01*
X187314000Y-78866000D01*
X187566000Y-78866000D01*
X187566000Y-79867437D01*
X188006566Y-79749388D01*
X188181609Y-79602509D01*
X188293047Y-79409492D01*
X188329837Y-79200849D01*
X188329837Y-78866000D01*
X187566000Y-78866000D01*
X187314000Y-78866000D01*
X187314000Y-78614000D01*
X187566000Y-78614000D01*
X188329837Y-78614000D01*
X188329837Y-78273675D01*
X188249388Y-77973435D01*
X188102509Y-77798391D01*
X187909492Y-77686953D01*
X187566000Y-77626385D01*
X187566000Y-78614000D01*
X187314000Y-78614000D01*
X187314000Y-77612563D01*
X186873435Y-77730612D01*
X186698391Y-77877491D01*
X186599219Y-78049263D01*
X186531735Y-77948265D01*
X186374945Y-77843502D01*
X186202213Y-77809143D01*
X185677787Y-77809143D01*
X185505055Y-77843502D01*
X185348265Y-77948265D01*
X185303006Y-78016000D01*
X184433585Y-78016000D01*
X184421735Y-77998265D01*
X184264945Y-77893502D01*
X184092213Y-77859143D01*
X183267787Y-77859143D01*
X183095055Y-77893502D01*
X182938265Y-77998265D01*
X182880000Y-78085465D01*
X182821735Y-77998265D01*
X182664945Y-77893502D01*
X182492213Y-77859143D01*
X181667787Y-77859143D01*
X181495055Y-77893502D01*
X181338265Y-77998265D01*
X181326415Y-78016000D01*
X178909295Y-78016000D01*
X178866091Y-77945360D01*
X178703428Y-77764387D01*
X178510508Y-77616087D01*
X178293794Y-77505428D01*
X178178009Y-77471021D01*
X178226308Y-77459470D01*
X178448688Y-77360691D01*
X178649346Y-77223042D01*
X178821557Y-77051130D01*
X178909095Y-76924000D01*
X181326415Y-76924000D01*
X181338265Y-76941735D01*
X181495055Y-77046498D01*
X181667787Y-77080857D01*
X182492213Y-77080857D01*
X182664945Y-77046498D01*
X182821735Y-76941735D01*
X182880000Y-76854535D01*
X182938265Y-76941735D01*
X183095055Y-77046498D01*
X183267787Y-77080857D01*
X184092213Y-77080857D01*
X184264945Y-77046498D01*
X184421735Y-76941735D01*
X184433585Y-76924000D01*
X185303006Y-76924000D01*
X185348265Y-76991735D01*
X185505055Y-77096498D01*
X185677787Y-77130857D01*
X186202213Y-77130857D01*
X186374945Y-77096498D01*
X186531735Y-76991735D01*
X186607124Y-76878907D01*
X186630612Y-76966566D01*
X186777491Y-77141609D01*
X186970508Y-77253047D01*
X187314000Y-77313615D01*
X187314000Y-76326000D01*
X187566000Y-76326000D01*
X187566000Y-77327437D01*
X188006566Y-77209388D01*
X188181609Y-77062509D01*
X188293047Y-76869492D01*
X188329837Y-76660849D01*
X188329837Y-76326000D01*
X187566000Y-76326000D01*
X187314000Y-76326000D01*
X187314000Y-76074000D01*
X187566000Y-76074000D01*
X188329837Y-76074000D01*
X188329837Y-75733675D01*
X188249388Y-75433435D01*
X188102509Y-75258391D01*
X187909492Y-75146953D01*
X187566000Y-75086385D01*
X187566000Y-76074000D01*
X187314000Y-76074000D01*
X187314000Y-75072563D01*
X186873435Y-75190612D01*
X186698391Y-75337491D01*
X186599219Y-75509263D01*
X186531735Y-75408265D01*
X186374945Y-75303502D01*
X186202213Y-75269143D01*
X185677787Y-75269143D01*
X185505055Y-75303502D01*
X185348265Y-75408265D01*
X185303006Y-75476000D01*
X184433585Y-75476000D01*
X184421735Y-75458265D01*
X184264945Y-75353502D01*
X184092213Y-75319143D01*
X183267787Y-75319143D01*
X183095055Y-75353502D01*
X182938265Y-75458265D01*
X182880000Y-75545465D01*
X182821735Y-75458265D01*
X182664945Y-75353502D01*
X182492213Y-75319143D01*
X181667787Y-75319143D01*
X181495055Y-75353502D01*
X181338265Y-75458265D01*
X181326415Y-75476000D01*
X178909295Y-75476000D01*
X178866091Y-75405360D01*
X178703428Y-75224387D01*
X178510508Y-75076087D01*
X178293794Y-74965428D01*
X178178009Y-74931021D01*
X178226308Y-74919470D01*
X178448688Y-74820691D01*
X178649346Y-74683042D01*
X178821557Y-74511130D01*
X178909095Y-74384000D01*
X181326415Y-74384000D01*
X181338265Y-74401735D01*
X181495055Y-74506498D01*
X181667787Y-74540857D01*
X182492213Y-74540857D01*
X182664945Y-74506498D01*
X182821735Y-74401735D01*
X182880000Y-74314535D01*
X182938265Y-74401735D01*
X183095055Y-74506498D01*
X183267787Y-74540857D01*
X184092213Y-74540857D01*
X184264945Y-74506498D01*
X184421735Y-74401735D01*
X184433585Y-74384000D01*
X185303006Y-74384000D01*
X185348265Y-74451735D01*
X185505055Y-74556498D01*
X185677787Y-74590857D01*
X186202213Y-74590857D01*
X186374945Y-74556498D01*
X186531735Y-74451735D01*
X186607124Y-74338907D01*
X186630612Y-74426566D01*
X186777491Y-74601609D01*
X186970508Y-74713047D01*
X187314000Y-74773615D01*
X187314000Y-73786000D01*
X187566000Y-73786000D01*
X187566000Y-74787437D01*
X188006566Y-74669388D01*
X188181609Y-74522509D01*
X188293047Y-74329492D01*
X188329837Y-74120849D01*
X188329837Y-73786000D01*
X187566000Y-73786000D01*
X187314000Y-73786000D01*
X187314000Y-73534000D01*
X187566000Y-73534000D01*
X188329837Y-73534000D01*
X188329837Y-73193675D01*
X188249388Y-72893435D01*
X188102509Y-72718391D01*
X187909492Y-72606953D01*
X187566000Y-72546385D01*
X187566000Y-73534000D01*
X187314000Y-73534000D01*
X187314000Y-72532563D01*
X186873435Y-72650612D01*
X186698391Y-72797491D01*
X186599219Y-72969263D01*
X186531735Y-72868265D01*
X186374945Y-72763502D01*
X186202213Y-72729143D01*
X185677787Y-72729143D01*
X185505055Y-72763502D01*
X185348265Y-72868265D01*
X185303006Y-72936000D01*
X184433585Y-72936000D01*
X184421735Y-72918265D01*
X184264945Y-72813502D01*
X184092213Y-72779143D01*
X183267787Y-72779143D01*
X183095055Y-72813502D01*
X182938265Y-72918265D01*
X182880000Y-73005465D01*
X182821735Y-72918265D01*
X182664945Y-72813502D01*
X182492213Y-72779143D01*
X181667787Y-72779143D01*
X181495055Y-72813502D01*
X181338265Y-72918265D01*
X181326415Y-72936000D01*
X178909295Y-72936000D01*
X178866091Y-72865360D01*
X178703428Y-72684387D01*
X178510508Y-72536087D01*
X178293794Y-72425428D01*
X178178009Y-72391021D01*
X178226308Y-72379470D01*
X178448688Y-72280691D01*
X178649346Y-72143042D01*
X178821557Y-71971130D01*
X178909095Y-71844000D01*
X181326415Y-71844000D01*
X181338265Y-71861735D01*
X181495055Y-71966498D01*
X181667787Y-72000857D01*
X182492213Y-72000857D01*
X182664945Y-71966498D01*
X182821735Y-71861735D01*
X182880000Y-71774535D01*
X182938265Y-71861735D01*
X183095055Y-71966498D01*
X183267787Y-72000857D01*
X184092213Y-72000857D01*
X184264945Y-71966498D01*
X184421735Y-71861735D01*
X184433585Y-71844000D01*
X185303006Y-71844000D01*
X185348265Y-71911735D01*
X185505055Y-72016498D01*
X185677787Y-72050857D01*
X186202213Y-72050857D01*
X186374945Y-72016498D01*
X186531735Y-71911735D01*
X186607124Y-71798907D01*
X186630612Y-71886566D01*
X186777491Y-72061609D01*
X186970508Y-72173047D01*
X187314000Y-72233615D01*
X187314000Y-71246000D01*
X187566000Y-71246000D01*
X187566000Y-72247437D01*
X188006566Y-72129388D01*
X188181609Y-71982509D01*
X188293047Y-71789492D01*
X188329837Y-71580849D01*
X188329837Y-71246000D01*
X187566000Y-71246000D01*
X187314000Y-71246000D01*
X187314000Y-70994000D01*
X187566000Y-70994000D01*
X188329837Y-70994000D01*
X188329837Y-70653675D01*
X188249388Y-70353435D01*
X188102509Y-70178391D01*
X187909492Y-70066953D01*
X187566000Y-70006385D01*
X187566000Y-70994000D01*
X187314000Y-70994000D01*
X187314000Y-69992563D01*
X186873435Y-70110612D01*
X186698391Y-70257491D01*
X186599219Y-70429263D01*
X186531735Y-70328265D01*
X186374945Y-70223502D01*
X186202213Y-70189143D01*
X185677787Y-70189143D01*
X185505055Y-70223502D01*
X185348265Y-70328265D01*
X185303006Y-70396000D01*
X184433585Y-70396000D01*
X184421735Y-70378265D01*
X184264945Y-70273502D01*
X184092213Y-70239143D01*
X183267787Y-70239143D01*
X183095055Y-70273502D01*
X182938265Y-70378265D01*
X182880000Y-70465465D01*
X182821735Y-70378265D01*
X182664945Y-70273502D01*
X182492213Y-70239143D01*
X181667787Y-70239143D01*
X181495055Y-70273502D01*
X181338265Y-70378265D01*
X181326415Y-70396000D01*
X178909295Y-70396000D01*
X178866091Y-70325360D01*
X178703428Y-70144387D01*
X178510508Y-69996087D01*
X178293794Y-69885428D01*
X178178009Y-69851021D01*
X178226308Y-69839470D01*
X178448688Y-69740691D01*
X178649346Y-69603042D01*
X178821557Y-69431130D01*
X178909095Y-69304000D01*
X181326415Y-69304000D01*
X181338265Y-69321735D01*
X181495055Y-69426498D01*
X181667787Y-69460857D01*
X182492213Y-69460857D01*
X182664945Y-69426498D01*
X182821735Y-69321735D01*
X182880000Y-69234535D01*
X182938265Y-69321735D01*
X183095055Y-69426498D01*
X183267787Y-69460857D01*
X184092213Y-69460857D01*
X184264945Y-69426498D01*
X184421735Y-69321735D01*
X184433585Y-69304000D01*
X185303006Y-69304000D01*
X185348265Y-69371735D01*
X185505055Y-69476498D01*
X185677787Y-69510857D01*
X186202213Y-69510857D01*
X186374945Y-69476498D01*
X186531735Y-69371735D01*
X186607124Y-69258907D01*
X186630612Y-69346566D01*
X186777491Y-69521609D01*
X186970508Y-69633047D01*
X187314000Y-69693615D01*
X187314000Y-68706000D01*
X187566000Y-68706000D01*
X187566000Y-69707437D01*
X188006566Y-69589388D01*
X188181609Y-69442509D01*
X188293047Y-69249492D01*
X188329837Y-69040849D01*
X188329837Y-68706000D01*
X187566000Y-68706000D01*
X187314000Y-68706000D01*
X187314000Y-68454000D01*
X187566000Y-68454000D01*
X188329837Y-68454000D01*
X188329837Y-68113675D01*
X188249388Y-67813435D01*
X188102509Y-67638391D01*
X187909492Y-67526953D01*
X187566000Y-67466385D01*
X187566000Y-68454000D01*
X187314000Y-68454000D01*
X187314000Y-67452563D01*
X186873435Y-67570612D01*
X186698391Y-67717491D01*
X186599219Y-67889263D01*
X186531735Y-67788265D01*
X186374945Y-67683502D01*
X186202213Y-67649143D01*
X185677787Y-67649143D01*
X185505055Y-67683502D01*
X185348265Y-67788265D01*
X185303006Y-67856000D01*
X184433585Y-67856000D01*
X184421735Y-67838265D01*
X184264945Y-67733502D01*
X184092213Y-67699143D01*
X183267787Y-67699143D01*
X183095055Y-67733502D01*
X182938265Y-67838265D01*
X182880000Y-67925465D01*
X182821735Y-67838265D01*
X182664945Y-67733502D01*
X182492213Y-67699143D01*
X181667787Y-67699143D01*
X181495055Y-67733502D01*
X181338265Y-67838265D01*
X181326415Y-67856000D01*
X178909295Y-67856000D01*
X178866091Y-67785360D01*
X178703428Y-67604387D01*
X178510508Y-67456087D01*
X178293794Y-67345428D01*
X178178009Y-67311021D01*
X178226308Y-67299470D01*
X178448688Y-67200691D01*
X178649346Y-67063042D01*
X178821557Y-66891130D01*
X178909095Y-66764000D01*
X181326415Y-66764000D01*
X181338265Y-66781735D01*
X181495055Y-66886498D01*
X181667787Y-66920857D01*
X182492213Y-66920857D01*
X182664945Y-66886498D01*
X182821735Y-66781735D01*
X182880000Y-66694535D01*
X182938265Y-66781735D01*
X183095055Y-66886498D01*
X183267787Y-66920857D01*
X184092213Y-66920857D01*
X184264945Y-66886498D01*
X184421735Y-66781735D01*
X184433585Y-66764000D01*
X185303006Y-66764000D01*
X185348265Y-66831735D01*
X185505055Y-66936498D01*
X185677787Y-66970857D01*
X186202213Y-66970857D01*
X186374945Y-66936498D01*
X186531735Y-66831735D01*
X186607124Y-66718907D01*
X186630612Y-66806566D01*
X186777491Y-66981609D01*
X186970508Y-67093047D01*
X187314000Y-67153615D01*
X187314000Y-66166000D01*
X187566000Y-66166000D01*
X187566000Y-67167437D01*
X188006566Y-67049388D01*
X188181609Y-66902509D01*
X188293047Y-66709492D01*
X188329837Y-66500849D01*
X188329837Y-66166000D01*
X187566000Y-66166000D01*
X187314000Y-66166000D01*
X187314000Y-65914000D01*
X187566000Y-65914000D01*
X188329837Y-65914000D01*
X188329837Y-65573675D01*
X188249388Y-65273435D01*
X188102509Y-65098391D01*
X187909492Y-64986953D01*
X187566000Y-64926385D01*
X187566000Y-65914000D01*
X187314000Y-65914000D01*
X187314000Y-64912563D01*
X186873435Y-65030612D01*
X186698391Y-65177491D01*
X186599219Y-65349263D01*
X186531735Y-65248265D01*
X186374945Y-65143502D01*
X186202213Y-65109143D01*
X185677787Y-65109143D01*
X185505055Y-65143502D01*
X185348265Y-65248265D01*
X185303006Y-65316000D01*
X184433585Y-65316000D01*
X184421735Y-65298265D01*
X184264945Y-65193502D01*
X184092213Y-65159143D01*
X183267787Y-65159143D01*
X183095055Y-65193502D01*
X182938265Y-65298265D01*
X182880000Y-65385465D01*
X182821735Y-65298265D01*
X182664945Y-65193502D01*
X182492213Y-65159143D01*
X181667787Y-65159143D01*
X181495055Y-65193502D01*
X181338265Y-65298265D01*
X181326415Y-65316000D01*
X178909295Y-65316000D01*
X178866091Y-65245360D01*
X178703428Y-65064387D01*
X178510508Y-64916087D01*
X178293794Y-64805428D01*
X178178009Y-64771021D01*
X178226308Y-64759470D01*
X178448688Y-64660691D01*
X178649346Y-64523042D01*
X178821557Y-64351130D01*
X178909095Y-64224000D01*
X181326415Y-64224000D01*
X181338265Y-64241735D01*
X181495055Y-64346498D01*
X181667787Y-64380857D01*
X182492213Y-64380857D01*
X182664945Y-64346498D01*
X182821735Y-64241735D01*
X182880000Y-64154535D01*
X182938265Y-64241735D01*
X183095055Y-64346498D01*
X183267787Y-64380857D01*
X184092213Y-64380857D01*
X184264945Y-64346498D01*
X184421735Y-64241735D01*
X184433585Y-64224000D01*
X185303006Y-64224000D01*
X185348265Y-64291735D01*
X185505055Y-64396498D01*
X185677787Y-64430857D01*
X186202213Y-64430857D01*
X186374945Y-64396498D01*
X186531735Y-64291735D01*
X186607124Y-64178907D01*
X186630612Y-64266566D01*
X186777491Y-64441609D01*
X186970508Y-64553047D01*
X187314000Y-64613615D01*
X187314000Y-63626000D01*
X187566000Y-63626000D01*
X187566000Y-64627437D01*
X188006566Y-64509388D01*
X188181609Y-64362509D01*
X188293047Y-64169492D01*
X188329837Y-63960849D01*
X188329837Y-63626000D01*
X187566000Y-63626000D01*
X187314000Y-63626000D01*
X187314000Y-63374000D01*
X187566000Y-63374000D01*
X188329837Y-63374000D01*
X188329837Y-63033675D01*
X188249388Y-62733435D01*
X188102509Y-62558391D01*
X187909492Y-62446953D01*
X187566000Y-62386385D01*
X187566000Y-63374000D01*
X187314000Y-63374000D01*
X187314000Y-62372563D01*
X186873435Y-62490612D01*
X186698391Y-62637491D01*
X186599219Y-62809263D01*
X186531735Y-62708265D01*
X186374945Y-62603502D01*
X186202213Y-62569143D01*
X185677787Y-62569143D01*
X185505055Y-62603502D01*
X185348265Y-62708265D01*
X185303006Y-62776000D01*
X184433585Y-62776000D01*
X184421735Y-62758265D01*
X184264945Y-62653502D01*
X184092213Y-62619143D01*
X183267787Y-62619143D01*
X183095055Y-62653502D01*
X182938265Y-62758265D01*
X182880000Y-62845465D01*
X182821735Y-62758265D01*
X182664945Y-62653502D01*
X182492213Y-62619143D01*
X181667787Y-62619143D01*
X181495055Y-62653502D01*
X181338265Y-62758265D01*
X181326415Y-62776000D01*
X178909295Y-62776000D01*
X178866091Y-62705360D01*
X178703428Y-62524387D01*
X178510508Y-62376087D01*
X178343594Y-62290857D01*
X178662213Y-62290857D01*
X178834945Y-62256498D01*
X178991735Y-62151735D01*
X179096498Y-61994945D01*
X179130857Y-61822213D01*
X179130857Y-61684000D01*
X181326415Y-61684000D01*
X181338265Y-61701735D01*
X181495055Y-61806498D01*
X181667787Y-61840857D01*
X182492213Y-61840857D01*
X182664945Y-61806498D01*
X182821735Y-61701735D01*
X182880000Y-61614535D01*
X182938265Y-61701735D01*
X183095055Y-61806498D01*
X183267787Y-61840857D01*
X184092213Y-61840857D01*
X184264945Y-61806498D01*
X184421735Y-61701735D01*
X184433585Y-61684000D01*
X185303006Y-61684000D01*
X185348265Y-61751735D01*
X185505055Y-61856498D01*
X185677787Y-61890857D01*
X186202213Y-61890857D01*
X186374945Y-61856498D01*
X186531735Y-61751735D01*
X186607124Y-61638907D01*
X186630612Y-61726566D01*
X186777491Y-61901609D01*
X186970508Y-62013047D01*
X187314000Y-62073615D01*
X187314000Y-61086000D01*
X187566000Y-61086000D01*
X187566000Y-62087437D01*
X188006566Y-61969388D01*
X188181609Y-61822509D01*
X188293047Y-61629492D01*
X188329837Y-61420849D01*
X188329837Y-61086000D01*
X187566000Y-61086000D01*
X187314000Y-61086000D01*
X187314000Y-60834000D01*
X187566000Y-60834000D01*
X188329837Y-60834000D01*
X188329837Y-60493675D01*
X188249388Y-60193435D01*
X188102509Y-60018391D01*
X187909492Y-59906953D01*
X187566000Y-59846385D01*
X187566000Y-60834000D01*
X187314000Y-60834000D01*
X187314000Y-59832563D01*
X186873435Y-59950612D01*
X186698391Y-60097491D01*
X186599219Y-60269263D01*
X186531735Y-60168265D01*
X186374945Y-60063502D01*
X186202213Y-60029143D01*
X185677787Y-60029143D01*
X185505055Y-60063502D01*
X185348265Y-60168265D01*
X185303006Y-60236000D01*
X184433585Y-60236000D01*
X184421735Y-60218265D01*
X184264945Y-60113502D01*
X184092213Y-60079143D01*
X183267787Y-60079143D01*
X183095055Y-60113502D01*
X182938265Y-60218265D01*
X182880000Y-60305465D01*
X182821735Y-60218265D01*
X182664945Y-60113502D01*
X182492213Y-60079143D01*
X181667787Y-60079143D01*
X181495055Y-60113502D01*
X181338265Y-60218265D01*
X181326415Y-60236000D01*
X179130857Y-60236000D01*
X179130857Y-60097787D01*
X179096498Y-59925055D01*
X178991735Y-59768265D01*
X178834945Y-59663502D01*
X178662213Y-59629143D01*
X176937787Y-59629143D01*
X176765055Y-59663502D01*
X176608265Y-59768265D01*
X176503502Y-59925055D01*
X176469143Y-60097787D01*
X176469143Y-60361000D01*
X175420491Y-60361000D01*
X175341344Y-60354075D01*
X175264590Y-60374641D01*
X175186324Y-60388442D01*
X175163148Y-60401823D01*
X175137304Y-60408748D01*
X175072216Y-60454323D01*
X175003387Y-60494061D01*
X174952306Y-60554937D01*
X167449000Y-68058243D01*
X167449000Y-59251666D01*
X168193076Y-58507591D01*
X168215905Y-58493187D01*
X168279595Y-58421072D01*
X168303388Y-58397279D01*
X168318972Y-58376487D01*
X168376889Y-58310907D01*
X168391595Y-58279585D01*
X168412345Y-58251899D01*
X168443055Y-58169979D01*
X168480406Y-58090423D01*
X168485397Y-58057029D01*
X168497710Y-58024184D01*
X168505035Y-57925631D01*
X168509000Y-57899095D01*
X168509000Y-57872264D01*
X168515733Y-57781663D01*
X168509000Y-57750121D01*
X168509000Y-57370857D01*
X168522213Y-57370857D01*
X168694945Y-57336498D01*
X168851735Y-57231735D01*
X168956498Y-57074945D01*
X168990857Y-56902213D01*
X168990857Y-56592414D01*
X168991990Y-56595622D01*
X169113473Y-56806461D01*
X169271344Y-56991630D01*
X169460315Y-57144929D01*
X169674058Y-57261223D01*
X169905415Y-57336619D01*
X170146639Y-57368591D01*
X170389648Y-57356068D01*
X170626308Y-57299470D01*
X170848688Y-57200691D01*
X171049346Y-57063042D01*
X171221557Y-56891130D01*
X171359558Y-56690713D01*
X171458724Y-56468504D01*
X171470234Y-56420743D01*
X171531990Y-56595622D01*
X171653473Y-56806461D01*
X171811344Y-56991630D01*
X172000315Y-57144929D01*
X172214058Y-57261223D01*
X172445415Y-57336619D01*
X172686639Y-57368591D01*
X172929648Y-57356068D01*
X173166308Y-57299470D01*
X173388688Y-57200691D01*
X173589346Y-57063042D01*
X173761557Y-56891130D01*
X173899558Y-56690713D01*
X173998724Y-56468504D01*
X174056119Y-56230351D01*
X174064487Y-55921101D01*
X174020055Y-55680193D01*
X173933051Y-55452947D01*
X173806091Y-55245360D01*
X173643428Y-55064387D01*
X173450508Y-54916087D01*
X173233794Y-54805428D01*
X173118009Y-54771021D01*
X173166308Y-54759470D01*
X173388688Y-54660691D01*
X173589346Y-54523042D01*
X173761557Y-54351130D01*
X173899558Y-54150713D01*
X173998724Y-53928504D01*
X174056119Y-53690351D01*
X174064487Y-53381101D01*
X174020055Y-53140193D01*
X173933051Y-52912947D01*
X173806091Y-52705360D01*
X173643428Y-52524387D01*
X173450508Y-52376087D01*
X173233794Y-52265428D01*
X173000543Y-52196114D01*
X172758565Y-52170467D01*
X172515966Y-52189347D01*
X172280870Y-52252122D01*
X172061150Y-52356687D01*
X171864165Y-52499542D01*
X171696513Y-52675903D01*
X171563806Y-52879864D01*
X171557941Y-52893988D01*
X171556646Y-52890299D01*
X171434522Y-52670435D01*
X171277100Y-52474291D01*
X171088881Y-52307476D01*
X170875245Y-52174757D01*
X170642302Y-52079932D01*
X170330000Y-52010982D01*
X170330000Y-53630000D01*
X170070000Y-53630000D01*
X170070000Y-52022848D01*
X169895842Y-52044077D01*
X169654883Y-52116140D01*
X169429510Y-52227770D01*
X169226168Y-52375778D01*
X169050671Y-52555930D01*
X168908037Y-52763077D01*
X168844843Y-52899527D01*
X168726091Y-52705360D01*
X168563428Y-52524387D01*
X168370508Y-52376087D01*
X168153794Y-52265428D01*
X167920543Y-52196114D01*
X167678565Y-52170467D01*
X167435966Y-52189347D01*
X167200870Y-52252122D01*
X166981150Y-52356687D01*
X166784165Y-52499542D01*
X166640185Y-52651000D01*
X166495117Y-52651000D01*
X166468788Y-52645042D01*
X166372763Y-52651000D01*
X166339108Y-52651000D01*
X166313387Y-52654684D01*
X166226065Y-52660102D01*
X166193523Y-52671850D01*
X166159267Y-52676756D01*
X166079619Y-52712970D01*
X165996961Y-52742810D01*
X165969822Y-52762892D01*
X165937886Y-52777412D01*
X165863017Y-52841923D01*
X165841454Y-52857879D01*
X165822488Y-52876845D01*
X165753654Y-52936155D01*
X165736108Y-52963225D01*
X165066929Y-53632405D01*
X165044094Y-53646813D01*
X164980395Y-53718939D01*
X164956610Y-53742723D01*
X164941030Y-53763512D01*
X164883111Y-53829093D01*
X164868406Y-53860414D01*
X164847654Y-53888104D01*
X164816946Y-53970020D01*
X164779594Y-54049579D01*
X164774604Y-54082972D01*
X164762290Y-54115817D01*
X164754965Y-54214370D01*
X164751000Y-54240906D01*
X164751000Y-54267737D01*
X164744267Y-54358336D01*
X164751000Y-54389878D01*
X164751001Y-68448332D01*
X164660220Y-68539113D01*
X164629482Y-68552831D01*
X164438689Y-68714922D01*
X164301059Y-68924047D01*
X164227654Y-69163394D01*
X164224377Y-69413723D01*
X164291490Y-69654911D01*
X164423600Y-69867567D01*
X164610085Y-70034597D01*
X164835954Y-70142572D01*
X165083049Y-70182814D01*
X165331507Y-70152088D01*
X165373119Y-70134124D01*
X163682033Y-71825210D01*
X163719558Y-71770713D01*
X163818724Y-71548504D01*
X163876119Y-71310351D01*
X163884487Y-71001101D01*
X163840055Y-70760193D01*
X163753051Y-70532947D01*
X163626091Y-70325360D01*
X163463428Y-70144387D01*
X163270508Y-69996087D01*
X163053794Y-69885428D01*
X162938009Y-69851021D01*
X162986308Y-69839470D01*
X163208688Y-69740691D01*
X163409346Y-69603042D01*
X163581557Y-69431130D01*
X163719558Y-69230713D01*
X163818724Y-69008504D01*
X163876119Y-68770351D01*
X163884487Y-68461101D01*
X163840055Y-68220193D01*
X163753051Y-67992947D01*
X163626091Y-67785360D01*
X163463428Y-67604387D01*
X163270508Y-67456087D01*
X163053794Y-67345428D01*
X162938009Y-67311021D01*
X162986308Y-67299470D01*
X163208688Y-67200691D01*
X163409346Y-67063042D01*
X163581557Y-66891130D01*
X163719558Y-66690713D01*
X163818724Y-66468504D01*
X163876119Y-66230351D01*
X163884487Y-65921101D01*
X163840055Y-65680193D01*
X163753051Y-65452947D01*
X163626091Y-65245360D01*
X163463428Y-65064387D01*
X163270508Y-64916087D01*
X163053794Y-64805428D01*
X162938009Y-64771021D01*
X162986308Y-64759470D01*
X163208688Y-64660691D01*
X163409346Y-64523042D01*
X163581557Y-64351130D01*
X163719558Y-64150713D01*
X163818724Y-63928504D01*
X163876119Y-63690351D01*
X163884487Y-63381101D01*
X163840055Y-63140193D01*
X163753051Y-62912947D01*
X163626091Y-62705360D01*
X163463428Y-62524387D01*
X163366448Y-62449837D01*
X163426325Y-62449837D01*
X163726566Y-62369388D01*
X163901609Y-62222509D01*
X164013047Y-62029492D01*
X164049837Y-61820849D01*
X164049837Y-61090000D01*
X161070163Y-61090000D01*
X161070163Y-61169496D01*
X160249000Y-60348334D01*
X160249000Y-60099151D01*
X161070163Y-60099151D01*
X161070163Y-60830000D01*
X162430000Y-60830000D01*
X162430000Y-59470163D01*
X162690000Y-59470163D01*
X162690000Y-60830000D01*
X164049837Y-60830000D01*
X164049837Y-60093675D01*
X163969388Y-59793435D01*
X163822509Y-59618391D01*
X163629492Y-59506953D01*
X163420849Y-59470163D01*
X162690000Y-59470163D01*
X162430000Y-59470163D01*
X161693675Y-59470163D01*
X161393435Y-59550612D01*
X161218391Y-59697491D01*
X161106953Y-59890508D01*
X161070163Y-60099151D01*
X160249000Y-60099151D01*
X160249000Y-58114769D01*
X160263646Y-58069016D01*
X160387491Y-58216609D01*
X160580508Y-58328047D01*
X160789151Y-58364837D01*
X161170000Y-58364837D01*
X161170000Y-57230000D01*
X161430000Y-57230000D01*
X161430000Y-58364837D01*
X161816325Y-58364837D01*
X162116566Y-58284388D01*
X162291609Y-58137509D01*
X162403047Y-57944492D01*
X162439837Y-57735849D01*
X162439837Y-57230000D01*
X161430000Y-57230000D01*
X161170000Y-57230000D01*
X161170000Y-55835163D01*
X161430000Y-55835163D01*
X161430000Y-56970000D01*
X162439837Y-56970000D01*
X162439837Y-56458675D01*
X162359388Y-56158435D01*
X162212509Y-55983391D01*
X162019492Y-55871953D01*
X161810849Y-55835163D01*
X161430000Y-55835163D01*
X161170000Y-55835163D01*
X160783675Y-55835163D01*
X160483435Y-55915612D01*
X160308391Y-56062491D01*
X160209219Y-56234263D01*
X160152015Y-56148651D01*
X160483073Y-55817594D01*
X160505906Y-55803187D01*
X160569601Y-55731066D01*
X160593389Y-55707278D01*
X160608968Y-55686492D01*
X160666889Y-55620908D01*
X160681594Y-55589587D01*
X160702346Y-55561897D01*
X160733060Y-55479966D01*
X160770406Y-55400424D01*
X160775397Y-55367031D01*
X160787711Y-55334182D01*
X160795035Y-55235626D01*
X160799000Y-55209096D01*
X160799000Y-55182268D01*
X160805733Y-55091663D01*
X160799000Y-55060121D01*
X160799000Y-54887107D01*
X160941735Y-54791735D01*
X161046498Y-54634945D01*
X161080857Y-54462213D01*
X161080857Y-53730000D01*
X162160163Y-53730000D01*
X162160163Y-54466325D01*
X162240612Y-54766566D01*
X162387491Y-54941609D01*
X162580508Y-55053047D01*
X162789151Y-55089837D01*
X163320000Y-55089837D01*
X163320000Y-53730000D01*
X163580000Y-53730000D01*
X163580000Y-55089837D01*
X164116325Y-55089837D01*
X164416566Y-55009388D01*
X164591609Y-54862509D01*
X164703047Y-54669492D01*
X164739837Y-54460849D01*
X164739837Y-53730000D01*
X163580000Y-53730000D01*
X163320000Y-53730000D01*
X162160163Y-53730000D01*
X161080857Y-53730000D01*
X161080857Y-52739151D01*
X162160163Y-52739151D01*
X162160163Y-53470000D01*
X163320000Y-53470000D01*
X163320000Y-52110163D01*
X163580000Y-52110163D01*
X163580000Y-53470000D01*
X164739837Y-53470000D01*
X164739837Y-52733675D01*
X164659388Y-52433435D01*
X164512509Y-52258391D01*
X164319492Y-52146953D01*
X164110849Y-52110163D01*
X163580000Y-52110163D01*
X163320000Y-52110163D01*
X162783675Y-52110163D01*
X162483435Y-52190612D01*
X162308391Y-52337491D01*
X162196953Y-52530508D01*
X162160163Y-52739151D01*
X161080857Y-52739151D01*
X161080857Y-52737787D01*
X161046498Y-52565055D01*
X160941735Y-52408265D01*
X160784945Y-52303502D01*
X160612213Y-52269143D01*
X159287787Y-52269143D01*
X159115055Y-52303502D01*
X158958265Y-52408265D01*
X158853502Y-52565055D01*
X158819143Y-52737787D01*
X158819143Y-54462213D01*
X158853502Y-54634945D01*
X158958265Y-54791735D01*
X159047784Y-54851550D01*
X158766930Y-55132404D01*
X158744094Y-55146813D01*
X158680395Y-55218939D01*
X158656610Y-55242723D01*
X158641030Y-55263512D01*
X158583111Y-55329093D01*
X158568406Y-55360414D01*
X158547654Y-55388104D01*
X158516946Y-55470020D01*
X158479594Y-55549579D01*
X158474604Y-55582972D01*
X158462290Y-55615817D01*
X158454965Y-55714370D01*
X158451000Y-55740906D01*
X158451000Y-55767737D01*
X158444267Y-55858336D01*
X158451000Y-55889878D01*
X158451000Y-56144137D01*
X158379597Y-56251000D01*
X157730857Y-56251000D01*
X157730857Y-56137787D01*
X157696498Y-55965055D01*
X157591735Y-55808265D01*
X157434945Y-55703502D01*
X157262213Y-55669143D01*
X155737787Y-55669143D01*
X155565055Y-55703502D01*
X155408265Y-55808265D01*
X155350000Y-55895465D01*
X155291735Y-55808265D01*
X155134945Y-55703502D01*
X155049000Y-55686406D01*
X155049000Y-52330857D01*
X156112213Y-52330857D01*
X156284945Y-52296498D01*
X156441735Y-52191735D01*
X156546498Y-52034945D01*
X156580857Y-51862213D01*
X156580857Y-49837787D01*
X156546498Y-49665055D01*
X156441735Y-49508265D01*
X156284945Y-49403502D01*
X156112213Y-49369143D01*
X152287787Y-49369143D01*
X152115055Y-49403502D01*
X151958265Y-49508265D01*
X151853502Y-49665055D01*
X151819143Y-49837787D01*
X151819143Y-51862213D01*
X151853502Y-52034945D01*
X151958265Y-52191735D01*
X152115055Y-52296498D01*
X152287787Y-52330857D01*
X153351000Y-52330857D01*
X153351001Y-55686406D01*
X153265055Y-55703502D01*
X153159527Y-55774013D01*
X153062509Y-55658391D01*
X152869492Y-55546953D01*
X152660849Y-55510163D01*
X152030000Y-55510163D01*
X152030000Y-58789837D01*
X152666325Y-58789837D01*
X152966566Y-58709388D01*
X153141609Y-58562509D01*
X153161813Y-58527514D01*
X153265055Y-58596498D01*
X153437787Y-58630857D01*
X153476001Y-58630857D01*
X153476000Y-59054597D01*
X153358265Y-59133265D01*
X153282876Y-59246093D01*
X153259388Y-59158435D01*
X153112509Y-58983391D01*
X152919492Y-58871953D01*
X152710849Y-58835163D01*
X152330000Y-58835163D01*
X152330000Y-61364837D01*
X152716325Y-61364837D01*
X153016566Y-61284388D01*
X153191609Y-61137509D01*
X153290781Y-60965737D01*
X153358265Y-61066735D01*
X153515055Y-61171498D01*
X153687787Y-61205857D01*
X154712213Y-61205857D01*
X154884945Y-61171498D01*
X155041735Y-61066735D01*
X155146498Y-60909945D01*
X155180857Y-60737213D01*
X155180857Y-60724000D01*
X157441532Y-60724000D01*
X158676001Y-61958469D01*
X158676000Y-63983223D01*
X158638689Y-64014922D01*
X158501059Y-64224047D01*
X158427654Y-64463394D01*
X158424377Y-64713723D01*
X158491490Y-64954911D01*
X158623600Y-65167567D01*
X158649762Y-65191000D01*
X155455117Y-65191000D01*
X155428788Y-65185042D01*
X155332763Y-65191000D01*
X155299108Y-65191000D01*
X155273387Y-65194684D01*
X155186064Y-65200102D01*
X155153521Y-65211850D01*
X155119267Y-65216756D01*
X155039611Y-65252973D01*
X154956960Y-65282811D01*
X154929826Y-65302889D01*
X154897886Y-65317412D01*
X154823010Y-65381929D01*
X154801455Y-65397879D01*
X154782496Y-65416838D01*
X154713654Y-65476156D01*
X154696108Y-65503226D01*
X154548861Y-65650473D01*
X154442575Y-65527338D01*
X154255434Y-65375795D01*
X154044416Y-65259787D01*
X154014513Y-65249723D01*
X154195563Y-65162201D01*
X154390378Y-65020659D01*
X154557049Y-64846856D01*
X154690308Y-64646285D01*
X154785944Y-64425285D01*
X154841306Y-64189248D01*
X154849372Y-63881209D01*
X154806438Y-63642599D01*
X154722501Y-63416896D01*
X154599922Y-63209626D01*
X154442575Y-63027338D01*
X154255434Y-62875795D01*
X154044416Y-62759787D01*
X153816188Y-62682980D01*
X153577967Y-62647802D01*
X153337282Y-62655366D01*
X153101739Y-62705432D01*
X152878785Y-62796417D01*
X152675466Y-62925447D01*
X152498211Y-63088443D01*
X152352621Y-63280251D01*
X152243298Y-63494809D01*
X152173698Y-63725336D01*
X152146020Y-63964545D01*
X152161141Y-64204874D01*
X152218580Y-64438728D01*
X152316525Y-64658714D01*
X152451876Y-64857878D01*
X152620359Y-65029927D01*
X152816646Y-65169421D01*
X152990041Y-65251015D01*
X152878785Y-65296417D01*
X152675466Y-65425447D01*
X152498211Y-65588443D01*
X152352621Y-65780251D01*
X152243298Y-65994809D01*
X152173698Y-66225336D01*
X152146020Y-66464545D01*
X152161141Y-66704874D01*
X152218580Y-66938728D01*
X152316525Y-67158714D01*
X152451876Y-67357878D01*
X152620359Y-67529927D01*
X152816646Y-67669421D01*
X152990041Y-67751015D01*
X152878785Y-67796417D01*
X152675466Y-67925447D01*
X152498211Y-68088443D01*
X152352621Y-68280251D01*
X152243298Y-68494809D01*
X152173698Y-68725336D01*
X152146020Y-68964545D01*
X152161141Y-69204874D01*
X152218580Y-69438728D01*
X152316525Y-69658714D01*
X152451876Y-69857878D01*
X152620359Y-70029927D01*
X152816646Y-70169421D01*
X152990041Y-70251015D01*
X152878785Y-70296417D01*
X152675466Y-70425447D01*
X152498211Y-70588443D01*
X152352621Y-70780251D01*
X152243298Y-70994809D01*
X152173698Y-71225336D01*
X152146020Y-71464545D01*
X152161141Y-71704874D01*
X152218580Y-71938728D01*
X152316525Y-72158714D01*
X152451876Y-72357878D01*
X152620359Y-72529927D01*
X152781076Y-72644143D01*
X152612787Y-72644143D01*
X152440055Y-72678502D01*
X152283265Y-72783265D01*
X152178502Y-72940055D01*
X152144143Y-73112787D01*
X152144143Y-74887213D01*
X152178502Y-75059945D01*
X152283265Y-75216735D01*
X152440055Y-75321498D01*
X152612787Y-75355857D01*
X154387213Y-75355857D01*
X154559945Y-75321498D01*
X154716735Y-75216735D01*
X154821498Y-75059945D01*
X154855857Y-74887213D01*
X154855857Y-74849000D01*
X158075420Y-74849000D01*
X158283049Y-74882814D01*
X158531507Y-74852088D01*
X158761354Y-74752862D01*
X158954114Y-74593114D01*
X159094289Y-74385686D01*
X159170848Y-74146516D01*
X159174385Y-73876330D01*
X159104113Y-73635238D01*
X159049067Y-73549000D01*
X160248334Y-73549000D01*
X160892406Y-74193073D01*
X160906813Y-74215906D01*
X160978933Y-74279600D01*
X161002722Y-74303389D01*
X161023508Y-74318968D01*
X161089092Y-74376889D01*
X161120413Y-74391594D01*
X161148103Y-74412346D01*
X161230019Y-74443054D01*
X161309578Y-74480406D01*
X161342972Y-74485397D01*
X161375817Y-74497710D01*
X161474356Y-74505032D01*
X161500902Y-74509000D01*
X161527735Y-74509000D01*
X161544934Y-74510278D01*
X161631344Y-74611630D01*
X161820315Y-74764929D01*
X162034058Y-74881223D01*
X162183726Y-74929998D01*
X162100870Y-74952122D01*
X161881150Y-75056687D01*
X161684165Y-75199542D01*
X161516513Y-75375903D01*
X161383806Y-75579864D01*
X161290491Y-75804592D01*
X161239692Y-76042563D01*
X161233109Y-76285806D01*
X161270965Y-76526176D01*
X161351990Y-76755622D01*
X161473473Y-76966461D01*
X161631344Y-77151630D01*
X161820315Y-77304929D01*
X162034058Y-77421223D01*
X162183726Y-77469998D01*
X162100870Y-77492122D01*
X161881150Y-77596687D01*
X161684165Y-77739542D01*
X161516513Y-77915903D01*
X161386319Y-78116000D01*
X160898469Y-78116000D01*
X160758264Y-77975796D01*
X160780857Y-77862213D01*
X160780857Y-76937787D01*
X160746498Y-76765055D01*
X160641735Y-76608265D01*
X160484945Y-76503502D01*
X160312213Y-76469143D01*
X159787787Y-76469143D01*
X159615055Y-76503502D01*
X159458265Y-76608265D01*
X159353502Y-76765055D01*
X159319143Y-76937787D01*
X159319143Y-77862213D01*
X159353502Y-78034945D01*
X159424400Y-78141051D01*
X159418785Y-78205224D01*
X159440215Y-78285201D01*
X159454588Y-78366713D01*
X159468524Y-78390850D01*
X159475740Y-78417781D01*
X159523223Y-78485593D01*
X159564615Y-78557287D01*
X159628032Y-78610500D01*
X160179501Y-79161970D01*
X160232713Y-79225386D01*
X160304409Y-79266779D01*
X160372219Y-79314260D01*
X160399144Y-79321474D01*
X160423287Y-79335413D01*
X160504805Y-79349787D01*
X160584775Y-79371215D01*
X160667238Y-79364000D01*
X161391389Y-79364000D01*
X161473473Y-79506461D01*
X161631344Y-79691630D01*
X161820315Y-79844929D01*
X162034058Y-79961223D01*
X162265415Y-80036619D01*
X162506639Y-80068591D01*
X162749648Y-80056068D01*
X162986308Y-79999470D01*
X163175999Y-79915212D01*
X163175999Y-85412452D01*
X163169074Y-85491599D01*
X163189640Y-85568353D01*
X163203441Y-85646619D01*
X163216822Y-85669795D01*
X163223747Y-85695639D01*
X163269323Y-85760730D01*
X163309060Y-85829557D01*
X163369936Y-85880638D01*
X163439461Y-85950163D01*
X163253675Y-85950163D01*
X163124001Y-85984909D01*
X163124001Y-83427237D01*
X163131216Y-83344778D01*
X163109790Y-83264813D01*
X163095414Y-83183288D01*
X163081475Y-83159145D01*
X163074261Y-83132220D01*
X163026779Y-83064408D01*
X162985387Y-82992714D01*
X162921963Y-82939495D01*
X160172891Y-80190423D01*
X160174385Y-80076330D01*
X160104113Y-79835238D01*
X159969415Y-79624212D01*
X159780904Y-79459473D01*
X159553733Y-79354264D01*
X159306164Y-79317044D01*
X159058100Y-79350804D01*
X158829482Y-79452830D01*
X158638689Y-79614922D01*
X158568986Y-79720833D01*
X158226189Y-79378036D01*
X158172972Y-79314614D01*
X158101265Y-79273214D01*
X158033467Y-79225741D01*
X158006541Y-79218526D01*
X157982397Y-79204587D01*
X157900873Y-79190211D01*
X157820909Y-79168785D01*
X157738447Y-79176000D01*
X157453699Y-79176000D01*
X157391735Y-79083265D01*
X157249000Y-78987893D01*
X157249000Y-78980862D01*
X157346498Y-78834946D01*
X157364132Y-78746294D01*
X157422137Y-78705680D01*
X157490970Y-78665938D01*
X157542050Y-78605063D01*
X157957109Y-78190005D01*
X157958265Y-78191735D01*
X158115055Y-78296498D01*
X158287787Y-78330857D01*
X158812213Y-78330857D01*
X158984945Y-78296498D01*
X159141735Y-78191735D01*
X159246498Y-78034945D01*
X159280857Y-77862213D01*
X159280857Y-76937787D01*
X159246498Y-76765055D01*
X159141735Y-76608265D01*
X158984945Y-76503502D01*
X158812213Y-76469143D01*
X158287787Y-76469143D01*
X158115055Y-76503502D01*
X157958265Y-76608265D01*
X157853501Y-76765055D01*
X157847716Y-76794139D01*
X157846988Y-76794075D01*
X157770228Y-76814643D01*
X157691969Y-76828442D01*
X157668796Y-76841821D01*
X157642947Y-76848747D01*
X157577846Y-76894331D01*
X157509031Y-76934061D01*
X157457955Y-76994931D01*
X157123574Y-77329313D01*
X157084946Y-77303502D01*
X156912213Y-77269143D01*
X156387787Y-77269143D01*
X156215055Y-77303502D01*
X156058265Y-77408265D01*
X155982876Y-77521093D01*
X155959388Y-77433435D01*
X155812509Y-77258391D01*
X155619492Y-77146953D01*
X155276000Y-77086385D01*
X155276000Y-78326000D01*
X154260163Y-78326000D01*
X154260163Y-78666325D01*
X154335566Y-78947734D01*
X154258391Y-79012491D01*
X154146953Y-79205508D01*
X154110163Y-79414151D01*
X154110163Y-79670000D01*
X155280000Y-79670000D01*
X155280000Y-80814837D01*
X155566325Y-80814837D01*
X155866566Y-80734388D01*
X156029453Y-80597709D01*
X156065055Y-80621498D01*
X156237787Y-80655857D01*
X157062213Y-80655857D01*
X157234945Y-80621498D01*
X157391735Y-80516735D01*
X157453699Y-80424000D01*
X157507217Y-80424000D01*
X160993212Y-83909996D01*
X160951059Y-83974047D01*
X160877654Y-84213394D01*
X160874377Y-84463723D01*
X160941490Y-84704911D01*
X161073600Y-84917567D01*
X161260085Y-85084597D01*
X161485954Y-85192572D01*
X161733049Y-85232814D01*
X161876002Y-85215135D01*
X161876001Y-87401531D01*
X161698031Y-87579501D01*
X161634615Y-87632712D01*
X161593223Y-87704407D01*
X161545740Y-87772219D01*
X161538524Y-87799150D01*
X161524588Y-87823287D01*
X161518265Y-87859143D01*
X161507787Y-87859143D01*
X161335055Y-87893502D01*
X161178265Y-87998265D01*
X161073502Y-88155055D01*
X161039143Y-88327787D01*
X161039143Y-88841000D01*
X160588114Y-88841000D01*
X160299000Y-88551887D01*
X160299000Y-86262371D01*
X160330857Y-86102213D01*
X160330857Y-84077787D01*
X160296498Y-83905055D01*
X160191735Y-83748265D01*
X160034945Y-83643502D01*
X159862213Y-83609143D01*
X159537787Y-83609143D01*
X159365054Y-83643502D01*
X159355640Y-83649793D01*
X159312509Y-83598391D01*
X159119492Y-83486953D01*
X158776000Y-83426385D01*
X158776000Y-86767437D01*
X159101000Y-86680354D01*
X159101001Y-88117477D01*
X158399000Y-87415477D01*
X158399000Y-86696308D01*
X158724000Y-86753615D01*
X158724000Y-83412563D01*
X158283435Y-83530612D01*
X158142712Y-83648692D01*
X158134945Y-83643502D01*
X157962213Y-83609143D01*
X157637787Y-83609143D01*
X157465055Y-83643502D01*
X157308265Y-83748265D01*
X157203502Y-83905055D01*
X157169143Y-84077787D01*
X157169143Y-84422029D01*
X156797048Y-84049935D01*
X156745970Y-83989062D01*
X156677137Y-83949320D01*
X156612052Y-83903748D01*
X156586208Y-83896823D01*
X156563030Y-83883441D01*
X156484768Y-83869642D01*
X156408012Y-83849075D01*
X156328861Y-83856000D01*
X154560365Y-83856000D01*
X154680767Y-83681140D01*
X154776189Y-83467322D01*
X154831431Y-83238103D01*
X154839480Y-82940652D01*
X154796715Y-82708781D01*
X154712996Y-82490116D01*
X154590831Y-82290369D01*
X154434309Y-82116230D01*
X154248676Y-81973531D01*
X154040145Y-81867051D01*
X153815703Y-81800355D01*
X153582864Y-81775677D01*
X153349426Y-81793843D01*
X153123209Y-81854247D01*
X152911787Y-81954863D01*
X152722240Y-82092323D01*
X152560919Y-82262025D01*
X152433224Y-82458283D01*
X152343433Y-82674524D01*
X152294552Y-82903508D01*
X152288218Y-83137566D01*
X152324644Y-83368858D01*
X152334646Y-83397180D01*
X152161103Y-83317544D01*
X151938870Y-83263164D01*
X151710363Y-83251788D01*
X151483826Y-83283827D01*
X151267435Y-83358126D01*
X151068998Y-83472001D01*
X150895674Y-83621347D01*
X150753718Y-83800772D01*
X150648251Y-84003804D01*
X150583080Y-84223117D01*
X150560556Y-84450795D01*
X149474000Y-84450795D01*
X149474000Y-79930000D01*
X154110163Y-79930000D01*
X154110163Y-80191325D01*
X154190612Y-80491566D01*
X154337491Y-80666609D01*
X154530508Y-80778047D01*
X154739151Y-80814837D01*
X155020000Y-80814837D01*
X155020000Y-79930000D01*
X154110163Y-79930000D01*
X149474000Y-79930000D01*
X149474000Y-77739151D01*
X154260163Y-77739151D01*
X154260163Y-78074000D01*
X155024000Y-78074000D01*
X155024000Y-77072563D01*
X154583435Y-77190612D01*
X154408391Y-77337491D01*
X154296953Y-77530508D01*
X154260163Y-77739151D01*
X149474000Y-77739151D01*
X149474000Y-60230000D01*
X151060163Y-60230000D01*
X151060163Y-60741325D01*
X151140612Y-61041566D01*
X151287491Y-61216609D01*
X151480508Y-61328047D01*
X151689151Y-61364837D01*
X152070000Y-61364837D01*
X152070000Y-60230000D01*
X151060163Y-60230000D01*
X149474000Y-60230000D01*
X149474000Y-59464151D01*
X151060163Y-59464151D01*
X151060163Y-59970000D01*
X152070000Y-59970000D01*
X152070000Y-58835163D01*
X151683675Y-58835163D01*
X151383435Y-58915612D01*
X151208391Y-59062491D01*
X151096953Y-59255508D01*
X151060163Y-59464151D01*
X149474000Y-59464151D01*
X149474000Y-57280000D01*
X150510163Y-57280000D01*
X150510163Y-58166325D01*
X150590612Y-58466566D01*
X150737491Y-58641609D01*
X150930508Y-58753047D01*
X151139151Y-58789837D01*
X151770000Y-58789837D01*
X151770000Y-57280000D01*
X150510163Y-57280000D01*
X149474000Y-57280000D01*
X149474000Y-56139151D01*
X150510163Y-56139151D01*
X150510163Y-57020000D01*
X151770000Y-57020000D01*
X151770000Y-55510163D01*
X151133675Y-55510163D01*
X150833435Y-55590612D01*
X150658391Y-55737491D01*
X150546953Y-55930508D01*
X150510163Y-56139151D01*
X149474000Y-56139151D01*
X149474000Y-50196336D01*
X151196337Y-48474000D01*
X186803664Y-48474000D01*
X188526000Y-50196337D01*
G36*
X178830000Y-97089837D02*
G01*
X179091325Y-97089837D01*
X179391566Y-97009388D01*
X179566609Y-96862509D01*
X179651788Y-96714974D01*
X179665612Y-96766566D01*
X179812491Y-96941609D01*
X180005508Y-97053047D01*
X180214151Y-97089837D01*
X180470000Y-97089837D01*
X180470000Y-95920000D01*
X180730000Y-95920000D01*
X180730000Y-97089837D01*
X180991325Y-97089837D01*
X181291566Y-97009388D01*
X181376001Y-96938539D01*
X181376000Y-101341726D01*
X181375255Y-101325620D01*
X181320176Y-101097076D01*
X181222873Y-100883071D01*
X181086859Y-100691325D01*
X180917039Y-100528759D01*
X180719544Y-100401238D01*
X180498655Y-100312217D01*
X180193697Y-100268000D01*
X180030000Y-100268000D01*
X180030000Y-101630000D01*
X178414050Y-101630000D01*
X178479824Y-101902924D01*
X178577127Y-102116929D01*
X178713141Y-102308675D01*
X178882961Y-102471241D01*
X179071261Y-102592825D01*
X179033893Y-102613538D01*
X178868229Y-102755530D01*
X178755392Y-102901000D01*
X174353408Y-102901000D01*
X174370848Y-102846517D01*
X174372637Y-102709831D01*
X175712468Y-101370000D01*
X178423965Y-101370000D01*
X179770000Y-101370000D01*
X179770000Y-100268000D01*
X179591284Y-100268000D01*
X179415975Y-100284726D01*
X179190394Y-100350904D01*
X178981397Y-100458545D01*
X178796526Y-100603763D01*
X178642449Y-100781321D01*
X178524728Y-100984810D01*
X178447608Y-101206891D01*
X178423965Y-101370000D01*
X175712468Y-101370000D01*
X177721964Y-99360504D01*
X177785386Y-99307288D01*
X177826778Y-99235593D01*
X177874260Y-99167781D01*
X177881474Y-99140856D01*
X177895413Y-99116713D01*
X177909789Y-99035189D01*
X177931215Y-98955224D01*
X177924000Y-98872762D01*
X177924000Y-96948254D01*
X178105508Y-97053047D01*
X178314151Y-97089837D01*
X178570000Y-97089837D01*
X178570000Y-95920000D01*
X178830000Y-95920000D01*
X178830000Y-97089837D01*
G37*
X178830000Y-97089837D02*
X179091325Y-97089837D01*
X179391566Y-97009388D01*
X179566609Y-96862509D01*
X179651788Y-96714974D01*
X179665612Y-96766566D01*
X179812491Y-96941609D01*
X180005508Y-97053047D01*
X180214151Y-97089837D01*
X180470000Y-97089837D01*
X180470000Y-95920000D01*
X180730000Y-95920000D01*
X180730000Y-97089837D01*
X180991325Y-97089837D01*
X181291566Y-97009388D01*
X181376001Y-96938539D01*
X181376000Y-101341726D01*
X181375255Y-101325620D01*
X181320176Y-101097076D01*
X181222873Y-100883071D01*
X181086859Y-100691325D01*
X180917039Y-100528759D01*
X180719544Y-100401238D01*
X180498655Y-100312217D01*
X180193697Y-100268000D01*
X180030000Y-100268000D01*
X180030000Y-101630000D01*
X178414050Y-101630000D01*
X178479824Y-101902924D01*
X178577127Y-102116929D01*
X178713141Y-102308675D01*
X178882961Y-102471241D01*
X179071261Y-102592825D01*
X179033893Y-102613538D01*
X178868229Y-102755530D01*
X178755392Y-102901000D01*
X174353408Y-102901000D01*
X174370848Y-102846517D01*
X174372637Y-102709831D01*
X175712468Y-101370000D01*
X178423965Y-101370000D01*
X179770000Y-101370000D01*
X179770000Y-100268000D01*
X179591284Y-100268000D01*
X179415975Y-100284726D01*
X179190394Y-100350904D01*
X178981397Y-100458545D01*
X178796526Y-100603763D01*
X178642449Y-100781321D01*
X178524728Y-100984810D01*
X178447608Y-101206891D01*
X178423965Y-101370000D01*
X175712468Y-101370000D01*
X177721964Y-99360504D01*
X177785386Y-99307288D01*
X177826778Y-99235593D01*
X177874260Y-99167781D01*
X177881474Y-99140856D01*
X177895413Y-99116713D01*
X177909789Y-99035189D01*
X177931215Y-98955224D01*
X177924000Y-98872762D01*
X177924000Y-96948254D01*
X178105508Y-97053047D01*
X178314151Y-97089837D01*
X178570000Y-97089837D01*
X178570000Y-95920000D01*
X178830000Y-95920000D01*
X178830000Y-97089837D01*
G36*
X169300000Y-94452116D02*
G01*
X169300000Y-95560000D01*
X170109837Y-95560000D01*
X170109837Y-95073675D01*
X170095684Y-95020857D01*
X170518389Y-95020857D01*
X171419501Y-95921970D01*
X171472713Y-95985386D01*
X171544409Y-96026779D01*
X171612219Y-96074260D01*
X171639144Y-96081474D01*
X171663287Y-96095413D01*
X171744805Y-96109787D01*
X171824775Y-96131215D01*
X171853448Y-96128706D01*
X171783391Y-96187491D01*
X171671953Y-96380508D01*
X171635163Y-96589151D01*
X171635163Y-96870000D01*
X172780000Y-96870000D01*
X172780000Y-98039837D01*
X173041325Y-98039837D01*
X173341566Y-97959388D01*
X173516609Y-97812509D01*
X173549017Y-97756376D01*
X173662491Y-97891609D01*
X173855508Y-98003047D01*
X174064151Y-98039837D01*
X174320000Y-98039837D01*
X174320000Y-97130000D01*
X174580000Y-97130000D01*
X174580000Y-98039837D01*
X174841325Y-98039837D01*
X175141566Y-97959388D01*
X175316609Y-97812509D01*
X175428047Y-97619492D01*
X175464837Y-97410849D01*
X175464837Y-97130000D01*
X174580000Y-97130000D01*
X174320000Y-97130000D01*
X174320000Y-96870000D01*
X175464837Y-96870000D01*
X175464837Y-96583675D01*
X175384388Y-96283435D01*
X175247709Y-96120547D01*
X175271498Y-96084945D01*
X175305857Y-95912213D01*
X175305857Y-95087787D01*
X175271498Y-94915055D01*
X175237384Y-94864000D01*
X176632764Y-94864000D01*
X176670758Y-94867324D01*
X176676000Y-94927239D01*
X176676001Y-98641531D01*
X173499594Y-101817938D01*
X173258100Y-101850804D01*
X173029482Y-101952830D01*
X172919837Y-102045981D01*
X172919837Y-101770000D01*
X170640163Y-101770000D01*
X170640163Y-101998649D01*
X170599000Y-101962676D01*
X170599000Y-100829151D01*
X170640163Y-100829151D01*
X170640163Y-101510000D01*
X171650000Y-101510000D01*
X171650000Y-100200163D01*
X171910000Y-100200163D01*
X171910000Y-101510000D01*
X172919837Y-101510000D01*
X172919837Y-100823675D01*
X172839388Y-100523435D01*
X172692509Y-100348391D01*
X172499492Y-100236953D01*
X172290849Y-100200163D01*
X171910000Y-100200163D01*
X171650000Y-100200163D01*
X171263675Y-100200163D01*
X170963435Y-100280612D01*
X170788391Y-100427491D01*
X170676953Y-100620508D01*
X170640163Y-100829151D01*
X170599000Y-100829151D01*
X170599000Y-100526135D01*
X170605925Y-100446988D01*
X170585359Y-100370234D01*
X170571558Y-100291968D01*
X170558177Y-100268792D01*
X170551252Y-100242948D01*
X170505674Y-100177854D01*
X170465939Y-100109031D01*
X170405069Y-100057955D01*
X168969000Y-98621887D01*
X168969000Y-97130000D01*
X171635163Y-97130000D01*
X171635163Y-97416325D01*
X171715612Y-97716566D01*
X171862491Y-97891609D01*
X172055508Y-98003047D01*
X172264151Y-98039837D01*
X172520000Y-98039837D01*
X172520000Y-97130000D01*
X171635163Y-97130000D01*
X168969000Y-97130000D01*
X168969000Y-96929837D01*
X169040000Y-96929837D01*
X169040000Y-96589434D01*
X169116498Y-96474945D01*
X169150857Y-96302213D01*
X169150857Y-95820000D01*
X169300000Y-95820000D01*
X169300000Y-96929837D01*
X169486325Y-96929837D01*
X169786566Y-96849388D01*
X169961609Y-96702509D01*
X170073047Y-96509492D01*
X170109837Y-96300849D01*
X170109837Y-95820000D01*
X169300000Y-95820000D01*
X169150857Y-95820000D01*
X169150857Y-95077787D01*
X169116498Y-94905055D01*
X169040000Y-94790566D01*
X169040000Y-94450163D01*
X168853675Y-94450163D01*
X168605841Y-94516570D01*
X168694289Y-94385686D01*
X168770848Y-94146516D01*
X168773737Y-93925852D01*
X169300000Y-94452116D01*
G37*
X169300000Y-94452116D02*
X169300000Y-95560000D01*
X170109837Y-95560000D01*
X170109837Y-95073675D01*
X170095684Y-95020857D01*
X170518389Y-95020857D01*
X171419501Y-95921970D01*
X171472713Y-95985386D01*
X171544409Y-96026779D01*
X171612219Y-96074260D01*
X171639144Y-96081474D01*
X171663287Y-96095413D01*
X171744805Y-96109787D01*
X171824775Y-96131215D01*
X171853448Y-96128706D01*
X171783391Y-96187491D01*
X171671953Y-96380508D01*
X171635163Y-96589151D01*
X171635163Y-96870000D01*
X172780000Y-96870000D01*
X172780000Y-98039837D01*
X173041325Y-98039837D01*
X173341566Y-97959388D01*
X173516609Y-97812509D01*
X173549017Y-97756376D01*
X173662491Y-97891609D01*
X173855508Y-98003047D01*
X174064151Y-98039837D01*
X174320000Y-98039837D01*
X174320000Y-97130000D01*
X174580000Y-97130000D01*
X174580000Y-98039837D01*
X174841325Y-98039837D01*
X175141566Y-97959388D01*
X175316609Y-97812509D01*
X175428047Y-97619492D01*
X175464837Y-97410849D01*
X175464837Y-97130000D01*
X174580000Y-97130000D01*
X174320000Y-97130000D01*
X174320000Y-96870000D01*
X175464837Y-96870000D01*
X175464837Y-96583675D01*
X175384388Y-96283435D01*
X175247709Y-96120547D01*
X175271498Y-96084945D01*
X175305857Y-95912213D01*
X175305857Y-95087787D01*
X175271498Y-94915055D01*
X175237384Y-94864000D01*
X176632764Y-94864000D01*
X176670758Y-94867324D01*
X176676000Y-94927239D01*
X176676001Y-98641531D01*
X173499594Y-101817938D01*
X173258100Y-101850804D01*
X173029482Y-101952830D01*
X172919837Y-102045981D01*
X172919837Y-101770000D01*
X170640163Y-101770000D01*
X170640163Y-101998649D01*
X170599000Y-101962676D01*
X170599000Y-100829151D01*
X170640163Y-100829151D01*
X170640163Y-101510000D01*
X171650000Y-101510000D01*
X171650000Y-100200163D01*
X171910000Y-100200163D01*
X171910000Y-101510000D01*
X172919837Y-101510000D01*
X172919837Y-100823675D01*
X172839388Y-100523435D01*
X172692509Y-100348391D01*
X172499492Y-100236953D01*
X172290849Y-100200163D01*
X171910000Y-100200163D01*
X171650000Y-100200163D01*
X171263675Y-100200163D01*
X170963435Y-100280612D01*
X170788391Y-100427491D01*
X170676953Y-100620508D01*
X170640163Y-100829151D01*
X170599000Y-100829151D01*
X170599000Y-100526135D01*
X170605925Y-100446988D01*
X170585359Y-100370234D01*
X170571558Y-100291968D01*
X170558177Y-100268792D01*
X170551252Y-100242948D01*
X170505674Y-100177854D01*
X170465939Y-100109031D01*
X170405069Y-100057955D01*
X168969000Y-98621887D01*
X168969000Y-97130000D01*
X171635163Y-97130000D01*
X171635163Y-97416325D01*
X171715612Y-97716566D01*
X171862491Y-97891609D01*
X172055508Y-98003047D01*
X172264151Y-98039837D01*
X172520000Y-98039837D01*
X172520000Y-97130000D01*
X171635163Y-97130000D01*
X168969000Y-97130000D01*
X168969000Y-96929837D01*
X169040000Y-96929837D01*
X169040000Y-96589434D01*
X169116498Y-96474945D01*
X169150857Y-96302213D01*
X169150857Y-95820000D01*
X169300000Y-95820000D01*
X169300000Y-96929837D01*
X169486325Y-96929837D01*
X169786566Y-96849388D01*
X169961609Y-96702509D01*
X170073047Y-96509492D01*
X170109837Y-96300849D01*
X170109837Y-95820000D01*
X169300000Y-95820000D01*
X169150857Y-95820000D01*
X169150857Y-95077787D01*
X169116498Y-94905055D01*
X169040000Y-94790566D01*
X169040000Y-94450163D01*
X168853675Y-94450163D01*
X168605841Y-94516570D01*
X168694289Y-94385686D01*
X168770848Y-94146516D01*
X168773737Y-93925852D01*
X169300000Y-94452116D01*
G36*
X180974501Y-91656970D02*
G01*
X181027713Y-91720386D01*
X181099411Y-91761781D01*
X181112648Y-91771049D01*
X181178765Y-91870000D01*
X181171415Y-91881000D01*
X180822236Y-91881000D01*
X180739776Y-91873785D01*
X180659812Y-91895211D01*
X180578288Y-91909587D01*
X180554144Y-91923526D01*
X180527218Y-91930741D01*
X180459416Y-91978218D01*
X180387713Y-92019614D01*
X180334496Y-92083036D01*
X180178026Y-92239505D01*
X180114615Y-92292713D01*
X180073223Y-92364407D01*
X180025740Y-92432219D01*
X180018524Y-92459150D01*
X180004588Y-92483287D01*
X179990215Y-92564799D01*
X179968785Y-92644776D01*
X179976001Y-92727250D01*
X179976000Y-93746301D01*
X179883265Y-93808265D01*
X179778502Y-93965055D01*
X179744143Y-94137787D01*
X179744143Y-94962213D01*
X179778502Y-95134946D01*
X179806199Y-95176398D01*
X179733391Y-95237491D01*
X179648212Y-95385026D01*
X179634388Y-95333435D01*
X179497709Y-95170547D01*
X179521498Y-95134945D01*
X179555857Y-94962213D01*
X179555857Y-94137787D01*
X179521498Y-93965055D01*
X179416735Y-93808265D01*
X179324000Y-93746301D01*
X179324000Y-91627235D01*
X179331215Y-91544775D01*
X179309787Y-91464805D01*
X179295413Y-91383287D01*
X179281474Y-91359144D01*
X179274260Y-91332219D01*
X179226779Y-91264409D01*
X179185386Y-91192713D01*
X179121968Y-91139499D01*
X179066399Y-91083930D01*
X179004113Y-90870238D01*
X178869415Y-90659212D01*
X178680904Y-90494473D01*
X178453733Y-90389264D01*
X178298942Y-90365992D01*
X178314837Y-90275849D01*
X178314837Y-90095000D01*
X175485163Y-90095000D01*
X175485163Y-90281325D01*
X175565612Y-90581566D01*
X175691131Y-90731154D01*
X175678502Y-90750055D01*
X175644143Y-90922787D01*
X175644143Y-91547213D01*
X175678502Y-91719945D01*
X175778765Y-91870000D01*
X175771415Y-91881000D01*
X175663469Y-91881000D01*
X174432468Y-90650000D01*
X175497332Y-89585136D01*
X175485163Y-89654151D01*
X175485163Y-89835000D01*
X178314837Y-89835000D01*
X178314837Y-89648675D01*
X178234388Y-89348435D01*
X178108869Y-89198846D01*
X178121498Y-89179945D01*
X178155857Y-89007213D01*
X178155857Y-88838325D01*
X180974501Y-91656970D01*
G37*
X180974501Y-91656970D02*
X181027713Y-91720386D01*
X181099411Y-91761781D01*
X181112648Y-91771049D01*
X181178765Y-91870000D01*
X181171415Y-91881000D01*
X180822236Y-91881000D01*
X180739776Y-91873785D01*
X180659812Y-91895211D01*
X180578288Y-91909587D01*
X180554144Y-91923526D01*
X180527218Y-91930741D01*
X180459416Y-91978218D01*
X180387713Y-92019614D01*
X180334496Y-92083036D01*
X180178026Y-92239505D01*
X180114615Y-92292713D01*
X180073223Y-92364407D01*
X180025740Y-92432219D01*
X180018524Y-92459150D01*
X180004588Y-92483287D01*
X179990215Y-92564799D01*
X179968785Y-92644776D01*
X179976001Y-92727250D01*
X179976000Y-93746301D01*
X179883265Y-93808265D01*
X179778502Y-93965055D01*
X179744143Y-94137787D01*
X179744143Y-94962213D01*
X179778502Y-95134946D01*
X179806199Y-95176398D01*
X179733391Y-95237491D01*
X179648212Y-95385026D01*
X179634388Y-95333435D01*
X179497709Y-95170547D01*
X179521498Y-95134945D01*
X179555857Y-94962213D01*
X179555857Y-94137787D01*
X179521498Y-93965055D01*
X179416735Y-93808265D01*
X179324000Y-93746301D01*
X179324000Y-91627235D01*
X179331215Y-91544775D01*
X179309787Y-91464805D01*
X179295413Y-91383287D01*
X179281474Y-91359144D01*
X179274260Y-91332219D01*
X179226779Y-91264409D01*
X179185386Y-91192713D01*
X179121968Y-91139499D01*
X179066399Y-91083930D01*
X179004113Y-90870238D01*
X178869415Y-90659212D01*
X178680904Y-90494473D01*
X178453733Y-90389264D01*
X178298942Y-90365992D01*
X178314837Y-90275849D01*
X178314837Y-90095000D01*
X175485163Y-90095000D01*
X175485163Y-90281325D01*
X175565612Y-90581566D01*
X175691131Y-90731154D01*
X175678502Y-90750055D01*
X175644143Y-90922787D01*
X175644143Y-91547213D01*
X175678502Y-91719945D01*
X175778765Y-91870000D01*
X175771415Y-91881000D01*
X175663469Y-91881000D01*
X174432468Y-90650000D01*
X175497332Y-89585136D01*
X175485163Y-89654151D01*
X175485163Y-89835000D01*
X178314837Y-89835000D01*
X178314837Y-89648675D01*
X178234388Y-89348435D01*
X178108869Y-89198846D01*
X178121498Y-89179945D01*
X178155857Y-89007213D01*
X178155857Y-88838325D01*
X180974501Y-91656970D01*
M02*
