G04 #@! TF.GenerationSoftware,KiCad,Pcbnew,(5.99.0-492-g30da2b31e)*
G04 #@! TF.CreationDate,2019-12-10T20:34:04+01:00*
G04 #@! TF.ProjectId,Feeder,46656564-6572-42e6-9b69-6361645f7063,0.1*
G04 #@! TF.SameCoordinates,Original*
G04 #@! TF.FileFunction,Legend,Top*
G04 #@! TF.FilePolarity,Positive*
%FSLAX46Y46*%
G04 Gerber Fmt 4.6, Leading zero omitted, Abs format (unit mm)*
G04 Created by KiCad (PCBNEW (5.99.0-492-g30da2b31e)) date 2019-12-10 20:34:04*
%MOMM*%
%LPD*%
G04 APERTURE LIST*
%ADD10C,0.250000*%
%ADD11C,0.300000*%
%ADD12C,0.120000*%
%ADD13C,0.150000*%
%ADD14C,0.203200*%
%ADD15C,0.101600*%
%ADD16C,2.150000*%
%ADD17R,2.150000X2.150000*%
%ADD18R,1.950000X1.000000*%
%ADD19R,2.100000X2.100000*%
%ADD20O,2.100000X2.100000*%
%ADD21R,1.150000X1.200000*%
%ADD22R,1.200000X1.150000*%
%ADD23R,1.400000X1.650000*%
%ADD24O,2.100000X1.600000*%
%ADD25R,2.100000X1.600000*%
%ADD26R,1.700000X2.100000*%
%ADD27R,1.000000X1.600000*%
%ADD28R,1.600000X1.000000*%
%ADD29R,1.200000X1.200000*%
%ADD30R,1.400000X2.000000*%
%ADD31R,0.700000X2.400000*%
%ADD32C,1.850000*%
%ADD33C,2.000000*%
%ADD34R,0.900000X1.300000*%
%ADD35R,1.300000X0.900000*%
%ADD36R,1.900000X2.400000*%
%ADD37R,4.200000X2.400000*%
G04 APERTURE END LIST*
D10*
X177307877Y-52541595D02*
X177470377Y-51241595D01*
X177965616Y-51241595D01*
X178081687Y-51303500D01*
X178135854Y-51365404D01*
X178182282Y-51489214D01*
X178159068Y-51674928D01*
X178081687Y-51798738D01*
X178012044Y-51860642D01*
X177880497Y-51922547D01*
X177385258Y-51922547D01*
X178623354Y-52417785D02*
X178677520Y-52479690D01*
X178607877Y-52541595D01*
X178553711Y-52479690D01*
X178623354Y-52417785D01*
X178607877Y-52541595D01*
X179226925Y-52541595D02*
X179389425Y-51241595D01*
X179312044Y-51860642D02*
X180054901Y-51860642D01*
X179969782Y-52541595D02*
X180132282Y-51241595D01*
X180774544Y-52541595D02*
X180658473Y-52479690D01*
X180604306Y-52417785D01*
X180557877Y-52293976D01*
X180604306Y-51922547D01*
X180681687Y-51798738D01*
X180751330Y-51736833D01*
X180882877Y-51674928D01*
X181068592Y-51674928D01*
X181184663Y-51736833D01*
X181238830Y-51798738D01*
X181285258Y-51922547D01*
X181238830Y-52293976D01*
X181161449Y-52417785D01*
X181091806Y-52479690D01*
X180960258Y-52541595D01*
X180774544Y-52541595D01*
X180813235Y-51241595D02*
X180867401Y-51303500D01*
X180797758Y-51365404D01*
X180743592Y-51303500D01*
X180813235Y-51241595D01*
X180797758Y-51365404D01*
X181308473Y-51241595D02*
X181362639Y-51303500D01*
X181292997Y-51365404D01*
X181238830Y-51303500D01*
X181308473Y-51241595D01*
X181292997Y-51365404D01*
X181765020Y-52541595D02*
X181873354Y-51674928D01*
X181842401Y-51922547D02*
X181919782Y-51798738D01*
X181989425Y-51736833D01*
X182120973Y-51674928D01*
X182244782Y-51674928D01*
X183126925Y-52541595D02*
X183212044Y-51860642D01*
X183165616Y-51736833D01*
X183049544Y-51674928D01*
X182801925Y-51674928D01*
X182670377Y-51736833D01*
X183134663Y-52479690D02*
X183003116Y-52541595D01*
X182693592Y-52541595D01*
X182577520Y-52479690D01*
X182531092Y-52355880D01*
X182546568Y-52232071D01*
X182623949Y-52108261D01*
X182755497Y-52046357D01*
X183065020Y-52046357D01*
X183196568Y-51984452D01*
X184411449Y-51674928D02*
X184303116Y-52541595D01*
X183854306Y-51674928D02*
X183769187Y-52355880D01*
X183815616Y-52479690D01*
X183931687Y-52541595D01*
X184117401Y-52541595D01*
X184248949Y-52479690D01*
X184318592Y-52417785D01*
X184844782Y-51674928D02*
X185340020Y-51674928D01*
X184922163Y-52541595D02*
X185061449Y-51427309D01*
X185138830Y-51303500D01*
X185270377Y-51241595D01*
X185394187Y-51241595D01*
X179095377Y-53458404D02*
X179165020Y-53396500D01*
X179296568Y-53334595D01*
X179606092Y-53334595D01*
X179722163Y-53396500D01*
X179776330Y-53458404D01*
X179822758Y-53582214D01*
X179807282Y-53706023D01*
X179722163Y-53891738D01*
X178886449Y-54634595D01*
X179691211Y-54634595D01*
X180658473Y-53334595D02*
X180782282Y-53334595D01*
X180898354Y-53396500D01*
X180952520Y-53458404D01*
X180998949Y-53582214D01*
X181029901Y-53829833D01*
X180991211Y-54139357D01*
X180898354Y-54386976D01*
X180820973Y-54510785D01*
X180751330Y-54572690D01*
X180619782Y-54634595D01*
X180495973Y-54634595D01*
X180379901Y-54572690D01*
X180325735Y-54510785D01*
X180279306Y-54386976D01*
X180248354Y-54139357D01*
X180287044Y-53829833D01*
X180379901Y-53582214D01*
X180457282Y-53458404D01*
X180526925Y-53396500D01*
X180658473Y-53334595D01*
X182167401Y-54634595D02*
X181424544Y-54634595D01*
X181795973Y-54634595D02*
X181958473Y-53334595D01*
X181811449Y-53520309D01*
X181672163Y-53644119D01*
X181540616Y-53706023D01*
X182763235Y-53334595D02*
X183629901Y-53334595D01*
X182910258Y-54634595D01*
D11*
X155064285Y-100278571D02*
X155064285Y-98778571D01*
X155421428Y-98778571D01*
X155635714Y-98850000D01*
X155778571Y-98992857D01*
X155850000Y-99135714D01*
X155921428Y-99421428D01*
X155921428Y-99635714D01*
X155850000Y-99921428D01*
X155778571Y-100064285D01*
X155635714Y-100207142D01*
X155421428Y-100278571D01*
X155064285Y-100278571D01*
X156492857Y-100207142D02*
X156707142Y-100278571D01*
X157064285Y-100278571D01*
X157207142Y-100207142D01*
X157278571Y-100135714D01*
X157350000Y-99992857D01*
X157350000Y-99850000D01*
X157278571Y-99707142D01*
X157207142Y-99635714D01*
X157064285Y-99564285D01*
X156778571Y-99492857D01*
X156635714Y-99421428D01*
X156564285Y-99350000D01*
X156492857Y-99207142D01*
X156492857Y-99064285D01*
X156564285Y-98921428D01*
X156635714Y-98850000D01*
X156778571Y-98778571D01*
X157135714Y-98778571D01*
X157350000Y-98850000D01*
X158778571Y-100278571D02*
X157921428Y-100278571D01*
X158350000Y-100278571D02*
X158350000Y-98778571D01*
X158207142Y-98992857D01*
X158064285Y-99135714D01*
X157921428Y-99207142D01*
X159635714Y-99421428D02*
X159492857Y-99350000D01*
X159421428Y-99278571D01*
X159350000Y-99135714D01*
X159350000Y-99064285D01*
X159421428Y-98921428D01*
X159492857Y-98850000D01*
X159635714Y-98778571D01*
X159921428Y-98778571D01*
X160064285Y-98850000D01*
X160135714Y-98921428D01*
X160207142Y-99064285D01*
X160207142Y-99135714D01*
X160135714Y-99278571D01*
X160064285Y-99350000D01*
X159921428Y-99421428D01*
X159635714Y-99421428D01*
X159492857Y-99492857D01*
X159421428Y-99564285D01*
X159350000Y-99707142D01*
X159350000Y-99992857D01*
X159421428Y-100135714D01*
X159492857Y-100207142D01*
X159635714Y-100278571D01*
X159921428Y-100278571D01*
X160064285Y-100207142D01*
X160135714Y-100135714D01*
X160207142Y-99992857D01*
X160207142Y-99707142D01*
X160135714Y-99564285D01*
X160064285Y-99492857D01*
X159921428Y-99421428D01*
X160492857Y-100421428D02*
X161635714Y-100421428D01*
X161921428Y-98921428D02*
X161992857Y-98850000D01*
X162135714Y-98778571D01*
X162492857Y-98778571D01*
X162635714Y-98850000D01*
X162707142Y-98921428D01*
X162778571Y-99064285D01*
X162778571Y-99207142D01*
X162707142Y-99421428D01*
X161850000Y-100278571D01*
X162778571Y-100278571D01*
X163707142Y-98778571D02*
X163850000Y-98778571D01*
X163992857Y-98850000D01*
X164064285Y-98921428D01*
X164135714Y-99064285D01*
X164207142Y-99350000D01*
X164207142Y-99707142D01*
X164135714Y-99992857D01*
X164064285Y-100135714D01*
X163992857Y-100207142D01*
X163850000Y-100278571D01*
X163707142Y-100278571D01*
X163564285Y-100207142D01*
X163492857Y-100135714D01*
X163421428Y-99992857D01*
X163350000Y-99707142D01*
X163350000Y-99350000D01*
X163421428Y-99064285D01*
X163492857Y-98921428D01*
X163564285Y-98850000D01*
X163707142Y-98778571D01*
D12*
X151050000Y-76550000D02*
X157000000Y-76550000D01*
X157000000Y-76550000D02*
X157000000Y-61450000D01*
X157000000Y-61450000D02*
X151050000Y-61450000D01*
X151050000Y-61450000D02*
X151050000Y-76550000D01*
X151050000Y-73250000D02*
X151800000Y-73250000D01*
X151800000Y-73250000D02*
X151800000Y-64750000D01*
X151800000Y-64750000D02*
X151050000Y-64750000D01*
X151050000Y-64750000D02*
X151050000Y-73250000D01*
X151050000Y-76550000D02*
X151800000Y-76550000D01*
X151800000Y-76550000D02*
X151800000Y-74750000D01*
X151800000Y-74750000D02*
X151050000Y-74750000D01*
X151050000Y-74750000D02*
X151050000Y-76550000D01*
X151050000Y-63250000D02*
X151800000Y-63250000D01*
X151800000Y-63250000D02*
X151800000Y-61450000D01*
X151800000Y-61450000D02*
X151050000Y-61450000D01*
X151050000Y-61450000D02*
X151050000Y-63250000D01*
X153300000Y-76550000D02*
X153300000Y-75800000D01*
X153300000Y-75800000D02*
X156250000Y-75800000D01*
X156250000Y-75800000D02*
X156250000Y-69000000D01*
X153300000Y-61450000D02*
X153300000Y-62200000D01*
X153300000Y-62200000D02*
X156250000Y-62200000D01*
X156250000Y-62200000D02*
X156250000Y-69000000D01*
X150750000Y-74350000D02*
X150750000Y-76850000D01*
X150750000Y-76850000D02*
X153250000Y-76850000D01*
D13*
X177525000Y-88025000D02*
X177525000Y-88075000D01*
X181675000Y-88025000D02*
X181675000Y-88170000D01*
X181675000Y-93175000D02*
X181675000Y-93030000D01*
X177525000Y-93175000D02*
X177525000Y-93030000D01*
X177525000Y-88025000D02*
X181675000Y-88025000D01*
X177525000Y-93175000D02*
X181675000Y-93175000D01*
X177525000Y-88075000D02*
X176125000Y-88075000D01*
D12*
X173810000Y-83770000D02*
X173810000Y-83890000D01*
X173810000Y-83890000D02*
X176590000Y-83890000D01*
X176590000Y-83890000D02*
X176590000Y-83770000D01*
X176590000Y-83770000D02*
X173810000Y-83770000D01*
X173810000Y-82500000D02*
X173810000Y-81110000D01*
X173810000Y-81110000D02*
X175200000Y-81110000D01*
X158470000Y-103850000D02*
X163670000Y-103850000D01*
X163670000Y-103850000D02*
X163670000Y-101070000D01*
X163670000Y-101070000D02*
X158470000Y-101070000D01*
X158470000Y-101070000D02*
X158470000Y-103850000D01*
X157200000Y-103850000D02*
X155810000Y-103850000D01*
X155810000Y-103850000D02*
X155810000Y-102460000D01*
X179300000Y-94950000D02*
X179300000Y-95650000D01*
X178100000Y-95650000D02*
X178100000Y-94950000D01*
X182450000Y-85400000D02*
X181750000Y-85400000D01*
X181750000Y-84200000D02*
X182450000Y-84200000D01*
X165000000Y-105650000D02*
X165000000Y-104950000D01*
X166200000Y-104950000D02*
X166200000Y-105650000D01*
X155550000Y-79200000D02*
X156250000Y-79200000D01*
X156250000Y-80400000D02*
X155550000Y-80400000D01*
X160000000Y-106350000D02*
X160000000Y-105650000D01*
X161200000Y-105650000D02*
X161200000Y-106350000D01*
X172050000Y-96600000D02*
X172050000Y-95900000D01*
X173250000Y-95900000D02*
X173250000Y-96600000D01*
X175050000Y-95900000D02*
X175050000Y-96600000D01*
X173850000Y-96600000D02*
X173850000Y-95900000D01*
X157450000Y-91300000D02*
X158150000Y-91300000D01*
X158150000Y-92500000D02*
X157450000Y-92500000D01*
X181200000Y-94950000D02*
X181200000Y-95650000D01*
X180000000Y-95650000D02*
X180000000Y-94950000D01*
X153700000Y-59250000D02*
X152700000Y-59250000D01*
X152700000Y-60950000D02*
X153700000Y-60950000D01*
X160800000Y-56250000D02*
X159800000Y-56250000D01*
X159800000Y-57950000D02*
X160800000Y-57950000D01*
X178100000Y-109550000D02*
X182800000Y-109550000D01*
X182800000Y-109550000D02*
X182800000Y-99450000D01*
X182800000Y-99450000D02*
X178100000Y-99450000D01*
X178100000Y-99450000D02*
X178100000Y-109550000D01*
X178100000Y-107000000D02*
X178700000Y-107000000D01*
X178700000Y-107000000D02*
X178700000Y-108950000D01*
X178700000Y-108950000D02*
X182200000Y-108950000D01*
X182200000Y-108950000D02*
X182200000Y-100050000D01*
X182200000Y-100050000D02*
X178700000Y-100050000D01*
X178700000Y-100050000D02*
X178700000Y-102000000D01*
X178700000Y-102000000D02*
X178100000Y-102000000D01*
X179400000Y-109550000D02*
X179400000Y-108950000D01*
X180700000Y-109550000D02*
X180700000Y-108950000D01*
X179400000Y-99450000D02*
X179400000Y-100050000D01*
X180700000Y-99450000D02*
X180700000Y-100050000D01*
X178100000Y-107800000D02*
X177900000Y-107800000D01*
X177900000Y-107800000D02*
X177900000Y-108100000D01*
X177900000Y-108100000D02*
X178100000Y-108100000D01*
X178000000Y-107800000D02*
X178000000Y-108100000D01*
X182200000Y-106600000D02*
X181700000Y-106600000D01*
X181700000Y-106600000D02*
X181700000Y-106400000D01*
X181700000Y-106400000D02*
X182200000Y-106400000D01*
X182200000Y-106500000D02*
X181700000Y-106500000D01*
X182200000Y-104600000D02*
X181700000Y-104600000D01*
X181700000Y-104600000D02*
X181700000Y-104400000D01*
X181700000Y-104400000D02*
X182200000Y-104400000D01*
X182200000Y-104500000D02*
X181700000Y-104500000D01*
X182200000Y-102600000D02*
X181700000Y-102600000D01*
X181700000Y-102600000D02*
X181700000Y-102400000D01*
X181700000Y-102400000D02*
X182200000Y-102400000D01*
X182200000Y-102500000D02*
X181700000Y-102500000D01*
X177800000Y-108600000D02*
X177800000Y-109850000D01*
X177800000Y-109850000D02*
X179050000Y-109850000D01*
X163450000Y-52600000D02*
X159150000Y-52600000D01*
X159150000Y-52600000D02*
X159150000Y-54600000D01*
X159150000Y-54600000D02*
X163450000Y-54600000D01*
D13*
X162745000Y-87815000D02*
X162745000Y-88040000D01*
X169995000Y-87815000D02*
X169995000Y-88115000D01*
X169995000Y-95065000D02*
X169995000Y-94765000D01*
X162745000Y-95065000D02*
X162745000Y-94765000D01*
X162745000Y-87815000D02*
X163045000Y-87815000D01*
X162745000Y-95065000D02*
X163045000Y-95065000D01*
X169995000Y-95065000D02*
X169695000Y-95065000D01*
X169995000Y-87815000D02*
X169695000Y-87815000D01*
X162745000Y-88040000D02*
X161520000Y-88040000D01*
D12*
X184180000Y-71620000D02*
X182080000Y-71620000D01*
X184180000Y-70620000D02*
X182080000Y-70620000D01*
X184180000Y-71620000D02*
X184180000Y-70620000D01*
X184180000Y-64000000D02*
X184180000Y-63000000D01*
X184180000Y-63000000D02*
X182080000Y-63000000D01*
X184180000Y-64000000D02*
X182080000Y-64000000D01*
X184180000Y-66540000D02*
X182080000Y-66540000D01*
X184180000Y-65540000D02*
X182080000Y-65540000D01*
X184180000Y-66540000D02*
X184180000Y-65540000D01*
X184180000Y-69080000D02*
X184180000Y-68080000D01*
X184180000Y-68080000D02*
X182080000Y-68080000D01*
X184180000Y-69080000D02*
X182080000Y-69080000D01*
X184180000Y-74160000D02*
X182080000Y-74160000D01*
X184180000Y-73160000D02*
X182080000Y-73160000D01*
X184180000Y-74160000D02*
X184180000Y-73160000D01*
X184180000Y-76700000D02*
X184180000Y-75700000D01*
X184180000Y-75700000D02*
X182080000Y-75700000D01*
X184180000Y-76700000D02*
X182080000Y-76700000D01*
X184180000Y-79240000D02*
X182080000Y-79240000D01*
X184180000Y-78240000D02*
X182080000Y-78240000D01*
X184180000Y-79240000D02*
X184180000Y-78240000D01*
X184180000Y-61460000D02*
X184180000Y-60460000D01*
X184180000Y-60460000D02*
X182080000Y-60460000D01*
X184180000Y-61460000D02*
X182080000Y-61460000D01*
X167580000Y-107640000D02*
X167580000Y-100640000D01*
X172780000Y-107640000D02*
X172780000Y-100640000D01*
X172780000Y-100640000D02*
X171780000Y-100640000D01*
D13*
X157150000Y-84440000D02*
X157150000Y-85740000D01*
X160350000Y-84440000D02*
X157150000Y-84440000D01*
X160350000Y-85740000D02*
X160350000Y-84440000D01*
X157150000Y-85740000D02*
X160350000Y-85740000D01*
D14*
X155033980Y-83700620D02*
X155033980Y-96639380D01*
X155033980Y-83700620D02*
X151036020Y-83700620D01*
X155432760Y-82900520D02*
X155432760Y-97439480D01*
X150637240Y-82900520D02*
X150637240Y-97439480D01*
X151036020Y-83700620D02*
X151036020Y-96639380D01*
X155432760Y-82900520D02*
X150637240Y-82900520D01*
X154233880Y-82400140D02*
X154233880Y-82801460D01*
X154632660Y-82400140D02*
X154233880Y-82400140D01*
X154632660Y-82801460D02*
X154632660Y-82400140D01*
X151437340Y-82400140D02*
X151437340Y-82801460D01*
X151836120Y-82400140D02*
X151437340Y-82400140D01*
X151836120Y-82801460D02*
X151836120Y-82400140D01*
X152336500Y-82400140D02*
X152336500Y-82801460D01*
X153733500Y-82400140D02*
X152336500Y-82400140D01*
X153733500Y-82801460D02*
X153733500Y-82400140D01*
D15*
X152836880Y-83400900D02*
X152735280Y-83301840D01*
X152735280Y-83301840D02*
X152735280Y-83002120D01*
X151737060Y-83301840D02*
X152735280Y-83301840D01*
X151737060Y-83002120D02*
X151737060Y-83301840D01*
X151635460Y-83400900D02*
X151737060Y-83301840D01*
X151437340Y-83301840D02*
X151737060Y-83601560D01*
X153035000Y-83301840D02*
X152735280Y-83601560D01*
X153035000Y-83301840D02*
X153035000Y-83601560D01*
X153035000Y-83002120D02*
X153035000Y-83301840D01*
X151437340Y-83301840D02*
X151437340Y-83601560D01*
X151437340Y-83002120D02*
X151437340Y-83301840D01*
D14*
X151036020Y-96639380D02*
X155033980Y-96639380D01*
X150637240Y-97439480D02*
X155432760Y-97439480D01*
X151836120Y-97939860D02*
X151836120Y-97538540D01*
X151437340Y-97939860D02*
X151836120Y-97939860D01*
X151437340Y-97538540D02*
X151437340Y-97939860D01*
X154632660Y-97939860D02*
X154632660Y-97538540D01*
X154233880Y-97939860D02*
X154632660Y-97939860D01*
X154233880Y-97538540D02*
X154233880Y-97939860D01*
X153733500Y-97939860D02*
X153733500Y-97538540D01*
X152336500Y-97939860D02*
X153733500Y-97939860D01*
X152336500Y-97538540D02*
X152336500Y-97939860D01*
D12*
X166270000Y-52220000D02*
X168930000Y-52220000D01*
X168930000Y-52220000D02*
X168930000Y-49480000D01*
X168930000Y-49480000D02*
X166270000Y-49480000D01*
X166270000Y-49480000D02*
X166270000Y-52220000D01*
X167220000Y-49480000D02*
X168100000Y-49480000D01*
X168100000Y-49480000D02*
X168100000Y-43480000D01*
X168100000Y-43480000D02*
X167220000Y-43480000D01*
X167220000Y-43480000D02*
X167220000Y-49480000D01*
X167220000Y-52530000D02*
X167220000Y-52220000D01*
X168100000Y-52530000D02*
X168100000Y-52220000D01*
X167220000Y-55070000D02*
X167220000Y-54470000D01*
X168100000Y-55070000D02*
X168100000Y-54470000D01*
X167340000Y-49480000D02*
X167340000Y-43480000D01*
X167460000Y-49480000D02*
X167460000Y-43480000D01*
X167580000Y-49480000D02*
X167580000Y-43480000D01*
X167700000Y-49480000D02*
X167700000Y-43480000D01*
X167820000Y-49480000D02*
X167820000Y-43480000D01*
X167940000Y-49480000D02*
X167940000Y-43480000D01*
X168060000Y-49480000D02*
X168060000Y-43480000D01*
X168930000Y-52220000D02*
X171470000Y-52220000D01*
X171470000Y-52220000D02*
X171470000Y-49480000D01*
X171470000Y-49480000D02*
X168930000Y-49480000D01*
X168930000Y-49480000D02*
X168930000Y-52220000D01*
X169760000Y-49480000D02*
X170640000Y-49480000D01*
X170640000Y-49480000D02*
X170640000Y-43480000D01*
X170640000Y-43480000D02*
X169760000Y-43480000D01*
X169760000Y-43480000D02*
X169760000Y-49480000D01*
X169760000Y-52530000D02*
X169760000Y-52220000D01*
X170640000Y-52530000D02*
X170640000Y-52220000D01*
X169760000Y-55070000D02*
X169760000Y-54470000D01*
X170640000Y-55070000D02*
X170640000Y-54470000D01*
X171470000Y-52220000D02*
X174130000Y-52220000D01*
X174130000Y-52220000D02*
X174130000Y-49480000D01*
X174130000Y-49480000D02*
X171470000Y-49480000D01*
X171470000Y-49480000D02*
X171470000Y-52220000D01*
X172300000Y-49480000D02*
X173180000Y-49480000D01*
X173180000Y-49480000D02*
X173180000Y-43480000D01*
X173180000Y-43480000D02*
X172300000Y-43480000D01*
X172300000Y-43480000D02*
X172300000Y-49480000D01*
X172300000Y-52530000D02*
X172300000Y-52220000D01*
X173180000Y-52530000D02*
X173180000Y-52220000D01*
X172300000Y-55070000D02*
X172300000Y-54470000D01*
X173180000Y-55070000D02*
X173180000Y-54470000D01*
X167660000Y-57310000D02*
X166390000Y-57310000D01*
X166390000Y-57310000D02*
X166390000Y-56040000D01*
X186190000Y-65360000D02*
X187190000Y-65360000D01*
X187190000Y-66720000D02*
X186190000Y-66720000D01*
X158800000Y-76720000D02*
X159800000Y-76720000D01*
X159800000Y-78080000D02*
X158800000Y-78080000D01*
X157600000Y-90730000D02*
X156600000Y-90730000D01*
X156600000Y-89370000D02*
X157600000Y-89370000D01*
X187190000Y-79420000D02*
X186190000Y-79420000D01*
X186190000Y-78060000D02*
X187190000Y-78060000D01*
X186190000Y-75520000D02*
X187190000Y-75520000D01*
X187190000Y-76880000D02*
X186190000Y-76880000D01*
X187190000Y-69260000D02*
X186190000Y-69260000D01*
X186190000Y-67900000D02*
X187190000Y-67900000D01*
X186190000Y-72980000D02*
X187190000Y-72980000D01*
X187190000Y-74340000D02*
X186190000Y-74340000D01*
X187190000Y-71800000D02*
X186190000Y-71800000D01*
X186190000Y-70440000D02*
X187190000Y-70440000D01*
X156400000Y-78880000D02*
X155400000Y-78880000D01*
X155400000Y-77520000D02*
X156400000Y-77520000D01*
X178900000Y-83180000D02*
X177900000Y-83180000D01*
X177900000Y-81820000D02*
X178900000Y-81820000D01*
X181600000Y-81820000D02*
X182600000Y-81820000D01*
X182600000Y-83180000D02*
X181600000Y-83180000D01*
X187190000Y-64180000D02*
X186190000Y-64180000D01*
X186190000Y-62820000D02*
X187190000Y-62820000D01*
X186190000Y-60280000D02*
X187190000Y-60280000D01*
X187190000Y-61640000D02*
X186190000Y-61640000D01*
X164600000Y-107620000D02*
X165600000Y-107620000D01*
X165600000Y-108980000D02*
X164600000Y-108980000D01*
X162120000Y-106500000D02*
X162120000Y-105500000D01*
X163480000Y-105500000D02*
X163480000Y-106500000D01*
X175100000Y-104820000D02*
X176100000Y-104820000D01*
X176100000Y-106180000D02*
X175100000Y-106180000D01*
X161230000Y-59630000D02*
X162560000Y-59630000D01*
X161230000Y-60960000D02*
X161230000Y-59630000D01*
X163890000Y-62230000D02*
X161230000Y-62230000D01*
X163890000Y-80070000D02*
X163890000Y-62230000D01*
X161230000Y-80070000D02*
X163890000Y-80070000D01*
X161230000Y-62230000D02*
X161230000Y-80070000D01*
X176470000Y-62230000D02*
X176470000Y-80070000D01*
X176470000Y-80070000D02*
X179130000Y-80070000D01*
X179130000Y-80070000D02*
X179130000Y-62230000D01*
X179130000Y-62230000D02*
X176470000Y-62230000D01*
X176470000Y-60960000D02*
X176470000Y-59630000D01*
X176470000Y-59630000D02*
X177800000Y-59630000D01*
X157610000Y-52090000D02*
X156350000Y-52090000D01*
X150790000Y-52090000D02*
X152050000Y-52090000D01*
X157610000Y-55850000D02*
X157610000Y-52090000D01*
X150790000Y-58100000D02*
X150790000Y-52090000D01*
D13*
X150452380Y-69738095D02*
X149452380Y-69738095D01*
X149452380Y-69357142D01*
X149500000Y-69261904D01*
X149547619Y-69214285D01*
X149642857Y-69166666D01*
X149785714Y-69166666D01*
X149880952Y-69214285D01*
X149928571Y-69261904D01*
X149976190Y-69357142D01*
X149976190Y-69738095D01*
X150452380Y-68214285D02*
X150452380Y-68785714D01*
X150452380Y-68500000D02*
X149452380Y-68500000D01*
X149595238Y-68595238D01*
X149690476Y-68690476D01*
X149738095Y-68785714D01*
X176038095Y-86552380D02*
X176038095Y-87361904D01*
X176085714Y-87457142D01*
X176133333Y-87504761D01*
X176228571Y-87552380D01*
X176419047Y-87552380D01*
X176514285Y-87504761D01*
X176561904Y-87457142D01*
X176609523Y-87361904D01*
X176609523Y-86552380D01*
X177561904Y-86552380D02*
X177085714Y-86552380D01*
X177038095Y-87028571D01*
X177085714Y-86980952D01*
X177180952Y-86933333D01*
X177419047Y-86933333D01*
X177514285Y-86980952D01*
X177561904Y-87028571D01*
X177609523Y-87123809D01*
X177609523Y-87361904D01*
X177561904Y-87457142D01*
X177514285Y-87504761D01*
X177419047Y-87552380D01*
X177180952Y-87552380D01*
X177085714Y-87504761D01*
X177038095Y-87457142D01*
X174461904Y-80562380D02*
X174461904Y-79562380D01*
X174842857Y-79562380D01*
X174938095Y-79610000D01*
X174985714Y-79657619D01*
X175033333Y-79752857D01*
X175033333Y-79895714D01*
X174985714Y-79990952D01*
X174938095Y-80038571D01*
X174842857Y-80086190D01*
X174461904Y-80086190D01*
X175366666Y-79562380D02*
X175985714Y-79562380D01*
X175652380Y-79943333D01*
X175795238Y-79943333D01*
X175890476Y-79990952D01*
X175938095Y-80038571D01*
X175985714Y-80133809D01*
X175985714Y-80371904D01*
X175938095Y-80467142D01*
X175890476Y-80514761D01*
X175795238Y-80562380D01*
X175509523Y-80562380D01*
X175414285Y-80514761D01*
X175366666Y-80467142D01*
X155262380Y-103198095D02*
X154262380Y-103198095D01*
X154262380Y-102817142D01*
X154310000Y-102721904D01*
X154357619Y-102674285D01*
X154452857Y-102626666D01*
X154595714Y-102626666D01*
X154690952Y-102674285D01*
X154738571Y-102721904D01*
X154786190Y-102817142D01*
X154786190Y-103198095D01*
X154262380Y-102293333D02*
X154262380Y-101626666D01*
X155262380Y-102055238D01*
X176842857Y-95657142D02*
X176795238Y-95609523D01*
X176747619Y-95466666D01*
X176747619Y-95371428D01*
X176795238Y-95228571D01*
X176890476Y-95133333D01*
X176985714Y-95085714D01*
X177176190Y-95038095D01*
X177319047Y-95038095D01*
X177509523Y-95085714D01*
X177604761Y-95133333D01*
X177700000Y-95228571D01*
X177747619Y-95371428D01*
X177747619Y-95466666D01*
X177700000Y-95609523D01*
X177652380Y-95657142D01*
X176747619Y-96609523D02*
X176747619Y-96038095D01*
X176747619Y-96323809D02*
X177747619Y-96323809D01*
X177604761Y-96228571D01*
X177509523Y-96133333D01*
X177461904Y-96038095D01*
X177747619Y-97228571D02*
X177747619Y-97323809D01*
X177700000Y-97419047D01*
X177652380Y-97466666D01*
X177557142Y-97514285D01*
X177366666Y-97561904D01*
X177128571Y-97561904D01*
X176938095Y-97514285D01*
X176842857Y-97466666D01*
X176795238Y-97419047D01*
X176747619Y-97323809D01*
X176747619Y-97228571D01*
X176795238Y-97133333D01*
X176842857Y-97085714D01*
X176938095Y-97038095D01*
X177128571Y-96990476D01*
X177366666Y-96990476D01*
X177557142Y-97038095D01*
X177652380Y-97085714D01*
X177700000Y-97133333D01*
X177747619Y-97228571D01*
X181933333Y-86557142D02*
X181885714Y-86604761D01*
X181742857Y-86652380D01*
X181647619Y-86652380D01*
X181504761Y-86604761D01*
X181409523Y-86509523D01*
X181361904Y-86414285D01*
X181314285Y-86223809D01*
X181314285Y-86080952D01*
X181361904Y-85890476D01*
X181409523Y-85795238D01*
X181504761Y-85700000D01*
X181647619Y-85652380D01*
X181742857Y-85652380D01*
X181885714Y-85700000D01*
X181933333Y-85747619D01*
X182409523Y-86652380D02*
X182600000Y-86652380D01*
X182695238Y-86604761D01*
X182742857Y-86557142D01*
X182838095Y-86414285D01*
X182885714Y-86223809D01*
X182885714Y-85842857D01*
X182838095Y-85747619D01*
X182790476Y-85700000D01*
X182695238Y-85652380D01*
X182504761Y-85652380D01*
X182409523Y-85700000D01*
X182361904Y-85747619D01*
X182314285Y-85842857D01*
X182314285Y-86080952D01*
X182361904Y-86176190D01*
X182409523Y-86223809D01*
X182504761Y-86271428D01*
X182695238Y-86271428D01*
X182790476Y-86223809D01*
X182838095Y-86176190D01*
X182885714Y-86080952D01*
X164557142Y-105466666D02*
X164604761Y-105514285D01*
X164652380Y-105657142D01*
X164652380Y-105752380D01*
X164604761Y-105895238D01*
X164509523Y-105990476D01*
X164414285Y-106038095D01*
X164223809Y-106085714D01*
X164080952Y-106085714D01*
X163890476Y-106038095D01*
X163795238Y-105990476D01*
X163700000Y-105895238D01*
X163652380Y-105752380D01*
X163652380Y-105657142D01*
X163700000Y-105514285D01*
X163747619Y-105466666D01*
X164080952Y-104895238D02*
X164033333Y-104990476D01*
X163985714Y-105038095D01*
X163890476Y-105085714D01*
X163842857Y-105085714D01*
X163747619Y-105038095D01*
X163700000Y-104990476D01*
X163652380Y-104895238D01*
X163652380Y-104704761D01*
X163700000Y-104609523D01*
X163747619Y-104561904D01*
X163842857Y-104514285D01*
X163890476Y-104514285D01*
X163985714Y-104561904D01*
X164033333Y-104609523D01*
X164080952Y-104704761D01*
X164080952Y-104895238D01*
X164128571Y-104990476D01*
X164176190Y-105038095D01*
X164271428Y-105085714D01*
X164461904Y-105085714D01*
X164557142Y-105038095D01*
X164604761Y-104990476D01*
X164652380Y-104895238D01*
X164652380Y-104704761D01*
X164604761Y-104609523D01*
X164557142Y-104561904D01*
X164461904Y-104514285D01*
X164271428Y-104514285D01*
X164176190Y-104561904D01*
X164128571Y-104609523D01*
X164080952Y-104704761D01*
X152533333Y-80157142D02*
X152485714Y-80204761D01*
X152342857Y-80252380D01*
X152247619Y-80252380D01*
X152104761Y-80204761D01*
X152009523Y-80109523D01*
X151961904Y-80014285D01*
X151914285Y-79823809D01*
X151914285Y-79680952D01*
X151961904Y-79490476D01*
X152009523Y-79395238D01*
X152104761Y-79300000D01*
X152247619Y-79252380D01*
X152342857Y-79252380D01*
X152485714Y-79300000D01*
X152533333Y-79347619D01*
X152866666Y-79252380D02*
X153533333Y-79252380D01*
X153104761Y-80252380D01*
X160957142Y-108666666D02*
X161004761Y-108714285D01*
X161052380Y-108857142D01*
X161052380Y-108952380D01*
X161004761Y-109095238D01*
X160909523Y-109190476D01*
X160814285Y-109238095D01*
X160623809Y-109285714D01*
X160480952Y-109285714D01*
X160290476Y-109238095D01*
X160195238Y-109190476D01*
X160100000Y-109095238D01*
X160052380Y-108952380D01*
X160052380Y-108857142D01*
X160100000Y-108714285D01*
X160147619Y-108666666D01*
X160052380Y-107809523D02*
X160052380Y-108000000D01*
X160100000Y-108095238D01*
X160147619Y-108142857D01*
X160290476Y-108238095D01*
X160480952Y-108285714D01*
X160861904Y-108285714D01*
X160957142Y-108238095D01*
X161004761Y-108190476D01*
X161052380Y-108095238D01*
X161052380Y-107904761D01*
X161004761Y-107809523D01*
X160957142Y-107761904D01*
X160861904Y-107714285D01*
X160623809Y-107714285D01*
X160528571Y-107761904D01*
X160480952Y-107809523D01*
X160433333Y-107904761D01*
X160433333Y-108095238D01*
X160480952Y-108190476D01*
X160528571Y-108238095D01*
X160623809Y-108285714D01*
X172342857Y-98733333D02*
X172295238Y-98685714D01*
X172247619Y-98542857D01*
X172247619Y-98447619D01*
X172295238Y-98304761D01*
X172390476Y-98209523D01*
X172485714Y-98161904D01*
X172676190Y-98114285D01*
X172819047Y-98114285D01*
X173009523Y-98161904D01*
X173104761Y-98209523D01*
X173200000Y-98304761D01*
X173247619Y-98447619D01*
X173247619Y-98542857D01*
X173200000Y-98685714D01*
X173152380Y-98733333D01*
X173247619Y-99638095D02*
X173247619Y-99161904D01*
X172771428Y-99114285D01*
X172819047Y-99161904D01*
X172866666Y-99257142D01*
X172866666Y-99495238D01*
X172819047Y-99590476D01*
X172771428Y-99638095D01*
X172676190Y-99685714D01*
X172438095Y-99685714D01*
X172342857Y-99638095D01*
X172295238Y-99590476D01*
X172247619Y-99495238D01*
X172247619Y-99257142D01*
X172295238Y-99161904D01*
X172342857Y-99114285D01*
X174042857Y-98733333D02*
X173995238Y-98685714D01*
X173947619Y-98542857D01*
X173947619Y-98447619D01*
X173995238Y-98304761D01*
X174090476Y-98209523D01*
X174185714Y-98161904D01*
X174376190Y-98114285D01*
X174519047Y-98114285D01*
X174709523Y-98161904D01*
X174804761Y-98209523D01*
X174900000Y-98304761D01*
X174947619Y-98447619D01*
X174947619Y-98542857D01*
X174900000Y-98685714D01*
X174852380Y-98733333D01*
X174614285Y-99590476D02*
X173947619Y-99590476D01*
X174995238Y-99352380D02*
X174280952Y-99114285D01*
X174280952Y-99733333D01*
X157633333Y-93757142D02*
X157585714Y-93804761D01*
X157442857Y-93852380D01*
X157347619Y-93852380D01*
X157204761Y-93804761D01*
X157109523Y-93709523D01*
X157061904Y-93614285D01*
X157014285Y-93423809D01*
X157014285Y-93280952D01*
X157061904Y-93090476D01*
X157109523Y-92995238D01*
X157204761Y-92900000D01*
X157347619Y-92852380D01*
X157442857Y-92852380D01*
X157585714Y-92900000D01*
X157633333Y-92947619D01*
X157966666Y-92852380D02*
X158585714Y-92852380D01*
X158252380Y-93233333D01*
X158395238Y-93233333D01*
X158490476Y-93280952D01*
X158538095Y-93328571D01*
X158585714Y-93423809D01*
X158585714Y-93661904D01*
X158538095Y-93757142D01*
X158490476Y-93804761D01*
X158395238Y-93852380D01*
X158109523Y-93852380D01*
X158014285Y-93804761D01*
X157966666Y-93757142D01*
X181742857Y-95657142D02*
X181695238Y-95609523D01*
X181647619Y-95466666D01*
X181647619Y-95371428D01*
X181695238Y-95228571D01*
X181790476Y-95133333D01*
X181885714Y-95085714D01*
X182076190Y-95038095D01*
X182219047Y-95038095D01*
X182409523Y-95085714D01*
X182504761Y-95133333D01*
X182600000Y-95228571D01*
X182647619Y-95371428D01*
X182647619Y-95466666D01*
X182600000Y-95609523D01*
X182552380Y-95657142D01*
X181647619Y-96609523D02*
X181647619Y-96038095D01*
X181647619Y-96323809D02*
X182647619Y-96323809D01*
X182504761Y-96228571D01*
X182409523Y-96133333D01*
X182361904Y-96038095D01*
X181647619Y-97561904D02*
X181647619Y-96990476D01*
X181647619Y-97276190D02*
X182647619Y-97276190D01*
X182504761Y-97180952D01*
X182409523Y-97085714D01*
X182361904Y-96990476D01*
X150333333Y-60457142D02*
X150285714Y-60504761D01*
X150142857Y-60552380D01*
X150047619Y-60552380D01*
X149904761Y-60504761D01*
X149809523Y-60409523D01*
X149761904Y-60314285D01*
X149714285Y-60123809D01*
X149714285Y-59980952D01*
X149761904Y-59790476D01*
X149809523Y-59695238D01*
X149904761Y-59600000D01*
X150047619Y-59552380D01*
X150142857Y-59552380D01*
X150285714Y-59600000D01*
X150333333Y-59647619D01*
X150714285Y-59647619D02*
X150761904Y-59600000D01*
X150857142Y-59552380D01*
X151095238Y-59552380D01*
X151190476Y-59600000D01*
X151238095Y-59647619D01*
X151285714Y-59742857D01*
X151285714Y-59838095D01*
X151238095Y-59980952D01*
X150666666Y-60552380D01*
X151285714Y-60552380D01*
X160133333Y-55957142D02*
X160085714Y-56004761D01*
X159942857Y-56052380D01*
X159847619Y-56052380D01*
X159704761Y-56004761D01*
X159609523Y-55909523D01*
X159561904Y-55814285D01*
X159514285Y-55623809D01*
X159514285Y-55480952D01*
X159561904Y-55290476D01*
X159609523Y-55195238D01*
X159704761Y-55100000D01*
X159847619Y-55052380D01*
X159942857Y-55052380D01*
X160085714Y-55100000D01*
X160133333Y-55147619D01*
X161085714Y-56052380D02*
X160514285Y-56052380D01*
X160800000Y-56052380D02*
X160800000Y-55052380D01*
X160704761Y-55195238D01*
X160609523Y-55290476D01*
X160514285Y-55338095D01*
X177652380Y-104138095D02*
X176652380Y-104138095D01*
X176652380Y-103757142D01*
X176700000Y-103661904D01*
X176747619Y-103614285D01*
X176842857Y-103566666D01*
X176985714Y-103566666D01*
X177080952Y-103614285D01*
X177128571Y-103661904D01*
X177176190Y-103757142D01*
X177176190Y-104138095D01*
X176652380Y-102709523D02*
X176652380Y-102900000D01*
X176700000Y-102995238D01*
X176747619Y-103042857D01*
X176890476Y-103138095D01*
X177080952Y-103185714D01*
X177461904Y-103185714D01*
X177557142Y-103138095D01*
X177604761Y-103090476D01*
X177652380Y-102995238D01*
X177652380Y-102804761D01*
X177604761Y-102709523D01*
X177557142Y-102661904D01*
X177461904Y-102614285D01*
X177223809Y-102614285D01*
X177128571Y-102661904D01*
X177080952Y-102709523D01*
X177033333Y-102804761D01*
X177033333Y-102995238D01*
X177080952Y-103090476D01*
X177128571Y-103138095D01*
X177223809Y-103185714D01*
X160961904Y-52102380D02*
X160961904Y-51102380D01*
X161200000Y-51102380D01*
X161342857Y-51150000D01*
X161438095Y-51245238D01*
X161485714Y-51340476D01*
X161533333Y-51530952D01*
X161533333Y-51673809D01*
X161485714Y-51864285D01*
X161438095Y-51959523D01*
X161342857Y-52054761D01*
X161200000Y-52102380D01*
X160961904Y-52102380D01*
X162485714Y-52102380D02*
X161914285Y-52102380D01*
X162200000Y-52102380D02*
X162200000Y-51102380D01*
X162104761Y-51245238D01*
X162009523Y-51340476D01*
X161914285Y-51388095D01*
X165608095Y-85042380D02*
X165608095Y-85851904D01*
X165655714Y-85947142D01*
X165703333Y-85994761D01*
X165798571Y-86042380D01*
X165989047Y-86042380D01*
X166084285Y-85994761D01*
X166131904Y-85947142D01*
X166179523Y-85851904D01*
X166179523Y-85042380D01*
X166560476Y-85042380D02*
X167179523Y-85042380D01*
X166846190Y-85423333D01*
X166989047Y-85423333D01*
X167084285Y-85470952D01*
X167131904Y-85518571D01*
X167179523Y-85613809D01*
X167179523Y-85851904D01*
X167131904Y-85947142D01*
X167084285Y-85994761D01*
X166989047Y-86042380D01*
X166703333Y-86042380D01*
X166608095Y-85994761D01*
X166560476Y-85947142D01*
X182141904Y-72822380D02*
X182141904Y-71822380D01*
X182380000Y-71822380D01*
X182522857Y-71870000D01*
X182618095Y-71965238D01*
X182665714Y-72060476D01*
X182713333Y-72250952D01*
X182713333Y-72393809D01*
X182665714Y-72584285D01*
X182618095Y-72679523D01*
X182522857Y-72774761D01*
X182380000Y-72822380D01*
X182141904Y-72822380D01*
X183618095Y-71822380D02*
X183141904Y-71822380D01*
X183094285Y-72298571D01*
X183141904Y-72250952D01*
X183237142Y-72203333D01*
X183475238Y-72203333D01*
X183570476Y-72250952D01*
X183618095Y-72298571D01*
X183665714Y-72393809D01*
X183665714Y-72631904D01*
X183618095Y-72727142D01*
X183570476Y-72774761D01*
X183475238Y-72822380D01*
X183237142Y-72822380D01*
X183141904Y-72774761D01*
X183094285Y-72727142D01*
X182141904Y-65202380D02*
X182141904Y-64202380D01*
X182380000Y-64202380D01*
X182522857Y-64250000D01*
X182618095Y-64345238D01*
X182665714Y-64440476D01*
X182713333Y-64630952D01*
X182713333Y-64773809D01*
X182665714Y-64964285D01*
X182618095Y-65059523D01*
X182522857Y-65154761D01*
X182380000Y-65202380D01*
X182141904Y-65202380D01*
X183284761Y-64630952D02*
X183189523Y-64583333D01*
X183141904Y-64535714D01*
X183094285Y-64440476D01*
X183094285Y-64392857D01*
X183141904Y-64297619D01*
X183189523Y-64250000D01*
X183284761Y-64202380D01*
X183475238Y-64202380D01*
X183570476Y-64250000D01*
X183618095Y-64297619D01*
X183665714Y-64392857D01*
X183665714Y-64440476D01*
X183618095Y-64535714D01*
X183570476Y-64583333D01*
X183475238Y-64630952D01*
X183284761Y-64630952D01*
X183189523Y-64678571D01*
X183141904Y-64726190D01*
X183094285Y-64821428D01*
X183094285Y-65011904D01*
X183141904Y-65107142D01*
X183189523Y-65154761D01*
X183284761Y-65202380D01*
X183475238Y-65202380D01*
X183570476Y-65154761D01*
X183618095Y-65107142D01*
X183665714Y-65011904D01*
X183665714Y-64821428D01*
X183618095Y-64726190D01*
X183570476Y-64678571D01*
X183475238Y-64630952D01*
X182141904Y-67742380D02*
X182141904Y-66742380D01*
X182380000Y-66742380D01*
X182522857Y-66790000D01*
X182618095Y-66885238D01*
X182665714Y-66980476D01*
X182713333Y-67170952D01*
X182713333Y-67313809D01*
X182665714Y-67504285D01*
X182618095Y-67599523D01*
X182522857Y-67694761D01*
X182380000Y-67742380D01*
X182141904Y-67742380D01*
X183046666Y-66742380D02*
X183713333Y-66742380D01*
X183284761Y-67742380D01*
X182141904Y-70282380D02*
X182141904Y-69282380D01*
X182380000Y-69282380D01*
X182522857Y-69330000D01*
X182618095Y-69425238D01*
X182665714Y-69520476D01*
X182713333Y-69710952D01*
X182713333Y-69853809D01*
X182665714Y-70044285D01*
X182618095Y-70139523D01*
X182522857Y-70234761D01*
X182380000Y-70282380D01*
X182141904Y-70282380D01*
X183570476Y-69282380D02*
X183380000Y-69282380D01*
X183284761Y-69330000D01*
X183237142Y-69377619D01*
X183141904Y-69520476D01*
X183094285Y-69710952D01*
X183094285Y-70091904D01*
X183141904Y-70187142D01*
X183189523Y-70234761D01*
X183284761Y-70282380D01*
X183475238Y-70282380D01*
X183570476Y-70234761D01*
X183618095Y-70187142D01*
X183665714Y-70091904D01*
X183665714Y-69853809D01*
X183618095Y-69758571D01*
X183570476Y-69710952D01*
X183475238Y-69663333D01*
X183284761Y-69663333D01*
X183189523Y-69710952D01*
X183141904Y-69758571D01*
X183094285Y-69853809D01*
X182141904Y-75362380D02*
X182141904Y-74362380D01*
X182380000Y-74362380D01*
X182522857Y-74410000D01*
X182618095Y-74505238D01*
X182665714Y-74600476D01*
X182713333Y-74790952D01*
X182713333Y-74933809D01*
X182665714Y-75124285D01*
X182618095Y-75219523D01*
X182522857Y-75314761D01*
X182380000Y-75362380D01*
X182141904Y-75362380D01*
X183570476Y-74695714D02*
X183570476Y-75362380D01*
X183332380Y-74314761D02*
X183094285Y-75029047D01*
X183713333Y-75029047D01*
X182141904Y-77902380D02*
X182141904Y-76902380D01*
X182380000Y-76902380D01*
X182522857Y-76950000D01*
X182618095Y-77045238D01*
X182665714Y-77140476D01*
X182713333Y-77330952D01*
X182713333Y-77473809D01*
X182665714Y-77664285D01*
X182618095Y-77759523D01*
X182522857Y-77854761D01*
X182380000Y-77902380D01*
X182141904Y-77902380D01*
X183046666Y-76902380D02*
X183665714Y-76902380D01*
X183332380Y-77283333D01*
X183475238Y-77283333D01*
X183570476Y-77330952D01*
X183618095Y-77378571D01*
X183665714Y-77473809D01*
X183665714Y-77711904D01*
X183618095Y-77807142D01*
X183570476Y-77854761D01*
X183475238Y-77902380D01*
X183189523Y-77902380D01*
X183094285Y-77854761D01*
X183046666Y-77807142D01*
X182141904Y-80442380D02*
X182141904Y-79442380D01*
X182380000Y-79442380D01*
X182522857Y-79490000D01*
X182618095Y-79585238D01*
X182665714Y-79680476D01*
X182713333Y-79870952D01*
X182713333Y-80013809D01*
X182665714Y-80204285D01*
X182618095Y-80299523D01*
X182522857Y-80394761D01*
X182380000Y-80442380D01*
X182141904Y-80442380D01*
X183094285Y-79537619D02*
X183141904Y-79490000D01*
X183237142Y-79442380D01*
X183475238Y-79442380D01*
X183570476Y-79490000D01*
X183618095Y-79537619D01*
X183665714Y-79632857D01*
X183665714Y-79728095D01*
X183618095Y-79870952D01*
X183046666Y-80442380D01*
X183665714Y-80442380D01*
X182141904Y-62662380D02*
X182141904Y-61662380D01*
X182380000Y-61662380D01*
X182522857Y-61710000D01*
X182618095Y-61805238D01*
X182665714Y-61900476D01*
X182713333Y-62090952D01*
X182713333Y-62233809D01*
X182665714Y-62424285D01*
X182618095Y-62519523D01*
X182522857Y-62614761D01*
X182380000Y-62662380D01*
X182141904Y-62662380D01*
X183189523Y-62662380D02*
X183380000Y-62662380D01*
X183475238Y-62614761D01*
X183522857Y-62567142D01*
X183618095Y-62424285D01*
X183665714Y-62233809D01*
X183665714Y-61852857D01*
X183618095Y-61757619D01*
X183570476Y-61710000D01*
X183475238Y-61662380D01*
X183284761Y-61662380D01*
X183189523Y-61710000D01*
X183141904Y-61757619D01*
X183094285Y-61852857D01*
X183094285Y-62090952D01*
X183141904Y-62186190D01*
X183189523Y-62233809D01*
X183284761Y-62281428D01*
X183475238Y-62281428D01*
X183570476Y-62233809D01*
X183618095Y-62186190D01*
X183665714Y-62090952D01*
X169438095Y-108152380D02*
X169438095Y-108961904D01*
X169485714Y-109057142D01*
X169533333Y-109104761D01*
X169628571Y-109152380D01*
X169819047Y-109152380D01*
X169914285Y-109104761D01*
X169961904Y-109057142D01*
X170009523Y-108961904D01*
X170009523Y-108152380D01*
X170914285Y-108485714D02*
X170914285Y-109152380D01*
X170676190Y-108104761D02*
X170438095Y-108819047D01*
X171057142Y-108819047D01*
X159223809Y-82976190D02*
X159223809Y-83452380D01*
X158890476Y-82452380D02*
X159223809Y-82976190D01*
X159557142Y-82452380D01*
X160414285Y-83452380D02*
X159842857Y-83452380D01*
X160128571Y-83452380D02*
X160128571Y-82452380D01*
X160033333Y-82595238D01*
X159938095Y-82690476D01*
X159842857Y-82738095D01*
X165842380Y-51193095D02*
X164842380Y-51193095D01*
X164842380Y-50812142D01*
X164890000Y-50716904D01*
X164937619Y-50669285D01*
X165032857Y-50621666D01*
X165175714Y-50621666D01*
X165270952Y-50669285D01*
X165318571Y-50716904D01*
X165366190Y-50812142D01*
X165366190Y-51193095D01*
X164842380Y-49716904D02*
X164842380Y-50193095D01*
X165318571Y-50240714D01*
X165270952Y-50193095D01*
X165223333Y-50097857D01*
X165223333Y-49859761D01*
X165270952Y-49764523D01*
X165318571Y-49716904D01*
X165413809Y-49669285D01*
X165651904Y-49669285D01*
X165747142Y-49716904D01*
X165794761Y-49764523D01*
X165842380Y-49859761D01*
X165842380Y-50097857D01*
X165794761Y-50193095D01*
X165747142Y-50240714D01*
X186523333Y-65042380D02*
X186190000Y-64566190D01*
X185951904Y-65042380D02*
X185951904Y-64042380D01*
X186332857Y-64042380D01*
X186428095Y-64090000D01*
X186475714Y-64137619D01*
X186523333Y-64232857D01*
X186523333Y-64375714D01*
X186475714Y-64470952D01*
X186428095Y-64518571D01*
X186332857Y-64566190D01*
X185951904Y-64566190D01*
X186856666Y-64042380D02*
X187523333Y-64042380D01*
X187094761Y-65042380D01*
X158657142Y-79302380D02*
X158323809Y-78826190D01*
X158085714Y-79302380D02*
X158085714Y-78302380D01*
X158466666Y-78302380D01*
X158561904Y-78350000D01*
X158609523Y-78397619D01*
X158657142Y-78492857D01*
X158657142Y-78635714D01*
X158609523Y-78730952D01*
X158561904Y-78778571D01*
X158466666Y-78826190D01*
X158085714Y-78826190D01*
X159609523Y-79302380D02*
X159038095Y-79302380D01*
X159323809Y-79302380D02*
X159323809Y-78302380D01*
X159228571Y-78445238D01*
X159133333Y-78540476D01*
X159038095Y-78588095D01*
X159990476Y-78397619D02*
X160038095Y-78350000D01*
X160133333Y-78302380D01*
X160371428Y-78302380D01*
X160466666Y-78350000D01*
X160514285Y-78397619D01*
X160561904Y-78492857D01*
X160561904Y-78588095D01*
X160514285Y-78730952D01*
X159942857Y-79302380D01*
X160561904Y-79302380D01*
X157033333Y-89052380D02*
X156700000Y-88576190D01*
X156461904Y-89052380D02*
X156461904Y-88052380D01*
X156842857Y-88052380D01*
X156938095Y-88100000D01*
X156985714Y-88147619D01*
X157033333Y-88242857D01*
X157033333Y-88385714D01*
X156985714Y-88480952D01*
X156938095Y-88528571D01*
X156842857Y-88576190D01*
X156461904Y-88576190D01*
X157985714Y-89052380D02*
X157414285Y-89052380D01*
X157700000Y-89052380D02*
X157700000Y-88052380D01*
X157604761Y-88195238D01*
X157509523Y-88290476D01*
X157414285Y-88338095D01*
X186523333Y-77742380D02*
X186190000Y-77266190D01*
X185951904Y-77742380D02*
X185951904Y-76742380D01*
X186332857Y-76742380D01*
X186428095Y-76790000D01*
X186475714Y-76837619D01*
X186523333Y-76932857D01*
X186523333Y-77075714D01*
X186475714Y-77170952D01*
X186428095Y-77218571D01*
X186332857Y-77266190D01*
X185951904Y-77266190D01*
X186904285Y-76837619D02*
X186951904Y-76790000D01*
X187047142Y-76742380D01*
X187285238Y-76742380D01*
X187380476Y-76790000D01*
X187428095Y-76837619D01*
X187475714Y-76932857D01*
X187475714Y-77028095D01*
X187428095Y-77170952D01*
X186856666Y-77742380D01*
X187475714Y-77742380D01*
X186523333Y-75202380D02*
X186190000Y-74726190D01*
X185951904Y-75202380D02*
X185951904Y-74202380D01*
X186332857Y-74202380D01*
X186428095Y-74250000D01*
X186475714Y-74297619D01*
X186523333Y-74392857D01*
X186523333Y-74535714D01*
X186475714Y-74630952D01*
X186428095Y-74678571D01*
X186332857Y-74726190D01*
X185951904Y-74726190D01*
X186856666Y-74202380D02*
X187475714Y-74202380D01*
X187142380Y-74583333D01*
X187285238Y-74583333D01*
X187380476Y-74630952D01*
X187428095Y-74678571D01*
X187475714Y-74773809D01*
X187475714Y-75011904D01*
X187428095Y-75107142D01*
X187380476Y-75154761D01*
X187285238Y-75202380D01*
X186999523Y-75202380D01*
X186904285Y-75154761D01*
X186856666Y-75107142D01*
X186523333Y-67582380D02*
X186190000Y-67106190D01*
X185951904Y-67582380D02*
X185951904Y-66582380D01*
X186332857Y-66582380D01*
X186428095Y-66630000D01*
X186475714Y-66677619D01*
X186523333Y-66772857D01*
X186523333Y-66915714D01*
X186475714Y-67010952D01*
X186428095Y-67058571D01*
X186332857Y-67106190D01*
X185951904Y-67106190D01*
X187380476Y-66582380D02*
X187190000Y-66582380D01*
X187094761Y-66630000D01*
X187047142Y-66677619D01*
X186951904Y-66820476D01*
X186904285Y-67010952D01*
X186904285Y-67391904D01*
X186951904Y-67487142D01*
X186999523Y-67534761D01*
X187094761Y-67582380D01*
X187285238Y-67582380D01*
X187380476Y-67534761D01*
X187428095Y-67487142D01*
X187475714Y-67391904D01*
X187475714Y-67153809D01*
X187428095Y-67058571D01*
X187380476Y-67010952D01*
X187285238Y-66963333D01*
X187094761Y-66963333D01*
X186999523Y-67010952D01*
X186951904Y-67058571D01*
X186904285Y-67153809D01*
X186523333Y-72662380D02*
X186190000Y-72186190D01*
X185951904Y-72662380D02*
X185951904Y-71662380D01*
X186332857Y-71662380D01*
X186428095Y-71710000D01*
X186475714Y-71757619D01*
X186523333Y-71852857D01*
X186523333Y-71995714D01*
X186475714Y-72090952D01*
X186428095Y-72138571D01*
X186332857Y-72186190D01*
X185951904Y-72186190D01*
X187380476Y-71995714D02*
X187380476Y-72662380D01*
X187142380Y-71614761D02*
X186904285Y-72329047D01*
X187523333Y-72329047D01*
X186523333Y-70122380D02*
X186190000Y-69646190D01*
X185951904Y-70122380D02*
X185951904Y-69122380D01*
X186332857Y-69122380D01*
X186428095Y-69170000D01*
X186475714Y-69217619D01*
X186523333Y-69312857D01*
X186523333Y-69455714D01*
X186475714Y-69550952D01*
X186428095Y-69598571D01*
X186332857Y-69646190D01*
X185951904Y-69646190D01*
X187428095Y-69122380D02*
X186951904Y-69122380D01*
X186904285Y-69598571D01*
X186951904Y-69550952D01*
X187047142Y-69503333D01*
X187285238Y-69503333D01*
X187380476Y-69550952D01*
X187428095Y-69598571D01*
X187475714Y-69693809D01*
X187475714Y-69931904D01*
X187428095Y-70027142D01*
X187380476Y-70074761D01*
X187285238Y-70122380D01*
X187047142Y-70122380D01*
X186951904Y-70074761D01*
X186904285Y-70027142D01*
X152457142Y-78752380D02*
X152123809Y-78276190D01*
X151885714Y-78752380D02*
X151885714Y-77752380D01*
X152266666Y-77752380D01*
X152361904Y-77800000D01*
X152409523Y-77847619D01*
X152457142Y-77942857D01*
X152457142Y-78085714D01*
X152409523Y-78180952D01*
X152361904Y-78228571D01*
X152266666Y-78276190D01*
X151885714Y-78276190D01*
X153409523Y-78752380D02*
X152838095Y-78752380D01*
X153123809Y-78752380D02*
X153123809Y-77752380D01*
X153028571Y-77895238D01*
X152933333Y-77990476D01*
X152838095Y-78038095D01*
X153742857Y-77752380D02*
X154361904Y-77752380D01*
X154028571Y-78133333D01*
X154171428Y-78133333D01*
X154266666Y-78180952D01*
X154314285Y-78228571D01*
X154361904Y-78323809D01*
X154361904Y-78561904D01*
X154314285Y-78657142D01*
X154266666Y-78704761D01*
X154171428Y-78752380D01*
X153885714Y-78752380D01*
X153790476Y-78704761D01*
X153742857Y-78657142D01*
X177757142Y-81502380D02*
X177423809Y-81026190D01*
X177185714Y-81502380D02*
X177185714Y-80502380D01*
X177566666Y-80502380D01*
X177661904Y-80550000D01*
X177709523Y-80597619D01*
X177757142Y-80692857D01*
X177757142Y-80835714D01*
X177709523Y-80930952D01*
X177661904Y-80978571D01*
X177566666Y-81026190D01*
X177185714Y-81026190D01*
X178709523Y-81502380D02*
X178138095Y-81502380D01*
X178423809Y-81502380D02*
X178423809Y-80502380D01*
X178328571Y-80645238D01*
X178233333Y-80740476D01*
X178138095Y-80788095D01*
X179566666Y-80835714D02*
X179566666Y-81502380D01*
X179328571Y-80454761D02*
X179090476Y-81169047D01*
X179709523Y-81169047D01*
X184257142Y-82952380D02*
X183923809Y-82476190D01*
X183685714Y-82952380D02*
X183685714Y-81952380D01*
X184066666Y-81952380D01*
X184161904Y-82000000D01*
X184209523Y-82047619D01*
X184257142Y-82142857D01*
X184257142Y-82285714D01*
X184209523Y-82380952D01*
X184161904Y-82428571D01*
X184066666Y-82476190D01*
X183685714Y-82476190D01*
X185209523Y-82952380D02*
X184638095Y-82952380D01*
X184923809Y-82952380D02*
X184923809Y-81952380D01*
X184828571Y-82095238D01*
X184733333Y-82190476D01*
X184638095Y-82238095D01*
X186114285Y-81952380D02*
X185638095Y-81952380D01*
X185590476Y-82428571D01*
X185638095Y-82380952D01*
X185733333Y-82333333D01*
X185971428Y-82333333D01*
X186066666Y-82380952D01*
X186114285Y-82428571D01*
X186161904Y-82523809D01*
X186161904Y-82761904D01*
X186114285Y-82857142D01*
X186066666Y-82904761D01*
X185971428Y-82952380D01*
X185733333Y-82952380D01*
X185638095Y-82904761D01*
X185590476Y-82857142D01*
X186523333Y-62502380D02*
X186190000Y-62026190D01*
X185951904Y-62502380D02*
X185951904Y-61502380D01*
X186332857Y-61502380D01*
X186428095Y-61550000D01*
X186475714Y-61597619D01*
X186523333Y-61692857D01*
X186523333Y-61835714D01*
X186475714Y-61930952D01*
X186428095Y-61978571D01*
X186332857Y-62026190D01*
X185951904Y-62026190D01*
X187094761Y-61930952D02*
X186999523Y-61883333D01*
X186951904Y-61835714D01*
X186904285Y-61740476D01*
X186904285Y-61692857D01*
X186951904Y-61597619D01*
X186999523Y-61550000D01*
X187094761Y-61502380D01*
X187285238Y-61502380D01*
X187380476Y-61550000D01*
X187428095Y-61597619D01*
X187475714Y-61692857D01*
X187475714Y-61740476D01*
X187428095Y-61835714D01*
X187380476Y-61883333D01*
X187285238Y-61930952D01*
X187094761Y-61930952D01*
X186999523Y-61978571D01*
X186951904Y-62026190D01*
X186904285Y-62121428D01*
X186904285Y-62311904D01*
X186951904Y-62407142D01*
X186999523Y-62454761D01*
X187094761Y-62502380D01*
X187285238Y-62502380D01*
X187380476Y-62454761D01*
X187428095Y-62407142D01*
X187475714Y-62311904D01*
X187475714Y-62121428D01*
X187428095Y-62026190D01*
X187380476Y-61978571D01*
X187285238Y-61930952D01*
X186523333Y-59962380D02*
X186190000Y-59486190D01*
X185951904Y-59962380D02*
X185951904Y-58962380D01*
X186332857Y-58962380D01*
X186428095Y-59010000D01*
X186475714Y-59057619D01*
X186523333Y-59152857D01*
X186523333Y-59295714D01*
X186475714Y-59390952D01*
X186428095Y-59438571D01*
X186332857Y-59486190D01*
X185951904Y-59486190D01*
X186999523Y-59962380D02*
X187190000Y-59962380D01*
X187285238Y-59914761D01*
X187332857Y-59867142D01*
X187428095Y-59724285D01*
X187475714Y-59533809D01*
X187475714Y-59152857D01*
X187428095Y-59057619D01*
X187380476Y-59010000D01*
X187285238Y-58962380D01*
X187094761Y-58962380D01*
X186999523Y-59010000D01*
X186951904Y-59057619D01*
X186904285Y-59152857D01*
X186904285Y-59390952D01*
X186951904Y-59486190D01*
X186999523Y-59533809D01*
X187094761Y-59581428D01*
X187285238Y-59581428D01*
X187380476Y-59533809D01*
X187428095Y-59486190D01*
X187475714Y-59390952D01*
X164457142Y-110202380D02*
X164123809Y-109726190D01*
X163885714Y-110202380D02*
X163885714Y-109202380D01*
X164266666Y-109202380D01*
X164361904Y-109250000D01*
X164409523Y-109297619D01*
X164457142Y-109392857D01*
X164457142Y-109535714D01*
X164409523Y-109630952D01*
X164361904Y-109678571D01*
X164266666Y-109726190D01*
X163885714Y-109726190D01*
X165409523Y-110202380D02*
X164838095Y-110202380D01*
X165123809Y-110202380D02*
X165123809Y-109202380D01*
X165028571Y-109345238D01*
X164933333Y-109440476D01*
X164838095Y-109488095D01*
X166028571Y-109202380D02*
X166123809Y-109202380D01*
X166219047Y-109250000D01*
X166266666Y-109297619D01*
X166314285Y-109392857D01*
X166361904Y-109583333D01*
X166361904Y-109821428D01*
X166314285Y-110011904D01*
X166266666Y-110107142D01*
X166219047Y-110154761D01*
X166123809Y-110202380D01*
X166028571Y-110202380D01*
X165933333Y-110154761D01*
X165885714Y-110107142D01*
X165838095Y-110011904D01*
X165790476Y-109821428D01*
X165790476Y-109583333D01*
X165838095Y-109392857D01*
X165885714Y-109297619D01*
X165933333Y-109250000D01*
X166028571Y-109202380D01*
X163252380Y-109442857D02*
X162776190Y-109776190D01*
X163252380Y-110014285D02*
X162252380Y-110014285D01*
X162252380Y-109633333D01*
X162300000Y-109538095D01*
X162347619Y-109490476D01*
X162442857Y-109442857D01*
X162585714Y-109442857D01*
X162680952Y-109490476D01*
X162728571Y-109538095D01*
X162776190Y-109633333D01*
X162776190Y-110014285D01*
X163252380Y-108490476D02*
X163252380Y-109061904D01*
X163252380Y-108776190D02*
X162252380Y-108776190D01*
X162395238Y-108871428D01*
X162490476Y-108966666D01*
X162538095Y-109061904D01*
X163252380Y-107538095D02*
X163252380Y-108109523D01*
X163252380Y-107823809D02*
X162252380Y-107823809D01*
X162395238Y-107919047D01*
X162490476Y-108014285D01*
X162538095Y-108109523D01*
X174957142Y-107452380D02*
X174623809Y-106976190D01*
X174385714Y-107452380D02*
X174385714Y-106452380D01*
X174766666Y-106452380D01*
X174861904Y-106500000D01*
X174909523Y-106547619D01*
X174957142Y-106642857D01*
X174957142Y-106785714D01*
X174909523Y-106880952D01*
X174861904Y-106928571D01*
X174766666Y-106976190D01*
X174385714Y-106976190D01*
X175909523Y-107452380D02*
X175338095Y-107452380D01*
X175623809Y-107452380D02*
X175623809Y-106452380D01*
X175528571Y-106595238D01*
X175433333Y-106690476D01*
X175338095Y-106738095D01*
X176766666Y-106452380D02*
X176576190Y-106452380D01*
X176480952Y-106500000D01*
X176433333Y-106547619D01*
X176338095Y-106690476D01*
X176290476Y-106880952D01*
X176290476Y-107261904D01*
X176338095Y-107357142D01*
X176385714Y-107404761D01*
X176480952Y-107452380D01*
X176671428Y-107452380D01*
X176766666Y-107404761D01*
X176814285Y-107357142D01*
X176861904Y-107261904D01*
X176861904Y-107023809D01*
X176814285Y-106928571D01*
X176766666Y-106880952D01*
X176671428Y-106833333D01*
X176480952Y-106833333D01*
X176385714Y-106880952D01*
X176338095Y-106928571D01*
X176290476Y-107023809D01*
X161821904Y-59082380D02*
X161821904Y-58082380D01*
X162202857Y-58082380D01*
X162298095Y-58130000D01*
X162345714Y-58177619D01*
X162393333Y-58272857D01*
X162393333Y-58415714D01*
X162345714Y-58510952D01*
X162298095Y-58558571D01*
X162202857Y-58606190D01*
X161821904Y-58606190D01*
X162774285Y-58177619D02*
X162821904Y-58130000D01*
X162917142Y-58082380D01*
X163155238Y-58082380D01*
X163250476Y-58130000D01*
X163298095Y-58177619D01*
X163345714Y-58272857D01*
X163345714Y-58368095D01*
X163298095Y-58510952D01*
X162726666Y-59082380D01*
X163345714Y-59082380D01*
X177061904Y-59082380D02*
X177061904Y-58082380D01*
X177442857Y-58082380D01*
X177538095Y-58130000D01*
X177585714Y-58177619D01*
X177633333Y-58272857D01*
X177633333Y-58415714D01*
X177585714Y-58510952D01*
X177538095Y-58558571D01*
X177442857Y-58606190D01*
X177061904Y-58606190D01*
X178490476Y-58415714D02*
X178490476Y-59082380D01*
X178252380Y-58034761D02*
X178014285Y-58749047D01*
X178633333Y-58749047D01*
X158052380Y-51461904D02*
X158861904Y-51461904D01*
X158957142Y-51414285D01*
X159004761Y-51366666D01*
X159052380Y-51271428D01*
X159052380Y-51080952D01*
X159004761Y-50985714D01*
X158957142Y-50938095D01*
X158861904Y-50890476D01*
X158052380Y-50890476D01*
X158147619Y-50461904D02*
X158100000Y-50414285D01*
X158052380Y-50319047D01*
X158052380Y-50080952D01*
X158100000Y-49985714D01*
X158147619Y-49938095D01*
X158242857Y-49890476D01*
X158338095Y-49890476D01*
X158480952Y-49938095D01*
X159052380Y-50509523D01*
X159052380Y-49890476D01*
%LPC*%
D16*
X153500000Y-64000000D03*
X153500000Y-66500000D03*
X153500000Y-69000000D03*
X153500000Y-71500000D03*
D17*
X153500000Y-74000000D03*
D18*
X182300000Y-88695000D03*
X182300000Y-89965000D03*
X182300000Y-91235000D03*
X182300000Y-92505000D03*
X176900000Y-92505000D03*
X176900000Y-91235000D03*
X176900000Y-89965000D03*
X176900000Y-88695000D03*
D19*
X175200000Y-82500000D03*
D20*
X162280000Y-102460000D03*
X159740000Y-102460000D03*
D19*
X157200000Y-102460000D03*
D21*
X178700000Y-96050000D03*
X178700000Y-94550000D03*
D22*
X181350000Y-84800000D03*
X182850000Y-84800000D03*
D21*
X165600000Y-104550000D03*
X165600000Y-106050000D03*
D22*
X156650000Y-79800000D03*
X155150000Y-79800000D03*
D21*
X160600000Y-105250000D03*
X160600000Y-106750000D03*
X172650000Y-95500000D03*
X172650000Y-97000000D03*
X174450000Y-97000000D03*
X174450000Y-95500000D03*
D22*
X158550000Y-91900000D03*
X157050000Y-91900000D03*
D21*
X180600000Y-96050000D03*
X180600000Y-94550000D03*
D23*
X154200000Y-60100000D03*
X152200000Y-60100000D03*
X161300000Y-57100000D03*
X159300000Y-57100000D03*
D24*
X179900000Y-101500000D03*
X179900000Y-103500000D03*
X179900000Y-105500000D03*
D25*
X179900000Y-107500000D03*
D26*
X163450000Y-53600000D03*
X159950000Y-53600000D03*
D27*
X163570000Y-87190000D03*
X164370000Y-87190000D03*
X165170000Y-87190000D03*
X165970000Y-87190000D03*
X166770000Y-87190000D03*
X167570000Y-87190000D03*
X168370000Y-87190000D03*
X169170000Y-87190000D03*
D28*
X170620000Y-88640000D03*
X170620000Y-89440000D03*
X170620000Y-90240000D03*
X170620000Y-91040000D03*
X170620000Y-91840000D03*
X170620000Y-92640000D03*
X170620000Y-93440000D03*
X170620000Y-94240000D03*
D27*
X169170000Y-95690000D03*
X168370000Y-95690000D03*
X167570000Y-95690000D03*
X166770000Y-95690000D03*
X165970000Y-95690000D03*
X165170000Y-95690000D03*
X164370000Y-95690000D03*
X163570000Y-95690000D03*
D28*
X162120000Y-94240000D03*
X162120000Y-93440000D03*
X162120000Y-92640000D03*
X162120000Y-91840000D03*
X162120000Y-91040000D03*
X162120000Y-90240000D03*
X162120000Y-89440000D03*
X162120000Y-88640000D03*
D29*
X182080000Y-71120000D03*
X183680000Y-71120000D03*
X183680000Y-63500000D03*
X182080000Y-63500000D03*
X182080000Y-66040000D03*
X183680000Y-66040000D03*
X183680000Y-68580000D03*
X182080000Y-68580000D03*
X182080000Y-73660000D03*
X183680000Y-73660000D03*
X183680000Y-76200000D03*
X182080000Y-76200000D03*
X182080000Y-78740000D03*
X183680000Y-78740000D03*
X183680000Y-60960000D03*
X182080000Y-60960000D03*
D30*
X168580000Y-106640000D03*
X171780000Y-106640000D03*
X168580000Y-101640000D03*
X171780000Y-101640000D03*
D31*
X159700000Y-85090000D03*
X158750000Y-85090000D03*
X157800000Y-85090000D03*
D32*
X151765000Y-84455000D03*
X154305000Y-85725000D03*
X151765000Y-86995000D03*
X154305000Y-88265000D03*
X151765000Y-89535000D03*
X154305000Y-90805000D03*
X151765000Y-92075000D03*
X154305000Y-93345000D03*
X151765000Y-94615000D03*
X154305000Y-95885000D03*
D33*
X153565000Y-83055000D03*
D20*
X172740000Y-53500000D03*
X172740000Y-56040000D03*
X170200000Y-53500000D03*
X170200000Y-56040000D03*
X167660000Y-53500000D03*
D19*
X167660000Y-56040000D03*
D34*
X185940000Y-66040000D03*
X187440000Y-66040000D03*
X158550000Y-77400000D03*
X160050000Y-77400000D03*
X157850000Y-90050000D03*
X156350000Y-90050000D03*
X187440000Y-78740000D03*
X185940000Y-78740000D03*
X185940000Y-76200000D03*
X187440000Y-76200000D03*
X187440000Y-68580000D03*
X185940000Y-68580000D03*
X185940000Y-73660000D03*
X187440000Y-73660000D03*
X187440000Y-71120000D03*
X185940000Y-71120000D03*
X156650000Y-78200000D03*
X155150000Y-78200000D03*
X179150000Y-82500000D03*
X177650000Y-82500000D03*
X181350000Y-82500000D03*
X182850000Y-82500000D03*
X187440000Y-63500000D03*
X185940000Y-63500000D03*
X185940000Y-60960000D03*
X187440000Y-60960000D03*
X164350000Y-108300000D03*
X165850000Y-108300000D03*
D35*
X162800000Y-106750000D03*
X162800000Y-105250000D03*
D34*
X174850000Y-105500000D03*
X176350000Y-105500000D03*
D19*
X162560000Y-60960000D03*
D20*
X162560000Y-63500000D03*
X162560000Y-66040000D03*
X162560000Y-68580000D03*
X162560000Y-71120000D03*
X162560000Y-73660000D03*
X162560000Y-76200000D03*
X162560000Y-78740000D03*
X177800000Y-78740000D03*
X177800000Y-76200000D03*
X177800000Y-73660000D03*
X177800000Y-71120000D03*
X177800000Y-68580000D03*
X177800000Y-66040000D03*
X177800000Y-63500000D03*
D19*
X177800000Y-60960000D03*
D36*
X151900000Y-57150000D03*
X156500000Y-57150000D03*
X154200000Y-57150000D03*
D37*
X154200000Y-50850000D03*
M02*
