G04 #@! TF.GenerationSoftware,KiCad,Pcbnew,(5.99.0-492-g30da2b31e)*
G04 #@! TF.CreationDate,2019-12-10T20:34:04+01:00*
G04 #@! TF.ProjectId,Feeder,46656564-6572-42e6-9b69-6361645f7063,0.1*
G04 #@! TF.SameCoordinates,Original*
G04 #@! TF.FileFunction,Paste,Top*
G04 #@! TF.FilePolarity,Positive*
%FSLAX46Y46*%
G04 Gerber Fmt 4.6, Leading zero omitted, Abs format (unit mm)*
G04 Created by KiCad (PCBNEW (5.99.0-492-g30da2b31e)) date 2019-12-10 20:34:04*
%MOMM*%
%LPD*%
G04 APERTURE LIST*
%ADD10R,1.550000X0.600000*%
%ADD11R,0.750000X0.800000*%
%ADD12R,0.800000X0.750000*%
%ADD13R,1.000000X1.250000*%
%ADD14R,1.300000X1.700000*%
%ADD15R,0.600000X1.200000*%
%ADD16R,1.200000X0.600000*%
%ADD17R,0.800000X0.800000*%
%ADD18R,1.000000X1.600000*%
%ADD19R,0.300000X2.000000*%
%ADD20R,0.500000X0.900000*%
%ADD21R,0.900000X0.500000*%
%ADD22R,1.500000X2.000000*%
%ADD23R,3.800000X2.000000*%
G04 APERTURE END LIST*
D10*
X182300000Y-88695000D03*
X182300000Y-89965000D03*
X182300000Y-91235000D03*
X182300000Y-92505000D03*
X176900000Y-92505000D03*
X176900000Y-91235000D03*
X176900000Y-89965000D03*
X176900000Y-88695000D03*
D11*
X178700000Y-96050000D03*
X178700000Y-94550000D03*
D12*
X181350000Y-84800000D03*
X182850000Y-84800000D03*
D11*
X165600000Y-104550000D03*
X165600000Y-106050000D03*
D12*
X156650000Y-79800000D03*
X155150000Y-79800000D03*
D11*
X160600000Y-105250000D03*
X160600000Y-106750000D03*
X172650000Y-95500000D03*
X172650000Y-97000000D03*
X174450000Y-97000000D03*
X174450000Y-95500000D03*
D12*
X158550000Y-91900000D03*
X157050000Y-91900000D03*
D11*
X180600000Y-96050000D03*
X180600000Y-94550000D03*
D13*
X154200000Y-60100000D03*
X152200000Y-60100000D03*
X161300000Y-57100000D03*
X159300000Y-57100000D03*
D14*
X163450000Y-53600000D03*
X159950000Y-53600000D03*
D15*
X163570000Y-87190000D03*
X164370000Y-87190000D03*
X165170000Y-87190000D03*
X165970000Y-87190000D03*
X166770000Y-87190000D03*
X167570000Y-87190000D03*
X168370000Y-87190000D03*
X169170000Y-87190000D03*
D16*
X170620000Y-88640000D03*
X170620000Y-89440000D03*
X170620000Y-90240000D03*
X170620000Y-91040000D03*
X170620000Y-91840000D03*
X170620000Y-92640000D03*
X170620000Y-93440000D03*
X170620000Y-94240000D03*
D15*
X169170000Y-95690000D03*
X168370000Y-95690000D03*
X167570000Y-95690000D03*
X166770000Y-95690000D03*
X165970000Y-95690000D03*
X165170000Y-95690000D03*
X164370000Y-95690000D03*
X163570000Y-95690000D03*
D16*
X162120000Y-94240000D03*
X162120000Y-93440000D03*
X162120000Y-92640000D03*
X162120000Y-91840000D03*
X162120000Y-91040000D03*
X162120000Y-90240000D03*
X162120000Y-89440000D03*
X162120000Y-88640000D03*
D17*
X182080000Y-71120000D03*
X183680000Y-71120000D03*
X183680000Y-63500000D03*
X182080000Y-63500000D03*
X182080000Y-66040000D03*
X183680000Y-66040000D03*
X183680000Y-68580000D03*
X182080000Y-68580000D03*
X182080000Y-73660000D03*
X183680000Y-73660000D03*
X183680000Y-76200000D03*
X182080000Y-76200000D03*
X182080000Y-78740000D03*
X183680000Y-78740000D03*
X183680000Y-60960000D03*
X182080000Y-60960000D03*
D18*
X168580000Y-106640000D03*
X171780000Y-106640000D03*
X168580000Y-101640000D03*
X171780000Y-101640000D03*
D19*
X159700000Y-85090000D03*
X158750000Y-85090000D03*
X157800000Y-85090000D03*
D20*
X185940000Y-66040000D03*
X187440000Y-66040000D03*
X158550000Y-77400000D03*
X160050000Y-77400000D03*
X157850000Y-90050000D03*
X156350000Y-90050000D03*
X187440000Y-78740000D03*
X185940000Y-78740000D03*
X185940000Y-76200000D03*
X187440000Y-76200000D03*
X187440000Y-68580000D03*
X185940000Y-68580000D03*
X185940000Y-73660000D03*
X187440000Y-73660000D03*
X187440000Y-71120000D03*
X185940000Y-71120000D03*
X156650000Y-78200000D03*
X155150000Y-78200000D03*
X179150000Y-82500000D03*
X177650000Y-82500000D03*
X181350000Y-82500000D03*
X182850000Y-82500000D03*
X187440000Y-63500000D03*
X185940000Y-63500000D03*
X185940000Y-60960000D03*
X187440000Y-60960000D03*
X164350000Y-108300000D03*
X165850000Y-108300000D03*
D21*
X162800000Y-106750000D03*
X162800000Y-105250000D03*
D20*
X174850000Y-105500000D03*
X176350000Y-105500000D03*
D22*
X151900000Y-57150000D03*
X156500000Y-57150000D03*
X154200000Y-57150000D03*
D23*
X154200000Y-50850000D03*
M02*
