G04 #@! TF.GenerationSoftware,KiCad,Pcbnew,(5.99.0-490-gc7ce93e10)*
G04 #@! TF.CreationDate,2019-12-10T11:33:49+01:00*
G04 #@! TF.ProjectId,LichtDom,4c696368-7444-46f6-9d2e-6b696361645f,0.1*
G04 #@! TF.SameCoordinates,Original*
G04 #@! TF.FileFunction,Copper,L2,Bot*
G04 #@! TF.FilePolarity,Positive*
%FSLAX46Y46*%
G04 Gerber Fmt 4.6, Leading zero omitted, Abs format (unit mm)*
G04 Created by KiCad (PCBNEW (5.99.0-490-gc7ce93e10)) date 2019-12-10 11:33:49*
%MOMM*%
%LPD*%
G04 APERTURE LIST*
%ADD10R,1.500000X3.400000*%
%ADD11R,1.000000X3.500000*%
%ADD12C,2.800000*%
%ADD13O,1.700000X1.700000*%
%ADD14R,1.700000X1.700000*%
%ADD15O,1.727200X1.727200*%
%ADD16R,1.727200X1.727200*%
%ADD17O,1.700000X2.000000*%
%ADD18R,1.700000X2.000000*%
%ADD19C,0.800000*%
%ADD20C,0.600000*%
%ADD21C,0.160000*%
%ADD22C,0.500000*%
%ADD23C,0.200000*%
%ADD24C,1.000000*%
%ADD25C,0.300000*%
G04 APERTURE END LIST*
D10*
X187900000Y-162650000D03*
X194600000Y-162650000D03*
D11*
X190250000Y-156900000D03*
X192250000Y-156900000D03*
D12*
X216000000Y-128750000D03*
X224000000Y-79000000D03*
X230500000Y-79000000D03*
X211500000Y-128750000D03*
D13*
X214000000Y-108120000D03*
X214000000Y-105580000D03*
X214000000Y-103040000D03*
D14*
X214000000Y-100500000D03*
D15*
X189460000Y-148240000D03*
X192000000Y-148240000D03*
X189460000Y-145700000D03*
X192000000Y-145700000D03*
X189460000Y-143160000D03*
X192000000Y-143160000D03*
X189460000Y-140620000D03*
X192000000Y-140620000D03*
X189460000Y-138080000D03*
X192000000Y-138080000D03*
X189460000Y-135540000D03*
X192000000Y-135540000D03*
X189460000Y-133000000D03*
D16*
X192000000Y-133000000D03*
D15*
X189460000Y-121140000D03*
X192000000Y-121140000D03*
X189460000Y-118600000D03*
X192000000Y-118600000D03*
X189460000Y-116060000D03*
X192000000Y-116060000D03*
X189460000Y-113520000D03*
X192000000Y-113520000D03*
X189460000Y-110980000D03*
X192000000Y-110980000D03*
X189460000Y-108440000D03*
X192000000Y-108440000D03*
X189460000Y-105900000D03*
X192000000Y-105900000D03*
X189460000Y-103360000D03*
X192000000Y-103360000D03*
X189460000Y-100820000D03*
X192000000Y-100820000D03*
X189460000Y-98280000D03*
X192000000Y-98280000D03*
X189460000Y-95740000D03*
X192000000Y-95740000D03*
X189460000Y-93200000D03*
X192000000Y-93200000D03*
X189460000Y-90660000D03*
X192000000Y-90660000D03*
X189460000Y-88120000D03*
X192000000Y-88120000D03*
X189460000Y-85580000D03*
X192000000Y-85580000D03*
X189460000Y-83040000D03*
X192000000Y-83040000D03*
X189460000Y-80500000D03*
D16*
X192000000Y-80500000D03*
D13*
X223540000Y-132260000D03*
X221000000Y-132260000D03*
X223540000Y-129720000D03*
X221000000Y-129720000D03*
X223540000Y-127180000D03*
X221000000Y-127180000D03*
X223540000Y-124640000D03*
X221000000Y-124640000D03*
X223540000Y-122100000D03*
X221000000Y-122100000D03*
X223540000Y-119560000D03*
X221000000Y-119560000D03*
X223540000Y-117020000D03*
X221000000Y-117020000D03*
X223540000Y-114480000D03*
X221000000Y-114480000D03*
X223540000Y-111940000D03*
X221000000Y-111940000D03*
X223540000Y-109400000D03*
X221000000Y-109400000D03*
X223540000Y-106860000D03*
X221000000Y-106860000D03*
X223540000Y-104320000D03*
X221000000Y-104320000D03*
X223540000Y-101780000D03*
X221000000Y-101780000D03*
X223540000Y-99240000D03*
X221000000Y-99240000D03*
X223540000Y-96700000D03*
X221000000Y-96700000D03*
X223540000Y-94160000D03*
X221000000Y-94160000D03*
X223540000Y-91620000D03*
X221000000Y-91620000D03*
X223540000Y-89080000D03*
X221000000Y-89080000D03*
X223540000Y-86540000D03*
X221000000Y-86540000D03*
X223540000Y-84000000D03*
D14*
X221000000Y-84000000D03*
D17*
X199000000Y-156750000D03*
D18*
X196500000Y-156750000D03*
D19*
X204250000Y-136000000D03*
X204500000Y-111250000D03*
X204250000Y-103750000D03*
X205500000Y-99000000D03*
X204250000Y-92250000D03*
X206000000Y-83250000D03*
X205750000Y-123500000D03*
X204262653Y-127800000D03*
D20*
X206800000Y-132400000D03*
X203400000Y-124600000D03*
X206900000Y-107500000D03*
X203100000Y-100200000D03*
X206900000Y-88400000D03*
X203400000Y-80800000D03*
X198100000Y-93500000D03*
X198100000Y-112600000D03*
X198200000Y-137500000D03*
X224500000Y-145250000D03*
X223000000Y-156250000D03*
X224000000Y-156250000D03*
X221500000Y-161000000D03*
X211250000Y-162000000D03*
X205500000Y-157500000D03*
X206500000Y-157500000D03*
X203500000Y-151750000D03*
X212000000Y-137750000D03*
X212000000Y-138750000D03*
X219750000Y-141250000D03*
X219500000Y-158600000D03*
X217900000Y-158600000D03*
X201490000Y-142300000D03*
D19*
X224700000Y-162000000D03*
X222800000Y-162000000D03*
D20*
X206800000Y-110100000D03*
X206800000Y-108800000D03*
X208900000Y-110700000D03*
X208900000Y-112500000D03*
X208900000Y-108800000D03*
X210200000Y-99000000D03*
X215800000Y-94100000D03*
X217700000Y-95900000D03*
X226300000Y-87800000D03*
X219500000Y-77700000D03*
X219500000Y-79700000D03*
X221050000Y-138250000D03*
X182400000Y-127600000D03*
X189900000Y-128400000D03*
X203800000Y-126600000D03*
X209500000Y-126600000D03*
X216000000Y-125200000D03*
X209500000Y-125700000D03*
X203800000Y-125800000D03*
D19*
X191250000Y-161750000D03*
X190250000Y-158750000D03*
X209400000Y-143700000D03*
D21*
X221849999Y-87389999D02*
X221000000Y-86540000D01*
X222130001Y-87670001D02*
X221849999Y-87389999D01*
X214000000Y-108120000D02*
X215202081Y-108120000D01*
X215202081Y-108120000D02*
X217000000Y-106322081D01*
X216500000Y-91000000D02*
X218420000Y-89080000D01*
X218420000Y-89080000D02*
X221000000Y-89080000D01*
X214000000Y-105580000D02*
X216500000Y-103080000D01*
D22*
X204500000Y-106750000D02*
X203500000Y-105750000D01*
X204500000Y-111250000D02*
X204500000Y-106750000D01*
X203500000Y-105750000D02*
X203500000Y-104500000D01*
X203500000Y-104500000D02*
X204250000Y-103750000D01*
X205500000Y-99000000D02*
X204250000Y-97750000D01*
X204250000Y-97750000D02*
X204250000Y-92250000D01*
X204250000Y-92250000D02*
X204250000Y-85000000D01*
X204250000Y-85000000D02*
X206000000Y-83250000D01*
X193221314Y-148240000D02*
X193231314Y-148250000D01*
X192000000Y-148240000D02*
X193221314Y-148240000D01*
X193231314Y-148250000D02*
X194500000Y-146981314D01*
X193363600Y-80500000D02*
X192000000Y-80500000D01*
X194500000Y-81636400D02*
X193363600Y-80500000D01*
X193301314Y-85500000D02*
X194500000Y-85500000D01*
X193221314Y-85580000D02*
X193301314Y-85500000D01*
X192000000Y-85580000D02*
X193221314Y-85580000D01*
X194500000Y-85500000D02*
X194500000Y-81636400D01*
X193311314Y-90750000D02*
X194500000Y-90750000D01*
X192000000Y-90660000D02*
X193221314Y-90660000D01*
X193221314Y-90660000D02*
X193311314Y-90750000D01*
X194500000Y-90750000D02*
X194500000Y-85500000D01*
X193231314Y-95750000D02*
X194500000Y-95750000D01*
X193221314Y-95740000D02*
X193231314Y-95750000D01*
X192000000Y-95740000D02*
X193221314Y-95740000D01*
X194500000Y-95750000D02*
X194500000Y-90750000D01*
X193401314Y-101000000D02*
X194500000Y-101000000D01*
X193221314Y-100820000D02*
X193401314Y-101000000D01*
X192000000Y-100820000D02*
X193221314Y-100820000D01*
X194500000Y-101000000D02*
X194500000Y-95750000D01*
X193321314Y-106000000D02*
X194500000Y-106000000D01*
X193221314Y-105900000D02*
X193321314Y-106000000D01*
X192000000Y-105900000D02*
X193221314Y-105900000D01*
X194500000Y-106000000D02*
X194500000Y-101000000D01*
X193241314Y-111000000D02*
X194500000Y-111000000D01*
X193221314Y-110980000D02*
X193241314Y-111000000D01*
X192000000Y-110980000D02*
X193221314Y-110980000D01*
X194500000Y-111000000D02*
X194500000Y-106000000D01*
X193411314Y-116250000D02*
X194500000Y-116250000D01*
X193221314Y-116060000D02*
X193411314Y-116250000D01*
X192000000Y-116060000D02*
X193221314Y-116060000D01*
X194500000Y-116250000D02*
X194500000Y-111000000D01*
X193361314Y-121000000D02*
X194500000Y-121000000D01*
X193221314Y-121140000D02*
X193361314Y-121000000D01*
X192000000Y-121140000D02*
X193221314Y-121140000D01*
X194500000Y-121000000D02*
X194500000Y-116250000D01*
X193363600Y-133000000D02*
X194500000Y-133000000D01*
X192000000Y-133000000D02*
X193363600Y-133000000D01*
X194500000Y-133000000D02*
X194500000Y-121000000D01*
X193221314Y-140620000D02*
X193341314Y-140500000D01*
X192000000Y-140620000D02*
X193221314Y-140620000D01*
X194500000Y-146981314D02*
X194500000Y-140500000D01*
X193341314Y-140500000D02*
X194500000Y-140500000D01*
X194500000Y-140500000D02*
X194500000Y-133000000D01*
X205750000Y-123500000D02*
X205750000Y-116500000D01*
X205750000Y-116500000D02*
X204500000Y-115250000D01*
X204500000Y-115250000D02*
X204500000Y-111250000D01*
X204262653Y-135987347D02*
X204250000Y-136000000D01*
X204262653Y-127800000D02*
X204262653Y-135987347D01*
X199900000Y-140500000D02*
X194500000Y-140500000D01*
X201490000Y-142300000D02*
X199900000Y-140500000D01*
D23*
X224700000Y-162000000D02*
X222800000Y-162000000D01*
X208900000Y-112500000D02*
X208900000Y-110700000D01*
X208300000Y-110100000D02*
X208900000Y-110700000D01*
X206800000Y-110100000D02*
X208300000Y-110100000D01*
X208900000Y-108800000D02*
X206800000Y-108800000D01*
D22*
X205500000Y-99000000D02*
X206065685Y-99000000D01*
X206065685Y-99000000D02*
X210200000Y-99000000D01*
D21*
X216500000Y-103080000D02*
X216500000Y-94100000D01*
D23*
X215800000Y-94100000D02*
X216500000Y-94100000D01*
D21*
X216500000Y-94100000D02*
X216500000Y-91000000D01*
D23*
X217700000Y-95900000D02*
X217000000Y-95900000D01*
D21*
X217000000Y-106322081D02*
X217000000Y-95900000D01*
D23*
X222130001Y-87670001D02*
X222260000Y-87800000D01*
X222260000Y-87800000D02*
X226300000Y-87800000D01*
D24*
X227800000Y-84000000D02*
X223540000Y-84000000D01*
X228900000Y-85100000D02*
X227800000Y-84000000D01*
X221050000Y-138250000D02*
X225350000Y-138250000D01*
X228900000Y-134700000D02*
X228900000Y-85100000D01*
X225350000Y-138250000D02*
X228900000Y-134700000D01*
X223540000Y-86540000D02*
X223540000Y-84000000D01*
D25*
X203800000Y-126600000D02*
X209500000Y-126600000D01*
X216000000Y-128750000D02*
X216000000Y-125200000D01*
X209500000Y-125700000D02*
X209075736Y-125700000D01*
X206700000Y-125700000D02*
X206500000Y-125900000D01*
X209075736Y-125700000D02*
X206700000Y-125700000D01*
X206500000Y-125900000D02*
X203900000Y-125900000D01*
X203900000Y-125900000D02*
X203800000Y-125800000D01*
D21*
X222130001Y-89622401D02*
X222130001Y-87670001D01*
X221452402Y-90300000D02*
X222130001Y-89622401D01*
X217900000Y-90300000D02*
X221452402Y-90300000D01*
X217000000Y-95900000D02*
X217000000Y-91200000D01*
X217000000Y-91200000D02*
X217900000Y-90300000D01*
D22*
X190250000Y-156900000D02*
X190250000Y-158750000D01*
X192250000Y-154650000D02*
X192700000Y-154200000D01*
X192250000Y-156900000D02*
X192250000Y-154650000D01*
X192700000Y-154200000D02*
X192700000Y-150000000D01*
X192700000Y-150000000D02*
X195300000Y-147400000D01*
X195300000Y-147400000D02*
X195300000Y-141500000D01*
X195300000Y-141500000D02*
X195500000Y-141300000D01*
X195500000Y-141300000D02*
X199200000Y-141300000D01*
X199200000Y-141300000D02*
X201100000Y-143200000D01*
X201100000Y-143200000D02*
X208900000Y-143200000D01*
X208900000Y-143200000D02*
X209400000Y-143700000D01*
G36*
X233501000Y-81968519D02*
G01*
X233501000Y-81968520D01*
X233501001Y-164501000D01*
X195828740Y-164501000D01*
X195856836Y-164359751D01*
X195856836Y-161990498D01*
X221892604Y-161990498D01*
X221923475Y-162234864D01*
X222018924Y-162461928D01*
X222171918Y-162654959D01*
X222371186Y-162799735D01*
X222602047Y-162885591D01*
X222847492Y-162906202D01*
X223089438Y-162860048D01*
X223310060Y-162750531D01*
X223478352Y-162599000D01*
X224027565Y-162599000D01*
X224071918Y-162654959D01*
X224271186Y-162799735D01*
X224502047Y-162885591D01*
X224747492Y-162906202D01*
X224989438Y-162860048D01*
X225210060Y-162750531D01*
X225393103Y-162585718D01*
X225525082Y-162377752D01*
X225596426Y-162141450D01*
X225599192Y-161877355D01*
X225532812Y-161639610D01*
X225405218Y-161428927D01*
X225225666Y-161260316D01*
X225007386Y-161146202D01*
X224766459Y-161094992D01*
X224520637Y-161110457D01*
X224288028Y-161191461D01*
X224085772Y-161332032D01*
X224028716Y-161401000D01*
X223475479Y-161401000D01*
X223325666Y-161260316D01*
X223107386Y-161146202D01*
X222866459Y-161094992D01*
X222620637Y-161110457D01*
X222388028Y-161191461D01*
X222185772Y-161332032D01*
X222028769Y-161521816D01*
X221928586Y-161746831D01*
X221892604Y-161990498D01*
X195856836Y-161990498D01*
X195856836Y-160940249D01*
X195820047Y-160755300D01*
X195709759Y-160590241D01*
X195544700Y-160479953D01*
X195359751Y-160443164D01*
X193840249Y-160443164D01*
X193655300Y-160479953D01*
X193490241Y-160590241D01*
X193379953Y-160755300D01*
X193343164Y-160940249D01*
X193343164Y-164359751D01*
X193371260Y-164501000D01*
X189128740Y-164501000D01*
X189156836Y-164359751D01*
X189156836Y-160940249D01*
X189120047Y-160755300D01*
X189009759Y-160590241D01*
X188844700Y-160479953D01*
X188659751Y-160443164D01*
X187140249Y-160443164D01*
X186955300Y-160479953D01*
X186790241Y-160590241D01*
X186679953Y-160755300D01*
X186643164Y-160940249D01*
X186643164Y-164359751D01*
X186671260Y-164501000D01*
X178499000Y-164501000D01*
X178499000Y-159830782D01*
X180647195Y-159830782D01*
X180679556Y-160126264D01*
X180753227Y-160414238D01*
X180866740Y-160688959D01*
X181017829Y-160944945D01*
X181203478Y-161177089D01*
X181419985Y-161380759D01*
X181663030Y-161551891D01*
X181927763Y-161687070D01*
X182208901Y-161783599D01*
X182500836Y-161839553D01*
X182797743Y-161853814D01*
X183093696Y-161826099D01*
X183382792Y-161756959D01*
X183659263Y-161647777D01*
X183917590Y-161500728D01*
X184152622Y-161318747D01*
X184359667Y-161105465D01*
X184534595Y-160865138D01*
X184673916Y-160602562D01*
X184774849Y-160322974D01*
X184835700Y-160030423D01*
X184842148Y-159830782D01*
X226647195Y-159830782D01*
X226679556Y-160126264D01*
X226753227Y-160414238D01*
X226866740Y-160688959D01*
X227017829Y-160944945D01*
X227203478Y-161177089D01*
X227419985Y-161380759D01*
X227663030Y-161551891D01*
X227927763Y-161687070D01*
X228208901Y-161783599D01*
X228500836Y-161839553D01*
X228797743Y-161853814D01*
X229093696Y-161826099D01*
X229382792Y-161756959D01*
X229659263Y-161647777D01*
X229917590Y-161500728D01*
X230152622Y-161318747D01*
X230359667Y-161105465D01*
X230534595Y-160865138D01*
X230673916Y-160602562D01*
X230774849Y-160322974D01*
X230835700Y-160030423D01*
X230849449Y-159604757D01*
X230807604Y-159308888D01*
X230724923Y-159023370D01*
X230602837Y-158752350D01*
X230443783Y-158501235D01*
X230250933Y-158275037D01*
X230028135Y-158078269D01*
X229779835Y-157914856D01*
X229510986Y-157788059D01*
X229226955Y-157700408D01*
X228933407Y-157653652D01*
X228636199Y-157648723D01*
X228341262Y-157685721D01*
X228054480Y-157763907D01*
X227781576Y-157881720D01*
X227527995Y-158036811D01*
X227298795Y-158226085D01*
X227098552Y-158445764D01*
X226931259Y-158691467D01*
X226800254Y-158958290D01*
X226708152Y-159240910D01*
X226656791Y-159533688D01*
X226647195Y-159830782D01*
X184842148Y-159830782D01*
X184849449Y-159604757D01*
X184807604Y-159308888D01*
X184724923Y-159023370D01*
X184602837Y-158752350D01*
X184443783Y-158501235D01*
X184250933Y-158275037D01*
X184028135Y-158078269D01*
X183779835Y-157914856D01*
X183510986Y-157788059D01*
X183226955Y-157700408D01*
X182933407Y-157653652D01*
X182636199Y-157648723D01*
X182341262Y-157685721D01*
X182054480Y-157763907D01*
X181781576Y-157881720D01*
X181527995Y-158036811D01*
X181298795Y-158226085D01*
X181098552Y-158445764D01*
X180931259Y-158691467D01*
X180800254Y-158958290D01*
X180708152Y-159240910D01*
X180656791Y-159533688D01*
X180647195Y-159830782D01*
X178499000Y-159830782D01*
X178499000Y-148391000D01*
X187990430Y-148391000D01*
X188070427Y-148713049D01*
X188169996Y-148940414D01*
X188306452Y-149147752D01*
X188475890Y-149329136D01*
X188673468Y-149479377D01*
X188893534Y-149594180D01*
X189129798Y-149670264D01*
X189309000Y-149695928D01*
X189309000Y-148391000D01*
X187990430Y-148391000D01*
X178499000Y-148391000D01*
X178499000Y-132849000D01*
X187985591Y-132849000D01*
X189309000Y-132849000D01*
X189309000Y-131544949D01*
X189159823Y-131563135D01*
X188922018Y-131634254D01*
X188699595Y-131744423D01*
X188498916Y-131890494D01*
X188325715Y-132068288D01*
X188184949Y-132272723D01*
X188080638Y-132497953D01*
X187985591Y-132849000D01*
X178499000Y-132849000D01*
X178499000Y-119680782D01*
X182897195Y-119680782D01*
X182929556Y-119976264D01*
X183003227Y-120264238D01*
X183116740Y-120538959D01*
X183267829Y-120794945D01*
X183453478Y-121027089D01*
X183669985Y-121230759D01*
X183913030Y-121401891D01*
X184177763Y-121537070D01*
X184458901Y-121633599D01*
X184750836Y-121689553D01*
X185047743Y-121703814D01*
X185343696Y-121676099D01*
X185632792Y-121606959D01*
X185909263Y-121497777D01*
X186167590Y-121350728D01*
X186244729Y-121291000D01*
X187990430Y-121291000D01*
X188070427Y-121613049D01*
X188169996Y-121840414D01*
X188306452Y-122047752D01*
X188475890Y-122229136D01*
X188673468Y-122379377D01*
X188893534Y-122494180D01*
X189129798Y-122570264D01*
X189309000Y-122595928D01*
X189309000Y-121291000D01*
X187990430Y-121291000D01*
X186244729Y-121291000D01*
X186402622Y-121168747D01*
X186609667Y-120955465D01*
X186784595Y-120715138D01*
X186923916Y-120452562D01*
X187024849Y-120172974D01*
X187085700Y-119880423D01*
X187099449Y-119454757D01*
X187057604Y-119158888D01*
X186974923Y-118873370D01*
X186852837Y-118602350D01*
X186693783Y-118351235D01*
X186500933Y-118125037D01*
X186278135Y-117928269D01*
X186029835Y-117764856D01*
X185760986Y-117638059D01*
X185476955Y-117550408D01*
X185183407Y-117503652D01*
X184886199Y-117498723D01*
X184591262Y-117535721D01*
X184304480Y-117613907D01*
X184031576Y-117731720D01*
X183777995Y-117886811D01*
X183548795Y-118076085D01*
X183348552Y-118295764D01*
X183181259Y-118541467D01*
X183050254Y-118808290D01*
X182958152Y-119090910D01*
X182906791Y-119383688D01*
X182897195Y-119680782D01*
X178499000Y-119680782D01*
X178499000Y-89180782D01*
X182897195Y-89180782D01*
X182929556Y-89476264D01*
X183003227Y-89764238D01*
X183116740Y-90038959D01*
X183267829Y-90294945D01*
X183453478Y-90527089D01*
X183669985Y-90730759D01*
X183913030Y-90901891D01*
X184177763Y-91037070D01*
X184458901Y-91133599D01*
X184750836Y-91189553D01*
X185047743Y-91203814D01*
X185343696Y-91176099D01*
X185632792Y-91106959D01*
X185909263Y-90997777D01*
X186167590Y-90850728D01*
X186402622Y-90668747D01*
X186609667Y-90455465D01*
X186784595Y-90215138D01*
X186923916Y-89952562D01*
X187024849Y-89672974D01*
X187085700Y-89380423D01*
X187099449Y-88954757D01*
X187057604Y-88658888D01*
X186974923Y-88373370D01*
X186852837Y-88102350D01*
X186693783Y-87851235D01*
X186500933Y-87625037D01*
X186278135Y-87428269D01*
X186029835Y-87264856D01*
X185760986Y-87138059D01*
X185476955Y-87050408D01*
X185183407Y-87003652D01*
X184886199Y-86998723D01*
X184591262Y-87035721D01*
X184304480Y-87113907D01*
X184031576Y-87231720D01*
X183777995Y-87386811D01*
X183548795Y-87576085D01*
X183348552Y-87795764D01*
X183181259Y-88041467D01*
X183050254Y-88308290D01*
X182958152Y-88590910D01*
X182906791Y-88883688D01*
X182897195Y-89180782D01*
X178499000Y-89180782D01*
X178499000Y-85429000D01*
X187985591Y-85429000D01*
X189611000Y-85429000D01*
X189611000Y-85731000D01*
X187990430Y-85731000D01*
X188070427Y-86053049D01*
X188169996Y-86280414D01*
X188306452Y-86487752D01*
X188475890Y-86669136D01*
X188673468Y-86819377D01*
X188834598Y-86903434D01*
X188832521Y-86904282D01*
X188627153Y-87034613D01*
X188448111Y-87199251D01*
X188301052Y-87392994D01*
X188190627Y-87609715D01*
X188120325Y-87842566D01*
X188092369Y-88084187D01*
X188107641Y-88326940D01*
X188165660Y-88563151D01*
X188264592Y-88785356D01*
X188401309Y-88986529D01*
X188571490Y-89160311D01*
X188769755Y-89301212D01*
X188840634Y-89334565D01*
X188699595Y-89404423D01*
X188498916Y-89550494D01*
X188325715Y-89728288D01*
X188184949Y-89932723D01*
X188080638Y-90157953D01*
X187985591Y-90509000D01*
X189611000Y-90509000D01*
X189611000Y-90811000D01*
X187990430Y-90811000D01*
X188070427Y-91133049D01*
X188169996Y-91360414D01*
X188306452Y-91567752D01*
X188475890Y-91749136D01*
X188673468Y-91899377D01*
X188834598Y-91983434D01*
X188832521Y-91984282D01*
X188627153Y-92114613D01*
X188448111Y-92279251D01*
X188301052Y-92472994D01*
X188190627Y-92689715D01*
X188120325Y-92922566D01*
X188092369Y-93164187D01*
X188107641Y-93406940D01*
X188165660Y-93643151D01*
X188264592Y-93865356D01*
X188401309Y-94066529D01*
X188571490Y-94240311D01*
X188769755Y-94381212D01*
X188840634Y-94414565D01*
X188699595Y-94484423D01*
X188498916Y-94630494D01*
X188325715Y-94808288D01*
X188184949Y-95012723D01*
X188080638Y-95237953D01*
X187985591Y-95589000D01*
X189611000Y-95589000D01*
X189611000Y-95891000D01*
X187990430Y-95891000D01*
X188070427Y-96213049D01*
X188169996Y-96440414D01*
X188306452Y-96647752D01*
X188475890Y-96829136D01*
X188673468Y-96979377D01*
X188834598Y-97063434D01*
X188832521Y-97064282D01*
X188627153Y-97194613D01*
X188448111Y-97359251D01*
X188301052Y-97552994D01*
X188190627Y-97769715D01*
X188120325Y-98002566D01*
X188092369Y-98244187D01*
X188107641Y-98486940D01*
X188165660Y-98723151D01*
X188264592Y-98945356D01*
X188401309Y-99146529D01*
X188571490Y-99320311D01*
X188769755Y-99461212D01*
X188840634Y-99494565D01*
X188699595Y-99564423D01*
X188498916Y-99710494D01*
X188325715Y-99888288D01*
X188184949Y-100092723D01*
X188080638Y-100317953D01*
X187985591Y-100669000D01*
X189611000Y-100669000D01*
X189611000Y-100971000D01*
X187990430Y-100971000D01*
X188070427Y-101293049D01*
X188169996Y-101520414D01*
X188306452Y-101727752D01*
X188475890Y-101909136D01*
X188673468Y-102059377D01*
X188834598Y-102143434D01*
X188832521Y-102144282D01*
X188627153Y-102274613D01*
X188448111Y-102439251D01*
X188301052Y-102632994D01*
X188190627Y-102849715D01*
X188120325Y-103082566D01*
X188092369Y-103324187D01*
X188107641Y-103566940D01*
X188165660Y-103803151D01*
X188264592Y-104025356D01*
X188401309Y-104226529D01*
X188571490Y-104400311D01*
X188769755Y-104541212D01*
X188840634Y-104574565D01*
X188699595Y-104644423D01*
X188498916Y-104790494D01*
X188325715Y-104968288D01*
X188184949Y-105172723D01*
X188080638Y-105397953D01*
X187985591Y-105749000D01*
X189611000Y-105749000D01*
X189611000Y-106051000D01*
X187990430Y-106051000D01*
X188070427Y-106373049D01*
X188169996Y-106600414D01*
X188306452Y-106807752D01*
X188475890Y-106989136D01*
X188673468Y-107139377D01*
X188834598Y-107223434D01*
X188832521Y-107224282D01*
X188627153Y-107354613D01*
X188448111Y-107519251D01*
X188301052Y-107712994D01*
X188190627Y-107929715D01*
X188120325Y-108162566D01*
X188092369Y-108404187D01*
X188107641Y-108646940D01*
X188165660Y-108883151D01*
X188264592Y-109105356D01*
X188401309Y-109306529D01*
X188571490Y-109480311D01*
X188769755Y-109621212D01*
X188840634Y-109654565D01*
X188699595Y-109724423D01*
X188498916Y-109870494D01*
X188325715Y-110048288D01*
X188184949Y-110252723D01*
X188080638Y-110477953D01*
X187985591Y-110829000D01*
X189611000Y-110829000D01*
X189611000Y-111131000D01*
X187990430Y-111131000D01*
X188070427Y-111453049D01*
X188169996Y-111680414D01*
X188306452Y-111887752D01*
X188475890Y-112069136D01*
X188673468Y-112219377D01*
X188834598Y-112303434D01*
X188832521Y-112304282D01*
X188627153Y-112434613D01*
X188448111Y-112599251D01*
X188301052Y-112792994D01*
X188190627Y-113009715D01*
X188120325Y-113242566D01*
X188092369Y-113484187D01*
X188107641Y-113726940D01*
X188165660Y-113963151D01*
X188264592Y-114185356D01*
X188401309Y-114386529D01*
X188571490Y-114560311D01*
X188769755Y-114701212D01*
X188840634Y-114734565D01*
X188699595Y-114804423D01*
X188498916Y-114950494D01*
X188325715Y-115128288D01*
X188184949Y-115332723D01*
X188080638Y-115557953D01*
X187985591Y-115909000D01*
X189611000Y-115909000D01*
X189611000Y-116211000D01*
X187990430Y-116211000D01*
X188070427Y-116533049D01*
X188169996Y-116760414D01*
X188306452Y-116967752D01*
X188475890Y-117149136D01*
X188673468Y-117299377D01*
X188834598Y-117383434D01*
X188832521Y-117384282D01*
X188627153Y-117514613D01*
X188448111Y-117679251D01*
X188301052Y-117872994D01*
X188190627Y-118089715D01*
X188120325Y-118322566D01*
X188092369Y-118564187D01*
X188107641Y-118806940D01*
X188165660Y-119043151D01*
X188264592Y-119265356D01*
X188401309Y-119466529D01*
X188571490Y-119640311D01*
X188769755Y-119781212D01*
X188840634Y-119814565D01*
X188699595Y-119884423D01*
X188498916Y-120030494D01*
X188325715Y-120208288D01*
X188184949Y-120412723D01*
X188080638Y-120637953D01*
X187985591Y-120989000D01*
X189611000Y-120989000D01*
X189611000Y-122601249D01*
X189867066Y-122550314D01*
X190098870Y-122461565D01*
X190312405Y-122335029D01*
X190501569Y-122174322D01*
X190660950Y-121984042D01*
X190785992Y-121769628D01*
X190787223Y-121766344D01*
X190804592Y-121805356D01*
X190941309Y-122006529D01*
X191111490Y-122180311D01*
X191309755Y-122321212D01*
X191529840Y-122424775D01*
X191764783Y-122487728D01*
X192007164Y-122508082D01*
X192249316Y-122485191D01*
X192483589Y-122419781D01*
X192702576Y-122313919D01*
X192899356Y-122170950D01*
X193067708Y-121995395D01*
X193138395Y-121889000D01*
X193176844Y-121889000D01*
X193245106Y-121897079D01*
X193344279Y-121878967D01*
X193444034Y-121863969D01*
X193454861Y-121858771D01*
X193470603Y-121855895D01*
X193503249Y-121835535D01*
X193647065Y-121766475D01*
X193665970Y-121749000D01*
X193751001Y-121749000D01*
X193751000Y-132251000D01*
X193370436Y-132251000D01*
X193370436Y-132126649D01*
X193333647Y-131941700D01*
X193223359Y-131776641D01*
X193058300Y-131666353D01*
X192873351Y-131629564D01*
X191126649Y-131629564D01*
X190941700Y-131666353D01*
X190776641Y-131776641D01*
X190666353Y-131941700D01*
X190630546Y-132121714D01*
X190523002Y-131987717D01*
X190337246Y-131823085D01*
X190126407Y-131692104D01*
X189896512Y-131598520D01*
X189611000Y-131535485D01*
X189611000Y-133151000D01*
X187990430Y-133151000D01*
X188070427Y-133473049D01*
X188169996Y-133700414D01*
X188306452Y-133907752D01*
X188475890Y-134089136D01*
X188673468Y-134239377D01*
X188834598Y-134323434D01*
X188832521Y-134324282D01*
X188627153Y-134454613D01*
X188448111Y-134619251D01*
X188301052Y-134812994D01*
X188190627Y-135029715D01*
X188120325Y-135262566D01*
X188092369Y-135504187D01*
X188107641Y-135746940D01*
X188165660Y-135983151D01*
X188264592Y-136205356D01*
X188401309Y-136406529D01*
X188571490Y-136580311D01*
X188769755Y-136721212D01*
X188961736Y-136811550D01*
X188832521Y-136864282D01*
X188627153Y-136994613D01*
X188448111Y-137159251D01*
X188301052Y-137352994D01*
X188190627Y-137569715D01*
X188120325Y-137802566D01*
X188092369Y-138044187D01*
X188107641Y-138286940D01*
X188165660Y-138523151D01*
X188264592Y-138745356D01*
X188401309Y-138946529D01*
X188571490Y-139120311D01*
X188769755Y-139261212D01*
X188840634Y-139294565D01*
X188699595Y-139364423D01*
X188498916Y-139510494D01*
X188325715Y-139688288D01*
X188184949Y-139892723D01*
X188080638Y-140117953D01*
X187985591Y-140469000D01*
X189611000Y-140469000D01*
X189611000Y-140771000D01*
X187990430Y-140771000D01*
X188070427Y-141093049D01*
X188169996Y-141320414D01*
X188306452Y-141527752D01*
X188475890Y-141709136D01*
X188673468Y-141859377D01*
X188834598Y-141943434D01*
X188832521Y-141944282D01*
X188627153Y-142074613D01*
X188448111Y-142239251D01*
X188301052Y-142432994D01*
X188190627Y-142649715D01*
X188120325Y-142882566D01*
X188092369Y-143124187D01*
X188107641Y-143366940D01*
X188165660Y-143603151D01*
X188264592Y-143825356D01*
X188401309Y-144026529D01*
X188571490Y-144200311D01*
X188769755Y-144341212D01*
X188961736Y-144431550D01*
X188832521Y-144484282D01*
X188627153Y-144614613D01*
X188448111Y-144779251D01*
X188301052Y-144972994D01*
X188190627Y-145189715D01*
X188120325Y-145422566D01*
X188092369Y-145664187D01*
X188107641Y-145906940D01*
X188165660Y-146143151D01*
X188264592Y-146365356D01*
X188401309Y-146566529D01*
X188571490Y-146740311D01*
X188769755Y-146881212D01*
X188840634Y-146914565D01*
X188699595Y-146984423D01*
X188498916Y-147130494D01*
X188325715Y-147308288D01*
X188184949Y-147512723D01*
X188080638Y-147737953D01*
X187985591Y-148089000D01*
X189611000Y-148089000D01*
X189611000Y-149701249D01*
X189867066Y-149650314D01*
X190098870Y-149561565D01*
X190312405Y-149435029D01*
X190501569Y-149274322D01*
X190660950Y-149084042D01*
X190785992Y-148869628D01*
X190787223Y-148866344D01*
X190804592Y-148905356D01*
X190941309Y-149106529D01*
X191111490Y-149280311D01*
X191309755Y-149421212D01*
X191529840Y-149524775D01*
X191764783Y-149587728D01*
X192007164Y-149608082D01*
X192062111Y-149602888D01*
X192030588Y-149645567D01*
X192026611Y-149656894D01*
X192017512Y-149670057D01*
X192008824Y-149707544D01*
X191955964Y-149858068D01*
X191952296Y-149951419D01*
X191951001Y-149957004D01*
X191951001Y-149984361D01*
X191947121Y-150083118D01*
X191951001Y-150097751D01*
X191951000Y-153889754D01*
X191751827Y-154088928D01*
X191697841Y-154131487D01*
X191640506Y-154214445D01*
X191580588Y-154295567D01*
X191576611Y-154306894D01*
X191567512Y-154320057D01*
X191558824Y-154357544D01*
X191505964Y-154508068D01*
X191502296Y-154601419D01*
X191501001Y-154607004D01*
X191501001Y-154634361D01*
X191497698Y-154718441D01*
X191390241Y-154790241D01*
X191279953Y-154955300D01*
X191250000Y-155105882D01*
X191220047Y-154955300D01*
X191109759Y-154790241D01*
X190944700Y-154679953D01*
X190759751Y-154643164D01*
X189740249Y-154643164D01*
X189555300Y-154679953D01*
X189390241Y-154790241D01*
X189279953Y-154955300D01*
X189243164Y-155140249D01*
X189243164Y-158659751D01*
X189279953Y-158844700D01*
X189373445Y-158984622D01*
X189373475Y-158984863D01*
X189468924Y-159211928D01*
X189621918Y-159404959D01*
X189821186Y-159549735D01*
X190052047Y-159635591D01*
X190297492Y-159656202D01*
X190539438Y-159610048D01*
X190760060Y-159500531D01*
X190943103Y-159335718D01*
X191075082Y-159127751D01*
X191111486Y-159007175D01*
X191220047Y-158844700D01*
X191250000Y-158694118D01*
X191279953Y-158844700D01*
X191390241Y-159009759D01*
X191555300Y-159120047D01*
X191740249Y-159156836D01*
X192759751Y-159156836D01*
X192944700Y-159120047D01*
X193109759Y-159009759D01*
X193220047Y-158844700D01*
X193256836Y-158659751D01*
X193256836Y-155740249D01*
X195143164Y-155740249D01*
X195143164Y-157759751D01*
X195179953Y-157944700D01*
X195290241Y-158109759D01*
X195455300Y-158220047D01*
X195640249Y-158256836D01*
X197359751Y-158256836D01*
X197544700Y-158220047D01*
X197709759Y-158109759D01*
X197820047Y-157944700D01*
X197851586Y-157786146D01*
X197885763Y-157834956D01*
X198065045Y-158014238D01*
X198272734Y-158159664D01*
X198502521Y-158266815D01*
X198849000Y-158359653D01*
X198849000Y-156901000D01*
X199151000Y-156901000D01*
X199151000Y-158359654D01*
X199497480Y-158266815D01*
X199727267Y-158159664D01*
X199934956Y-158014238D01*
X200114238Y-157834956D01*
X200259664Y-157627266D01*
X200366815Y-157397479D01*
X200432436Y-157152576D01*
X200454447Y-156901000D01*
X199151000Y-156901000D01*
X198849000Y-156901000D01*
X198849000Y-156599000D01*
X199151000Y-156599000D01*
X200454447Y-156599000D01*
X200432436Y-156347423D01*
X200366815Y-156102520D01*
X200259664Y-155872733D01*
X200114238Y-155665044D01*
X199934955Y-155485762D01*
X199727266Y-155340336D01*
X199497479Y-155233185D01*
X199151000Y-155140347D01*
X199151000Y-156599000D01*
X198849000Y-156599000D01*
X198849000Y-155140346D01*
X198502520Y-155233185D01*
X198272733Y-155340336D01*
X198065044Y-155485762D01*
X197885762Y-155665045D01*
X197851586Y-155713854D01*
X197820047Y-155555300D01*
X197709759Y-155390241D01*
X197544700Y-155279953D01*
X197359751Y-155243164D01*
X195640249Y-155243164D01*
X195455300Y-155279953D01*
X195290241Y-155390241D01*
X195179953Y-155555300D01*
X195143164Y-155740249D01*
X193256836Y-155740249D01*
X193256836Y-155140249D01*
X193220047Y-154955300D01*
X193133490Y-154825756D01*
X193198174Y-154761072D01*
X193252160Y-154718513D01*
X193309503Y-154635544D01*
X193369411Y-154554436D01*
X193373389Y-154543109D01*
X193382490Y-154529941D01*
X193391179Y-154492448D01*
X193444036Y-154341934D01*
X193447705Y-154248582D01*
X193449000Y-154242994D01*
X193449000Y-154215614D01*
X193452879Y-154116883D01*
X193449000Y-154102252D01*
X193449000Y-150310246D01*
X195798174Y-147961072D01*
X195799753Y-147959827D01*
X195708152Y-148240910D01*
X195656791Y-148533688D01*
X195647195Y-148830782D01*
X195679556Y-149126264D01*
X195753227Y-149414238D01*
X195866740Y-149688959D01*
X196017829Y-149944945D01*
X196203478Y-150177089D01*
X196419985Y-150380759D01*
X196663030Y-150551891D01*
X196927763Y-150687070D01*
X197208901Y-150783599D01*
X197500836Y-150839553D01*
X197797743Y-150853814D01*
X198093696Y-150826099D01*
X198382792Y-150756959D01*
X198659263Y-150647777D01*
X198917590Y-150500728D01*
X199152622Y-150318747D01*
X199359667Y-150105465D01*
X199534595Y-149865138D01*
X199673916Y-149602562D01*
X199774849Y-149322974D01*
X199835700Y-149030423D01*
X199849449Y-148604757D01*
X199807604Y-148308888D01*
X199724923Y-148023370D01*
X199602837Y-147752350D01*
X199443783Y-147501235D01*
X199250933Y-147275037D01*
X199028135Y-147078269D01*
X198779835Y-146914856D01*
X198510986Y-146788059D01*
X198226955Y-146700408D01*
X197933407Y-146653652D01*
X197636199Y-146648723D01*
X197341262Y-146685721D01*
X197054480Y-146763907D01*
X196781576Y-146881720D01*
X196527995Y-147036811D01*
X196298795Y-147226085D01*
X196098552Y-147445764D01*
X196044708Y-147524845D01*
X196047705Y-147448582D01*
X196049000Y-147442994D01*
X196049000Y-147415614D01*
X196052879Y-147316883D01*
X196049000Y-147302252D01*
X196049000Y-142049000D01*
X198889754Y-142049000D01*
X200538931Y-143698178D01*
X200581487Y-143752160D01*
X200664451Y-143809499D01*
X200745564Y-143869411D01*
X200756891Y-143873389D01*
X200770059Y-143882490D01*
X200807552Y-143891179D01*
X200958066Y-143944036D01*
X201051418Y-143947705D01*
X201057006Y-143949000D01*
X201084386Y-143949000D01*
X201183117Y-143952879D01*
X201197748Y-143949000D01*
X208529417Y-143949000D01*
X208618924Y-144161928D01*
X208771918Y-144354959D01*
X208971186Y-144499735D01*
X209202047Y-144585591D01*
X209447492Y-144606202D01*
X209689438Y-144560048D01*
X209910060Y-144450531D01*
X210093103Y-144285718D01*
X210225082Y-144077752D01*
X210296426Y-143841450D01*
X210299192Y-143577355D01*
X210232812Y-143339610D01*
X210105218Y-143128927D01*
X209925666Y-142960316D01*
X209707386Y-142846202D01*
X209577932Y-142818685D01*
X209461071Y-142701824D01*
X209418512Y-142647840D01*
X209335540Y-142590495D01*
X209254433Y-142530588D01*
X209243109Y-142526611D01*
X209229943Y-142517511D01*
X209192448Y-142508821D01*
X209041932Y-142455964D01*
X208948582Y-142452295D01*
X208942994Y-142451000D01*
X208915614Y-142451000D01*
X208816883Y-142447121D01*
X208802252Y-142451000D01*
X202281189Y-142451000D01*
X202287060Y-142432983D01*
X202289260Y-142180948D01*
X202218698Y-141950867D01*
X202083824Y-141752035D01*
X201896449Y-141601650D01*
X201859556Y-141587006D01*
X200475668Y-140020341D01*
X200418513Y-139947840D01*
X200354631Y-139903689D01*
X200295145Y-139853783D01*
X200262440Y-139839972D01*
X200229942Y-139817511D01*
X200184086Y-139806882D01*
X200087663Y-139766163D01*
X199863591Y-139743422D01*
X199825685Y-139751000D01*
X195249000Y-139751000D01*
X195249000Y-133085828D01*
X195255119Y-133059429D01*
X195249000Y-132973007D01*
X195249000Y-125792948D01*
X202992012Y-125792948D01*
X203025658Y-126030842D01*
X203105645Y-126201209D01*
X203029805Y-126355680D01*
X202992012Y-126592948D01*
X203025658Y-126830842D01*
X203127766Y-127048325D01*
X203289309Y-127226170D01*
X203482925Y-127340901D01*
X203391239Y-127546831D01*
X203355257Y-127790498D01*
X203386128Y-128034864D01*
X203481577Y-128261927D01*
X203513653Y-128302398D01*
X203513654Y-135479647D01*
X203478769Y-135521816D01*
X203378586Y-135746831D01*
X203342604Y-135990498D01*
X203373475Y-136234864D01*
X203468924Y-136461928D01*
X203621918Y-136654959D01*
X203821186Y-136799735D01*
X204052047Y-136885591D01*
X204297492Y-136906202D01*
X204539438Y-136860048D01*
X204760060Y-136750531D01*
X204943103Y-136585718D01*
X205075082Y-136377752D01*
X205146426Y-136141450D01*
X205149192Y-135877355D01*
X205082812Y-135639610D01*
X205011653Y-135522112D01*
X205011653Y-132411000D01*
X219555274Y-132411000D01*
X219595028Y-132636461D01*
X219681745Y-132874713D01*
X219808515Y-133094287D01*
X219971489Y-133288511D01*
X220165713Y-133451485D01*
X220385287Y-133578255D01*
X220623539Y-133664972D01*
X220849000Y-133704726D01*
X220849000Y-132411000D01*
X219555274Y-132411000D01*
X205011653Y-132411000D01*
X205011653Y-128839705D01*
X209597794Y-128839705D01*
X209631948Y-129119884D01*
X209707138Y-129391937D01*
X209821716Y-129649888D01*
X209973162Y-129888069D01*
X210158151Y-130101250D01*
X210372617Y-130284745D01*
X210611850Y-130434525D01*
X210870595Y-130547299D01*
X211143166Y-130620590D01*
X211423576Y-130652786D01*
X211705665Y-130643181D01*
X211983236Y-130591988D01*
X212250192Y-130500327D01*
X212500666Y-130370217D01*
X212729158Y-130204512D01*
X212930647Y-130006854D01*
X213100708Y-129781586D01*
X213235604Y-129533655D01*
X213332371Y-129268509D01*
X213389145Y-128990694D01*
X213393231Y-128839705D01*
X214097794Y-128839705D01*
X214131948Y-129119884D01*
X214207138Y-129391937D01*
X214321716Y-129649888D01*
X214473162Y-129888069D01*
X214658151Y-130101250D01*
X214872617Y-130284745D01*
X215111850Y-130434525D01*
X215370595Y-130547299D01*
X215643166Y-130620590D01*
X215923576Y-130652786D01*
X216205665Y-130643181D01*
X216483236Y-130591988D01*
X216750192Y-130500327D01*
X217000666Y-130370217D01*
X217229158Y-130204512D01*
X217430647Y-130006854D01*
X217600708Y-129781586D01*
X217735604Y-129533655D01*
X217832371Y-129268509D01*
X217889145Y-128990694D01*
X217899398Y-128611822D01*
X217857730Y-128331342D01*
X217775443Y-128061351D01*
X217654153Y-127806488D01*
X217496523Y-127572353D01*
X217306017Y-127364088D01*
X217086821Y-127186269D01*
X216843749Y-127042803D01*
X216649000Y-126963922D01*
X216649000Y-125666174D01*
X216722493Y-125561797D01*
X216797060Y-125332983D01*
X216799260Y-125080948D01*
X216728698Y-124850867D01*
X216593824Y-124652035D01*
X216406450Y-124501650D01*
X216183139Y-124413010D01*
X215943636Y-124393949D01*
X215709116Y-124446157D01*
X215500315Y-124565013D01*
X215335692Y-124740012D01*
X215229805Y-124955680D01*
X215192012Y-125192948D01*
X215225658Y-125430842D01*
X215327766Y-125648325D01*
X215351001Y-125673904D01*
X215351000Y-126965187D01*
X215204247Y-127019910D01*
X214957265Y-127156533D01*
X214733189Y-127328162D01*
X214536942Y-127531026D01*
X214372837Y-127760670D01*
X214244478Y-128012046D01*
X214154684Y-128279635D01*
X214105429Y-128557557D01*
X214097794Y-128839705D01*
X213393231Y-128839705D01*
X213399398Y-128611822D01*
X213357730Y-128331342D01*
X213275443Y-128061351D01*
X213154153Y-127806488D01*
X212996523Y-127572353D01*
X212806017Y-127364088D01*
X212586821Y-127186269D01*
X212343749Y-127042803D01*
X212082141Y-126936841D01*
X211807745Y-126870711D01*
X211526588Y-126845866D01*
X211244848Y-126862851D01*
X210968712Y-126921294D01*
X210704247Y-127019910D01*
X210457265Y-127156533D01*
X210233189Y-127328162D01*
X210036942Y-127531026D01*
X209872837Y-127760670D01*
X209744478Y-128012046D01*
X209654684Y-128279635D01*
X209605429Y-128557557D01*
X209597794Y-128839705D01*
X205011653Y-128839705D01*
X205011653Y-128297639D01*
X205087735Y-128177752D01*
X205159079Y-127941450D01*
X205161845Y-127677355D01*
X205095465Y-127439610D01*
X204980028Y-127249000D01*
X209027836Y-127249000D01*
X209196004Y-127348652D01*
X209429576Y-127404944D01*
X209669375Y-127390067D01*
X209894200Y-127305338D01*
X210084171Y-127158246D01*
X210222493Y-126961797D01*
X210297060Y-126732983D01*
X210299260Y-126480948D01*
X210228698Y-126250867D01*
X210160331Y-126150081D01*
X210222493Y-126061797D01*
X210297060Y-125832983D01*
X210299260Y-125580948D01*
X210228698Y-125350867D01*
X210093824Y-125152035D01*
X209906450Y-125001650D01*
X209683139Y-124913010D01*
X209443636Y-124893949D01*
X209209116Y-124946157D01*
X209024932Y-125051000D01*
X206769251Y-125051000D01*
X206730994Y-125042763D01*
X206661404Y-125051000D01*
X206646126Y-125051000D01*
X206608524Y-125057259D01*
X206512034Y-125068680D01*
X206501116Y-125075136D01*
X206486873Y-125077507D01*
X206296727Y-125180105D01*
X206231395Y-125250781D01*
X206231176Y-125251000D01*
X204392534Y-125251000D01*
X204206450Y-125101650D01*
X203983139Y-125013010D01*
X203743636Y-124993949D01*
X203509116Y-125046157D01*
X203300315Y-125165013D01*
X203135692Y-125340012D01*
X203029805Y-125555680D01*
X202992012Y-125792948D01*
X195249000Y-125792948D01*
X195249000Y-121085828D01*
X195255119Y-121059429D01*
X195249000Y-120973007D01*
X195249000Y-116335828D01*
X195255119Y-116309429D01*
X195249000Y-116223007D01*
X195249000Y-111085828D01*
X195255119Y-111059429D01*
X195249000Y-110973007D01*
X195249000Y-106085828D01*
X195255119Y-106059429D01*
X195249000Y-105973007D01*
X195249000Y-105773792D01*
X202742921Y-105773792D01*
X202761034Y-105872970D01*
X202776031Y-105972721D01*
X202781229Y-105983547D01*
X202784104Y-105999287D01*
X202804466Y-106031938D01*
X202873525Y-106175750D01*
X202936940Y-106244354D01*
X202939975Y-106249220D01*
X202959341Y-106268587D01*
X203026408Y-106341140D01*
X203039497Y-106348743D01*
X203751001Y-107060248D01*
X203751000Y-110744944D01*
X203728769Y-110771817D01*
X203628586Y-110996831D01*
X203592604Y-111240498D01*
X203623475Y-111484864D01*
X203718924Y-111711928D01*
X203751001Y-111752399D01*
X203751000Y-115205530D01*
X203742921Y-115273792D01*
X203761034Y-115372970D01*
X203776031Y-115472721D01*
X203781229Y-115483547D01*
X203784104Y-115499287D01*
X203804466Y-115531938D01*
X203873525Y-115675750D01*
X203936940Y-115744354D01*
X203939975Y-115749220D01*
X203959341Y-115768587D01*
X204026408Y-115841140D01*
X204039497Y-115848743D01*
X205001001Y-116810248D01*
X205001000Y-122994944D01*
X204978769Y-123021817D01*
X204878586Y-123246831D01*
X204842604Y-123490498D01*
X204873475Y-123734864D01*
X204968924Y-123961928D01*
X205121918Y-124154959D01*
X205321186Y-124299735D01*
X205552047Y-124385591D01*
X205797492Y-124406202D01*
X206039438Y-124360048D01*
X206260060Y-124250531D01*
X206443103Y-124085718D01*
X206575082Y-123877752D01*
X206646426Y-123641450D01*
X206649192Y-123377355D01*
X206582812Y-123139610D01*
X206499000Y-123001220D01*
X206499000Y-119680782D01*
X211397195Y-119680782D01*
X211429556Y-119976264D01*
X211503227Y-120264238D01*
X211616740Y-120538959D01*
X211767829Y-120794945D01*
X211953478Y-121027089D01*
X212169985Y-121230759D01*
X212413030Y-121401891D01*
X212677763Y-121537070D01*
X212958901Y-121633599D01*
X213250836Y-121689553D01*
X213547743Y-121703814D01*
X213843696Y-121676099D01*
X214132792Y-121606959D01*
X214409263Y-121497777D01*
X214667590Y-121350728D01*
X214902622Y-121168747D01*
X215109667Y-120955465D01*
X215284595Y-120715138D01*
X215423916Y-120452562D01*
X215524849Y-120172974D01*
X215585700Y-119880423D01*
X215599449Y-119454757D01*
X215557604Y-119158888D01*
X215474923Y-118873370D01*
X215352837Y-118602350D01*
X215193783Y-118351235D01*
X215000933Y-118125037D01*
X214778135Y-117928269D01*
X214529835Y-117764856D01*
X214260986Y-117638059D01*
X213976955Y-117550408D01*
X213683407Y-117503652D01*
X213386199Y-117498723D01*
X213091262Y-117535721D01*
X212804480Y-117613907D01*
X212531576Y-117731720D01*
X212277995Y-117886811D01*
X212048795Y-118076085D01*
X211848552Y-118295764D01*
X211681259Y-118541467D01*
X211550254Y-118808290D01*
X211458152Y-119090910D01*
X211406791Y-119383688D01*
X211397195Y-119680782D01*
X206499000Y-119680782D01*
X206499000Y-116544469D01*
X206507079Y-116476207D01*
X206488966Y-116377029D01*
X206473969Y-116277278D01*
X206468771Y-116266452D01*
X206465896Y-116250712D01*
X206445534Y-116218061D01*
X206376475Y-116074249D01*
X206313058Y-116005644D01*
X206310022Y-116000776D01*
X206290652Y-115981405D01*
X206223593Y-115908860D01*
X206210505Y-115901258D01*
X205249000Y-114939754D01*
X205249000Y-111747639D01*
X205325082Y-111627752D01*
X205396426Y-111391450D01*
X205399192Y-111127355D01*
X205332812Y-110889610D01*
X205249000Y-110751220D01*
X205249000Y-108792948D01*
X205992012Y-108792948D01*
X206025658Y-109030842D01*
X206127766Y-109248325D01*
X206289309Y-109426170D01*
X206328135Y-109449177D01*
X206300315Y-109465013D01*
X206135692Y-109640012D01*
X206029805Y-109855680D01*
X205992012Y-110092948D01*
X206025658Y-110330842D01*
X206127766Y-110548325D01*
X206289309Y-110726170D01*
X206496004Y-110848652D01*
X206729576Y-110904944D01*
X206969375Y-110890067D01*
X207194200Y-110805338D01*
X207331536Y-110699000D01*
X208051887Y-110699000D01*
X208099619Y-110746733D01*
X208125658Y-110930842D01*
X208227766Y-111148325D01*
X208301001Y-111228950D01*
X208301000Y-111970587D01*
X208235692Y-112040012D01*
X208129805Y-112255680D01*
X208092012Y-112492948D01*
X208125658Y-112730842D01*
X208227766Y-112948325D01*
X208389309Y-113126170D01*
X208596004Y-113248652D01*
X208829576Y-113304944D01*
X209069375Y-113290067D01*
X209294200Y-113205338D01*
X209484171Y-113058246D01*
X209622493Y-112861797D01*
X209697060Y-112632983D01*
X209699260Y-112380948D01*
X209628698Y-112150867D01*
X209499000Y-111959665D01*
X209499000Y-111237185D01*
X209622493Y-111061797D01*
X209697060Y-110832983D01*
X209699260Y-110580948D01*
X209628698Y-110350867D01*
X209493824Y-110152035D01*
X209306450Y-110001650D01*
X209083139Y-109913010D01*
X208949488Y-109902374D01*
X208742052Y-109694938D01*
X208690970Y-109634060D01*
X208622140Y-109594322D01*
X208557053Y-109548748D01*
X208531208Y-109541823D01*
X208508030Y-109528441D01*
X208429771Y-109514642D01*
X208353011Y-109494074D01*
X208273854Y-109501000D01*
X207330237Y-109501000D01*
X207266190Y-109449596D01*
X207331536Y-109399000D01*
X208364630Y-109399000D01*
X208389309Y-109426170D01*
X208596004Y-109548652D01*
X208829576Y-109604944D01*
X209069375Y-109590067D01*
X209294200Y-109505338D01*
X209484171Y-109358246D01*
X209622493Y-109161797D01*
X209697060Y-108932983D01*
X209699260Y-108680948D01*
X209628698Y-108450867D01*
X209493824Y-108252035D01*
X209306450Y-108101650D01*
X209083139Y-108013010D01*
X208843636Y-107993949D01*
X208609116Y-108046157D01*
X208400315Y-108165013D01*
X208366461Y-108201000D01*
X207330237Y-108201000D01*
X207206450Y-108101650D01*
X206983139Y-108013010D01*
X206743636Y-107993949D01*
X206509116Y-108046157D01*
X206300315Y-108165013D01*
X206135692Y-108340012D01*
X206029805Y-108555680D01*
X205992012Y-108792948D01*
X205249000Y-108792948D01*
X205249000Y-106794477D01*
X205257080Y-106726207D01*
X205238964Y-106627016D01*
X205223969Y-106527278D01*
X205218771Y-106516452D01*
X205215896Y-106500712D01*
X205195534Y-106468061D01*
X205126475Y-106324249D01*
X205063058Y-106255644D01*
X205060022Y-106250776D01*
X205040652Y-106231405D01*
X204973593Y-106158860D01*
X204960505Y-106151258D01*
X204249000Y-105439754D01*
X204249000Y-104810246D01*
X204427926Y-104631320D01*
X204539438Y-104610048D01*
X204760060Y-104500531D01*
X204943103Y-104335718D01*
X205075082Y-104127752D01*
X205146426Y-103891450D01*
X205149192Y-103627355D01*
X205082812Y-103389610D01*
X204955218Y-103178927D01*
X204775666Y-103010316D01*
X204557386Y-102896202D01*
X204316459Y-102844992D01*
X204070637Y-102860457D01*
X203838028Y-102941461D01*
X203635772Y-103082032D01*
X203478769Y-103271816D01*
X203378586Y-103496831D01*
X203367266Y-103573488D01*
X203001827Y-103938928D01*
X202947841Y-103981487D01*
X202890506Y-104064445D01*
X202830588Y-104145567D01*
X202826611Y-104156894D01*
X202817512Y-104170057D01*
X202808824Y-104207544D01*
X202755964Y-104358068D01*
X202752296Y-104451419D01*
X202751001Y-104457004D01*
X202751001Y-104484361D01*
X202747121Y-104583118D01*
X202751001Y-104597751D01*
X202751000Y-105705530D01*
X202742921Y-105773792D01*
X195249000Y-105773792D01*
X195249000Y-101085828D01*
X195255119Y-101059429D01*
X195249000Y-100973007D01*
X195249000Y-100651000D01*
X212543287Y-100651000D01*
X212543287Y-101363034D01*
X212620362Y-101650680D01*
X212759030Y-101815939D01*
X212941970Y-101921559D01*
X213141339Y-101956713D01*
X213189227Y-101956713D01*
X213175466Y-101965446D01*
X212998211Y-102128441D01*
X212852620Y-102320249D01*
X212743296Y-102534808D01*
X212673696Y-102765335D01*
X212646019Y-103004545D01*
X212661139Y-103244874D01*
X212718579Y-103478728D01*
X212816523Y-103698714D01*
X212951875Y-103897880D01*
X213120358Y-104069929D01*
X213316645Y-104209422D01*
X213534531Y-104311952D01*
X213535869Y-104312311D01*
X213378784Y-104376416D01*
X213175466Y-104505446D01*
X212998211Y-104668441D01*
X212852620Y-104860249D01*
X212743296Y-105074808D01*
X212673696Y-105305335D01*
X212646019Y-105544545D01*
X212661139Y-105784874D01*
X212718579Y-106018728D01*
X212816523Y-106238714D01*
X212951875Y-106437880D01*
X213120358Y-106609929D01*
X213316645Y-106749422D01*
X213534531Y-106851952D01*
X213535869Y-106852311D01*
X213378784Y-106916416D01*
X213175466Y-107045446D01*
X212998211Y-107208441D01*
X212852620Y-107400249D01*
X212743296Y-107614808D01*
X212673696Y-107845335D01*
X212646019Y-108084545D01*
X212661139Y-108324874D01*
X212718579Y-108558728D01*
X212816523Y-108778714D01*
X212951875Y-108977880D01*
X213120358Y-109149929D01*
X213316645Y-109289422D01*
X213534531Y-109391952D01*
X213767131Y-109454276D01*
X214007091Y-109474427D01*
X214246828Y-109451765D01*
X214478762Y-109387008D01*
X214695564Y-109282202D01*
X214890379Y-109140660D01*
X215057051Y-108966857D01*
X215190310Y-108766285D01*
X215217873Y-108702592D01*
X215253322Y-108705694D01*
X215327519Y-108685813D01*
X215403164Y-108672475D01*
X215425568Y-108659541D01*
X215450552Y-108652846D01*
X215513470Y-108608790D01*
X215579996Y-108570381D01*
X215629364Y-108511546D01*
X217391554Y-106749358D01*
X217450381Y-106699996D01*
X217488790Y-106633470D01*
X217532845Y-106570553D01*
X217539539Y-106545571D01*
X217552475Y-106523165D01*
X217565816Y-106447507D01*
X217585693Y-106373323D01*
X217579000Y-106296829D01*
X217579000Y-96692755D01*
X217629577Y-96704944D01*
X217869375Y-96690067D01*
X218094200Y-96605338D01*
X218284171Y-96458246D01*
X218422493Y-96261797D01*
X218497060Y-96032983D01*
X218499260Y-95780948D01*
X218428698Y-95550867D01*
X218293824Y-95352035D01*
X218106450Y-95201650D01*
X217883139Y-95113010D01*
X217643636Y-95093949D01*
X217579000Y-95108338D01*
X217579000Y-91439829D01*
X218139830Y-90879000D01*
X219868749Y-90879000D01*
X219852620Y-90900249D01*
X219743296Y-91114808D01*
X219673696Y-91345335D01*
X219646019Y-91584545D01*
X219661139Y-91824874D01*
X219718579Y-92058728D01*
X219816523Y-92278714D01*
X219951875Y-92477880D01*
X220120358Y-92649929D01*
X220316645Y-92789422D01*
X220409279Y-92833012D01*
X220385287Y-92841745D01*
X220165713Y-92968515D01*
X219971489Y-93131489D01*
X219808515Y-93325713D01*
X219681745Y-93545287D01*
X219595028Y-93783539D01*
X219555274Y-94009000D01*
X221151000Y-94009000D01*
X221151000Y-94311000D01*
X219555274Y-94311000D01*
X219595028Y-94536461D01*
X219681745Y-94774713D01*
X219808515Y-94994287D01*
X219971489Y-95188511D01*
X220165713Y-95351485D01*
X220385287Y-95478255D01*
X220405372Y-95485565D01*
X220378784Y-95496416D01*
X220175466Y-95625446D01*
X219998211Y-95788441D01*
X219852620Y-95980249D01*
X219743296Y-96194808D01*
X219673696Y-96425335D01*
X219646019Y-96664545D01*
X219661139Y-96904874D01*
X219718579Y-97138728D01*
X219816523Y-97358714D01*
X219951875Y-97557880D01*
X220120358Y-97729929D01*
X220316645Y-97869422D01*
X220534531Y-97971952D01*
X220535869Y-97972311D01*
X220378784Y-98036416D01*
X220175466Y-98165446D01*
X219998211Y-98328441D01*
X219852620Y-98520249D01*
X219743296Y-98734808D01*
X219673696Y-98965335D01*
X219646019Y-99204545D01*
X219661139Y-99444874D01*
X219718579Y-99678728D01*
X219816523Y-99898714D01*
X219951875Y-100097880D01*
X220120358Y-100269929D01*
X220316645Y-100409422D01*
X220534531Y-100511952D01*
X220535869Y-100512311D01*
X220378784Y-100576416D01*
X220175466Y-100705446D01*
X219998211Y-100868441D01*
X219852620Y-101060249D01*
X219743296Y-101274808D01*
X219673696Y-101505335D01*
X219646019Y-101744545D01*
X219661139Y-101984874D01*
X219718579Y-102218728D01*
X219816523Y-102438714D01*
X219951875Y-102637880D01*
X220120358Y-102809929D01*
X220316645Y-102949422D01*
X220534531Y-103051952D01*
X220535869Y-103052311D01*
X220378784Y-103116416D01*
X220175466Y-103245446D01*
X219998211Y-103408441D01*
X219852620Y-103600249D01*
X219743296Y-103814808D01*
X219673696Y-104045335D01*
X219646019Y-104284545D01*
X219661139Y-104524874D01*
X219718579Y-104758728D01*
X219816523Y-104978714D01*
X219951875Y-105177880D01*
X220120358Y-105349929D01*
X220316645Y-105489422D01*
X220534531Y-105591952D01*
X220535869Y-105592311D01*
X220378784Y-105656416D01*
X220175466Y-105785446D01*
X219998211Y-105948441D01*
X219852620Y-106140249D01*
X219743296Y-106354808D01*
X219673696Y-106585335D01*
X219646019Y-106824545D01*
X219661139Y-107064874D01*
X219718579Y-107298728D01*
X219816523Y-107518714D01*
X219951875Y-107717880D01*
X220120358Y-107889929D01*
X220316645Y-108029422D01*
X220534531Y-108131952D01*
X220535869Y-108132311D01*
X220378784Y-108196416D01*
X220175466Y-108325446D01*
X219998211Y-108488441D01*
X219852620Y-108680249D01*
X219743296Y-108894808D01*
X219673696Y-109125335D01*
X219646019Y-109364545D01*
X219661139Y-109604874D01*
X219718579Y-109838728D01*
X219816523Y-110058714D01*
X219951875Y-110257880D01*
X220120358Y-110429929D01*
X220316645Y-110569422D01*
X220534531Y-110671952D01*
X220535869Y-110672311D01*
X220378784Y-110736416D01*
X220175466Y-110865446D01*
X219998211Y-111028441D01*
X219852620Y-111220249D01*
X219743296Y-111434808D01*
X219673696Y-111665335D01*
X219646019Y-111904545D01*
X219661139Y-112144874D01*
X219718579Y-112378728D01*
X219816523Y-112598714D01*
X219951875Y-112797880D01*
X220120358Y-112969929D01*
X220316645Y-113109422D01*
X220409279Y-113153012D01*
X220385287Y-113161745D01*
X220165713Y-113288515D01*
X219971489Y-113451489D01*
X219808515Y-113645713D01*
X219681745Y-113865287D01*
X219595028Y-114103539D01*
X219555274Y-114329000D01*
X221151000Y-114329000D01*
X221151000Y-114631000D01*
X219555274Y-114631000D01*
X219595028Y-114856461D01*
X219681745Y-115094713D01*
X219808515Y-115314287D01*
X219971489Y-115508511D01*
X220165713Y-115671485D01*
X220385287Y-115798255D01*
X220405372Y-115805565D01*
X220378784Y-115816416D01*
X220175466Y-115945446D01*
X219998211Y-116108441D01*
X219852620Y-116300249D01*
X219743296Y-116514808D01*
X219673696Y-116745335D01*
X219646019Y-116984545D01*
X219661139Y-117224874D01*
X219718579Y-117458728D01*
X219816523Y-117678714D01*
X219951875Y-117877880D01*
X220120358Y-118049929D01*
X220316645Y-118189422D01*
X220534531Y-118291952D01*
X220535869Y-118292311D01*
X220378784Y-118356416D01*
X220175466Y-118485446D01*
X219998211Y-118648441D01*
X219852620Y-118840249D01*
X219743296Y-119054808D01*
X219673696Y-119285335D01*
X219646019Y-119524545D01*
X219661139Y-119764874D01*
X219718579Y-119998728D01*
X219816523Y-120218714D01*
X219951875Y-120417880D01*
X220120358Y-120589929D01*
X220316645Y-120729422D01*
X220534531Y-120831952D01*
X220535869Y-120832311D01*
X220378784Y-120896416D01*
X220175466Y-121025446D01*
X219998211Y-121188441D01*
X219852620Y-121380249D01*
X219743296Y-121594808D01*
X219673696Y-121825335D01*
X219646019Y-122064545D01*
X219661139Y-122304874D01*
X219718579Y-122538728D01*
X219816523Y-122758714D01*
X219951875Y-122957880D01*
X220120358Y-123129929D01*
X220316645Y-123269422D01*
X220534531Y-123371952D01*
X220535869Y-123372311D01*
X220378784Y-123436416D01*
X220175466Y-123565446D01*
X219998211Y-123728441D01*
X219852620Y-123920249D01*
X219743296Y-124134808D01*
X219673696Y-124365335D01*
X219646019Y-124604545D01*
X219661139Y-124844874D01*
X219718579Y-125078728D01*
X219816523Y-125298714D01*
X219951875Y-125497880D01*
X220120358Y-125669929D01*
X220316645Y-125809422D01*
X220534531Y-125911952D01*
X220535869Y-125912311D01*
X220378784Y-125976416D01*
X220175466Y-126105446D01*
X219998211Y-126268441D01*
X219852620Y-126460249D01*
X219743296Y-126674808D01*
X219673696Y-126905335D01*
X219646019Y-127144545D01*
X219661139Y-127384874D01*
X219718579Y-127618728D01*
X219816523Y-127838714D01*
X219951875Y-128037880D01*
X220120358Y-128209929D01*
X220316645Y-128349422D01*
X220534531Y-128451952D01*
X220535869Y-128452311D01*
X220378784Y-128516416D01*
X220175466Y-128645446D01*
X219998211Y-128808441D01*
X219852620Y-129000249D01*
X219743296Y-129214808D01*
X219673696Y-129445335D01*
X219646019Y-129684545D01*
X219661139Y-129924874D01*
X219718579Y-130158728D01*
X219816523Y-130378714D01*
X219951875Y-130577880D01*
X220120358Y-130749929D01*
X220316645Y-130889422D01*
X220409279Y-130933012D01*
X220385287Y-130941745D01*
X220165713Y-131068515D01*
X219971489Y-131231489D01*
X219808515Y-131425713D01*
X219681745Y-131645287D01*
X219595028Y-131883539D01*
X219555274Y-132109000D01*
X221151000Y-132109000D01*
X221151000Y-133704726D01*
X221376461Y-133664972D01*
X221614713Y-133578255D01*
X221834287Y-133451485D01*
X222028511Y-133288511D01*
X222191485Y-133094287D01*
X222318255Y-132874713D01*
X222326656Y-132851632D01*
X222356523Y-132918714D01*
X222491875Y-133117880D01*
X222660358Y-133289929D01*
X222856645Y-133429422D01*
X223074531Y-133531952D01*
X223307131Y-133594276D01*
X223547091Y-133614427D01*
X223786828Y-133591765D01*
X224018762Y-133527008D01*
X224235564Y-133422202D01*
X224430379Y-133280660D01*
X224597051Y-133106857D01*
X224730310Y-132906285D01*
X224825945Y-132685286D01*
X224881232Y-132449569D01*
X224889315Y-132140885D01*
X224846441Y-131902599D01*
X224762502Y-131676896D01*
X224639923Y-131469625D01*
X224482576Y-131287337D01*
X224295435Y-131135793D01*
X224084416Y-131019785D01*
X224001414Y-130991852D01*
X224018762Y-130987008D01*
X224235564Y-130882202D01*
X224430379Y-130740660D01*
X224597051Y-130566857D01*
X224730310Y-130366285D01*
X224825945Y-130145286D01*
X224881232Y-129909569D01*
X224889315Y-129600885D01*
X224846441Y-129362599D01*
X224762502Y-129136896D01*
X224639923Y-128929625D01*
X224482576Y-128747337D01*
X224295435Y-128595793D01*
X224084416Y-128479785D01*
X224001414Y-128451852D01*
X224018762Y-128447008D01*
X224235564Y-128342202D01*
X224430379Y-128200660D01*
X224597051Y-128026857D01*
X224730310Y-127826285D01*
X224825945Y-127605286D01*
X224881232Y-127369569D01*
X224889315Y-127060885D01*
X224846441Y-126822599D01*
X224762502Y-126596896D01*
X224639923Y-126389625D01*
X224482576Y-126207337D01*
X224295435Y-126055793D01*
X224132632Y-125966292D01*
X224154713Y-125958255D01*
X224374287Y-125831485D01*
X224568511Y-125668511D01*
X224731485Y-125474287D01*
X224858255Y-125254713D01*
X224944972Y-125016461D01*
X224984726Y-124791000D01*
X223389000Y-124791000D01*
X223389000Y-124489000D01*
X224984726Y-124489000D01*
X224944972Y-124263539D01*
X224858255Y-124025287D01*
X224731485Y-123805713D01*
X224568511Y-123611489D01*
X224374287Y-123448515D01*
X224154713Y-123321745D01*
X224130570Y-123312958D01*
X224235564Y-123262202D01*
X224430379Y-123120660D01*
X224597051Y-122946857D01*
X224730310Y-122746285D01*
X224825945Y-122525286D01*
X224881232Y-122289569D01*
X224889315Y-121980885D01*
X224846441Y-121742599D01*
X224762502Y-121516896D01*
X224639923Y-121309625D01*
X224482576Y-121127337D01*
X224295435Y-120975793D01*
X224132632Y-120886292D01*
X224154713Y-120878255D01*
X224374287Y-120751485D01*
X224568511Y-120588511D01*
X224731485Y-120394287D01*
X224858255Y-120174713D01*
X224944972Y-119936461D01*
X224984726Y-119711000D01*
X223389000Y-119711000D01*
X223389000Y-119409000D01*
X224984726Y-119409000D01*
X224944972Y-119183539D01*
X224858255Y-118945287D01*
X224731485Y-118725713D01*
X224568511Y-118531489D01*
X224374287Y-118368515D01*
X224154713Y-118241745D01*
X224130570Y-118232958D01*
X224235564Y-118182202D01*
X224430379Y-118040660D01*
X224597051Y-117866857D01*
X224730310Y-117666285D01*
X224825945Y-117445286D01*
X224881232Y-117209569D01*
X224889315Y-116900885D01*
X224846441Y-116662599D01*
X224762502Y-116436896D01*
X224639923Y-116229625D01*
X224482576Y-116047337D01*
X224295435Y-115895793D01*
X224084416Y-115779785D01*
X224001414Y-115751852D01*
X224018762Y-115747008D01*
X224235564Y-115642202D01*
X224430379Y-115500660D01*
X224597051Y-115326857D01*
X224730310Y-115126285D01*
X224825945Y-114905286D01*
X224881232Y-114669569D01*
X224889315Y-114360885D01*
X224846441Y-114122599D01*
X224762502Y-113896896D01*
X224639923Y-113689625D01*
X224482576Y-113507337D01*
X224295435Y-113355793D01*
X224084416Y-113239785D01*
X224001414Y-113211852D01*
X224018762Y-113207008D01*
X224235564Y-113102202D01*
X224430379Y-112960660D01*
X224597051Y-112786857D01*
X224730310Y-112586285D01*
X224825945Y-112365286D01*
X224881232Y-112129569D01*
X224889315Y-111820885D01*
X224846441Y-111582599D01*
X224762502Y-111356896D01*
X224639923Y-111149625D01*
X224482576Y-110967337D01*
X224295435Y-110815793D01*
X224084416Y-110699785D01*
X224001414Y-110671852D01*
X224018762Y-110667008D01*
X224235564Y-110562202D01*
X224430379Y-110420660D01*
X224597051Y-110246857D01*
X224730310Y-110046285D01*
X224825945Y-109825286D01*
X224881232Y-109589569D01*
X224889315Y-109280885D01*
X224846441Y-109042599D01*
X224762502Y-108816896D01*
X224639923Y-108609625D01*
X224482576Y-108427337D01*
X224295435Y-108275793D01*
X224132632Y-108186292D01*
X224154713Y-108178255D01*
X224374287Y-108051485D01*
X224568511Y-107888511D01*
X224731485Y-107694287D01*
X224858255Y-107474713D01*
X224944972Y-107236461D01*
X224984726Y-107011000D01*
X223389000Y-107011000D01*
X223389000Y-106709000D01*
X224984726Y-106709000D01*
X224944972Y-106483539D01*
X224858255Y-106245287D01*
X224731485Y-106025713D01*
X224568511Y-105831489D01*
X224374287Y-105668515D01*
X224154713Y-105541745D01*
X224130570Y-105532958D01*
X224235564Y-105482202D01*
X224430379Y-105340660D01*
X224597051Y-105166857D01*
X224730310Y-104966285D01*
X224825945Y-104745286D01*
X224881232Y-104509569D01*
X224889315Y-104200885D01*
X224846441Y-103962599D01*
X224762502Y-103736896D01*
X224639923Y-103529625D01*
X224482576Y-103347337D01*
X224295435Y-103195793D01*
X224084416Y-103079785D01*
X224001414Y-103051852D01*
X224018762Y-103047008D01*
X224235564Y-102942202D01*
X224430379Y-102800660D01*
X224597051Y-102626857D01*
X224730310Y-102426285D01*
X224825945Y-102205286D01*
X224881232Y-101969569D01*
X224889315Y-101660885D01*
X224846441Y-101422599D01*
X224762502Y-101196896D01*
X224639923Y-100989625D01*
X224482576Y-100807337D01*
X224295435Y-100655793D01*
X224132632Y-100566292D01*
X224154713Y-100558255D01*
X224374287Y-100431485D01*
X224568511Y-100268511D01*
X224731485Y-100074287D01*
X224858255Y-99854713D01*
X224944972Y-99616461D01*
X224984726Y-99391000D01*
X223389000Y-99391000D01*
X223389000Y-99089000D01*
X224984726Y-99089000D01*
X224944972Y-98863539D01*
X224858255Y-98625287D01*
X224731485Y-98405713D01*
X224568511Y-98211489D01*
X224374287Y-98048515D01*
X224154713Y-97921745D01*
X224130570Y-97912958D01*
X224235564Y-97862202D01*
X224430379Y-97720660D01*
X224597051Y-97546857D01*
X224730310Y-97346285D01*
X224825945Y-97125286D01*
X224881232Y-96889569D01*
X224889315Y-96580885D01*
X224846441Y-96342599D01*
X224762502Y-96116896D01*
X224639923Y-95909625D01*
X224482576Y-95727337D01*
X224295435Y-95575793D01*
X224084416Y-95459785D01*
X224001414Y-95431852D01*
X224018762Y-95427008D01*
X224235564Y-95322202D01*
X224430379Y-95180660D01*
X224597051Y-95006857D01*
X224730310Y-94806285D01*
X224825945Y-94585286D01*
X224881232Y-94349569D01*
X224889315Y-94040885D01*
X224846441Y-93802599D01*
X224762502Y-93576896D01*
X224639923Y-93369625D01*
X224482576Y-93187337D01*
X224295435Y-93035793D01*
X224084416Y-92919785D01*
X224001414Y-92891852D01*
X224018762Y-92887008D01*
X224235564Y-92782202D01*
X224430379Y-92640660D01*
X224597051Y-92466857D01*
X224730310Y-92266285D01*
X224825945Y-92045286D01*
X224881232Y-91809569D01*
X224889315Y-91500885D01*
X224846441Y-91262599D01*
X224762502Y-91036896D01*
X224639923Y-90829625D01*
X224482576Y-90647337D01*
X224295435Y-90495793D01*
X224132632Y-90406292D01*
X224154713Y-90398255D01*
X224374287Y-90271485D01*
X224568511Y-90108511D01*
X224731485Y-89914287D01*
X224858255Y-89694713D01*
X224944972Y-89456461D01*
X224984726Y-89231000D01*
X223389000Y-89231000D01*
X223389000Y-88929000D01*
X224984726Y-88929000D01*
X224944972Y-88703539D01*
X224858255Y-88465287D01*
X224819985Y-88399000D01*
X225764630Y-88399000D01*
X225789309Y-88426170D01*
X225996004Y-88548652D01*
X226229576Y-88604944D01*
X226469375Y-88590067D01*
X226694200Y-88505338D01*
X226884171Y-88358246D01*
X227022493Y-88161797D01*
X227097060Y-87932983D01*
X227099260Y-87680948D01*
X227028698Y-87450867D01*
X226893824Y-87252035D01*
X226706450Y-87101650D01*
X226483139Y-87013010D01*
X226243636Y-86993949D01*
X226009116Y-87046157D01*
X225800315Y-87165013D01*
X225766461Y-87201000D01*
X224720533Y-87201000D01*
X224730310Y-87186285D01*
X224825945Y-86965286D01*
X224881232Y-86729569D01*
X224889315Y-86420885D01*
X224846441Y-86182599D01*
X224762502Y-85956896D01*
X224639923Y-85749625D01*
X224539000Y-85632704D01*
X224539000Y-84999000D01*
X227386201Y-84999000D01*
X227901001Y-85513801D01*
X227901000Y-134286200D01*
X224936201Y-137251000D01*
X220984522Y-137251000D01*
X220789209Y-137276713D01*
X220546190Y-137377376D01*
X220337505Y-137537505D01*
X220177376Y-137746190D01*
X220076713Y-137989209D01*
X220042380Y-138250000D01*
X220076713Y-138510791D01*
X220177376Y-138753810D01*
X220337505Y-138962495D01*
X220546190Y-139122624D01*
X220789209Y-139223287D01*
X220984522Y-139249000D01*
X225284531Y-139249000D01*
X225350000Y-139257619D01*
X225415469Y-139249000D01*
X225415478Y-139249000D01*
X225610791Y-139223287D01*
X225853810Y-139122624D01*
X226062495Y-138962495D01*
X226102696Y-138910103D01*
X229560108Y-135452692D01*
X229612495Y-135412495D01*
X229656647Y-135354955D01*
X229772624Y-135203811D01*
X229813688Y-135104673D01*
X229873287Y-134960791D01*
X229899000Y-134765478D01*
X229899000Y-134765470D01*
X229907619Y-134700001D01*
X229899000Y-134634531D01*
X229899000Y-85165469D01*
X229907619Y-85100000D01*
X229899000Y-85034530D01*
X229899000Y-85034522D01*
X229873287Y-84839209D01*
X229796788Y-84654525D01*
X229772624Y-84596189D01*
X229652699Y-84439900D01*
X229612495Y-84387505D01*
X229560104Y-84347304D01*
X228552696Y-83339897D01*
X228512495Y-83287505D01*
X228303810Y-83127376D01*
X228060791Y-83026713D01*
X227865478Y-83001000D01*
X227865469Y-83001000D01*
X227800000Y-82992381D01*
X227734531Y-83001000D01*
X224450052Y-83001000D01*
X224295435Y-82875793D01*
X224084416Y-82759785D01*
X223856189Y-82682978D01*
X223617967Y-82647800D01*
X223377281Y-82655364D01*
X223141738Y-82705430D01*
X222918784Y-82796416D01*
X222715466Y-82925446D01*
X222538211Y-83088441D01*
X222392620Y-83280249D01*
X222356836Y-83350479D01*
X222356836Y-83140249D01*
X222320047Y-82955300D01*
X222209759Y-82790241D01*
X222044700Y-82679953D01*
X221859751Y-82643164D01*
X220140249Y-82643164D01*
X219955300Y-82679953D01*
X219790241Y-82790241D01*
X219679953Y-82955300D01*
X219643164Y-83140249D01*
X219643164Y-84859751D01*
X219679953Y-85044700D01*
X219790241Y-85209759D01*
X219955300Y-85320047D01*
X220140249Y-85356836D01*
X220346607Y-85356836D01*
X220175466Y-85465446D01*
X219998211Y-85628441D01*
X219852620Y-85820249D01*
X219743296Y-86034808D01*
X219673696Y-86265335D01*
X219646019Y-86504545D01*
X219661139Y-86744874D01*
X219718579Y-86978728D01*
X219816523Y-87198714D01*
X219951875Y-87397880D01*
X220120358Y-87569929D01*
X220316645Y-87709422D01*
X220534531Y-87811952D01*
X220535869Y-87812311D01*
X220378784Y-87876416D01*
X220175466Y-88005446D01*
X219998211Y-88168441D01*
X219852620Y-88360249D01*
X219780904Y-88501000D01*
X218445253Y-88501000D01*
X218368758Y-88494307D01*
X218294569Y-88514186D01*
X218218916Y-88527525D01*
X218196517Y-88540458D01*
X218171529Y-88547153D01*
X218108615Y-88591207D01*
X218042086Y-88629618D01*
X217992722Y-88688448D01*
X216108449Y-90572722D01*
X216049620Y-90622085D01*
X216011213Y-90688607D01*
X215967153Y-90751531D01*
X215960459Y-90776516D01*
X215947526Y-90798915D01*
X215934189Y-90874558D01*
X215914306Y-90948758D01*
X215921001Y-91025273D01*
X215921000Y-93308065D01*
X215743636Y-93293949D01*
X215509116Y-93346157D01*
X215300315Y-93465013D01*
X215135692Y-93640012D01*
X215029805Y-93855680D01*
X214992012Y-94092948D01*
X215025658Y-94330842D01*
X215127766Y-94548325D01*
X215289309Y-94726170D01*
X215496004Y-94848652D01*
X215729576Y-94904944D01*
X215921001Y-94893068D01*
X215921000Y-102840170D01*
X215278363Y-103482808D01*
X215285945Y-103465286D01*
X215341232Y-103229569D01*
X215349315Y-102920885D01*
X215306441Y-102682599D01*
X215222502Y-102456896D01*
X215099923Y-102249625D01*
X214942576Y-102067337D01*
X214805967Y-101956713D01*
X214863034Y-101956713D01*
X215150680Y-101879638D01*
X215315939Y-101740970D01*
X215421559Y-101558030D01*
X215456713Y-101358661D01*
X215456713Y-100651000D01*
X212543287Y-100651000D01*
X195249000Y-100651000D01*
X195249000Y-95835828D01*
X195255119Y-95809429D01*
X195249000Y-95723007D01*
X195249000Y-92240498D01*
X203342604Y-92240498D01*
X203373475Y-92484864D01*
X203468924Y-92711928D01*
X203501001Y-92752399D01*
X203501000Y-97705530D01*
X203492921Y-97773792D01*
X203511034Y-97872970D01*
X203526031Y-97972721D01*
X203531229Y-97983547D01*
X203534104Y-97999287D01*
X203554466Y-98031938D01*
X203623525Y-98175750D01*
X203686940Y-98244354D01*
X203689975Y-98249220D01*
X203709341Y-98268587D01*
X203776408Y-98341140D01*
X203789497Y-98348743D01*
X204615935Y-99175182D01*
X204623475Y-99234865D01*
X204718924Y-99461928D01*
X204871918Y-99654959D01*
X205071186Y-99799735D01*
X205302047Y-99885591D01*
X205547492Y-99906202D01*
X205789438Y-99860048D01*
X206010060Y-99750530D01*
X206011759Y-99749000D01*
X209897448Y-99749000D01*
X210129576Y-99804944D01*
X210369375Y-99790067D01*
X210594200Y-99705338D01*
X210676855Y-99641339D01*
X212543287Y-99641339D01*
X212543287Y-100349000D01*
X213849000Y-100349000D01*
X213849000Y-99043287D01*
X214151000Y-99043287D01*
X214151000Y-100349000D01*
X215456713Y-100349000D01*
X215456713Y-99636966D01*
X215379638Y-99349321D01*
X215240970Y-99184061D01*
X215058030Y-99078441D01*
X214858661Y-99043287D01*
X214151000Y-99043287D01*
X213849000Y-99043287D01*
X213136966Y-99043287D01*
X212849321Y-99120362D01*
X212684061Y-99259030D01*
X212578441Y-99441970D01*
X212543287Y-99641339D01*
X210676855Y-99641339D01*
X210784171Y-99558246D01*
X210922493Y-99361797D01*
X210997060Y-99132983D01*
X210999260Y-98880948D01*
X210928698Y-98650867D01*
X210793824Y-98452035D01*
X210606450Y-98301650D01*
X210383139Y-98213010D01*
X210143636Y-98193949D01*
X209909116Y-98246157D01*
X209900607Y-98251000D01*
X206007847Y-98251000D01*
X205807386Y-98146202D01*
X205677932Y-98118685D01*
X204999000Y-97439754D01*
X204999000Y-92747639D01*
X205075082Y-92627752D01*
X205146426Y-92391450D01*
X205149192Y-92127355D01*
X205082812Y-91889610D01*
X204999000Y-91751220D01*
X204999000Y-89180782D01*
X211397195Y-89180782D01*
X211429556Y-89476264D01*
X211503227Y-89764238D01*
X211616740Y-90038959D01*
X211767829Y-90294945D01*
X211953478Y-90527089D01*
X212169985Y-90730759D01*
X212413030Y-90901891D01*
X212677763Y-91037070D01*
X212958901Y-91133599D01*
X213250836Y-91189553D01*
X213547743Y-91203814D01*
X213843696Y-91176099D01*
X214132792Y-91106959D01*
X214409263Y-90997777D01*
X214667590Y-90850728D01*
X214902622Y-90668747D01*
X215109667Y-90455465D01*
X215284595Y-90215138D01*
X215423916Y-89952562D01*
X215524849Y-89672974D01*
X215585700Y-89380423D01*
X215599449Y-88954757D01*
X215557604Y-88658888D01*
X215474923Y-88373370D01*
X215352837Y-88102350D01*
X215193783Y-87851235D01*
X215000933Y-87625037D01*
X214778135Y-87428269D01*
X214529835Y-87264856D01*
X214260986Y-87138059D01*
X213976955Y-87050408D01*
X213683407Y-87003652D01*
X213386199Y-86998723D01*
X213091262Y-87035721D01*
X212804480Y-87113907D01*
X212531576Y-87231720D01*
X212277995Y-87386811D01*
X212048795Y-87576085D01*
X211848552Y-87795764D01*
X211681259Y-88041467D01*
X211550254Y-88308290D01*
X211458152Y-88590910D01*
X211406791Y-88883688D01*
X211397195Y-89180782D01*
X204999000Y-89180782D01*
X204999000Y-85310246D01*
X206177927Y-84131320D01*
X206289438Y-84110048D01*
X206510060Y-84000531D01*
X206693103Y-83835718D01*
X206825082Y-83627752D01*
X206896426Y-83391450D01*
X206899192Y-83127355D01*
X206832812Y-82889610D01*
X206705218Y-82678927D01*
X206525666Y-82510316D01*
X206307386Y-82396202D01*
X206066459Y-82344992D01*
X205820637Y-82360457D01*
X205588028Y-82441461D01*
X205385772Y-82582032D01*
X205228769Y-82771816D01*
X205128586Y-82996831D01*
X205117266Y-83073487D01*
X203751823Y-84438931D01*
X203697841Y-84481487D01*
X203640506Y-84564445D01*
X203580588Y-84645567D01*
X203576611Y-84656894D01*
X203567512Y-84670057D01*
X203558824Y-84707544D01*
X203505964Y-84858068D01*
X203502296Y-84951419D01*
X203501001Y-84957004D01*
X203501001Y-84984361D01*
X203497121Y-85083118D01*
X203501001Y-85097751D01*
X203501000Y-91744944D01*
X203478769Y-91771817D01*
X203378586Y-91996831D01*
X203342604Y-92240498D01*
X195249000Y-92240498D01*
X195249000Y-90835828D01*
X195255119Y-90809429D01*
X195249000Y-90723007D01*
X195249000Y-85585828D01*
X195255119Y-85559429D01*
X195249000Y-85473007D01*
X195249000Y-81680869D01*
X195257079Y-81612608D01*
X195238967Y-81513436D01*
X195223969Y-81413676D01*
X195218771Y-81402853D01*
X195215897Y-81387112D01*
X195195529Y-81354452D01*
X195126475Y-81210649D01*
X195063057Y-81142043D01*
X195060022Y-81137177D01*
X195040664Y-81117819D01*
X194973593Y-81045260D01*
X194960503Y-81037657D01*
X193924673Y-80001827D01*
X193882113Y-79947840D01*
X193799140Y-79890494D01*
X193718033Y-79830588D01*
X193706709Y-79826611D01*
X193693543Y-79817511D01*
X193656048Y-79808821D01*
X193505532Y-79755964D01*
X193412182Y-79752295D01*
X193406594Y-79751000D01*
X193379214Y-79751000D01*
X193370436Y-79750655D01*
X193370436Y-79626649D01*
X193333647Y-79441700D01*
X193223359Y-79276641D01*
X193058300Y-79166353D01*
X192873351Y-79129564D01*
X191126649Y-79129564D01*
X190941700Y-79166353D01*
X190776641Y-79276641D01*
X190666353Y-79441700D01*
X190630546Y-79621714D01*
X190523002Y-79487717D01*
X190337246Y-79323085D01*
X190126407Y-79192104D01*
X189896512Y-79098520D01*
X189611000Y-79035485D01*
X189611000Y-80651000D01*
X187990430Y-80651000D01*
X188070427Y-80973049D01*
X188169996Y-81200414D01*
X188306452Y-81407752D01*
X188475890Y-81589136D01*
X188673468Y-81739377D01*
X188834598Y-81823434D01*
X188832521Y-81824282D01*
X188627153Y-81954613D01*
X188448111Y-82119251D01*
X188301052Y-82312994D01*
X188190627Y-82529715D01*
X188120325Y-82762566D01*
X188092369Y-83004187D01*
X188107641Y-83246940D01*
X188165660Y-83483151D01*
X188264592Y-83705356D01*
X188401309Y-83906529D01*
X188571490Y-84080311D01*
X188769755Y-84221212D01*
X188840634Y-84254565D01*
X188699595Y-84324423D01*
X188498916Y-84470494D01*
X188325715Y-84648288D01*
X188184949Y-84852723D01*
X188080638Y-85077953D01*
X187985591Y-85429000D01*
X178499000Y-85429000D01*
X178499000Y-80349000D01*
X187985591Y-80349000D01*
X189309000Y-80349000D01*
X189309000Y-79044949D01*
X189159823Y-79063135D01*
X188922018Y-79134254D01*
X188699595Y-79244423D01*
X188498916Y-79390494D01*
X188325715Y-79568288D01*
X188184949Y-79772723D01*
X188080638Y-79997953D01*
X187985591Y-80349000D01*
X178499000Y-80349000D01*
X178499000Y-78830782D01*
X195647195Y-78830782D01*
X195679556Y-79126264D01*
X195753227Y-79414238D01*
X195866740Y-79688959D01*
X196017829Y-79944945D01*
X196203478Y-80177089D01*
X196419985Y-80380759D01*
X196663030Y-80551891D01*
X196927763Y-80687070D01*
X197208901Y-80783599D01*
X197500836Y-80839553D01*
X197797743Y-80853814D01*
X198093696Y-80826099D01*
X198382792Y-80756959D01*
X198659263Y-80647777D01*
X198917590Y-80500728D01*
X199152622Y-80318747D01*
X199359667Y-80105465D01*
X199534595Y-79865138D01*
X199673916Y-79602562D01*
X199774849Y-79322974D01*
X199823369Y-79089705D01*
X222097794Y-79089705D01*
X222131948Y-79369884D01*
X222207138Y-79641937D01*
X222321716Y-79899888D01*
X222473162Y-80138069D01*
X222658151Y-80351250D01*
X222872617Y-80534745D01*
X223111850Y-80684525D01*
X223370595Y-80797299D01*
X223643166Y-80870590D01*
X223923576Y-80902786D01*
X224205665Y-80893181D01*
X224483236Y-80841988D01*
X224750192Y-80750327D01*
X225000666Y-80620217D01*
X225229158Y-80454512D01*
X225430647Y-80256854D01*
X225600708Y-80031586D01*
X225735604Y-79783655D01*
X225832371Y-79518509D01*
X225889145Y-79240694D01*
X225893231Y-79089705D01*
X228597794Y-79089705D01*
X228631948Y-79369884D01*
X228707138Y-79641937D01*
X228821716Y-79899888D01*
X228973162Y-80138069D01*
X229158151Y-80351250D01*
X229372617Y-80534745D01*
X229611850Y-80684525D01*
X229870595Y-80797299D01*
X230143166Y-80870590D01*
X230423576Y-80902786D01*
X230705665Y-80893181D01*
X230983236Y-80841988D01*
X231250192Y-80750327D01*
X231500666Y-80620217D01*
X231729158Y-80454512D01*
X231930647Y-80256854D01*
X232100708Y-80031586D01*
X232235604Y-79783655D01*
X232332371Y-79518509D01*
X232389145Y-79240694D01*
X232399398Y-78861822D01*
X232357730Y-78581342D01*
X232275443Y-78311351D01*
X232154153Y-78056488D01*
X231996523Y-77822353D01*
X231806017Y-77614088D01*
X231586821Y-77436269D01*
X231343749Y-77292803D01*
X231082141Y-77186841D01*
X230807745Y-77120711D01*
X230526588Y-77095866D01*
X230244848Y-77112851D01*
X229968712Y-77171294D01*
X229704247Y-77269910D01*
X229457265Y-77406533D01*
X229233189Y-77578162D01*
X229036942Y-77781026D01*
X228872837Y-78010670D01*
X228744478Y-78262046D01*
X228654684Y-78529635D01*
X228605429Y-78807557D01*
X228597794Y-79089705D01*
X225893231Y-79089705D01*
X225899398Y-78861822D01*
X225857730Y-78581342D01*
X225775443Y-78311351D01*
X225654153Y-78056488D01*
X225496523Y-77822353D01*
X225306017Y-77614088D01*
X225086821Y-77436269D01*
X224843749Y-77292803D01*
X224582141Y-77186841D01*
X224307745Y-77120711D01*
X224026588Y-77095866D01*
X223744848Y-77112851D01*
X223468712Y-77171294D01*
X223204247Y-77269910D01*
X222957265Y-77406533D01*
X222733189Y-77578162D01*
X222536942Y-77781026D01*
X222372837Y-78010670D01*
X222244478Y-78262046D01*
X222154684Y-78529635D01*
X222105429Y-78807557D01*
X222097794Y-79089705D01*
X199823369Y-79089705D01*
X199835700Y-79030423D01*
X199849449Y-78604757D01*
X199807604Y-78308888D01*
X199724923Y-78023370D01*
X199602837Y-77752350D01*
X199443783Y-77501235D01*
X199250933Y-77275037D01*
X199028135Y-77078269D01*
X198779835Y-76914856D01*
X198510986Y-76788059D01*
X198226955Y-76700408D01*
X197933407Y-76653652D01*
X197636199Y-76648723D01*
X197341262Y-76685721D01*
X197054480Y-76763907D01*
X196781576Y-76881720D01*
X196527995Y-77036811D01*
X196298795Y-77226085D01*
X196098552Y-77445764D01*
X195931259Y-77691467D01*
X195800254Y-77958290D01*
X195708152Y-78240910D01*
X195656791Y-78533688D01*
X195647195Y-78830782D01*
X178499000Y-78830782D01*
X178499000Y-75499000D01*
X233501001Y-75499000D01*
X233501000Y-81968519D01*
G37*
D23*
X233501000Y-81968519D02*
X233501000Y-81968520D01*
X233501001Y-164501000D01*
X195828740Y-164501000D01*
X195856836Y-164359751D01*
X195856836Y-161990498D01*
X221892604Y-161990498D01*
X221923475Y-162234864D01*
X222018924Y-162461928D01*
X222171918Y-162654959D01*
X222371186Y-162799735D01*
X222602047Y-162885591D01*
X222847492Y-162906202D01*
X223089438Y-162860048D01*
X223310060Y-162750531D01*
X223478352Y-162599000D01*
X224027565Y-162599000D01*
X224071918Y-162654959D01*
X224271186Y-162799735D01*
X224502047Y-162885591D01*
X224747492Y-162906202D01*
X224989438Y-162860048D01*
X225210060Y-162750531D01*
X225393103Y-162585718D01*
X225525082Y-162377752D01*
X225596426Y-162141450D01*
X225599192Y-161877355D01*
X225532812Y-161639610D01*
X225405218Y-161428927D01*
X225225666Y-161260316D01*
X225007386Y-161146202D01*
X224766459Y-161094992D01*
X224520637Y-161110457D01*
X224288028Y-161191461D01*
X224085772Y-161332032D01*
X224028716Y-161401000D01*
X223475479Y-161401000D01*
X223325666Y-161260316D01*
X223107386Y-161146202D01*
X222866459Y-161094992D01*
X222620637Y-161110457D01*
X222388028Y-161191461D01*
X222185772Y-161332032D01*
X222028769Y-161521816D01*
X221928586Y-161746831D01*
X221892604Y-161990498D01*
X195856836Y-161990498D01*
X195856836Y-160940249D01*
X195820047Y-160755300D01*
X195709759Y-160590241D01*
X195544700Y-160479953D01*
X195359751Y-160443164D01*
X193840249Y-160443164D01*
X193655300Y-160479953D01*
X193490241Y-160590241D01*
X193379953Y-160755300D01*
X193343164Y-160940249D01*
X193343164Y-164359751D01*
X193371260Y-164501000D01*
X189128740Y-164501000D01*
X189156836Y-164359751D01*
X189156836Y-160940249D01*
X189120047Y-160755300D01*
X189009759Y-160590241D01*
X188844700Y-160479953D01*
X188659751Y-160443164D01*
X187140249Y-160443164D01*
X186955300Y-160479953D01*
X186790241Y-160590241D01*
X186679953Y-160755300D01*
X186643164Y-160940249D01*
X186643164Y-164359751D01*
X186671260Y-164501000D01*
X178499000Y-164501000D01*
X178499000Y-159830782D01*
X180647195Y-159830782D01*
X180679556Y-160126264D01*
X180753227Y-160414238D01*
X180866740Y-160688959D01*
X181017829Y-160944945D01*
X181203478Y-161177089D01*
X181419985Y-161380759D01*
X181663030Y-161551891D01*
X181927763Y-161687070D01*
X182208901Y-161783599D01*
X182500836Y-161839553D01*
X182797743Y-161853814D01*
X183093696Y-161826099D01*
X183382792Y-161756959D01*
X183659263Y-161647777D01*
X183917590Y-161500728D01*
X184152622Y-161318747D01*
X184359667Y-161105465D01*
X184534595Y-160865138D01*
X184673916Y-160602562D01*
X184774849Y-160322974D01*
X184835700Y-160030423D01*
X184842148Y-159830782D01*
X226647195Y-159830782D01*
X226679556Y-160126264D01*
X226753227Y-160414238D01*
X226866740Y-160688959D01*
X227017829Y-160944945D01*
X227203478Y-161177089D01*
X227419985Y-161380759D01*
X227663030Y-161551891D01*
X227927763Y-161687070D01*
X228208901Y-161783599D01*
X228500836Y-161839553D01*
X228797743Y-161853814D01*
X229093696Y-161826099D01*
X229382792Y-161756959D01*
X229659263Y-161647777D01*
X229917590Y-161500728D01*
X230152622Y-161318747D01*
X230359667Y-161105465D01*
X230534595Y-160865138D01*
X230673916Y-160602562D01*
X230774849Y-160322974D01*
X230835700Y-160030423D01*
X230849449Y-159604757D01*
X230807604Y-159308888D01*
X230724923Y-159023370D01*
X230602837Y-158752350D01*
X230443783Y-158501235D01*
X230250933Y-158275037D01*
X230028135Y-158078269D01*
X229779835Y-157914856D01*
X229510986Y-157788059D01*
X229226955Y-157700408D01*
X228933407Y-157653652D01*
X228636199Y-157648723D01*
X228341262Y-157685721D01*
X228054480Y-157763907D01*
X227781576Y-157881720D01*
X227527995Y-158036811D01*
X227298795Y-158226085D01*
X227098552Y-158445764D01*
X226931259Y-158691467D01*
X226800254Y-158958290D01*
X226708152Y-159240910D01*
X226656791Y-159533688D01*
X226647195Y-159830782D01*
X184842148Y-159830782D01*
X184849449Y-159604757D01*
X184807604Y-159308888D01*
X184724923Y-159023370D01*
X184602837Y-158752350D01*
X184443783Y-158501235D01*
X184250933Y-158275037D01*
X184028135Y-158078269D01*
X183779835Y-157914856D01*
X183510986Y-157788059D01*
X183226955Y-157700408D01*
X182933407Y-157653652D01*
X182636199Y-157648723D01*
X182341262Y-157685721D01*
X182054480Y-157763907D01*
X181781576Y-157881720D01*
X181527995Y-158036811D01*
X181298795Y-158226085D01*
X181098552Y-158445764D01*
X180931259Y-158691467D01*
X180800254Y-158958290D01*
X180708152Y-159240910D01*
X180656791Y-159533688D01*
X180647195Y-159830782D01*
X178499000Y-159830782D01*
X178499000Y-148391000D01*
X187990430Y-148391000D01*
X188070427Y-148713049D01*
X188169996Y-148940414D01*
X188306452Y-149147752D01*
X188475890Y-149329136D01*
X188673468Y-149479377D01*
X188893534Y-149594180D01*
X189129798Y-149670264D01*
X189309000Y-149695928D01*
X189309000Y-148391000D01*
X187990430Y-148391000D01*
X178499000Y-148391000D01*
X178499000Y-132849000D01*
X187985591Y-132849000D01*
X189309000Y-132849000D01*
X189309000Y-131544949D01*
X189159823Y-131563135D01*
X188922018Y-131634254D01*
X188699595Y-131744423D01*
X188498916Y-131890494D01*
X188325715Y-132068288D01*
X188184949Y-132272723D01*
X188080638Y-132497953D01*
X187985591Y-132849000D01*
X178499000Y-132849000D01*
X178499000Y-119680782D01*
X182897195Y-119680782D01*
X182929556Y-119976264D01*
X183003227Y-120264238D01*
X183116740Y-120538959D01*
X183267829Y-120794945D01*
X183453478Y-121027089D01*
X183669985Y-121230759D01*
X183913030Y-121401891D01*
X184177763Y-121537070D01*
X184458901Y-121633599D01*
X184750836Y-121689553D01*
X185047743Y-121703814D01*
X185343696Y-121676099D01*
X185632792Y-121606959D01*
X185909263Y-121497777D01*
X186167590Y-121350728D01*
X186244729Y-121291000D01*
X187990430Y-121291000D01*
X188070427Y-121613049D01*
X188169996Y-121840414D01*
X188306452Y-122047752D01*
X188475890Y-122229136D01*
X188673468Y-122379377D01*
X188893534Y-122494180D01*
X189129798Y-122570264D01*
X189309000Y-122595928D01*
X189309000Y-121291000D01*
X187990430Y-121291000D01*
X186244729Y-121291000D01*
X186402622Y-121168747D01*
X186609667Y-120955465D01*
X186784595Y-120715138D01*
X186923916Y-120452562D01*
X187024849Y-120172974D01*
X187085700Y-119880423D01*
X187099449Y-119454757D01*
X187057604Y-119158888D01*
X186974923Y-118873370D01*
X186852837Y-118602350D01*
X186693783Y-118351235D01*
X186500933Y-118125037D01*
X186278135Y-117928269D01*
X186029835Y-117764856D01*
X185760986Y-117638059D01*
X185476955Y-117550408D01*
X185183407Y-117503652D01*
X184886199Y-117498723D01*
X184591262Y-117535721D01*
X184304480Y-117613907D01*
X184031576Y-117731720D01*
X183777995Y-117886811D01*
X183548795Y-118076085D01*
X183348552Y-118295764D01*
X183181259Y-118541467D01*
X183050254Y-118808290D01*
X182958152Y-119090910D01*
X182906791Y-119383688D01*
X182897195Y-119680782D01*
X178499000Y-119680782D01*
X178499000Y-89180782D01*
X182897195Y-89180782D01*
X182929556Y-89476264D01*
X183003227Y-89764238D01*
X183116740Y-90038959D01*
X183267829Y-90294945D01*
X183453478Y-90527089D01*
X183669985Y-90730759D01*
X183913030Y-90901891D01*
X184177763Y-91037070D01*
X184458901Y-91133599D01*
X184750836Y-91189553D01*
X185047743Y-91203814D01*
X185343696Y-91176099D01*
X185632792Y-91106959D01*
X185909263Y-90997777D01*
X186167590Y-90850728D01*
X186402622Y-90668747D01*
X186609667Y-90455465D01*
X186784595Y-90215138D01*
X186923916Y-89952562D01*
X187024849Y-89672974D01*
X187085700Y-89380423D01*
X187099449Y-88954757D01*
X187057604Y-88658888D01*
X186974923Y-88373370D01*
X186852837Y-88102350D01*
X186693783Y-87851235D01*
X186500933Y-87625037D01*
X186278135Y-87428269D01*
X186029835Y-87264856D01*
X185760986Y-87138059D01*
X185476955Y-87050408D01*
X185183407Y-87003652D01*
X184886199Y-86998723D01*
X184591262Y-87035721D01*
X184304480Y-87113907D01*
X184031576Y-87231720D01*
X183777995Y-87386811D01*
X183548795Y-87576085D01*
X183348552Y-87795764D01*
X183181259Y-88041467D01*
X183050254Y-88308290D01*
X182958152Y-88590910D01*
X182906791Y-88883688D01*
X182897195Y-89180782D01*
X178499000Y-89180782D01*
X178499000Y-85429000D01*
X187985591Y-85429000D01*
X189611000Y-85429000D01*
X189611000Y-85731000D01*
X187990430Y-85731000D01*
X188070427Y-86053049D01*
X188169996Y-86280414D01*
X188306452Y-86487752D01*
X188475890Y-86669136D01*
X188673468Y-86819377D01*
X188834598Y-86903434D01*
X188832521Y-86904282D01*
X188627153Y-87034613D01*
X188448111Y-87199251D01*
X188301052Y-87392994D01*
X188190627Y-87609715D01*
X188120325Y-87842566D01*
X188092369Y-88084187D01*
X188107641Y-88326940D01*
X188165660Y-88563151D01*
X188264592Y-88785356D01*
X188401309Y-88986529D01*
X188571490Y-89160311D01*
X188769755Y-89301212D01*
X188840634Y-89334565D01*
X188699595Y-89404423D01*
X188498916Y-89550494D01*
X188325715Y-89728288D01*
X188184949Y-89932723D01*
X188080638Y-90157953D01*
X187985591Y-90509000D01*
X189611000Y-90509000D01*
X189611000Y-90811000D01*
X187990430Y-90811000D01*
X188070427Y-91133049D01*
X188169996Y-91360414D01*
X188306452Y-91567752D01*
X188475890Y-91749136D01*
X188673468Y-91899377D01*
X188834598Y-91983434D01*
X188832521Y-91984282D01*
X188627153Y-92114613D01*
X188448111Y-92279251D01*
X188301052Y-92472994D01*
X188190627Y-92689715D01*
X188120325Y-92922566D01*
X188092369Y-93164187D01*
X188107641Y-93406940D01*
X188165660Y-93643151D01*
X188264592Y-93865356D01*
X188401309Y-94066529D01*
X188571490Y-94240311D01*
X188769755Y-94381212D01*
X188840634Y-94414565D01*
X188699595Y-94484423D01*
X188498916Y-94630494D01*
X188325715Y-94808288D01*
X188184949Y-95012723D01*
X188080638Y-95237953D01*
X187985591Y-95589000D01*
X189611000Y-95589000D01*
X189611000Y-95891000D01*
X187990430Y-95891000D01*
X188070427Y-96213049D01*
X188169996Y-96440414D01*
X188306452Y-96647752D01*
X188475890Y-96829136D01*
X188673468Y-96979377D01*
X188834598Y-97063434D01*
X188832521Y-97064282D01*
X188627153Y-97194613D01*
X188448111Y-97359251D01*
X188301052Y-97552994D01*
X188190627Y-97769715D01*
X188120325Y-98002566D01*
X188092369Y-98244187D01*
X188107641Y-98486940D01*
X188165660Y-98723151D01*
X188264592Y-98945356D01*
X188401309Y-99146529D01*
X188571490Y-99320311D01*
X188769755Y-99461212D01*
X188840634Y-99494565D01*
X188699595Y-99564423D01*
X188498916Y-99710494D01*
X188325715Y-99888288D01*
X188184949Y-100092723D01*
X188080638Y-100317953D01*
X187985591Y-100669000D01*
X189611000Y-100669000D01*
X189611000Y-100971000D01*
X187990430Y-100971000D01*
X188070427Y-101293049D01*
X188169996Y-101520414D01*
X188306452Y-101727752D01*
X188475890Y-101909136D01*
X188673468Y-102059377D01*
X188834598Y-102143434D01*
X188832521Y-102144282D01*
X188627153Y-102274613D01*
X188448111Y-102439251D01*
X188301052Y-102632994D01*
X188190627Y-102849715D01*
X188120325Y-103082566D01*
X188092369Y-103324187D01*
X188107641Y-103566940D01*
X188165660Y-103803151D01*
X188264592Y-104025356D01*
X188401309Y-104226529D01*
X188571490Y-104400311D01*
X188769755Y-104541212D01*
X188840634Y-104574565D01*
X188699595Y-104644423D01*
X188498916Y-104790494D01*
X188325715Y-104968288D01*
X188184949Y-105172723D01*
X188080638Y-105397953D01*
X187985591Y-105749000D01*
X189611000Y-105749000D01*
X189611000Y-106051000D01*
X187990430Y-106051000D01*
X188070427Y-106373049D01*
X188169996Y-106600414D01*
X188306452Y-106807752D01*
X188475890Y-106989136D01*
X188673468Y-107139377D01*
X188834598Y-107223434D01*
X188832521Y-107224282D01*
X188627153Y-107354613D01*
X188448111Y-107519251D01*
X188301052Y-107712994D01*
X188190627Y-107929715D01*
X188120325Y-108162566D01*
X188092369Y-108404187D01*
X188107641Y-108646940D01*
X188165660Y-108883151D01*
X188264592Y-109105356D01*
X188401309Y-109306529D01*
X188571490Y-109480311D01*
X188769755Y-109621212D01*
X188840634Y-109654565D01*
X188699595Y-109724423D01*
X188498916Y-109870494D01*
X188325715Y-110048288D01*
X188184949Y-110252723D01*
X188080638Y-110477953D01*
X187985591Y-110829000D01*
X189611000Y-110829000D01*
X189611000Y-111131000D01*
X187990430Y-111131000D01*
X188070427Y-111453049D01*
X188169996Y-111680414D01*
X188306452Y-111887752D01*
X188475890Y-112069136D01*
X188673468Y-112219377D01*
X188834598Y-112303434D01*
X188832521Y-112304282D01*
X188627153Y-112434613D01*
X188448111Y-112599251D01*
X188301052Y-112792994D01*
X188190627Y-113009715D01*
X188120325Y-113242566D01*
X188092369Y-113484187D01*
X188107641Y-113726940D01*
X188165660Y-113963151D01*
X188264592Y-114185356D01*
X188401309Y-114386529D01*
X188571490Y-114560311D01*
X188769755Y-114701212D01*
X188840634Y-114734565D01*
X188699595Y-114804423D01*
X188498916Y-114950494D01*
X188325715Y-115128288D01*
X188184949Y-115332723D01*
X188080638Y-115557953D01*
X187985591Y-115909000D01*
X189611000Y-115909000D01*
X189611000Y-116211000D01*
X187990430Y-116211000D01*
X188070427Y-116533049D01*
X188169996Y-116760414D01*
X188306452Y-116967752D01*
X188475890Y-117149136D01*
X188673468Y-117299377D01*
X188834598Y-117383434D01*
X188832521Y-117384282D01*
X188627153Y-117514613D01*
X188448111Y-117679251D01*
X188301052Y-117872994D01*
X188190627Y-118089715D01*
X188120325Y-118322566D01*
X188092369Y-118564187D01*
X188107641Y-118806940D01*
X188165660Y-119043151D01*
X188264592Y-119265356D01*
X188401309Y-119466529D01*
X188571490Y-119640311D01*
X188769755Y-119781212D01*
X188840634Y-119814565D01*
X188699595Y-119884423D01*
X188498916Y-120030494D01*
X188325715Y-120208288D01*
X188184949Y-120412723D01*
X188080638Y-120637953D01*
X187985591Y-120989000D01*
X189611000Y-120989000D01*
X189611000Y-122601249D01*
X189867066Y-122550314D01*
X190098870Y-122461565D01*
X190312405Y-122335029D01*
X190501569Y-122174322D01*
X190660950Y-121984042D01*
X190785992Y-121769628D01*
X190787223Y-121766344D01*
X190804592Y-121805356D01*
X190941309Y-122006529D01*
X191111490Y-122180311D01*
X191309755Y-122321212D01*
X191529840Y-122424775D01*
X191764783Y-122487728D01*
X192007164Y-122508082D01*
X192249316Y-122485191D01*
X192483589Y-122419781D01*
X192702576Y-122313919D01*
X192899356Y-122170950D01*
X193067708Y-121995395D01*
X193138395Y-121889000D01*
X193176844Y-121889000D01*
X193245106Y-121897079D01*
X193344279Y-121878967D01*
X193444034Y-121863969D01*
X193454861Y-121858771D01*
X193470603Y-121855895D01*
X193503249Y-121835535D01*
X193647065Y-121766475D01*
X193665970Y-121749000D01*
X193751001Y-121749000D01*
X193751000Y-132251000D01*
X193370436Y-132251000D01*
X193370436Y-132126649D01*
X193333647Y-131941700D01*
X193223359Y-131776641D01*
X193058300Y-131666353D01*
X192873351Y-131629564D01*
X191126649Y-131629564D01*
X190941700Y-131666353D01*
X190776641Y-131776641D01*
X190666353Y-131941700D01*
X190630546Y-132121714D01*
X190523002Y-131987717D01*
X190337246Y-131823085D01*
X190126407Y-131692104D01*
X189896512Y-131598520D01*
X189611000Y-131535485D01*
X189611000Y-133151000D01*
X187990430Y-133151000D01*
X188070427Y-133473049D01*
X188169996Y-133700414D01*
X188306452Y-133907752D01*
X188475890Y-134089136D01*
X188673468Y-134239377D01*
X188834598Y-134323434D01*
X188832521Y-134324282D01*
X188627153Y-134454613D01*
X188448111Y-134619251D01*
X188301052Y-134812994D01*
X188190627Y-135029715D01*
X188120325Y-135262566D01*
X188092369Y-135504187D01*
X188107641Y-135746940D01*
X188165660Y-135983151D01*
X188264592Y-136205356D01*
X188401309Y-136406529D01*
X188571490Y-136580311D01*
X188769755Y-136721212D01*
X188961736Y-136811550D01*
X188832521Y-136864282D01*
X188627153Y-136994613D01*
X188448111Y-137159251D01*
X188301052Y-137352994D01*
X188190627Y-137569715D01*
X188120325Y-137802566D01*
X188092369Y-138044187D01*
X188107641Y-138286940D01*
X188165660Y-138523151D01*
X188264592Y-138745356D01*
X188401309Y-138946529D01*
X188571490Y-139120311D01*
X188769755Y-139261212D01*
X188840634Y-139294565D01*
X188699595Y-139364423D01*
X188498916Y-139510494D01*
X188325715Y-139688288D01*
X188184949Y-139892723D01*
X188080638Y-140117953D01*
X187985591Y-140469000D01*
X189611000Y-140469000D01*
X189611000Y-140771000D01*
X187990430Y-140771000D01*
X188070427Y-141093049D01*
X188169996Y-141320414D01*
X188306452Y-141527752D01*
X188475890Y-141709136D01*
X188673468Y-141859377D01*
X188834598Y-141943434D01*
X188832521Y-141944282D01*
X188627153Y-142074613D01*
X188448111Y-142239251D01*
X188301052Y-142432994D01*
X188190627Y-142649715D01*
X188120325Y-142882566D01*
X188092369Y-143124187D01*
X188107641Y-143366940D01*
X188165660Y-143603151D01*
X188264592Y-143825356D01*
X188401309Y-144026529D01*
X188571490Y-144200311D01*
X188769755Y-144341212D01*
X188961736Y-144431550D01*
X188832521Y-144484282D01*
X188627153Y-144614613D01*
X188448111Y-144779251D01*
X188301052Y-144972994D01*
X188190627Y-145189715D01*
X188120325Y-145422566D01*
X188092369Y-145664187D01*
X188107641Y-145906940D01*
X188165660Y-146143151D01*
X188264592Y-146365356D01*
X188401309Y-146566529D01*
X188571490Y-146740311D01*
X188769755Y-146881212D01*
X188840634Y-146914565D01*
X188699595Y-146984423D01*
X188498916Y-147130494D01*
X188325715Y-147308288D01*
X188184949Y-147512723D01*
X188080638Y-147737953D01*
X187985591Y-148089000D01*
X189611000Y-148089000D01*
X189611000Y-149701249D01*
X189867066Y-149650314D01*
X190098870Y-149561565D01*
X190312405Y-149435029D01*
X190501569Y-149274322D01*
X190660950Y-149084042D01*
X190785992Y-148869628D01*
X190787223Y-148866344D01*
X190804592Y-148905356D01*
X190941309Y-149106529D01*
X191111490Y-149280311D01*
X191309755Y-149421212D01*
X191529840Y-149524775D01*
X191764783Y-149587728D01*
X192007164Y-149608082D01*
X192062111Y-149602888D01*
X192030588Y-149645567D01*
X192026611Y-149656894D01*
X192017512Y-149670057D01*
X192008824Y-149707544D01*
X191955964Y-149858068D01*
X191952296Y-149951419D01*
X191951001Y-149957004D01*
X191951001Y-149984361D01*
X191947121Y-150083118D01*
X191951001Y-150097751D01*
X191951000Y-153889754D01*
X191751827Y-154088928D01*
X191697841Y-154131487D01*
X191640506Y-154214445D01*
X191580588Y-154295567D01*
X191576611Y-154306894D01*
X191567512Y-154320057D01*
X191558824Y-154357544D01*
X191505964Y-154508068D01*
X191502296Y-154601419D01*
X191501001Y-154607004D01*
X191501001Y-154634361D01*
X191497698Y-154718441D01*
X191390241Y-154790241D01*
X191279953Y-154955300D01*
X191250000Y-155105882D01*
X191220047Y-154955300D01*
X191109759Y-154790241D01*
X190944700Y-154679953D01*
X190759751Y-154643164D01*
X189740249Y-154643164D01*
X189555300Y-154679953D01*
X189390241Y-154790241D01*
X189279953Y-154955300D01*
X189243164Y-155140249D01*
X189243164Y-158659751D01*
X189279953Y-158844700D01*
X189373445Y-158984622D01*
X189373475Y-158984863D01*
X189468924Y-159211928D01*
X189621918Y-159404959D01*
X189821186Y-159549735D01*
X190052047Y-159635591D01*
X190297492Y-159656202D01*
X190539438Y-159610048D01*
X190760060Y-159500531D01*
X190943103Y-159335718D01*
X191075082Y-159127751D01*
X191111486Y-159007175D01*
X191220047Y-158844700D01*
X191250000Y-158694118D01*
X191279953Y-158844700D01*
X191390241Y-159009759D01*
X191555300Y-159120047D01*
X191740249Y-159156836D01*
X192759751Y-159156836D01*
X192944700Y-159120047D01*
X193109759Y-159009759D01*
X193220047Y-158844700D01*
X193256836Y-158659751D01*
X193256836Y-155740249D01*
X195143164Y-155740249D01*
X195143164Y-157759751D01*
X195179953Y-157944700D01*
X195290241Y-158109759D01*
X195455300Y-158220047D01*
X195640249Y-158256836D01*
X197359751Y-158256836D01*
X197544700Y-158220047D01*
X197709759Y-158109759D01*
X197820047Y-157944700D01*
X197851586Y-157786146D01*
X197885763Y-157834956D01*
X198065045Y-158014238D01*
X198272734Y-158159664D01*
X198502521Y-158266815D01*
X198849000Y-158359653D01*
X198849000Y-156901000D01*
X199151000Y-156901000D01*
X199151000Y-158359654D01*
X199497480Y-158266815D01*
X199727267Y-158159664D01*
X199934956Y-158014238D01*
X200114238Y-157834956D01*
X200259664Y-157627266D01*
X200366815Y-157397479D01*
X200432436Y-157152576D01*
X200454447Y-156901000D01*
X199151000Y-156901000D01*
X198849000Y-156901000D01*
X198849000Y-156599000D01*
X199151000Y-156599000D01*
X200454447Y-156599000D01*
X200432436Y-156347423D01*
X200366815Y-156102520D01*
X200259664Y-155872733D01*
X200114238Y-155665044D01*
X199934955Y-155485762D01*
X199727266Y-155340336D01*
X199497479Y-155233185D01*
X199151000Y-155140347D01*
X199151000Y-156599000D01*
X198849000Y-156599000D01*
X198849000Y-155140346D01*
X198502520Y-155233185D01*
X198272733Y-155340336D01*
X198065044Y-155485762D01*
X197885762Y-155665045D01*
X197851586Y-155713854D01*
X197820047Y-155555300D01*
X197709759Y-155390241D01*
X197544700Y-155279953D01*
X197359751Y-155243164D01*
X195640249Y-155243164D01*
X195455300Y-155279953D01*
X195290241Y-155390241D01*
X195179953Y-155555300D01*
X195143164Y-155740249D01*
X193256836Y-155740249D01*
X193256836Y-155140249D01*
X193220047Y-154955300D01*
X193133490Y-154825756D01*
X193198174Y-154761072D01*
X193252160Y-154718513D01*
X193309503Y-154635544D01*
X193369411Y-154554436D01*
X193373389Y-154543109D01*
X193382490Y-154529941D01*
X193391179Y-154492448D01*
X193444036Y-154341934D01*
X193447705Y-154248582D01*
X193449000Y-154242994D01*
X193449000Y-154215614D01*
X193452879Y-154116883D01*
X193449000Y-154102252D01*
X193449000Y-150310246D01*
X195798174Y-147961072D01*
X195799753Y-147959827D01*
X195708152Y-148240910D01*
X195656791Y-148533688D01*
X195647195Y-148830782D01*
X195679556Y-149126264D01*
X195753227Y-149414238D01*
X195866740Y-149688959D01*
X196017829Y-149944945D01*
X196203478Y-150177089D01*
X196419985Y-150380759D01*
X196663030Y-150551891D01*
X196927763Y-150687070D01*
X197208901Y-150783599D01*
X197500836Y-150839553D01*
X197797743Y-150853814D01*
X198093696Y-150826099D01*
X198382792Y-150756959D01*
X198659263Y-150647777D01*
X198917590Y-150500728D01*
X199152622Y-150318747D01*
X199359667Y-150105465D01*
X199534595Y-149865138D01*
X199673916Y-149602562D01*
X199774849Y-149322974D01*
X199835700Y-149030423D01*
X199849449Y-148604757D01*
X199807604Y-148308888D01*
X199724923Y-148023370D01*
X199602837Y-147752350D01*
X199443783Y-147501235D01*
X199250933Y-147275037D01*
X199028135Y-147078269D01*
X198779835Y-146914856D01*
X198510986Y-146788059D01*
X198226955Y-146700408D01*
X197933407Y-146653652D01*
X197636199Y-146648723D01*
X197341262Y-146685721D01*
X197054480Y-146763907D01*
X196781576Y-146881720D01*
X196527995Y-147036811D01*
X196298795Y-147226085D01*
X196098552Y-147445764D01*
X196044708Y-147524845D01*
X196047705Y-147448582D01*
X196049000Y-147442994D01*
X196049000Y-147415614D01*
X196052879Y-147316883D01*
X196049000Y-147302252D01*
X196049000Y-142049000D01*
X198889754Y-142049000D01*
X200538931Y-143698178D01*
X200581487Y-143752160D01*
X200664451Y-143809499D01*
X200745564Y-143869411D01*
X200756891Y-143873389D01*
X200770059Y-143882490D01*
X200807552Y-143891179D01*
X200958066Y-143944036D01*
X201051418Y-143947705D01*
X201057006Y-143949000D01*
X201084386Y-143949000D01*
X201183117Y-143952879D01*
X201197748Y-143949000D01*
X208529417Y-143949000D01*
X208618924Y-144161928D01*
X208771918Y-144354959D01*
X208971186Y-144499735D01*
X209202047Y-144585591D01*
X209447492Y-144606202D01*
X209689438Y-144560048D01*
X209910060Y-144450531D01*
X210093103Y-144285718D01*
X210225082Y-144077752D01*
X210296426Y-143841450D01*
X210299192Y-143577355D01*
X210232812Y-143339610D01*
X210105218Y-143128927D01*
X209925666Y-142960316D01*
X209707386Y-142846202D01*
X209577932Y-142818685D01*
X209461071Y-142701824D01*
X209418512Y-142647840D01*
X209335540Y-142590495D01*
X209254433Y-142530588D01*
X209243109Y-142526611D01*
X209229943Y-142517511D01*
X209192448Y-142508821D01*
X209041932Y-142455964D01*
X208948582Y-142452295D01*
X208942994Y-142451000D01*
X208915614Y-142451000D01*
X208816883Y-142447121D01*
X208802252Y-142451000D01*
X202281189Y-142451000D01*
X202287060Y-142432983D01*
X202289260Y-142180948D01*
X202218698Y-141950867D01*
X202083824Y-141752035D01*
X201896449Y-141601650D01*
X201859556Y-141587006D01*
X200475668Y-140020341D01*
X200418513Y-139947840D01*
X200354631Y-139903689D01*
X200295145Y-139853783D01*
X200262440Y-139839972D01*
X200229942Y-139817511D01*
X200184086Y-139806882D01*
X200087663Y-139766163D01*
X199863591Y-139743422D01*
X199825685Y-139751000D01*
X195249000Y-139751000D01*
X195249000Y-133085828D01*
X195255119Y-133059429D01*
X195249000Y-132973007D01*
X195249000Y-125792948D01*
X202992012Y-125792948D01*
X203025658Y-126030842D01*
X203105645Y-126201209D01*
X203029805Y-126355680D01*
X202992012Y-126592948D01*
X203025658Y-126830842D01*
X203127766Y-127048325D01*
X203289309Y-127226170D01*
X203482925Y-127340901D01*
X203391239Y-127546831D01*
X203355257Y-127790498D01*
X203386128Y-128034864D01*
X203481577Y-128261927D01*
X203513653Y-128302398D01*
X203513654Y-135479647D01*
X203478769Y-135521816D01*
X203378586Y-135746831D01*
X203342604Y-135990498D01*
X203373475Y-136234864D01*
X203468924Y-136461928D01*
X203621918Y-136654959D01*
X203821186Y-136799735D01*
X204052047Y-136885591D01*
X204297492Y-136906202D01*
X204539438Y-136860048D01*
X204760060Y-136750531D01*
X204943103Y-136585718D01*
X205075082Y-136377752D01*
X205146426Y-136141450D01*
X205149192Y-135877355D01*
X205082812Y-135639610D01*
X205011653Y-135522112D01*
X205011653Y-132411000D01*
X219555274Y-132411000D01*
X219595028Y-132636461D01*
X219681745Y-132874713D01*
X219808515Y-133094287D01*
X219971489Y-133288511D01*
X220165713Y-133451485D01*
X220385287Y-133578255D01*
X220623539Y-133664972D01*
X220849000Y-133704726D01*
X220849000Y-132411000D01*
X219555274Y-132411000D01*
X205011653Y-132411000D01*
X205011653Y-128839705D01*
X209597794Y-128839705D01*
X209631948Y-129119884D01*
X209707138Y-129391937D01*
X209821716Y-129649888D01*
X209973162Y-129888069D01*
X210158151Y-130101250D01*
X210372617Y-130284745D01*
X210611850Y-130434525D01*
X210870595Y-130547299D01*
X211143166Y-130620590D01*
X211423576Y-130652786D01*
X211705665Y-130643181D01*
X211983236Y-130591988D01*
X212250192Y-130500327D01*
X212500666Y-130370217D01*
X212729158Y-130204512D01*
X212930647Y-130006854D01*
X213100708Y-129781586D01*
X213235604Y-129533655D01*
X213332371Y-129268509D01*
X213389145Y-128990694D01*
X213393231Y-128839705D01*
X214097794Y-128839705D01*
X214131948Y-129119884D01*
X214207138Y-129391937D01*
X214321716Y-129649888D01*
X214473162Y-129888069D01*
X214658151Y-130101250D01*
X214872617Y-130284745D01*
X215111850Y-130434525D01*
X215370595Y-130547299D01*
X215643166Y-130620590D01*
X215923576Y-130652786D01*
X216205665Y-130643181D01*
X216483236Y-130591988D01*
X216750192Y-130500327D01*
X217000666Y-130370217D01*
X217229158Y-130204512D01*
X217430647Y-130006854D01*
X217600708Y-129781586D01*
X217735604Y-129533655D01*
X217832371Y-129268509D01*
X217889145Y-128990694D01*
X217899398Y-128611822D01*
X217857730Y-128331342D01*
X217775443Y-128061351D01*
X217654153Y-127806488D01*
X217496523Y-127572353D01*
X217306017Y-127364088D01*
X217086821Y-127186269D01*
X216843749Y-127042803D01*
X216649000Y-126963922D01*
X216649000Y-125666174D01*
X216722493Y-125561797D01*
X216797060Y-125332983D01*
X216799260Y-125080948D01*
X216728698Y-124850867D01*
X216593824Y-124652035D01*
X216406450Y-124501650D01*
X216183139Y-124413010D01*
X215943636Y-124393949D01*
X215709116Y-124446157D01*
X215500315Y-124565013D01*
X215335692Y-124740012D01*
X215229805Y-124955680D01*
X215192012Y-125192948D01*
X215225658Y-125430842D01*
X215327766Y-125648325D01*
X215351001Y-125673904D01*
X215351000Y-126965187D01*
X215204247Y-127019910D01*
X214957265Y-127156533D01*
X214733189Y-127328162D01*
X214536942Y-127531026D01*
X214372837Y-127760670D01*
X214244478Y-128012046D01*
X214154684Y-128279635D01*
X214105429Y-128557557D01*
X214097794Y-128839705D01*
X213393231Y-128839705D01*
X213399398Y-128611822D01*
X213357730Y-128331342D01*
X213275443Y-128061351D01*
X213154153Y-127806488D01*
X212996523Y-127572353D01*
X212806017Y-127364088D01*
X212586821Y-127186269D01*
X212343749Y-127042803D01*
X212082141Y-126936841D01*
X211807745Y-126870711D01*
X211526588Y-126845866D01*
X211244848Y-126862851D01*
X210968712Y-126921294D01*
X210704247Y-127019910D01*
X210457265Y-127156533D01*
X210233189Y-127328162D01*
X210036942Y-127531026D01*
X209872837Y-127760670D01*
X209744478Y-128012046D01*
X209654684Y-128279635D01*
X209605429Y-128557557D01*
X209597794Y-128839705D01*
X205011653Y-128839705D01*
X205011653Y-128297639D01*
X205087735Y-128177752D01*
X205159079Y-127941450D01*
X205161845Y-127677355D01*
X205095465Y-127439610D01*
X204980028Y-127249000D01*
X209027836Y-127249000D01*
X209196004Y-127348652D01*
X209429576Y-127404944D01*
X209669375Y-127390067D01*
X209894200Y-127305338D01*
X210084171Y-127158246D01*
X210222493Y-126961797D01*
X210297060Y-126732983D01*
X210299260Y-126480948D01*
X210228698Y-126250867D01*
X210160331Y-126150081D01*
X210222493Y-126061797D01*
X210297060Y-125832983D01*
X210299260Y-125580948D01*
X210228698Y-125350867D01*
X210093824Y-125152035D01*
X209906450Y-125001650D01*
X209683139Y-124913010D01*
X209443636Y-124893949D01*
X209209116Y-124946157D01*
X209024932Y-125051000D01*
X206769251Y-125051000D01*
X206730994Y-125042763D01*
X206661404Y-125051000D01*
X206646126Y-125051000D01*
X206608524Y-125057259D01*
X206512034Y-125068680D01*
X206501116Y-125075136D01*
X206486873Y-125077507D01*
X206296727Y-125180105D01*
X206231395Y-125250781D01*
X206231176Y-125251000D01*
X204392534Y-125251000D01*
X204206450Y-125101650D01*
X203983139Y-125013010D01*
X203743636Y-124993949D01*
X203509116Y-125046157D01*
X203300315Y-125165013D01*
X203135692Y-125340012D01*
X203029805Y-125555680D01*
X202992012Y-125792948D01*
X195249000Y-125792948D01*
X195249000Y-121085828D01*
X195255119Y-121059429D01*
X195249000Y-120973007D01*
X195249000Y-116335828D01*
X195255119Y-116309429D01*
X195249000Y-116223007D01*
X195249000Y-111085828D01*
X195255119Y-111059429D01*
X195249000Y-110973007D01*
X195249000Y-106085828D01*
X195255119Y-106059429D01*
X195249000Y-105973007D01*
X195249000Y-105773792D01*
X202742921Y-105773792D01*
X202761034Y-105872970D01*
X202776031Y-105972721D01*
X202781229Y-105983547D01*
X202784104Y-105999287D01*
X202804466Y-106031938D01*
X202873525Y-106175750D01*
X202936940Y-106244354D01*
X202939975Y-106249220D01*
X202959341Y-106268587D01*
X203026408Y-106341140D01*
X203039497Y-106348743D01*
X203751001Y-107060248D01*
X203751000Y-110744944D01*
X203728769Y-110771817D01*
X203628586Y-110996831D01*
X203592604Y-111240498D01*
X203623475Y-111484864D01*
X203718924Y-111711928D01*
X203751001Y-111752399D01*
X203751000Y-115205530D01*
X203742921Y-115273792D01*
X203761034Y-115372970D01*
X203776031Y-115472721D01*
X203781229Y-115483547D01*
X203784104Y-115499287D01*
X203804466Y-115531938D01*
X203873525Y-115675750D01*
X203936940Y-115744354D01*
X203939975Y-115749220D01*
X203959341Y-115768587D01*
X204026408Y-115841140D01*
X204039497Y-115848743D01*
X205001001Y-116810248D01*
X205001000Y-122994944D01*
X204978769Y-123021817D01*
X204878586Y-123246831D01*
X204842604Y-123490498D01*
X204873475Y-123734864D01*
X204968924Y-123961928D01*
X205121918Y-124154959D01*
X205321186Y-124299735D01*
X205552047Y-124385591D01*
X205797492Y-124406202D01*
X206039438Y-124360048D01*
X206260060Y-124250531D01*
X206443103Y-124085718D01*
X206575082Y-123877752D01*
X206646426Y-123641450D01*
X206649192Y-123377355D01*
X206582812Y-123139610D01*
X206499000Y-123001220D01*
X206499000Y-119680782D01*
X211397195Y-119680782D01*
X211429556Y-119976264D01*
X211503227Y-120264238D01*
X211616740Y-120538959D01*
X211767829Y-120794945D01*
X211953478Y-121027089D01*
X212169985Y-121230759D01*
X212413030Y-121401891D01*
X212677763Y-121537070D01*
X212958901Y-121633599D01*
X213250836Y-121689553D01*
X213547743Y-121703814D01*
X213843696Y-121676099D01*
X214132792Y-121606959D01*
X214409263Y-121497777D01*
X214667590Y-121350728D01*
X214902622Y-121168747D01*
X215109667Y-120955465D01*
X215284595Y-120715138D01*
X215423916Y-120452562D01*
X215524849Y-120172974D01*
X215585700Y-119880423D01*
X215599449Y-119454757D01*
X215557604Y-119158888D01*
X215474923Y-118873370D01*
X215352837Y-118602350D01*
X215193783Y-118351235D01*
X215000933Y-118125037D01*
X214778135Y-117928269D01*
X214529835Y-117764856D01*
X214260986Y-117638059D01*
X213976955Y-117550408D01*
X213683407Y-117503652D01*
X213386199Y-117498723D01*
X213091262Y-117535721D01*
X212804480Y-117613907D01*
X212531576Y-117731720D01*
X212277995Y-117886811D01*
X212048795Y-118076085D01*
X211848552Y-118295764D01*
X211681259Y-118541467D01*
X211550254Y-118808290D01*
X211458152Y-119090910D01*
X211406791Y-119383688D01*
X211397195Y-119680782D01*
X206499000Y-119680782D01*
X206499000Y-116544469D01*
X206507079Y-116476207D01*
X206488966Y-116377029D01*
X206473969Y-116277278D01*
X206468771Y-116266452D01*
X206465896Y-116250712D01*
X206445534Y-116218061D01*
X206376475Y-116074249D01*
X206313058Y-116005644D01*
X206310022Y-116000776D01*
X206290652Y-115981405D01*
X206223593Y-115908860D01*
X206210505Y-115901258D01*
X205249000Y-114939754D01*
X205249000Y-111747639D01*
X205325082Y-111627752D01*
X205396426Y-111391450D01*
X205399192Y-111127355D01*
X205332812Y-110889610D01*
X205249000Y-110751220D01*
X205249000Y-108792948D01*
X205992012Y-108792948D01*
X206025658Y-109030842D01*
X206127766Y-109248325D01*
X206289309Y-109426170D01*
X206328135Y-109449177D01*
X206300315Y-109465013D01*
X206135692Y-109640012D01*
X206029805Y-109855680D01*
X205992012Y-110092948D01*
X206025658Y-110330842D01*
X206127766Y-110548325D01*
X206289309Y-110726170D01*
X206496004Y-110848652D01*
X206729576Y-110904944D01*
X206969375Y-110890067D01*
X207194200Y-110805338D01*
X207331536Y-110699000D01*
X208051887Y-110699000D01*
X208099619Y-110746733D01*
X208125658Y-110930842D01*
X208227766Y-111148325D01*
X208301001Y-111228950D01*
X208301000Y-111970587D01*
X208235692Y-112040012D01*
X208129805Y-112255680D01*
X208092012Y-112492948D01*
X208125658Y-112730842D01*
X208227766Y-112948325D01*
X208389309Y-113126170D01*
X208596004Y-113248652D01*
X208829576Y-113304944D01*
X209069375Y-113290067D01*
X209294200Y-113205338D01*
X209484171Y-113058246D01*
X209622493Y-112861797D01*
X209697060Y-112632983D01*
X209699260Y-112380948D01*
X209628698Y-112150867D01*
X209499000Y-111959665D01*
X209499000Y-111237185D01*
X209622493Y-111061797D01*
X209697060Y-110832983D01*
X209699260Y-110580948D01*
X209628698Y-110350867D01*
X209493824Y-110152035D01*
X209306450Y-110001650D01*
X209083139Y-109913010D01*
X208949488Y-109902374D01*
X208742052Y-109694938D01*
X208690970Y-109634060D01*
X208622140Y-109594322D01*
X208557053Y-109548748D01*
X208531208Y-109541823D01*
X208508030Y-109528441D01*
X208429771Y-109514642D01*
X208353011Y-109494074D01*
X208273854Y-109501000D01*
X207330237Y-109501000D01*
X207266190Y-109449596D01*
X207331536Y-109399000D01*
X208364630Y-109399000D01*
X208389309Y-109426170D01*
X208596004Y-109548652D01*
X208829576Y-109604944D01*
X209069375Y-109590067D01*
X209294200Y-109505338D01*
X209484171Y-109358246D01*
X209622493Y-109161797D01*
X209697060Y-108932983D01*
X209699260Y-108680948D01*
X209628698Y-108450867D01*
X209493824Y-108252035D01*
X209306450Y-108101650D01*
X209083139Y-108013010D01*
X208843636Y-107993949D01*
X208609116Y-108046157D01*
X208400315Y-108165013D01*
X208366461Y-108201000D01*
X207330237Y-108201000D01*
X207206450Y-108101650D01*
X206983139Y-108013010D01*
X206743636Y-107993949D01*
X206509116Y-108046157D01*
X206300315Y-108165013D01*
X206135692Y-108340012D01*
X206029805Y-108555680D01*
X205992012Y-108792948D01*
X205249000Y-108792948D01*
X205249000Y-106794477D01*
X205257080Y-106726207D01*
X205238964Y-106627016D01*
X205223969Y-106527278D01*
X205218771Y-106516452D01*
X205215896Y-106500712D01*
X205195534Y-106468061D01*
X205126475Y-106324249D01*
X205063058Y-106255644D01*
X205060022Y-106250776D01*
X205040652Y-106231405D01*
X204973593Y-106158860D01*
X204960505Y-106151258D01*
X204249000Y-105439754D01*
X204249000Y-104810246D01*
X204427926Y-104631320D01*
X204539438Y-104610048D01*
X204760060Y-104500531D01*
X204943103Y-104335718D01*
X205075082Y-104127752D01*
X205146426Y-103891450D01*
X205149192Y-103627355D01*
X205082812Y-103389610D01*
X204955218Y-103178927D01*
X204775666Y-103010316D01*
X204557386Y-102896202D01*
X204316459Y-102844992D01*
X204070637Y-102860457D01*
X203838028Y-102941461D01*
X203635772Y-103082032D01*
X203478769Y-103271816D01*
X203378586Y-103496831D01*
X203367266Y-103573488D01*
X203001827Y-103938928D01*
X202947841Y-103981487D01*
X202890506Y-104064445D01*
X202830588Y-104145567D01*
X202826611Y-104156894D01*
X202817512Y-104170057D01*
X202808824Y-104207544D01*
X202755964Y-104358068D01*
X202752296Y-104451419D01*
X202751001Y-104457004D01*
X202751001Y-104484361D01*
X202747121Y-104583118D01*
X202751001Y-104597751D01*
X202751000Y-105705530D01*
X202742921Y-105773792D01*
X195249000Y-105773792D01*
X195249000Y-101085828D01*
X195255119Y-101059429D01*
X195249000Y-100973007D01*
X195249000Y-100651000D01*
X212543287Y-100651000D01*
X212543287Y-101363034D01*
X212620362Y-101650680D01*
X212759030Y-101815939D01*
X212941970Y-101921559D01*
X213141339Y-101956713D01*
X213189227Y-101956713D01*
X213175466Y-101965446D01*
X212998211Y-102128441D01*
X212852620Y-102320249D01*
X212743296Y-102534808D01*
X212673696Y-102765335D01*
X212646019Y-103004545D01*
X212661139Y-103244874D01*
X212718579Y-103478728D01*
X212816523Y-103698714D01*
X212951875Y-103897880D01*
X213120358Y-104069929D01*
X213316645Y-104209422D01*
X213534531Y-104311952D01*
X213535869Y-104312311D01*
X213378784Y-104376416D01*
X213175466Y-104505446D01*
X212998211Y-104668441D01*
X212852620Y-104860249D01*
X212743296Y-105074808D01*
X212673696Y-105305335D01*
X212646019Y-105544545D01*
X212661139Y-105784874D01*
X212718579Y-106018728D01*
X212816523Y-106238714D01*
X212951875Y-106437880D01*
X213120358Y-106609929D01*
X213316645Y-106749422D01*
X213534531Y-106851952D01*
X213535869Y-106852311D01*
X213378784Y-106916416D01*
X213175466Y-107045446D01*
X212998211Y-107208441D01*
X212852620Y-107400249D01*
X212743296Y-107614808D01*
X212673696Y-107845335D01*
X212646019Y-108084545D01*
X212661139Y-108324874D01*
X212718579Y-108558728D01*
X212816523Y-108778714D01*
X212951875Y-108977880D01*
X213120358Y-109149929D01*
X213316645Y-109289422D01*
X213534531Y-109391952D01*
X213767131Y-109454276D01*
X214007091Y-109474427D01*
X214246828Y-109451765D01*
X214478762Y-109387008D01*
X214695564Y-109282202D01*
X214890379Y-109140660D01*
X215057051Y-108966857D01*
X215190310Y-108766285D01*
X215217873Y-108702592D01*
X215253322Y-108705694D01*
X215327519Y-108685813D01*
X215403164Y-108672475D01*
X215425568Y-108659541D01*
X215450552Y-108652846D01*
X215513470Y-108608790D01*
X215579996Y-108570381D01*
X215629364Y-108511546D01*
X217391554Y-106749358D01*
X217450381Y-106699996D01*
X217488790Y-106633470D01*
X217532845Y-106570553D01*
X217539539Y-106545571D01*
X217552475Y-106523165D01*
X217565816Y-106447507D01*
X217585693Y-106373323D01*
X217579000Y-106296829D01*
X217579000Y-96692755D01*
X217629577Y-96704944D01*
X217869375Y-96690067D01*
X218094200Y-96605338D01*
X218284171Y-96458246D01*
X218422493Y-96261797D01*
X218497060Y-96032983D01*
X218499260Y-95780948D01*
X218428698Y-95550867D01*
X218293824Y-95352035D01*
X218106450Y-95201650D01*
X217883139Y-95113010D01*
X217643636Y-95093949D01*
X217579000Y-95108338D01*
X217579000Y-91439829D01*
X218139830Y-90879000D01*
X219868749Y-90879000D01*
X219852620Y-90900249D01*
X219743296Y-91114808D01*
X219673696Y-91345335D01*
X219646019Y-91584545D01*
X219661139Y-91824874D01*
X219718579Y-92058728D01*
X219816523Y-92278714D01*
X219951875Y-92477880D01*
X220120358Y-92649929D01*
X220316645Y-92789422D01*
X220409279Y-92833012D01*
X220385287Y-92841745D01*
X220165713Y-92968515D01*
X219971489Y-93131489D01*
X219808515Y-93325713D01*
X219681745Y-93545287D01*
X219595028Y-93783539D01*
X219555274Y-94009000D01*
X221151000Y-94009000D01*
X221151000Y-94311000D01*
X219555274Y-94311000D01*
X219595028Y-94536461D01*
X219681745Y-94774713D01*
X219808515Y-94994287D01*
X219971489Y-95188511D01*
X220165713Y-95351485D01*
X220385287Y-95478255D01*
X220405372Y-95485565D01*
X220378784Y-95496416D01*
X220175466Y-95625446D01*
X219998211Y-95788441D01*
X219852620Y-95980249D01*
X219743296Y-96194808D01*
X219673696Y-96425335D01*
X219646019Y-96664545D01*
X219661139Y-96904874D01*
X219718579Y-97138728D01*
X219816523Y-97358714D01*
X219951875Y-97557880D01*
X220120358Y-97729929D01*
X220316645Y-97869422D01*
X220534531Y-97971952D01*
X220535869Y-97972311D01*
X220378784Y-98036416D01*
X220175466Y-98165446D01*
X219998211Y-98328441D01*
X219852620Y-98520249D01*
X219743296Y-98734808D01*
X219673696Y-98965335D01*
X219646019Y-99204545D01*
X219661139Y-99444874D01*
X219718579Y-99678728D01*
X219816523Y-99898714D01*
X219951875Y-100097880D01*
X220120358Y-100269929D01*
X220316645Y-100409422D01*
X220534531Y-100511952D01*
X220535869Y-100512311D01*
X220378784Y-100576416D01*
X220175466Y-100705446D01*
X219998211Y-100868441D01*
X219852620Y-101060249D01*
X219743296Y-101274808D01*
X219673696Y-101505335D01*
X219646019Y-101744545D01*
X219661139Y-101984874D01*
X219718579Y-102218728D01*
X219816523Y-102438714D01*
X219951875Y-102637880D01*
X220120358Y-102809929D01*
X220316645Y-102949422D01*
X220534531Y-103051952D01*
X220535869Y-103052311D01*
X220378784Y-103116416D01*
X220175466Y-103245446D01*
X219998211Y-103408441D01*
X219852620Y-103600249D01*
X219743296Y-103814808D01*
X219673696Y-104045335D01*
X219646019Y-104284545D01*
X219661139Y-104524874D01*
X219718579Y-104758728D01*
X219816523Y-104978714D01*
X219951875Y-105177880D01*
X220120358Y-105349929D01*
X220316645Y-105489422D01*
X220534531Y-105591952D01*
X220535869Y-105592311D01*
X220378784Y-105656416D01*
X220175466Y-105785446D01*
X219998211Y-105948441D01*
X219852620Y-106140249D01*
X219743296Y-106354808D01*
X219673696Y-106585335D01*
X219646019Y-106824545D01*
X219661139Y-107064874D01*
X219718579Y-107298728D01*
X219816523Y-107518714D01*
X219951875Y-107717880D01*
X220120358Y-107889929D01*
X220316645Y-108029422D01*
X220534531Y-108131952D01*
X220535869Y-108132311D01*
X220378784Y-108196416D01*
X220175466Y-108325446D01*
X219998211Y-108488441D01*
X219852620Y-108680249D01*
X219743296Y-108894808D01*
X219673696Y-109125335D01*
X219646019Y-109364545D01*
X219661139Y-109604874D01*
X219718579Y-109838728D01*
X219816523Y-110058714D01*
X219951875Y-110257880D01*
X220120358Y-110429929D01*
X220316645Y-110569422D01*
X220534531Y-110671952D01*
X220535869Y-110672311D01*
X220378784Y-110736416D01*
X220175466Y-110865446D01*
X219998211Y-111028441D01*
X219852620Y-111220249D01*
X219743296Y-111434808D01*
X219673696Y-111665335D01*
X219646019Y-111904545D01*
X219661139Y-112144874D01*
X219718579Y-112378728D01*
X219816523Y-112598714D01*
X219951875Y-112797880D01*
X220120358Y-112969929D01*
X220316645Y-113109422D01*
X220409279Y-113153012D01*
X220385287Y-113161745D01*
X220165713Y-113288515D01*
X219971489Y-113451489D01*
X219808515Y-113645713D01*
X219681745Y-113865287D01*
X219595028Y-114103539D01*
X219555274Y-114329000D01*
X221151000Y-114329000D01*
X221151000Y-114631000D01*
X219555274Y-114631000D01*
X219595028Y-114856461D01*
X219681745Y-115094713D01*
X219808515Y-115314287D01*
X219971489Y-115508511D01*
X220165713Y-115671485D01*
X220385287Y-115798255D01*
X220405372Y-115805565D01*
X220378784Y-115816416D01*
X220175466Y-115945446D01*
X219998211Y-116108441D01*
X219852620Y-116300249D01*
X219743296Y-116514808D01*
X219673696Y-116745335D01*
X219646019Y-116984545D01*
X219661139Y-117224874D01*
X219718579Y-117458728D01*
X219816523Y-117678714D01*
X219951875Y-117877880D01*
X220120358Y-118049929D01*
X220316645Y-118189422D01*
X220534531Y-118291952D01*
X220535869Y-118292311D01*
X220378784Y-118356416D01*
X220175466Y-118485446D01*
X219998211Y-118648441D01*
X219852620Y-118840249D01*
X219743296Y-119054808D01*
X219673696Y-119285335D01*
X219646019Y-119524545D01*
X219661139Y-119764874D01*
X219718579Y-119998728D01*
X219816523Y-120218714D01*
X219951875Y-120417880D01*
X220120358Y-120589929D01*
X220316645Y-120729422D01*
X220534531Y-120831952D01*
X220535869Y-120832311D01*
X220378784Y-120896416D01*
X220175466Y-121025446D01*
X219998211Y-121188441D01*
X219852620Y-121380249D01*
X219743296Y-121594808D01*
X219673696Y-121825335D01*
X219646019Y-122064545D01*
X219661139Y-122304874D01*
X219718579Y-122538728D01*
X219816523Y-122758714D01*
X219951875Y-122957880D01*
X220120358Y-123129929D01*
X220316645Y-123269422D01*
X220534531Y-123371952D01*
X220535869Y-123372311D01*
X220378784Y-123436416D01*
X220175466Y-123565446D01*
X219998211Y-123728441D01*
X219852620Y-123920249D01*
X219743296Y-124134808D01*
X219673696Y-124365335D01*
X219646019Y-124604545D01*
X219661139Y-124844874D01*
X219718579Y-125078728D01*
X219816523Y-125298714D01*
X219951875Y-125497880D01*
X220120358Y-125669929D01*
X220316645Y-125809422D01*
X220534531Y-125911952D01*
X220535869Y-125912311D01*
X220378784Y-125976416D01*
X220175466Y-126105446D01*
X219998211Y-126268441D01*
X219852620Y-126460249D01*
X219743296Y-126674808D01*
X219673696Y-126905335D01*
X219646019Y-127144545D01*
X219661139Y-127384874D01*
X219718579Y-127618728D01*
X219816523Y-127838714D01*
X219951875Y-128037880D01*
X220120358Y-128209929D01*
X220316645Y-128349422D01*
X220534531Y-128451952D01*
X220535869Y-128452311D01*
X220378784Y-128516416D01*
X220175466Y-128645446D01*
X219998211Y-128808441D01*
X219852620Y-129000249D01*
X219743296Y-129214808D01*
X219673696Y-129445335D01*
X219646019Y-129684545D01*
X219661139Y-129924874D01*
X219718579Y-130158728D01*
X219816523Y-130378714D01*
X219951875Y-130577880D01*
X220120358Y-130749929D01*
X220316645Y-130889422D01*
X220409279Y-130933012D01*
X220385287Y-130941745D01*
X220165713Y-131068515D01*
X219971489Y-131231489D01*
X219808515Y-131425713D01*
X219681745Y-131645287D01*
X219595028Y-131883539D01*
X219555274Y-132109000D01*
X221151000Y-132109000D01*
X221151000Y-133704726D01*
X221376461Y-133664972D01*
X221614713Y-133578255D01*
X221834287Y-133451485D01*
X222028511Y-133288511D01*
X222191485Y-133094287D01*
X222318255Y-132874713D01*
X222326656Y-132851632D01*
X222356523Y-132918714D01*
X222491875Y-133117880D01*
X222660358Y-133289929D01*
X222856645Y-133429422D01*
X223074531Y-133531952D01*
X223307131Y-133594276D01*
X223547091Y-133614427D01*
X223786828Y-133591765D01*
X224018762Y-133527008D01*
X224235564Y-133422202D01*
X224430379Y-133280660D01*
X224597051Y-133106857D01*
X224730310Y-132906285D01*
X224825945Y-132685286D01*
X224881232Y-132449569D01*
X224889315Y-132140885D01*
X224846441Y-131902599D01*
X224762502Y-131676896D01*
X224639923Y-131469625D01*
X224482576Y-131287337D01*
X224295435Y-131135793D01*
X224084416Y-131019785D01*
X224001414Y-130991852D01*
X224018762Y-130987008D01*
X224235564Y-130882202D01*
X224430379Y-130740660D01*
X224597051Y-130566857D01*
X224730310Y-130366285D01*
X224825945Y-130145286D01*
X224881232Y-129909569D01*
X224889315Y-129600885D01*
X224846441Y-129362599D01*
X224762502Y-129136896D01*
X224639923Y-128929625D01*
X224482576Y-128747337D01*
X224295435Y-128595793D01*
X224084416Y-128479785D01*
X224001414Y-128451852D01*
X224018762Y-128447008D01*
X224235564Y-128342202D01*
X224430379Y-128200660D01*
X224597051Y-128026857D01*
X224730310Y-127826285D01*
X224825945Y-127605286D01*
X224881232Y-127369569D01*
X224889315Y-127060885D01*
X224846441Y-126822599D01*
X224762502Y-126596896D01*
X224639923Y-126389625D01*
X224482576Y-126207337D01*
X224295435Y-126055793D01*
X224132632Y-125966292D01*
X224154713Y-125958255D01*
X224374287Y-125831485D01*
X224568511Y-125668511D01*
X224731485Y-125474287D01*
X224858255Y-125254713D01*
X224944972Y-125016461D01*
X224984726Y-124791000D01*
X223389000Y-124791000D01*
X223389000Y-124489000D01*
X224984726Y-124489000D01*
X224944972Y-124263539D01*
X224858255Y-124025287D01*
X224731485Y-123805713D01*
X224568511Y-123611489D01*
X224374287Y-123448515D01*
X224154713Y-123321745D01*
X224130570Y-123312958D01*
X224235564Y-123262202D01*
X224430379Y-123120660D01*
X224597051Y-122946857D01*
X224730310Y-122746285D01*
X224825945Y-122525286D01*
X224881232Y-122289569D01*
X224889315Y-121980885D01*
X224846441Y-121742599D01*
X224762502Y-121516896D01*
X224639923Y-121309625D01*
X224482576Y-121127337D01*
X224295435Y-120975793D01*
X224132632Y-120886292D01*
X224154713Y-120878255D01*
X224374287Y-120751485D01*
X224568511Y-120588511D01*
X224731485Y-120394287D01*
X224858255Y-120174713D01*
X224944972Y-119936461D01*
X224984726Y-119711000D01*
X223389000Y-119711000D01*
X223389000Y-119409000D01*
X224984726Y-119409000D01*
X224944972Y-119183539D01*
X224858255Y-118945287D01*
X224731485Y-118725713D01*
X224568511Y-118531489D01*
X224374287Y-118368515D01*
X224154713Y-118241745D01*
X224130570Y-118232958D01*
X224235564Y-118182202D01*
X224430379Y-118040660D01*
X224597051Y-117866857D01*
X224730310Y-117666285D01*
X224825945Y-117445286D01*
X224881232Y-117209569D01*
X224889315Y-116900885D01*
X224846441Y-116662599D01*
X224762502Y-116436896D01*
X224639923Y-116229625D01*
X224482576Y-116047337D01*
X224295435Y-115895793D01*
X224084416Y-115779785D01*
X224001414Y-115751852D01*
X224018762Y-115747008D01*
X224235564Y-115642202D01*
X224430379Y-115500660D01*
X224597051Y-115326857D01*
X224730310Y-115126285D01*
X224825945Y-114905286D01*
X224881232Y-114669569D01*
X224889315Y-114360885D01*
X224846441Y-114122599D01*
X224762502Y-113896896D01*
X224639923Y-113689625D01*
X224482576Y-113507337D01*
X224295435Y-113355793D01*
X224084416Y-113239785D01*
X224001414Y-113211852D01*
X224018762Y-113207008D01*
X224235564Y-113102202D01*
X224430379Y-112960660D01*
X224597051Y-112786857D01*
X224730310Y-112586285D01*
X224825945Y-112365286D01*
X224881232Y-112129569D01*
X224889315Y-111820885D01*
X224846441Y-111582599D01*
X224762502Y-111356896D01*
X224639923Y-111149625D01*
X224482576Y-110967337D01*
X224295435Y-110815793D01*
X224084416Y-110699785D01*
X224001414Y-110671852D01*
X224018762Y-110667008D01*
X224235564Y-110562202D01*
X224430379Y-110420660D01*
X224597051Y-110246857D01*
X224730310Y-110046285D01*
X224825945Y-109825286D01*
X224881232Y-109589569D01*
X224889315Y-109280885D01*
X224846441Y-109042599D01*
X224762502Y-108816896D01*
X224639923Y-108609625D01*
X224482576Y-108427337D01*
X224295435Y-108275793D01*
X224132632Y-108186292D01*
X224154713Y-108178255D01*
X224374287Y-108051485D01*
X224568511Y-107888511D01*
X224731485Y-107694287D01*
X224858255Y-107474713D01*
X224944972Y-107236461D01*
X224984726Y-107011000D01*
X223389000Y-107011000D01*
X223389000Y-106709000D01*
X224984726Y-106709000D01*
X224944972Y-106483539D01*
X224858255Y-106245287D01*
X224731485Y-106025713D01*
X224568511Y-105831489D01*
X224374287Y-105668515D01*
X224154713Y-105541745D01*
X224130570Y-105532958D01*
X224235564Y-105482202D01*
X224430379Y-105340660D01*
X224597051Y-105166857D01*
X224730310Y-104966285D01*
X224825945Y-104745286D01*
X224881232Y-104509569D01*
X224889315Y-104200885D01*
X224846441Y-103962599D01*
X224762502Y-103736896D01*
X224639923Y-103529625D01*
X224482576Y-103347337D01*
X224295435Y-103195793D01*
X224084416Y-103079785D01*
X224001414Y-103051852D01*
X224018762Y-103047008D01*
X224235564Y-102942202D01*
X224430379Y-102800660D01*
X224597051Y-102626857D01*
X224730310Y-102426285D01*
X224825945Y-102205286D01*
X224881232Y-101969569D01*
X224889315Y-101660885D01*
X224846441Y-101422599D01*
X224762502Y-101196896D01*
X224639923Y-100989625D01*
X224482576Y-100807337D01*
X224295435Y-100655793D01*
X224132632Y-100566292D01*
X224154713Y-100558255D01*
X224374287Y-100431485D01*
X224568511Y-100268511D01*
X224731485Y-100074287D01*
X224858255Y-99854713D01*
X224944972Y-99616461D01*
X224984726Y-99391000D01*
X223389000Y-99391000D01*
X223389000Y-99089000D01*
X224984726Y-99089000D01*
X224944972Y-98863539D01*
X224858255Y-98625287D01*
X224731485Y-98405713D01*
X224568511Y-98211489D01*
X224374287Y-98048515D01*
X224154713Y-97921745D01*
X224130570Y-97912958D01*
X224235564Y-97862202D01*
X224430379Y-97720660D01*
X224597051Y-97546857D01*
X224730310Y-97346285D01*
X224825945Y-97125286D01*
X224881232Y-96889569D01*
X224889315Y-96580885D01*
X224846441Y-96342599D01*
X224762502Y-96116896D01*
X224639923Y-95909625D01*
X224482576Y-95727337D01*
X224295435Y-95575793D01*
X224084416Y-95459785D01*
X224001414Y-95431852D01*
X224018762Y-95427008D01*
X224235564Y-95322202D01*
X224430379Y-95180660D01*
X224597051Y-95006857D01*
X224730310Y-94806285D01*
X224825945Y-94585286D01*
X224881232Y-94349569D01*
X224889315Y-94040885D01*
X224846441Y-93802599D01*
X224762502Y-93576896D01*
X224639923Y-93369625D01*
X224482576Y-93187337D01*
X224295435Y-93035793D01*
X224084416Y-92919785D01*
X224001414Y-92891852D01*
X224018762Y-92887008D01*
X224235564Y-92782202D01*
X224430379Y-92640660D01*
X224597051Y-92466857D01*
X224730310Y-92266285D01*
X224825945Y-92045286D01*
X224881232Y-91809569D01*
X224889315Y-91500885D01*
X224846441Y-91262599D01*
X224762502Y-91036896D01*
X224639923Y-90829625D01*
X224482576Y-90647337D01*
X224295435Y-90495793D01*
X224132632Y-90406292D01*
X224154713Y-90398255D01*
X224374287Y-90271485D01*
X224568511Y-90108511D01*
X224731485Y-89914287D01*
X224858255Y-89694713D01*
X224944972Y-89456461D01*
X224984726Y-89231000D01*
X223389000Y-89231000D01*
X223389000Y-88929000D01*
X224984726Y-88929000D01*
X224944972Y-88703539D01*
X224858255Y-88465287D01*
X224819985Y-88399000D01*
X225764630Y-88399000D01*
X225789309Y-88426170D01*
X225996004Y-88548652D01*
X226229576Y-88604944D01*
X226469375Y-88590067D01*
X226694200Y-88505338D01*
X226884171Y-88358246D01*
X227022493Y-88161797D01*
X227097060Y-87932983D01*
X227099260Y-87680948D01*
X227028698Y-87450867D01*
X226893824Y-87252035D01*
X226706450Y-87101650D01*
X226483139Y-87013010D01*
X226243636Y-86993949D01*
X226009116Y-87046157D01*
X225800315Y-87165013D01*
X225766461Y-87201000D01*
X224720533Y-87201000D01*
X224730310Y-87186285D01*
X224825945Y-86965286D01*
X224881232Y-86729569D01*
X224889315Y-86420885D01*
X224846441Y-86182599D01*
X224762502Y-85956896D01*
X224639923Y-85749625D01*
X224539000Y-85632704D01*
X224539000Y-84999000D01*
X227386201Y-84999000D01*
X227901001Y-85513801D01*
X227901000Y-134286200D01*
X224936201Y-137251000D01*
X220984522Y-137251000D01*
X220789209Y-137276713D01*
X220546190Y-137377376D01*
X220337505Y-137537505D01*
X220177376Y-137746190D01*
X220076713Y-137989209D01*
X220042380Y-138250000D01*
X220076713Y-138510791D01*
X220177376Y-138753810D01*
X220337505Y-138962495D01*
X220546190Y-139122624D01*
X220789209Y-139223287D01*
X220984522Y-139249000D01*
X225284531Y-139249000D01*
X225350000Y-139257619D01*
X225415469Y-139249000D01*
X225415478Y-139249000D01*
X225610791Y-139223287D01*
X225853810Y-139122624D01*
X226062495Y-138962495D01*
X226102696Y-138910103D01*
X229560108Y-135452692D01*
X229612495Y-135412495D01*
X229656647Y-135354955D01*
X229772624Y-135203811D01*
X229813688Y-135104673D01*
X229873287Y-134960791D01*
X229899000Y-134765478D01*
X229899000Y-134765470D01*
X229907619Y-134700001D01*
X229899000Y-134634531D01*
X229899000Y-85165469D01*
X229907619Y-85100000D01*
X229899000Y-85034530D01*
X229899000Y-85034522D01*
X229873287Y-84839209D01*
X229796788Y-84654525D01*
X229772624Y-84596189D01*
X229652699Y-84439900D01*
X229612495Y-84387505D01*
X229560104Y-84347304D01*
X228552696Y-83339897D01*
X228512495Y-83287505D01*
X228303810Y-83127376D01*
X228060791Y-83026713D01*
X227865478Y-83001000D01*
X227865469Y-83001000D01*
X227800000Y-82992381D01*
X227734531Y-83001000D01*
X224450052Y-83001000D01*
X224295435Y-82875793D01*
X224084416Y-82759785D01*
X223856189Y-82682978D01*
X223617967Y-82647800D01*
X223377281Y-82655364D01*
X223141738Y-82705430D01*
X222918784Y-82796416D01*
X222715466Y-82925446D01*
X222538211Y-83088441D01*
X222392620Y-83280249D01*
X222356836Y-83350479D01*
X222356836Y-83140249D01*
X222320047Y-82955300D01*
X222209759Y-82790241D01*
X222044700Y-82679953D01*
X221859751Y-82643164D01*
X220140249Y-82643164D01*
X219955300Y-82679953D01*
X219790241Y-82790241D01*
X219679953Y-82955300D01*
X219643164Y-83140249D01*
X219643164Y-84859751D01*
X219679953Y-85044700D01*
X219790241Y-85209759D01*
X219955300Y-85320047D01*
X220140249Y-85356836D01*
X220346607Y-85356836D01*
X220175466Y-85465446D01*
X219998211Y-85628441D01*
X219852620Y-85820249D01*
X219743296Y-86034808D01*
X219673696Y-86265335D01*
X219646019Y-86504545D01*
X219661139Y-86744874D01*
X219718579Y-86978728D01*
X219816523Y-87198714D01*
X219951875Y-87397880D01*
X220120358Y-87569929D01*
X220316645Y-87709422D01*
X220534531Y-87811952D01*
X220535869Y-87812311D01*
X220378784Y-87876416D01*
X220175466Y-88005446D01*
X219998211Y-88168441D01*
X219852620Y-88360249D01*
X219780904Y-88501000D01*
X218445253Y-88501000D01*
X218368758Y-88494307D01*
X218294569Y-88514186D01*
X218218916Y-88527525D01*
X218196517Y-88540458D01*
X218171529Y-88547153D01*
X218108615Y-88591207D01*
X218042086Y-88629618D01*
X217992722Y-88688448D01*
X216108449Y-90572722D01*
X216049620Y-90622085D01*
X216011213Y-90688607D01*
X215967153Y-90751531D01*
X215960459Y-90776516D01*
X215947526Y-90798915D01*
X215934189Y-90874558D01*
X215914306Y-90948758D01*
X215921001Y-91025273D01*
X215921000Y-93308065D01*
X215743636Y-93293949D01*
X215509116Y-93346157D01*
X215300315Y-93465013D01*
X215135692Y-93640012D01*
X215029805Y-93855680D01*
X214992012Y-94092948D01*
X215025658Y-94330842D01*
X215127766Y-94548325D01*
X215289309Y-94726170D01*
X215496004Y-94848652D01*
X215729576Y-94904944D01*
X215921001Y-94893068D01*
X215921000Y-102840170D01*
X215278363Y-103482808D01*
X215285945Y-103465286D01*
X215341232Y-103229569D01*
X215349315Y-102920885D01*
X215306441Y-102682599D01*
X215222502Y-102456896D01*
X215099923Y-102249625D01*
X214942576Y-102067337D01*
X214805967Y-101956713D01*
X214863034Y-101956713D01*
X215150680Y-101879638D01*
X215315939Y-101740970D01*
X215421559Y-101558030D01*
X215456713Y-101358661D01*
X215456713Y-100651000D01*
X212543287Y-100651000D01*
X195249000Y-100651000D01*
X195249000Y-95835828D01*
X195255119Y-95809429D01*
X195249000Y-95723007D01*
X195249000Y-92240498D01*
X203342604Y-92240498D01*
X203373475Y-92484864D01*
X203468924Y-92711928D01*
X203501001Y-92752399D01*
X203501000Y-97705530D01*
X203492921Y-97773792D01*
X203511034Y-97872970D01*
X203526031Y-97972721D01*
X203531229Y-97983547D01*
X203534104Y-97999287D01*
X203554466Y-98031938D01*
X203623525Y-98175750D01*
X203686940Y-98244354D01*
X203689975Y-98249220D01*
X203709341Y-98268587D01*
X203776408Y-98341140D01*
X203789497Y-98348743D01*
X204615935Y-99175182D01*
X204623475Y-99234865D01*
X204718924Y-99461928D01*
X204871918Y-99654959D01*
X205071186Y-99799735D01*
X205302047Y-99885591D01*
X205547492Y-99906202D01*
X205789438Y-99860048D01*
X206010060Y-99750530D01*
X206011759Y-99749000D01*
X209897448Y-99749000D01*
X210129576Y-99804944D01*
X210369375Y-99790067D01*
X210594200Y-99705338D01*
X210676855Y-99641339D01*
X212543287Y-99641339D01*
X212543287Y-100349000D01*
X213849000Y-100349000D01*
X213849000Y-99043287D01*
X214151000Y-99043287D01*
X214151000Y-100349000D01*
X215456713Y-100349000D01*
X215456713Y-99636966D01*
X215379638Y-99349321D01*
X215240970Y-99184061D01*
X215058030Y-99078441D01*
X214858661Y-99043287D01*
X214151000Y-99043287D01*
X213849000Y-99043287D01*
X213136966Y-99043287D01*
X212849321Y-99120362D01*
X212684061Y-99259030D01*
X212578441Y-99441970D01*
X212543287Y-99641339D01*
X210676855Y-99641339D01*
X210784171Y-99558246D01*
X210922493Y-99361797D01*
X210997060Y-99132983D01*
X210999260Y-98880948D01*
X210928698Y-98650867D01*
X210793824Y-98452035D01*
X210606450Y-98301650D01*
X210383139Y-98213010D01*
X210143636Y-98193949D01*
X209909116Y-98246157D01*
X209900607Y-98251000D01*
X206007847Y-98251000D01*
X205807386Y-98146202D01*
X205677932Y-98118685D01*
X204999000Y-97439754D01*
X204999000Y-92747639D01*
X205075082Y-92627752D01*
X205146426Y-92391450D01*
X205149192Y-92127355D01*
X205082812Y-91889610D01*
X204999000Y-91751220D01*
X204999000Y-89180782D01*
X211397195Y-89180782D01*
X211429556Y-89476264D01*
X211503227Y-89764238D01*
X211616740Y-90038959D01*
X211767829Y-90294945D01*
X211953478Y-90527089D01*
X212169985Y-90730759D01*
X212413030Y-90901891D01*
X212677763Y-91037070D01*
X212958901Y-91133599D01*
X213250836Y-91189553D01*
X213547743Y-91203814D01*
X213843696Y-91176099D01*
X214132792Y-91106959D01*
X214409263Y-90997777D01*
X214667590Y-90850728D01*
X214902622Y-90668747D01*
X215109667Y-90455465D01*
X215284595Y-90215138D01*
X215423916Y-89952562D01*
X215524849Y-89672974D01*
X215585700Y-89380423D01*
X215599449Y-88954757D01*
X215557604Y-88658888D01*
X215474923Y-88373370D01*
X215352837Y-88102350D01*
X215193783Y-87851235D01*
X215000933Y-87625037D01*
X214778135Y-87428269D01*
X214529835Y-87264856D01*
X214260986Y-87138059D01*
X213976955Y-87050408D01*
X213683407Y-87003652D01*
X213386199Y-86998723D01*
X213091262Y-87035721D01*
X212804480Y-87113907D01*
X212531576Y-87231720D01*
X212277995Y-87386811D01*
X212048795Y-87576085D01*
X211848552Y-87795764D01*
X211681259Y-88041467D01*
X211550254Y-88308290D01*
X211458152Y-88590910D01*
X211406791Y-88883688D01*
X211397195Y-89180782D01*
X204999000Y-89180782D01*
X204999000Y-85310246D01*
X206177927Y-84131320D01*
X206289438Y-84110048D01*
X206510060Y-84000531D01*
X206693103Y-83835718D01*
X206825082Y-83627752D01*
X206896426Y-83391450D01*
X206899192Y-83127355D01*
X206832812Y-82889610D01*
X206705218Y-82678927D01*
X206525666Y-82510316D01*
X206307386Y-82396202D01*
X206066459Y-82344992D01*
X205820637Y-82360457D01*
X205588028Y-82441461D01*
X205385772Y-82582032D01*
X205228769Y-82771816D01*
X205128586Y-82996831D01*
X205117266Y-83073487D01*
X203751823Y-84438931D01*
X203697841Y-84481487D01*
X203640506Y-84564445D01*
X203580588Y-84645567D01*
X203576611Y-84656894D01*
X203567512Y-84670057D01*
X203558824Y-84707544D01*
X203505964Y-84858068D01*
X203502296Y-84951419D01*
X203501001Y-84957004D01*
X203501001Y-84984361D01*
X203497121Y-85083118D01*
X203501001Y-85097751D01*
X203501000Y-91744944D01*
X203478769Y-91771817D01*
X203378586Y-91996831D01*
X203342604Y-92240498D01*
X195249000Y-92240498D01*
X195249000Y-90835828D01*
X195255119Y-90809429D01*
X195249000Y-90723007D01*
X195249000Y-85585828D01*
X195255119Y-85559429D01*
X195249000Y-85473007D01*
X195249000Y-81680869D01*
X195257079Y-81612608D01*
X195238967Y-81513436D01*
X195223969Y-81413676D01*
X195218771Y-81402853D01*
X195215897Y-81387112D01*
X195195529Y-81354452D01*
X195126475Y-81210649D01*
X195063057Y-81142043D01*
X195060022Y-81137177D01*
X195040664Y-81117819D01*
X194973593Y-81045260D01*
X194960503Y-81037657D01*
X193924673Y-80001827D01*
X193882113Y-79947840D01*
X193799140Y-79890494D01*
X193718033Y-79830588D01*
X193706709Y-79826611D01*
X193693543Y-79817511D01*
X193656048Y-79808821D01*
X193505532Y-79755964D01*
X193412182Y-79752295D01*
X193406594Y-79751000D01*
X193379214Y-79751000D01*
X193370436Y-79750655D01*
X193370436Y-79626649D01*
X193333647Y-79441700D01*
X193223359Y-79276641D01*
X193058300Y-79166353D01*
X192873351Y-79129564D01*
X191126649Y-79129564D01*
X190941700Y-79166353D01*
X190776641Y-79276641D01*
X190666353Y-79441700D01*
X190630546Y-79621714D01*
X190523002Y-79487717D01*
X190337246Y-79323085D01*
X190126407Y-79192104D01*
X189896512Y-79098520D01*
X189611000Y-79035485D01*
X189611000Y-80651000D01*
X187990430Y-80651000D01*
X188070427Y-80973049D01*
X188169996Y-81200414D01*
X188306452Y-81407752D01*
X188475890Y-81589136D01*
X188673468Y-81739377D01*
X188834598Y-81823434D01*
X188832521Y-81824282D01*
X188627153Y-81954613D01*
X188448111Y-82119251D01*
X188301052Y-82312994D01*
X188190627Y-82529715D01*
X188120325Y-82762566D01*
X188092369Y-83004187D01*
X188107641Y-83246940D01*
X188165660Y-83483151D01*
X188264592Y-83705356D01*
X188401309Y-83906529D01*
X188571490Y-84080311D01*
X188769755Y-84221212D01*
X188840634Y-84254565D01*
X188699595Y-84324423D01*
X188498916Y-84470494D01*
X188325715Y-84648288D01*
X188184949Y-84852723D01*
X188080638Y-85077953D01*
X187985591Y-85429000D01*
X178499000Y-85429000D01*
X178499000Y-80349000D01*
X187985591Y-80349000D01*
X189309000Y-80349000D01*
X189309000Y-79044949D01*
X189159823Y-79063135D01*
X188922018Y-79134254D01*
X188699595Y-79244423D01*
X188498916Y-79390494D01*
X188325715Y-79568288D01*
X188184949Y-79772723D01*
X188080638Y-79997953D01*
X187985591Y-80349000D01*
X178499000Y-80349000D01*
X178499000Y-78830782D01*
X195647195Y-78830782D01*
X195679556Y-79126264D01*
X195753227Y-79414238D01*
X195866740Y-79688959D01*
X196017829Y-79944945D01*
X196203478Y-80177089D01*
X196419985Y-80380759D01*
X196663030Y-80551891D01*
X196927763Y-80687070D01*
X197208901Y-80783599D01*
X197500836Y-80839553D01*
X197797743Y-80853814D01*
X198093696Y-80826099D01*
X198382792Y-80756959D01*
X198659263Y-80647777D01*
X198917590Y-80500728D01*
X199152622Y-80318747D01*
X199359667Y-80105465D01*
X199534595Y-79865138D01*
X199673916Y-79602562D01*
X199774849Y-79322974D01*
X199823369Y-79089705D01*
X222097794Y-79089705D01*
X222131948Y-79369884D01*
X222207138Y-79641937D01*
X222321716Y-79899888D01*
X222473162Y-80138069D01*
X222658151Y-80351250D01*
X222872617Y-80534745D01*
X223111850Y-80684525D01*
X223370595Y-80797299D01*
X223643166Y-80870590D01*
X223923576Y-80902786D01*
X224205665Y-80893181D01*
X224483236Y-80841988D01*
X224750192Y-80750327D01*
X225000666Y-80620217D01*
X225229158Y-80454512D01*
X225430647Y-80256854D01*
X225600708Y-80031586D01*
X225735604Y-79783655D01*
X225832371Y-79518509D01*
X225889145Y-79240694D01*
X225893231Y-79089705D01*
X228597794Y-79089705D01*
X228631948Y-79369884D01*
X228707138Y-79641937D01*
X228821716Y-79899888D01*
X228973162Y-80138069D01*
X229158151Y-80351250D01*
X229372617Y-80534745D01*
X229611850Y-80684525D01*
X229870595Y-80797299D01*
X230143166Y-80870590D01*
X230423576Y-80902786D01*
X230705665Y-80893181D01*
X230983236Y-80841988D01*
X231250192Y-80750327D01*
X231500666Y-80620217D01*
X231729158Y-80454512D01*
X231930647Y-80256854D01*
X232100708Y-80031586D01*
X232235604Y-79783655D01*
X232332371Y-79518509D01*
X232389145Y-79240694D01*
X232399398Y-78861822D01*
X232357730Y-78581342D01*
X232275443Y-78311351D01*
X232154153Y-78056488D01*
X231996523Y-77822353D01*
X231806017Y-77614088D01*
X231586821Y-77436269D01*
X231343749Y-77292803D01*
X231082141Y-77186841D01*
X230807745Y-77120711D01*
X230526588Y-77095866D01*
X230244848Y-77112851D01*
X229968712Y-77171294D01*
X229704247Y-77269910D01*
X229457265Y-77406533D01*
X229233189Y-77578162D01*
X229036942Y-77781026D01*
X228872837Y-78010670D01*
X228744478Y-78262046D01*
X228654684Y-78529635D01*
X228605429Y-78807557D01*
X228597794Y-79089705D01*
X225893231Y-79089705D01*
X225899398Y-78861822D01*
X225857730Y-78581342D01*
X225775443Y-78311351D01*
X225654153Y-78056488D01*
X225496523Y-77822353D01*
X225306017Y-77614088D01*
X225086821Y-77436269D01*
X224843749Y-77292803D01*
X224582141Y-77186841D01*
X224307745Y-77120711D01*
X224026588Y-77095866D01*
X223744848Y-77112851D01*
X223468712Y-77171294D01*
X223204247Y-77269910D01*
X222957265Y-77406533D01*
X222733189Y-77578162D01*
X222536942Y-77781026D01*
X222372837Y-78010670D01*
X222244478Y-78262046D01*
X222154684Y-78529635D01*
X222105429Y-78807557D01*
X222097794Y-79089705D01*
X199823369Y-79089705D01*
X199835700Y-79030423D01*
X199849449Y-78604757D01*
X199807604Y-78308888D01*
X199724923Y-78023370D01*
X199602837Y-77752350D01*
X199443783Y-77501235D01*
X199250933Y-77275037D01*
X199028135Y-77078269D01*
X198779835Y-76914856D01*
X198510986Y-76788059D01*
X198226955Y-76700408D01*
X197933407Y-76653652D01*
X197636199Y-76648723D01*
X197341262Y-76685721D01*
X197054480Y-76763907D01*
X196781576Y-76881720D01*
X196527995Y-77036811D01*
X196298795Y-77226085D01*
X196098552Y-77445764D01*
X195931259Y-77691467D01*
X195800254Y-77958290D01*
X195708152Y-78240910D01*
X195656791Y-78533688D01*
X195647195Y-78830782D01*
X178499000Y-78830782D01*
X178499000Y-75499000D01*
X233501001Y-75499000D01*
X233501000Y-81968519D01*
M02*
