G04 #@! TF.GenerationSoftware,KiCad,Pcbnew,(5.99.0-490-gc7ce93e10)*
G04 #@! TF.CreationDate,2019-12-10T11:33:49+01:00*
G04 #@! TF.ProjectId,LichtDom,4c696368-7444-46f6-9d2e-6b696361645f,0.1*
G04 #@! TF.SameCoordinates,Original*
G04 #@! TF.FileFunction,Legend,Top*
G04 #@! TF.FilePolarity,Positive*
%FSLAX46Y46*%
G04 Gerber Fmt 4.6, Leading zero omitted, Abs format (unit mm)*
G04 Created by KiCad (PCBNEW (5.99.0-490-gc7ce93e10)) date 2019-12-10 11:33:49*
%MOMM*%
%LPD*%
G04 APERTURE LIST*
%ADD10C,0.300000*%
%ADD11C,0.150000*%
%ADD12C,0.200000*%
%ADD13C,0.120000*%
%ADD14R,0.922000X1.102000*%
%ADD15R,0.902000X1.002000*%
%ADD16C,3.302000*%
%ADD17R,1.602000X0.702000*%
%ADD18R,1.652000X0.702000*%
%ADD19C,2.902000*%
%ADD20R,1.102000X0.922000*%
%ADD21R,4.102000X3.602000*%
%ADD22O,1.802000X1.802000*%
%ADD23R,1.802000X1.802000*%
%ADD24O,1.829200X1.829200*%
%ADD25R,1.829200X1.829200*%
%ADD26O,1.802000X2.102000*%
%ADD27R,1.802000X2.102000*%
%ADD28R,1.602000X1.102000*%
%ADD29R,2.602000X2.402000*%
%ADD30R,2.402000X2.602000*%
%ADD31R,1.222000X1.502000*%
%ADD32R,1.502000X1.222000*%
%ADD33R,3.602000X1.702000*%
%ADD34R,1.902000X1.322000*%
%ADD35R,1.702000X3.602000*%
G04 APERTURE END LIST*
D10*
X209314285Y-131921428D02*
X209385714Y-131850000D01*
X209528571Y-131778571D01*
X209885714Y-131778571D01*
X210028571Y-131850000D01*
X210100000Y-131921428D01*
X210171428Y-132064285D01*
X210171428Y-132207142D01*
X210100000Y-132421428D01*
X209242857Y-133278571D01*
X210171428Y-133278571D01*
X211457142Y-132278571D02*
X211457142Y-133278571D01*
X211100000Y-131707142D02*
X210742857Y-132778571D01*
X211671428Y-132778571D01*
X212028571Y-131778571D02*
X212528571Y-133278571D01*
X213028571Y-131778571D01*
X216528571Y-131778571D02*
X215814285Y-131778571D01*
X215742857Y-132492857D01*
X215814285Y-132421428D01*
X215957142Y-132350000D01*
X216314285Y-132350000D01*
X216457142Y-132421428D01*
X216528571Y-132492857D01*
X216600000Y-132635714D01*
X216600000Y-132992857D01*
X216528571Y-133135714D01*
X216457142Y-133207142D01*
X216314285Y-133278571D01*
X215957142Y-133278571D01*
X215814285Y-133207142D01*
X215742857Y-133135714D01*
X217028571Y-131778571D02*
X217528571Y-133278571D01*
X218028571Y-131778571D01*
D11*
X208250000Y-79821428D02*
X209011904Y-79821428D01*
X208630952Y-80202380D02*
X208630952Y-79440476D01*
X209392857Y-79202380D02*
X210011904Y-79202380D01*
X209678571Y-79583333D01*
X209821428Y-79583333D01*
X209916666Y-79630952D01*
X209964285Y-79678571D01*
X210011904Y-79773809D01*
X210011904Y-80011904D01*
X209964285Y-80107142D01*
X209916666Y-80154761D01*
X209821428Y-80202380D01*
X209535714Y-80202380D01*
X209440476Y-80154761D01*
X209392857Y-80107142D01*
X210488095Y-80154761D02*
X210488095Y-80202380D01*
X210440476Y-80297619D01*
X210392857Y-80345238D01*
X210821428Y-79202380D02*
X211440476Y-79202380D01*
X211107142Y-79583333D01*
X211250000Y-79583333D01*
X211345238Y-79630952D01*
X211392857Y-79678571D01*
X211440476Y-79773809D01*
X211440476Y-80011904D01*
X211392857Y-80107142D01*
X211345238Y-80154761D01*
X211250000Y-80202380D01*
X210964285Y-80202380D01*
X210869047Y-80154761D01*
X210821428Y-80107142D01*
X211726190Y-79202380D02*
X212059523Y-80202380D01*
X212392857Y-79202380D01*
X208250000Y-77821428D02*
X209011904Y-77821428D01*
X208630952Y-78202380D02*
X208630952Y-77440476D01*
X209964285Y-77202380D02*
X209488095Y-77202380D01*
X209440476Y-77678571D01*
X209488095Y-77630952D01*
X209583333Y-77583333D01*
X209821428Y-77583333D01*
X209916666Y-77630952D01*
X209964285Y-77678571D01*
X210011904Y-77773809D01*
X210011904Y-78011904D01*
X209964285Y-78107142D01*
X209916666Y-78154761D01*
X209821428Y-78202380D01*
X209583333Y-78202380D01*
X209488095Y-78154761D01*
X209440476Y-78107142D01*
X210488095Y-78154761D02*
X210488095Y-78202380D01*
X210440476Y-78297619D01*
X210392857Y-78345238D01*
X211107142Y-77202380D02*
X211202380Y-77202380D01*
X211297619Y-77250000D01*
X211345238Y-77297619D01*
X211392857Y-77392857D01*
X211440476Y-77583333D01*
X211440476Y-77821428D01*
X211392857Y-78011904D01*
X211345238Y-78107142D01*
X211297619Y-78154761D01*
X211202380Y-78202380D01*
X211107142Y-78202380D01*
X211011904Y-78154761D01*
X210964285Y-78107142D01*
X210916666Y-78011904D01*
X210869047Y-77821428D01*
X210869047Y-77583333D01*
X210916666Y-77392857D01*
X210964285Y-77297619D01*
X211011904Y-77250000D01*
X211107142Y-77202380D01*
X211726190Y-77202380D02*
X212059523Y-78202380D01*
X212392857Y-77202380D01*
D12*
X182500000Y-86600000D02*
X213500000Y-86600000D01*
X182500000Y-122100000D02*
X182500000Y-86600000D01*
X216000000Y-122100000D02*
X182500000Y-122100000D01*
X216000000Y-86600000D02*
X216000000Y-122100000D01*
X213500000Y-86600000D02*
X216000000Y-86600000D01*
D13*
X191830000Y-159490000D02*
X191830000Y-160950000D01*
X188670000Y-159490000D02*
X188670000Y-161650000D01*
X188670000Y-159490000D02*
X189600000Y-159490000D01*
X191830000Y-159490000D02*
X190900000Y-159490000D01*
D11*
X199725000Y-127725000D02*
X199725000Y-128000000D01*
X205275000Y-127725000D02*
X205275000Y-128080000D01*
X205275000Y-138275000D02*
X205275000Y-137920000D01*
X199725000Y-138275000D02*
X199725000Y-137920000D01*
X199725000Y-127725000D02*
X205275000Y-127725000D01*
X199725000Y-138275000D02*
X205275000Y-138275000D01*
X199725000Y-128000000D02*
X198200000Y-128000000D01*
X199725000Y-102900000D02*
X199725000Y-103175000D01*
X205275000Y-102900000D02*
X205275000Y-103255000D01*
X205275000Y-113450000D02*
X205275000Y-113095000D01*
X199725000Y-113450000D02*
X199725000Y-113095000D01*
X199725000Y-102900000D02*
X205275000Y-102900000D01*
X199725000Y-113450000D02*
X205275000Y-113450000D01*
X199725000Y-103175000D02*
X198200000Y-103175000D01*
X199725000Y-83725000D02*
X199725000Y-84000000D01*
X205275000Y-83725000D02*
X205275000Y-84080000D01*
X205275000Y-94275000D02*
X205275000Y-93920000D01*
X199725000Y-94275000D02*
X199725000Y-93920000D01*
X199725000Y-83725000D02*
X205275000Y-83725000D01*
X199725000Y-94275000D02*
X205275000Y-94275000D01*
X199725000Y-84000000D02*
X198200000Y-84000000D01*
X213925000Y-155425000D02*
X213925000Y-155475000D01*
X218075000Y-155425000D02*
X218075000Y-155570000D01*
X218075000Y-160575000D02*
X218075000Y-160430000D01*
X213925000Y-160575000D02*
X213925000Y-160430000D01*
X213925000Y-155425000D02*
X218075000Y-155425000D01*
X213925000Y-160575000D02*
X218075000Y-160575000D01*
X213925000Y-155475000D02*
X212525000Y-155475000D01*
X217750000Y-128750000D02*
G75*
G03X217750000Y-128750000I-1750000J0D01*
G01*
X225750000Y-79000000D02*
G75*
G03X225750000Y-79000000I-1750000J0D01*
G01*
X232250000Y-79000000D02*
G75*
G03X232250000Y-79000000I-1750000J0D01*
G01*
X213250000Y-128750000D02*
G75*
G03X213250000Y-128750000I-1750000J0D01*
G01*
D13*
X213100000Y-143300000D02*
X210300000Y-143300000D01*
X210300000Y-143300000D02*
X210300000Y-153700000D01*
X210300000Y-153700000D02*
X213100000Y-153700000D01*
X217900000Y-143300000D02*
X220700000Y-143300000D01*
X220700000Y-143300000D02*
X220700000Y-153700000D01*
X220700000Y-153700000D02*
X217900000Y-153700000D01*
X212670000Y-101770000D02*
X215330000Y-101770000D01*
X212670000Y-101770000D02*
X212670000Y-109450000D01*
X212670000Y-109450000D02*
X215330000Y-109450000D01*
X215330000Y-101770000D02*
X215330000Y-109450000D01*
X215330000Y-99170000D02*
X215330000Y-100500000D01*
X214000000Y-99170000D02*
X215330000Y-99170000D01*
X197750000Y-164460000D02*
X193940000Y-164460000D01*
X193940000Y-164460000D02*
X193940000Y-152740000D01*
X193940000Y-152740000D02*
X195360000Y-152740000D01*
X195360000Y-152740000D02*
X195360000Y-157240000D01*
X197750000Y-164460000D02*
X201560000Y-164460000D01*
X201560000Y-164460000D02*
X201560000Y-152740000D01*
X201560000Y-152740000D02*
X200140000Y-152740000D01*
X200140000Y-152740000D02*
X200140000Y-157240000D01*
X196250000Y-158350000D02*
X196250000Y-163850000D01*
X196250000Y-163850000D02*
X196750000Y-163850000D01*
X196750000Y-163850000D02*
X196750000Y-158350000D01*
X196750000Y-158350000D02*
X196250000Y-158350000D01*
X198750000Y-158350000D02*
X198750000Y-163850000D01*
X198750000Y-163850000D02*
X199250000Y-163850000D01*
X199250000Y-163850000D02*
X199250000Y-158350000D01*
X199250000Y-158350000D02*
X198750000Y-158350000D01*
X196500000Y-155250000D02*
X196200000Y-154650000D01*
X196200000Y-154650000D02*
X196800000Y-154650000D01*
X196800000Y-154650000D02*
X196500000Y-155250000D01*
X213700000Y-80510000D02*
X215970000Y-80510000D01*
X215970000Y-80510000D02*
X215970000Y-78990000D01*
X215970000Y-78990000D02*
X213700000Y-78990000D01*
X184450000Y-124050000D02*
X191750000Y-124050000D01*
X184450000Y-129550000D02*
X191750000Y-129550000D01*
X191750000Y-129550000D02*
X191750000Y-128400000D01*
X185450000Y-150850000D02*
X185450000Y-155150000D01*
X185450000Y-155150000D02*
X191150000Y-155150000D01*
X185450000Y-150850000D02*
X191150000Y-150850000D01*
X213700000Y-78510000D02*
X215970000Y-78510000D01*
X215970000Y-78510000D02*
X215970000Y-76990000D01*
X215970000Y-76990000D02*
X213700000Y-76990000D01*
X225650000Y-149200000D02*
X221350000Y-149200000D01*
X221350000Y-149200000D02*
X221350000Y-154900000D01*
X225650000Y-149200000D02*
X225650000Y-154900000D01*
X209590000Y-134840000D02*
X209590000Y-137190000D01*
X209590000Y-141660000D02*
X209590000Y-139310000D01*
X215345563Y-141660000D02*
X209590000Y-141660000D01*
X215345563Y-134840000D02*
X209590000Y-134840000D01*
X216410000Y-135904437D02*
X216410000Y-137190000D01*
X216410000Y-140595563D02*
X216410000Y-139310000D01*
X216410000Y-140595563D02*
X215345563Y-141660000D01*
X216410000Y-135904437D02*
X215345563Y-134840000D01*
X217437500Y-140097500D02*
X216650000Y-140097500D01*
X217043750Y-140491250D02*
X217043750Y-139703750D01*
X222410000Y-158500000D02*
X222410000Y-159500000D01*
X220590000Y-158500000D02*
X220590000Y-159500000D01*
X202590000Y-159910000D02*
X204940000Y-159910000D01*
X209410000Y-159910000D02*
X207060000Y-159910000D01*
X209410000Y-154154437D02*
X209410000Y-159910000D01*
X202590000Y-154154437D02*
X202590000Y-159910000D01*
X203654437Y-153090000D02*
X204940000Y-153090000D01*
X208345563Y-153090000D02*
X207060000Y-153090000D01*
X208345563Y-153090000D02*
X209410000Y-154154437D01*
X203654437Y-153090000D02*
X202590000Y-154154437D01*
X207847500Y-152062500D02*
X207847500Y-152850000D01*
X208241250Y-152456250D02*
X207453750Y-152456250D01*
X202590000Y-148410000D02*
X204940000Y-148410000D01*
X209410000Y-148410000D02*
X207060000Y-148410000D01*
X209410000Y-142654437D02*
X209410000Y-148410000D01*
X202590000Y-142654437D02*
X202590000Y-148410000D01*
X203654437Y-141590000D02*
X204940000Y-141590000D01*
X208345563Y-141590000D02*
X207060000Y-141590000D01*
X208345563Y-141590000D02*
X209410000Y-142654437D01*
X203654437Y-141590000D02*
X202590000Y-142654437D01*
X207847500Y-140562500D02*
X207847500Y-141350000D01*
X208241250Y-140956250D02*
X207453750Y-140956250D01*
D11*
X202880952Y-162502380D02*
X202547619Y-162026190D01*
X202309523Y-162502380D02*
X202309523Y-161502380D01*
X202690476Y-161502380D01*
X202785714Y-161550000D01*
X202833333Y-161597619D01*
X202880952Y-161692857D01*
X202880952Y-161835714D01*
X202833333Y-161930952D01*
X202785714Y-161978571D01*
X202690476Y-162026190D01*
X202309523Y-162026190D01*
X203833333Y-162502380D02*
X203261904Y-162502380D01*
X203547619Y-162502380D02*
X203547619Y-161502380D01*
X203452380Y-161645238D01*
X203357142Y-161740476D01*
X203261904Y-161788095D01*
X204452380Y-161502380D02*
X204547619Y-161502380D01*
X204642857Y-161550000D01*
X204690476Y-161597619D01*
X204738095Y-161692857D01*
X204785714Y-161883333D01*
X204785714Y-162121428D01*
X204738095Y-162311904D01*
X204690476Y-162407142D01*
X204642857Y-162454761D01*
X204547619Y-162502380D01*
X204452380Y-162502380D01*
X204357142Y-162454761D01*
X204309523Y-162407142D01*
X204261904Y-162311904D01*
X204214285Y-162121428D01*
X204214285Y-161883333D01*
X204261904Y-161692857D01*
X204309523Y-161597619D01*
X204357142Y-161550000D01*
X204452380Y-161502380D01*
X205642857Y-161835714D02*
X205642857Y-162502380D01*
X205404761Y-161454761D02*
X205166666Y-162169047D01*
X205785714Y-162169047D01*
X188297619Y-161297619D02*
X188250000Y-161392857D01*
X188154761Y-161488095D01*
X188011904Y-161630952D01*
X187964285Y-161726190D01*
X187964285Y-161821428D01*
X188202380Y-161773809D02*
X188154761Y-161869047D01*
X188059523Y-161964285D01*
X187869047Y-162011904D01*
X187535714Y-162011904D01*
X187345238Y-161964285D01*
X187250000Y-161869047D01*
X187202380Y-161773809D01*
X187202380Y-161583333D01*
X187250000Y-161488095D01*
X187345238Y-161392857D01*
X187535714Y-161345238D01*
X187869047Y-161345238D01*
X188059523Y-161392857D01*
X188154761Y-161488095D01*
X188202380Y-161583333D01*
X188202380Y-161773809D01*
X188202380Y-160392857D02*
X188202380Y-160964285D01*
X188202380Y-160678571D02*
X187202380Y-160678571D01*
X187345238Y-160773809D01*
X187440476Y-160869047D01*
X187488095Y-160964285D01*
X187202380Y-159773809D02*
X187202380Y-159678571D01*
X187250000Y-159583333D01*
X187297619Y-159535714D01*
X187392857Y-159488095D01*
X187583333Y-159440476D01*
X187821428Y-159440476D01*
X188011904Y-159488095D01*
X188107142Y-159535714D01*
X188154761Y-159583333D01*
X188202380Y-159678571D01*
X188202380Y-159773809D01*
X188154761Y-159869047D01*
X188107142Y-159916666D01*
X188011904Y-159964285D01*
X187821428Y-160011904D01*
X187583333Y-160011904D01*
X187392857Y-159964285D01*
X187297619Y-159916666D01*
X187250000Y-159869047D01*
X187202380Y-159773809D01*
X188202380Y-158488095D02*
X188202380Y-159059523D01*
X188202380Y-158773809D02*
X187202380Y-158773809D01*
X187345238Y-158869047D01*
X187440476Y-158964285D01*
X187488095Y-159059523D01*
X200785714Y-126252380D02*
X200785714Y-127061904D01*
X200833333Y-127157142D01*
X200880952Y-127204761D01*
X200976190Y-127252380D01*
X201166666Y-127252380D01*
X201261904Y-127204761D01*
X201309523Y-127157142D01*
X201357142Y-127061904D01*
X201357142Y-126252380D01*
X202357142Y-127252380D02*
X201785714Y-127252380D01*
X202071428Y-127252380D02*
X202071428Y-126252380D01*
X201976190Y-126395238D01*
X201880952Y-126490476D01*
X201785714Y-126538095D01*
X202976190Y-126252380D02*
X203071428Y-126252380D01*
X203166666Y-126300000D01*
X203214285Y-126347619D01*
X203261904Y-126442857D01*
X203309523Y-126633333D01*
X203309523Y-126871428D01*
X203261904Y-127061904D01*
X203214285Y-127157142D01*
X203166666Y-127204761D01*
X203071428Y-127252380D01*
X202976190Y-127252380D01*
X202880952Y-127204761D01*
X202833333Y-127157142D01*
X202785714Y-127061904D01*
X202738095Y-126871428D01*
X202738095Y-126633333D01*
X202785714Y-126442857D01*
X202833333Y-126347619D01*
X202880952Y-126300000D01*
X202976190Y-126252380D01*
X203642857Y-126252380D02*
X204261904Y-126252380D01*
X203928571Y-126633333D01*
X204071428Y-126633333D01*
X204166666Y-126680952D01*
X204214285Y-126728571D01*
X204261904Y-126823809D01*
X204261904Y-127061904D01*
X204214285Y-127157142D01*
X204166666Y-127204761D01*
X204071428Y-127252380D01*
X203785714Y-127252380D01*
X203690476Y-127204761D01*
X203642857Y-127157142D01*
X200785714Y-101427380D02*
X200785714Y-102236904D01*
X200833333Y-102332142D01*
X200880952Y-102379761D01*
X200976190Y-102427380D01*
X201166666Y-102427380D01*
X201261904Y-102379761D01*
X201309523Y-102332142D01*
X201357142Y-102236904D01*
X201357142Y-101427380D01*
X202357142Y-102427380D02*
X201785714Y-102427380D01*
X202071428Y-102427380D02*
X202071428Y-101427380D01*
X201976190Y-101570238D01*
X201880952Y-101665476D01*
X201785714Y-101713095D01*
X202976190Y-101427380D02*
X203071428Y-101427380D01*
X203166666Y-101475000D01*
X203214285Y-101522619D01*
X203261904Y-101617857D01*
X203309523Y-101808333D01*
X203309523Y-102046428D01*
X203261904Y-102236904D01*
X203214285Y-102332142D01*
X203166666Y-102379761D01*
X203071428Y-102427380D01*
X202976190Y-102427380D01*
X202880952Y-102379761D01*
X202833333Y-102332142D01*
X202785714Y-102236904D01*
X202738095Y-102046428D01*
X202738095Y-101808333D01*
X202785714Y-101617857D01*
X202833333Y-101522619D01*
X202880952Y-101475000D01*
X202976190Y-101427380D01*
X203690476Y-101522619D02*
X203738095Y-101475000D01*
X203833333Y-101427380D01*
X204071428Y-101427380D01*
X204166666Y-101475000D01*
X204214285Y-101522619D01*
X204261904Y-101617857D01*
X204261904Y-101713095D01*
X204214285Y-101855952D01*
X203642857Y-102427380D01*
X204261904Y-102427380D01*
X200785714Y-82252380D02*
X200785714Y-83061904D01*
X200833333Y-83157142D01*
X200880952Y-83204761D01*
X200976190Y-83252380D01*
X201166666Y-83252380D01*
X201261904Y-83204761D01*
X201309523Y-83157142D01*
X201357142Y-83061904D01*
X201357142Y-82252380D01*
X202357142Y-83252380D02*
X201785714Y-83252380D01*
X202071428Y-83252380D02*
X202071428Y-82252380D01*
X201976190Y-82395238D01*
X201880952Y-82490476D01*
X201785714Y-82538095D01*
X202976190Y-82252380D02*
X203071428Y-82252380D01*
X203166666Y-82300000D01*
X203214285Y-82347619D01*
X203261904Y-82442857D01*
X203309523Y-82633333D01*
X203309523Y-82871428D01*
X203261904Y-83061904D01*
X203214285Y-83157142D01*
X203166666Y-83204761D01*
X203071428Y-83252380D01*
X202976190Y-83252380D01*
X202880952Y-83204761D01*
X202833333Y-83157142D01*
X202785714Y-83061904D01*
X202738095Y-82871428D01*
X202738095Y-82633333D01*
X202785714Y-82442857D01*
X202833333Y-82347619D01*
X202880952Y-82300000D01*
X202976190Y-82252380D01*
X204261904Y-83252380D02*
X203690476Y-83252380D01*
X203976190Y-83252380D02*
X203976190Y-82252380D01*
X203880952Y-82395238D01*
X203785714Y-82490476D01*
X203690476Y-82538095D01*
X218238095Y-161202380D02*
X218238095Y-162011904D01*
X218285714Y-162107142D01*
X218333333Y-162154761D01*
X218428571Y-162202380D01*
X218619047Y-162202380D01*
X218714285Y-162154761D01*
X218761904Y-162107142D01*
X218809523Y-162011904D01*
X218809523Y-161202380D01*
X219809523Y-162202380D02*
X219238095Y-162202380D01*
X219523809Y-162202380D02*
X219523809Y-161202380D01*
X219428571Y-161345238D01*
X219333333Y-161440476D01*
X219238095Y-161488095D01*
X214785714Y-125452380D02*
X215357142Y-125452380D01*
X215071428Y-126452380D02*
X215071428Y-125452380D01*
X215690476Y-126452380D02*
X215690476Y-125452380D01*
X216071428Y-125452380D01*
X216166666Y-125500000D01*
X216214285Y-125547619D01*
X216261904Y-125642857D01*
X216261904Y-125785714D01*
X216214285Y-125880952D01*
X216166666Y-125928571D01*
X216071428Y-125976190D01*
X215690476Y-125976190D01*
X217214285Y-126452380D02*
X216642857Y-126452380D01*
X216928571Y-126452380D02*
X216928571Y-125452380D01*
X216833333Y-125595238D01*
X216738095Y-125690476D01*
X216642857Y-125738095D01*
X217833333Y-125452380D02*
X217928571Y-125452380D01*
X218023809Y-125500000D01*
X218071428Y-125547619D01*
X218119047Y-125642857D01*
X218166666Y-125833333D01*
X218166666Y-126071428D01*
X218119047Y-126261904D01*
X218071428Y-126357142D01*
X218023809Y-126404761D01*
X217928571Y-126452380D01*
X217833333Y-126452380D01*
X217738095Y-126404761D01*
X217690476Y-126357142D01*
X217642857Y-126261904D01*
X217595238Y-126071428D01*
X217595238Y-125833333D01*
X217642857Y-125642857D01*
X217690476Y-125547619D01*
X217738095Y-125500000D01*
X217833333Y-125452380D01*
X219023809Y-125785714D02*
X219023809Y-126452380D01*
X218785714Y-125404761D02*
X218547619Y-126119047D01*
X219166666Y-126119047D01*
X221785714Y-75702380D02*
X222357142Y-75702380D01*
X222071428Y-76702380D02*
X222071428Y-75702380D01*
X222690476Y-76702380D02*
X222690476Y-75702380D01*
X223071428Y-75702380D01*
X223166666Y-75750000D01*
X223214285Y-75797619D01*
X223261904Y-75892857D01*
X223261904Y-76035714D01*
X223214285Y-76130952D01*
X223166666Y-76178571D01*
X223071428Y-76226190D01*
X222690476Y-76226190D01*
X224214285Y-76702380D02*
X223642857Y-76702380D01*
X223928571Y-76702380D02*
X223928571Y-75702380D01*
X223833333Y-75845238D01*
X223738095Y-75940476D01*
X223642857Y-75988095D01*
X224833333Y-75702380D02*
X224928571Y-75702380D01*
X225023809Y-75750000D01*
X225071428Y-75797619D01*
X225119047Y-75892857D01*
X225166666Y-76083333D01*
X225166666Y-76321428D01*
X225119047Y-76511904D01*
X225071428Y-76607142D01*
X225023809Y-76654761D01*
X224928571Y-76702380D01*
X224833333Y-76702380D01*
X224738095Y-76654761D01*
X224690476Y-76607142D01*
X224642857Y-76511904D01*
X224595238Y-76321428D01*
X224595238Y-76083333D01*
X224642857Y-75892857D01*
X224690476Y-75797619D01*
X224738095Y-75750000D01*
X224833333Y-75702380D01*
X225500000Y-75702380D02*
X226119047Y-75702380D01*
X225785714Y-76083333D01*
X225928571Y-76083333D01*
X226023809Y-76130952D01*
X226071428Y-76178571D01*
X226119047Y-76273809D01*
X226119047Y-76511904D01*
X226071428Y-76607142D01*
X226023809Y-76654761D01*
X225928571Y-76702380D01*
X225642857Y-76702380D01*
X225547619Y-76654761D01*
X225500000Y-76607142D01*
X228285714Y-75702380D02*
X228857142Y-75702380D01*
X228571428Y-76702380D02*
X228571428Y-75702380D01*
X229190476Y-76702380D02*
X229190476Y-75702380D01*
X229571428Y-75702380D01*
X229666666Y-75750000D01*
X229714285Y-75797619D01*
X229761904Y-75892857D01*
X229761904Y-76035714D01*
X229714285Y-76130952D01*
X229666666Y-76178571D01*
X229571428Y-76226190D01*
X229190476Y-76226190D01*
X230714285Y-76702380D02*
X230142857Y-76702380D01*
X230428571Y-76702380D02*
X230428571Y-75702380D01*
X230333333Y-75845238D01*
X230238095Y-75940476D01*
X230142857Y-75988095D01*
X231333333Y-75702380D02*
X231428571Y-75702380D01*
X231523809Y-75750000D01*
X231571428Y-75797619D01*
X231619047Y-75892857D01*
X231666666Y-76083333D01*
X231666666Y-76321428D01*
X231619047Y-76511904D01*
X231571428Y-76607142D01*
X231523809Y-76654761D01*
X231428571Y-76702380D01*
X231333333Y-76702380D01*
X231238095Y-76654761D01*
X231190476Y-76607142D01*
X231142857Y-76511904D01*
X231095238Y-76321428D01*
X231095238Y-76083333D01*
X231142857Y-75892857D01*
X231190476Y-75797619D01*
X231238095Y-75750000D01*
X231333333Y-75702380D01*
X232047619Y-75797619D02*
X232095238Y-75750000D01*
X232190476Y-75702380D01*
X232428571Y-75702380D01*
X232523809Y-75750000D01*
X232571428Y-75797619D01*
X232619047Y-75892857D01*
X232619047Y-75988095D01*
X232571428Y-76130952D01*
X232000000Y-76702380D01*
X232619047Y-76702380D01*
X208785714Y-125452380D02*
X209357142Y-125452380D01*
X209071428Y-126452380D02*
X209071428Y-125452380D01*
X209690476Y-126452380D02*
X209690476Y-125452380D01*
X210071428Y-125452380D01*
X210166666Y-125500000D01*
X210214285Y-125547619D01*
X210261904Y-125642857D01*
X210261904Y-125785714D01*
X210214285Y-125880952D01*
X210166666Y-125928571D01*
X210071428Y-125976190D01*
X209690476Y-125976190D01*
X211214285Y-126452380D02*
X210642857Y-126452380D01*
X210928571Y-126452380D02*
X210928571Y-125452380D01*
X210833333Y-125595238D01*
X210738095Y-125690476D01*
X210642857Y-125738095D01*
X211833333Y-125452380D02*
X211928571Y-125452380D01*
X212023809Y-125500000D01*
X212071428Y-125547619D01*
X212119047Y-125642857D01*
X212166666Y-125833333D01*
X212166666Y-126071428D01*
X212119047Y-126261904D01*
X212071428Y-126357142D01*
X212023809Y-126404761D01*
X211928571Y-126452380D01*
X211833333Y-126452380D01*
X211738095Y-126404761D01*
X211690476Y-126357142D01*
X211642857Y-126261904D01*
X211595238Y-126071428D01*
X211595238Y-125833333D01*
X211642857Y-125642857D01*
X211690476Y-125547619D01*
X211738095Y-125500000D01*
X211833333Y-125452380D01*
X213119047Y-126452380D02*
X212547619Y-126452380D01*
X212833333Y-126452380D02*
X212833333Y-125452380D01*
X212738095Y-125595238D01*
X212642857Y-125690476D01*
X212547619Y-125738095D01*
X217630952Y-81952380D02*
X217297619Y-81476190D01*
X217059523Y-81952380D02*
X217059523Y-80952380D01*
X217440476Y-80952380D01*
X217535714Y-81000000D01*
X217583333Y-81047619D01*
X217630952Y-81142857D01*
X217630952Y-81285714D01*
X217583333Y-81380952D01*
X217535714Y-81428571D01*
X217440476Y-81476190D01*
X217059523Y-81476190D01*
X218583333Y-81952380D02*
X218011904Y-81952380D01*
X218297619Y-81952380D02*
X218297619Y-80952380D01*
X218202380Y-81095238D01*
X218107142Y-81190476D01*
X218011904Y-81238095D01*
X219202380Y-80952380D02*
X219297619Y-80952380D01*
X219392857Y-81000000D01*
X219440476Y-81047619D01*
X219488095Y-81142857D01*
X219535714Y-81333333D01*
X219535714Y-81571428D01*
X219488095Y-81761904D01*
X219440476Y-81857142D01*
X219392857Y-81904761D01*
X219297619Y-81952380D01*
X219202380Y-81952380D01*
X219107142Y-81904761D01*
X219059523Y-81857142D01*
X219011904Y-81761904D01*
X218964285Y-81571428D01*
X218964285Y-81333333D01*
X219011904Y-81142857D01*
X219059523Y-81047619D01*
X219107142Y-81000000D01*
X219202380Y-80952380D01*
X219869047Y-80952380D02*
X220488095Y-80952380D01*
X220154761Y-81333333D01*
X220297619Y-81333333D01*
X220392857Y-81380952D01*
X220440476Y-81428571D01*
X220488095Y-81523809D01*
X220488095Y-81761904D01*
X220440476Y-81857142D01*
X220392857Y-81904761D01*
X220297619Y-81952380D01*
X220011904Y-81952380D01*
X219916666Y-81904761D01*
X219869047Y-81857142D01*
X208880952Y-94702380D02*
X208547619Y-94226190D01*
X208309523Y-94702380D02*
X208309523Y-93702380D01*
X208690476Y-93702380D01*
X208785714Y-93750000D01*
X208833333Y-93797619D01*
X208880952Y-93892857D01*
X208880952Y-94035714D01*
X208833333Y-94130952D01*
X208785714Y-94178571D01*
X208690476Y-94226190D01*
X208309523Y-94226190D01*
X209833333Y-94702380D02*
X209261904Y-94702380D01*
X209547619Y-94702380D02*
X209547619Y-93702380D01*
X209452380Y-93845238D01*
X209357142Y-93940476D01*
X209261904Y-93988095D01*
X210452380Y-93702380D02*
X210547619Y-93702380D01*
X210642857Y-93750000D01*
X210690476Y-93797619D01*
X210738095Y-93892857D01*
X210785714Y-94083333D01*
X210785714Y-94321428D01*
X210738095Y-94511904D01*
X210690476Y-94607142D01*
X210642857Y-94654761D01*
X210547619Y-94702380D01*
X210452380Y-94702380D01*
X210357142Y-94654761D01*
X210309523Y-94607142D01*
X210261904Y-94511904D01*
X210214285Y-94321428D01*
X210214285Y-94083333D01*
X210261904Y-93892857D01*
X210309523Y-93797619D01*
X210357142Y-93750000D01*
X210452380Y-93702380D01*
X211166666Y-93797619D02*
X211214285Y-93750000D01*
X211309523Y-93702380D01*
X211547619Y-93702380D01*
X211642857Y-93750000D01*
X211690476Y-93797619D01*
X211738095Y-93892857D01*
X211738095Y-93988095D01*
X211690476Y-94130952D01*
X211119047Y-94702380D01*
X211738095Y-94702380D01*
X208880952Y-96452380D02*
X208547619Y-95976190D01*
X208309523Y-96452380D02*
X208309523Y-95452380D01*
X208690476Y-95452380D01*
X208785714Y-95500000D01*
X208833333Y-95547619D01*
X208880952Y-95642857D01*
X208880952Y-95785714D01*
X208833333Y-95880952D01*
X208785714Y-95928571D01*
X208690476Y-95976190D01*
X208309523Y-95976190D01*
X209833333Y-96452380D02*
X209261904Y-96452380D01*
X209547619Y-96452380D02*
X209547619Y-95452380D01*
X209452380Y-95595238D01*
X209357142Y-95690476D01*
X209261904Y-95738095D01*
X210452380Y-95452380D02*
X210547619Y-95452380D01*
X210642857Y-95500000D01*
X210690476Y-95547619D01*
X210738095Y-95642857D01*
X210785714Y-95833333D01*
X210785714Y-96071428D01*
X210738095Y-96261904D01*
X210690476Y-96357142D01*
X210642857Y-96404761D01*
X210547619Y-96452380D01*
X210452380Y-96452380D01*
X210357142Y-96404761D01*
X210309523Y-96357142D01*
X210261904Y-96261904D01*
X210214285Y-96071428D01*
X210214285Y-95833333D01*
X210261904Y-95642857D01*
X210309523Y-95547619D01*
X210357142Y-95500000D01*
X210452380Y-95452380D01*
X211738095Y-96452380D02*
X211166666Y-96452380D01*
X211452380Y-96452380D02*
X211452380Y-95452380D01*
X211357142Y-95595238D01*
X211261904Y-95690476D01*
X211166666Y-95738095D01*
X218083333Y-76702380D02*
X217750000Y-76226190D01*
X217511904Y-76702380D02*
X217511904Y-75702380D01*
X217892857Y-75702380D01*
X217988095Y-75750000D01*
X218035714Y-75797619D01*
X218083333Y-75892857D01*
X218083333Y-76035714D01*
X218035714Y-76130952D01*
X217988095Y-76178571D01*
X217892857Y-76226190D01*
X217511904Y-76226190D01*
X218416666Y-75702380D02*
X219083333Y-75702380D01*
X218654761Y-76702380D01*
X212333333Y-164202380D02*
X212000000Y-163726190D01*
X211761904Y-164202380D02*
X211761904Y-163202380D01*
X212142857Y-163202380D01*
X212238095Y-163250000D01*
X212285714Y-163297619D01*
X212333333Y-163392857D01*
X212333333Y-163535714D01*
X212285714Y-163630952D01*
X212238095Y-163678571D01*
X212142857Y-163726190D01*
X211761904Y-163726190D01*
X213238095Y-163202380D02*
X212761904Y-163202380D01*
X212714285Y-163678571D01*
X212761904Y-163630952D01*
X212857142Y-163583333D01*
X213095238Y-163583333D01*
X213190476Y-163630952D01*
X213238095Y-163678571D01*
X213285714Y-163773809D01*
X213285714Y-164011904D01*
X213238095Y-164107142D01*
X213190476Y-164154761D01*
X213095238Y-164202380D01*
X212857142Y-164202380D01*
X212761904Y-164154761D01*
X212714285Y-164107142D01*
X215833333Y-164202380D02*
X215500000Y-163726190D01*
X215261904Y-164202380D02*
X215261904Y-163202380D01*
X215642857Y-163202380D01*
X215738095Y-163250000D01*
X215785714Y-163297619D01*
X215833333Y-163392857D01*
X215833333Y-163535714D01*
X215785714Y-163630952D01*
X215738095Y-163678571D01*
X215642857Y-163726190D01*
X215261904Y-163726190D01*
X216166666Y-163202380D02*
X216785714Y-163202380D01*
X216452380Y-163583333D01*
X216595238Y-163583333D01*
X216690476Y-163630952D01*
X216738095Y-163678571D01*
X216785714Y-163773809D01*
X216785714Y-164011904D01*
X216738095Y-164107142D01*
X216690476Y-164154761D01*
X216595238Y-164202380D01*
X216309523Y-164202380D01*
X216214285Y-164154761D01*
X216166666Y-164107142D01*
X205333333Y-151202380D02*
X205000000Y-150726190D01*
X204761904Y-151202380D02*
X204761904Y-150202380D01*
X205142857Y-150202380D01*
X205238095Y-150250000D01*
X205285714Y-150297619D01*
X205333333Y-150392857D01*
X205333333Y-150535714D01*
X205285714Y-150630952D01*
X205238095Y-150678571D01*
X205142857Y-150726190D01*
X204761904Y-150726190D01*
X205714285Y-150297619D02*
X205761904Y-150250000D01*
X205857142Y-150202380D01*
X206095238Y-150202380D01*
X206190476Y-150250000D01*
X206238095Y-150297619D01*
X206285714Y-150392857D01*
X206285714Y-150488095D01*
X206238095Y-150630952D01*
X205666666Y-151202380D01*
X206285714Y-151202380D01*
X198833333Y-144202380D02*
X198500000Y-143726190D01*
X198261904Y-144202380D02*
X198261904Y-143202380D01*
X198642857Y-143202380D01*
X198738095Y-143250000D01*
X198785714Y-143297619D01*
X198833333Y-143392857D01*
X198833333Y-143535714D01*
X198785714Y-143630952D01*
X198738095Y-143678571D01*
X198642857Y-143726190D01*
X198261904Y-143726190D01*
X199785714Y-144202380D02*
X199214285Y-144202380D01*
X199500000Y-144202380D02*
X199500000Y-143202380D01*
X199404761Y-143345238D01*
X199309523Y-143440476D01*
X199214285Y-143488095D01*
X222083333Y-148202380D02*
X221607142Y-148202380D01*
X221607142Y-147202380D01*
X222940476Y-148202380D02*
X222369047Y-148202380D01*
X222654761Y-148202380D02*
X222654761Y-147202380D01*
X222559523Y-147345238D01*
X222464285Y-147440476D01*
X222369047Y-147488095D01*
X212714285Y-97202380D02*
X212714285Y-97916666D01*
X212666666Y-98059523D01*
X212571428Y-98154761D01*
X212428571Y-98202380D01*
X212333333Y-98202380D01*
X213714285Y-98202380D02*
X213142857Y-98202380D01*
X213428571Y-98202380D02*
X213428571Y-97202380D01*
X213333333Y-97345238D01*
X213238095Y-97440476D01*
X213142857Y-97488095D01*
X214333333Y-97202380D02*
X214428571Y-97202380D01*
X214523809Y-97250000D01*
X214571428Y-97297619D01*
X214619047Y-97392857D01*
X214666666Y-97583333D01*
X214666666Y-97821428D01*
X214619047Y-98011904D01*
X214571428Y-98107142D01*
X214523809Y-98154761D01*
X214428571Y-98202380D01*
X214333333Y-98202380D01*
X214238095Y-98154761D01*
X214190476Y-98107142D01*
X214142857Y-98011904D01*
X214095238Y-97821428D01*
X214095238Y-97583333D01*
X214142857Y-97392857D01*
X214190476Y-97297619D01*
X214238095Y-97250000D01*
X214333333Y-97202380D01*
X215571428Y-97202380D02*
X215095238Y-97202380D01*
X215047619Y-97678571D01*
X215095238Y-97630952D01*
X215190476Y-97583333D01*
X215428571Y-97583333D01*
X215523809Y-97630952D01*
X215571428Y-97678571D01*
X215619047Y-97773809D01*
X215619047Y-98011904D01*
X215571428Y-98107142D01*
X215523809Y-98154761D01*
X215428571Y-98202380D01*
X215190476Y-98202380D01*
X215095238Y-98154761D01*
X215047619Y-98107142D01*
X196464285Y-152952380D02*
X196464285Y-153666666D01*
X196416666Y-153809523D01*
X196321428Y-153904761D01*
X196178571Y-153952380D01*
X196083333Y-153952380D01*
X197464285Y-153952380D02*
X196892857Y-153952380D01*
X197178571Y-153952380D02*
X197178571Y-152952380D01*
X197083333Y-153095238D01*
X196988095Y-153190476D01*
X196892857Y-153238095D01*
X198083333Y-152952380D02*
X198178571Y-152952380D01*
X198273809Y-153000000D01*
X198321428Y-153047619D01*
X198369047Y-153142857D01*
X198416666Y-153333333D01*
X198416666Y-153571428D01*
X198369047Y-153761904D01*
X198321428Y-153857142D01*
X198273809Y-153904761D01*
X198178571Y-153952380D01*
X198083333Y-153952380D01*
X197988095Y-153904761D01*
X197940476Y-153857142D01*
X197892857Y-153761904D01*
X197845238Y-153571428D01*
X197845238Y-153333333D01*
X197892857Y-153142857D01*
X197940476Y-153047619D01*
X197988095Y-153000000D01*
X198083333Y-152952380D01*
X199369047Y-153952380D02*
X198797619Y-153952380D01*
X199083333Y-153952380D02*
X199083333Y-152952380D01*
X198988095Y-153095238D01*
X198892857Y-153190476D01*
X198797619Y-153238095D01*
X212559523Y-81952380D02*
X212559523Y-80952380D01*
X212797619Y-80952380D01*
X212940476Y-81000000D01*
X213035714Y-81095238D01*
X213083333Y-81190476D01*
X213130952Y-81380952D01*
X213130952Y-81523809D01*
X213083333Y-81714285D01*
X213035714Y-81809523D01*
X212940476Y-81904761D01*
X212797619Y-81952380D01*
X212559523Y-81952380D01*
X214083333Y-81952380D02*
X213511904Y-81952380D01*
X213797619Y-81952380D02*
X213797619Y-80952380D01*
X213702380Y-81095238D01*
X213607142Y-81190476D01*
X213511904Y-81238095D01*
X214702380Y-80952380D02*
X214797619Y-80952380D01*
X214892857Y-81000000D01*
X214940476Y-81047619D01*
X214988095Y-81142857D01*
X215035714Y-81333333D01*
X215035714Y-81571428D01*
X214988095Y-81761904D01*
X214940476Y-81857142D01*
X214892857Y-81904761D01*
X214797619Y-81952380D01*
X214702380Y-81952380D01*
X214607142Y-81904761D01*
X214559523Y-81857142D01*
X214511904Y-81761904D01*
X214464285Y-81571428D01*
X214464285Y-81333333D01*
X214511904Y-81142857D01*
X214559523Y-81047619D01*
X214607142Y-81000000D01*
X214702380Y-80952380D01*
X215369047Y-80952380D02*
X215988095Y-80952380D01*
X215654761Y-81333333D01*
X215797619Y-81333333D01*
X215892857Y-81380952D01*
X215940476Y-81428571D01*
X215988095Y-81523809D01*
X215988095Y-81761904D01*
X215940476Y-81857142D01*
X215892857Y-81904761D01*
X215797619Y-81952380D01*
X215511904Y-81952380D01*
X215416666Y-81904761D01*
X215369047Y-81857142D01*
X186409523Y-123752380D02*
X186409523Y-122752380D01*
X186647619Y-122752380D01*
X186790476Y-122800000D01*
X186885714Y-122895238D01*
X186933333Y-122990476D01*
X186980952Y-123180952D01*
X186980952Y-123323809D01*
X186933333Y-123514285D01*
X186885714Y-123609523D01*
X186790476Y-123704761D01*
X186647619Y-123752380D01*
X186409523Y-123752380D01*
X187933333Y-123752380D02*
X187361904Y-123752380D01*
X187647619Y-123752380D02*
X187647619Y-122752380D01*
X187552380Y-122895238D01*
X187457142Y-122990476D01*
X187361904Y-123038095D01*
X188552380Y-122752380D02*
X188647619Y-122752380D01*
X188742857Y-122800000D01*
X188790476Y-122847619D01*
X188838095Y-122942857D01*
X188885714Y-123133333D01*
X188885714Y-123371428D01*
X188838095Y-123561904D01*
X188790476Y-123657142D01*
X188742857Y-123704761D01*
X188647619Y-123752380D01*
X188552380Y-123752380D01*
X188457142Y-123704761D01*
X188409523Y-123657142D01*
X188361904Y-123561904D01*
X188314285Y-123371428D01*
X188314285Y-123133333D01*
X188361904Y-122942857D01*
X188409523Y-122847619D01*
X188457142Y-122800000D01*
X188552380Y-122752380D01*
X189266666Y-122847619D02*
X189314285Y-122800000D01*
X189409523Y-122752380D01*
X189647619Y-122752380D01*
X189742857Y-122800000D01*
X189790476Y-122847619D01*
X189838095Y-122942857D01*
X189838095Y-123038095D01*
X189790476Y-123180952D01*
X189219047Y-123752380D01*
X189838095Y-123752380D01*
X184235714Y-125652380D02*
X183664285Y-125652380D01*
X183950000Y-125652380D02*
X183950000Y-124652380D01*
X183854761Y-124795238D01*
X183759523Y-124890476D01*
X183664285Y-124938095D01*
X187309523Y-150452380D02*
X187309523Y-149452380D01*
X187547619Y-149452380D01*
X187690476Y-149500000D01*
X187785714Y-149595238D01*
X187833333Y-149690476D01*
X187880952Y-149880952D01*
X187880952Y-150023809D01*
X187833333Y-150214285D01*
X187785714Y-150309523D01*
X187690476Y-150404761D01*
X187547619Y-150452380D01*
X187309523Y-150452380D01*
X188833333Y-150452380D02*
X188261904Y-150452380D01*
X188547619Y-150452380D02*
X188547619Y-149452380D01*
X188452380Y-149595238D01*
X188357142Y-149690476D01*
X188261904Y-149738095D01*
X189452380Y-149452380D02*
X189547619Y-149452380D01*
X189642857Y-149500000D01*
X189690476Y-149547619D01*
X189738095Y-149642857D01*
X189785714Y-149833333D01*
X189785714Y-150071428D01*
X189738095Y-150261904D01*
X189690476Y-150357142D01*
X189642857Y-150404761D01*
X189547619Y-150452380D01*
X189452380Y-150452380D01*
X189357142Y-150404761D01*
X189309523Y-150357142D01*
X189261904Y-150261904D01*
X189214285Y-150071428D01*
X189214285Y-149833333D01*
X189261904Y-149642857D01*
X189309523Y-149547619D01*
X189357142Y-149500000D01*
X189452380Y-149452380D01*
X190738095Y-150452380D02*
X190166666Y-150452380D01*
X190452380Y-150452380D02*
X190452380Y-149452380D01*
X190357142Y-149595238D01*
X190261904Y-149690476D01*
X190166666Y-149738095D01*
X213761904Y-76702380D02*
X213761904Y-75702380D01*
X214000000Y-75702380D01*
X214142857Y-75750000D01*
X214238095Y-75845238D01*
X214285714Y-75940476D01*
X214333333Y-76130952D01*
X214333333Y-76273809D01*
X214285714Y-76464285D01*
X214238095Y-76559523D01*
X214142857Y-76654761D01*
X214000000Y-76702380D01*
X213761904Y-76702380D01*
X214714285Y-75797619D02*
X214761904Y-75750000D01*
X214857142Y-75702380D01*
X215095238Y-75702380D01*
X215190476Y-75750000D01*
X215238095Y-75797619D01*
X215285714Y-75892857D01*
X215285714Y-75988095D01*
X215238095Y-76130952D01*
X214666666Y-76702380D01*
X215285714Y-76702380D01*
X227202380Y-153488095D02*
X226202380Y-153488095D01*
X226202380Y-153250000D01*
X226250000Y-153107142D01*
X226345238Y-153011904D01*
X226440476Y-152964285D01*
X226630952Y-152916666D01*
X226773809Y-152916666D01*
X226964285Y-152964285D01*
X227059523Y-153011904D01*
X227154761Y-153107142D01*
X227202380Y-153250000D01*
X227202380Y-153488095D01*
X227202380Y-151964285D02*
X227202380Y-152535714D01*
X227202380Y-152250000D02*
X226202380Y-152250000D01*
X226345238Y-152345238D01*
X226440476Y-152440476D01*
X226488095Y-152535714D01*
X203380952Y-79357142D02*
X203333333Y-79404761D01*
X203190476Y-79452380D01*
X203095238Y-79452380D01*
X202952380Y-79404761D01*
X202857142Y-79309523D01*
X202809523Y-79214285D01*
X202761904Y-79023809D01*
X202761904Y-78880952D01*
X202809523Y-78690476D01*
X202857142Y-78595238D01*
X202952380Y-78500000D01*
X203095238Y-78452380D01*
X203190476Y-78452380D01*
X203333333Y-78500000D01*
X203380952Y-78547619D01*
X204333333Y-79452380D02*
X203761904Y-79452380D01*
X204047619Y-79452380D02*
X204047619Y-78452380D01*
X203952380Y-78595238D01*
X203857142Y-78690476D01*
X203761904Y-78738095D01*
X204952380Y-78452380D02*
X205047619Y-78452380D01*
X205142857Y-78500000D01*
X205190476Y-78547619D01*
X205238095Y-78642857D01*
X205285714Y-78833333D01*
X205285714Y-79071428D01*
X205238095Y-79261904D01*
X205190476Y-79357142D01*
X205142857Y-79404761D01*
X205047619Y-79452380D01*
X204952380Y-79452380D01*
X204857142Y-79404761D01*
X204809523Y-79357142D01*
X204761904Y-79261904D01*
X204714285Y-79071428D01*
X204714285Y-78833333D01*
X204761904Y-78642857D01*
X204809523Y-78547619D01*
X204857142Y-78500000D01*
X204952380Y-78452380D01*
X206142857Y-78785714D02*
X206142857Y-79452380D01*
X205904761Y-78404761D02*
X205666666Y-79119047D01*
X206285714Y-79119047D01*
X199640952Y-100607142D02*
X199593333Y-100654761D01*
X199450476Y-100702380D01*
X199355238Y-100702380D01*
X199212380Y-100654761D01*
X199117142Y-100559523D01*
X199069523Y-100464285D01*
X199021904Y-100273809D01*
X199021904Y-100130952D01*
X199069523Y-99940476D01*
X199117142Y-99845238D01*
X199212380Y-99750000D01*
X199355238Y-99702380D01*
X199450476Y-99702380D01*
X199593333Y-99750000D01*
X199640952Y-99797619D01*
X200593333Y-100702380D02*
X200021904Y-100702380D01*
X200307619Y-100702380D02*
X200307619Y-99702380D01*
X200212380Y-99845238D01*
X200117142Y-99940476D01*
X200021904Y-99988095D01*
X201212380Y-99702380D02*
X201307619Y-99702380D01*
X201402857Y-99750000D01*
X201450476Y-99797619D01*
X201498095Y-99892857D01*
X201545714Y-100083333D01*
X201545714Y-100321428D01*
X201498095Y-100511904D01*
X201450476Y-100607142D01*
X201402857Y-100654761D01*
X201307619Y-100702380D01*
X201212380Y-100702380D01*
X201117142Y-100654761D01*
X201069523Y-100607142D01*
X201021904Y-100511904D01*
X200974285Y-100321428D01*
X200974285Y-100083333D01*
X201021904Y-99892857D01*
X201069523Y-99797619D01*
X201117142Y-99750000D01*
X201212380Y-99702380D01*
X201879047Y-99702380D02*
X202498095Y-99702380D01*
X202164761Y-100083333D01*
X202307619Y-100083333D01*
X202402857Y-100130952D01*
X202450476Y-100178571D01*
X202498095Y-100273809D01*
X202498095Y-100511904D01*
X202450476Y-100607142D01*
X202402857Y-100654761D01*
X202307619Y-100702380D01*
X202021904Y-100702380D01*
X201926666Y-100654761D01*
X201879047Y-100607142D01*
X199880952Y-124912142D02*
X199833333Y-124959761D01*
X199690476Y-125007380D01*
X199595238Y-125007380D01*
X199452380Y-124959761D01*
X199357142Y-124864523D01*
X199309523Y-124769285D01*
X199261904Y-124578809D01*
X199261904Y-124435952D01*
X199309523Y-124245476D01*
X199357142Y-124150238D01*
X199452380Y-124055000D01*
X199595238Y-124007380D01*
X199690476Y-124007380D01*
X199833333Y-124055000D01*
X199880952Y-124102619D01*
X200833333Y-125007380D02*
X200261904Y-125007380D01*
X200547619Y-125007380D02*
X200547619Y-124007380D01*
X200452380Y-124150238D01*
X200357142Y-124245476D01*
X200261904Y-124293095D01*
X201452380Y-124007380D02*
X201547619Y-124007380D01*
X201642857Y-124055000D01*
X201690476Y-124102619D01*
X201738095Y-124197857D01*
X201785714Y-124388333D01*
X201785714Y-124626428D01*
X201738095Y-124816904D01*
X201690476Y-124912142D01*
X201642857Y-124959761D01*
X201547619Y-125007380D01*
X201452380Y-125007380D01*
X201357142Y-124959761D01*
X201309523Y-124912142D01*
X201261904Y-124816904D01*
X201214285Y-124626428D01*
X201214285Y-124388333D01*
X201261904Y-124197857D01*
X201309523Y-124102619D01*
X201357142Y-124055000D01*
X201452380Y-124007380D01*
X202166666Y-124102619D02*
X202214285Y-124055000D01*
X202309523Y-124007380D01*
X202547619Y-124007380D01*
X202642857Y-124055000D01*
X202690476Y-124102619D01*
X202738095Y-124197857D01*
X202738095Y-124293095D01*
X202690476Y-124435952D01*
X202119047Y-125007380D01*
X202738095Y-125007380D01*
X180630952Y-129357142D02*
X180583333Y-129404761D01*
X180440476Y-129452380D01*
X180345238Y-129452380D01*
X180202380Y-129404761D01*
X180107142Y-129309523D01*
X180059523Y-129214285D01*
X180011904Y-129023809D01*
X180011904Y-128880952D01*
X180059523Y-128690476D01*
X180107142Y-128595238D01*
X180202380Y-128500000D01*
X180345238Y-128452380D01*
X180440476Y-128452380D01*
X180583333Y-128500000D01*
X180630952Y-128547619D01*
X181583333Y-129452380D02*
X181011904Y-129452380D01*
X181297619Y-129452380D02*
X181297619Y-128452380D01*
X181202380Y-128595238D01*
X181107142Y-128690476D01*
X181011904Y-128738095D01*
X182202380Y-128452380D02*
X182297619Y-128452380D01*
X182392857Y-128500000D01*
X182440476Y-128547619D01*
X182488095Y-128642857D01*
X182535714Y-128833333D01*
X182535714Y-129071428D01*
X182488095Y-129261904D01*
X182440476Y-129357142D01*
X182392857Y-129404761D01*
X182297619Y-129452380D01*
X182202380Y-129452380D01*
X182107142Y-129404761D01*
X182059523Y-129357142D01*
X182011904Y-129261904D01*
X181964285Y-129071428D01*
X181964285Y-128833333D01*
X182011904Y-128642857D01*
X182059523Y-128547619D01*
X182107142Y-128500000D01*
X182202380Y-128452380D01*
X183488095Y-129452380D02*
X182916666Y-129452380D01*
X183202380Y-129452380D02*
X183202380Y-128452380D01*
X183107142Y-128595238D01*
X183011904Y-128690476D01*
X182916666Y-128738095D01*
X221083333Y-141607142D02*
X221035714Y-141654761D01*
X220892857Y-141702380D01*
X220797619Y-141702380D01*
X220654761Y-141654761D01*
X220559523Y-141559523D01*
X220511904Y-141464285D01*
X220464285Y-141273809D01*
X220464285Y-141130952D01*
X220511904Y-140940476D01*
X220559523Y-140845238D01*
X220654761Y-140750000D01*
X220797619Y-140702380D01*
X220892857Y-140702380D01*
X221035714Y-140750000D01*
X221083333Y-140797619D01*
X221416666Y-140702380D02*
X222083333Y-140702380D01*
X221654761Y-141702380D01*
X217583333Y-136607142D02*
X217535714Y-136654761D01*
X217392857Y-136702380D01*
X217297619Y-136702380D01*
X217154761Y-136654761D01*
X217059523Y-136559523D01*
X217011904Y-136464285D01*
X216964285Y-136273809D01*
X216964285Y-136130952D01*
X217011904Y-135940476D01*
X217059523Y-135845238D01*
X217154761Y-135750000D01*
X217297619Y-135702380D01*
X217392857Y-135702380D01*
X217535714Y-135750000D01*
X217583333Y-135797619D01*
X218440476Y-135702380D02*
X218250000Y-135702380D01*
X218154761Y-135750000D01*
X218107142Y-135797619D01*
X218011904Y-135940476D01*
X217964285Y-136130952D01*
X217964285Y-136511904D01*
X218011904Y-136607142D01*
X218059523Y-136654761D01*
X218154761Y-136702380D01*
X218345238Y-136702380D01*
X218440476Y-136654761D01*
X218488095Y-136607142D01*
X218535714Y-136511904D01*
X218535714Y-136273809D01*
X218488095Y-136178571D01*
X218440476Y-136130952D01*
X218345238Y-136083333D01*
X218154761Y-136083333D01*
X218059523Y-136130952D01*
X218011904Y-136178571D01*
X217964285Y-136273809D01*
X222833333Y-143957142D02*
X222785714Y-144004761D01*
X222642857Y-144052380D01*
X222547619Y-144052380D01*
X222404761Y-144004761D01*
X222309523Y-143909523D01*
X222261904Y-143814285D01*
X222214285Y-143623809D01*
X222214285Y-143480952D01*
X222261904Y-143290476D01*
X222309523Y-143195238D01*
X222404761Y-143100000D01*
X222547619Y-143052380D01*
X222642857Y-143052380D01*
X222785714Y-143100000D01*
X222833333Y-143147619D01*
X223738095Y-143052380D02*
X223261904Y-143052380D01*
X223214285Y-143528571D01*
X223261904Y-143480952D01*
X223357142Y-143433333D01*
X223595238Y-143433333D01*
X223690476Y-143480952D01*
X223738095Y-143528571D01*
X223785714Y-143623809D01*
X223785714Y-143861904D01*
X223738095Y-143957142D01*
X223690476Y-144004761D01*
X223595238Y-144052380D01*
X223357142Y-144052380D01*
X223261904Y-144004761D01*
X223214285Y-143957142D01*
X211107142Y-159166666D02*
X211154761Y-159214285D01*
X211202380Y-159357142D01*
X211202380Y-159452380D01*
X211154761Y-159595238D01*
X211059523Y-159690476D01*
X210964285Y-159738095D01*
X210773809Y-159785714D01*
X210630952Y-159785714D01*
X210440476Y-159738095D01*
X210345238Y-159690476D01*
X210250000Y-159595238D01*
X210202380Y-159452380D01*
X210202380Y-159357142D01*
X210250000Y-159214285D01*
X210297619Y-159166666D01*
X210535714Y-158309523D02*
X211202380Y-158309523D01*
X210154761Y-158547619D02*
X210869047Y-158785714D01*
X210869047Y-158166666D01*
X223857142Y-159166666D02*
X223904761Y-159214285D01*
X223952380Y-159357142D01*
X223952380Y-159452380D01*
X223904761Y-159595238D01*
X223809523Y-159690476D01*
X223714285Y-159738095D01*
X223523809Y-159785714D01*
X223380952Y-159785714D01*
X223190476Y-159738095D01*
X223095238Y-159690476D01*
X223000000Y-159595238D01*
X222952380Y-159452380D01*
X222952380Y-159357142D01*
X223000000Y-159214285D01*
X223047619Y-159166666D01*
X222952380Y-158833333D02*
X222952380Y-158214285D01*
X223333333Y-158547619D01*
X223333333Y-158404761D01*
X223380952Y-158309523D01*
X223428571Y-158261904D01*
X223523809Y-158214285D01*
X223761904Y-158214285D01*
X223857142Y-158261904D01*
X223904761Y-158309523D01*
X223952380Y-158404761D01*
X223952380Y-158690476D01*
X223904761Y-158785714D01*
X223857142Y-158833333D01*
X208333333Y-161607142D02*
X208285714Y-161654761D01*
X208142857Y-161702380D01*
X208047619Y-161702380D01*
X207904761Y-161654761D01*
X207809523Y-161559523D01*
X207761904Y-161464285D01*
X207714285Y-161273809D01*
X207714285Y-161130952D01*
X207761904Y-160940476D01*
X207809523Y-160845238D01*
X207904761Y-160750000D01*
X208047619Y-160702380D01*
X208142857Y-160702380D01*
X208285714Y-160750000D01*
X208333333Y-160797619D01*
X208714285Y-160797619D02*
X208761904Y-160750000D01*
X208857142Y-160702380D01*
X209095238Y-160702380D01*
X209190476Y-160750000D01*
X209238095Y-160797619D01*
X209285714Y-160892857D01*
X209285714Y-160988095D01*
X209238095Y-161130952D01*
X208666666Y-161702380D01*
X209285714Y-161702380D01*
X203333333Y-140857142D02*
X203285714Y-140904761D01*
X203142857Y-140952380D01*
X203047619Y-140952380D01*
X202904761Y-140904761D01*
X202809523Y-140809523D01*
X202761904Y-140714285D01*
X202714285Y-140523809D01*
X202714285Y-140380952D01*
X202761904Y-140190476D01*
X202809523Y-140095238D01*
X202904761Y-140000000D01*
X203047619Y-139952380D01*
X203142857Y-139952380D01*
X203285714Y-140000000D01*
X203333333Y-140047619D01*
X204285714Y-140952380D02*
X203714285Y-140952380D01*
X204000000Y-140952380D02*
X204000000Y-139952380D01*
X203904761Y-140095238D01*
X203809523Y-140190476D01*
X203714285Y-140238095D01*
%LPC*%
D14*
X204800000Y-163500000D03*
X203200000Y-163500000D03*
D15*
X190250000Y-159250000D03*
X191200000Y-161250000D03*
X189300000Y-161250000D03*
D16*
X185000000Y-119600000D03*
X185000000Y-89100000D03*
X213500000Y-119600000D03*
X213500000Y-89100000D03*
X197750000Y-148750000D03*
X228750000Y-159750000D03*
X197750000Y-78750000D03*
X182750000Y-159750000D03*
D17*
X206050000Y-128555000D03*
X206050000Y-129825000D03*
X206050000Y-131095000D03*
X206050000Y-132365000D03*
X206050000Y-133635000D03*
X206050000Y-134905000D03*
X206050000Y-136175000D03*
X206050000Y-137445000D03*
X198950000Y-137445000D03*
X198950000Y-136175000D03*
X198950000Y-134905000D03*
X198950000Y-133635000D03*
X198950000Y-132365000D03*
X198950000Y-131095000D03*
X198950000Y-129825000D03*
X198950000Y-128555000D03*
X206050000Y-103730000D03*
X206050000Y-105000000D03*
X206050000Y-106270000D03*
X206050000Y-107540000D03*
X206050000Y-108810000D03*
X206050000Y-110080000D03*
X206050000Y-111350000D03*
X206050000Y-112620000D03*
X198950000Y-112620000D03*
X198950000Y-111350000D03*
X198950000Y-110080000D03*
X198950000Y-108810000D03*
X198950000Y-107540000D03*
X198950000Y-106270000D03*
X198950000Y-105000000D03*
X198950000Y-103730000D03*
X206050000Y-84555000D03*
X206050000Y-85825000D03*
X206050000Y-87095000D03*
X206050000Y-88365000D03*
X206050000Y-89635000D03*
X206050000Y-90905000D03*
X206050000Y-92175000D03*
X206050000Y-93445000D03*
X198950000Y-93445000D03*
X198950000Y-92175000D03*
X198950000Y-90905000D03*
X198950000Y-89635000D03*
X198950000Y-88365000D03*
X198950000Y-87095000D03*
X198950000Y-85825000D03*
X198950000Y-84555000D03*
D18*
X218700000Y-156095000D03*
X218700000Y-157365000D03*
X218700000Y-158635000D03*
X218700000Y-159905000D03*
X213300000Y-159905000D03*
X213300000Y-158635000D03*
X213300000Y-157365000D03*
X213300000Y-156095000D03*
D19*
X216000000Y-128750000D03*
X224000000Y-79000000D03*
X230500000Y-79000000D03*
X211500000Y-128750000D03*
D14*
X219050000Y-79750000D03*
X217450000Y-79750000D03*
X214400000Y-94100000D03*
X212800000Y-94100000D03*
X214400000Y-95900000D03*
X212800000Y-95900000D03*
X219050000Y-77750000D03*
X217450000Y-77750000D03*
X211700000Y-162000000D03*
X213300000Y-162000000D03*
X215200000Y-162000000D03*
X216800000Y-162000000D03*
D20*
X203500000Y-151300000D03*
X203500000Y-149700000D03*
X201000000Y-145300000D03*
X201000000Y-143700000D03*
D21*
X215500000Y-152500000D03*
X215500000Y-144500000D03*
D22*
X214000000Y-108120000D03*
X214000000Y-105580000D03*
X214000000Y-103040000D03*
D23*
X214000000Y-100500000D03*
D24*
X189460000Y-148240000D03*
X192000000Y-148240000D03*
X189460000Y-145700000D03*
X192000000Y-145700000D03*
X189460000Y-143160000D03*
X192000000Y-143160000D03*
X189460000Y-140620000D03*
X192000000Y-140620000D03*
X189460000Y-138080000D03*
X192000000Y-138080000D03*
X189460000Y-135540000D03*
X192000000Y-135540000D03*
X189460000Y-133000000D03*
D25*
X192000000Y-133000000D03*
D24*
X189460000Y-121140000D03*
X192000000Y-121140000D03*
X189460000Y-118600000D03*
X192000000Y-118600000D03*
X189460000Y-116060000D03*
X192000000Y-116060000D03*
X189460000Y-113520000D03*
X192000000Y-113520000D03*
X189460000Y-110980000D03*
X192000000Y-110980000D03*
X189460000Y-108440000D03*
X192000000Y-108440000D03*
X189460000Y-105900000D03*
X192000000Y-105900000D03*
X189460000Y-103360000D03*
X192000000Y-103360000D03*
X189460000Y-100820000D03*
X192000000Y-100820000D03*
X189460000Y-98280000D03*
X192000000Y-98280000D03*
X189460000Y-95740000D03*
X192000000Y-95740000D03*
X189460000Y-93200000D03*
X192000000Y-93200000D03*
X189460000Y-90660000D03*
X192000000Y-90660000D03*
X189460000Y-88120000D03*
X192000000Y-88120000D03*
X189460000Y-85580000D03*
X192000000Y-85580000D03*
X189460000Y-83040000D03*
X192000000Y-83040000D03*
X189460000Y-80500000D03*
D25*
X192000000Y-80500000D03*
D22*
X223540000Y-132260000D03*
X221000000Y-132260000D03*
X223540000Y-129720000D03*
X221000000Y-129720000D03*
X223540000Y-127180000D03*
X221000000Y-127180000D03*
X223540000Y-124640000D03*
X221000000Y-124640000D03*
X223540000Y-122100000D03*
X221000000Y-122100000D03*
X223540000Y-119560000D03*
X221000000Y-119560000D03*
X223540000Y-117020000D03*
X221000000Y-117020000D03*
X223540000Y-114480000D03*
X221000000Y-114480000D03*
X223540000Y-111940000D03*
X221000000Y-111940000D03*
X223540000Y-109400000D03*
X221000000Y-109400000D03*
X223540000Y-106860000D03*
X221000000Y-106860000D03*
X223540000Y-104320000D03*
X221000000Y-104320000D03*
X223540000Y-101780000D03*
X221000000Y-101780000D03*
X223540000Y-99240000D03*
X221000000Y-99240000D03*
X223540000Y-96700000D03*
X221000000Y-96700000D03*
X223540000Y-94160000D03*
X221000000Y-94160000D03*
X223540000Y-91620000D03*
X221000000Y-91620000D03*
X223540000Y-89080000D03*
X221000000Y-89080000D03*
X223540000Y-86540000D03*
X221000000Y-86540000D03*
X223540000Y-84000000D03*
D23*
X221000000Y-84000000D03*
D26*
X199000000Y-156750000D03*
D27*
X196500000Y-156750000D03*
D14*
X213700000Y-79750000D03*
X215300000Y-79750000D03*
D28*
X185650000Y-125200000D03*
X185650000Y-128400000D03*
X190550000Y-125200000D03*
X190550000Y-128400000D03*
D29*
X191150000Y-153000000D03*
X186850000Y-153000000D03*
D14*
X213700000Y-77750000D03*
X215300000Y-77750000D03*
D30*
X223500000Y-154900000D03*
X223500000Y-150600000D03*
D31*
X203990000Y-80750000D03*
X205750000Y-80750000D03*
X203750000Y-100250000D03*
X205510000Y-100250000D03*
X203990000Y-124555000D03*
X205750000Y-124555000D03*
D32*
X182400000Y-126980000D03*
X182400000Y-125220000D03*
D14*
X219300000Y-141250000D03*
X217700000Y-141250000D03*
D33*
X210300000Y-138250000D03*
X215700000Y-138250000D03*
D31*
X223880000Y-145250000D03*
X222120000Y-145250000D03*
D20*
X210750000Y-157050000D03*
X210750000Y-155450000D03*
D34*
X221500000Y-160430000D03*
X221500000Y-157570000D03*
D35*
X206000000Y-159200000D03*
X206000000Y-153800000D03*
X206000000Y-147700000D03*
X206000000Y-142300000D03*
M02*
