M48
; DRILL file {KiCad (5.99.0-490-gc7ce93e10)} date Di 10 Dez 2019 11:33:52 CET
; FORMAT={2:4/ absolute / inch / suppress leading zeros}
; #@! TF.CreationDate,2019-12-10T11:33:52+01:00
; #@! TF.GenerationSoftware,Kicad,Pcbnew,(5.99.0-490-gc7ce93e10)
; #@! TF.FileFunction,Plated,1,2,PTH
FMAT,2
INCH,TZ
T1C0.0118
T2C0.0157
T3C0.0394
T4C0.0400
T5C0.0630
%
G90
G05
T1
X71811Y-50236
X74764Y-50551
X77992Y-36811
X77992Y-44331
X78031Y-54134
X79327Y-56024
X79961Y-39449
X80079Y-31811
X80079Y-49055
X80118Y-59744
X80236Y-49528
X80236Y-49843
X80906Y-62008
X81299Y-62008
X81417Y-42835
X81417Y-43346
X81417Y-52126
X81457Y-34803
X81457Y-42323
X82244Y-42835
X82244Y-43583
X82244Y-44291
X82480Y-49488
X82480Y-49843
X82756Y-38976
X83169Y-63780
X83465Y-54232
X83465Y-54626
X84961Y-37047
X85039Y-49291
X85709Y-37756
X85787Y-62441
X86417Y-30591
X86417Y-31378
X86417Y-62441
X86516Y-55610
X87028Y-54429
X87205Y-63386
X87795Y-61516
X88189Y-61516
X88386Y-57185
X89094Y-34567
T2
X74902Y-62500
X75295Y-63681
X80413Y-36319
X80413Y-40846
X80413Y-53543
X80418Y-50315
X80512Y-43799
X80906Y-38976
X81004Y-48622
X81102Y-32776
X82441Y-56575
X87717Y-63780
X88465Y-63780
T3
X84252Y-39567
X84252Y-40567
X84252Y-41567
X84252Y-42567
X77362Y-61713
X78346Y-61713
X87008Y-33071
X87008Y-34071
X87008Y-35071
X87008Y-36071
X87008Y-37071
X87008Y-38071
X87008Y-39071
X87008Y-40071
X87008Y-41071
X87008Y-42071
X87008Y-43071
X87008Y-44071
X87008Y-45071
X87008Y-46071
X87008Y-47071
X87008Y-48071
X87008Y-49071
X87008Y-50071
X87008Y-51071
X87008Y-52071
X88008Y-33071
X88008Y-34071
X88008Y-35071
X88008Y-36071
X88008Y-37071
X88008Y-38071
X88008Y-39071
X88008Y-40071
X88008Y-41071
X88008Y-42071
X88008Y-43071
X88008Y-44071
X88008Y-45071
X88008Y-46071
X88008Y-47071
X88008Y-48071
X88008Y-49071
X88008Y-50071
X88008Y-51071
X88008Y-52071
T4
X74591Y-52362
X74591Y-53362
X74591Y-54362
X74591Y-55362
X74591Y-56362
X74591Y-57362
X74591Y-58362
X75591Y-52362
X75591Y-53362
X75591Y-54362
X75591Y-55362
X75591Y-56362
X75591Y-57362
X75591Y-58362
X74591Y-31693
X74591Y-32693
X74591Y-33693
X74591Y-34693
X74591Y-35693
X74591Y-36693
X74591Y-37693
X74591Y-38693
X74591Y-39693
X74591Y-40693
X74591Y-41693
X74591Y-42693
X74591Y-43693
X74591Y-44693
X74591Y-45693
X74591Y-46693
X74591Y-47693
X75591Y-31693
X75591Y-32693
X75591Y-33693
X75591Y-34693
X75591Y-35693
X75591Y-36693
X75591Y-37693
X75591Y-38693
X75591Y-39693
X75591Y-40693
X75591Y-41693
X75591Y-42693
X75591Y-43693
X75591Y-44693
X75591Y-45693
X75591Y-46693
X75591Y-47693
T5
X83268Y-50689
X90748Y-31102
X88189Y-31102
X85039Y-50689
T0
M30
