G04 #@! TF.GenerationSoftware,KiCad,Pcbnew,(5.99.0-490-gc7ce93e10)*
G04 #@! TF.CreationDate,2019-12-10T12:24:38+01:00*
G04 #@! TF.ProjectId,Led,4c65642e-6b69-4636-9164-5f7063625858,rev?*
G04 #@! TF.SameCoordinates,Original*
G04 #@! TF.FileFunction,Soldermask,Top*
G04 #@! TF.FilePolarity,Negative*
%FSLAX46Y46*%
G04 Gerber Fmt 4.6, Leading zero omitted, Abs format (unit mm)*
G04 Created by KiCad (PCBNEW (5.99.0-490-gc7ce93e10)) date 2019-12-10 12:24:38*
%MOMM*%
%LPD*%
G04 APERTURE LIST*
%ADD10R,0.900000X1.300000*%
%ADD11R,2.100000X2.100000*%
%ADD12O,2.100000X2.100000*%
%ADD13R,1.200000X3.100000*%
%ADD14R,1.900000X3.000000*%
%ADD15R,1.400000X1.650000*%
%ADD16R,1.150000X1.200000*%
%ADD17R,2.000000X1.400000*%
%ADD18R,1.460000X1.050000*%
%ADD19R,1.300000X1.200000*%
%ADD20R,1.300000X0.900000*%
%ADD21R,2.500000X2.500000*%
%ADD22R,2.500000X1.400000*%
%ADD23R,2.100000X1.300000*%
%ADD24R,1.300000X2.100000*%
G04 APERTURE END LIST*
D10*
X42250000Y-26500000D03*
X43750000Y-26500000D03*
X50250000Y-47000000D03*
X51750000Y-47000000D03*
D11*
X47000000Y-29000000D03*
D12*
X44460000Y-29000000D03*
X41920000Y-29000000D03*
D13*
X85100000Y-36000000D03*
X82900000Y-36000000D03*
X61100000Y-28000000D03*
X58900000Y-28000000D03*
X74100000Y-28000000D03*
X71900000Y-28000000D03*
G36*
X55788226Y-84956748D02*
G01*
X58742649Y-85477693D01*
X58412718Y-87348828D01*
X55458295Y-86827883D01*
X55788226Y-84956748D01*
G37*
G36*
X55267282Y-87911172D02*
G01*
X58221705Y-88432117D01*
X57891774Y-90303252D01*
X54937351Y-89782307D01*
X55267282Y-87911172D01*
G37*
G36*
X48925962Y-81908238D02*
G01*
X51524038Y-83408238D01*
X50574038Y-85053686D01*
X47975962Y-83553686D01*
X48925962Y-81908238D01*
G37*
G36*
X47425962Y-84506314D02*
G01*
X50024038Y-86006314D01*
X49074038Y-87651762D01*
X46475962Y-86151762D01*
X47425962Y-84506314D01*
G37*
G36*
X43532628Y-76696104D02*
G01*
X45460991Y-78994237D01*
X44005506Y-80215534D01*
X42077143Y-77917401D01*
X43532628Y-76696104D01*
G37*
G36*
X41234494Y-78624466D02*
G01*
X43162857Y-80922599D01*
X41707372Y-82143896D01*
X39779009Y-79845763D01*
X41234494Y-78624466D01*
G37*
G36*
X40239217Y-69952512D02*
G01*
X41265277Y-72771590D01*
X39479861Y-73421428D01*
X38453801Y-70602350D01*
X40239217Y-69952512D01*
G37*
G36*
X37420139Y-70978572D02*
G01*
X38446199Y-73797650D01*
X36660783Y-74447488D01*
X35634723Y-71628410D01*
X37420139Y-70978572D01*
G37*
D14*
X38500000Y-64000000D03*
X35500000Y-64000000D03*
G36*
X41265277Y-55228410D02*
G01*
X40239217Y-58047488D01*
X38453801Y-57397650D01*
X39479861Y-54578572D01*
X41265277Y-55228410D01*
G37*
G36*
X38446199Y-54202350D02*
G01*
X37420139Y-57021428D01*
X35634723Y-56371590D01*
X36660783Y-53552512D01*
X38446199Y-54202350D01*
G37*
G36*
X45460991Y-49005763D02*
G01*
X43532628Y-51303896D01*
X42077143Y-50082599D01*
X44005506Y-47784466D01*
X45460991Y-49005763D01*
G37*
G36*
X43162857Y-47077401D02*
G01*
X41234494Y-49375534D01*
X39779009Y-48154237D01*
X41707372Y-45856104D01*
X43162857Y-47077401D01*
G37*
G36*
X51524038Y-44591762D02*
G01*
X48925962Y-46091762D01*
X47975962Y-44446314D01*
X50574038Y-42946314D01*
X51524038Y-44591762D01*
G37*
G36*
X50024038Y-41993686D02*
G01*
X47425962Y-43493686D01*
X46475962Y-41848238D01*
X49074038Y-40348238D01*
X50024038Y-41993686D01*
G37*
G36*
X58742649Y-42522307D02*
G01*
X55788226Y-43043252D01*
X55458295Y-41172117D01*
X58412718Y-40651172D01*
X58742649Y-42522307D01*
G37*
G36*
X58221705Y-39567883D02*
G01*
X55267282Y-40088828D01*
X54937351Y-38217693D01*
X57891774Y-37696748D01*
X58221705Y-39567883D01*
G37*
G36*
X66211774Y-43043252D02*
G01*
X63257351Y-42522307D01*
X63587282Y-40651172D01*
X66541705Y-41172117D01*
X66211774Y-43043252D01*
G37*
G36*
X66732718Y-40088828D02*
G01*
X63778295Y-39567883D01*
X64108226Y-37696748D01*
X67062649Y-38217693D01*
X66732718Y-40088828D01*
G37*
G36*
X78467372Y-51303896D02*
G01*
X76539009Y-49005763D01*
X77994494Y-47784466D01*
X79922857Y-50082599D01*
X78467372Y-51303896D01*
G37*
G36*
X80765506Y-49375534D02*
G01*
X78837143Y-47077401D01*
X80292628Y-45856104D01*
X82220991Y-48154237D01*
X80765506Y-49375534D01*
G37*
G36*
X81760783Y-58047488D02*
G01*
X80734723Y-55228410D01*
X82520139Y-54578572D01*
X83546199Y-57397650D01*
X81760783Y-58047488D01*
G37*
G36*
X84579861Y-57021428D02*
G01*
X83553801Y-54202350D01*
X85339217Y-53552512D01*
X86365277Y-56371590D01*
X84579861Y-57021428D01*
G37*
X83500000Y-64000000D03*
X86500000Y-64000000D03*
G36*
X80734723Y-72771590D02*
G01*
X81760783Y-69952512D01*
X83546199Y-70602350D01*
X82520139Y-73421428D01*
X80734723Y-72771590D01*
G37*
G36*
X83553801Y-73797650D02*
G01*
X84579861Y-70978572D01*
X86365277Y-71628410D01*
X85339217Y-74447488D01*
X83553801Y-73797650D01*
G37*
G36*
X76539009Y-78994237D02*
G01*
X78467372Y-76696104D01*
X79922857Y-77917401D01*
X77994494Y-80215534D01*
X76539009Y-78994237D01*
G37*
G36*
X78837143Y-80922599D02*
G01*
X80765506Y-78624466D01*
X82220991Y-79845763D01*
X80292628Y-82143896D01*
X78837143Y-80922599D01*
G37*
G36*
X70465962Y-83408238D02*
G01*
X73064038Y-81908238D01*
X74014038Y-83553686D01*
X71415962Y-85053686D01*
X70465962Y-83408238D01*
G37*
G36*
X71965962Y-86006314D02*
G01*
X74564038Y-84506314D01*
X75514038Y-86151762D01*
X72915962Y-87651762D01*
X71965962Y-86006314D01*
G37*
G36*
X63257351Y-85477693D02*
G01*
X66211774Y-84956748D01*
X66541705Y-86827883D01*
X63587282Y-87348828D01*
X63257351Y-85477693D01*
G37*
G36*
X63778295Y-88432117D02*
G01*
X66732718Y-87911172D01*
X67062649Y-89782307D01*
X64108226Y-90303252D01*
X63778295Y-88432117D01*
G37*
D15*
X74000000Y-37000000D03*
X72000000Y-37000000D03*
X84000000Y-45000000D03*
X82000000Y-45000000D03*
D16*
X76000000Y-32250000D03*
X76000000Y-33750000D03*
D15*
X54000000Y-36000000D03*
X52000000Y-36000000D03*
D16*
X63000000Y-32250000D03*
X63000000Y-33750000D03*
X88000000Y-37250000D03*
X88000000Y-38750000D03*
X37000000Y-42750000D03*
X37000000Y-41250000D03*
D17*
X68000000Y-26500000D03*
X68000000Y-29500000D03*
X55000000Y-26500000D03*
X55000000Y-29500000D03*
X79000000Y-34500000D03*
X79000000Y-37500000D03*
D18*
X55900000Y-32050000D03*
X55900000Y-33000000D03*
X55900000Y-33950000D03*
X58100000Y-33950000D03*
X58100000Y-32050000D03*
X79900000Y-40050000D03*
X79900000Y-41000000D03*
X79900000Y-41950000D03*
X82100000Y-41950000D03*
X82100000Y-40050000D03*
X68900000Y-32050000D03*
X68900000Y-33000000D03*
X68900000Y-33950000D03*
X71100000Y-33950000D03*
X71100000Y-32050000D03*
D19*
X40000000Y-41050000D03*
X40000000Y-42950000D03*
X42000000Y-42000000D03*
D20*
X74000000Y-33750000D03*
X74000000Y-32250000D03*
X61000000Y-33750000D03*
X61000000Y-32250000D03*
X86000000Y-41750000D03*
X86000000Y-40250000D03*
G36*
X73274038Y-45871762D02*
G01*
X70675962Y-44371762D01*
X71625962Y-42726314D01*
X74224038Y-44226314D01*
X73274038Y-45871762D01*
G37*
G36*
X74774038Y-43273686D02*
G01*
X72175962Y-41773686D01*
X73125962Y-40128238D01*
X75724038Y-41628238D01*
X74774038Y-43273686D01*
G37*
D21*
X61000000Y-82810000D03*
D22*
X61000000Y-80650000D03*
G36*
X53825873Y-80069010D02*
G01*
X56175105Y-80924060D01*
X55320055Y-83273292D01*
X52970823Y-82418242D01*
X53825873Y-80069010D01*
G37*
G36*
X54376525Y-78556105D02*
G01*
X56725757Y-79411155D01*
X56246929Y-80726725D01*
X53897697Y-79871675D01*
X54376525Y-78556105D01*
G37*
G36*
X48755271Y-76639456D02*
G01*
X50670382Y-78246425D01*
X49063413Y-80161536D01*
X47148302Y-78554567D01*
X48755271Y-76639456D01*
G37*
G36*
X49790159Y-75406124D02*
G01*
X51705270Y-77013093D01*
X50805367Y-78085556D01*
X48890256Y-76478587D01*
X49790159Y-75406124D01*
G37*
G36*
X45176051Y-71697468D02*
G01*
X46426051Y-73862532D01*
X44260987Y-75112532D01*
X43010987Y-72947468D01*
X45176051Y-71697468D01*
G37*
G36*
X46570352Y-70892468D02*
G01*
X47820352Y-73057532D01*
X46607916Y-73757532D01*
X45357916Y-71592468D01*
X46570352Y-70892468D01*
G37*
G36*
X43496255Y-65812585D02*
G01*
X43930376Y-68274604D01*
X41468357Y-68708725D01*
X41034236Y-66246706D01*
X43496255Y-65812585D01*
G37*
G36*
X45081795Y-65533012D02*
G01*
X45515916Y-67995031D01*
X44137185Y-68238138D01*
X43703064Y-65776119D01*
X45081795Y-65533012D01*
G37*
G36*
X43930376Y-59725396D02*
G01*
X43496255Y-62187415D01*
X41034236Y-61753294D01*
X41468357Y-59291275D01*
X43930376Y-59725396D01*
G37*
G36*
X45515916Y-60004969D02*
G01*
X45081795Y-62466988D01*
X43703064Y-62223881D01*
X44137185Y-59761862D01*
X45515916Y-60004969D01*
G37*
G36*
X46426051Y-54137468D02*
G01*
X45176051Y-56302532D01*
X43010987Y-55052532D01*
X44260987Y-52887468D01*
X46426051Y-54137468D01*
G37*
G36*
X47820352Y-54942468D02*
G01*
X46570352Y-57107532D01*
X45357916Y-56407532D01*
X46607916Y-54242468D01*
X47820352Y-54942468D01*
G37*
G36*
X50670382Y-49753575D02*
G01*
X48755271Y-51360544D01*
X47148302Y-49445433D01*
X49063413Y-47838464D01*
X50670382Y-49753575D01*
G37*
G36*
X51705270Y-50986907D02*
G01*
X49790159Y-52593876D01*
X48890256Y-51521413D01*
X50805367Y-49914444D01*
X51705270Y-50986907D01*
G37*
G36*
X56175105Y-47075940D02*
G01*
X53825873Y-47930990D01*
X52970823Y-45581758D01*
X55320055Y-44726708D01*
X56175105Y-47075940D01*
G37*
G36*
X56725757Y-48588845D02*
G01*
X54376525Y-49443895D01*
X53897697Y-48128325D01*
X56246929Y-47273275D01*
X56725757Y-48588845D01*
G37*
D21*
X61000000Y-45190000D03*
D22*
X61000000Y-47350000D03*
G36*
X68174127Y-47930990D02*
G01*
X65824895Y-47075940D01*
X66679945Y-44726708D01*
X69029177Y-45581758D01*
X68174127Y-47930990D01*
G37*
G36*
X67623475Y-49443895D02*
G01*
X65274243Y-48588845D01*
X65753071Y-47273275D01*
X68102303Y-48128325D01*
X67623475Y-49443895D01*
G37*
G36*
X73244729Y-51360544D02*
G01*
X71329618Y-49753575D01*
X72936587Y-47838464D01*
X74851698Y-49445433D01*
X73244729Y-51360544D01*
G37*
G36*
X72209841Y-52593876D02*
G01*
X70294730Y-50986907D01*
X71194633Y-49914444D01*
X73109744Y-51521413D01*
X72209841Y-52593876D01*
G37*
G36*
X76823949Y-56312532D02*
G01*
X75573949Y-54147468D01*
X77739013Y-52897468D01*
X78989013Y-55062532D01*
X76823949Y-56312532D01*
G37*
G36*
X75429648Y-57117532D02*
G01*
X74179648Y-54952468D01*
X75392084Y-54252468D01*
X76642084Y-56417532D01*
X75429648Y-57117532D01*
G37*
G36*
X78503745Y-62187415D02*
G01*
X78069624Y-59725396D01*
X80531643Y-59291275D01*
X80965764Y-61753294D01*
X78503745Y-62187415D01*
G37*
G36*
X76918205Y-62466988D02*
G01*
X76484084Y-60004969D01*
X77862815Y-59761862D01*
X78296936Y-62223881D01*
X76918205Y-62466988D01*
G37*
G36*
X78069624Y-68274604D02*
G01*
X78503745Y-65812585D01*
X80965764Y-66246706D01*
X80531643Y-68708725D01*
X78069624Y-68274604D01*
G37*
G36*
X76484084Y-67995031D02*
G01*
X76918205Y-65533012D01*
X78296936Y-65776119D01*
X77862815Y-68238138D01*
X76484084Y-67995031D01*
G37*
G36*
X75573949Y-73862532D02*
G01*
X76823949Y-71697468D01*
X78989013Y-72947468D01*
X77739013Y-75112532D01*
X75573949Y-73862532D01*
G37*
G36*
X74179648Y-73057532D02*
G01*
X75429648Y-70892468D01*
X76642084Y-71592468D01*
X75392084Y-73757532D01*
X74179648Y-73057532D01*
G37*
G36*
X71329618Y-78246425D02*
G01*
X73244729Y-76639456D01*
X74851698Y-78554567D01*
X72936587Y-80161536D01*
X71329618Y-78246425D01*
G37*
G36*
X70294730Y-77013093D02*
G01*
X72209841Y-75406124D01*
X73109744Y-76478587D01*
X71194633Y-78085556D01*
X70294730Y-77013093D01*
G37*
G36*
X65824895Y-80924060D02*
G01*
X68174127Y-80069010D01*
X69029177Y-82418242D01*
X66679945Y-83273292D01*
X65824895Y-80924060D01*
G37*
G36*
X65274243Y-79411155D02*
G01*
X67623475Y-78556105D01*
X68102303Y-79871675D01*
X65753071Y-80726725D01*
X65274243Y-79411155D01*
G37*
D11*
X52000000Y-33000000D03*
D12*
X49460000Y-33000000D03*
X46920000Y-33000000D03*
X44380000Y-33000000D03*
D23*
X61000000Y-87050000D03*
X61000000Y-89950000D03*
D24*
X85450000Y-51500000D03*
X82550000Y-51500000D03*
D23*
X38000000Y-49050000D03*
X38000000Y-51950000D03*
M02*
