G04 #@! TF.GenerationSoftware,KiCad,Pcbnew,(5.99.0-490-gc7ce93e10)*
G04 #@! TF.CreationDate,2019-12-10T12:24:38+01:00*
G04 #@! TF.ProjectId,Led,4c65642e-6b69-4636-9164-5f7063625858,rev?*
G04 #@! TF.SameCoordinates,Original*
G04 #@! TF.FileFunction,Paste,Top*
G04 #@! TF.FilePolarity,Positive*
%FSLAX46Y46*%
G04 Gerber Fmt 4.6, Leading zero omitted, Abs format (unit mm)*
G04 Created by KiCad (PCBNEW (5.99.0-490-gc7ce93e10)) date 2019-12-10 12:24:38*
%MOMM*%
%LPD*%
G04 APERTURE LIST*
%ADD10R,0.500000X0.900000*%
%ADD11R,0.800000X2.700000*%
%ADD12R,1.500000X2.600000*%
%ADD13R,1.000000X1.250000*%
%ADD14R,0.750000X0.800000*%
%ADD15R,1.600000X1.000000*%
%ADD16R,1.060000X0.650000*%
%ADD17R,0.900000X0.800000*%
%ADD18R,0.900000X0.500000*%
%ADD19R,2.100000X2.100000*%
%ADD20R,2.100000X1.000000*%
%ADD21R,1.700000X0.900000*%
%ADD22R,0.900000X1.700000*%
G04 APERTURE END LIST*
D10*
X42250000Y-26500000D03*
X43750000Y-26500000D03*
X50250000Y-47000000D03*
X51750000Y-47000000D03*
D11*
X85100000Y-36000000D03*
X82900000Y-36000000D03*
X61100000Y-28000000D03*
X58900000Y-28000000D03*
X74100000Y-28000000D03*
X71900000Y-28000000D03*
G36*
X55950458Y-85188440D02*
G01*
X58510958Y-85639925D01*
X58250486Y-87117136D01*
X55689986Y-86665651D01*
X55950458Y-85188440D01*
G37*
G36*
X55429514Y-88142864D02*
G01*
X57990014Y-88594349D01*
X57729542Y-90071560D01*
X55169042Y-89620075D01*
X55429514Y-88142864D01*
G37*
G36*
X48999167Y-82181443D02*
G01*
X51250833Y-83481443D01*
X50500833Y-84780481D01*
X48249167Y-83480481D01*
X48999167Y-82181443D01*
G37*
G36*
X47499167Y-84779519D02*
G01*
X49750833Y-86079519D01*
X49000833Y-87378557D01*
X46749167Y-86078557D01*
X47499167Y-84779519D01*
G37*
G36*
X43507976Y-76977871D02*
G01*
X45179224Y-78969586D01*
X44030158Y-79933767D01*
X42358910Y-77942052D01*
X43507976Y-76977871D01*
G37*
G36*
X41209842Y-78906233D02*
G01*
X42881090Y-80897948D01*
X41732024Y-81862129D01*
X40060776Y-79870414D01*
X41209842Y-78906233D01*
G37*
G36*
X40119682Y-70208854D02*
G01*
X41008935Y-72652055D01*
X39599396Y-73165086D01*
X38710143Y-70721885D01*
X40119682Y-70208854D01*
G37*
G36*
X37300604Y-71234914D02*
G01*
X38189857Y-73678115D01*
X36780318Y-74191146D01*
X35891065Y-71747945D01*
X37300604Y-71234914D01*
G37*
D12*
X38500000Y-64000000D03*
X35500000Y-64000000D03*
G36*
X41008935Y-55347945D02*
G01*
X40119682Y-57791146D01*
X38710143Y-57278115D01*
X39599396Y-54834914D01*
X41008935Y-55347945D01*
G37*
G36*
X38189857Y-54321885D02*
G01*
X37300604Y-56765086D01*
X35891065Y-56252055D01*
X36780318Y-53808854D01*
X38189857Y-54321885D01*
G37*
G36*
X45179224Y-49030414D02*
G01*
X43507976Y-51022129D01*
X42358910Y-50057948D01*
X44030158Y-48066233D01*
X45179224Y-49030414D01*
G37*
G36*
X42881090Y-47102052D02*
G01*
X41209842Y-49093767D01*
X40060776Y-48129586D01*
X41732024Y-46137871D01*
X42881090Y-47102052D01*
G37*
G36*
X51250833Y-44518557D02*
G01*
X48999167Y-45818557D01*
X48249167Y-44519519D01*
X50500833Y-43219519D01*
X51250833Y-44518557D01*
G37*
G36*
X49750833Y-41920481D02*
G01*
X47499167Y-43220481D01*
X46749167Y-41921443D01*
X49000833Y-40621443D01*
X49750833Y-41920481D01*
G37*
G36*
X58510958Y-42360075D02*
G01*
X55950458Y-42811560D01*
X55689986Y-41334349D01*
X58250486Y-40882864D01*
X58510958Y-42360075D01*
G37*
G36*
X57990014Y-39405651D02*
G01*
X55429514Y-39857136D01*
X55169042Y-38379925D01*
X57729542Y-37928440D01*
X57990014Y-39405651D01*
G37*
G36*
X66049542Y-42811560D02*
G01*
X63489042Y-42360075D01*
X63749514Y-40882864D01*
X66310014Y-41334349D01*
X66049542Y-42811560D01*
G37*
G36*
X66570486Y-39857136D02*
G01*
X64009986Y-39405651D01*
X64270458Y-37928440D01*
X66830958Y-38379925D01*
X66570486Y-39857136D01*
G37*
G36*
X78492024Y-51022129D02*
G01*
X76820776Y-49030414D01*
X77969842Y-48066233D01*
X79641090Y-50057948D01*
X78492024Y-51022129D01*
G37*
G36*
X80790158Y-49093767D02*
G01*
X79118910Y-47102052D01*
X80267976Y-46137871D01*
X81939224Y-48129586D01*
X80790158Y-49093767D01*
G37*
G36*
X81880318Y-57791146D02*
G01*
X80991065Y-55347945D01*
X82400604Y-54834914D01*
X83289857Y-57278115D01*
X81880318Y-57791146D01*
G37*
G36*
X84699396Y-56765086D02*
G01*
X83810143Y-54321885D01*
X85219682Y-53808854D01*
X86108935Y-56252055D01*
X84699396Y-56765086D01*
G37*
X83500000Y-64000000D03*
X86500000Y-64000000D03*
G36*
X80991065Y-72652055D02*
G01*
X81880318Y-70208854D01*
X83289857Y-70721885D01*
X82400604Y-73165086D01*
X80991065Y-72652055D01*
G37*
G36*
X83810143Y-73678115D02*
G01*
X84699396Y-71234914D01*
X86108935Y-71747945D01*
X85219682Y-74191146D01*
X83810143Y-73678115D01*
G37*
G36*
X76820776Y-78969586D02*
G01*
X78492024Y-76977871D01*
X79641090Y-77942052D01*
X77969842Y-79933767D01*
X76820776Y-78969586D01*
G37*
G36*
X79118910Y-80897948D02*
G01*
X80790158Y-78906233D01*
X81939224Y-79870414D01*
X80267976Y-81862129D01*
X79118910Y-80897948D01*
G37*
G36*
X70739167Y-83481443D02*
G01*
X72990833Y-82181443D01*
X73740833Y-83480481D01*
X71489167Y-84780481D01*
X70739167Y-83481443D01*
G37*
G36*
X72239167Y-86079519D02*
G01*
X74490833Y-84779519D01*
X75240833Y-86078557D01*
X72989167Y-87378557D01*
X72239167Y-86079519D01*
G37*
G36*
X63489042Y-85639925D02*
G01*
X66049542Y-85188440D01*
X66310014Y-86665651D01*
X63749514Y-87117136D01*
X63489042Y-85639925D01*
G37*
G36*
X64009986Y-88594349D02*
G01*
X66570486Y-88142864D01*
X66830958Y-89620075D01*
X64270458Y-90071560D01*
X64009986Y-88594349D01*
G37*
D13*
X74000000Y-37000000D03*
X72000000Y-37000000D03*
X84000000Y-45000000D03*
X82000000Y-45000000D03*
D14*
X76000000Y-32250000D03*
X76000000Y-33750000D03*
D13*
X54000000Y-36000000D03*
X52000000Y-36000000D03*
D14*
X63000000Y-32250000D03*
X63000000Y-33750000D03*
X88000000Y-37250000D03*
X88000000Y-38750000D03*
X37000000Y-42750000D03*
X37000000Y-41250000D03*
D15*
X68000000Y-26500000D03*
X68000000Y-29500000D03*
X55000000Y-26500000D03*
X55000000Y-29500000D03*
X79000000Y-34500000D03*
X79000000Y-37500000D03*
D16*
X55900000Y-32050000D03*
X55900000Y-33000000D03*
X55900000Y-33950000D03*
X58100000Y-33950000D03*
X58100000Y-32050000D03*
X79900000Y-40050000D03*
X79900000Y-41000000D03*
X79900000Y-41950000D03*
X82100000Y-41950000D03*
X82100000Y-40050000D03*
X68900000Y-32050000D03*
X68900000Y-33000000D03*
X68900000Y-33950000D03*
X71100000Y-33950000D03*
X71100000Y-32050000D03*
D17*
X40000000Y-41050000D03*
X40000000Y-42950000D03*
X42000000Y-42000000D03*
D18*
X74000000Y-33750000D03*
X74000000Y-32250000D03*
X61000000Y-33750000D03*
X61000000Y-32250000D03*
X86000000Y-41750000D03*
X86000000Y-40250000D03*
G36*
X73200833Y-45598557D02*
G01*
X70949167Y-44298557D01*
X71699167Y-42999519D01*
X73950833Y-44299519D01*
X73200833Y-45598557D01*
G37*
G36*
X74700833Y-43000481D02*
G01*
X72449167Y-41700481D01*
X73199167Y-40401443D01*
X75450833Y-41701443D01*
X74700833Y-43000481D01*
G37*
D19*
X61000000Y-82810000D03*
D20*
X61000000Y-80650000D03*
G36*
X53945408Y-80325353D02*
G01*
X55918762Y-81043595D01*
X55200520Y-83016949D01*
X53227166Y-82298707D01*
X53945408Y-80325353D01*
G37*
G36*
X54496060Y-78812448D02*
G01*
X56469414Y-79530690D01*
X56127394Y-80470382D01*
X54154040Y-79752140D01*
X54496060Y-78812448D01*
G37*
G36*
X48779922Y-76921222D02*
G01*
X50388616Y-78271076D01*
X49038762Y-79879770D01*
X47430068Y-78529916D01*
X48779922Y-76921222D01*
G37*
G36*
X49814810Y-75687891D02*
G01*
X51423503Y-77037745D01*
X50780716Y-77803789D01*
X49172023Y-76453935D01*
X49814810Y-75687891D01*
G37*
G36*
X45102846Y-71970673D02*
G01*
X46152846Y-73789327D01*
X44334192Y-74839327D01*
X43284192Y-73020673D01*
X45102846Y-71970673D01*
G37*
G36*
X46497147Y-71165673D02*
G01*
X47547147Y-72984327D01*
X46681121Y-73484327D01*
X45631121Y-71665673D01*
X46497147Y-71165673D01*
G37*
G36*
X43334024Y-66044276D02*
G01*
X43698685Y-68112373D01*
X41630588Y-68477034D01*
X41265927Y-66408937D01*
X43334024Y-66044276D01*
G37*
G36*
X44919563Y-65764703D02*
G01*
X45284224Y-67832799D01*
X44299417Y-68006447D01*
X43934756Y-65938351D01*
X44919563Y-65764703D01*
G37*
G36*
X43698685Y-59887627D02*
G01*
X43334024Y-61955724D01*
X41265927Y-61591063D01*
X41630588Y-59522966D01*
X43698685Y-59887627D01*
G37*
G36*
X45284224Y-60167201D02*
G01*
X44919563Y-62235297D01*
X43934756Y-62061649D01*
X44299417Y-59993553D01*
X45284224Y-60167201D01*
G37*
G36*
X46152846Y-54210673D02*
G01*
X45102846Y-56029327D01*
X43284192Y-54979327D01*
X44334192Y-53160673D01*
X46152846Y-54210673D01*
G37*
G36*
X47547147Y-55015673D02*
G01*
X46497147Y-56834327D01*
X45631121Y-56334327D01*
X46681121Y-54515673D01*
X47547147Y-55015673D01*
G37*
G36*
X50388616Y-49728924D02*
G01*
X48779922Y-51078778D01*
X47430068Y-49470084D01*
X49038762Y-48120230D01*
X50388616Y-49728924D01*
G37*
G36*
X51423503Y-50962255D02*
G01*
X49814810Y-52312109D01*
X49172023Y-51546065D01*
X50780716Y-50196211D01*
X51423503Y-50962255D01*
G37*
G36*
X55918762Y-46956405D02*
G01*
X53945408Y-47674647D01*
X53227166Y-45701293D01*
X55200520Y-44983051D01*
X55918762Y-46956405D01*
G37*
G36*
X56469414Y-48469310D02*
G01*
X54496060Y-49187552D01*
X54154040Y-48247860D01*
X56127394Y-47529618D01*
X56469414Y-48469310D01*
G37*
D19*
X61000000Y-45190000D03*
D20*
X61000000Y-47350000D03*
G36*
X68054592Y-47674647D02*
G01*
X66081238Y-46956405D01*
X66799480Y-44983051D01*
X68772834Y-45701293D01*
X68054592Y-47674647D01*
G37*
G36*
X67503940Y-49187552D02*
G01*
X65530586Y-48469310D01*
X65872606Y-47529618D01*
X67845960Y-48247860D01*
X67503940Y-49187552D01*
G37*
G36*
X73220078Y-51078778D02*
G01*
X71611384Y-49728924D01*
X72961238Y-48120230D01*
X74569932Y-49470084D01*
X73220078Y-51078778D01*
G37*
G36*
X72185190Y-52312109D02*
G01*
X70576497Y-50962255D01*
X71219284Y-50196211D01*
X72827977Y-51546065D01*
X72185190Y-52312109D01*
G37*
G36*
X76897154Y-56039327D02*
G01*
X75847154Y-54220673D01*
X77665808Y-53170673D01*
X78715808Y-54989327D01*
X76897154Y-56039327D01*
G37*
G36*
X75502853Y-56844327D02*
G01*
X74452853Y-55025673D01*
X75318879Y-54525673D01*
X76368879Y-56344327D01*
X75502853Y-56844327D01*
G37*
G36*
X78665976Y-61955724D02*
G01*
X78301315Y-59887627D01*
X80369412Y-59522966D01*
X80734073Y-61591063D01*
X78665976Y-61955724D01*
G37*
G36*
X77080437Y-62235297D02*
G01*
X76715776Y-60167201D01*
X77700583Y-59993553D01*
X78065244Y-62061649D01*
X77080437Y-62235297D01*
G37*
G36*
X78301315Y-68112373D02*
G01*
X78665976Y-66044276D01*
X80734073Y-66408937D01*
X80369412Y-68477034D01*
X78301315Y-68112373D01*
G37*
G36*
X76715776Y-67832799D02*
G01*
X77080437Y-65764703D01*
X78065244Y-65938351D01*
X77700583Y-68006447D01*
X76715776Y-67832799D01*
G37*
G36*
X75847154Y-73789327D02*
G01*
X76897154Y-71970673D01*
X78715808Y-73020673D01*
X77665808Y-74839327D01*
X75847154Y-73789327D01*
G37*
G36*
X74452853Y-72984327D02*
G01*
X75502853Y-71165673D01*
X76368879Y-71665673D01*
X75318879Y-73484327D01*
X74452853Y-72984327D01*
G37*
G36*
X71611384Y-78271076D02*
G01*
X73220078Y-76921222D01*
X74569932Y-78529916D01*
X72961238Y-79879770D01*
X71611384Y-78271076D01*
G37*
G36*
X70576497Y-77037745D02*
G01*
X72185190Y-75687891D01*
X72827977Y-76453935D01*
X71219284Y-77803789D01*
X70576497Y-77037745D01*
G37*
G36*
X66081238Y-81043595D02*
G01*
X68054592Y-80325353D01*
X68772834Y-82298707D01*
X66799480Y-83016949D01*
X66081238Y-81043595D01*
G37*
G36*
X65530586Y-79530690D02*
G01*
X67503940Y-78812448D01*
X67845960Y-79752140D01*
X65872606Y-80470382D01*
X65530586Y-79530690D01*
G37*
D21*
X61000000Y-87050000D03*
X61000000Y-89950000D03*
D22*
X85450000Y-51500000D03*
X82550000Y-51500000D03*
D21*
X38000000Y-49050000D03*
X38000000Y-51950000D03*
M02*
