G04 #@! TF.GenerationSoftware,KiCad,Pcbnew,(5.99.0-490-gc7ce93e10)*
G04 #@! TF.CreationDate,2019-12-10T12:24:38+01:00*
G04 #@! TF.ProjectId,Led,4c65642e-6b69-4636-9164-5f7063625858,rev?*
G04 #@! TF.SameCoordinates,Original*
G04 #@! TF.FileFunction,Copper,L2,Bot*
G04 #@! TF.FilePolarity,Positive*
%FSLAX46Y46*%
G04 Gerber Fmt 4.6, Leading zero omitted, Abs format (unit mm)*
G04 Created by KiCad (PCBNEW (5.99.0-490-gc7ce93e10)) date 2019-12-10 12:24:38*
%MOMM*%
%LPD*%
G04 APERTURE LIST*
%ADD10R,1.700000X1.700000*%
%ADD11O,1.700000X1.700000*%
%ADD12C,1.000000*%
%ADD13C,0.200000*%
%ADD14C,0.400000*%
%ADD15C,0.800000*%
G04 APERTURE END LIST*
D10*
X47000000Y-29000000D03*
D11*
X44460000Y-29000000D03*
X41920000Y-29000000D03*
D10*
X52000000Y-33000000D03*
D11*
X49460000Y-33000000D03*
X46920000Y-33000000D03*
X44380000Y-33000000D03*
D12*
X45000000Y-37500000D03*
X47000000Y-39500000D03*
X47500000Y-47000000D03*
X46500000Y-48000000D03*
X52000000Y-46000000D03*
X68000000Y-37000000D03*
X71500000Y-39000000D03*
X67000000Y-33500000D03*
X64000000Y-36000000D03*
X54500000Y-34000000D03*
X55000000Y-86000000D03*
X44000000Y-50000000D03*
X82000000Y-57000000D03*
X44000000Y-43000000D03*
X76000000Y-51000000D03*
X83000000Y-43500000D03*
X69000000Y-81000000D03*
X85000000Y-36000000D03*
X47000000Y-53500000D03*
X59500000Y-34500000D03*
X73000000Y-35000000D03*
X61000000Y-80500000D03*
X46000000Y-58500000D03*
X74500000Y-28000000D03*
X68000000Y-26500000D03*
X79000000Y-34500000D03*
X72000000Y-31000000D03*
X60000000Y-31000000D03*
X84000000Y-39000000D03*
X55500000Y-36000000D03*
X85000000Y-50000000D03*
X84500000Y-45500000D03*
X40500000Y-45500000D03*
X61000000Y-87500000D03*
X55000000Y-26500000D03*
X71000000Y-43500000D03*
X66000000Y-39000000D03*
X76500000Y-38500000D03*
X70500000Y-35500000D03*
X66500000Y-31500000D03*
D13*
X43000000Y-31000000D02*
X43000000Y-30960000D01*
X43000000Y-30960000D02*
X44460000Y-29500000D01*
X41500000Y-34000000D02*
X41500000Y-32500000D01*
X45000000Y-37500000D02*
X41500000Y-34000000D01*
X41500000Y-32500000D02*
X43000000Y-31000000D01*
X47500000Y-40000000D02*
X47000000Y-39500000D01*
X47500000Y-47000000D02*
X47500000Y-40000000D01*
X50000000Y-48000000D02*
X46500000Y-48000000D01*
X52000000Y-46000000D02*
X50000000Y-48000000D01*
D14*
X68000000Y-37000000D02*
X70000000Y-39000000D01*
X70000000Y-39000000D02*
X71500000Y-39000000D01*
X66500000Y-33500000D02*
X64000000Y-36000000D01*
X66500000Y-33500000D02*
X67000000Y-33500000D01*
X54000000Y-34500000D02*
X54500000Y-34000000D01*
X45500000Y-34500000D02*
X54000000Y-34500000D01*
X44380000Y-33380000D02*
X45500000Y-34500000D01*
X44380000Y-33000000D02*
X44380000Y-33380000D01*
D15*
X51000000Y-86000000D02*
X38000000Y-73000000D01*
X38000000Y-73000000D02*
X38000000Y-56000000D01*
X38000000Y-56000000D02*
X44000000Y-50000000D01*
X55000000Y-86000000D02*
X51000000Y-86000000D01*
X70000000Y-86000000D02*
X82000000Y-74000000D01*
X82000000Y-74000000D02*
X82000000Y-57000000D01*
X55000000Y-86000000D02*
X70000000Y-86000000D01*
X44000000Y-43000000D02*
X44000000Y-50000000D01*
X76000000Y-51000000D02*
X82000000Y-45000000D01*
X83000000Y-43500000D02*
X83250000Y-43750000D01*
X83250000Y-43750000D02*
X82000000Y-45000000D01*
X86000000Y-44000000D02*
X86000000Y-40000000D01*
X78000000Y-72000000D02*
X78000000Y-54000000D01*
X69000000Y-81000000D02*
X78000000Y-72000000D01*
X86000000Y-37000000D02*
X85000000Y-36000000D01*
X86000000Y-40000000D02*
X86000000Y-37000000D01*
X86000000Y-46000000D02*
X86000000Y-44000000D01*
X78000000Y-54000000D02*
X86000000Y-46000000D01*
X59500000Y-41000000D02*
X47500000Y-53000000D01*
X59500000Y-40000000D02*
X59500000Y-41000000D01*
X59500000Y-34500000D02*
X59500000Y-40000000D01*
X47500000Y-53000000D02*
X47000000Y-53500000D01*
X73000000Y-50000000D02*
X73000000Y-52000000D01*
X73000000Y-35000000D02*
X73000000Y-50000000D01*
X73000000Y-51000000D02*
X76500000Y-54500000D01*
X76500000Y-54500000D02*
X76500000Y-71500000D01*
X76500000Y-71500000D02*
X67500000Y-80500000D01*
X67500000Y-80500000D02*
X61000000Y-80500000D01*
X73000000Y-50000000D02*
X73000000Y-51000000D01*
X46000000Y-58500000D02*
X46500000Y-58000000D01*
X46500000Y-58000000D02*
X46500000Y-56000000D01*
X46500000Y-56000000D02*
X69500000Y-33000000D01*
X69500000Y-33000000D02*
X72000000Y-33000000D01*
X72000000Y-33000000D02*
X74500000Y-30500000D01*
X74500000Y-30500000D02*
X74500000Y-28000000D01*
X75000000Y-26500000D02*
X79000000Y-30500000D01*
X70000000Y-26500000D02*
X75000000Y-26500000D01*
X60500000Y-26500000D02*
X68000000Y-26500000D01*
X68000000Y-26500000D02*
X70000000Y-26500000D01*
X79000000Y-30500000D02*
X79000000Y-34500000D01*
X60500000Y-30500000D02*
X60000000Y-31000000D01*
X60500000Y-26500000D02*
X60500000Y-30500000D01*
X84000000Y-39000000D02*
X82500000Y-37500000D01*
X82500000Y-37500000D02*
X82500000Y-34000000D01*
X82500000Y-34000000D02*
X79000000Y-30500000D01*
X55500000Y-36000000D02*
X60000000Y-31500000D01*
X60000000Y-31500000D02*
X60000000Y-31000000D01*
X70000000Y-87500000D02*
X83500000Y-74000000D01*
X83500000Y-74000000D02*
X83500000Y-51500000D01*
X83500000Y-51500000D02*
X85000000Y-50000000D01*
X84000000Y-41500000D02*
X84500000Y-42000000D01*
X84500000Y-42000000D02*
X84500000Y-45500000D01*
X84000000Y-39000000D02*
X84000000Y-41500000D01*
X40500000Y-45500000D02*
X42000000Y-44000000D01*
X42000000Y-44000000D02*
X42000000Y-42500000D01*
X42000000Y-42500000D02*
X48500000Y-36000000D01*
X48500000Y-36000000D02*
X55500000Y-36000000D01*
X61000000Y-87500000D02*
X70000000Y-87500000D01*
X49460000Y-30540000D02*
X53500000Y-26500000D01*
X53500000Y-26500000D02*
X55000000Y-26500000D01*
X55000000Y-26500000D02*
X60500000Y-26500000D01*
X49460000Y-33000000D02*
X49460000Y-30540000D01*
X72000000Y-28500000D02*
X70000000Y-26500000D01*
X72000000Y-31000000D02*
X72000000Y-28500000D01*
D14*
X71000000Y-43500000D02*
X66500000Y-39000000D01*
X66500000Y-39000000D02*
X66000000Y-39000000D01*
G36*
X89901001Y-27748115D02*
G01*
X89901000Y-43251887D01*
X88509360Y-44643527D01*
X88487690Y-44686055D01*
X88459634Y-44724672D01*
X88444885Y-44770065D01*
X88423217Y-44812591D01*
X88415750Y-44859731D01*
X88401000Y-44905129D01*
X88401000Y-45095646D01*
X88401001Y-45095649D01*
X88401001Y-48801000D01*
X84611798Y-48801000D01*
X86690761Y-46722038D01*
X86776970Y-46642765D01*
X86824260Y-46566493D01*
X86878513Y-46495017D01*
X86896068Y-46450679D01*
X86925137Y-46403796D01*
X86937316Y-46346499D01*
X86979272Y-46240533D01*
X87007880Y-45968326D01*
X86999000Y-45915825D01*
X86999000Y-37022094D01*
X87003904Y-36905102D01*
X86983412Y-36817738D01*
X86971233Y-36728827D01*
X86952291Y-36685055D01*
X86939697Y-36631356D01*
X86907797Y-36582234D01*
X86862532Y-36477632D01*
X86690283Y-36264923D01*
X86646872Y-36234073D01*
X86037100Y-35624302D01*
X86024105Y-35575802D01*
X85879419Y-35325198D01*
X85674802Y-35120581D01*
X85424198Y-34975896D01*
X85144686Y-34901000D01*
X84855314Y-34901000D01*
X84575802Y-34975896D01*
X84325198Y-35120581D01*
X84120581Y-35325198D01*
X83975896Y-35575802D01*
X83901000Y-35855314D01*
X83901000Y-36144686D01*
X83975896Y-36424198D01*
X84120581Y-36674802D01*
X84325198Y-36879419D01*
X84575801Y-37024104D01*
X84624302Y-37037100D01*
X85001001Y-37413799D01*
X85001001Y-38535785D01*
X84879419Y-38325198D01*
X84674802Y-38120581D01*
X84424198Y-37975895D01*
X84375699Y-37962900D01*
X83499000Y-37086202D01*
X83499000Y-34022069D01*
X83503903Y-33905102D01*
X83483414Y-33817746D01*
X83471234Y-33728829D01*
X83452293Y-33685056D01*
X83439696Y-33631353D01*
X83407795Y-33582229D01*
X83362532Y-33477632D01*
X83190283Y-33264923D01*
X83146872Y-33234073D01*
X79743762Y-29830964D01*
X79690283Y-29764923D01*
X79646872Y-29734073D01*
X75722054Y-25809256D01*
X75642765Y-25723030D01*
X75566488Y-25675736D01*
X75495016Y-25621485D01*
X75450673Y-25603929D01*
X75403796Y-25574863D01*
X75346501Y-25562684D01*
X75240531Y-25520728D01*
X74968327Y-25492119D01*
X74915819Y-25501000D01*
X70052827Y-25501000D01*
X69968327Y-25492119D01*
X69915819Y-25501000D01*
X68467680Y-25501000D01*
X68424198Y-25475896D01*
X68144686Y-25401000D01*
X67855314Y-25401000D01*
X67575802Y-25475896D01*
X67532320Y-25501000D01*
X60537321Y-25501000D01*
X60436683Y-25493610D01*
X60400032Y-25501000D01*
X55467680Y-25501000D01*
X55424198Y-25475896D01*
X55144686Y-25401000D01*
X54855314Y-25401000D01*
X54575802Y-25475896D01*
X54532320Y-25501000D01*
X53522094Y-25501000D01*
X53405102Y-25496096D01*
X53317738Y-25516588D01*
X53228827Y-25528767D01*
X53185055Y-25547709D01*
X53131356Y-25560303D01*
X53082234Y-25592203D01*
X52977632Y-25637468D01*
X52764923Y-25809717D01*
X52734073Y-25853128D01*
X48769244Y-29817958D01*
X48683031Y-29897235D01*
X48635750Y-29973493D01*
X48581486Y-30044984D01*
X48563929Y-30089327D01*
X48534864Y-30136205D01*
X48522686Y-30193494D01*
X48480729Y-30299469D01*
X48452119Y-30571673D01*
X48461001Y-30624187D01*
X48461000Y-31950024D01*
X48383953Y-32020872D01*
X48227571Y-32226898D01*
X48189965Y-32300704D01*
X48101454Y-32151039D01*
X47932444Y-31955239D01*
X47731431Y-31792462D01*
X47504770Y-31667855D01*
X47259626Y-31585354D01*
X47003747Y-31547569D01*
X46745220Y-31555694D01*
X46492217Y-31609471D01*
X46252737Y-31707201D01*
X46034348Y-31845795D01*
X45843953Y-32020872D01*
X45687571Y-32226898D01*
X45649965Y-32300704D01*
X45561454Y-32151039D01*
X45392444Y-31955239D01*
X45191431Y-31792462D01*
X44964770Y-31667855D01*
X44719626Y-31585354D01*
X44463747Y-31547569D01*
X44205220Y-31555694D01*
X43952217Y-31609471D01*
X43712737Y-31707201D01*
X43494348Y-31845795D01*
X43303953Y-32020872D01*
X43147571Y-32226898D01*
X43030144Y-32457361D01*
X42955384Y-32704976D01*
X42925655Y-32961917D01*
X42941897Y-33220061D01*
X43003595Y-33471249D01*
X43108798Y-33707541D01*
X43254184Y-33921470D01*
X43435155Y-34106271D01*
X43645992Y-34256105D01*
X43880029Y-34366235D01*
X44129870Y-34433179D01*
X44319116Y-34449071D01*
X44867825Y-34997781D01*
X45024505Y-35154462D01*
X45081232Y-35183366D01*
X45132739Y-35220787D01*
X45193288Y-35240461D01*
X45250018Y-35269366D01*
X45312903Y-35279327D01*
X45373450Y-35298999D01*
X45436303Y-35298999D01*
X45436309Y-35299000D01*
X47778157Y-35299000D01*
X47764923Y-35309717D01*
X47734071Y-35353131D01*
X46019454Y-37067748D01*
X45879419Y-36825198D01*
X45674802Y-36620581D01*
X45424198Y-36475896D01*
X45144686Y-36401000D01*
X44889535Y-36401000D01*
X42199000Y-33710466D01*
X42199000Y-32789534D01*
X43472690Y-31515845D01*
X43543726Y-31456240D01*
X43590097Y-31375922D01*
X43630935Y-31317599D01*
X44496435Y-30452099D01*
X44725124Y-30430481D01*
X44974250Y-30360924D01*
X45207122Y-30248350D01*
X45416378Y-30096316D01*
X45477160Y-30032934D01*
X45522471Y-30202038D01*
X45688538Y-30399949D01*
X45904461Y-30524612D01*
X46132590Y-30564837D01*
X46945000Y-30564837D01*
X46945000Y-29055000D01*
X47055000Y-29055000D01*
X47055000Y-30564837D01*
X47876199Y-30564837D01*
X48202038Y-30477529D01*
X48399949Y-30311462D01*
X48524612Y-30095539D01*
X48564837Y-29867410D01*
X48564837Y-29055000D01*
X47055000Y-29055000D01*
X46945000Y-29055000D01*
X46945000Y-27435163D01*
X47055000Y-27435163D01*
X47055000Y-28945000D01*
X48564837Y-28945000D01*
X48564837Y-28123801D01*
X48477529Y-27797963D01*
X48311462Y-27600052D01*
X48095539Y-27475388D01*
X47867410Y-27435163D01*
X47055000Y-27435163D01*
X46945000Y-27435163D01*
X46123801Y-27435163D01*
X45797963Y-27522471D01*
X45600052Y-27688538D01*
X45475388Y-27904461D01*
X45467185Y-27950981D01*
X45271431Y-27792462D01*
X45044770Y-27667855D01*
X44799626Y-27585354D01*
X44543747Y-27547569D01*
X44285220Y-27555694D01*
X44032217Y-27609471D01*
X43792737Y-27707201D01*
X43574348Y-27845795D01*
X43383953Y-28020872D01*
X43227571Y-28226898D01*
X43189965Y-28300704D01*
X43101454Y-28151039D01*
X42932444Y-27955239D01*
X42731431Y-27792462D01*
X42504770Y-27667855D01*
X42259626Y-27585354D01*
X42003747Y-27547569D01*
X41745220Y-27555694D01*
X41492217Y-27609471D01*
X41252737Y-27707201D01*
X41034348Y-27845795D01*
X40843953Y-28020872D01*
X40687571Y-28226898D01*
X40570144Y-28457361D01*
X40495384Y-28704976D01*
X40465655Y-28961917D01*
X40481897Y-29220061D01*
X40543595Y-29471249D01*
X40648798Y-29707541D01*
X40794184Y-29921470D01*
X40975155Y-30106271D01*
X41185992Y-30256105D01*
X41420029Y-30366235D01*
X41669870Y-30433179D01*
X41927617Y-30454823D01*
X42185124Y-30430481D01*
X42434250Y-30360924D01*
X42667122Y-30248350D01*
X42871887Y-30099579D01*
X42527316Y-30444150D01*
X42456274Y-30503760D01*
X42409904Y-30584077D01*
X42369066Y-30642399D01*
X41027317Y-31984149D01*
X40956276Y-32043760D01*
X40909910Y-32124068D01*
X40856719Y-32200033D01*
X40848636Y-32230199D01*
X40833023Y-32257240D01*
X40816920Y-32348561D01*
X40792918Y-32438139D01*
X40801001Y-32530528D01*
X40801000Y-33969484D01*
X40792918Y-34061862D01*
X40816920Y-34151436D01*
X40833022Y-34242759D01*
X40848636Y-34269802D01*
X40856718Y-34299965D01*
X40909901Y-34375919D01*
X40956274Y-34456240D01*
X41027318Y-34515852D01*
X43901000Y-37389535D01*
X43901000Y-37644686D01*
X43975896Y-37924198D01*
X44120581Y-38174802D01*
X44325198Y-38379419D01*
X44567748Y-38519454D01*
X41309245Y-41777957D01*
X41223031Y-41857235D01*
X41175750Y-41933493D01*
X41121486Y-42004984D01*
X41103929Y-42049327D01*
X41074864Y-42096205D01*
X41062686Y-42153494D01*
X41020729Y-42259469D01*
X40992119Y-42531673D01*
X41001001Y-42584187D01*
X41001000Y-43586201D01*
X40124302Y-44462900D01*
X40075802Y-44475895D01*
X39825198Y-44620581D01*
X39620581Y-44825198D01*
X39475896Y-45075802D01*
X39401000Y-45355314D01*
X39401000Y-45644686D01*
X39475896Y-45924198D01*
X39620581Y-46174802D01*
X39825198Y-46379419D01*
X40075802Y-46524104D01*
X40355314Y-46599000D01*
X40644686Y-46599000D01*
X40924198Y-46524104D01*
X41174802Y-46379419D01*
X41379419Y-46174802D01*
X41524104Y-45924198D01*
X41537100Y-45875697D01*
X42690746Y-44722051D01*
X42776970Y-44642766D01*
X42824259Y-44566494D01*
X42878513Y-44495018D01*
X42896068Y-44450678D01*
X42925137Y-44403796D01*
X42937316Y-44346499D01*
X42979272Y-44240533D01*
X43001000Y-44033789D01*
X43001001Y-48801000D01*
X33599000Y-48801000D01*
X33599000Y-28248113D01*
X36748113Y-25099000D01*
X87251887Y-25099000D01*
X89901001Y-27748115D01*
G37*
X89901001Y-27748115D02*
X89901000Y-43251887D01*
X88509360Y-44643527D01*
X88487690Y-44686055D01*
X88459634Y-44724672D01*
X88444885Y-44770065D01*
X88423217Y-44812591D01*
X88415750Y-44859731D01*
X88401000Y-44905129D01*
X88401000Y-45095646D01*
X88401001Y-45095649D01*
X88401001Y-48801000D01*
X84611798Y-48801000D01*
X86690761Y-46722038D01*
X86776970Y-46642765D01*
X86824260Y-46566493D01*
X86878513Y-46495017D01*
X86896068Y-46450679D01*
X86925137Y-46403796D01*
X86937316Y-46346499D01*
X86979272Y-46240533D01*
X87007880Y-45968326D01*
X86999000Y-45915825D01*
X86999000Y-37022094D01*
X87003904Y-36905102D01*
X86983412Y-36817738D01*
X86971233Y-36728827D01*
X86952291Y-36685055D01*
X86939697Y-36631356D01*
X86907797Y-36582234D01*
X86862532Y-36477632D01*
X86690283Y-36264923D01*
X86646872Y-36234073D01*
X86037100Y-35624302D01*
X86024105Y-35575802D01*
X85879419Y-35325198D01*
X85674802Y-35120581D01*
X85424198Y-34975896D01*
X85144686Y-34901000D01*
X84855314Y-34901000D01*
X84575802Y-34975896D01*
X84325198Y-35120581D01*
X84120581Y-35325198D01*
X83975896Y-35575802D01*
X83901000Y-35855314D01*
X83901000Y-36144686D01*
X83975896Y-36424198D01*
X84120581Y-36674802D01*
X84325198Y-36879419D01*
X84575801Y-37024104D01*
X84624302Y-37037100D01*
X85001001Y-37413799D01*
X85001001Y-38535785D01*
X84879419Y-38325198D01*
X84674802Y-38120581D01*
X84424198Y-37975895D01*
X84375699Y-37962900D01*
X83499000Y-37086202D01*
X83499000Y-34022069D01*
X83503903Y-33905102D01*
X83483414Y-33817746D01*
X83471234Y-33728829D01*
X83452293Y-33685056D01*
X83439696Y-33631353D01*
X83407795Y-33582229D01*
X83362532Y-33477632D01*
X83190283Y-33264923D01*
X83146872Y-33234073D01*
X79743762Y-29830964D01*
X79690283Y-29764923D01*
X79646872Y-29734073D01*
X75722054Y-25809256D01*
X75642765Y-25723030D01*
X75566488Y-25675736D01*
X75495016Y-25621485D01*
X75450673Y-25603929D01*
X75403796Y-25574863D01*
X75346501Y-25562684D01*
X75240531Y-25520728D01*
X74968327Y-25492119D01*
X74915819Y-25501000D01*
X70052827Y-25501000D01*
X69968327Y-25492119D01*
X69915819Y-25501000D01*
X68467680Y-25501000D01*
X68424198Y-25475896D01*
X68144686Y-25401000D01*
X67855314Y-25401000D01*
X67575802Y-25475896D01*
X67532320Y-25501000D01*
X60537321Y-25501000D01*
X60436683Y-25493610D01*
X60400032Y-25501000D01*
X55467680Y-25501000D01*
X55424198Y-25475896D01*
X55144686Y-25401000D01*
X54855314Y-25401000D01*
X54575802Y-25475896D01*
X54532320Y-25501000D01*
X53522094Y-25501000D01*
X53405102Y-25496096D01*
X53317738Y-25516588D01*
X53228827Y-25528767D01*
X53185055Y-25547709D01*
X53131356Y-25560303D01*
X53082234Y-25592203D01*
X52977632Y-25637468D01*
X52764923Y-25809717D01*
X52734073Y-25853128D01*
X48769244Y-29817958D01*
X48683031Y-29897235D01*
X48635750Y-29973493D01*
X48581486Y-30044984D01*
X48563929Y-30089327D01*
X48534864Y-30136205D01*
X48522686Y-30193494D01*
X48480729Y-30299469D01*
X48452119Y-30571673D01*
X48461001Y-30624187D01*
X48461000Y-31950024D01*
X48383953Y-32020872D01*
X48227571Y-32226898D01*
X48189965Y-32300704D01*
X48101454Y-32151039D01*
X47932444Y-31955239D01*
X47731431Y-31792462D01*
X47504770Y-31667855D01*
X47259626Y-31585354D01*
X47003747Y-31547569D01*
X46745220Y-31555694D01*
X46492217Y-31609471D01*
X46252737Y-31707201D01*
X46034348Y-31845795D01*
X45843953Y-32020872D01*
X45687571Y-32226898D01*
X45649965Y-32300704D01*
X45561454Y-32151039D01*
X45392444Y-31955239D01*
X45191431Y-31792462D01*
X44964770Y-31667855D01*
X44719626Y-31585354D01*
X44463747Y-31547569D01*
X44205220Y-31555694D01*
X43952217Y-31609471D01*
X43712737Y-31707201D01*
X43494348Y-31845795D01*
X43303953Y-32020872D01*
X43147571Y-32226898D01*
X43030144Y-32457361D01*
X42955384Y-32704976D01*
X42925655Y-32961917D01*
X42941897Y-33220061D01*
X43003595Y-33471249D01*
X43108798Y-33707541D01*
X43254184Y-33921470D01*
X43435155Y-34106271D01*
X43645992Y-34256105D01*
X43880029Y-34366235D01*
X44129870Y-34433179D01*
X44319116Y-34449071D01*
X44867825Y-34997781D01*
X45024505Y-35154462D01*
X45081232Y-35183366D01*
X45132739Y-35220787D01*
X45193288Y-35240461D01*
X45250018Y-35269366D01*
X45312903Y-35279327D01*
X45373450Y-35298999D01*
X45436303Y-35298999D01*
X45436309Y-35299000D01*
X47778157Y-35299000D01*
X47764923Y-35309717D01*
X47734071Y-35353131D01*
X46019454Y-37067748D01*
X45879419Y-36825198D01*
X45674802Y-36620581D01*
X45424198Y-36475896D01*
X45144686Y-36401000D01*
X44889535Y-36401000D01*
X42199000Y-33710466D01*
X42199000Y-32789534D01*
X43472690Y-31515845D01*
X43543726Y-31456240D01*
X43590097Y-31375922D01*
X43630935Y-31317599D01*
X44496435Y-30452099D01*
X44725124Y-30430481D01*
X44974250Y-30360924D01*
X45207122Y-30248350D01*
X45416378Y-30096316D01*
X45477160Y-30032934D01*
X45522471Y-30202038D01*
X45688538Y-30399949D01*
X45904461Y-30524612D01*
X46132590Y-30564837D01*
X46945000Y-30564837D01*
X46945000Y-29055000D01*
X47055000Y-29055000D01*
X47055000Y-30564837D01*
X47876199Y-30564837D01*
X48202038Y-30477529D01*
X48399949Y-30311462D01*
X48524612Y-30095539D01*
X48564837Y-29867410D01*
X48564837Y-29055000D01*
X47055000Y-29055000D01*
X46945000Y-29055000D01*
X46945000Y-27435163D01*
X47055000Y-27435163D01*
X47055000Y-28945000D01*
X48564837Y-28945000D01*
X48564837Y-28123801D01*
X48477529Y-27797963D01*
X48311462Y-27600052D01*
X48095539Y-27475388D01*
X47867410Y-27435163D01*
X47055000Y-27435163D01*
X46945000Y-27435163D01*
X46123801Y-27435163D01*
X45797963Y-27522471D01*
X45600052Y-27688538D01*
X45475388Y-27904461D01*
X45467185Y-27950981D01*
X45271431Y-27792462D01*
X45044770Y-27667855D01*
X44799626Y-27585354D01*
X44543747Y-27547569D01*
X44285220Y-27555694D01*
X44032217Y-27609471D01*
X43792737Y-27707201D01*
X43574348Y-27845795D01*
X43383953Y-28020872D01*
X43227571Y-28226898D01*
X43189965Y-28300704D01*
X43101454Y-28151039D01*
X42932444Y-27955239D01*
X42731431Y-27792462D01*
X42504770Y-27667855D01*
X42259626Y-27585354D01*
X42003747Y-27547569D01*
X41745220Y-27555694D01*
X41492217Y-27609471D01*
X41252737Y-27707201D01*
X41034348Y-27845795D01*
X40843953Y-28020872D01*
X40687571Y-28226898D01*
X40570144Y-28457361D01*
X40495384Y-28704976D01*
X40465655Y-28961917D01*
X40481897Y-29220061D01*
X40543595Y-29471249D01*
X40648798Y-29707541D01*
X40794184Y-29921470D01*
X40975155Y-30106271D01*
X41185992Y-30256105D01*
X41420029Y-30366235D01*
X41669870Y-30433179D01*
X41927617Y-30454823D01*
X42185124Y-30430481D01*
X42434250Y-30360924D01*
X42667122Y-30248350D01*
X42871887Y-30099579D01*
X42527316Y-30444150D01*
X42456274Y-30503760D01*
X42409904Y-30584077D01*
X42369066Y-30642399D01*
X41027317Y-31984149D01*
X40956276Y-32043760D01*
X40909910Y-32124068D01*
X40856719Y-32200033D01*
X40848636Y-32230199D01*
X40833023Y-32257240D01*
X40816920Y-32348561D01*
X40792918Y-32438139D01*
X40801001Y-32530528D01*
X40801000Y-33969484D01*
X40792918Y-34061862D01*
X40816920Y-34151436D01*
X40833022Y-34242759D01*
X40848636Y-34269802D01*
X40856718Y-34299965D01*
X40909901Y-34375919D01*
X40956274Y-34456240D01*
X41027318Y-34515852D01*
X43901000Y-37389535D01*
X43901000Y-37644686D01*
X43975896Y-37924198D01*
X44120581Y-38174802D01*
X44325198Y-38379419D01*
X44567748Y-38519454D01*
X41309245Y-41777957D01*
X41223031Y-41857235D01*
X41175750Y-41933493D01*
X41121486Y-42004984D01*
X41103929Y-42049327D01*
X41074864Y-42096205D01*
X41062686Y-42153494D01*
X41020729Y-42259469D01*
X40992119Y-42531673D01*
X41001001Y-42584187D01*
X41001000Y-43586201D01*
X40124302Y-44462900D01*
X40075802Y-44475895D01*
X39825198Y-44620581D01*
X39620581Y-44825198D01*
X39475896Y-45075802D01*
X39401000Y-45355314D01*
X39401000Y-45644686D01*
X39475896Y-45924198D01*
X39620581Y-46174802D01*
X39825198Y-46379419D01*
X40075802Y-46524104D01*
X40355314Y-46599000D01*
X40644686Y-46599000D01*
X40924198Y-46524104D01*
X41174802Y-46379419D01*
X41379419Y-46174802D01*
X41524104Y-45924198D01*
X41537100Y-45875697D01*
X42690746Y-44722051D01*
X42776970Y-44642766D01*
X42824259Y-44566494D01*
X42878513Y-44495018D01*
X42896068Y-44450678D01*
X42925137Y-44403796D01*
X42937316Y-44346499D01*
X42979272Y-44240533D01*
X43001000Y-44033789D01*
X43001001Y-48801000D01*
X33599000Y-48801000D01*
X33599000Y-28248113D01*
X36748113Y-25099000D01*
X87251887Y-25099000D01*
X89901001Y-27748115D01*
G36*
X58401000Y-34644686D02*
G01*
X58475896Y-34924198D01*
X58501000Y-34967680D01*
X58501001Y-39944908D01*
X58501000Y-39944913D01*
X58501001Y-40586200D01*
X50286202Y-48801000D01*
X44999000Y-48801000D01*
X44999000Y-43467680D01*
X45024104Y-43424198D01*
X45099000Y-43144686D01*
X45099000Y-42855314D01*
X45024104Y-42575802D01*
X44879419Y-42325198D01*
X44674802Y-42120581D01*
X44424198Y-41975896D01*
X44144686Y-41901000D01*
X44011797Y-41901000D01*
X45980546Y-39932252D01*
X46120581Y-40174802D01*
X46325198Y-40379419D01*
X46575802Y-40524104D01*
X46801001Y-40584447D01*
X46801000Y-46144779D01*
X46620581Y-46325198D01*
X46475896Y-46575802D01*
X46401000Y-46855314D01*
X46401000Y-47144686D01*
X46475896Y-47424198D01*
X46620581Y-47674802D01*
X46825198Y-47879419D01*
X47075802Y-48024104D01*
X47355314Y-48099000D01*
X47644686Y-48099000D01*
X47924198Y-48024104D01*
X48174802Y-47879419D01*
X48379419Y-47674802D01*
X48524104Y-47424198D01*
X48599000Y-47144686D01*
X48599000Y-46855314D01*
X48524104Y-46575802D01*
X48379419Y-46325198D01*
X48199000Y-46144779D01*
X48199000Y-40030515D01*
X48207082Y-39938140D01*
X48183083Y-39848574D01*
X48166977Y-39757239D01*
X48151364Y-39730197D01*
X48143282Y-39700034D01*
X48099000Y-39636792D01*
X48099000Y-39355314D01*
X48024104Y-39075802D01*
X47879419Y-38825198D01*
X47674802Y-38620581D01*
X47432252Y-38480546D01*
X48913799Y-36999000D01*
X55032320Y-36999000D01*
X55075802Y-37024104D01*
X55355314Y-37099000D01*
X55644686Y-37099000D01*
X55924198Y-37024104D01*
X56174802Y-36879419D01*
X56379419Y-36674802D01*
X56524104Y-36424198D01*
X56537100Y-36375697D01*
X58401000Y-34511798D01*
X58401000Y-34644686D01*
G37*
X58401000Y-34644686D02*
X58475896Y-34924198D01*
X58501000Y-34967680D01*
X58501001Y-39944908D01*
X58501000Y-39944913D01*
X58501001Y-40586200D01*
X50286202Y-48801000D01*
X44999000Y-48801000D01*
X44999000Y-43467680D01*
X45024104Y-43424198D01*
X45099000Y-43144686D01*
X45099000Y-42855314D01*
X45024104Y-42575802D01*
X44879419Y-42325198D01*
X44674802Y-42120581D01*
X44424198Y-41975896D01*
X44144686Y-41901000D01*
X44011797Y-41901000D01*
X45980546Y-39932252D01*
X46120581Y-40174802D01*
X46325198Y-40379419D01*
X46575802Y-40524104D01*
X46801001Y-40584447D01*
X46801000Y-46144779D01*
X46620581Y-46325198D01*
X46475896Y-46575802D01*
X46401000Y-46855314D01*
X46401000Y-47144686D01*
X46475896Y-47424198D01*
X46620581Y-47674802D01*
X46825198Y-47879419D01*
X47075802Y-48024104D01*
X47355314Y-48099000D01*
X47644686Y-48099000D01*
X47924198Y-48024104D01*
X48174802Y-47879419D01*
X48379419Y-47674802D01*
X48524104Y-47424198D01*
X48599000Y-47144686D01*
X48599000Y-46855314D01*
X48524104Y-46575802D01*
X48379419Y-46325198D01*
X48199000Y-46144779D01*
X48199000Y-40030515D01*
X48207082Y-39938140D01*
X48183083Y-39848574D01*
X48166977Y-39757239D01*
X48151364Y-39730197D01*
X48143282Y-39700034D01*
X48099000Y-39636792D01*
X48099000Y-39355314D01*
X48024104Y-39075802D01*
X47879419Y-38825198D01*
X47674802Y-38620581D01*
X47432252Y-38480546D01*
X48913799Y-36999000D01*
X55032320Y-36999000D01*
X55075802Y-37024104D01*
X55355314Y-37099000D01*
X55644686Y-37099000D01*
X55924198Y-37024104D01*
X56174802Y-36879419D01*
X56379419Y-36674802D01*
X56524104Y-36424198D01*
X56537100Y-36375697D01*
X58401000Y-34511798D01*
X58401000Y-34644686D01*
G36*
X78001000Y-30913798D02*
G01*
X78001001Y-34032319D01*
X77975896Y-34075802D01*
X77901000Y-34355314D01*
X77901000Y-34644686D01*
X77975896Y-34924198D01*
X78120581Y-35174802D01*
X78325198Y-35379419D01*
X78575802Y-35524104D01*
X78855314Y-35599000D01*
X79144686Y-35599000D01*
X79424198Y-35524104D01*
X79674802Y-35379419D01*
X79879419Y-35174802D01*
X80024104Y-34924198D01*
X80099000Y-34644686D01*
X80099000Y-34355314D01*
X80024104Y-34075802D01*
X79999000Y-34032320D01*
X79999000Y-32911798D01*
X81501001Y-34413800D01*
X81501000Y-37477905D01*
X81496096Y-37594897D01*
X81516588Y-37682261D01*
X81528767Y-37771172D01*
X81547709Y-37814944D01*
X81560303Y-37868644D01*
X81592204Y-37917766D01*
X81637468Y-38022367D01*
X81809717Y-38235076D01*
X81853134Y-38265931D01*
X82962900Y-39375698D01*
X82975896Y-39424198D01*
X83001000Y-39467680D01*
X83001001Y-41477883D01*
X82996096Y-41594897D01*
X83016590Y-41682270D01*
X83028768Y-41771172D01*
X83047707Y-41814938D01*
X83060304Y-41868645D01*
X83092203Y-41917765D01*
X83137469Y-42022368D01*
X83309718Y-42235077D01*
X83353128Y-42265926D01*
X83501000Y-42413799D01*
X83501000Y-42520237D01*
X83424198Y-42475896D01*
X83144686Y-42401000D01*
X82855314Y-42401000D01*
X82575802Y-42475896D01*
X82325198Y-42620581D01*
X82120581Y-42825198D01*
X81975896Y-43075802D01*
X81901000Y-43355314D01*
X81901000Y-43644686D01*
X81909773Y-43677428D01*
X81332558Y-44254644D01*
X81332552Y-44254648D01*
X76786202Y-48801000D01*
X73999000Y-48801000D01*
X73999000Y-35467680D01*
X74024104Y-35424198D01*
X74099000Y-35144686D01*
X74099000Y-34855314D01*
X74024104Y-34575802D01*
X73879419Y-34325198D01*
X73674802Y-34120581D01*
X73424198Y-33975896D01*
X73144686Y-33901000D01*
X72855314Y-33901000D01*
X72575802Y-33975896D01*
X72325198Y-34120581D01*
X72120581Y-34325198D01*
X71975896Y-34575802D01*
X71901000Y-34855314D01*
X71901000Y-35144686D01*
X71975896Y-35424198D01*
X72001000Y-35467680D01*
X72001000Y-38020237D01*
X71924198Y-37975896D01*
X71644686Y-37901000D01*
X71355314Y-37901000D01*
X71075802Y-37975896D01*
X70825198Y-38120581D01*
X70744780Y-38201000D01*
X70330956Y-38201000D01*
X69099000Y-36969045D01*
X69099000Y-36855314D01*
X69024104Y-36575802D01*
X68879419Y-36325198D01*
X68674802Y-36120581D01*
X68424198Y-35975896D01*
X68144686Y-35901000D01*
X68011799Y-35901000D01*
X69913799Y-33999000D01*
X71977906Y-33999000D01*
X72094896Y-34003904D01*
X72182256Y-33983414D01*
X72271173Y-33971233D01*
X72314945Y-33952292D01*
X72368646Y-33939696D01*
X72417761Y-33907799D01*
X72522368Y-33862532D01*
X72735076Y-33690283D01*
X72765931Y-33646866D01*
X75190761Y-31222038D01*
X75276970Y-31142765D01*
X75324257Y-31066499D01*
X75378513Y-30995019D01*
X75396069Y-30950678D01*
X75425138Y-30903792D01*
X75437316Y-30846498D01*
X75479271Y-30740533D01*
X75507881Y-30468327D01*
X75499000Y-30415819D01*
X75499000Y-28467680D01*
X75519454Y-28432251D01*
X78001000Y-30913798D01*
G37*
X78001000Y-30913798D02*
X78001001Y-34032319D01*
X77975896Y-34075802D01*
X77901000Y-34355314D01*
X77901000Y-34644686D01*
X77975896Y-34924198D01*
X78120581Y-35174802D01*
X78325198Y-35379419D01*
X78575802Y-35524104D01*
X78855314Y-35599000D01*
X79144686Y-35599000D01*
X79424198Y-35524104D01*
X79674802Y-35379419D01*
X79879419Y-35174802D01*
X80024104Y-34924198D01*
X80099000Y-34644686D01*
X80099000Y-34355314D01*
X80024104Y-34075802D01*
X79999000Y-34032320D01*
X79999000Y-32911798D01*
X81501001Y-34413800D01*
X81501000Y-37477905D01*
X81496096Y-37594897D01*
X81516588Y-37682261D01*
X81528767Y-37771172D01*
X81547709Y-37814944D01*
X81560303Y-37868644D01*
X81592204Y-37917766D01*
X81637468Y-38022367D01*
X81809717Y-38235076D01*
X81853134Y-38265931D01*
X82962900Y-39375698D01*
X82975896Y-39424198D01*
X83001000Y-39467680D01*
X83001001Y-41477883D01*
X82996096Y-41594897D01*
X83016590Y-41682270D01*
X83028768Y-41771172D01*
X83047707Y-41814938D01*
X83060304Y-41868645D01*
X83092203Y-41917765D01*
X83137469Y-42022368D01*
X83309718Y-42235077D01*
X83353128Y-42265926D01*
X83501000Y-42413799D01*
X83501000Y-42520237D01*
X83424198Y-42475896D01*
X83144686Y-42401000D01*
X82855314Y-42401000D01*
X82575802Y-42475896D01*
X82325198Y-42620581D01*
X82120581Y-42825198D01*
X81975896Y-43075802D01*
X81901000Y-43355314D01*
X81901000Y-43644686D01*
X81909773Y-43677428D01*
X81332558Y-44254644D01*
X81332552Y-44254648D01*
X76786202Y-48801000D01*
X73999000Y-48801000D01*
X73999000Y-35467680D01*
X74024104Y-35424198D01*
X74099000Y-35144686D01*
X74099000Y-34855314D01*
X74024104Y-34575802D01*
X73879419Y-34325198D01*
X73674802Y-34120581D01*
X73424198Y-33975896D01*
X73144686Y-33901000D01*
X72855314Y-33901000D01*
X72575802Y-33975896D01*
X72325198Y-34120581D01*
X72120581Y-34325198D01*
X71975896Y-34575802D01*
X71901000Y-34855314D01*
X71901000Y-35144686D01*
X71975896Y-35424198D01*
X72001000Y-35467680D01*
X72001000Y-38020237D01*
X71924198Y-37975896D01*
X71644686Y-37901000D01*
X71355314Y-37901000D01*
X71075802Y-37975896D01*
X70825198Y-38120581D01*
X70744780Y-38201000D01*
X70330956Y-38201000D01*
X69099000Y-36969045D01*
X69099000Y-36855314D01*
X69024104Y-36575802D01*
X68879419Y-36325198D01*
X68674802Y-36120581D01*
X68424198Y-35975896D01*
X68144686Y-35901000D01*
X68011799Y-35901000D01*
X69913799Y-33999000D01*
X71977906Y-33999000D01*
X72094896Y-34003904D01*
X72182256Y-33983414D01*
X72271173Y-33971233D01*
X72314945Y-33952292D01*
X72368646Y-33939696D01*
X72417761Y-33907799D01*
X72522368Y-33862532D01*
X72735076Y-33690283D01*
X72765931Y-33646866D01*
X75190761Y-31222038D01*
X75276970Y-31142765D01*
X75324257Y-31066499D01*
X75378513Y-30995019D01*
X75396069Y-30950678D01*
X75425138Y-30903792D01*
X75437316Y-30846498D01*
X75479271Y-30740533D01*
X75507881Y-30468327D01*
X75499000Y-30415819D01*
X75499000Y-28467680D01*
X75519454Y-28432251D01*
X78001000Y-30913798D01*
G36*
X67575802Y-27524104D02*
G01*
X67855314Y-27599000D01*
X68144686Y-27599000D01*
X68424198Y-27524104D01*
X68467680Y-27499000D01*
X69586203Y-27499000D01*
X71001001Y-28913800D01*
X71001000Y-30532320D01*
X70975896Y-30575802D01*
X70901000Y-30855314D01*
X70901000Y-31144686D01*
X70975896Y-31424198D01*
X71120581Y-31674802D01*
X71325198Y-31879419D01*
X71535784Y-32001000D01*
X69522094Y-32001000D01*
X69405102Y-31996096D01*
X69317738Y-32016588D01*
X69228827Y-32028767D01*
X69185055Y-32047709D01*
X69131356Y-32060303D01*
X69082234Y-32092203D01*
X68977632Y-32137468D01*
X68764923Y-32309717D01*
X68734073Y-32353128D01*
X68019454Y-33067747D01*
X67879419Y-32825198D01*
X67674802Y-32620581D01*
X67424198Y-32475896D01*
X67144686Y-32401000D01*
X66855314Y-32401000D01*
X66575802Y-32475896D01*
X66325198Y-32620581D01*
X66182849Y-32762931D01*
X66132740Y-32779212D01*
X66081236Y-32816632D01*
X66024505Y-32845538D01*
X65968412Y-32901632D01*
X63969045Y-34901000D01*
X63855314Y-34901000D01*
X63575802Y-34975896D01*
X63325198Y-35120581D01*
X63120581Y-35325198D01*
X62975896Y-35575802D01*
X62901000Y-35855314D01*
X62901000Y-36144686D01*
X62975896Y-36424198D01*
X63120581Y-36674802D01*
X63325198Y-36879419D01*
X63575802Y-37024104D01*
X63855314Y-37099000D01*
X63988201Y-37099000D01*
X60499000Y-40588202D01*
X60499000Y-34967680D01*
X60524104Y-34924198D01*
X60599000Y-34644686D01*
X60599000Y-34355314D01*
X60524104Y-34075802D01*
X60379419Y-33825198D01*
X60174802Y-33620581D01*
X59924198Y-33475896D01*
X59644686Y-33401000D01*
X59511798Y-33401000D01*
X60690761Y-32222038D01*
X60776970Y-32142765D01*
X60824257Y-32066499D01*
X60878513Y-31995019D01*
X60896069Y-31950678D01*
X60925138Y-31903792D01*
X60937316Y-31846498D01*
X60979271Y-31740533D01*
X61007881Y-31468327D01*
X61005784Y-31455929D01*
X61024104Y-31424198D01*
X61037100Y-31375698D01*
X61190755Y-31222043D01*
X61276970Y-31142765D01*
X61324259Y-31066496D01*
X61378513Y-30995020D01*
X61396069Y-30950678D01*
X61425138Y-30903792D01*
X61437316Y-30846498D01*
X61479271Y-30740533D01*
X61507881Y-30468327D01*
X61499000Y-30415819D01*
X61499000Y-27499000D01*
X67532320Y-27499000D01*
X67575802Y-27524104D01*
G37*
X67575802Y-27524104D02*
X67855314Y-27599000D01*
X68144686Y-27599000D01*
X68424198Y-27524104D01*
X68467680Y-27499000D01*
X69586203Y-27499000D01*
X71001001Y-28913800D01*
X71001000Y-30532320D01*
X70975896Y-30575802D01*
X70901000Y-30855314D01*
X70901000Y-31144686D01*
X70975896Y-31424198D01*
X71120581Y-31674802D01*
X71325198Y-31879419D01*
X71535784Y-32001000D01*
X69522094Y-32001000D01*
X69405102Y-31996096D01*
X69317738Y-32016588D01*
X69228827Y-32028767D01*
X69185055Y-32047709D01*
X69131356Y-32060303D01*
X69082234Y-32092203D01*
X68977632Y-32137468D01*
X68764923Y-32309717D01*
X68734073Y-32353128D01*
X68019454Y-33067747D01*
X67879419Y-32825198D01*
X67674802Y-32620581D01*
X67424198Y-32475896D01*
X67144686Y-32401000D01*
X66855314Y-32401000D01*
X66575802Y-32475896D01*
X66325198Y-32620581D01*
X66182849Y-32762931D01*
X66132740Y-32779212D01*
X66081236Y-32816632D01*
X66024505Y-32845538D01*
X65968412Y-32901632D01*
X63969045Y-34901000D01*
X63855314Y-34901000D01*
X63575802Y-34975896D01*
X63325198Y-35120581D01*
X63120581Y-35325198D01*
X62975896Y-35575802D01*
X62901000Y-35855314D01*
X62901000Y-36144686D01*
X62975896Y-36424198D01*
X63120581Y-36674802D01*
X63325198Y-36879419D01*
X63575802Y-37024104D01*
X63855314Y-37099000D01*
X63988201Y-37099000D01*
X60499000Y-40588202D01*
X60499000Y-34967680D01*
X60524104Y-34924198D01*
X60599000Y-34644686D01*
X60599000Y-34355314D01*
X60524104Y-34075802D01*
X60379419Y-33825198D01*
X60174802Y-33620581D01*
X59924198Y-33475896D01*
X59644686Y-33401000D01*
X59511798Y-33401000D01*
X60690761Y-32222038D01*
X60776970Y-32142765D01*
X60824257Y-32066499D01*
X60878513Y-31995019D01*
X60896069Y-31950678D01*
X60925138Y-31903792D01*
X60937316Y-31846498D01*
X60979271Y-31740533D01*
X61007881Y-31468327D01*
X61005784Y-31455929D01*
X61024104Y-31424198D01*
X61037100Y-31375698D01*
X61190755Y-31222043D01*
X61276970Y-31142765D01*
X61324259Y-31066496D01*
X61378513Y-30995020D01*
X61396069Y-30950678D01*
X61425138Y-30903792D01*
X61437316Y-30846498D01*
X61479271Y-30740533D01*
X61507881Y-30468327D01*
X61499000Y-30415819D01*
X61499000Y-27499000D01*
X67532320Y-27499000D01*
X67575802Y-27524104D01*
G36*
X54575802Y-27524104D02*
G01*
X54855314Y-27599000D01*
X55144686Y-27599000D01*
X55424198Y-27524104D01*
X55467680Y-27499000D01*
X59501000Y-27499000D01*
X59501001Y-30019082D01*
X59325198Y-30120581D01*
X59120581Y-30325198D01*
X58975896Y-30575802D01*
X58901000Y-30855314D01*
X58901000Y-31144686D01*
X58909773Y-31177429D01*
X55124302Y-34962900D01*
X55075802Y-34975896D01*
X55032320Y-35001000D01*
X54964216Y-35001000D01*
X55174802Y-34879419D01*
X55379419Y-34674802D01*
X55524104Y-34424198D01*
X55599000Y-34144686D01*
X55599000Y-33855314D01*
X55524104Y-33575802D01*
X55379419Y-33325198D01*
X55174802Y-33120581D01*
X54924198Y-32975896D01*
X54644686Y-32901000D01*
X54355314Y-32901000D01*
X54075802Y-32975896D01*
X53825198Y-33120581D01*
X53620581Y-33325198D01*
X53564837Y-33421750D01*
X53564837Y-33055000D01*
X51945000Y-33055000D01*
X51945000Y-31435163D01*
X52055000Y-31435163D01*
X52055000Y-32945000D01*
X53564837Y-32945000D01*
X53564837Y-32123801D01*
X53477529Y-31797963D01*
X53311462Y-31600052D01*
X53095539Y-31475388D01*
X52867410Y-31435163D01*
X52055000Y-31435163D01*
X51945000Y-31435163D01*
X51123801Y-31435163D01*
X50797963Y-31522471D01*
X50600052Y-31688538D01*
X50475388Y-31904461D01*
X50467185Y-31950981D01*
X50459000Y-31944352D01*
X50459000Y-30953797D01*
X53913799Y-27499000D01*
X54532320Y-27499000D01*
X54575802Y-27524104D01*
G37*
X54575802Y-27524104D02*
X54855314Y-27599000D01*
X55144686Y-27599000D01*
X55424198Y-27524104D01*
X55467680Y-27499000D01*
X59501000Y-27499000D01*
X59501001Y-30019082D01*
X59325198Y-30120581D01*
X59120581Y-30325198D01*
X58975896Y-30575802D01*
X58901000Y-30855314D01*
X58901000Y-31144686D01*
X58909773Y-31177429D01*
X55124302Y-34962900D01*
X55075802Y-34975896D01*
X55032320Y-35001000D01*
X54964216Y-35001000D01*
X55174802Y-34879419D01*
X55379419Y-34674802D01*
X55524104Y-34424198D01*
X55599000Y-34144686D01*
X55599000Y-33855314D01*
X55524104Y-33575802D01*
X55379419Y-33325198D01*
X55174802Y-33120581D01*
X54924198Y-32975896D01*
X54644686Y-32901000D01*
X54355314Y-32901000D01*
X54075802Y-32975896D01*
X53825198Y-33120581D01*
X53620581Y-33325198D01*
X53564837Y-33421750D01*
X53564837Y-33055000D01*
X51945000Y-33055000D01*
X51945000Y-31435163D01*
X52055000Y-31435163D01*
X52055000Y-32945000D01*
X53564837Y-32945000D01*
X53564837Y-32123801D01*
X53477529Y-31797963D01*
X53311462Y-31600052D01*
X53095539Y-31475388D01*
X52867410Y-31435163D01*
X52055000Y-31435163D01*
X51945000Y-31435163D01*
X51123801Y-31435163D01*
X50797963Y-31522471D01*
X50600052Y-31688538D01*
X50475388Y-31904461D01*
X50467185Y-31950981D01*
X50459000Y-31944352D01*
X50459000Y-30953797D01*
X53913799Y-27499000D01*
X54532320Y-27499000D01*
X54575802Y-27524104D01*
M02*
