M48
; DRILL file {KiCad (5.99.0-490-gc7ce93e10)} date Di 10 Dez 2019 12:24:41 CET
; FORMAT={2:4/ absolute / inch / suppress leading zeros}
; #@! TF.CreationDate,2019-12-10T12:24:41+01:00
; #@! TF.GenerationSoftware,Kicad,Pcbnew,(5.99.0-490-gc7ce93e10)
; #@! TF.FileFunction,Plated,1,2,PTH
FMAT,2
INCH,TZ
T1C0.0157
T2C0.0394
%
G90
G05
T1
X15945Y-17913
X17323Y-16929
X17323Y-19685
X17717Y-14764
X18110Y-23031
X18307Y-18898
X18504Y-15551
X18504Y-21063
X18701Y-18504
X20472Y-18110
X21457Y-13386
X21654Y-10433
X21654Y-33858
X21850Y-14173
X23425Y-13583
X23622Y-12205
X24016Y-31693
X24016Y-34449
X25197Y-14173
X25984Y-15354
X26181Y-12402
X26378Y-13189
X26772Y-10433
X26772Y-14567
X27165Y-31890
X27756Y-13976
X27953Y-17126
X28150Y-15354
X28346Y-12205
X28740Y-13780
X29331Y-11024
X29921Y-20079
X30118Y-15157
X31102Y-13583
X32283Y-22441
X32677Y-17126
X33071Y-15354
X33268Y-17913
X33465Y-14173
X33465Y-19685
T2
X17472Y-12992
X18472Y-12992
X19472Y-12992
X20472Y-12992
X16504Y-11417
X17504Y-11417
X18504Y-11417
T0
M30
