G04 #@! TF.GenerationSoftware,KiCad,Pcbnew,(5.99.0-490-gc7ce93e10)*
G04 #@! TF.CreationDate,2019-12-10T12:24:38+01:00*
G04 #@! TF.ProjectId,Led,4c65642e-6b69-4636-9164-5f7063625858,rev?*
G04 #@! TF.SameCoordinates,Original*
G04 #@! TF.FileFunction,Copper,L1,Top*
G04 #@! TF.FilePolarity,Positive*
%FSLAX46Y46*%
G04 Gerber Fmt 4.6, Leading zero omitted, Abs format (unit mm)*
G04 Created by KiCad (PCBNEW (5.99.0-490-gc7ce93e10)) date 2019-12-10 12:24:38*
%MOMM*%
%LPD*%
G04 APERTURE LIST*
%ADD10R,0.500000X0.900000*%
%ADD11R,1.700000X1.700000*%
%ADD12O,1.700000X1.700000*%
%ADD13R,0.800000X2.700000*%
%ADD14R,1.500000X2.600000*%
%ADD15R,1.000000X1.250000*%
%ADD16R,0.750000X0.800000*%
%ADD17R,1.600000X1.000000*%
%ADD18R,1.060000X0.650000*%
%ADD19R,0.900000X0.800000*%
%ADD20R,0.900000X0.500000*%
%ADD21R,2.100000X2.100000*%
%ADD22R,2.100000X1.000000*%
%ADD23R,1.700000X0.900000*%
%ADD24R,0.900000X1.700000*%
%ADD25C,1.000000*%
%ADD26C,0.400000*%
%ADD27C,0.200000*%
%ADD28C,0.800000*%
G04 APERTURE END LIST*
D10*
X42250000Y-26500000D03*
X43750000Y-26500000D03*
X50250000Y-47000000D03*
X51750000Y-47000000D03*
D11*
X47000000Y-29000000D03*
D12*
X44460000Y-29000000D03*
X41920000Y-29000000D03*
D13*
X85100000Y-36000000D03*
X82900000Y-36000000D03*
X61100000Y-28000000D03*
X58900000Y-28000000D03*
X74100000Y-28000000D03*
X71900000Y-28000000D03*
G04 #@! TA.AperFunction,SMDPad,CuDef*
G36*
X55950458Y-85188440D02*
G01*
X58510958Y-85639925D01*
X58250486Y-87117136D01*
X55689986Y-86665651D01*
X55950458Y-85188440D01*
G37*
G04 #@! TD.AperFunction*
G04 #@! TA.AperFunction,SMDPad,CuDef*
G36*
X55429514Y-88142864D02*
G01*
X57990014Y-88594349D01*
X57729542Y-90071560D01*
X55169042Y-89620075D01*
X55429514Y-88142864D01*
G37*
G04 #@! TD.AperFunction*
G04 #@! TA.AperFunction,SMDPad,CuDef*
G36*
X48999167Y-82181443D02*
G01*
X51250833Y-83481443D01*
X50500833Y-84780481D01*
X48249167Y-83480481D01*
X48999167Y-82181443D01*
G37*
G04 #@! TD.AperFunction*
G04 #@! TA.AperFunction,SMDPad,CuDef*
G36*
X47499167Y-84779519D02*
G01*
X49750833Y-86079519D01*
X49000833Y-87378557D01*
X46749167Y-86078557D01*
X47499167Y-84779519D01*
G37*
G04 #@! TD.AperFunction*
G04 #@! TA.AperFunction,SMDPad,CuDef*
G36*
X43507976Y-76977871D02*
G01*
X45179224Y-78969586D01*
X44030158Y-79933767D01*
X42358910Y-77942052D01*
X43507976Y-76977871D01*
G37*
G04 #@! TD.AperFunction*
G04 #@! TA.AperFunction,SMDPad,CuDef*
G36*
X41209842Y-78906233D02*
G01*
X42881090Y-80897948D01*
X41732024Y-81862129D01*
X40060776Y-79870414D01*
X41209842Y-78906233D01*
G37*
G04 #@! TD.AperFunction*
G04 #@! TA.AperFunction,SMDPad,CuDef*
G36*
X40119682Y-70208854D02*
G01*
X41008935Y-72652055D01*
X39599396Y-73165086D01*
X38710143Y-70721885D01*
X40119682Y-70208854D01*
G37*
G04 #@! TD.AperFunction*
G04 #@! TA.AperFunction,SMDPad,CuDef*
G36*
X37300604Y-71234914D02*
G01*
X38189857Y-73678115D01*
X36780318Y-74191146D01*
X35891065Y-71747945D01*
X37300604Y-71234914D01*
G37*
G04 #@! TD.AperFunction*
D14*
X38500000Y-64000000D03*
X35500000Y-64000000D03*
G04 #@! TA.AperFunction,SMDPad,CuDef*
G36*
X41008935Y-55347945D02*
G01*
X40119682Y-57791146D01*
X38710143Y-57278115D01*
X39599396Y-54834914D01*
X41008935Y-55347945D01*
G37*
G04 #@! TD.AperFunction*
G04 #@! TA.AperFunction,SMDPad,CuDef*
G36*
X38189857Y-54321885D02*
G01*
X37300604Y-56765086D01*
X35891065Y-56252055D01*
X36780318Y-53808854D01*
X38189857Y-54321885D01*
G37*
G04 #@! TD.AperFunction*
G04 #@! TA.AperFunction,SMDPad,CuDef*
G36*
X45179224Y-49030414D02*
G01*
X43507976Y-51022129D01*
X42358910Y-50057948D01*
X44030158Y-48066233D01*
X45179224Y-49030414D01*
G37*
G04 #@! TD.AperFunction*
G04 #@! TA.AperFunction,SMDPad,CuDef*
G36*
X42881090Y-47102052D02*
G01*
X41209842Y-49093767D01*
X40060776Y-48129586D01*
X41732024Y-46137871D01*
X42881090Y-47102052D01*
G37*
G04 #@! TD.AperFunction*
G04 #@! TA.AperFunction,SMDPad,CuDef*
G36*
X51250833Y-44518557D02*
G01*
X48999167Y-45818557D01*
X48249167Y-44519519D01*
X50500833Y-43219519D01*
X51250833Y-44518557D01*
G37*
G04 #@! TD.AperFunction*
G04 #@! TA.AperFunction,SMDPad,CuDef*
G36*
X49750833Y-41920481D02*
G01*
X47499167Y-43220481D01*
X46749167Y-41921443D01*
X49000833Y-40621443D01*
X49750833Y-41920481D01*
G37*
G04 #@! TD.AperFunction*
G04 #@! TA.AperFunction,SMDPad,CuDef*
G36*
X58510958Y-42360075D02*
G01*
X55950458Y-42811560D01*
X55689986Y-41334349D01*
X58250486Y-40882864D01*
X58510958Y-42360075D01*
G37*
G04 #@! TD.AperFunction*
G04 #@! TA.AperFunction,SMDPad,CuDef*
G36*
X57990014Y-39405651D02*
G01*
X55429514Y-39857136D01*
X55169042Y-38379925D01*
X57729542Y-37928440D01*
X57990014Y-39405651D01*
G37*
G04 #@! TD.AperFunction*
G04 #@! TA.AperFunction,SMDPad,CuDef*
G36*
X66049542Y-42811560D02*
G01*
X63489042Y-42360075D01*
X63749514Y-40882864D01*
X66310014Y-41334349D01*
X66049542Y-42811560D01*
G37*
G04 #@! TD.AperFunction*
G04 #@! TA.AperFunction,SMDPad,CuDef*
G36*
X66570486Y-39857136D02*
G01*
X64009986Y-39405651D01*
X64270458Y-37928440D01*
X66830958Y-38379925D01*
X66570486Y-39857136D01*
G37*
G04 #@! TD.AperFunction*
G04 #@! TA.AperFunction,SMDPad,CuDef*
G36*
X78492024Y-51022129D02*
G01*
X76820776Y-49030414D01*
X77969842Y-48066233D01*
X79641090Y-50057948D01*
X78492024Y-51022129D01*
G37*
G04 #@! TD.AperFunction*
G04 #@! TA.AperFunction,SMDPad,CuDef*
G36*
X80790158Y-49093767D02*
G01*
X79118910Y-47102052D01*
X80267976Y-46137871D01*
X81939224Y-48129586D01*
X80790158Y-49093767D01*
G37*
G04 #@! TD.AperFunction*
G04 #@! TA.AperFunction,SMDPad,CuDef*
G36*
X81880318Y-57791146D02*
G01*
X80991065Y-55347945D01*
X82400604Y-54834914D01*
X83289857Y-57278115D01*
X81880318Y-57791146D01*
G37*
G04 #@! TD.AperFunction*
G04 #@! TA.AperFunction,SMDPad,CuDef*
G36*
X84699396Y-56765086D02*
G01*
X83810143Y-54321885D01*
X85219682Y-53808854D01*
X86108935Y-56252055D01*
X84699396Y-56765086D01*
G37*
G04 #@! TD.AperFunction*
X83500000Y-64000000D03*
X86500000Y-64000000D03*
G04 #@! TA.AperFunction,SMDPad,CuDef*
G36*
X80991065Y-72652055D02*
G01*
X81880318Y-70208854D01*
X83289857Y-70721885D01*
X82400604Y-73165086D01*
X80991065Y-72652055D01*
G37*
G04 #@! TD.AperFunction*
G04 #@! TA.AperFunction,SMDPad,CuDef*
G36*
X83810143Y-73678115D02*
G01*
X84699396Y-71234914D01*
X86108935Y-71747945D01*
X85219682Y-74191146D01*
X83810143Y-73678115D01*
G37*
G04 #@! TD.AperFunction*
G04 #@! TA.AperFunction,SMDPad,CuDef*
G36*
X76820776Y-78969586D02*
G01*
X78492024Y-76977871D01*
X79641090Y-77942052D01*
X77969842Y-79933767D01*
X76820776Y-78969586D01*
G37*
G04 #@! TD.AperFunction*
G04 #@! TA.AperFunction,SMDPad,CuDef*
G36*
X79118910Y-80897948D02*
G01*
X80790158Y-78906233D01*
X81939224Y-79870414D01*
X80267976Y-81862129D01*
X79118910Y-80897948D01*
G37*
G04 #@! TD.AperFunction*
G04 #@! TA.AperFunction,SMDPad,CuDef*
G36*
X70739167Y-83481443D02*
G01*
X72990833Y-82181443D01*
X73740833Y-83480481D01*
X71489167Y-84780481D01*
X70739167Y-83481443D01*
G37*
G04 #@! TD.AperFunction*
G04 #@! TA.AperFunction,SMDPad,CuDef*
G36*
X72239167Y-86079519D02*
G01*
X74490833Y-84779519D01*
X75240833Y-86078557D01*
X72989167Y-87378557D01*
X72239167Y-86079519D01*
G37*
G04 #@! TD.AperFunction*
G04 #@! TA.AperFunction,SMDPad,CuDef*
G36*
X63489042Y-85639925D02*
G01*
X66049542Y-85188440D01*
X66310014Y-86665651D01*
X63749514Y-87117136D01*
X63489042Y-85639925D01*
G37*
G04 #@! TD.AperFunction*
G04 #@! TA.AperFunction,SMDPad,CuDef*
G36*
X64009986Y-88594349D02*
G01*
X66570486Y-88142864D01*
X66830958Y-89620075D01*
X64270458Y-90071560D01*
X64009986Y-88594349D01*
G37*
G04 #@! TD.AperFunction*
D15*
X74000000Y-37000000D03*
X72000000Y-37000000D03*
X84000000Y-45000000D03*
X82000000Y-45000000D03*
D16*
X76000000Y-32250000D03*
X76000000Y-33750000D03*
D15*
X54000000Y-36000000D03*
X52000000Y-36000000D03*
D16*
X63000000Y-32250000D03*
X63000000Y-33750000D03*
X88000000Y-37250000D03*
X88000000Y-38750000D03*
X37000000Y-42750000D03*
X37000000Y-41250000D03*
D17*
X68000000Y-26500000D03*
X68000000Y-29500000D03*
X55000000Y-26500000D03*
X55000000Y-29500000D03*
X79000000Y-34500000D03*
X79000000Y-37500000D03*
D18*
X55900000Y-32050000D03*
X55900000Y-33000000D03*
X55900000Y-33950000D03*
X58100000Y-33950000D03*
X58100000Y-32050000D03*
X79900000Y-40050000D03*
X79900000Y-41000000D03*
X79900000Y-41950000D03*
X82100000Y-41950000D03*
X82100000Y-40050000D03*
X68900000Y-32050000D03*
X68900000Y-33000000D03*
X68900000Y-33950000D03*
X71100000Y-33950000D03*
X71100000Y-32050000D03*
D19*
X40000000Y-41050000D03*
X40000000Y-42950000D03*
X42000000Y-42000000D03*
D20*
X74000000Y-33750000D03*
X74000000Y-32250000D03*
X61000000Y-33750000D03*
X61000000Y-32250000D03*
X86000000Y-41750000D03*
X86000000Y-40250000D03*
G04 #@! TA.AperFunction,SMDPad,CuDef*
G36*
X73200833Y-45598557D02*
G01*
X70949167Y-44298557D01*
X71699167Y-42999519D01*
X73950833Y-44299519D01*
X73200833Y-45598557D01*
G37*
G04 #@! TD.AperFunction*
G04 #@! TA.AperFunction,SMDPad,CuDef*
G36*
X74700833Y-43000481D02*
G01*
X72449167Y-41700481D01*
X73199167Y-40401443D01*
X75450833Y-41701443D01*
X74700833Y-43000481D01*
G37*
G04 #@! TD.AperFunction*
D21*
X61000000Y-82810000D03*
D22*
X61000000Y-80650000D03*
G04 #@! TA.AperFunction,SMDPad,CuDef*
G36*
X53945408Y-80325353D02*
G01*
X55918762Y-81043595D01*
X55200520Y-83016949D01*
X53227166Y-82298707D01*
X53945408Y-80325353D01*
G37*
G04 #@! TD.AperFunction*
G04 #@! TA.AperFunction,SMDPad,CuDef*
G36*
X54496060Y-78812448D02*
G01*
X56469414Y-79530690D01*
X56127394Y-80470382D01*
X54154040Y-79752140D01*
X54496060Y-78812448D01*
G37*
G04 #@! TD.AperFunction*
G04 #@! TA.AperFunction,SMDPad,CuDef*
G36*
X48779922Y-76921222D02*
G01*
X50388616Y-78271076D01*
X49038762Y-79879770D01*
X47430068Y-78529916D01*
X48779922Y-76921222D01*
G37*
G04 #@! TD.AperFunction*
G04 #@! TA.AperFunction,SMDPad,CuDef*
G36*
X49814810Y-75687891D02*
G01*
X51423503Y-77037745D01*
X50780716Y-77803789D01*
X49172023Y-76453935D01*
X49814810Y-75687891D01*
G37*
G04 #@! TD.AperFunction*
G04 #@! TA.AperFunction,SMDPad,CuDef*
G36*
X45102846Y-71970673D02*
G01*
X46152846Y-73789327D01*
X44334192Y-74839327D01*
X43284192Y-73020673D01*
X45102846Y-71970673D01*
G37*
G04 #@! TD.AperFunction*
G04 #@! TA.AperFunction,SMDPad,CuDef*
G36*
X46497147Y-71165673D02*
G01*
X47547147Y-72984327D01*
X46681121Y-73484327D01*
X45631121Y-71665673D01*
X46497147Y-71165673D01*
G37*
G04 #@! TD.AperFunction*
G04 #@! TA.AperFunction,SMDPad,CuDef*
G36*
X43334024Y-66044276D02*
G01*
X43698685Y-68112373D01*
X41630588Y-68477034D01*
X41265927Y-66408937D01*
X43334024Y-66044276D01*
G37*
G04 #@! TD.AperFunction*
G04 #@! TA.AperFunction,SMDPad,CuDef*
G36*
X44919563Y-65764703D02*
G01*
X45284224Y-67832799D01*
X44299417Y-68006447D01*
X43934756Y-65938351D01*
X44919563Y-65764703D01*
G37*
G04 #@! TD.AperFunction*
G04 #@! TA.AperFunction,SMDPad,CuDef*
G36*
X43698685Y-59887627D02*
G01*
X43334024Y-61955724D01*
X41265927Y-61591063D01*
X41630588Y-59522966D01*
X43698685Y-59887627D01*
G37*
G04 #@! TD.AperFunction*
G04 #@! TA.AperFunction,SMDPad,CuDef*
G36*
X45284224Y-60167201D02*
G01*
X44919563Y-62235297D01*
X43934756Y-62061649D01*
X44299417Y-59993553D01*
X45284224Y-60167201D01*
G37*
G04 #@! TD.AperFunction*
G04 #@! TA.AperFunction,SMDPad,CuDef*
G36*
X46152846Y-54210673D02*
G01*
X45102846Y-56029327D01*
X43284192Y-54979327D01*
X44334192Y-53160673D01*
X46152846Y-54210673D01*
G37*
G04 #@! TD.AperFunction*
G04 #@! TA.AperFunction,SMDPad,CuDef*
G36*
X47547147Y-55015673D02*
G01*
X46497147Y-56834327D01*
X45631121Y-56334327D01*
X46681121Y-54515673D01*
X47547147Y-55015673D01*
G37*
G04 #@! TD.AperFunction*
G04 #@! TA.AperFunction,SMDPad,CuDef*
G36*
X50388616Y-49728924D02*
G01*
X48779922Y-51078778D01*
X47430068Y-49470084D01*
X49038762Y-48120230D01*
X50388616Y-49728924D01*
G37*
G04 #@! TD.AperFunction*
G04 #@! TA.AperFunction,SMDPad,CuDef*
G36*
X51423503Y-50962255D02*
G01*
X49814810Y-52312109D01*
X49172023Y-51546065D01*
X50780716Y-50196211D01*
X51423503Y-50962255D01*
G37*
G04 #@! TD.AperFunction*
G04 #@! TA.AperFunction,SMDPad,CuDef*
G36*
X55918762Y-46956405D02*
G01*
X53945408Y-47674647D01*
X53227166Y-45701293D01*
X55200520Y-44983051D01*
X55918762Y-46956405D01*
G37*
G04 #@! TD.AperFunction*
G04 #@! TA.AperFunction,SMDPad,CuDef*
G36*
X56469414Y-48469310D02*
G01*
X54496060Y-49187552D01*
X54154040Y-48247860D01*
X56127394Y-47529618D01*
X56469414Y-48469310D01*
G37*
G04 #@! TD.AperFunction*
D21*
X61000000Y-45190000D03*
D22*
X61000000Y-47350000D03*
G04 #@! TA.AperFunction,SMDPad,CuDef*
G36*
X68054592Y-47674647D02*
G01*
X66081238Y-46956405D01*
X66799480Y-44983051D01*
X68772834Y-45701293D01*
X68054592Y-47674647D01*
G37*
G04 #@! TD.AperFunction*
G04 #@! TA.AperFunction,SMDPad,CuDef*
G36*
X67503940Y-49187552D02*
G01*
X65530586Y-48469310D01*
X65872606Y-47529618D01*
X67845960Y-48247860D01*
X67503940Y-49187552D01*
G37*
G04 #@! TD.AperFunction*
G04 #@! TA.AperFunction,SMDPad,CuDef*
G36*
X73220078Y-51078778D02*
G01*
X71611384Y-49728924D01*
X72961238Y-48120230D01*
X74569932Y-49470084D01*
X73220078Y-51078778D01*
G37*
G04 #@! TD.AperFunction*
G04 #@! TA.AperFunction,SMDPad,CuDef*
G36*
X72185190Y-52312109D02*
G01*
X70576497Y-50962255D01*
X71219284Y-50196211D01*
X72827977Y-51546065D01*
X72185190Y-52312109D01*
G37*
G04 #@! TD.AperFunction*
G04 #@! TA.AperFunction,SMDPad,CuDef*
G36*
X76897154Y-56039327D02*
G01*
X75847154Y-54220673D01*
X77665808Y-53170673D01*
X78715808Y-54989327D01*
X76897154Y-56039327D01*
G37*
G04 #@! TD.AperFunction*
G04 #@! TA.AperFunction,SMDPad,CuDef*
G36*
X75502853Y-56844327D02*
G01*
X74452853Y-55025673D01*
X75318879Y-54525673D01*
X76368879Y-56344327D01*
X75502853Y-56844327D01*
G37*
G04 #@! TD.AperFunction*
G04 #@! TA.AperFunction,SMDPad,CuDef*
G36*
X78665976Y-61955724D02*
G01*
X78301315Y-59887627D01*
X80369412Y-59522966D01*
X80734073Y-61591063D01*
X78665976Y-61955724D01*
G37*
G04 #@! TD.AperFunction*
G04 #@! TA.AperFunction,SMDPad,CuDef*
G36*
X77080437Y-62235297D02*
G01*
X76715776Y-60167201D01*
X77700583Y-59993553D01*
X78065244Y-62061649D01*
X77080437Y-62235297D01*
G37*
G04 #@! TD.AperFunction*
G04 #@! TA.AperFunction,SMDPad,CuDef*
G36*
X78301315Y-68112373D02*
G01*
X78665976Y-66044276D01*
X80734073Y-66408937D01*
X80369412Y-68477034D01*
X78301315Y-68112373D01*
G37*
G04 #@! TD.AperFunction*
G04 #@! TA.AperFunction,SMDPad,CuDef*
G36*
X76715776Y-67832799D02*
G01*
X77080437Y-65764703D01*
X78065244Y-65938351D01*
X77700583Y-68006447D01*
X76715776Y-67832799D01*
G37*
G04 #@! TD.AperFunction*
G04 #@! TA.AperFunction,SMDPad,CuDef*
G36*
X75847154Y-73789327D02*
G01*
X76897154Y-71970673D01*
X78715808Y-73020673D01*
X77665808Y-74839327D01*
X75847154Y-73789327D01*
G37*
G04 #@! TD.AperFunction*
G04 #@! TA.AperFunction,SMDPad,CuDef*
G36*
X74452853Y-72984327D02*
G01*
X75502853Y-71165673D01*
X76368879Y-71665673D01*
X75318879Y-73484327D01*
X74452853Y-72984327D01*
G37*
G04 #@! TD.AperFunction*
G04 #@! TA.AperFunction,SMDPad,CuDef*
G36*
X71611384Y-78271076D02*
G01*
X73220078Y-76921222D01*
X74569932Y-78529916D01*
X72961238Y-79879770D01*
X71611384Y-78271076D01*
G37*
G04 #@! TD.AperFunction*
G04 #@! TA.AperFunction,SMDPad,CuDef*
G36*
X70576497Y-77037745D02*
G01*
X72185190Y-75687891D01*
X72827977Y-76453935D01*
X71219284Y-77803789D01*
X70576497Y-77037745D01*
G37*
G04 #@! TD.AperFunction*
G04 #@! TA.AperFunction,SMDPad,CuDef*
G36*
X66081238Y-81043595D02*
G01*
X68054592Y-80325353D01*
X68772834Y-82298707D01*
X66799480Y-83016949D01*
X66081238Y-81043595D01*
G37*
G04 #@! TD.AperFunction*
G04 #@! TA.AperFunction,SMDPad,CuDef*
G36*
X65530586Y-79530690D02*
G01*
X67503940Y-78812448D01*
X67845960Y-79752140D01*
X65872606Y-80470382D01*
X65530586Y-79530690D01*
G37*
G04 #@! TD.AperFunction*
D11*
X52000000Y-33000000D03*
D12*
X49460000Y-33000000D03*
X46920000Y-33000000D03*
X44380000Y-33000000D03*
D23*
X61000000Y-87050000D03*
X61000000Y-89950000D03*
D24*
X85450000Y-51500000D03*
X82550000Y-51500000D03*
D23*
X38000000Y-49050000D03*
X38000000Y-51950000D03*
D25*
X45000000Y-37500000D03*
X47000000Y-39500000D03*
X47500000Y-47000000D03*
X46500000Y-48000000D03*
X52000000Y-46000000D03*
X68000000Y-37000000D03*
X71500000Y-39000000D03*
X67000000Y-33500000D03*
X64000000Y-36000000D03*
X54500000Y-34000000D03*
X55000000Y-86000000D03*
X44000000Y-50000000D03*
X82000000Y-57000000D03*
X44000000Y-43000000D03*
X76000000Y-51000000D03*
X83000000Y-43500000D03*
X69000000Y-81000000D03*
X85000000Y-36000000D03*
X47000000Y-53500000D03*
X59500000Y-34500000D03*
X73000000Y-35000000D03*
X61000000Y-80500000D03*
X46000000Y-58500000D03*
X74500000Y-28000000D03*
X68000000Y-26500000D03*
X79000000Y-34500000D03*
X72000000Y-31000000D03*
X60000000Y-31000000D03*
X84000000Y-39000000D03*
X55500000Y-36000000D03*
X85000000Y-50000000D03*
X84500000Y-45500000D03*
X40500000Y-45500000D03*
X61000000Y-87500000D03*
X55000000Y-26500000D03*
X71000000Y-43500000D03*
X66000000Y-39000000D03*
X76500000Y-38500000D03*
X70500000Y-35500000D03*
X66500000Y-31500000D03*
D26*
X82550000Y-51500000D02*
X82550000Y-49636752D01*
X82550000Y-49636752D02*
X80529067Y-47615819D01*
X85500000Y-50500000D02*
X85450000Y-50550000D01*
X85450000Y-50550000D02*
X85450000Y-51500000D01*
X85000000Y-50000000D02*
X85500000Y-50500000D01*
D27*
X44460000Y-28297919D02*
X43750000Y-27587919D01*
X44460000Y-29500000D02*
X44460000Y-28297919D01*
X43750000Y-27587919D02*
X43750000Y-26500000D01*
X41920000Y-28080000D02*
X42250000Y-27750000D01*
X42250000Y-27750000D02*
X42250000Y-26500000D01*
X41920000Y-29500000D02*
X41920000Y-28080000D01*
X47000000Y-39500000D02*
X45000000Y-37500000D01*
X50250000Y-47000000D02*
X47500000Y-47000000D01*
X51750000Y-46250000D02*
X52000000Y-46000000D01*
X51750000Y-47000000D02*
X51750000Y-46250000D01*
D26*
X68850000Y-34000000D02*
X68900000Y-33950000D01*
X68850000Y-34000000D02*
X68900000Y-33950000D01*
X67500000Y-36500000D02*
X67000000Y-36000000D01*
X75000000Y-39000000D02*
X71500000Y-39000000D01*
X77950000Y-41950000D02*
X79900000Y-41950000D01*
X77950000Y-41950000D02*
X75000000Y-39000000D01*
X56000000Y-34000000D02*
X55900000Y-33950000D01*
X58000000Y-36000000D02*
X56000000Y-34000000D01*
X64000000Y-36000000D02*
X58000000Y-36000000D01*
X67000000Y-36000000D02*
X64000000Y-36000000D01*
X68850000Y-34000000D02*
X68900000Y-33950000D01*
X68000000Y-34000000D02*
X68850000Y-34000000D01*
X67500000Y-36500000D02*
X68000000Y-37000000D01*
X67000000Y-33500000D02*
X67500000Y-34000000D01*
X68000000Y-34000000D02*
X67500000Y-34000000D01*
X54550000Y-33950000D02*
X55900000Y-33950000D01*
X54500000Y-34000000D02*
X54550000Y-33950000D01*
D28*
X81500000Y-37500000D02*
X79000000Y-37500000D01*
X82900000Y-36100000D02*
X81500000Y-37500000D01*
X82900000Y-36000000D02*
X82900000Y-36100000D01*
D26*
X79050000Y-40050000D02*
X78000000Y-39000000D01*
X78000000Y-39000000D02*
X78000000Y-38500000D01*
X78000000Y-38500000D02*
X79000000Y-37500000D01*
X79900000Y-40050000D02*
X79050000Y-40050000D01*
X55000000Y-30000000D02*
X55000000Y-29500000D01*
X55900000Y-30900000D02*
X55000000Y-30000000D01*
X55900000Y-32050000D02*
X55900000Y-30900000D01*
D28*
X58000000Y-28000000D02*
X56500000Y-29500000D01*
X56500000Y-29500000D02*
X55000000Y-29500000D01*
X58900000Y-28000000D02*
X58000000Y-28000000D01*
X69500000Y-29500000D02*
X71000000Y-28000000D01*
X71000000Y-28000000D02*
X71900000Y-28000000D01*
X68000000Y-29500000D02*
X69500000Y-29500000D01*
D26*
X68900000Y-30400000D02*
X68000000Y-29500000D01*
X68900000Y-32050000D02*
X68900000Y-30400000D01*
X40000000Y-78913248D02*
X41470933Y-80384181D01*
X40000000Y-72000000D02*
X40000000Y-78913248D01*
X39859539Y-71859539D02*
X40000000Y-72000000D01*
X39859539Y-71686970D02*
X39859539Y-71859539D01*
X58892788Y-38892788D02*
X61847212Y-41847212D01*
X61847212Y-41847212D02*
X64899528Y-41847212D01*
X56579528Y-38892788D02*
X58892788Y-38892788D01*
D28*
X55000000Y-86000000D02*
X55152788Y-86152788D01*
X55152788Y-86152788D02*
X57100472Y-86152788D01*
X43769067Y-49769067D02*
X43769067Y-49544181D01*
X44000000Y-50000000D02*
X43769067Y-49769067D01*
X82140461Y-56859539D02*
X82140461Y-56313030D01*
X82000000Y-57000000D02*
X82140461Y-56859539D01*
X43000000Y-42000000D02*
X44000000Y-43000000D01*
X42000000Y-42000000D02*
X43000000Y-42000000D01*
D26*
X84959539Y-74040461D02*
X84959539Y-72713030D01*
X83000000Y-76000000D02*
X84959539Y-74040461D01*
X80000000Y-76000000D02*
X83000000Y-76000000D01*
X78230933Y-77769067D02*
X80000000Y-76000000D01*
X78230933Y-78455819D02*
X78230933Y-77769067D01*
X79517694Y-67482306D02*
X79517694Y-67260655D01*
X77000000Y-70000000D02*
X78000000Y-70000000D01*
X78000000Y-70000000D02*
X79517694Y-68482306D01*
X79517694Y-68482306D02*
X79517694Y-67260655D01*
X75410866Y-71589134D02*
X77000000Y-70000000D01*
X75410866Y-72325000D02*
X75410866Y-71589134D01*
X48000000Y-77491154D02*
X48909342Y-78400496D01*
X48000000Y-74000000D02*
X48000000Y-77491154D01*
X46589134Y-72589134D02*
X48000000Y-74000000D01*
X46589134Y-72325000D02*
X46589134Y-72589134D01*
X37200000Y-41050000D02*
X37000000Y-41250000D01*
X40000000Y-41050000D02*
X37200000Y-41050000D01*
X46920000Y-33580000D02*
X46920000Y-33000000D01*
X40000000Y-40500000D02*
X46920000Y-33580000D01*
X40000000Y-41050000D02*
X40000000Y-40500000D01*
D28*
X84250000Y-41750000D02*
X84050000Y-41950000D01*
X83000000Y-41950000D02*
X82100000Y-41950000D01*
X84050000Y-41950000D02*
X83000000Y-41950000D01*
X86000000Y-41750000D02*
X84250000Y-41750000D01*
X75410866Y-55410866D02*
X74000000Y-54000000D01*
D26*
X87250000Y-41750000D02*
X88000000Y-41000000D01*
X88000000Y-41000000D02*
X88000000Y-38750000D01*
X86000000Y-41750000D02*
X87250000Y-41750000D01*
D28*
X74000000Y-53000000D02*
X76000000Y-51000000D01*
X74000000Y-54000000D02*
X74000000Y-53000000D01*
X75410866Y-55410866D02*
X74000000Y-54000000D01*
X75410866Y-55685000D02*
X75410866Y-55410866D01*
X83000000Y-41950000D02*
X83000000Y-43500000D01*
X68328849Y-81671151D02*
X69000000Y-81000000D01*
X67427036Y-81671151D02*
X68328849Y-81671151D01*
X85000000Y-36000000D02*
X85100000Y-36000000D01*
D26*
X87000000Y-36000000D02*
X85100000Y-36000000D01*
X88000000Y-37000000D02*
X87000000Y-36000000D01*
X88000000Y-37250000D02*
X88000000Y-37000000D01*
D28*
X58950000Y-33950000D02*
X59150000Y-33750000D01*
X59500000Y-33750000D02*
X61000000Y-33750000D01*
X59150000Y-33750000D02*
X59500000Y-33750000D01*
X58100000Y-33950000D02*
X58950000Y-33950000D01*
X61000000Y-33750000D02*
X63000000Y-33750000D01*
X46589134Y-54910866D02*
X46589134Y-55675000D01*
X47000000Y-53500000D02*
X47000000Y-54500000D01*
X47000000Y-54500000D02*
X46589134Y-54910866D01*
X59500000Y-33750000D02*
X59500000Y-34500000D01*
X63000000Y-29000000D02*
X62000000Y-28000000D01*
X62000000Y-28000000D02*
X61100000Y-28000000D01*
X63000000Y-32250000D02*
X63000000Y-29000000D01*
X73090658Y-48090658D02*
X69500000Y-44500000D01*
X73090658Y-49599504D02*
X73090658Y-48090658D01*
X66000000Y-35000000D02*
X64500000Y-33500000D01*
X64500000Y-33500000D02*
X64500000Y-30500000D01*
X64500000Y-30500000D02*
X63000000Y-29000000D01*
X69500000Y-44500000D02*
X69500000Y-36500000D01*
X69500000Y-36500000D02*
X68000000Y-35000000D01*
X68000000Y-35000000D02*
X66000000Y-35000000D01*
D26*
X72950000Y-33950000D02*
X73150000Y-33750000D01*
X73150000Y-33750000D02*
X74000000Y-33750000D01*
X74000000Y-33750000D02*
X76000000Y-33750000D01*
D28*
X73150000Y-33750000D02*
X74000000Y-33750000D01*
X72950000Y-33950000D02*
X73150000Y-33750000D01*
X71100000Y-33950000D02*
X72950000Y-33950000D01*
X72950000Y-34950000D02*
X73000000Y-35000000D01*
X72950000Y-33950000D02*
X72950000Y-34950000D01*
X61000000Y-80500000D02*
X61000000Y-80650000D01*
D26*
X76000000Y-29000000D02*
X75000000Y-28000000D01*
X75000000Y-28000000D02*
X74100000Y-28000000D01*
X76000000Y-32250000D02*
X76000000Y-29000000D01*
D28*
X42482306Y-59017694D02*
X43000000Y-58500000D01*
X43000000Y-58500000D02*
X46000000Y-58500000D01*
X74500000Y-28000000D02*
X74100000Y-28000000D01*
X42482306Y-60739345D02*
X42482306Y-59017694D01*
X84250000Y-40250000D02*
X84050000Y-40050000D01*
X84050000Y-40050000D02*
X82100000Y-40050000D01*
X84000000Y-40250000D02*
X84250000Y-40250000D01*
X86000000Y-40250000D02*
X84000000Y-40250000D01*
X71100000Y-32050000D02*
X72500000Y-32050000D01*
X59500000Y-32050000D02*
X58100000Y-32050000D01*
X60050000Y-32050000D02*
X59500000Y-32050000D01*
X60250000Y-32250000D02*
X60050000Y-32050000D01*
X61000000Y-32250000D02*
X60250000Y-32250000D01*
X72500000Y-31500000D02*
X72000000Y-31000000D01*
X72500000Y-32050000D02*
X72500000Y-31500000D01*
X60000000Y-31000000D02*
X59500000Y-31500000D01*
X59500000Y-31500000D02*
X59500000Y-32050000D01*
X84000000Y-40250000D02*
X84000000Y-39000000D01*
X54000000Y-36000000D02*
X55500000Y-36000000D01*
X85000000Y-50000000D02*
X84750000Y-50000000D01*
X84750000Y-45750000D02*
X84000000Y-45000000D01*
X84750000Y-50000000D02*
X84750000Y-45750000D01*
X84500000Y-45500000D02*
X84000000Y-45000000D01*
X38500000Y-47500000D02*
X40500000Y-45500000D01*
X38000000Y-48000000D02*
X38500000Y-47500000D01*
X76500000Y-37000000D02*
X79000000Y-34500000D01*
X74000000Y-37000000D02*
X76500000Y-37000000D01*
X72700000Y-32250000D02*
X72500000Y-32050000D01*
X74000000Y-32250000D02*
X72700000Y-32250000D01*
X38000000Y-49050000D02*
X38000000Y-48000000D01*
D26*
X55107212Y-89107212D02*
X56579528Y-89107212D01*
X53000000Y-87000000D02*
X55107212Y-89107212D01*
X53000000Y-86000000D02*
X53000000Y-87000000D01*
X50480962Y-83480962D02*
X53000000Y-86000000D01*
X49750000Y-83480962D02*
X50480962Y-83480962D01*
X46000000Y-83829038D02*
X48250000Y-86079038D01*
X46000000Y-81000000D02*
X46000000Y-83829038D01*
X43769067Y-78769067D02*
X46000000Y-81000000D01*
X43769067Y-78455819D02*
X43769067Y-78769067D01*
X38500000Y-66500000D02*
X37040461Y-67959539D01*
X37040461Y-67959539D02*
X37040461Y-72713030D01*
X38500000Y-64000000D02*
X38500000Y-66500000D01*
X38000000Y-53000000D02*
X38000000Y-51750000D01*
X37040461Y-53959539D02*
X38000000Y-53000000D01*
X37040461Y-55286970D02*
X37040461Y-53959539D01*
X35500000Y-61500000D02*
X35500000Y-64000000D01*
X39859539Y-57140461D02*
X35500000Y-61500000D01*
X39859539Y-56313030D02*
X39859539Y-57140461D01*
X48269038Y-46000000D02*
X49750000Y-44519038D01*
X43000000Y-46000000D02*
X48269038Y-46000000D01*
X41470933Y-47529067D02*
X43000000Y-46000000D01*
X41470933Y-47615819D02*
X41470933Y-47529067D01*
X52847212Y-41847212D02*
X57100472Y-41847212D01*
X52000000Y-41000000D02*
X52847212Y-41847212D01*
X50000000Y-41000000D02*
X52000000Y-41000000D01*
X49079038Y-41920962D02*
X50000000Y-41000000D01*
X48250000Y-41920962D02*
X49079038Y-41920962D01*
X72299038Y-44299038D02*
X72450000Y-44299038D01*
X65892788Y-38892788D02*
X65420472Y-38892788D01*
X66000000Y-39000000D02*
X65892788Y-38892788D01*
X71799038Y-44299038D02*
X71000000Y-43500000D01*
X72450000Y-44299038D02*
X71799038Y-44299038D01*
X77000000Y-48313248D02*
X78230933Y-49544181D01*
X77000000Y-44000000D02*
X77000000Y-48313248D01*
X74700962Y-41700962D02*
X77000000Y-44000000D01*
X73950000Y-41700962D02*
X74700962Y-41700962D01*
X83500000Y-61500000D02*
X84959539Y-60040461D01*
X84959539Y-60040461D02*
X84959539Y-55286970D01*
X83500000Y-64000000D02*
X83500000Y-61500000D01*
X82140461Y-69859539D02*
X86500000Y-65500000D01*
X86500000Y-65500000D02*
X86500000Y-64000000D01*
X82140461Y-71686970D02*
X82140461Y-69859539D01*
X78913248Y-82000000D02*
X80529067Y-80384181D01*
X74000000Y-82000000D02*
X78913248Y-82000000D01*
X72519038Y-83480962D02*
X74000000Y-82000000D01*
X72240000Y-83480962D02*
X72519038Y-83480962D01*
X64777684Y-89750000D02*
X65420472Y-89107212D01*
D28*
X62550000Y-89950000D02*
X63392788Y-89107212D01*
X63392788Y-89107212D02*
X65420472Y-89107212D01*
X61000000Y-89950000D02*
X62550000Y-89950000D01*
D26*
X73666250Y-86152788D02*
X73740000Y-86079038D01*
X64899528Y-86152788D02*
X73666250Y-86152788D01*
X72491154Y-79000000D02*
X73090658Y-78400496D01*
X68000000Y-79000000D02*
X72491154Y-79000000D01*
X67358585Y-79641415D02*
X68000000Y-79000000D01*
X66688273Y-79641415D02*
X67358585Y-79641415D01*
X75686481Y-75000000D02*
X77281481Y-73405000D01*
X73000000Y-75000000D02*
X75686481Y-75000000D01*
X71702237Y-76297763D02*
X73000000Y-75000000D01*
X71702237Y-76745840D02*
X71702237Y-76297763D01*
X77390510Y-65609490D02*
X79517694Y-63482306D01*
X79517694Y-63482306D02*
X79517694Y-60739345D01*
X77390510Y-66885575D02*
X77390510Y-65609490D01*
X77390510Y-57609490D02*
X77281481Y-57500461D01*
X77281481Y-57500461D02*
X77281481Y-54605000D01*
X77390510Y-61114425D02*
X77390510Y-57609490D01*
X70000000Y-48901813D02*
X67427036Y-46328849D01*
X70000000Y-50000000D02*
X70000000Y-48901813D01*
X71254160Y-51254160D02*
X70000000Y-50000000D01*
X71702237Y-51254160D02*
X71254160Y-51254160D01*
X63190000Y-45190000D02*
X61000000Y-45190000D01*
X66358585Y-48358585D02*
X63190000Y-45190000D01*
X66688273Y-48358585D02*
X66358585Y-48358585D01*
X59350000Y-47350000D02*
X58328849Y-46328849D01*
X58328849Y-46328849D02*
X54572964Y-46328849D01*
X61000000Y-47350000D02*
X59350000Y-47350000D01*
X49508846Y-49000000D02*
X48909342Y-49599504D01*
X54000000Y-49000000D02*
X49508846Y-49000000D01*
X54641415Y-48358585D02*
X54000000Y-49000000D01*
X55311727Y-48358585D02*
X54641415Y-48358585D01*
X50297763Y-51254160D02*
X49745840Y-51254160D01*
X44718519Y-53781481D02*
X44718519Y-54595000D01*
X49500000Y-52000000D02*
X46500000Y-52000000D01*
X46500000Y-52000000D02*
X44718519Y-53781481D01*
X50245840Y-51254160D02*
X49500000Y-52000000D01*
X50297763Y-51254160D02*
X50245840Y-51254160D01*
X44609490Y-63390510D02*
X42482306Y-65517694D01*
X42482306Y-65517694D02*
X42482306Y-67260655D01*
X44609490Y-61114425D02*
X44609490Y-63390510D01*
X44000000Y-72686481D02*
X44718519Y-73405000D01*
X44609490Y-70390510D02*
X44000000Y-71000000D01*
X44000000Y-71000000D02*
X44000000Y-72686481D01*
X44609490Y-66885575D02*
X44609490Y-70390510D01*
X39800000Y-42750000D02*
X40000000Y-42950000D01*
X37000000Y-42750000D02*
X39800000Y-42750000D01*
D27*
X70000000Y-33000000D02*
X70000000Y-35000000D01*
X70000000Y-35500000D02*
X70000000Y-36000000D01*
X70000000Y-35000000D02*
X70000000Y-35500000D01*
X70000000Y-36000000D02*
X71000000Y-37000000D01*
X71000000Y-37000000D02*
X72000000Y-37000000D01*
X68900000Y-33000000D02*
X70000000Y-33000000D01*
X81000000Y-41000000D02*
X81000000Y-44000000D01*
X79900000Y-41000000D02*
X81000000Y-41000000D01*
D26*
X79000000Y-41000000D02*
X76500000Y-38500000D01*
X79900000Y-41000000D02*
X79000000Y-41000000D01*
X82000000Y-45000000D02*
X81000000Y-44000000D01*
X70000000Y-35500000D02*
X70500000Y-35500000D01*
X68000000Y-33000000D02*
X68900000Y-33000000D01*
X68000000Y-33000000D02*
X67000000Y-32000000D01*
X66500000Y-31500000D02*
X67000000Y-32000000D01*
X55900000Y-33000000D02*
X52000000Y-33000000D01*
X53671151Y-81671151D02*
X54572964Y-81671151D01*
X52000000Y-80000000D02*
X53671151Y-81671151D01*
X52000000Y-78000000D02*
X52000000Y-80000000D01*
X50745840Y-76745840D02*
X52000000Y-78000000D01*
X50297763Y-76745840D02*
X50745840Y-76745840D01*
X58810000Y-82810000D02*
X61000000Y-82810000D01*
X55641415Y-79641415D02*
X58810000Y-82810000D01*
X55311727Y-79641415D02*
X55641415Y-79641415D01*
G36*
X77317825Y-42447781D02*
G01*
X77474505Y-42604462D01*
X77531232Y-42633366D01*
X77582739Y-42670787D01*
X77643288Y-42690461D01*
X77700018Y-42719366D01*
X77762904Y-42729327D01*
X77823451Y-42748999D01*
X77886303Y-42748999D01*
X77886309Y-42749000D01*
X79001220Y-42749000D01*
X79136282Y-42839245D01*
X79350400Y-42881836D01*
X80449600Y-42881836D01*
X80663718Y-42839245D01*
X80861855Y-42706855D01*
X80994245Y-42508718D01*
X81000000Y-42479786D01*
X81005755Y-42508718D01*
X81138145Y-42706855D01*
X81336282Y-42839245D01*
X81550400Y-42881836D01*
X81727721Y-42881836D01*
X82001001Y-42939924D01*
X82001001Y-43032319D01*
X81975896Y-43075802D01*
X81901000Y-43355314D01*
X81901000Y-43644686D01*
X81905147Y-43660163D01*
X81473801Y-43660163D01*
X81147963Y-43747471D01*
X80950052Y-43913538D01*
X80825388Y-44129461D01*
X80785163Y-44357590D01*
X80785163Y-44945000D01*
X81945000Y-44945000D01*
X81945000Y-43808894D01*
X81975896Y-43924198D01*
X82055000Y-44061211D01*
X82055000Y-46339837D01*
X82526199Y-46339837D01*
X82852038Y-46252529D01*
X83049949Y-46086462D01*
X83067554Y-46055970D01*
X83068145Y-46056855D01*
X83266282Y-46189245D01*
X83480400Y-46231836D01*
X83677616Y-46231836D01*
X83751001Y-46305222D01*
X83751000Y-48801000D01*
X82844204Y-48801000D01*
X82469307Y-48426103D01*
X82480952Y-48411593D01*
X82547635Y-48182815D01*
X82521692Y-47945934D01*
X82416685Y-47754533D01*
X81140796Y-46233987D01*
X81254461Y-46299612D01*
X81482590Y-46339837D01*
X81945000Y-46339837D01*
X81945000Y-45055000D01*
X80785163Y-45055000D01*
X80785163Y-45651199D01*
X80847739Y-45884736D01*
X80720241Y-45732790D01*
X80549982Y-45596143D01*
X80321205Y-45529460D01*
X80084324Y-45555403D01*
X79892923Y-45660410D01*
X78713829Y-46649787D01*
X78577182Y-46820046D01*
X78510499Y-47048823D01*
X78536442Y-47285704D01*
X78641449Y-47477105D01*
X79752329Y-48801000D01*
X79378554Y-48801000D01*
X78422107Y-47661152D01*
X78251848Y-47524505D01*
X78023071Y-47457822D01*
X77799000Y-47482362D01*
X77799000Y-43873450D01*
X77779326Y-43812901D01*
X77769367Y-43750019D01*
X77740461Y-43693288D01*
X77720787Y-43632740D01*
X77683369Y-43581237D01*
X77654462Y-43524505D01*
X77584272Y-43454316D01*
X76019538Y-41889583D01*
X76056343Y-41781160D01*
X76040757Y-41543373D01*
X75935361Y-41329651D01*
X75771225Y-41185708D01*
X73485611Y-39866108D01*
X73287919Y-39799000D01*
X74669045Y-39799000D01*
X77317825Y-42447781D01*
G37*
X77317825Y-42447781D02*
X77474505Y-42604462D01*
X77531232Y-42633366D01*
X77582739Y-42670787D01*
X77643288Y-42690461D01*
X77700018Y-42719366D01*
X77762904Y-42729327D01*
X77823451Y-42748999D01*
X77886303Y-42748999D01*
X77886309Y-42749000D01*
X79001220Y-42749000D01*
X79136282Y-42839245D01*
X79350400Y-42881836D01*
X80449600Y-42881836D01*
X80663718Y-42839245D01*
X80861855Y-42706855D01*
X80994245Y-42508718D01*
X81000000Y-42479786D01*
X81005755Y-42508718D01*
X81138145Y-42706855D01*
X81336282Y-42839245D01*
X81550400Y-42881836D01*
X81727721Y-42881836D01*
X82001001Y-42939924D01*
X82001001Y-43032319D01*
X81975896Y-43075802D01*
X81901000Y-43355314D01*
X81901000Y-43644686D01*
X81905147Y-43660163D01*
X81473801Y-43660163D01*
X81147963Y-43747471D01*
X80950052Y-43913538D01*
X80825388Y-44129461D01*
X80785163Y-44357590D01*
X80785163Y-44945000D01*
X81945000Y-44945000D01*
X81945000Y-43808894D01*
X81975896Y-43924198D01*
X82055000Y-44061211D01*
X82055000Y-46339837D01*
X82526199Y-46339837D01*
X82852038Y-46252529D01*
X83049949Y-46086462D01*
X83067554Y-46055970D01*
X83068145Y-46056855D01*
X83266282Y-46189245D01*
X83480400Y-46231836D01*
X83677616Y-46231836D01*
X83751001Y-46305222D01*
X83751000Y-48801000D01*
X82844204Y-48801000D01*
X82469307Y-48426103D01*
X82480952Y-48411593D01*
X82547635Y-48182815D01*
X82521692Y-47945934D01*
X82416685Y-47754533D01*
X81140796Y-46233987D01*
X81254461Y-46299612D01*
X81482590Y-46339837D01*
X81945000Y-46339837D01*
X81945000Y-45055000D01*
X80785163Y-45055000D01*
X80785163Y-45651199D01*
X80847739Y-45884736D01*
X80720241Y-45732790D01*
X80549982Y-45596143D01*
X80321205Y-45529460D01*
X80084324Y-45555403D01*
X79892923Y-45660410D01*
X78713829Y-46649787D01*
X78577182Y-46820046D01*
X78510499Y-47048823D01*
X78536442Y-47285704D01*
X78641449Y-47477105D01*
X79752329Y-48801000D01*
X79378554Y-48801000D01*
X78422107Y-47661152D01*
X78251848Y-47524505D01*
X78023071Y-47457822D01*
X77799000Y-47482362D01*
X77799000Y-43873450D01*
X77779326Y-43812901D01*
X77769367Y-43750019D01*
X77740461Y-43693288D01*
X77720787Y-43632740D01*
X77683369Y-43581237D01*
X77654462Y-43524505D01*
X77584272Y-43454316D01*
X76019538Y-41889583D01*
X76056343Y-41781160D01*
X76040757Y-41543373D01*
X75935361Y-41329651D01*
X75771225Y-41185708D01*
X73485611Y-39866108D01*
X73287919Y-39799000D01*
X74669045Y-39799000D01*
X77317825Y-42447781D01*
G36*
X89901001Y-27748115D02*
G01*
X89901000Y-43251887D01*
X88509360Y-44643527D01*
X88487690Y-44686055D01*
X88459634Y-44724672D01*
X88444885Y-44770065D01*
X88423217Y-44812591D01*
X88415750Y-44859731D01*
X88401000Y-44905129D01*
X88401000Y-45095646D01*
X88401001Y-45095649D01*
X88401001Y-48801000D01*
X85749000Y-48801000D01*
X85749000Y-45772093D01*
X85753904Y-45655101D01*
X85733412Y-45567737D01*
X85721233Y-45478827D01*
X85702291Y-45435055D01*
X85689697Y-45381355D01*
X85657796Y-45332233D01*
X85612532Y-45227632D01*
X85541176Y-45139516D01*
X85524105Y-45075802D01*
X85379419Y-44825198D01*
X85174802Y-44620581D01*
X85106836Y-44581341D01*
X85106836Y-44355400D01*
X85064245Y-44141282D01*
X84931855Y-43943145D01*
X84733718Y-43810755D01*
X84519600Y-43768164D01*
X84065914Y-43768164D01*
X84099000Y-43644686D01*
X84099000Y-43355314D01*
X84024104Y-43075802D01*
X83999000Y-43032320D01*
X83999000Y-42949000D01*
X84027906Y-42949000D01*
X84144896Y-42953904D01*
X84232256Y-42933414D01*
X84321173Y-42921233D01*
X84364945Y-42902292D01*
X84418646Y-42889696D01*
X84467761Y-42857799D01*
X84572368Y-42812532D01*
X84650822Y-42749000D01*
X86068472Y-42749000D01*
X86271173Y-42721233D01*
X86522368Y-42612532D01*
X86548874Y-42591067D01*
X86683718Y-42564245D01*
X86706534Y-42549000D01*
X87313691Y-42549000D01*
X87313697Y-42548999D01*
X87376548Y-42548999D01*
X87437091Y-42529327D01*
X87499981Y-42519367D01*
X87556715Y-42490460D01*
X87617261Y-42470787D01*
X87668761Y-42433370D01*
X87725495Y-42404462D01*
X87905010Y-42224946D01*
X87905011Y-42224944D01*
X88598368Y-41531588D01*
X88654462Y-41475495D01*
X88683366Y-41418768D01*
X88720787Y-41367261D01*
X88740461Y-41306712D01*
X88769366Y-41249982D01*
X88779327Y-41187097D01*
X88798999Y-41126550D01*
X88798999Y-41063697D01*
X88799000Y-41063691D01*
X88799000Y-39587103D01*
X88806855Y-39581855D01*
X88939245Y-39383718D01*
X88981836Y-39169600D01*
X88981836Y-38330400D01*
X88939245Y-38116282D01*
X88861548Y-38000000D01*
X88939245Y-37883718D01*
X88981836Y-37669600D01*
X88981836Y-36830400D01*
X88939245Y-36616282D01*
X88806855Y-36418145D01*
X88608718Y-36285755D01*
X88394600Y-36243164D01*
X88373120Y-36243164D01*
X87655011Y-35525056D01*
X87655010Y-35525054D01*
X87475495Y-35345538D01*
X87418761Y-35316630D01*
X87367261Y-35279213D01*
X87306715Y-35259540D01*
X87249981Y-35230633D01*
X87187091Y-35220673D01*
X87126548Y-35201001D01*
X87063697Y-35201001D01*
X87063691Y-35201000D01*
X86106836Y-35201000D01*
X86106836Y-34630400D01*
X86064245Y-34416282D01*
X85931855Y-34218145D01*
X85733718Y-34085755D01*
X85519600Y-34043164D01*
X84680400Y-34043164D01*
X84466282Y-34085755D01*
X84268145Y-34218145D01*
X84135755Y-34416282D01*
X84093164Y-34630400D01*
X84093164Y-35372686D01*
X83975896Y-35575802D01*
X83906836Y-35833534D01*
X83906836Y-34630400D01*
X83864245Y-34416282D01*
X83731855Y-34218145D01*
X83533718Y-34085755D01*
X83319600Y-34043164D01*
X82480400Y-34043164D01*
X82266282Y-34085755D01*
X82068145Y-34218145D01*
X81935755Y-34416282D01*
X81893164Y-34630400D01*
X81893164Y-35694038D01*
X81086202Y-36501000D01*
X80131365Y-36501000D01*
X80033718Y-36435755D01*
X79819600Y-36393164D01*
X78519634Y-36393164D01*
X79305963Y-35606836D01*
X79819600Y-35606836D01*
X80033718Y-35564245D01*
X80231855Y-35431855D01*
X80364245Y-35233718D01*
X80406836Y-35019600D01*
X80406836Y-33980400D01*
X80364245Y-33766282D01*
X80231855Y-33568145D01*
X80033718Y-33435755D01*
X79819600Y-33393164D01*
X78180400Y-33393164D01*
X77966282Y-33435755D01*
X77768145Y-33568145D01*
X77635755Y-33766282D01*
X77593164Y-33980400D01*
X77593164Y-34494037D01*
X76086202Y-36001000D01*
X74970512Y-36001000D01*
X74931855Y-35943145D01*
X74733718Y-35810755D01*
X74519600Y-35768164D01*
X73786057Y-35768164D01*
X73879419Y-35674802D01*
X74024104Y-35424198D01*
X74099000Y-35144686D01*
X74099000Y-34855314D01*
X74070441Y-34748730D01*
X74271173Y-34721233D01*
X74522368Y-34612532D01*
X74548874Y-34591067D01*
X74683718Y-34564245D01*
X74706534Y-34549000D01*
X75171192Y-34549000D01*
X75193145Y-34581855D01*
X75391282Y-34714245D01*
X75605400Y-34756836D01*
X76394600Y-34756836D01*
X76608718Y-34714245D01*
X76806855Y-34581855D01*
X76939245Y-34383718D01*
X76981836Y-34169600D01*
X76981836Y-33330400D01*
X76939245Y-33116282D01*
X76861548Y-33000000D01*
X76939245Y-32883718D01*
X76981836Y-32669600D01*
X76981836Y-31830400D01*
X76939245Y-31616282D01*
X76806855Y-31418145D01*
X76799000Y-31412897D01*
X76799000Y-28873450D01*
X76779326Y-28812901D01*
X76769367Y-28750019D01*
X76740461Y-28693288D01*
X76720787Y-28632740D01*
X76683369Y-28581237D01*
X76654462Y-28524505D01*
X76497781Y-28367825D01*
X75655011Y-27525056D01*
X75655010Y-27525054D01*
X75475495Y-27345538D01*
X75418761Y-27316630D01*
X75367261Y-27279213D01*
X75317151Y-27262931D01*
X75174802Y-27120581D01*
X75106836Y-27081341D01*
X75106836Y-26630400D01*
X75064245Y-26416282D01*
X74931855Y-26218145D01*
X74733718Y-26085755D01*
X74519600Y-26043164D01*
X73680400Y-26043164D01*
X73466282Y-26085755D01*
X73268145Y-26218145D01*
X73135755Y-26416282D01*
X73093164Y-26630400D01*
X73093164Y-29369600D01*
X73135755Y-29583718D01*
X73268145Y-29781855D01*
X73466282Y-29914245D01*
X73680400Y-29956836D01*
X74519600Y-29956836D01*
X74733718Y-29914245D01*
X74931855Y-29781855D01*
X75064245Y-29583718D01*
X75106836Y-29369600D01*
X75106836Y-29236792D01*
X75201001Y-29330957D01*
X75201000Y-31412897D01*
X75193145Y-31418145D01*
X75060755Y-31616282D01*
X75022581Y-31808192D01*
X75014245Y-31766282D01*
X74881855Y-31568145D01*
X74683718Y-31435755D01*
X74534905Y-31406154D01*
X74403794Y-31324863D01*
X74056299Y-31251000D01*
X73474270Y-31251000D01*
X73471233Y-31228827D01*
X73452291Y-31185055D01*
X73439697Y-31131356D01*
X73407797Y-31082234D01*
X73362532Y-30977632D01*
X73190283Y-30764923D01*
X73146869Y-30734071D01*
X73037100Y-30624302D01*
X73024104Y-30575801D01*
X72879419Y-30325198D01*
X72674802Y-30120581D01*
X72424198Y-29975896D01*
X72338807Y-29953015D01*
X72533718Y-29914245D01*
X72731855Y-29781855D01*
X72864245Y-29583718D01*
X72906836Y-29369600D01*
X72906836Y-26630400D01*
X72864245Y-26416282D01*
X72731855Y-26218145D01*
X72533718Y-26085755D01*
X72319600Y-26043164D01*
X71480400Y-26043164D01*
X71266282Y-26085755D01*
X71068145Y-26218145D01*
X70935755Y-26416282D01*
X70893164Y-26630400D01*
X70893164Y-26998896D01*
X70817735Y-27016588D01*
X70728828Y-27028767D01*
X70685057Y-27047707D01*
X70631353Y-27060304D01*
X70582229Y-27092205D01*
X70477632Y-27137468D01*
X70264923Y-27309717D01*
X70234073Y-27353128D01*
X69104292Y-28482910D01*
X69033718Y-28435755D01*
X68819600Y-28393164D01*
X67180400Y-28393164D01*
X66966282Y-28435755D01*
X66768145Y-28568145D01*
X66635755Y-28766282D01*
X66593164Y-28980400D01*
X66593164Y-30019600D01*
X66635755Y-30233718D01*
X66768145Y-30431855D01*
X66966282Y-30564245D01*
X67180400Y-30606836D01*
X67976880Y-30606836D01*
X68101001Y-30730957D01*
X68101000Y-31184329D01*
X67938145Y-31293145D01*
X67805755Y-31491282D01*
X67763164Y-31705400D01*
X67763164Y-32312070D01*
X67695388Y-32429461D01*
X67662900Y-32613710D01*
X67424198Y-32475896D01*
X67144686Y-32401000D01*
X66855314Y-32401000D01*
X66575802Y-32475896D01*
X66325198Y-32620581D01*
X66120581Y-32825198D01*
X65975896Y-33075802D01*
X65901000Y-33355314D01*
X65901000Y-33488202D01*
X65499000Y-33086202D01*
X65499000Y-30522093D01*
X65503904Y-30405101D01*
X65483412Y-30317735D01*
X65471233Y-30228828D01*
X65452293Y-30185057D01*
X65439696Y-30131353D01*
X65407795Y-30082229D01*
X65362532Y-29977632D01*
X65190283Y-29764923D01*
X65146872Y-29734073D01*
X63743761Y-28330963D01*
X63690283Y-28264924D01*
X63646873Y-28234074D01*
X62722053Y-27309255D01*
X62642765Y-27223030D01*
X62566488Y-27175736D01*
X62495016Y-27121485D01*
X62450673Y-27103929D01*
X62403796Y-27074863D01*
X62346501Y-27062684D01*
X62240531Y-27020728D01*
X62106836Y-27006676D01*
X62106836Y-26630400D01*
X62064245Y-26416282D01*
X61931855Y-26218145D01*
X61733718Y-26085755D01*
X61519600Y-26043164D01*
X60680400Y-26043164D01*
X60466282Y-26085755D01*
X60268145Y-26218145D01*
X60135755Y-26416282D01*
X60093164Y-26630400D01*
X60093164Y-29369600D01*
X60135755Y-29583718D01*
X60268145Y-29781855D01*
X60466282Y-29914245D01*
X60680400Y-29956836D01*
X61519600Y-29956836D01*
X61733718Y-29914245D01*
X61931855Y-29781855D01*
X62001001Y-29678370D01*
X62001000Y-31746460D01*
X61881855Y-31568145D01*
X61683718Y-31435755D01*
X61534905Y-31406154D01*
X61403794Y-31324863D01*
X61069747Y-31253858D01*
X61099000Y-31144686D01*
X61099000Y-30855314D01*
X61024104Y-30575802D01*
X60879419Y-30325198D01*
X60674802Y-30120581D01*
X60424198Y-29975896D01*
X60144686Y-29901000D01*
X59855314Y-29901000D01*
X59575802Y-29975896D01*
X59325198Y-30120581D01*
X59120581Y-30325198D01*
X58975896Y-30575801D01*
X58962900Y-30624302D01*
X58809248Y-30777954D01*
X58723030Y-30857236D01*
X58675743Y-30933502D01*
X58621487Y-31004982D01*
X58603931Y-31049323D01*
X58602891Y-31051000D01*
X58031528Y-31051000D01*
X57828827Y-31078767D01*
X57737786Y-31118164D01*
X57550400Y-31118164D01*
X57336282Y-31160755D01*
X57138145Y-31293145D01*
X57005755Y-31491282D01*
X57000000Y-31520214D01*
X56994245Y-31491282D01*
X56861855Y-31293145D01*
X56699000Y-31184330D01*
X56699000Y-30836309D01*
X56698999Y-30836303D01*
X56698999Y-30773450D01*
X56679327Y-30712903D01*
X56669366Y-30650018D01*
X56640461Y-30593288D01*
X56620787Y-30532739D01*
X56599118Y-30502914D01*
X56682256Y-30483414D01*
X56771173Y-30471233D01*
X56814945Y-30452292D01*
X56868646Y-30439696D01*
X56917761Y-30407799D01*
X57022368Y-30362532D01*
X57235076Y-30190283D01*
X57265931Y-30146866D01*
X57918056Y-29494741D01*
X57935755Y-29583718D01*
X58068145Y-29781855D01*
X58266282Y-29914245D01*
X58480400Y-29956836D01*
X59319600Y-29956836D01*
X59533718Y-29914245D01*
X59731855Y-29781855D01*
X59864245Y-29583718D01*
X59906836Y-29369600D01*
X59906836Y-26630400D01*
X59864245Y-26416282D01*
X59731855Y-26218145D01*
X59533718Y-26085755D01*
X59319600Y-26043164D01*
X58480400Y-26043164D01*
X58266282Y-26085755D01*
X58068145Y-26218145D01*
X57935755Y-26416282D01*
X57893164Y-26630400D01*
X57893164Y-26998896D01*
X57817735Y-27016588D01*
X57728828Y-27028767D01*
X57685057Y-27047707D01*
X57631353Y-27060304D01*
X57582229Y-27092205D01*
X57477632Y-27137468D01*
X57264923Y-27309717D01*
X57234073Y-27353128D01*
X56104292Y-28482910D01*
X56033718Y-28435755D01*
X55819600Y-28393164D01*
X54180400Y-28393164D01*
X53966282Y-28435755D01*
X53768145Y-28568145D01*
X53635755Y-28766282D01*
X53593164Y-28980400D01*
X53593164Y-30019600D01*
X53635755Y-30233718D01*
X53768145Y-30431855D01*
X53966282Y-30564245D01*
X54180400Y-30606836D01*
X54476880Y-30606836D01*
X54525053Y-30655010D01*
X54525057Y-30655012D01*
X55073050Y-31203006D01*
X54938145Y-31293145D01*
X54805755Y-31491282D01*
X54763164Y-31705400D01*
X54763164Y-32312070D01*
X54695388Y-32429461D01*
X54655163Y-32657590D01*
X54655163Y-32903807D01*
X54644686Y-32901000D01*
X54355314Y-32901000D01*
X54075802Y-32975896D01*
X53825198Y-33120581D01*
X53620581Y-33325198D01*
X53564837Y-33421750D01*
X53564837Y-33055000D01*
X52055000Y-33055000D01*
X52055000Y-34564837D01*
X52876199Y-34564837D01*
X53202038Y-34477529D01*
X53399949Y-34311462D01*
X53431189Y-34257352D01*
X53475896Y-34424198D01*
X53620581Y-34674802D01*
X53713943Y-34768164D01*
X53480400Y-34768164D01*
X53266282Y-34810755D01*
X53068145Y-34943145D01*
X53064780Y-34948181D01*
X52961462Y-34825052D01*
X52745539Y-34700388D01*
X52517410Y-34660163D01*
X52055000Y-34660163D01*
X52055000Y-37339837D01*
X52526199Y-37339837D01*
X52852038Y-37252529D01*
X53049949Y-37086462D01*
X53067554Y-37055970D01*
X53068145Y-37056855D01*
X53266282Y-37189245D01*
X53480400Y-37231836D01*
X54519600Y-37231836D01*
X54733718Y-37189245D01*
X54931855Y-37056855D01*
X54970512Y-36999000D01*
X55032320Y-36999000D01*
X55075802Y-37024104D01*
X55355314Y-37099000D01*
X55644686Y-37099000D01*
X55924198Y-37024104D01*
X56174802Y-36879419D01*
X56379419Y-36674802D01*
X56524104Y-36424198D01*
X56599000Y-36144686D01*
X56599000Y-35855314D01*
X56552749Y-35682704D01*
X57367825Y-36497781D01*
X57524505Y-36654462D01*
X57581232Y-36683366D01*
X57632739Y-36720787D01*
X57693288Y-36740461D01*
X57750018Y-36769366D01*
X57812904Y-36779327D01*
X57873451Y-36798999D01*
X57936303Y-36798999D01*
X57936309Y-36799000D01*
X63244780Y-36799000D01*
X63325198Y-36879419D01*
X63575802Y-37024104D01*
X63855314Y-37099000D01*
X64144686Y-37099000D01*
X64424198Y-37024104D01*
X64674802Y-36879419D01*
X64755220Y-36799000D01*
X66669045Y-36799000D01*
X66901000Y-37030956D01*
X66901000Y-37144686D01*
X66975896Y-37424198D01*
X67120581Y-37674802D01*
X67325198Y-37879419D01*
X67575802Y-38024104D01*
X67855314Y-38099000D01*
X68144686Y-38099000D01*
X68424198Y-38024104D01*
X68501001Y-37979762D01*
X68501000Y-44477906D01*
X68496096Y-44594897D01*
X68516588Y-44682261D01*
X68528767Y-44771172D01*
X68547709Y-44814944D01*
X68560303Y-44868644D01*
X68592204Y-44917766D01*
X68629186Y-45003229D01*
X66988613Y-44406109D01*
X66772840Y-44372897D01*
X66541372Y-44429537D01*
X66349199Y-44570445D01*
X66235945Y-44757083D01*
X65609149Y-46479193D01*
X63845011Y-44715056D01*
X63845010Y-44715054D01*
X63665495Y-44535538D01*
X63608761Y-44506630D01*
X63557261Y-44469213D01*
X63496715Y-44449540D01*
X63439981Y-44420633D01*
X63377091Y-44410673D01*
X63316548Y-44391001D01*
X63253697Y-44391001D01*
X63253691Y-44391000D01*
X62656836Y-44391000D01*
X62656836Y-44120400D01*
X62614245Y-43906282D01*
X62481855Y-43708145D01*
X62283718Y-43575755D01*
X62069600Y-43533164D01*
X59930400Y-43533164D01*
X59716282Y-43575755D01*
X59518145Y-43708145D01*
X59385755Y-43906282D01*
X59343164Y-44120400D01*
X59343164Y-46213208D01*
X58983860Y-45853905D01*
X58983859Y-45853903D01*
X58804344Y-45674387D01*
X58747610Y-45645479D01*
X58696110Y-45608062D01*
X58635564Y-45588389D01*
X58578830Y-45559482D01*
X58515940Y-45549522D01*
X58455397Y-45529850D01*
X58392546Y-45529850D01*
X58392540Y-45529849D01*
X56045319Y-45529849D01*
X55764055Y-44757083D01*
X55650801Y-44570445D01*
X55458628Y-44429537D01*
X55227160Y-44372897D01*
X55011387Y-44406109D01*
X53001198Y-45137758D01*
X52814560Y-45251012D01*
X52673652Y-45443185D01*
X52617012Y-45674653D01*
X52650224Y-45890426D01*
X53381873Y-47900615D01*
X53495127Y-48087253D01*
X53564263Y-48137946D01*
X53548834Y-48201000D01*
X51891237Y-48201000D01*
X52352038Y-48077529D01*
X52549949Y-47911462D01*
X52674612Y-47695539D01*
X52714837Y-47467410D01*
X52714837Y-47051000D01*
X51801000Y-47051000D01*
X51801000Y-48201000D01*
X51699000Y-48201000D01*
X51699000Y-46949000D01*
X51801000Y-46949000D01*
X52714837Y-46949000D01*
X52714837Y-46523801D01*
X52627529Y-46197963D01*
X52461462Y-46000052D01*
X52245539Y-45875388D01*
X51801000Y-45797004D01*
X51801000Y-46949000D01*
X51699000Y-46949000D01*
X51699000Y-45774821D01*
X51147963Y-45922471D01*
X50950052Y-46088538D01*
X50932447Y-46119031D01*
X50931855Y-46118145D01*
X50733718Y-45985755D01*
X50519600Y-45943164D01*
X49997013Y-45943164D01*
X51571225Y-45034292D01*
X51735361Y-44890349D01*
X51840757Y-44676627D01*
X51856343Y-44438840D01*
X51786168Y-44232113D01*
X51016568Y-42899127D01*
X50872625Y-42734991D01*
X50658903Y-42629595D01*
X50421116Y-42614009D01*
X50214389Y-42684184D01*
X47928775Y-44003784D01*
X47764639Y-44147727D01*
X47659243Y-44361449D01*
X47643657Y-44599236D01*
X47713832Y-44805963D01*
X47940507Y-45198576D01*
X47938083Y-45201000D01*
X42936309Y-45201000D01*
X42936303Y-45201001D01*
X42873450Y-45201001D01*
X42812903Y-45220673D01*
X42750018Y-45230634D01*
X42693288Y-45259539D01*
X42632739Y-45279213D01*
X42581232Y-45316634D01*
X42524505Y-45345538D01*
X42162842Y-45707202D01*
X42107077Y-45660410D01*
X41915676Y-45555403D01*
X41678795Y-45529460D01*
X41599000Y-45552718D01*
X41599000Y-45355314D01*
X41524104Y-45075802D01*
X41379419Y-44825198D01*
X41174802Y-44620581D01*
X40924198Y-44475896D01*
X40644686Y-44401000D01*
X40355314Y-44401000D01*
X40075802Y-44475896D01*
X39825198Y-44620581D01*
X39620581Y-44825198D01*
X39475896Y-45075801D01*
X39462900Y-45124302D01*
X37309245Y-47277957D01*
X37223031Y-47357235D01*
X37175750Y-47433493D01*
X37121486Y-47504984D01*
X37103929Y-47549327D01*
X37074864Y-47596205D01*
X37062686Y-47653494D01*
X37020729Y-47759469D01*
X36993300Y-48020435D01*
X36916282Y-48035755D01*
X36718145Y-48168145D01*
X36585755Y-48366282D01*
X36543164Y-48580400D01*
X36543164Y-48801000D01*
X33599000Y-48801000D01*
X33599000Y-42805000D01*
X35910163Y-42805000D01*
X35910163Y-43176199D01*
X35997471Y-43502038D01*
X36163538Y-43699949D01*
X36379461Y-43824612D01*
X36607590Y-43864837D01*
X36945000Y-43864837D01*
X36945000Y-42805000D01*
X37055000Y-42805000D01*
X37055000Y-43864837D01*
X37401199Y-43864837D01*
X37727038Y-43777529D01*
X37924949Y-43611462D01*
X38049612Y-43395539D01*
X38089837Y-43167410D01*
X38089837Y-43005000D01*
X38835163Y-43005000D01*
X38835163Y-43376199D01*
X38922471Y-43702038D01*
X39088538Y-43899949D01*
X39304461Y-44024612D01*
X39532590Y-44064837D01*
X39945000Y-44064837D01*
X39945000Y-43005000D01*
X40055000Y-43005000D01*
X40055000Y-44064837D01*
X40476199Y-44064837D01*
X40802038Y-43977529D01*
X40999949Y-43811462D01*
X41124612Y-43595539D01*
X41164837Y-43367410D01*
X41164837Y-43005000D01*
X40055000Y-43005000D01*
X39945000Y-43005000D01*
X38835163Y-43005000D01*
X38089837Y-43005000D01*
X38089837Y-42805000D01*
X37055000Y-42805000D01*
X36945000Y-42805000D01*
X35910163Y-42805000D01*
X33599000Y-42805000D01*
X33599000Y-42332590D01*
X35910163Y-42332590D01*
X35910163Y-42695000D01*
X38089837Y-42695000D01*
X38089837Y-42323801D01*
X38002529Y-41997963D01*
X37924803Y-41905332D01*
X37939245Y-41883717D01*
X37946151Y-41849000D01*
X39096192Y-41849000D01*
X39118145Y-41881855D01*
X39189526Y-41929550D01*
X39000052Y-42088538D01*
X38875388Y-42304461D01*
X38835163Y-42532590D01*
X38835163Y-42895000D01*
X41164837Y-42895000D01*
X41164837Y-42863053D01*
X41316282Y-42964245D01*
X41530400Y-43006836D01*
X42469600Y-43006836D01*
X42508993Y-42999000D01*
X42586203Y-42999000D01*
X42962900Y-43375698D01*
X42975895Y-43424198D01*
X43120581Y-43674802D01*
X43325198Y-43879419D01*
X43575802Y-44024104D01*
X43855314Y-44099000D01*
X44144686Y-44099000D01*
X44424198Y-44024104D01*
X44674802Y-43879419D01*
X44879419Y-43674802D01*
X45024104Y-43424198D01*
X45099000Y-43144686D01*
X45099000Y-42855314D01*
X45024104Y-42575802D01*
X44879419Y-42325198D01*
X44674802Y-42120581D01*
X44467959Y-42001160D01*
X46143657Y-42001160D01*
X46213832Y-42207887D01*
X46983432Y-43540873D01*
X47127375Y-43705009D01*
X47341097Y-43810405D01*
X47578884Y-43825991D01*
X47785611Y-43755816D01*
X50071225Y-42436216D01*
X50235361Y-42292273D01*
X50340757Y-42078551D01*
X50356343Y-41840765D01*
X50342166Y-41799000D01*
X51669045Y-41799000D01*
X52215037Y-42344993D01*
X52371717Y-42501674D01*
X52428449Y-42530581D01*
X52479952Y-42567999D01*
X52540500Y-42587673D01*
X52597231Y-42616579D01*
X52660113Y-42626538D01*
X52720662Y-42646212D01*
X55305105Y-42646212D01*
X55356245Y-42936238D01*
X55435370Y-43139707D01*
X55600155Y-43311845D01*
X55818271Y-43407818D01*
X56036532Y-43412580D01*
X58635636Y-42954288D01*
X58839105Y-42875163D01*
X59011243Y-42710378D01*
X59107216Y-42492262D01*
X59111978Y-42274001D01*
X58844699Y-40758186D01*
X58765574Y-40554717D01*
X58600789Y-40382579D01*
X58382673Y-40286606D01*
X58164412Y-40281844D01*
X55565308Y-40740136D01*
X55361839Y-40819261D01*
X55189701Y-40984046D01*
X55161467Y-41048212D01*
X53178168Y-41048212D01*
X52655011Y-40525056D01*
X52655010Y-40525054D01*
X52475495Y-40345538D01*
X52418761Y-40316630D01*
X52367261Y-40279213D01*
X52306715Y-40259540D01*
X52249981Y-40230633D01*
X52187091Y-40220673D01*
X52126548Y-40201001D01*
X52063697Y-40201001D01*
X52063691Y-40201000D01*
X49936309Y-40201000D01*
X49936303Y-40201001D01*
X49873451Y-40201001D01*
X49812908Y-40220673D01*
X49750018Y-40230634D01*
X49693287Y-40259539D01*
X49632740Y-40279212D01*
X49581236Y-40316632D01*
X49538218Y-40338551D01*
X49516568Y-40301051D01*
X49372625Y-40136915D01*
X49158903Y-40031519D01*
X48921116Y-40015933D01*
X48714389Y-40086108D01*
X46428775Y-41405708D01*
X46264639Y-41549651D01*
X46159243Y-41763373D01*
X46143657Y-42001160D01*
X44467959Y-42001160D01*
X44424198Y-41975895D01*
X44375698Y-41962900D01*
X43722053Y-41309255D01*
X43642765Y-41223030D01*
X43566488Y-41175736D01*
X43495016Y-41121485D01*
X43450673Y-41103929D01*
X43403796Y-41074863D01*
X43346501Y-41062684D01*
X43240531Y-41020728D01*
X42968327Y-40992119D01*
X42915819Y-41001000D01*
X42508993Y-41001000D01*
X42469600Y-40993164D01*
X41530400Y-40993164D01*
X41316282Y-41035755D01*
X41118145Y-41168145D01*
X41056836Y-41259901D01*
X41056836Y-40630400D01*
X41047332Y-40582623D01*
X43918809Y-37711147D01*
X43975896Y-37924198D01*
X44120581Y-38174802D01*
X44325198Y-38379419D01*
X44575802Y-38524104D01*
X44855314Y-38599000D01*
X45110466Y-38599000D01*
X45901000Y-39389535D01*
X45901000Y-39644686D01*
X45975896Y-39924198D01*
X46120581Y-40174802D01*
X46325198Y-40379419D01*
X46575802Y-40524104D01*
X46855314Y-40599000D01*
X47144686Y-40599000D01*
X47424198Y-40524104D01*
X47674802Y-40379419D01*
X47879419Y-40174802D01*
X48024104Y-39924198D01*
X48099000Y-39644686D01*
X48099000Y-39355314D01*
X48024104Y-39075802D01*
X47879419Y-38825198D01*
X47674802Y-38620581D01*
X47424198Y-38475896D01*
X47387263Y-38465999D01*
X54568022Y-38465999D01*
X54835301Y-39981814D01*
X54914426Y-40185283D01*
X55079211Y-40357421D01*
X55297327Y-40453394D01*
X55515588Y-40458156D01*
X58114692Y-39999864D01*
X58318161Y-39920739D01*
X58490299Y-39755954D01*
X58518533Y-39691788D01*
X58561833Y-39691788D01*
X61325623Y-42455580D01*
X61325626Y-42455582D01*
X61371718Y-42501675D01*
X61428447Y-42530579D01*
X61479950Y-42567999D01*
X61540500Y-42587673D01*
X61597230Y-42616578D01*
X61660115Y-42626539D01*
X61720662Y-42646211D01*
X61783515Y-42646211D01*
X61783521Y-42646212D01*
X62960523Y-42646212D01*
X62988757Y-42710378D01*
X63160895Y-42875163D01*
X63364364Y-42954288D01*
X65963468Y-43412580D01*
X66181729Y-43407818D01*
X66399845Y-43311845D01*
X66564630Y-43139707D01*
X66643755Y-42936238D01*
X66911034Y-41420423D01*
X66906272Y-41202162D01*
X66810299Y-40984046D01*
X66638161Y-40819261D01*
X66434692Y-40740136D01*
X63835588Y-40281844D01*
X63617327Y-40286606D01*
X63399211Y-40382579D01*
X63234426Y-40554717D01*
X63155301Y-40758186D01*
X63104161Y-41048212D01*
X62178169Y-41048212D01*
X60449533Y-39319577D01*
X63408966Y-39319577D01*
X63413728Y-39537838D01*
X63509701Y-39755954D01*
X63681839Y-39920739D01*
X63885308Y-39999864D01*
X66484412Y-40458156D01*
X66702673Y-40453394D01*
X66920789Y-40357421D01*
X67085574Y-40185283D01*
X67164699Y-39981814D01*
X67431978Y-38465999D01*
X67427216Y-38247738D01*
X67331243Y-38029622D01*
X67159105Y-37864837D01*
X66955636Y-37785712D01*
X64356532Y-37327420D01*
X64138271Y-37332182D01*
X63920155Y-37428155D01*
X63755370Y-37600293D01*
X63676245Y-37803762D01*
X63408966Y-39319577D01*
X60449533Y-39319577D01*
X59547799Y-38417844D01*
X59547798Y-38417842D01*
X59368283Y-38238326D01*
X59311549Y-38209418D01*
X59260049Y-38172001D01*
X59199503Y-38152328D01*
X59142769Y-38123421D01*
X59079879Y-38113461D01*
X59019336Y-38093789D01*
X58956485Y-38093789D01*
X58956479Y-38093788D01*
X58374895Y-38093788D01*
X58323755Y-37803762D01*
X58244630Y-37600293D01*
X58079845Y-37428155D01*
X57861729Y-37332182D01*
X57643468Y-37327420D01*
X55044364Y-37785712D01*
X54840895Y-37864837D01*
X54668757Y-38029622D01*
X54572784Y-38247738D01*
X54568022Y-38465999D01*
X47387263Y-38465999D01*
X47144686Y-38401000D01*
X46889535Y-38401000D01*
X46099000Y-37610466D01*
X46099000Y-37355314D01*
X46024104Y-37075802D01*
X45879419Y-36825198D01*
X45674802Y-36620581D01*
X45424198Y-36475896D01*
X45211147Y-36418808D01*
X45574955Y-36055000D01*
X50785163Y-36055000D01*
X50785163Y-36651199D01*
X50872471Y-36977038D01*
X51038538Y-37174949D01*
X51254461Y-37299612D01*
X51482590Y-37339837D01*
X51945000Y-37339837D01*
X51945000Y-36055000D01*
X50785163Y-36055000D01*
X45574955Y-36055000D01*
X46272365Y-35357590D01*
X50785163Y-35357590D01*
X50785163Y-35945000D01*
X51945000Y-35945000D01*
X51945000Y-34660163D01*
X51473801Y-34660163D01*
X51147963Y-34747471D01*
X50950052Y-34913538D01*
X50825388Y-35129461D01*
X50785163Y-35357590D01*
X46272365Y-35357590D01*
X47205034Y-34424922D01*
X47434250Y-34360924D01*
X47667122Y-34248350D01*
X47876378Y-34096316D01*
X48055404Y-33909630D01*
X48189240Y-33708191D01*
X48334184Y-33921470D01*
X48515155Y-34106271D01*
X48725992Y-34256105D01*
X48960029Y-34366235D01*
X49209870Y-34433179D01*
X49467617Y-34454823D01*
X49725124Y-34430481D01*
X49974250Y-34360924D01*
X50207122Y-34248350D01*
X50416378Y-34096316D01*
X50477160Y-34032934D01*
X50522471Y-34202038D01*
X50688538Y-34399949D01*
X50904461Y-34524612D01*
X51132590Y-34564837D01*
X51945000Y-34564837D01*
X51945000Y-31435163D01*
X52055000Y-31435163D01*
X52055000Y-32945000D01*
X53564837Y-32945000D01*
X53564837Y-32123801D01*
X53477529Y-31797963D01*
X53311462Y-31600052D01*
X53095539Y-31475388D01*
X52867410Y-31435163D01*
X52055000Y-31435163D01*
X51945000Y-31435163D01*
X51123801Y-31435163D01*
X50797963Y-31522471D01*
X50600052Y-31688538D01*
X50475388Y-31904461D01*
X50467185Y-31950981D01*
X50271431Y-31792462D01*
X50044770Y-31667855D01*
X49799626Y-31585354D01*
X49543747Y-31547569D01*
X49285220Y-31555694D01*
X49032217Y-31609471D01*
X48792737Y-31707201D01*
X48574348Y-31845795D01*
X48383953Y-32020872D01*
X48227571Y-32226898D01*
X48189965Y-32300704D01*
X48101454Y-32151039D01*
X47932444Y-31955239D01*
X47731431Y-31792462D01*
X47504770Y-31667855D01*
X47259626Y-31585354D01*
X47003747Y-31547569D01*
X46745220Y-31555694D01*
X46492217Y-31609471D01*
X46252737Y-31707201D01*
X46034348Y-31845795D01*
X45843953Y-32020872D01*
X45687571Y-32226898D01*
X45649965Y-32300704D01*
X45561454Y-32151039D01*
X45392444Y-31955239D01*
X45191431Y-31792462D01*
X44964770Y-31667855D01*
X44719626Y-31585354D01*
X44463747Y-31547569D01*
X44205220Y-31555694D01*
X43952217Y-31609471D01*
X43712737Y-31707201D01*
X43494348Y-31845795D01*
X43303953Y-32020872D01*
X43147571Y-32226898D01*
X43030144Y-32457361D01*
X42955384Y-32704976D01*
X42925655Y-32961917D01*
X42941897Y-33220061D01*
X43003595Y-33471249D01*
X43108798Y-33707541D01*
X43254184Y-33921470D01*
X43435155Y-34106271D01*
X43645992Y-34256105D01*
X43880029Y-34366235D01*
X44129870Y-34433179D01*
X44387617Y-34454823D01*
X44645124Y-34430481D01*
X44894250Y-34360924D01*
X45116615Y-34253429D01*
X39502220Y-39867825D01*
X39345539Y-40024505D01*
X39316634Y-40081235D01*
X39310582Y-40089563D01*
X39118145Y-40218145D01*
X39096192Y-40251000D01*
X37433993Y-40251000D01*
X37394600Y-40243164D01*
X36605400Y-40243164D01*
X36391282Y-40285755D01*
X36193145Y-40418145D01*
X36060755Y-40616282D01*
X36018164Y-40830400D01*
X36018164Y-41669600D01*
X36060755Y-41883718D01*
X36069918Y-41897431D01*
X35950388Y-42104461D01*
X35910163Y-42332590D01*
X33599000Y-42332590D01*
X33599000Y-28961917D01*
X40465655Y-28961917D01*
X40481897Y-29220061D01*
X40543595Y-29471249D01*
X40648798Y-29707541D01*
X40794184Y-29921470D01*
X40975155Y-30106271D01*
X41185992Y-30256105D01*
X41420029Y-30366235D01*
X41669870Y-30433179D01*
X41927617Y-30454823D01*
X42185124Y-30430481D01*
X42434250Y-30360924D01*
X42667122Y-30248350D01*
X42876378Y-30096316D01*
X43055404Y-29909630D01*
X43189240Y-29708191D01*
X43334184Y-29921470D01*
X43515155Y-30106271D01*
X43725992Y-30256105D01*
X43960029Y-30366235D01*
X44209870Y-30433179D01*
X44467617Y-30454823D01*
X44725124Y-30430481D01*
X44974250Y-30360924D01*
X45207122Y-30248350D01*
X45416378Y-30096316D01*
X45477160Y-30032934D01*
X45522471Y-30202038D01*
X45688538Y-30399949D01*
X45904461Y-30524612D01*
X46132590Y-30564837D01*
X46945000Y-30564837D01*
X46945000Y-29055000D01*
X47055000Y-29055000D01*
X47055000Y-30564837D01*
X47876199Y-30564837D01*
X48202038Y-30477529D01*
X48399949Y-30311462D01*
X48524612Y-30095539D01*
X48564837Y-29867410D01*
X48564837Y-29055000D01*
X47055000Y-29055000D01*
X46945000Y-29055000D01*
X46945000Y-27435163D01*
X47055000Y-27435163D01*
X47055000Y-28945000D01*
X48564837Y-28945000D01*
X48564837Y-28123801D01*
X48477529Y-27797963D01*
X48311462Y-27600052D01*
X48095539Y-27475388D01*
X47867410Y-27435163D01*
X47055000Y-27435163D01*
X46945000Y-27435163D01*
X46123801Y-27435163D01*
X45797963Y-27522471D01*
X45600052Y-27688538D01*
X45475388Y-27904461D01*
X45467185Y-27950981D01*
X45271431Y-27792462D01*
X45044770Y-27667855D01*
X44799626Y-27585354D01*
X44724941Y-27574326D01*
X44472156Y-27321541D01*
X44564245Y-27183718D01*
X44606836Y-26969600D01*
X44606836Y-26030400D01*
X44596891Y-25980400D01*
X53593164Y-25980400D01*
X53593164Y-27019600D01*
X53635755Y-27233718D01*
X53768145Y-27431855D01*
X53966282Y-27564245D01*
X54180400Y-27606836D01*
X55819600Y-27606836D01*
X56033718Y-27564245D01*
X56231855Y-27431855D01*
X56364245Y-27233718D01*
X56406836Y-27019600D01*
X56406836Y-25980400D01*
X66593164Y-25980400D01*
X66593164Y-27019600D01*
X66635755Y-27233718D01*
X66768145Y-27431855D01*
X66966282Y-27564245D01*
X67180400Y-27606836D01*
X68819600Y-27606836D01*
X69033718Y-27564245D01*
X69231855Y-27431855D01*
X69364245Y-27233718D01*
X69406836Y-27019600D01*
X69406836Y-25980400D01*
X69364245Y-25766282D01*
X69231855Y-25568145D01*
X69033718Y-25435755D01*
X68819600Y-25393164D01*
X67180400Y-25393164D01*
X66966282Y-25435755D01*
X66768145Y-25568145D01*
X66635755Y-25766282D01*
X66593164Y-25980400D01*
X56406836Y-25980400D01*
X56364245Y-25766282D01*
X56231855Y-25568145D01*
X56033718Y-25435755D01*
X55819600Y-25393164D01*
X54180400Y-25393164D01*
X53966282Y-25435755D01*
X53768145Y-25568145D01*
X53635755Y-25766282D01*
X53593164Y-25980400D01*
X44596891Y-25980400D01*
X44564245Y-25816282D01*
X44431855Y-25618145D01*
X44233718Y-25485755D01*
X44019600Y-25443164D01*
X43480400Y-25443164D01*
X43266282Y-25485755D01*
X43068145Y-25618145D01*
X43000000Y-25720132D01*
X42931855Y-25618145D01*
X42733718Y-25485755D01*
X42519600Y-25443164D01*
X41980400Y-25443164D01*
X41766282Y-25485755D01*
X41568145Y-25618145D01*
X41435755Y-25816282D01*
X41393164Y-26030400D01*
X41393164Y-26969600D01*
X41435755Y-27183718D01*
X41551000Y-27356196D01*
X41551000Y-27460464D01*
X41447310Y-27564155D01*
X41376276Y-27623759D01*
X41351330Y-27666966D01*
X41252737Y-27707201D01*
X41034348Y-27845795D01*
X40843953Y-28020872D01*
X40687571Y-28226898D01*
X40570144Y-28457361D01*
X40495384Y-28704976D01*
X40465655Y-28961917D01*
X33599000Y-28961917D01*
X33599000Y-28248113D01*
X36748113Y-25099000D01*
X87251887Y-25099000D01*
X89901001Y-27748115D01*
G37*
X89901001Y-27748115D02*
X89901000Y-43251887D01*
X88509360Y-44643527D01*
X88487690Y-44686055D01*
X88459634Y-44724672D01*
X88444885Y-44770065D01*
X88423217Y-44812591D01*
X88415750Y-44859731D01*
X88401000Y-44905129D01*
X88401000Y-45095646D01*
X88401001Y-45095649D01*
X88401001Y-48801000D01*
X85749000Y-48801000D01*
X85749000Y-45772093D01*
X85753904Y-45655101D01*
X85733412Y-45567737D01*
X85721233Y-45478827D01*
X85702291Y-45435055D01*
X85689697Y-45381355D01*
X85657796Y-45332233D01*
X85612532Y-45227632D01*
X85541176Y-45139516D01*
X85524105Y-45075802D01*
X85379419Y-44825198D01*
X85174802Y-44620581D01*
X85106836Y-44581341D01*
X85106836Y-44355400D01*
X85064245Y-44141282D01*
X84931855Y-43943145D01*
X84733718Y-43810755D01*
X84519600Y-43768164D01*
X84065914Y-43768164D01*
X84099000Y-43644686D01*
X84099000Y-43355314D01*
X84024104Y-43075802D01*
X83999000Y-43032320D01*
X83999000Y-42949000D01*
X84027906Y-42949000D01*
X84144896Y-42953904D01*
X84232256Y-42933414D01*
X84321173Y-42921233D01*
X84364945Y-42902292D01*
X84418646Y-42889696D01*
X84467761Y-42857799D01*
X84572368Y-42812532D01*
X84650822Y-42749000D01*
X86068472Y-42749000D01*
X86271173Y-42721233D01*
X86522368Y-42612532D01*
X86548874Y-42591067D01*
X86683718Y-42564245D01*
X86706534Y-42549000D01*
X87313691Y-42549000D01*
X87313697Y-42548999D01*
X87376548Y-42548999D01*
X87437091Y-42529327D01*
X87499981Y-42519367D01*
X87556715Y-42490460D01*
X87617261Y-42470787D01*
X87668761Y-42433370D01*
X87725495Y-42404462D01*
X87905010Y-42224946D01*
X87905011Y-42224944D01*
X88598368Y-41531588D01*
X88654462Y-41475495D01*
X88683366Y-41418768D01*
X88720787Y-41367261D01*
X88740461Y-41306712D01*
X88769366Y-41249982D01*
X88779327Y-41187097D01*
X88798999Y-41126550D01*
X88798999Y-41063697D01*
X88799000Y-41063691D01*
X88799000Y-39587103D01*
X88806855Y-39581855D01*
X88939245Y-39383718D01*
X88981836Y-39169600D01*
X88981836Y-38330400D01*
X88939245Y-38116282D01*
X88861548Y-38000000D01*
X88939245Y-37883718D01*
X88981836Y-37669600D01*
X88981836Y-36830400D01*
X88939245Y-36616282D01*
X88806855Y-36418145D01*
X88608718Y-36285755D01*
X88394600Y-36243164D01*
X88373120Y-36243164D01*
X87655011Y-35525056D01*
X87655010Y-35525054D01*
X87475495Y-35345538D01*
X87418761Y-35316630D01*
X87367261Y-35279213D01*
X87306715Y-35259540D01*
X87249981Y-35230633D01*
X87187091Y-35220673D01*
X87126548Y-35201001D01*
X87063697Y-35201001D01*
X87063691Y-35201000D01*
X86106836Y-35201000D01*
X86106836Y-34630400D01*
X86064245Y-34416282D01*
X85931855Y-34218145D01*
X85733718Y-34085755D01*
X85519600Y-34043164D01*
X84680400Y-34043164D01*
X84466282Y-34085755D01*
X84268145Y-34218145D01*
X84135755Y-34416282D01*
X84093164Y-34630400D01*
X84093164Y-35372686D01*
X83975896Y-35575802D01*
X83906836Y-35833534D01*
X83906836Y-34630400D01*
X83864245Y-34416282D01*
X83731855Y-34218145D01*
X83533718Y-34085755D01*
X83319600Y-34043164D01*
X82480400Y-34043164D01*
X82266282Y-34085755D01*
X82068145Y-34218145D01*
X81935755Y-34416282D01*
X81893164Y-34630400D01*
X81893164Y-35694038D01*
X81086202Y-36501000D01*
X80131365Y-36501000D01*
X80033718Y-36435755D01*
X79819600Y-36393164D01*
X78519634Y-36393164D01*
X79305963Y-35606836D01*
X79819600Y-35606836D01*
X80033718Y-35564245D01*
X80231855Y-35431855D01*
X80364245Y-35233718D01*
X80406836Y-35019600D01*
X80406836Y-33980400D01*
X80364245Y-33766282D01*
X80231855Y-33568145D01*
X80033718Y-33435755D01*
X79819600Y-33393164D01*
X78180400Y-33393164D01*
X77966282Y-33435755D01*
X77768145Y-33568145D01*
X77635755Y-33766282D01*
X77593164Y-33980400D01*
X77593164Y-34494037D01*
X76086202Y-36001000D01*
X74970512Y-36001000D01*
X74931855Y-35943145D01*
X74733718Y-35810755D01*
X74519600Y-35768164D01*
X73786057Y-35768164D01*
X73879419Y-35674802D01*
X74024104Y-35424198D01*
X74099000Y-35144686D01*
X74099000Y-34855314D01*
X74070441Y-34748730D01*
X74271173Y-34721233D01*
X74522368Y-34612532D01*
X74548874Y-34591067D01*
X74683718Y-34564245D01*
X74706534Y-34549000D01*
X75171192Y-34549000D01*
X75193145Y-34581855D01*
X75391282Y-34714245D01*
X75605400Y-34756836D01*
X76394600Y-34756836D01*
X76608718Y-34714245D01*
X76806855Y-34581855D01*
X76939245Y-34383718D01*
X76981836Y-34169600D01*
X76981836Y-33330400D01*
X76939245Y-33116282D01*
X76861548Y-33000000D01*
X76939245Y-32883718D01*
X76981836Y-32669600D01*
X76981836Y-31830400D01*
X76939245Y-31616282D01*
X76806855Y-31418145D01*
X76799000Y-31412897D01*
X76799000Y-28873450D01*
X76779326Y-28812901D01*
X76769367Y-28750019D01*
X76740461Y-28693288D01*
X76720787Y-28632740D01*
X76683369Y-28581237D01*
X76654462Y-28524505D01*
X76497781Y-28367825D01*
X75655011Y-27525056D01*
X75655010Y-27525054D01*
X75475495Y-27345538D01*
X75418761Y-27316630D01*
X75367261Y-27279213D01*
X75317151Y-27262931D01*
X75174802Y-27120581D01*
X75106836Y-27081341D01*
X75106836Y-26630400D01*
X75064245Y-26416282D01*
X74931855Y-26218145D01*
X74733718Y-26085755D01*
X74519600Y-26043164D01*
X73680400Y-26043164D01*
X73466282Y-26085755D01*
X73268145Y-26218145D01*
X73135755Y-26416282D01*
X73093164Y-26630400D01*
X73093164Y-29369600D01*
X73135755Y-29583718D01*
X73268145Y-29781855D01*
X73466282Y-29914245D01*
X73680400Y-29956836D01*
X74519600Y-29956836D01*
X74733718Y-29914245D01*
X74931855Y-29781855D01*
X75064245Y-29583718D01*
X75106836Y-29369600D01*
X75106836Y-29236792D01*
X75201001Y-29330957D01*
X75201000Y-31412897D01*
X75193145Y-31418145D01*
X75060755Y-31616282D01*
X75022581Y-31808192D01*
X75014245Y-31766282D01*
X74881855Y-31568145D01*
X74683718Y-31435755D01*
X74534905Y-31406154D01*
X74403794Y-31324863D01*
X74056299Y-31251000D01*
X73474270Y-31251000D01*
X73471233Y-31228827D01*
X73452291Y-31185055D01*
X73439697Y-31131356D01*
X73407797Y-31082234D01*
X73362532Y-30977632D01*
X73190283Y-30764923D01*
X73146869Y-30734071D01*
X73037100Y-30624302D01*
X73024104Y-30575801D01*
X72879419Y-30325198D01*
X72674802Y-30120581D01*
X72424198Y-29975896D01*
X72338807Y-29953015D01*
X72533718Y-29914245D01*
X72731855Y-29781855D01*
X72864245Y-29583718D01*
X72906836Y-29369600D01*
X72906836Y-26630400D01*
X72864245Y-26416282D01*
X72731855Y-26218145D01*
X72533718Y-26085755D01*
X72319600Y-26043164D01*
X71480400Y-26043164D01*
X71266282Y-26085755D01*
X71068145Y-26218145D01*
X70935755Y-26416282D01*
X70893164Y-26630400D01*
X70893164Y-26998896D01*
X70817735Y-27016588D01*
X70728828Y-27028767D01*
X70685057Y-27047707D01*
X70631353Y-27060304D01*
X70582229Y-27092205D01*
X70477632Y-27137468D01*
X70264923Y-27309717D01*
X70234073Y-27353128D01*
X69104292Y-28482910D01*
X69033718Y-28435755D01*
X68819600Y-28393164D01*
X67180400Y-28393164D01*
X66966282Y-28435755D01*
X66768145Y-28568145D01*
X66635755Y-28766282D01*
X66593164Y-28980400D01*
X66593164Y-30019600D01*
X66635755Y-30233718D01*
X66768145Y-30431855D01*
X66966282Y-30564245D01*
X67180400Y-30606836D01*
X67976880Y-30606836D01*
X68101001Y-30730957D01*
X68101000Y-31184329D01*
X67938145Y-31293145D01*
X67805755Y-31491282D01*
X67763164Y-31705400D01*
X67763164Y-32312070D01*
X67695388Y-32429461D01*
X67662900Y-32613710D01*
X67424198Y-32475896D01*
X67144686Y-32401000D01*
X66855314Y-32401000D01*
X66575802Y-32475896D01*
X66325198Y-32620581D01*
X66120581Y-32825198D01*
X65975896Y-33075802D01*
X65901000Y-33355314D01*
X65901000Y-33488202D01*
X65499000Y-33086202D01*
X65499000Y-30522093D01*
X65503904Y-30405101D01*
X65483412Y-30317735D01*
X65471233Y-30228828D01*
X65452293Y-30185057D01*
X65439696Y-30131353D01*
X65407795Y-30082229D01*
X65362532Y-29977632D01*
X65190283Y-29764923D01*
X65146872Y-29734073D01*
X63743761Y-28330963D01*
X63690283Y-28264924D01*
X63646873Y-28234074D01*
X62722053Y-27309255D01*
X62642765Y-27223030D01*
X62566488Y-27175736D01*
X62495016Y-27121485D01*
X62450673Y-27103929D01*
X62403796Y-27074863D01*
X62346501Y-27062684D01*
X62240531Y-27020728D01*
X62106836Y-27006676D01*
X62106836Y-26630400D01*
X62064245Y-26416282D01*
X61931855Y-26218145D01*
X61733718Y-26085755D01*
X61519600Y-26043164D01*
X60680400Y-26043164D01*
X60466282Y-26085755D01*
X60268145Y-26218145D01*
X60135755Y-26416282D01*
X60093164Y-26630400D01*
X60093164Y-29369600D01*
X60135755Y-29583718D01*
X60268145Y-29781855D01*
X60466282Y-29914245D01*
X60680400Y-29956836D01*
X61519600Y-29956836D01*
X61733718Y-29914245D01*
X61931855Y-29781855D01*
X62001001Y-29678370D01*
X62001000Y-31746460D01*
X61881855Y-31568145D01*
X61683718Y-31435755D01*
X61534905Y-31406154D01*
X61403794Y-31324863D01*
X61069747Y-31253858D01*
X61099000Y-31144686D01*
X61099000Y-30855314D01*
X61024104Y-30575802D01*
X60879419Y-30325198D01*
X60674802Y-30120581D01*
X60424198Y-29975896D01*
X60144686Y-29901000D01*
X59855314Y-29901000D01*
X59575802Y-29975896D01*
X59325198Y-30120581D01*
X59120581Y-30325198D01*
X58975896Y-30575801D01*
X58962900Y-30624302D01*
X58809248Y-30777954D01*
X58723030Y-30857236D01*
X58675743Y-30933502D01*
X58621487Y-31004982D01*
X58603931Y-31049323D01*
X58602891Y-31051000D01*
X58031528Y-31051000D01*
X57828827Y-31078767D01*
X57737786Y-31118164D01*
X57550400Y-31118164D01*
X57336282Y-31160755D01*
X57138145Y-31293145D01*
X57005755Y-31491282D01*
X57000000Y-31520214D01*
X56994245Y-31491282D01*
X56861855Y-31293145D01*
X56699000Y-31184330D01*
X56699000Y-30836309D01*
X56698999Y-30836303D01*
X56698999Y-30773450D01*
X56679327Y-30712903D01*
X56669366Y-30650018D01*
X56640461Y-30593288D01*
X56620787Y-30532739D01*
X56599118Y-30502914D01*
X56682256Y-30483414D01*
X56771173Y-30471233D01*
X56814945Y-30452292D01*
X56868646Y-30439696D01*
X56917761Y-30407799D01*
X57022368Y-30362532D01*
X57235076Y-30190283D01*
X57265931Y-30146866D01*
X57918056Y-29494741D01*
X57935755Y-29583718D01*
X58068145Y-29781855D01*
X58266282Y-29914245D01*
X58480400Y-29956836D01*
X59319600Y-29956836D01*
X59533718Y-29914245D01*
X59731855Y-29781855D01*
X59864245Y-29583718D01*
X59906836Y-29369600D01*
X59906836Y-26630400D01*
X59864245Y-26416282D01*
X59731855Y-26218145D01*
X59533718Y-26085755D01*
X59319600Y-26043164D01*
X58480400Y-26043164D01*
X58266282Y-26085755D01*
X58068145Y-26218145D01*
X57935755Y-26416282D01*
X57893164Y-26630400D01*
X57893164Y-26998896D01*
X57817735Y-27016588D01*
X57728828Y-27028767D01*
X57685057Y-27047707D01*
X57631353Y-27060304D01*
X57582229Y-27092205D01*
X57477632Y-27137468D01*
X57264923Y-27309717D01*
X57234073Y-27353128D01*
X56104292Y-28482910D01*
X56033718Y-28435755D01*
X55819600Y-28393164D01*
X54180400Y-28393164D01*
X53966282Y-28435755D01*
X53768145Y-28568145D01*
X53635755Y-28766282D01*
X53593164Y-28980400D01*
X53593164Y-30019600D01*
X53635755Y-30233718D01*
X53768145Y-30431855D01*
X53966282Y-30564245D01*
X54180400Y-30606836D01*
X54476880Y-30606836D01*
X54525053Y-30655010D01*
X54525057Y-30655012D01*
X55073050Y-31203006D01*
X54938145Y-31293145D01*
X54805755Y-31491282D01*
X54763164Y-31705400D01*
X54763164Y-32312070D01*
X54695388Y-32429461D01*
X54655163Y-32657590D01*
X54655163Y-32903807D01*
X54644686Y-32901000D01*
X54355314Y-32901000D01*
X54075802Y-32975896D01*
X53825198Y-33120581D01*
X53620581Y-33325198D01*
X53564837Y-33421750D01*
X53564837Y-33055000D01*
X52055000Y-33055000D01*
X52055000Y-34564837D01*
X52876199Y-34564837D01*
X53202038Y-34477529D01*
X53399949Y-34311462D01*
X53431189Y-34257352D01*
X53475896Y-34424198D01*
X53620581Y-34674802D01*
X53713943Y-34768164D01*
X53480400Y-34768164D01*
X53266282Y-34810755D01*
X53068145Y-34943145D01*
X53064780Y-34948181D01*
X52961462Y-34825052D01*
X52745539Y-34700388D01*
X52517410Y-34660163D01*
X52055000Y-34660163D01*
X52055000Y-37339837D01*
X52526199Y-37339837D01*
X52852038Y-37252529D01*
X53049949Y-37086462D01*
X53067554Y-37055970D01*
X53068145Y-37056855D01*
X53266282Y-37189245D01*
X53480400Y-37231836D01*
X54519600Y-37231836D01*
X54733718Y-37189245D01*
X54931855Y-37056855D01*
X54970512Y-36999000D01*
X55032320Y-36999000D01*
X55075802Y-37024104D01*
X55355314Y-37099000D01*
X55644686Y-37099000D01*
X55924198Y-37024104D01*
X56174802Y-36879419D01*
X56379419Y-36674802D01*
X56524104Y-36424198D01*
X56599000Y-36144686D01*
X56599000Y-35855314D01*
X56552749Y-35682704D01*
X57367825Y-36497781D01*
X57524505Y-36654462D01*
X57581232Y-36683366D01*
X57632739Y-36720787D01*
X57693288Y-36740461D01*
X57750018Y-36769366D01*
X57812904Y-36779327D01*
X57873451Y-36798999D01*
X57936303Y-36798999D01*
X57936309Y-36799000D01*
X63244780Y-36799000D01*
X63325198Y-36879419D01*
X63575802Y-37024104D01*
X63855314Y-37099000D01*
X64144686Y-37099000D01*
X64424198Y-37024104D01*
X64674802Y-36879419D01*
X64755220Y-36799000D01*
X66669045Y-36799000D01*
X66901000Y-37030956D01*
X66901000Y-37144686D01*
X66975896Y-37424198D01*
X67120581Y-37674802D01*
X67325198Y-37879419D01*
X67575802Y-38024104D01*
X67855314Y-38099000D01*
X68144686Y-38099000D01*
X68424198Y-38024104D01*
X68501001Y-37979762D01*
X68501000Y-44477906D01*
X68496096Y-44594897D01*
X68516588Y-44682261D01*
X68528767Y-44771172D01*
X68547709Y-44814944D01*
X68560303Y-44868644D01*
X68592204Y-44917766D01*
X68629186Y-45003229D01*
X66988613Y-44406109D01*
X66772840Y-44372897D01*
X66541372Y-44429537D01*
X66349199Y-44570445D01*
X66235945Y-44757083D01*
X65609149Y-46479193D01*
X63845011Y-44715056D01*
X63845010Y-44715054D01*
X63665495Y-44535538D01*
X63608761Y-44506630D01*
X63557261Y-44469213D01*
X63496715Y-44449540D01*
X63439981Y-44420633D01*
X63377091Y-44410673D01*
X63316548Y-44391001D01*
X63253697Y-44391001D01*
X63253691Y-44391000D01*
X62656836Y-44391000D01*
X62656836Y-44120400D01*
X62614245Y-43906282D01*
X62481855Y-43708145D01*
X62283718Y-43575755D01*
X62069600Y-43533164D01*
X59930400Y-43533164D01*
X59716282Y-43575755D01*
X59518145Y-43708145D01*
X59385755Y-43906282D01*
X59343164Y-44120400D01*
X59343164Y-46213208D01*
X58983860Y-45853905D01*
X58983859Y-45853903D01*
X58804344Y-45674387D01*
X58747610Y-45645479D01*
X58696110Y-45608062D01*
X58635564Y-45588389D01*
X58578830Y-45559482D01*
X58515940Y-45549522D01*
X58455397Y-45529850D01*
X58392546Y-45529850D01*
X58392540Y-45529849D01*
X56045319Y-45529849D01*
X55764055Y-44757083D01*
X55650801Y-44570445D01*
X55458628Y-44429537D01*
X55227160Y-44372897D01*
X55011387Y-44406109D01*
X53001198Y-45137758D01*
X52814560Y-45251012D01*
X52673652Y-45443185D01*
X52617012Y-45674653D01*
X52650224Y-45890426D01*
X53381873Y-47900615D01*
X53495127Y-48087253D01*
X53564263Y-48137946D01*
X53548834Y-48201000D01*
X51891237Y-48201000D01*
X52352038Y-48077529D01*
X52549949Y-47911462D01*
X52674612Y-47695539D01*
X52714837Y-47467410D01*
X52714837Y-47051000D01*
X51801000Y-47051000D01*
X51801000Y-48201000D01*
X51699000Y-48201000D01*
X51699000Y-46949000D01*
X51801000Y-46949000D01*
X52714837Y-46949000D01*
X52714837Y-46523801D01*
X52627529Y-46197963D01*
X52461462Y-46000052D01*
X52245539Y-45875388D01*
X51801000Y-45797004D01*
X51801000Y-46949000D01*
X51699000Y-46949000D01*
X51699000Y-45774821D01*
X51147963Y-45922471D01*
X50950052Y-46088538D01*
X50932447Y-46119031D01*
X50931855Y-46118145D01*
X50733718Y-45985755D01*
X50519600Y-45943164D01*
X49997013Y-45943164D01*
X51571225Y-45034292D01*
X51735361Y-44890349D01*
X51840757Y-44676627D01*
X51856343Y-44438840D01*
X51786168Y-44232113D01*
X51016568Y-42899127D01*
X50872625Y-42734991D01*
X50658903Y-42629595D01*
X50421116Y-42614009D01*
X50214389Y-42684184D01*
X47928775Y-44003784D01*
X47764639Y-44147727D01*
X47659243Y-44361449D01*
X47643657Y-44599236D01*
X47713832Y-44805963D01*
X47940507Y-45198576D01*
X47938083Y-45201000D01*
X42936309Y-45201000D01*
X42936303Y-45201001D01*
X42873450Y-45201001D01*
X42812903Y-45220673D01*
X42750018Y-45230634D01*
X42693288Y-45259539D01*
X42632739Y-45279213D01*
X42581232Y-45316634D01*
X42524505Y-45345538D01*
X42162842Y-45707202D01*
X42107077Y-45660410D01*
X41915676Y-45555403D01*
X41678795Y-45529460D01*
X41599000Y-45552718D01*
X41599000Y-45355314D01*
X41524104Y-45075802D01*
X41379419Y-44825198D01*
X41174802Y-44620581D01*
X40924198Y-44475896D01*
X40644686Y-44401000D01*
X40355314Y-44401000D01*
X40075802Y-44475896D01*
X39825198Y-44620581D01*
X39620581Y-44825198D01*
X39475896Y-45075801D01*
X39462900Y-45124302D01*
X37309245Y-47277957D01*
X37223031Y-47357235D01*
X37175750Y-47433493D01*
X37121486Y-47504984D01*
X37103929Y-47549327D01*
X37074864Y-47596205D01*
X37062686Y-47653494D01*
X37020729Y-47759469D01*
X36993300Y-48020435D01*
X36916282Y-48035755D01*
X36718145Y-48168145D01*
X36585755Y-48366282D01*
X36543164Y-48580400D01*
X36543164Y-48801000D01*
X33599000Y-48801000D01*
X33599000Y-42805000D01*
X35910163Y-42805000D01*
X35910163Y-43176199D01*
X35997471Y-43502038D01*
X36163538Y-43699949D01*
X36379461Y-43824612D01*
X36607590Y-43864837D01*
X36945000Y-43864837D01*
X36945000Y-42805000D01*
X37055000Y-42805000D01*
X37055000Y-43864837D01*
X37401199Y-43864837D01*
X37727038Y-43777529D01*
X37924949Y-43611462D01*
X38049612Y-43395539D01*
X38089837Y-43167410D01*
X38089837Y-43005000D01*
X38835163Y-43005000D01*
X38835163Y-43376199D01*
X38922471Y-43702038D01*
X39088538Y-43899949D01*
X39304461Y-44024612D01*
X39532590Y-44064837D01*
X39945000Y-44064837D01*
X39945000Y-43005000D01*
X40055000Y-43005000D01*
X40055000Y-44064837D01*
X40476199Y-44064837D01*
X40802038Y-43977529D01*
X40999949Y-43811462D01*
X41124612Y-43595539D01*
X41164837Y-43367410D01*
X41164837Y-43005000D01*
X40055000Y-43005000D01*
X39945000Y-43005000D01*
X38835163Y-43005000D01*
X38089837Y-43005000D01*
X38089837Y-42805000D01*
X37055000Y-42805000D01*
X36945000Y-42805000D01*
X35910163Y-42805000D01*
X33599000Y-42805000D01*
X33599000Y-42332590D01*
X35910163Y-42332590D01*
X35910163Y-42695000D01*
X38089837Y-42695000D01*
X38089837Y-42323801D01*
X38002529Y-41997963D01*
X37924803Y-41905332D01*
X37939245Y-41883717D01*
X37946151Y-41849000D01*
X39096192Y-41849000D01*
X39118145Y-41881855D01*
X39189526Y-41929550D01*
X39000052Y-42088538D01*
X38875388Y-42304461D01*
X38835163Y-42532590D01*
X38835163Y-42895000D01*
X41164837Y-42895000D01*
X41164837Y-42863053D01*
X41316282Y-42964245D01*
X41530400Y-43006836D01*
X42469600Y-43006836D01*
X42508993Y-42999000D01*
X42586203Y-42999000D01*
X42962900Y-43375698D01*
X42975895Y-43424198D01*
X43120581Y-43674802D01*
X43325198Y-43879419D01*
X43575802Y-44024104D01*
X43855314Y-44099000D01*
X44144686Y-44099000D01*
X44424198Y-44024104D01*
X44674802Y-43879419D01*
X44879419Y-43674802D01*
X45024104Y-43424198D01*
X45099000Y-43144686D01*
X45099000Y-42855314D01*
X45024104Y-42575802D01*
X44879419Y-42325198D01*
X44674802Y-42120581D01*
X44467959Y-42001160D01*
X46143657Y-42001160D01*
X46213832Y-42207887D01*
X46983432Y-43540873D01*
X47127375Y-43705009D01*
X47341097Y-43810405D01*
X47578884Y-43825991D01*
X47785611Y-43755816D01*
X50071225Y-42436216D01*
X50235361Y-42292273D01*
X50340757Y-42078551D01*
X50356343Y-41840765D01*
X50342166Y-41799000D01*
X51669045Y-41799000D01*
X52215037Y-42344993D01*
X52371717Y-42501674D01*
X52428449Y-42530581D01*
X52479952Y-42567999D01*
X52540500Y-42587673D01*
X52597231Y-42616579D01*
X52660113Y-42626538D01*
X52720662Y-42646212D01*
X55305105Y-42646212D01*
X55356245Y-42936238D01*
X55435370Y-43139707D01*
X55600155Y-43311845D01*
X55818271Y-43407818D01*
X56036532Y-43412580D01*
X58635636Y-42954288D01*
X58839105Y-42875163D01*
X59011243Y-42710378D01*
X59107216Y-42492262D01*
X59111978Y-42274001D01*
X58844699Y-40758186D01*
X58765574Y-40554717D01*
X58600789Y-40382579D01*
X58382673Y-40286606D01*
X58164412Y-40281844D01*
X55565308Y-40740136D01*
X55361839Y-40819261D01*
X55189701Y-40984046D01*
X55161467Y-41048212D01*
X53178168Y-41048212D01*
X52655011Y-40525056D01*
X52655010Y-40525054D01*
X52475495Y-40345538D01*
X52418761Y-40316630D01*
X52367261Y-40279213D01*
X52306715Y-40259540D01*
X52249981Y-40230633D01*
X52187091Y-40220673D01*
X52126548Y-40201001D01*
X52063697Y-40201001D01*
X52063691Y-40201000D01*
X49936309Y-40201000D01*
X49936303Y-40201001D01*
X49873451Y-40201001D01*
X49812908Y-40220673D01*
X49750018Y-40230634D01*
X49693287Y-40259539D01*
X49632740Y-40279212D01*
X49581236Y-40316632D01*
X49538218Y-40338551D01*
X49516568Y-40301051D01*
X49372625Y-40136915D01*
X49158903Y-40031519D01*
X48921116Y-40015933D01*
X48714389Y-40086108D01*
X46428775Y-41405708D01*
X46264639Y-41549651D01*
X46159243Y-41763373D01*
X46143657Y-42001160D01*
X44467959Y-42001160D01*
X44424198Y-41975895D01*
X44375698Y-41962900D01*
X43722053Y-41309255D01*
X43642765Y-41223030D01*
X43566488Y-41175736D01*
X43495016Y-41121485D01*
X43450673Y-41103929D01*
X43403796Y-41074863D01*
X43346501Y-41062684D01*
X43240531Y-41020728D01*
X42968327Y-40992119D01*
X42915819Y-41001000D01*
X42508993Y-41001000D01*
X42469600Y-40993164D01*
X41530400Y-40993164D01*
X41316282Y-41035755D01*
X41118145Y-41168145D01*
X41056836Y-41259901D01*
X41056836Y-40630400D01*
X41047332Y-40582623D01*
X43918809Y-37711147D01*
X43975896Y-37924198D01*
X44120581Y-38174802D01*
X44325198Y-38379419D01*
X44575802Y-38524104D01*
X44855314Y-38599000D01*
X45110466Y-38599000D01*
X45901000Y-39389535D01*
X45901000Y-39644686D01*
X45975896Y-39924198D01*
X46120581Y-40174802D01*
X46325198Y-40379419D01*
X46575802Y-40524104D01*
X46855314Y-40599000D01*
X47144686Y-40599000D01*
X47424198Y-40524104D01*
X47674802Y-40379419D01*
X47879419Y-40174802D01*
X48024104Y-39924198D01*
X48099000Y-39644686D01*
X48099000Y-39355314D01*
X48024104Y-39075802D01*
X47879419Y-38825198D01*
X47674802Y-38620581D01*
X47424198Y-38475896D01*
X47387263Y-38465999D01*
X54568022Y-38465999D01*
X54835301Y-39981814D01*
X54914426Y-40185283D01*
X55079211Y-40357421D01*
X55297327Y-40453394D01*
X55515588Y-40458156D01*
X58114692Y-39999864D01*
X58318161Y-39920739D01*
X58490299Y-39755954D01*
X58518533Y-39691788D01*
X58561833Y-39691788D01*
X61325623Y-42455580D01*
X61325626Y-42455582D01*
X61371718Y-42501675D01*
X61428447Y-42530579D01*
X61479950Y-42567999D01*
X61540500Y-42587673D01*
X61597230Y-42616578D01*
X61660115Y-42626539D01*
X61720662Y-42646211D01*
X61783515Y-42646211D01*
X61783521Y-42646212D01*
X62960523Y-42646212D01*
X62988757Y-42710378D01*
X63160895Y-42875163D01*
X63364364Y-42954288D01*
X65963468Y-43412580D01*
X66181729Y-43407818D01*
X66399845Y-43311845D01*
X66564630Y-43139707D01*
X66643755Y-42936238D01*
X66911034Y-41420423D01*
X66906272Y-41202162D01*
X66810299Y-40984046D01*
X66638161Y-40819261D01*
X66434692Y-40740136D01*
X63835588Y-40281844D01*
X63617327Y-40286606D01*
X63399211Y-40382579D01*
X63234426Y-40554717D01*
X63155301Y-40758186D01*
X63104161Y-41048212D01*
X62178169Y-41048212D01*
X60449533Y-39319577D01*
X63408966Y-39319577D01*
X63413728Y-39537838D01*
X63509701Y-39755954D01*
X63681839Y-39920739D01*
X63885308Y-39999864D01*
X66484412Y-40458156D01*
X66702673Y-40453394D01*
X66920789Y-40357421D01*
X67085574Y-40185283D01*
X67164699Y-39981814D01*
X67431978Y-38465999D01*
X67427216Y-38247738D01*
X67331243Y-38029622D01*
X67159105Y-37864837D01*
X66955636Y-37785712D01*
X64356532Y-37327420D01*
X64138271Y-37332182D01*
X63920155Y-37428155D01*
X63755370Y-37600293D01*
X63676245Y-37803762D01*
X63408966Y-39319577D01*
X60449533Y-39319577D01*
X59547799Y-38417844D01*
X59547798Y-38417842D01*
X59368283Y-38238326D01*
X59311549Y-38209418D01*
X59260049Y-38172001D01*
X59199503Y-38152328D01*
X59142769Y-38123421D01*
X59079879Y-38113461D01*
X59019336Y-38093789D01*
X58956485Y-38093789D01*
X58956479Y-38093788D01*
X58374895Y-38093788D01*
X58323755Y-37803762D01*
X58244630Y-37600293D01*
X58079845Y-37428155D01*
X57861729Y-37332182D01*
X57643468Y-37327420D01*
X55044364Y-37785712D01*
X54840895Y-37864837D01*
X54668757Y-38029622D01*
X54572784Y-38247738D01*
X54568022Y-38465999D01*
X47387263Y-38465999D01*
X47144686Y-38401000D01*
X46889535Y-38401000D01*
X46099000Y-37610466D01*
X46099000Y-37355314D01*
X46024104Y-37075802D01*
X45879419Y-36825198D01*
X45674802Y-36620581D01*
X45424198Y-36475896D01*
X45211147Y-36418808D01*
X45574955Y-36055000D01*
X50785163Y-36055000D01*
X50785163Y-36651199D01*
X50872471Y-36977038D01*
X51038538Y-37174949D01*
X51254461Y-37299612D01*
X51482590Y-37339837D01*
X51945000Y-37339837D01*
X51945000Y-36055000D01*
X50785163Y-36055000D01*
X45574955Y-36055000D01*
X46272365Y-35357590D01*
X50785163Y-35357590D01*
X50785163Y-35945000D01*
X51945000Y-35945000D01*
X51945000Y-34660163D01*
X51473801Y-34660163D01*
X51147963Y-34747471D01*
X50950052Y-34913538D01*
X50825388Y-35129461D01*
X50785163Y-35357590D01*
X46272365Y-35357590D01*
X47205034Y-34424922D01*
X47434250Y-34360924D01*
X47667122Y-34248350D01*
X47876378Y-34096316D01*
X48055404Y-33909630D01*
X48189240Y-33708191D01*
X48334184Y-33921470D01*
X48515155Y-34106271D01*
X48725992Y-34256105D01*
X48960029Y-34366235D01*
X49209870Y-34433179D01*
X49467617Y-34454823D01*
X49725124Y-34430481D01*
X49974250Y-34360924D01*
X50207122Y-34248350D01*
X50416378Y-34096316D01*
X50477160Y-34032934D01*
X50522471Y-34202038D01*
X50688538Y-34399949D01*
X50904461Y-34524612D01*
X51132590Y-34564837D01*
X51945000Y-34564837D01*
X51945000Y-31435163D01*
X52055000Y-31435163D01*
X52055000Y-32945000D01*
X53564837Y-32945000D01*
X53564837Y-32123801D01*
X53477529Y-31797963D01*
X53311462Y-31600052D01*
X53095539Y-31475388D01*
X52867410Y-31435163D01*
X52055000Y-31435163D01*
X51945000Y-31435163D01*
X51123801Y-31435163D01*
X50797963Y-31522471D01*
X50600052Y-31688538D01*
X50475388Y-31904461D01*
X50467185Y-31950981D01*
X50271431Y-31792462D01*
X50044770Y-31667855D01*
X49799626Y-31585354D01*
X49543747Y-31547569D01*
X49285220Y-31555694D01*
X49032217Y-31609471D01*
X48792737Y-31707201D01*
X48574348Y-31845795D01*
X48383953Y-32020872D01*
X48227571Y-32226898D01*
X48189965Y-32300704D01*
X48101454Y-32151039D01*
X47932444Y-31955239D01*
X47731431Y-31792462D01*
X47504770Y-31667855D01*
X47259626Y-31585354D01*
X47003747Y-31547569D01*
X46745220Y-31555694D01*
X46492217Y-31609471D01*
X46252737Y-31707201D01*
X46034348Y-31845795D01*
X45843953Y-32020872D01*
X45687571Y-32226898D01*
X45649965Y-32300704D01*
X45561454Y-32151039D01*
X45392444Y-31955239D01*
X45191431Y-31792462D01*
X44964770Y-31667855D01*
X44719626Y-31585354D01*
X44463747Y-31547569D01*
X44205220Y-31555694D01*
X43952217Y-31609471D01*
X43712737Y-31707201D01*
X43494348Y-31845795D01*
X43303953Y-32020872D01*
X43147571Y-32226898D01*
X43030144Y-32457361D01*
X42955384Y-32704976D01*
X42925655Y-32961917D01*
X42941897Y-33220061D01*
X43003595Y-33471249D01*
X43108798Y-33707541D01*
X43254184Y-33921470D01*
X43435155Y-34106271D01*
X43645992Y-34256105D01*
X43880029Y-34366235D01*
X44129870Y-34433179D01*
X44387617Y-34454823D01*
X44645124Y-34430481D01*
X44894250Y-34360924D01*
X45116615Y-34253429D01*
X39502220Y-39867825D01*
X39345539Y-40024505D01*
X39316634Y-40081235D01*
X39310582Y-40089563D01*
X39118145Y-40218145D01*
X39096192Y-40251000D01*
X37433993Y-40251000D01*
X37394600Y-40243164D01*
X36605400Y-40243164D01*
X36391282Y-40285755D01*
X36193145Y-40418145D01*
X36060755Y-40616282D01*
X36018164Y-40830400D01*
X36018164Y-41669600D01*
X36060755Y-41883718D01*
X36069918Y-41897431D01*
X35950388Y-42104461D01*
X35910163Y-42332590D01*
X33599000Y-42332590D01*
X33599000Y-28961917D01*
X40465655Y-28961917D01*
X40481897Y-29220061D01*
X40543595Y-29471249D01*
X40648798Y-29707541D01*
X40794184Y-29921470D01*
X40975155Y-30106271D01*
X41185992Y-30256105D01*
X41420029Y-30366235D01*
X41669870Y-30433179D01*
X41927617Y-30454823D01*
X42185124Y-30430481D01*
X42434250Y-30360924D01*
X42667122Y-30248350D01*
X42876378Y-30096316D01*
X43055404Y-29909630D01*
X43189240Y-29708191D01*
X43334184Y-29921470D01*
X43515155Y-30106271D01*
X43725992Y-30256105D01*
X43960029Y-30366235D01*
X44209870Y-30433179D01*
X44467617Y-30454823D01*
X44725124Y-30430481D01*
X44974250Y-30360924D01*
X45207122Y-30248350D01*
X45416378Y-30096316D01*
X45477160Y-30032934D01*
X45522471Y-30202038D01*
X45688538Y-30399949D01*
X45904461Y-30524612D01*
X46132590Y-30564837D01*
X46945000Y-30564837D01*
X46945000Y-29055000D01*
X47055000Y-29055000D01*
X47055000Y-30564837D01*
X47876199Y-30564837D01*
X48202038Y-30477529D01*
X48399949Y-30311462D01*
X48524612Y-30095539D01*
X48564837Y-29867410D01*
X48564837Y-29055000D01*
X47055000Y-29055000D01*
X46945000Y-29055000D01*
X46945000Y-27435163D01*
X47055000Y-27435163D01*
X47055000Y-28945000D01*
X48564837Y-28945000D01*
X48564837Y-28123801D01*
X48477529Y-27797963D01*
X48311462Y-27600052D01*
X48095539Y-27475388D01*
X47867410Y-27435163D01*
X47055000Y-27435163D01*
X46945000Y-27435163D01*
X46123801Y-27435163D01*
X45797963Y-27522471D01*
X45600052Y-27688538D01*
X45475388Y-27904461D01*
X45467185Y-27950981D01*
X45271431Y-27792462D01*
X45044770Y-27667855D01*
X44799626Y-27585354D01*
X44724941Y-27574326D01*
X44472156Y-27321541D01*
X44564245Y-27183718D01*
X44606836Y-26969600D01*
X44606836Y-26030400D01*
X44596891Y-25980400D01*
X53593164Y-25980400D01*
X53593164Y-27019600D01*
X53635755Y-27233718D01*
X53768145Y-27431855D01*
X53966282Y-27564245D01*
X54180400Y-27606836D01*
X55819600Y-27606836D01*
X56033718Y-27564245D01*
X56231855Y-27431855D01*
X56364245Y-27233718D01*
X56406836Y-27019600D01*
X56406836Y-25980400D01*
X66593164Y-25980400D01*
X66593164Y-27019600D01*
X66635755Y-27233718D01*
X66768145Y-27431855D01*
X66966282Y-27564245D01*
X67180400Y-27606836D01*
X68819600Y-27606836D01*
X69033718Y-27564245D01*
X69231855Y-27431855D01*
X69364245Y-27233718D01*
X69406836Y-27019600D01*
X69406836Y-25980400D01*
X69364245Y-25766282D01*
X69231855Y-25568145D01*
X69033718Y-25435755D01*
X68819600Y-25393164D01*
X67180400Y-25393164D01*
X66966282Y-25435755D01*
X66768145Y-25568145D01*
X66635755Y-25766282D01*
X66593164Y-25980400D01*
X56406836Y-25980400D01*
X56364245Y-25766282D01*
X56231855Y-25568145D01*
X56033718Y-25435755D01*
X55819600Y-25393164D01*
X54180400Y-25393164D01*
X53966282Y-25435755D01*
X53768145Y-25568145D01*
X53635755Y-25766282D01*
X53593164Y-25980400D01*
X44596891Y-25980400D01*
X44564245Y-25816282D01*
X44431855Y-25618145D01*
X44233718Y-25485755D01*
X44019600Y-25443164D01*
X43480400Y-25443164D01*
X43266282Y-25485755D01*
X43068145Y-25618145D01*
X43000000Y-25720132D01*
X42931855Y-25618145D01*
X42733718Y-25485755D01*
X42519600Y-25443164D01*
X41980400Y-25443164D01*
X41766282Y-25485755D01*
X41568145Y-25618145D01*
X41435755Y-25816282D01*
X41393164Y-26030400D01*
X41393164Y-26969600D01*
X41435755Y-27183718D01*
X41551000Y-27356196D01*
X41551000Y-27460464D01*
X41447310Y-27564155D01*
X41376276Y-27623759D01*
X41351330Y-27666966D01*
X41252737Y-27707201D01*
X41034348Y-27845795D01*
X40843953Y-28020872D01*
X40687571Y-28226898D01*
X40570144Y-28457361D01*
X40495384Y-28704976D01*
X40465655Y-28961917D01*
X33599000Y-28961917D01*
X33599000Y-28248113D01*
X36748113Y-25099000D01*
X87251887Y-25099000D01*
X89901001Y-27748115D01*
G36*
X46401000Y-46855314D02*
G01*
X46401000Y-47144686D01*
X46475896Y-47424198D01*
X46620581Y-47674802D01*
X46825198Y-47879419D01*
X47075802Y-48024104D01*
X47355314Y-48099000D01*
X47644686Y-48099000D01*
X47924198Y-48024104D01*
X48174802Y-47879419D01*
X48355221Y-47699000D01*
X48596694Y-47699000D01*
X47283381Y-48801000D01*
X45736281Y-48801000D01*
X45720952Y-48748408D01*
X45584305Y-48578149D01*
X44405211Y-47588772D01*
X44213810Y-47483765D01*
X43976929Y-47457822D01*
X43748152Y-47524505D01*
X43577893Y-47661152D01*
X42621446Y-48801000D01*
X42247671Y-48801000D01*
X43358551Y-47477105D01*
X43463558Y-47285704D01*
X43489501Y-47048823D01*
X43422818Y-46820046D01*
X43405927Y-46799000D01*
X46416089Y-46799000D01*
X46401000Y-46855314D01*
G37*
X46401000Y-46855314D02*
X46401000Y-47144686D01*
X46475896Y-47424198D01*
X46620581Y-47674802D01*
X46825198Y-47879419D01*
X47075802Y-48024104D01*
X47355314Y-48099000D01*
X47644686Y-48099000D01*
X47924198Y-48024104D01*
X48174802Y-47879419D01*
X48355221Y-47699000D01*
X48596694Y-47699000D01*
X47283381Y-48801000D01*
X45736281Y-48801000D01*
X45720952Y-48748408D01*
X45584305Y-48578149D01*
X44405211Y-47588772D01*
X44213810Y-47483765D01*
X43976929Y-47457822D01*
X43748152Y-47524505D01*
X43577893Y-47661152D01*
X42621446Y-48801000D01*
X42247671Y-48801000D01*
X43358551Y-47477105D01*
X43463558Y-47285704D01*
X43489501Y-47048823D01*
X43422818Y-46820046D01*
X43405927Y-46799000D01*
X46416089Y-46799000D01*
X46401000Y-46855314D01*
G36*
X77593164Y-37776881D02*
G01*
X77345539Y-38024505D01*
X77316634Y-38081235D01*
X77279212Y-38132740D01*
X77259540Y-38193286D01*
X77230634Y-38250018D01*
X77220673Y-38312908D01*
X77201001Y-38373452D01*
X77201001Y-38436303D01*
X77201000Y-38436309D01*
X77201000Y-39063690D01*
X77201001Y-39063696D01*
X77201001Y-39126548D01*
X77220673Y-39187095D01*
X77230634Y-39249981D01*
X77259539Y-39306711D01*
X77279213Y-39367260D01*
X77316634Y-39418767D01*
X77345538Y-39475493D01*
X77525053Y-39655010D01*
X77525057Y-39655012D01*
X78417825Y-40547781D01*
X78574505Y-40704462D01*
X78631232Y-40733366D01*
X78655163Y-40750752D01*
X78655163Y-40945000D01*
X79165215Y-40945000D01*
X79350400Y-40981836D01*
X80449600Y-40981836D01*
X80634785Y-40945000D01*
X81144837Y-40945000D01*
X81144837Y-40811326D01*
X81336282Y-40939245D01*
X81550400Y-40981836D01*
X81727721Y-40981836D01*
X81790767Y-40995237D01*
X81737786Y-41018164D01*
X81550400Y-41018164D01*
X81336282Y-41060755D01*
X81144837Y-41188674D01*
X81144837Y-41055000D01*
X80634785Y-41055000D01*
X80449600Y-41018164D01*
X79350400Y-41018164D01*
X79165215Y-41055000D01*
X78655163Y-41055000D01*
X78655163Y-41151000D01*
X78280956Y-41151000D01*
X75655011Y-38525056D01*
X75655010Y-38525054D01*
X75475495Y-38345538D01*
X75418761Y-38316630D01*
X75367261Y-38279213D01*
X75306715Y-38259540D01*
X75249981Y-38230633D01*
X75187091Y-38220673D01*
X75126548Y-38201001D01*
X75063697Y-38201001D01*
X75063691Y-38201000D01*
X74674622Y-38201000D01*
X74733718Y-38189245D01*
X74931855Y-38056855D01*
X74970512Y-37999000D01*
X76477906Y-37999000D01*
X76594896Y-38003904D01*
X76682256Y-37983414D01*
X76771173Y-37971233D01*
X76814945Y-37952292D01*
X76868646Y-37939696D01*
X76917761Y-37907799D01*
X77022368Y-37862532D01*
X77235076Y-37690283D01*
X77265931Y-37646866D01*
X77593164Y-37319633D01*
X77593164Y-37776881D01*
G37*
X77593164Y-37776881D02*
X77345539Y-38024505D01*
X77316634Y-38081235D01*
X77279212Y-38132740D01*
X77259540Y-38193286D01*
X77230634Y-38250018D01*
X77220673Y-38312908D01*
X77201001Y-38373452D01*
X77201001Y-38436303D01*
X77201000Y-38436309D01*
X77201000Y-39063690D01*
X77201001Y-39063696D01*
X77201001Y-39126548D01*
X77220673Y-39187095D01*
X77230634Y-39249981D01*
X77259539Y-39306711D01*
X77279213Y-39367260D01*
X77316634Y-39418767D01*
X77345538Y-39475493D01*
X77525053Y-39655010D01*
X77525057Y-39655012D01*
X78417825Y-40547781D01*
X78574505Y-40704462D01*
X78631232Y-40733366D01*
X78655163Y-40750752D01*
X78655163Y-40945000D01*
X79165215Y-40945000D01*
X79350400Y-40981836D01*
X80449600Y-40981836D01*
X80634785Y-40945000D01*
X81144837Y-40945000D01*
X81144837Y-40811326D01*
X81336282Y-40939245D01*
X81550400Y-40981836D01*
X81727721Y-40981836D01*
X81790767Y-40995237D01*
X81737786Y-41018164D01*
X81550400Y-41018164D01*
X81336282Y-41060755D01*
X81144837Y-41188674D01*
X81144837Y-41055000D01*
X80634785Y-41055000D01*
X80449600Y-41018164D01*
X79350400Y-41018164D01*
X79165215Y-41055000D01*
X78655163Y-41055000D01*
X78655163Y-41151000D01*
X78280956Y-41151000D01*
X75655011Y-38525056D01*
X75655010Y-38525054D01*
X75475495Y-38345538D01*
X75418761Y-38316630D01*
X75367261Y-38279213D01*
X75306715Y-38259540D01*
X75249981Y-38230633D01*
X75187091Y-38220673D01*
X75126548Y-38201001D01*
X75063697Y-38201001D01*
X75063691Y-38201000D01*
X74674622Y-38201000D01*
X74733718Y-38189245D01*
X74931855Y-38056855D01*
X74970512Y-37999000D01*
X76477906Y-37999000D01*
X76594896Y-38003904D01*
X76682256Y-37983414D01*
X76771173Y-37971233D01*
X76814945Y-37952292D01*
X76868646Y-37939696D01*
X76917761Y-37907799D01*
X77022368Y-37862532D01*
X77235076Y-37690283D01*
X77265931Y-37646866D01*
X77593164Y-37319633D01*
X77593164Y-37776881D01*
G36*
X70005755Y-34508718D02*
G01*
X70138145Y-34706855D01*
X70336282Y-34839245D01*
X70550400Y-34881836D01*
X70727721Y-34881836D01*
X71043701Y-34949000D01*
X71901000Y-34949000D01*
X71901000Y-35144686D01*
X71975896Y-35424198D01*
X72112129Y-35660163D01*
X72055000Y-35660163D01*
X72055000Y-37055000D01*
X70785163Y-37055000D01*
X70785163Y-37651199D01*
X70872471Y-37977038D01*
X70938183Y-38055350D01*
X70825198Y-38120581D01*
X70620581Y-38325198D01*
X70499000Y-38535784D01*
X70499000Y-36522093D01*
X70503904Y-36405101D01*
X70492761Y-36357590D01*
X70785163Y-36357590D01*
X70785163Y-36945000D01*
X71945000Y-36945000D01*
X71945000Y-35660163D01*
X71473801Y-35660163D01*
X71147963Y-35747471D01*
X70950052Y-35913538D01*
X70825388Y-36129461D01*
X70785163Y-36357590D01*
X70492761Y-36357590D01*
X70483412Y-36317735D01*
X70471233Y-36228828D01*
X70452293Y-36185057D01*
X70439696Y-36131353D01*
X70407795Y-36082229D01*
X70362532Y-35977632D01*
X70190283Y-35764923D01*
X70146872Y-35734073D01*
X69294634Y-34881836D01*
X69449600Y-34881836D01*
X69663718Y-34839245D01*
X69861855Y-34706855D01*
X69994245Y-34508718D01*
X70000000Y-34479786D01*
X70005755Y-34508718D01*
G37*
X70005755Y-34508718D02*
X70138145Y-34706855D01*
X70336282Y-34839245D01*
X70550400Y-34881836D01*
X70727721Y-34881836D01*
X71043701Y-34949000D01*
X71901000Y-34949000D01*
X71901000Y-35144686D01*
X71975896Y-35424198D01*
X72112129Y-35660163D01*
X72055000Y-35660163D01*
X72055000Y-37055000D01*
X70785163Y-37055000D01*
X70785163Y-37651199D01*
X70872471Y-37977038D01*
X70938183Y-38055350D01*
X70825198Y-38120581D01*
X70620581Y-38325198D01*
X70499000Y-38535784D01*
X70499000Y-36522093D01*
X70503904Y-36405101D01*
X70492761Y-36357590D01*
X70785163Y-36357590D01*
X70785163Y-36945000D01*
X71945000Y-36945000D01*
X71945000Y-35660163D01*
X71473801Y-35660163D01*
X71147963Y-35747471D01*
X70950052Y-35913538D01*
X70825388Y-36129461D01*
X70785163Y-36357590D01*
X70492761Y-36357590D01*
X70483412Y-36317735D01*
X70471233Y-36228828D01*
X70452293Y-36185057D01*
X70439696Y-36131353D01*
X70407795Y-36082229D01*
X70362532Y-35977632D01*
X70190283Y-35764923D01*
X70146872Y-35734073D01*
X69294634Y-34881836D01*
X69449600Y-34881836D01*
X69663718Y-34839245D01*
X69861855Y-34706855D01*
X69994245Y-34508718D01*
X70000000Y-34479786D01*
X70005755Y-34508718D01*
G36*
X57336282Y-32939245D02*
G01*
X57550400Y-32981836D01*
X57727721Y-32981836D01*
X57790767Y-32995237D01*
X57737786Y-33018164D01*
X57550400Y-33018164D01*
X57336282Y-33060755D01*
X57144837Y-33188674D01*
X57144837Y-33055000D01*
X56634785Y-33055000D01*
X56449600Y-33018164D01*
X55350400Y-33018164D01*
X55165215Y-33055000D01*
X55061211Y-33055000D01*
X54924198Y-32975896D01*
X54808894Y-32945000D01*
X55165215Y-32945000D01*
X55350400Y-32981836D01*
X56449600Y-32981836D01*
X56634785Y-32945000D01*
X57144837Y-32945000D01*
X57144837Y-32811326D01*
X57336282Y-32939245D01*
G37*
X57336282Y-32939245D02*
X57550400Y-32981836D01*
X57727721Y-32981836D01*
X57790767Y-32995237D01*
X57737786Y-33018164D01*
X57550400Y-33018164D01*
X57336282Y-33060755D01*
X57144837Y-33188674D01*
X57144837Y-33055000D01*
X56634785Y-33055000D01*
X56449600Y-33018164D01*
X55350400Y-33018164D01*
X55165215Y-33055000D01*
X55061211Y-33055000D01*
X54924198Y-32975896D01*
X54808894Y-32945000D01*
X55165215Y-32945000D01*
X55350400Y-32981836D01*
X56449600Y-32981836D01*
X56634785Y-32945000D01*
X57144837Y-32945000D01*
X57144837Y-32811326D01*
X57336282Y-32939245D01*
G36*
X70336282Y-32939245D02*
G01*
X70550400Y-32981836D01*
X70727721Y-32981836D01*
X70790767Y-32995237D01*
X70737786Y-33018164D01*
X70550400Y-33018164D01*
X70336282Y-33060755D01*
X70144837Y-33188674D01*
X70144837Y-33055000D01*
X69634785Y-33055000D01*
X69449600Y-33018164D01*
X68845000Y-33018164D01*
X68845000Y-32981836D01*
X69449600Y-32981836D01*
X69634785Y-32945000D01*
X70144837Y-32945000D01*
X70144837Y-32811326D01*
X70336282Y-32939245D01*
G37*
X70336282Y-32939245D02*
X70550400Y-32981836D01*
X70727721Y-32981836D01*
X70790767Y-32995237D01*
X70737786Y-33018164D01*
X70550400Y-33018164D01*
X70336282Y-33060755D01*
X70144837Y-33188674D01*
X70144837Y-33055000D01*
X69634785Y-33055000D01*
X69449600Y-33018164D01*
X68845000Y-33018164D01*
X68845000Y-32981836D01*
X69449600Y-32981836D01*
X69634785Y-32945000D01*
X70144837Y-32945000D01*
X70144837Y-32811326D01*
X70336282Y-32939245D01*
M02*
