G04 #@! TF.GenerationSoftware,KiCad,Pcbnew,(5.99.0-492-g30da2b31e)*
G04 #@! TF.CreationDate,2019-12-10T20:32:49+01:00*
G04 #@! TF.ProjectId,gabel,67616265-6c2e-46b6-9963-61645f706362,rev?*
G04 #@! TF.SameCoordinates,Original*
G04 #@! TF.FileFunction,Copper,L2,Bot*
G04 #@! TF.FilePolarity,Positive*
%FSLAX46Y46*%
G04 Gerber Fmt 4.6, Leading zero omitted, Abs format (unit mm)*
G04 Created by KiCad (PCBNEW (5.99.0-492-g30da2b31e)) date 2019-12-10 20:32:49*
%MOMM*%
%LPD*%
G04 APERTURE LIST*
%ADD10R,1.800000X1.800000*%
%ADD11C,1.800000*%
%ADD12R,1.700000X1.700000*%
%ADD13O,1.700000X1.700000*%
%ADD14C,5.600000*%
%ADD15C,0.700000*%
%ADD16C,0.400000*%
%ADD17C,0.300000*%
G04 APERTURE END LIST*
D10*
X43000000Y-85000000D03*
D11*
X43000000Y-82460000D03*
D10*
X43000000Y-125000000D03*
D11*
X43000000Y-122460000D03*
D12*
X69000000Y-116000000D03*
D13*
X69000000Y-118540000D03*
X69000000Y-121080000D03*
D12*
X69000000Y-107000000D03*
D13*
X69000000Y-109540000D03*
X69000000Y-112080000D03*
D12*
X53500000Y-86500000D03*
D13*
X50960000Y-86500000D03*
X48420000Y-86500000D03*
D12*
X68000000Y-85040000D03*
D13*
X68000000Y-82500000D03*
D12*
X66500000Y-98000000D03*
D13*
X69040000Y-98000000D03*
X66500000Y-100540000D03*
X69040000Y-100540000D03*
X66500000Y-103080000D03*
X69040000Y-103080000D03*
D12*
X48700000Y-131699998D03*
D13*
X48700000Y-134239998D03*
D12*
X48700000Y-91700000D03*
D13*
X48700000Y-94240000D03*
D12*
X56300000Y-134299998D03*
D13*
X56300000Y-131759998D03*
D12*
X56300000Y-94300000D03*
D13*
X56300000Y-91760000D03*
D14*
X62000000Y-132999998D03*
X62000000Y-93000000D03*
X43000000Y-93000000D03*
X43000000Y-132999998D03*
D15*
X57500000Y-117500000D03*
X53000000Y-115500000D03*
X52000000Y-115500000D03*
X45000000Y-104000000D03*
X57500000Y-118500000D03*
X61500000Y-128000000D03*
X62500000Y-82000000D03*
X62500000Y-83000000D03*
X62500000Y-84000000D03*
X61500000Y-84000000D03*
X61500000Y-83000000D03*
X61500000Y-82000000D03*
X49500000Y-112500000D03*
X46500000Y-89000000D03*
X63000000Y-118500000D03*
X62500000Y-113000000D03*
X58000000Y-111000000D03*
X63000000Y-111000000D03*
X61500000Y-107000000D03*
X50000000Y-101500000D03*
X45000000Y-110000000D03*
X53500000Y-117000000D03*
X55500000Y-118500000D03*
X54500000Y-118500000D03*
X51500000Y-126000000D03*
X50500000Y-126000000D03*
X49500000Y-126000000D03*
X49500000Y-127000000D03*
X50500000Y-127000000D03*
X51500000Y-127000000D03*
X41000000Y-112000000D03*
X41000000Y-110500000D03*
X41000000Y-109000000D03*
X41000000Y-107500000D03*
X41000000Y-106000000D03*
X52000000Y-138500000D03*
D16*
X57500000Y-118500000D02*
X57500000Y-117500000D01*
X52000000Y-115500000D02*
X53000000Y-115500000D01*
X52000000Y-115000000D02*
X52000000Y-113000000D01*
X52000000Y-115000000D02*
X52000000Y-115500000D01*
D17*
X53500000Y-95950000D02*
X53500000Y-112500000D01*
X56300000Y-94300000D02*
X55150000Y-94300000D01*
X55150000Y-94300000D02*
X53500000Y-95950000D01*
X69040000Y-90540000D02*
X68000000Y-89500000D01*
X68000000Y-89500000D02*
X68000000Y-85040000D01*
X69040000Y-98000000D02*
X69040000Y-90540000D01*
D16*
X52000000Y-112500000D02*
X52000000Y-113000000D01*
X50500000Y-114000000D02*
X47000000Y-114000000D01*
X52000000Y-93000000D02*
X53240000Y-91760000D01*
X50760000Y-94240000D02*
X52000000Y-93000000D01*
X52000000Y-93000000D02*
X52000000Y-112500000D01*
X52000000Y-112500000D02*
X50500000Y-114000000D01*
X43500000Y-110500000D02*
X43500000Y-105500000D01*
X43500000Y-105500000D02*
X45000000Y-104000000D01*
X47000000Y-114000000D02*
X43500000Y-110500000D01*
X60059998Y-128000000D02*
X60059998Y-121059998D01*
X60059998Y-121059998D02*
X57500000Y-118500000D01*
X56300000Y-131759998D02*
X60059998Y-128000000D01*
X60059998Y-128000000D02*
X61500000Y-128000000D01*
D17*
X62500000Y-83000000D02*
X62500000Y-82000000D01*
X61500000Y-84000000D02*
X62500000Y-84000000D01*
X61500000Y-82000000D02*
X61500000Y-83000000D01*
X51000000Y-111000000D02*
X49500000Y-112500000D01*
X51000000Y-100500000D02*
X51000000Y-111000000D01*
X46500000Y-96000000D02*
X51000000Y-100500000D01*
X46500000Y-89000000D02*
X46500000Y-96000000D01*
X63000000Y-118500000D02*
X63000000Y-113500000D01*
X63000000Y-113500000D02*
X62500000Y-113000000D01*
X58000000Y-111000000D02*
X63000000Y-111000000D01*
X65350000Y-98000000D02*
X64500000Y-98850000D01*
X66500000Y-98000000D02*
X65350000Y-98000000D01*
X64500000Y-98850000D02*
X64500000Y-104000000D01*
X64500000Y-104000000D02*
X61500000Y-107000000D01*
X50000000Y-101500000D02*
X50000000Y-109000000D01*
X45000000Y-110000000D02*
X49500000Y-110000000D01*
X49500000Y-110000000D02*
X50000000Y-109500000D01*
X50000000Y-109500000D02*
X50000000Y-109000000D01*
D16*
X48700000Y-94240000D02*
X50760000Y-94240000D01*
X53240000Y-91760000D02*
X56300000Y-91760000D01*
X53500000Y-91500000D02*
X53240000Y-91760000D01*
X53500000Y-86500000D02*
X53500000Y-91500000D01*
D17*
X53500000Y-112500000D02*
X53500000Y-114000000D01*
X53500000Y-114000000D02*
X54000000Y-114500000D01*
X54000000Y-114500000D02*
X54000000Y-116500000D01*
X54000000Y-116500000D02*
X53500000Y-117000000D01*
X55500000Y-118500000D02*
X54500000Y-118500000D01*
X51500000Y-126000000D02*
X50500000Y-126000000D01*
X49500000Y-126000000D02*
X49500000Y-127000000D01*
X50500000Y-127000000D02*
X51500000Y-127000000D01*
X41000000Y-112000000D02*
X41000000Y-110500000D01*
X41000000Y-109000000D02*
X41000000Y-107500000D01*
G36*
X70401001Y-97502423D02*
G01*
X70353119Y-97373674D01*
X70221454Y-97151039D01*
X70052444Y-96955239D01*
X69851431Y-96792462D01*
X69789000Y-96758141D01*
X69789000Y-90619891D01*
X69798499Y-90575769D01*
X69789000Y-90495510D01*
X69789000Y-90477860D01*
X69781769Y-90434420D01*
X69768145Y-90319308D01*
X69760441Y-90306280D01*
X69758402Y-90294034D01*
X69639998Y-90074593D01*
X69558539Y-89999293D01*
X68749000Y-89189755D01*
X68749000Y-86496836D01*
X68869600Y-86496836D01*
X69083718Y-86454245D01*
X69281855Y-86321855D01*
X69414245Y-86123718D01*
X69456836Y-85909600D01*
X69456836Y-84170400D01*
X69414245Y-83956282D01*
X69281855Y-83758145D01*
X69083718Y-83625755D01*
X69080499Y-83625115D01*
X69108792Y-83601078D01*
X69278461Y-83398518D01*
X69411574Y-83170265D01*
X69504325Y-82922847D01*
X69574829Y-82555000D01*
X66409316Y-82555000D01*
X66520743Y-83003580D01*
X66626739Y-83245620D01*
X66772002Y-83466340D01*
X66920192Y-83624977D01*
X66916282Y-83625755D01*
X66718145Y-83758145D01*
X66585755Y-83956282D01*
X66543164Y-84170400D01*
X66543164Y-85909600D01*
X66585755Y-86123718D01*
X66718145Y-86321855D01*
X66916282Y-86454245D01*
X67130400Y-86496836D01*
X67251001Y-86496836D01*
X67251000Y-89420109D01*
X67241501Y-89464231D01*
X67251000Y-89544490D01*
X67251000Y-89562137D01*
X67258229Y-89605572D01*
X67271855Y-89720692D01*
X67279560Y-89733720D01*
X67281598Y-89745965D01*
X67400002Y-89965406D01*
X67481474Y-90040718D01*
X68291001Y-90850247D01*
X68291000Y-96759073D01*
X68154348Y-96845795D01*
X67963953Y-97020872D01*
X67941051Y-97051044D01*
X67914245Y-96916282D01*
X67781855Y-96718145D01*
X67583718Y-96585755D01*
X67369600Y-96543164D01*
X65630400Y-96543164D01*
X65416282Y-96585755D01*
X65218145Y-96718145D01*
X65085755Y-96916282D01*
X65043164Y-97130400D01*
X65043164Y-97314441D01*
X64884593Y-97400002D01*
X64809293Y-97481462D01*
X64026874Y-98263881D01*
X63988952Y-98288367D01*
X63938917Y-98351837D01*
X63926437Y-98364317D01*
X63900836Y-98400144D01*
X63829073Y-98491175D01*
X63825308Y-98505835D01*
X63818089Y-98515938D01*
X63746646Y-98754830D01*
X63751000Y-98865661D01*
X63751001Y-103689754D01*
X61382584Y-106058171D01*
X61237344Y-106077938D01*
X60989109Y-106188718D01*
X60781944Y-106364719D01*
X60632504Y-106591788D01*
X60552801Y-106851672D01*
X60549243Y-107123482D01*
X60622115Y-107385365D01*
X60765561Y-107616268D01*
X60968048Y-107797630D01*
X61213297Y-107914870D01*
X61481594Y-107958565D01*
X61751372Y-107925203D01*
X62000941Y-107817463D01*
X62210241Y-107644007D01*
X62362445Y-107418780D01*
X62445695Y-107158706D01*
X62446294Y-107112950D01*
X64973129Y-104586117D01*
X65011047Y-104561633D01*
X65061084Y-104498162D01*
X65073562Y-104485684D01*
X65099161Y-104449861D01*
X65170927Y-104358826D01*
X65174692Y-104344165D01*
X65181910Y-104334064D01*
X65253355Y-104095170D01*
X65249000Y-103984323D01*
X65249000Y-103817267D01*
X65374184Y-104001470D01*
X65555155Y-104186271D01*
X65765992Y-104336105D01*
X66000029Y-104446235D01*
X66249870Y-104513179D01*
X66507617Y-104534823D01*
X66765124Y-104510481D01*
X67014250Y-104440924D01*
X67247122Y-104328350D01*
X67456378Y-104176316D01*
X67635404Y-103989630D01*
X67705372Y-103884320D01*
X67812002Y-104046340D01*
X67992376Y-104239430D01*
X68202704Y-104399367D01*
X68436974Y-104521580D01*
X68688486Y-104602574D01*
X68985000Y-104645038D01*
X68985000Y-103025000D01*
X69095000Y-103025000D01*
X69095000Y-104656593D01*
X69473339Y-104581337D01*
X69720103Y-104486860D01*
X69947420Y-104352156D01*
X70148792Y-104181078D01*
X70318461Y-103978518D01*
X70401001Y-103836985D01*
X70401001Y-105896460D01*
X70281855Y-105718145D01*
X70083718Y-105585755D01*
X69869600Y-105543164D01*
X68130400Y-105543164D01*
X67916282Y-105585755D01*
X67718145Y-105718145D01*
X67585755Y-105916282D01*
X67543164Y-106130400D01*
X67543164Y-107869600D01*
X67585755Y-108083718D01*
X67718145Y-108281855D01*
X67916282Y-108414245D01*
X68053686Y-108441577D01*
X67923953Y-108560872D01*
X67767571Y-108766898D01*
X67650144Y-108997361D01*
X67575384Y-109244976D01*
X67545655Y-109501917D01*
X67561897Y-109760061D01*
X67623595Y-110011249D01*
X67728798Y-110247541D01*
X67874184Y-110461470D01*
X68055155Y-110646271D01*
X68191280Y-110743010D01*
X68190518Y-110743387D01*
X67976886Y-110898886D01*
X67792508Y-111088155D01*
X67642655Y-111305784D01*
X67531613Y-111545551D01*
X67401799Y-112025000D01*
X69055000Y-112025000D01*
X69055000Y-113656593D01*
X69433339Y-113581337D01*
X69680103Y-113486860D01*
X69907420Y-113352156D01*
X70108792Y-113181078D01*
X70278461Y-112978518D01*
X70401000Y-112768396D01*
X70401000Y-114896460D01*
X70281855Y-114718145D01*
X70083718Y-114585755D01*
X69869600Y-114543164D01*
X68130400Y-114543164D01*
X67916282Y-114585755D01*
X67718145Y-114718145D01*
X67585755Y-114916282D01*
X67543164Y-115130400D01*
X67543164Y-116869600D01*
X67585755Y-117083718D01*
X67718145Y-117281855D01*
X67916282Y-117414245D01*
X68053686Y-117441577D01*
X67923953Y-117560872D01*
X67767571Y-117766898D01*
X67650144Y-117997361D01*
X67575384Y-118244976D01*
X67545655Y-118501917D01*
X67561897Y-118760061D01*
X67623595Y-119011249D01*
X67728798Y-119247541D01*
X67874184Y-119461470D01*
X68055155Y-119646271D01*
X68191280Y-119743010D01*
X68190518Y-119743387D01*
X67976886Y-119898886D01*
X67792508Y-120088155D01*
X67642655Y-120305784D01*
X67531613Y-120545551D01*
X67401799Y-121025000D01*
X69055000Y-121025000D01*
X69055000Y-122656593D01*
X69433339Y-122581337D01*
X69680103Y-122486860D01*
X69907420Y-122352156D01*
X70108792Y-122181078D01*
X70278461Y-121978518D01*
X70401000Y-121768396D01*
X70401000Y-144401000D01*
X38599000Y-144401000D01*
X38599000Y-141584630D01*
X39297019Y-141584630D01*
X39330921Y-141894189D01*
X39408102Y-142195881D01*
X39527022Y-142483691D01*
X39685309Y-142751872D01*
X39879803Y-142995075D01*
X40106624Y-143208447D01*
X40361247Y-143387732D01*
X40638592Y-143529351D01*
X40933124Y-143630478D01*
X41238965Y-143689098D01*
X41550017Y-143704039D01*
X41860069Y-143675003D01*
X42162938Y-143602570D01*
X42452579Y-143488186D01*
X42723214Y-143334131D01*
X42969442Y-143143481D01*
X43186351Y-142920038D01*
X43369612Y-142668263D01*
X43515570Y-142393178D01*
X43621312Y-142100270D01*
X43685368Y-141792308D01*
X43692076Y-141584630D01*
X65297019Y-141584630D01*
X65330921Y-141894189D01*
X65408102Y-142195881D01*
X65527022Y-142483691D01*
X65685309Y-142751872D01*
X65879803Y-142995075D01*
X66106624Y-143208447D01*
X66361247Y-143387732D01*
X66638592Y-143529351D01*
X66933124Y-143630478D01*
X67238965Y-143689098D01*
X67550017Y-143704039D01*
X67860069Y-143675003D01*
X68162938Y-143602570D01*
X68452579Y-143488186D01*
X68723214Y-143334131D01*
X68969442Y-143143481D01*
X69186351Y-142920038D01*
X69369612Y-142668263D01*
X69515570Y-142393178D01*
X69621312Y-142100270D01*
X69685368Y-141792308D01*
X69699677Y-141349329D01*
X69655627Y-141037873D01*
X69569008Y-140738754D01*
X69441106Y-140454822D01*
X69274474Y-140191745D01*
X69072436Y-139954771D01*
X68839024Y-139748629D01*
X68578896Y-139577431D01*
X68297239Y-139444593D01*
X67999677Y-139352767D01*
X67692144Y-139303783D01*
X67380777Y-139298620D01*
X67071790Y-139337380D01*
X66771346Y-139419290D01*
X66485441Y-139542716D01*
X66219779Y-139705195D01*
X65979660Y-139903486D01*
X65769877Y-140133631D01*
X65594615Y-140391039D01*
X65457369Y-140670574D01*
X65360880Y-140966657D01*
X65307072Y-141273383D01*
X65297019Y-141584630D01*
X43692076Y-141584630D01*
X43699677Y-141349329D01*
X43655627Y-141037873D01*
X43569008Y-140738754D01*
X43441106Y-140454822D01*
X43274474Y-140191745D01*
X43072436Y-139954771D01*
X42839024Y-139748629D01*
X42578896Y-139577431D01*
X42297239Y-139444593D01*
X41999677Y-139352767D01*
X41692144Y-139303783D01*
X41380777Y-139298620D01*
X41071790Y-139337380D01*
X40771346Y-139419290D01*
X40485441Y-139542716D01*
X40219779Y-139705195D01*
X39979660Y-139903486D01*
X39769877Y-140133631D01*
X39594615Y-140391039D01*
X39457369Y-140670574D01*
X39360880Y-140966657D01*
X39307072Y-141273383D01*
X39297019Y-141584630D01*
X38599000Y-141584630D01*
X38599000Y-133142557D01*
X39598633Y-133142557D01*
X39635722Y-133520816D01*
X39714744Y-133892582D01*
X39834712Y-134253224D01*
X39994135Y-134598245D01*
X40191023Y-134923345D01*
X40422922Y-135224472D01*
X40686942Y-135497873D01*
X40979793Y-135740140D01*
X41297824Y-135948254D01*
X41637071Y-136119620D01*
X41993305Y-136252102D01*
X42362088Y-136344050D01*
X42738821Y-136394317D01*
X43118810Y-136402277D01*
X43497318Y-136367830D01*
X43869627Y-136291406D01*
X44231098Y-136173957D01*
X44577223Y-136016948D01*
X44903690Y-135822334D01*
X45206429Y-135592543D01*
X45481666Y-135330438D01*
X45725972Y-135039286D01*
X45936301Y-134722715D01*
X46110032Y-134384673D01*
X46244997Y-134029371D01*
X46339517Y-133661240D01*
X46392607Y-133283486D01*
X46399200Y-132811348D01*
X46356679Y-132432258D01*
X46272474Y-132061632D01*
X46147481Y-131702700D01*
X45983257Y-131359938D01*
X45781850Y-131037619D01*
X45617608Y-130830398D01*
X47243164Y-130830398D01*
X47243164Y-132569598D01*
X47285755Y-132783716D01*
X47418145Y-132981853D01*
X47616282Y-133114243D01*
X47753686Y-133141575D01*
X47623953Y-133260870D01*
X47467571Y-133466896D01*
X47350144Y-133697359D01*
X47275384Y-133944974D01*
X47245655Y-134201915D01*
X47261897Y-134460059D01*
X47323595Y-134711247D01*
X47428798Y-134947539D01*
X47574184Y-135161468D01*
X47755155Y-135346269D01*
X47965992Y-135496103D01*
X48200029Y-135606233D01*
X48449870Y-135673177D01*
X48707617Y-135694821D01*
X48965124Y-135670479D01*
X49214250Y-135600922D01*
X49447122Y-135488348D01*
X49656378Y-135336314D01*
X49835404Y-135149628D01*
X49978541Y-134934189D01*
X50081265Y-134696808D01*
X50140929Y-134442427D01*
X50149549Y-134113258D01*
X50103280Y-133856105D01*
X50013119Y-133613672D01*
X49904732Y-133430398D01*
X54843164Y-133430398D01*
X54843164Y-135169598D01*
X54885755Y-135383716D01*
X55018145Y-135581853D01*
X55216282Y-135714243D01*
X55430400Y-135756834D01*
X57169600Y-135756834D01*
X57383718Y-135714243D01*
X57581855Y-135581853D01*
X57714245Y-135383716D01*
X57756836Y-135169598D01*
X57756836Y-133430398D01*
X57714245Y-133216280D01*
X57664986Y-133142557D01*
X58598633Y-133142557D01*
X58635722Y-133520816D01*
X58714744Y-133892582D01*
X58834712Y-134253224D01*
X58994135Y-134598245D01*
X59191023Y-134923345D01*
X59422922Y-135224472D01*
X59686942Y-135497873D01*
X59979793Y-135740140D01*
X60297824Y-135948254D01*
X60637071Y-136119620D01*
X60993305Y-136252102D01*
X61362088Y-136344050D01*
X61738821Y-136394317D01*
X62118810Y-136402277D01*
X62497318Y-136367830D01*
X62869627Y-136291406D01*
X63231098Y-136173957D01*
X63577223Y-136016948D01*
X63903690Y-135822334D01*
X64206429Y-135592543D01*
X64481666Y-135330438D01*
X64725972Y-135039286D01*
X64936301Y-134722715D01*
X65110032Y-134384673D01*
X65244997Y-134029371D01*
X65339517Y-133661240D01*
X65392607Y-133283486D01*
X65399200Y-132811348D01*
X65356679Y-132432258D01*
X65272474Y-132061632D01*
X65147481Y-131702700D01*
X64983257Y-131359938D01*
X64781850Y-131037619D01*
X64545768Y-130739759D01*
X64277957Y-130470071D01*
X63981752Y-130231916D01*
X63660847Y-130028263D01*
X63319240Y-129861651D01*
X62961190Y-129734154D01*
X62591160Y-129647365D01*
X62213761Y-129602363D01*
X61833698Y-129599709D01*
X61455708Y-129639438D01*
X61084502Y-129721053D01*
X60724707Y-129843537D01*
X60380807Y-130005364D01*
X60057089Y-130204516D01*
X59757589Y-130438513D01*
X59486038Y-130704435D01*
X59245821Y-130998970D01*
X59039932Y-131318446D01*
X58870939Y-131658881D01*
X58740947Y-132016032D01*
X58651576Y-132385447D01*
X58603940Y-132762523D01*
X58598633Y-133142557D01*
X57664986Y-133142557D01*
X57581855Y-133018143D01*
X57383718Y-132885753D01*
X57251938Y-132859540D01*
X57256378Y-132856314D01*
X57435404Y-132669628D01*
X57578541Y-132454189D01*
X57681265Y-132216808D01*
X57740929Y-131962427D01*
X57749549Y-131633258D01*
X57720141Y-131469812D01*
X60390954Y-128799000D01*
X60970914Y-128799000D01*
X61213297Y-128914870D01*
X61481594Y-128958565D01*
X61751372Y-128925203D01*
X62000941Y-128817463D01*
X62210241Y-128644007D01*
X62362445Y-128418780D01*
X62445695Y-128158706D01*
X62449525Y-127866104D01*
X62373111Y-127603939D01*
X62226855Y-127374806D01*
X62022169Y-127195931D01*
X61775505Y-127081695D01*
X61506693Y-127041281D01*
X61237344Y-127077938D01*
X60989108Y-127188719D01*
X60974652Y-127201000D01*
X60858998Y-127201000D01*
X60858998Y-121135000D01*
X67409316Y-121135000D01*
X67520743Y-121583580D01*
X67626739Y-121825620D01*
X67772002Y-122046340D01*
X67952376Y-122239430D01*
X68162704Y-122399367D01*
X68396974Y-122521580D01*
X68648486Y-122602574D01*
X68945000Y-122645038D01*
X68945000Y-121135000D01*
X67409316Y-121135000D01*
X60858998Y-121135000D01*
X60858998Y-120996307D01*
X60858997Y-120996301D01*
X60858997Y-120933449D01*
X60839325Y-120872906D01*
X60829364Y-120810016D01*
X60800459Y-120753285D01*
X60780786Y-120692738D01*
X60743366Y-120641234D01*
X60714460Y-120584503D01*
X58430382Y-118300426D01*
X58373111Y-118103939D01*
X58307151Y-118000603D01*
X58362445Y-117918780D01*
X58445695Y-117658706D01*
X58449525Y-117366104D01*
X58373111Y-117103939D01*
X58226855Y-116874806D01*
X58022169Y-116695931D01*
X57775505Y-116581695D01*
X57506693Y-116541281D01*
X57237344Y-116577938D01*
X56989109Y-116688718D01*
X56781944Y-116864719D01*
X56632504Y-117091788D01*
X56552801Y-117351672D01*
X56549243Y-117623482D01*
X56622115Y-117885365D01*
X56693127Y-117999672D01*
X56632504Y-118091788D01*
X56552801Y-118351672D01*
X56549243Y-118623482D01*
X56622115Y-118885365D01*
X56765561Y-119116268D01*
X56968048Y-119297630D01*
X57213297Y-119414870D01*
X57298848Y-119428803D01*
X59260999Y-121390955D01*
X59260998Y-127669044D01*
X56591758Y-130338284D01*
X56383747Y-130307567D01*
X56125220Y-130315692D01*
X55872217Y-130369469D01*
X55632737Y-130467199D01*
X55414348Y-130605793D01*
X55223953Y-130780870D01*
X55067571Y-130986896D01*
X54950144Y-131217359D01*
X54875384Y-131464974D01*
X54845655Y-131721915D01*
X54861897Y-131980059D01*
X54923595Y-132231247D01*
X55028798Y-132467539D01*
X55174184Y-132681468D01*
X55348484Y-132859456D01*
X55216282Y-132885753D01*
X55018145Y-133018143D01*
X54885755Y-133216280D01*
X54843164Y-133430398D01*
X49904732Y-133430398D01*
X49881454Y-133391037D01*
X49712444Y-133195237D01*
X49646203Y-133141597D01*
X49783718Y-133114243D01*
X49981855Y-132981853D01*
X50114245Y-132783716D01*
X50156836Y-132569598D01*
X50156836Y-130830398D01*
X50114245Y-130616280D01*
X49981855Y-130418143D01*
X49783718Y-130285753D01*
X49569600Y-130243162D01*
X47830400Y-130243162D01*
X47616282Y-130285753D01*
X47418145Y-130418143D01*
X47285755Y-130616280D01*
X47243164Y-130830398D01*
X45617608Y-130830398D01*
X45545768Y-130739759D01*
X45277957Y-130470071D01*
X44981752Y-130231916D01*
X44660847Y-130028263D01*
X44319240Y-129861651D01*
X43961190Y-129734154D01*
X43591160Y-129647365D01*
X43213761Y-129602363D01*
X42833698Y-129599709D01*
X42455708Y-129639438D01*
X42084502Y-129721053D01*
X41724707Y-129843537D01*
X41380807Y-130005364D01*
X41057089Y-130204516D01*
X40757589Y-130438513D01*
X40486038Y-130704435D01*
X40245821Y-130998970D01*
X40039932Y-131318446D01*
X39870939Y-131658881D01*
X39740947Y-132016032D01*
X39651576Y-132385447D01*
X39603940Y-132762523D01*
X39598633Y-133142557D01*
X38599000Y-133142557D01*
X38599000Y-125055000D01*
X41385163Y-125055000D01*
X41385163Y-125926199D01*
X41472471Y-126252038D01*
X41638538Y-126449949D01*
X41854461Y-126574612D01*
X42082590Y-126614837D01*
X42945000Y-126614837D01*
X42945000Y-125055000D01*
X43055000Y-125055000D01*
X43055000Y-126614837D01*
X43926199Y-126614837D01*
X44252038Y-126527529D01*
X44449949Y-126361462D01*
X44574612Y-126145539D01*
X44614837Y-125917410D01*
X44614837Y-125055000D01*
X43055000Y-125055000D01*
X42945000Y-125055000D01*
X41385163Y-125055000D01*
X38599000Y-125055000D01*
X38599000Y-124082590D01*
X41385163Y-124082590D01*
X41385163Y-124945000D01*
X44614837Y-124945000D01*
X44614837Y-124073801D01*
X44527529Y-123747963D01*
X44361462Y-123550052D01*
X44146354Y-123425858D01*
X44232599Y-123323074D01*
X44363744Y-123095924D01*
X44453452Y-122849452D01*
X44498999Y-122591145D01*
X44498999Y-122328855D01*
X44453452Y-122070548D01*
X44363744Y-121824076D01*
X44232599Y-121596926D01*
X44064002Y-121395998D01*
X43863074Y-121227401D01*
X43635924Y-121096256D01*
X43389452Y-121006548D01*
X43131145Y-120961001D01*
X42868855Y-120961001D01*
X42610548Y-121006548D01*
X42364076Y-121096256D01*
X42136926Y-121227401D01*
X41935998Y-121395998D01*
X41767401Y-121596926D01*
X41636256Y-121824076D01*
X41546548Y-122070548D01*
X41501001Y-122328855D01*
X41501001Y-122591145D01*
X41546548Y-122849452D01*
X41636256Y-123095924D01*
X41767401Y-123323074D01*
X41866180Y-123440795D01*
X41747963Y-123472471D01*
X41550052Y-123638538D01*
X41425388Y-123854461D01*
X41385163Y-124082590D01*
X38599000Y-124082590D01*
X38599000Y-93142559D01*
X39598633Y-93142559D01*
X39635722Y-93520818D01*
X39714744Y-93892584D01*
X39834712Y-94253226D01*
X39994135Y-94598247D01*
X40191023Y-94923347D01*
X40422922Y-95224474D01*
X40686942Y-95497875D01*
X40979793Y-95740142D01*
X41297824Y-95948256D01*
X41637071Y-96119622D01*
X41993305Y-96252104D01*
X42362088Y-96344052D01*
X42738821Y-96394319D01*
X43118810Y-96402279D01*
X43497318Y-96367832D01*
X43869627Y-96291408D01*
X44231098Y-96173959D01*
X44577223Y-96016950D01*
X44903690Y-95822336D01*
X45206429Y-95592545D01*
X45481666Y-95330440D01*
X45725972Y-95039288D01*
X45751001Y-95001616D01*
X45751001Y-95920108D01*
X45741501Y-95964231D01*
X45751001Y-96044498D01*
X45751001Y-96062138D01*
X45758227Y-96105555D01*
X45771855Y-96220691D01*
X45779560Y-96233721D01*
X45781599Y-96245967D01*
X45900003Y-96465407D01*
X45981462Y-96540706D01*
X49984989Y-100544235D01*
X49737344Y-100577938D01*
X49489109Y-100688718D01*
X49281944Y-100864719D01*
X49132504Y-101091788D01*
X49052801Y-101351672D01*
X49049243Y-101623482D01*
X49122115Y-101885365D01*
X49251000Y-102092829D01*
X49251001Y-108945879D01*
X49251000Y-108945883D01*
X49251000Y-109189755D01*
X49189755Y-109251000D01*
X45585184Y-109251000D01*
X45522169Y-109195931D01*
X45275505Y-109081695D01*
X45006693Y-109041281D01*
X44737344Y-109077938D01*
X44489109Y-109188718D01*
X44299000Y-109350229D01*
X44299000Y-105830955D01*
X45198175Y-104931781D01*
X45251372Y-104925203D01*
X45500941Y-104817463D01*
X45710241Y-104644007D01*
X45862445Y-104418780D01*
X45945695Y-104158706D01*
X45949525Y-103866104D01*
X45873111Y-103603939D01*
X45726855Y-103374806D01*
X45522169Y-103195931D01*
X45275505Y-103081695D01*
X45006693Y-103041281D01*
X44737344Y-103077938D01*
X44489109Y-103188718D01*
X44281944Y-103364719D01*
X44132504Y-103591788D01*
X44068031Y-103802013D01*
X43002220Y-104867825D01*
X42845538Y-105024506D01*
X42816636Y-105081231D01*
X42779212Y-105132740D01*
X42759538Y-105193293D01*
X42730635Y-105250018D01*
X42720675Y-105312902D01*
X42701001Y-105373452D01*
X42701001Y-105452779D01*
X42701000Y-110563690D01*
X42701001Y-110563696D01*
X42701001Y-110626548D01*
X42720673Y-110687095D01*
X42730634Y-110749981D01*
X42759539Y-110806711D01*
X42779213Y-110867260D01*
X42816634Y-110918767D01*
X42845538Y-110975493D01*
X43025053Y-111155010D01*
X43025057Y-111155012D01*
X46478411Y-114608368D01*
X46478414Y-114608370D01*
X46524506Y-114654463D01*
X46581235Y-114683367D01*
X46632738Y-114720787D01*
X46693288Y-114740461D01*
X46750018Y-114769366D01*
X46812903Y-114779327D01*
X46873450Y-114798999D01*
X46936303Y-114798999D01*
X46936309Y-114799000D01*
X50563691Y-114799000D01*
X50563697Y-114798999D01*
X50626548Y-114798999D01*
X50687091Y-114779327D01*
X50749981Y-114769367D01*
X50806715Y-114740460D01*
X50867261Y-114720787D01*
X50918761Y-114683370D01*
X50975495Y-114654462D01*
X51155010Y-114474946D01*
X51155011Y-114474944D01*
X51201001Y-114428955D01*
X51201000Y-114952779D01*
X51201000Y-114987710D01*
X51132504Y-115091788D01*
X51052801Y-115351672D01*
X51049243Y-115623482D01*
X51122115Y-115885365D01*
X51265561Y-116116268D01*
X51468048Y-116297630D01*
X51713297Y-116414870D01*
X51981594Y-116458565D01*
X52251372Y-116425203D01*
X52500941Y-116317463D01*
X52504085Y-116314857D01*
X52713297Y-116414870D01*
X52745488Y-116420113D01*
X52632504Y-116591788D01*
X52552801Y-116851672D01*
X52549243Y-117123482D01*
X52622115Y-117385365D01*
X52765561Y-117616268D01*
X52968048Y-117797630D01*
X53213297Y-117914870D01*
X53481594Y-117958565D01*
X53751372Y-117925203D01*
X54000941Y-117817463D01*
X54210241Y-117644007D01*
X54362445Y-117418780D01*
X54445695Y-117158706D01*
X54446294Y-117112952D01*
X54473131Y-117086116D01*
X54511046Y-117061634D01*
X54561084Y-116998162D01*
X54573562Y-116985684D01*
X54599161Y-116949861D01*
X54670927Y-116858826D01*
X54674692Y-116844166D01*
X54681911Y-116834063D01*
X54753354Y-116595171D01*
X54749000Y-116484340D01*
X54749000Y-114579893D01*
X54758500Y-114535770D01*
X54749000Y-114455505D01*
X54749000Y-114437860D01*
X54741771Y-114394431D01*
X54728145Y-114279308D01*
X54720441Y-114266282D01*
X54718403Y-114254035D01*
X54599998Y-114034593D01*
X54518538Y-113959293D01*
X54249000Y-113689755D01*
X54249000Y-113123482D01*
X61549243Y-113123482D01*
X61622115Y-113385365D01*
X61765561Y-113616268D01*
X61968048Y-113797630D01*
X62213297Y-113914870D01*
X62251001Y-113921010D01*
X62251000Y-117911737D01*
X62132504Y-118091788D01*
X62052801Y-118351672D01*
X62049243Y-118623482D01*
X62122115Y-118885365D01*
X62265561Y-119116268D01*
X62468048Y-119297630D01*
X62713297Y-119414870D01*
X62981594Y-119458565D01*
X63251372Y-119425203D01*
X63500941Y-119317463D01*
X63710241Y-119144007D01*
X63862445Y-118918780D01*
X63945695Y-118658706D01*
X63949525Y-118366104D01*
X63873111Y-118103939D01*
X63749000Y-117909499D01*
X63749000Y-113579893D01*
X63758500Y-113535770D01*
X63749000Y-113455505D01*
X63749000Y-113437860D01*
X63741771Y-113394431D01*
X63728145Y-113279308D01*
X63720441Y-113266282D01*
X63718403Y-113254035D01*
X63599998Y-113034593D01*
X63518538Y-112959293D01*
X63449213Y-112889968D01*
X63449525Y-112866103D01*
X63373111Y-112603939D01*
X63226855Y-112374806D01*
X63022169Y-112195931D01*
X62890604Y-112135000D01*
X67409316Y-112135000D01*
X67520743Y-112583580D01*
X67626739Y-112825620D01*
X67772002Y-113046340D01*
X67952376Y-113239430D01*
X68162704Y-113399367D01*
X68396974Y-113521580D01*
X68648486Y-113602574D01*
X68945000Y-113645038D01*
X68945000Y-112135000D01*
X67409316Y-112135000D01*
X62890604Y-112135000D01*
X62775505Y-112081695D01*
X62506693Y-112041281D01*
X62237344Y-112077938D01*
X61989109Y-112188718D01*
X61781944Y-112364719D01*
X61632504Y-112591788D01*
X61552801Y-112851672D01*
X61549243Y-113123482D01*
X54249000Y-113123482D01*
X54249000Y-96260244D01*
X54981793Y-95527451D01*
X55018145Y-95581855D01*
X55216282Y-95714245D01*
X55430400Y-95756836D01*
X57169600Y-95756836D01*
X57383718Y-95714245D01*
X57581855Y-95581855D01*
X57714245Y-95383718D01*
X57756836Y-95169600D01*
X57756836Y-93430400D01*
X57714245Y-93216282D01*
X57664986Y-93142559D01*
X58598633Y-93142559D01*
X58635722Y-93520818D01*
X58714744Y-93892584D01*
X58834712Y-94253226D01*
X58994135Y-94598247D01*
X59191023Y-94923347D01*
X59422922Y-95224474D01*
X59686942Y-95497875D01*
X59979793Y-95740142D01*
X60297824Y-95948256D01*
X60637071Y-96119622D01*
X60993305Y-96252104D01*
X61362088Y-96344052D01*
X61738821Y-96394319D01*
X62118810Y-96402279D01*
X62497318Y-96367832D01*
X62869627Y-96291408D01*
X63231098Y-96173959D01*
X63577223Y-96016950D01*
X63903690Y-95822336D01*
X64206429Y-95592545D01*
X64481666Y-95330440D01*
X64725972Y-95039288D01*
X64936301Y-94722717D01*
X65110032Y-94384675D01*
X65244997Y-94029373D01*
X65339517Y-93661242D01*
X65392607Y-93283488D01*
X65399200Y-92811350D01*
X65356679Y-92432260D01*
X65272474Y-92061634D01*
X65147481Y-91702702D01*
X64983257Y-91359940D01*
X64781850Y-91037621D01*
X64545768Y-90739761D01*
X64277957Y-90470073D01*
X63981752Y-90231918D01*
X63660847Y-90028265D01*
X63319240Y-89861653D01*
X62961190Y-89734156D01*
X62591160Y-89647367D01*
X62213761Y-89602365D01*
X61833698Y-89599711D01*
X61455708Y-89639440D01*
X61084502Y-89721055D01*
X60724707Y-89843539D01*
X60380807Y-90005366D01*
X60057089Y-90204518D01*
X59757589Y-90438515D01*
X59486038Y-90704437D01*
X59245821Y-90998972D01*
X59039932Y-91318448D01*
X58870939Y-91658883D01*
X58740947Y-92016034D01*
X58651576Y-92385449D01*
X58603940Y-92762525D01*
X58598633Y-93142559D01*
X57664986Y-93142559D01*
X57581855Y-93018145D01*
X57383718Y-92885755D01*
X57251938Y-92859542D01*
X57256378Y-92856316D01*
X57435404Y-92669630D01*
X57578541Y-92454191D01*
X57681265Y-92216810D01*
X57740929Y-91962429D01*
X57749549Y-91633260D01*
X57703280Y-91376107D01*
X57613119Y-91133674D01*
X57481454Y-90911039D01*
X57312444Y-90715239D01*
X57111431Y-90552462D01*
X56884770Y-90427855D01*
X56639626Y-90345354D01*
X56383747Y-90307569D01*
X56125220Y-90315694D01*
X55872217Y-90369471D01*
X55632737Y-90467201D01*
X55414348Y-90605795D01*
X55223953Y-90780872D01*
X55087229Y-90961000D01*
X54299000Y-90961000D01*
X54299000Y-87956836D01*
X54369600Y-87956836D01*
X54583718Y-87914245D01*
X54781855Y-87781855D01*
X54914245Y-87583718D01*
X54956836Y-87369600D01*
X54956836Y-85630400D01*
X54914245Y-85416282D01*
X54781855Y-85218145D01*
X54583718Y-85085755D01*
X54369600Y-85043164D01*
X52630400Y-85043164D01*
X52416282Y-85085755D01*
X52218145Y-85218145D01*
X52085755Y-85416282D01*
X52058236Y-85554630D01*
X51972444Y-85455239D01*
X51771431Y-85292462D01*
X51544770Y-85167855D01*
X51299626Y-85085354D01*
X51043747Y-85047569D01*
X50785220Y-85055694D01*
X50532217Y-85109471D01*
X50292737Y-85207201D01*
X50074348Y-85345795D01*
X49883953Y-85520872D01*
X49753040Y-85693344D01*
X49716997Y-85628454D01*
X49551608Y-85422384D01*
X49353864Y-85247126D01*
X49129417Y-85107692D01*
X48884685Y-85008068D01*
X48475000Y-84917617D01*
X48475000Y-88076593D01*
X48853339Y-88001337D01*
X49100103Y-87906860D01*
X49327420Y-87772156D01*
X49528792Y-87601078D01*
X49698461Y-87398518D01*
X49753937Y-87303391D01*
X49834184Y-87421470D01*
X50015155Y-87606271D01*
X50225992Y-87756105D01*
X50460029Y-87866235D01*
X50709870Y-87933179D01*
X50967617Y-87954823D01*
X51225124Y-87930481D01*
X51474250Y-87860924D01*
X51707122Y-87748350D01*
X51916378Y-87596316D01*
X52058733Y-87447870D01*
X52085755Y-87583718D01*
X52218145Y-87781855D01*
X52416282Y-87914245D01*
X52630400Y-87956836D01*
X52701000Y-87956836D01*
X52701001Y-91169043D01*
X51525056Y-92344989D01*
X51525054Y-92344990D01*
X51468412Y-92401632D01*
X50429045Y-93441000D01*
X49911001Y-93441000D01*
X49881454Y-93391039D01*
X49712444Y-93195239D01*
X49646203Y-93141599D01*
X49783718Y-93114245D01*
X49981855Y-92981855D01*
X50114245Y-92783718D01*
X50156836Y-92569600D01*
X50156836Y-90830400D01*
X50114245Y-90616282D01*
X49981855Y-90418145D01*
X49783718Y-90285755D01*
X49569600Y-90243164D01*
X47830400Y-90243164D01*
X47616282Y-90285755D01*
X47418145Y-90418145D01*
X47285755Y-90616282D01*
X47249000Y-90801061D01*
X47249000Y-89586654D01*
X47362445Y-89418780D01*
X47445695Y-89158706D01*
X47449525Y-88866104D01*
X47373111Y-88603939D01*
X47226855Y-88374806D01*
X47022169Y-88195931D01*
X46775505Y-88081695D01*
X46506693Y-88041281D01*
X46237344Y-88077938D01*
X45989109Y-88188718D01*
X45781944Y-88364719D01*
X45632504Y-88591788D01*
X45552801Y-88851672D01*
X45549243Y-89123482D01*
X45622115Y-89385365D01*
X45751000Y-89592829D01*
X45751000Y-90998698D01*
X45545768Y-90739761D01*
X45277957Y-90470073D01*
X44981752Y-90231918D01*
X44660847Y-90028265D01*
X44319240Y-89861653D01*
X43961190Y-89734156D01*
X43591160Y-89647367D01*
X43213761Y-89602365D01*
X42833698Y-89599711D01*
X42455708Y-89639440D01*
X42084502Y-89721055D01*
X41724707Y-89843539D01*
X41380807Y-90005366D01*
X41057089Y-90204518D01*
X40757589Y-90438515D01*
X40486038Y-90704437D01*
X40245821Y-90998972D01*
X40039932Y-91318448D01*
X39870939Y-91658883D01*
X39740947Y-92016034D01*
X39651576Y-92385449D01*
X39603940Y-92762525D01*
X39598633Y-93142559D01*
X38599000Y-93142559D01*
X38599000Y-85055000D01*
X41385163Y-85055000D01*
X41385163Y-85926199D01*
X41472471Y-86252038D01*
X41638538Y-86449949D01*
X41854461Y-86574612D01*
X42082590Y-86614837D01*
X42945000Y-86614837D01*
X42945000Y-85055000D01*
X43055000Y-85055000D01*
X43055000Y-86614837D01*
X43926199Y-86614837D01*
X44149514Y-86555000D01*
X46829316Y-86555000D01*
X46940743Y-87003580D01*
X47046739Y-87245620D01*
X47192002Y-87466340D01*
X47372376Y-87659430D01*
X47582704Y-87819367D01*
X47816974Y-87941580D01*
X48068486Y-88022574D01*
X48365000Y-88065038D01*
X48365000Y-86555000D01*
X46829316Y-86555000D01*
X44149514Y-86555000D01*
X44252038Y-86527529D01*
X44350392Y-86445000D01*
X46821799Y-86445000D01*
X48365000Y-86445000D01*
X48365000Y-84938151D01*
X48100449Y-84970398D01*
X47847296Y-85046108D01*
X47610518Y-85163387D01*
X47396886Y-85318886D01*
X47212508Y-85508155D01*
X47062655Y-85725784D01*
X46951613Y-85965551D01*
X46821799Y-86445000D01*
X44350392Y-86445000D01*
X44449949Y-86361462D01*
X44574612Y-86145539D01*
X44614837Y-85917410D01*
X44614837Y-85055000D01*
X43055000Y-85055000D01*
X42945000Y-85055000D01*
X41385163Y-85055000D01*
X38599000Y-85055000D01*
X38599000Y-84082590D01*
X41385163Y-84082590D01*
X41385163Y-84945000D01*
X44614837Y-84945000D01*
X44614837Y-84073801D01*
X44527529Y-83747963D01*
X44361462Y-83550052D01*
X44146354Y-83425858D01*
X44232599Y-83323074D01*
X44363744Y-83095924D01*
X44453452Y-82849452D01*
X44498999Y-82591145D01*
X44498999Y-82445000D01*
X66401799Y-82445000D01*
X67945000Y-82445000D01*
X68055000Y-82445000D01*
X69570026Y-82445000D01*
X69512851Y-82108750D01*
X69425301Y-81859444D01*
X69296997Y-81628454D01*
X69131608Y-81422384D01*
X68933864Y-81247126D01*
X68709417Y-81107692D01*
X68464685Y-81008068D01*
X68055000Y-80917617D01*
X68055000Y-82445000D01*
X67945000Y-82445000D01*
X67945000Y-80938151D01*
X67680449Y-80970398D01*
X67427296Y-81046108D01*
X67190518Y-81163387D01*
X66976886Y-81318886D01*
X66792508Y-81508155D01*
X66642655Y-81725784D01*
X66531613Y-81965551D01*
X66401799Y-82445000D01*
X44498999Y-82445000D01*
X44498999Y-82328855D01*
X44453452Y-82070548D01*
X44363744Y-81824076D01*
X44232599Y-81596926D01*
X44064002Y-81395998D01*
X43863074Y-81227401D01*
X43635924Y-81096256D01*
X43389452Y-81006548D01*
X43131145Y-80961001D01*
X42868855Y-80961001D01*
X42610548Y-81006548D01*
X42364076Y-81096256D01*
X42136926Y-81227401D01*
X41935998Y-81395998D01*
X41767401Y-81596926D01*
X41636256Y-81824076D01*
X41546548Y-82070548D01*
X41501001Y-82328855D01*
X41501001Y-82591145D01*
X41546548Y-82849452D01*
X41636256Y-83095924D01*
X41767401Y-83323074D01*
X41866180Y-83440795D01*
X41747963Y-83472471D01*
X41550052Y-83638538D01*
X41425388Y-83854461D01*
X41385163Y-84082590D01*
X38599000Y-84082590D01*
X38599000Y-76584630D01*
X39297019Y-76584630D01*
X39330921Y-76894189D01*
X39408102Y-77195881D01*
X39527022Y-77483691D01*
X39685309Y-77751872D01*
X39879803Y-77995075D01*
X40106624Y-78208447D01*
X40361247Y-78387732D01*
X40638592Y-78529351D01*
X40933124Y-78630478D01*
X41238965Y-78689098D01*
X41550017Y-78704039D01*
X41860069Y-78675003D01*
X42162938Y-78602570D01*
X42452579Y-78488186D01*
X42723214Y-78334131D01*
X42969442Y-78143481D01*
X43186351Y-77920038D01*
X43369612Y-77668263D01*
X43515570Y-77393178D01*
X43621312Y-77100270D01*
X43685368Y-76792308D01*
X43692076Y-76584630D01*
X65297019Y-76584630D01*
X65330921Y-76894189D01*
X65408102Y-77195881D01*
X65527022Y-77483691D01*
X65685309Y-77751872D01*
X65879803Y-77995075D01*
X66106624Y-78208447D01*
X66361247Y-78387732D01*
X66638592Y-78529351D01*
X66933124Y-78630478D01*
X67238965Y-78689098D01*
X67550017Y-78704039D01*
X67860069Y-78675003D01*
X68162938Y-78602570D01*
X68452579Y-78488186D01*
X68723214Y-78334131D01*
X68969442Y-78143481D01*
X69186351Y-77920038D01*
X69369612Y-77668263D01*
X69515570Y-77393178D01*
X69621312Y-77100270D01*
X69685368Y-76792308D01*
X69699677Y-76349329D01*
X69655627Y-76037873D01*
X69569008Y-75738754D01*
X69441106Y-75454822D01*
X69274474Y-75191745D01*
X69072436Y-74954771D01*
X68839024Y-74748629D01*
X68578896Y-74577431D01*
X68297239Y-74444593D01*
X67999677Y-74352767D01*
X67692144Y-74303783D01*
X67380777Y-74298620D01*
X67071790Y-74337380D01*
X66771346Y-74419290D01*
X66485441Y-74542716D01*
X66219779Y-74705195D01*
X65979660Y-74903486D01*
X65769877Y-75133631D01*
X65594615Y-75391039D01*
X65457369Y-75670574D01*
X65360880Y-75966657D01*
X65307072Y-76273383D01*
X65297019Y-76584630D01*
X43692076Y-76584630D01*
X43699677Y-76349329D01*
X43655627Y-76037873D01*
X43569008Y-75738754D01*
X43441106Y-75454822D01*
X43274474Y-75191745D01*
X43072436Y-74954771D01*
X42839024Y-74748629D01*
X42578896Y-74577431D01*
X42297239Y-74444593D01*
X41999677Y-74352767D01*
X41692144Y-74303783D01*
X41380777Y-74298620D01*
X41071790Y-74337380D01*
X40771346Y-74419290D01*
X40485441Y-74542716D01*
X40219779Y-74705195D01*
X39979660Y-74903486D01*
X39769877Y-75133631D01*
X39594615Y-75391039D01*
X39457369Y-75670574D01*
X39360880Y-75966657D01*
X39307072Y-76273383D01*
X39297019Y-76584630D01*
X38599000Y-76584630D01*
X38599000Y-73599000D01*
X70401001Y-73599000D01*
X70401001Y-97502423D01*
G37*
D16*
X70401001Y-97502423D02*
X70353119Y-97373674D01*
X70221454Y-97151039D01*
X70052444Y-96955239D01*
X69851431Y-96792462D01*
X69789000Y-96758141D01*
X69789000Y-90619891D01*
X69798499Y-90575769D01*
X69789000Y-90495510D01*
X69789000Y-90477860D01*
X69781769Y-90434420D01*
X69768145Y-90319308D01*
X69760441Y-90306280D01*
X69758402Y-90294034D01*
X69639998Y-90074593D01*
X69558539Y-89999293D01*
X68749000Y-89189755D01*
X68749000Y-86496836D01*
X68869600Y-86496836D01*
X69083718Y-86454245D01*
X69281855Y-86321855D01*
X69414245Y-86123718D01*
X69456836Y-85909600D01*
X69456836Y-84170400D01*
X69414245Y-83956282D01*
X69281855Y-83758145D01*
X69083718Y-83625755D01*
X69080499Y-83625115D01*
X69108792Y-83601078D01*
X69278461Y-83398518D01*
X69411574Y-83170265D01*
X69504325Y-82922847D01*
X69574829Y-82555000D01*
X66409316Y-82555000D01*
X66520743Y-83003580D01*
X66626739Y-83245620D01*
X66772002Y-83466340D01*
X66920192Y-83624977D01*
X66916282Y-83625755D01*
X66718145Y-83758145D01*
X66585755Y-83956282D01*
X66543164Y-84170400D01*
X66543164Y-85909600D01*
X66585755Y-86123718D01*
X66718145Y-86321855D01*
X66916282Y-86454245D01*
X67130400Y-86496836D01*
X67251001Y-86496836D01*
X67251000Y-89420109D01*
X67241501Y-89464231D01*
X67251000Y-89544490D01*
X67251000Y-89562137D01*
X67258229Y-89605572D01*
X67271855Y-89720692D01*
X67279560Y-89733720D01*
X67281598Y-89745965D01*
X67400002Y-89965406D01*
X67481474Y-90040718D01*
X68291001Y-90850247D01*
X68291000Y-96759073D01*
X68154348Y-96845795D01*
X67963953Y-97020872D01*
X67941051Y-97051044D01*
X67914245Y-96916282D01*
X67781855Y-96718145D01*
X67583718Y-96585755D01*
X67369600Y-96543164D01*
X65630400Y-96543164D01*
X65416282Y-96585755D01*
X65218145Y-96718145D01*
X65085755Y-96916282D01*
X65043164Y-97130400D01*
X65043164Y-97314441D01*
X64884593Y-97400002D01*
X64809293Y-97481462D01*
X64026874Y-98263881D01*
X63988952Y-98288367D01*
X63938917Y-98351837D01*
X63926437Y-98364317D01*
X63900836Y-98400144D01*
X63829073Y-98491175D01*
X63825308Y-98505835D01*
X63818089Y-98515938D01*
X63746646Y-98754830D01*
X63751000Y-98865661D01*
X63751001Y-103689754D01*
X61382584Y-106058171D01*
X61237344Y-106077938D01*
X60989109Y-106188718D01*
X60781944Y-106364719D01*
X60632504Y-106591788D01*
X60552801Y-106851672D01*
X60549243Y-107123482D01*
X60622115Y-107385365D01*
X60765561Y-107616268D01*
X60968048Y-107797630D01*
X61213297Y-107914870D01*
X61481594Y-107958565D01*
X61751372Y-107925203D01*
X62000941Y-107817463D01*
X62210241Y-107644007D01*
X62362445Y-107418780D01*
X62445695Y-107158706D01*
X62446294Y-107112950D01*
X64973129Y-104586117D01*
X65011047Y-104561633D01*
X65061084Y-104498162D01*
X65073562Y-104485684D01*
X65099161Y-104449861D01*
X65170927Y-104358826D01*
X65174692Y-104344165D01*
X65181910Y-104334064D01*
X65253355Y-104095170D01*
X65249000Y-103984323D01*
X65249000Y-103817267D01*
X65374184Y-104001470D01*
X65555155Y-104186271D01*
X65765992Y-104336105D01*
X66000029Y-104446235D01*
X66249870Y-104513179D01*
X66507617Y-104534823D01*
X66765124Y-104510481D01*
X67014250Y-104440924D01*
X67247122Y-104328350D01*
X67456378Y-104176316D01*
X67635404Y-103989630D01*
X67705372Y-103884320D01*
X67812002Y-104046340D01*
X67992376Y-104239430D01*
X68202704Y-104399367D01*
X68436974Y-104521580D01*
X68688486Y-104602574D01*
X68985000Y-104645038D01*
X68985000Y-103025000D01*
X69095000Y-103025000D01*
X69095000Y-104656593D01*
X69473339Y-104581337D01*
X69720103Y-104486860D01*
X69947420Y-104352156D01*
X70148792Y-104181078D01*
X70318461Y-103978518D01*
X70401001Y-103836985D01*
X70401001Y-105896460D01*
X70281855Y-105718145D01*
X70083718Y-105585755D01*
X69869600Y-105543164D01*
X68130400Y-105543164D01*
X67916282Y-105585755D01*
X67718145Y-105718145D01*
X67585755Y-105916282D01*
X67543164Y-106130400D01*
X67543164Y-107869600D01*
X67585755Y-108083718D01*
X67718145Y-108281855D01*
X67916282Y-108414245D01*
X68053686Y-108441577D01*
X67923953Y-108560872D01*
X67767571Y-108766898D01*
X67650144Y-108997361D01*
X67575384Y-109244976D01*
X67545655Y-109501917D01*
X67561897Y-109760061D01*
X67623595Y-110011249D01*
X67728798Y-110247541D01*
X67874184Y-110461470D01*
X68055155Y-110646271D01*
X68191280Y-110743010D01*
X68190518Y-110743387D01*
X67976886Y-110898886D01*
X67792508Y-111088155D01*
X67642655Y-111305784D01*
X67531613Y-111545551D01*
X67401799Y-112025000D01*
X69055000Y-112025000D01*
X69055000Y-113656593D01*
X69433339Y-113581337D01*
X69680103Y-113486860D01*
X69907420Y-113352156D01*
X70108792Y-113181078D01*
X70278461Y-112978518D01*
X70401000Y-112768396D01*
X70401000Y-114896460D01*
X70281855Y-114718145D01*
X70083718Y-114585755D01*
X69869600Y-114543164D01*
X68130400Y-114543164D01*
X67916282Y-114585755D01*
X67718145Y-114718145D01*
X67585755Y-114916282D01*
X67543164Y-115130400D01*
X67543164Y-116869600D01*
X67585755Y-117083718D01*
X67718145Y-117281855D01*
X67916282Y-117414245D01*
X68053686Y-117441577D01*
X67923953Y-117560872D01*
X67767571Y-117766898D01*
X67650144Y-117997361D01*
X67575384Y-118244976D01*
X67545655Y-118501917D01*
X67561897Y-118760061D01*
X67623595Y-119011249D01*
X67728798Y-119247541D01*
X67874184Y-119461470D01*
X68055155Y-119646271D01*
X68191280Y-119743010D01*
X68190518Y-119743387D01*
X67976886Y-119898886D01*
X67792508Y-120088155D01*
X67642655Y-120305784D01*
X67531613Y-120545551D01*
X67401799Y-121025000D01*
X69055000Y-121025000D01*
X69055000Y-122656593D01*
X69433339Y-122581337D01*
X69680103Y-122486860D01*
X69907420Y-122352156D01*
X70108792Y-122181078D01*
X70278461Y-121978518D01*
X70401000Y-121768396D01*
X70401000Y-144401000D01*
X38599000Y-144401000D01*
X38599000Y-141584630D01*
X39297019Y-141584630D01*
X39330921Y-141894189D01*
X39408102Y-142195881D01*
X39527022Y-142483691D01*
X39685309Y-142751872D01*
X39879803Y-142995075D01*
X40106624Y-143208447D01*
X40361247Y-143387732D01*
X40638592Y-143529351D01*
X40933124Y-143630478D01*
X41238965Y-143689098D01*
X41550017Y-143704039D01*
X41860069Y-143675003D01*
X42162938Y-143602570D01*
X42452579Y-143488186D01*
X42723214Y-143334131D01*
X42969442Y-143143481D01*
X43186351Y-142920038D01*
X43369612Y-142668263D01*
X43515570Y-142393178D01*
X43621312Y-142100270D01*
X43685368Y-141792308D01*
X43692076Y-141584630D01*
X65297019Y-141584630D01*
X65330921Y-141894189D01*
X65408102Y-142195881D01*
X65527022Y-142483691D01*
X65685309Y-142751872D01*
X65879803Y-142995075D01*
X66106624Y-143208447D01*
X66361247Y-143387732D01*
X66638592Y-143529351D01*
X66933124Y-143630478D01*
X67238965Y-143689098D01*
X67550017Y-143704039D01*
X67860069Y-143675003D01*
X68162938Y-143602570D01*
X68452579Y-143488186D01*
X68723214Y-143334131D01*
X68969442Y-143143481D01*
X69186351Y-142920038D01*
X69369612Y-142668263D01*
X69515570Y-142393178D01*
X69621312Y-142100270D01*
X69685368Y-141792308D01*
X69699677Y-141349329D01*
X69655627Y-141037873D01*
X69569008Y-140738754D01*
X69441106Y-140454822D01*
X69274474Y-140191745D01*
X69072436Y-139954771D01*
X68839024Y-139748629D01*
X68578896Y-139577431D01*
X68297239Y-139444593D01*
X67999677Y-139352767D01*
X67692144Y-139303783D01*
X67380777Y-139298620D01*
X67071790Y-139337380D01*
X66771346Y-139419290D01*
X66485441Y-139542716D01*
X66219779Y-139705195D01*
X65979660Y-139903486D01*
X65769877Y-140133631D01*
X65594615Y-140391039D01*
X65457369Y-140670574D01*
X65360880Y-140966657D01*
X65307072Y-141273383D01*
X65297019Y-141584630D01*
X43692076Y-141584630D01*
X43699677Y-141349329D01*
X43655627Y-141037873D01*
X43569008Y-140738754D01*
X43441106Y-140454822D01*
X43274474Y-140191745D01*
X43072436Y-139954771D01*
X42839024Y-139748629D01*
X42578896Y-139577431D01*
X42297239Y-139444593D01*
X41999677Y-139352767D01*
X41692144Y-139303783D01*
X41380777Y-139298620D01*
X41071790Y-139337380D01*
X40771346Y-139419290D01*
X40485441Y-139542716D01*
X40219779Y-139705195D01*
X39979660Y-139903486D01*
X39769877Y-140133631D01*
X39594615Y-140391039D01*
X39457369Y-140670574D01*
X39360880Y-140966657D01*
X39307072Y-141273383D01*
X39297019Y-141584630D01*
X38599000Y-141584630D01*
X38599000Y-133142557D01*
X39598633Y-133142557D01*
X39635722Y-133520816D01*
X39714744Y-133892582D01*
X39834712Y-134253224D01*
X39994135Y-134598245D01*
X40191023Y-134923345D01*
X40422922Y-135224472D01*
X40686942Y-135497873D01*
X40979793Y-135740140D01*
X41297824Y-135948254D01*
X41637071Y-136119620D01*
X41993305Y-136252102D01*
X42362088Y-136344050D01*
X42738821Y-136394317D01*
X43118810Y-136402277D01*
X43497318Y-136367830D01*
X43869627Y-136291406D01*
X44231098Y-136173957D01*
X44577223Y-136016948D01*
X44903690Y-135822334D01*
X45206429Y-135592543D01*
X45481666Y-135330438D01*
X45725972Y-135039286D01*
X45936301Y-134722715D01*
X46110032Y-134384673D01*
X46244997Y-134029371D01*
X46339517Y-133661240D01*
X46392607Y-133283486D01*
X46399200Y-132811348D01*
X46356679Y-132432258D01*
X46272474Y-132061632D01*
X46147481Y-131702700D01*
X45983257Y-131359938D01*
X45781850Y-131037619D01*
X45617608Y-130830398D01*
X47243164Y-130830398D01*
X47243164Y-132569598D01*
X47285755Y-132783716D01*
X47418145Y-132981853D01*
X47616282Y-133114243D01*
X47753686Y-133141575D01*
X47623953Y-133260870D01*
X47467571Y-133466896D01*
X47350144Y-133697359D01*
X47275384Y-133944974D01*
X47245655Y-134201915D01*
X47261897Y-134460059D01*
X47323595Y-134711247D01*
X47428798Y-134947539D01*
X47574184Y-135161468D01*
X47755155Y-135346269D01*
X47965992Y-135496103D01*
X48200029Y-135606233D01*
X48449870Y-135673177D01*
X48707617Y-135694821D01*
X48965124Y-135670479D01*
X49214250Y-135600922D01*
X49447122Y-135488348D01*
X49656378Y-135336314D01*
X49835404Y-135149628D01*
X49978541Y-134934189D01*
X50081265Y-134696808D01*
X50140929Y-134442427D01*
X50149549Y-134113258D01*
X50103280Y-133856105D01*
X50013119Y-133613672D01*
X49904732Y-133430398D01*
X54843164Y-133430398D01*
X54843164Y-135169598D01*
X54885755Y-135383716D01*
X55018145Y-135581853D01*
X55216282Y-135714243D01*
X55430400Y-135756834D01*
X57169600Y-135756834D01*
X57383718Y-135714243D01*
X57581855Y-135581853D01*
X57714245Y-135383716D01*
X57756836Y-135169598D01*
X57756836Y-133430398D01*
X57714245Y-133216280D01*
X57664986Y-133142557D01*
X58598633Y-133142557D01*
X58635722Y-133520816D01*
X58714744Y-133892582D01*
X58834712Y-134253224D01*
X58994135Y-134598245D01*
X59191023Y-134923345D01*
X59422922Y-135224472D01*
X59686942Y-135497873D01*
X59979793Y-135740140D01*
X60297824Y-135948254D01*
X60637071Y-136119620D01*
X60993305Y-136252102D01*
X61362088Y-136344050D01*
X61738821Y-136394317D01*
X62118810Y-136402277D01*
X62497318Y-136367830D01*
X62869627Y-136291406D01*
X63231098Y-136173957D01*
X63577223Y-136016948D01*
X63903690Y-135822334D01*
X64206429Y-135592543D01*
X64481666Y-135330438D01*
X64725972Y-135039286D01*
X64936301Y-134722715D01*
X65110032Y-134384673D01*
X65244997Y-134029371D01*
X65339517Y-133661240D01*
X65392607Y-133283486D01*
X65399200Y-132811348D01*
X65356679Y-132432258D01*
X65272474Y-132061632D01*
X65147481Y-131702700D01*
X64983257Y-131359938D01*
X64781850Y-131037619D01*
X64545768Y-130739759D01*
X64277957Y-130470071D01*
X63981752Y-130231916D01*
X63660847Y-130028263D01*
X63319240Y-129861651D01*
X62961190Y-129734154D01*
X62591160Y-129647365D01*
X62213761Y-129602363D01*
X61833698Y-129599709D01*
X61455708Y-129639438D01*
X61084502Y-129721053D01*
X60724707Y-129843537D01*
X60380807Y-130005364D01*
X60057089Y-130204516D01*
X59757589Y-130438513D01*
X59486038Y-130704435D01*
X59245821Y-130998970D01*
X59039932Y-131318446D01*
X58870939Y-131658881D01*
X58740947Y-132016032D01*
X58651576Y-132385447D01*
X58603940Y-132762523D01*
X58598633Y-133142557D01*
X57664986Y-133142557D01*
X57581855Y-133018143D01*
X57383718Y-132885753D01*
X57251938Y-132859540D01*
X57256378Y-132856314D01*
X57435404Y-132669628D01*
X57578541Y-132454189D01*
X57681265Y-132216808D01*
X57740929Y-131962427D01*
X57749549Y-131633258D01*
X57720141Y-131469812D01*
X60390954Y-128799000D01*
X60970914Y-128799000D01*
X61213297Y-128914870D01*
X61481594Y-128958565D01*
X61751372Y-128925203D01*
X62000941Y-128817463D01*
X62210241Y-128644007D01*
X62362445Y-128418780D01*
X62445695Y-128158706D01*
X62449525Y-127866104D01*
X62373111Y-127603939D01*
X62226855Y-127374806D01*
X62022169Y-127195931D01*
X61775505Y-127081695D01*
X61506693Y-127041281D01*
X61237344Y-127077938D01*
X60989108Y-127188719D01*
X60974652Y-127201000D01*
X60858998Y-127201000D01*
X60858998Y-121135000D01*
X67409316Y-121135000D01*
X67520743Y-121583580D01*
X67626739Y-121825620D01*
X67772002Y-122046340D01*
X67952376Y-122239430D01*
X68162704Y-122399367D01*
X68396974Y-122521580D01*
X68648486Y-122602574D01*
X68945000Y-122645038D01*
X68945000Y-121135000D01*
X67409316Y-121135000D01*
X60858998Y-121135000D01*
X60858998Y-120996307D01*
X60858997Y-120996301D01*
X60858997Y-120933449D01*
X60839325Y-120872906D01*
X60829364Y-120810016D01*
X60800459Y-120753285D01*
X60780786Y-120692738D01*
X60743366Y-120641234D01*
X60714460Y-120584503D01*
X58430382Y-118300426D01*
X58373111Y-118103939D01*
X58307151Y-118000603D01*
X58362445Y-117918780D01*
X58445695Y-117658706D01*
X58449525Y-117366104D01*
X58373111Y-117103939D01*
X58226855Y-116874806D01*
X58022169Y-116695931D01*
X57775505Y-116581695D01*
X57506693Y-116541281D01*
X57237344Y-116577938D01*
X56989109Y-116688718D01*
X56781944Y-116864719D01*
X56632504Y-117091788D01*
X56552801Y-117351672D01*
X56549243Y-117623482D01*
X56622115Y-117885365D01*
X56693127Y-117999672D01*
X56632504Y-118091788D01*
X56552801Y-118351672D01*
X56549243Y-118623482D01*
X56622115Y-118885365D01*
X56765561Y-119116268D01*
X56968048Y-119297630D01*
X57213297Y-119414870D01*
X57298848Y-119428803D01*
X59260999Y-121390955D01*
X59260998Y-127669044D01*
X56591758Y-130338284D01*
X56383747Y-130307567D01*
X56125220Y-130315692D01*
X55872217Y-130369469D01*
X55632737Y-130467199D01*
X55414348Y-130605793D01*
X55223953Y-130780870D01*
X55067571Y-130986896D01*
X54950144Y-131217359D01*
X54875384Y-131464974D01*
X54845655Y-131721915D01*
X54861897Y-131980059D01*
X54923595Y-132231247D01*
X55028798Y-132467539D01*
X55174184Y-132681468D01*
X55348484Y-132859456D01*
X55216282Y-132885753D01*
X55018145Y-133018143D01*
X54885755Y-133216280D01*
X54843164Y-133430398D01*
X49904732Y-133430398D01*
X49881454Y-133391037D01*
X49712444Y-133195237D01*
X49646203Y-133141597D01*
X49783718Y-133114243D01*
X49981855Y-132981853D01*
X50114245Y-132783716D01*
X50156836Y-132569598D01*
X50156836Y-130830398D01*
X50114245Y-130616280D01*
X49981855Y-130418143D01*
X49783718Y-130285753D01*
X49569600Y-130243162D01*
X47830400Y-130243162D01*
X47616282Y-130285753D01*
X47418145Y-130418143D01*
X47285755Y-130616280D01*
X47243164Y-130830398D01*
X45617608Y-130830398D01*
X45545768Y-130739759D01*
X45277957Y-130470071D01*
X44981752Y-130231916D01*
X44660847Y-130028263D01*
X44319240Y-129861651D01*
X43961190Y-129734154D01*
X43591160Y-129647365D01*
X43213761Y-129602363D01*
X42833698Y-129599709D01*
X42455708Y-129639438D01*
X42084502Y-129721053D01*
X41724707Y-129843537D01*
X41380807Y-130005364D01*
X41057089Y-130204516D01*
X40757589Y-130438513D01*
X40486038Y-130704435D01*
X40245821Y-130998970D01*
X40039932Y-131318446D01*
X39870939Y-131658881D01*
X39740947Y-132016032D01*
X39651576Y-132385447D01*
X39603940Y-132762523D01*
X39598633Y-133142557D01*
X38599000Y-133142557D01*
X38599000Y-125055000D01*
X41385163Y-125055000D01*
X41385163Y-125926199D01*
X41472471Y-126252038D01*
X41638538Y-126449949D01*
X41854461Y-126574612D01*
X42082590Y-126614837D01*
X42945000Y-126614837D01*
X42945000Y-125055000D01*
X43055000Y-125055000D01*
X43055000Y-126614837D01*
X43926199Y-126614837D01*
X44252038Y-126527529D01*
X44449949Y-126361462D01*
X44574612Y-126145539D01*
X44614837Y-125917410D01*
X44614837Y-125055000D01*
X43055000Y-125055000D01*
X42945000Y-125055000D01*
X41385163Y-125055000D01*
X38599000Y-125055000D01*
X38599000Y-124082590D01*
X41385163Y-124082590D01*
X41385163Y-124945000D01*
X44614837Y-124945000D01*
X44614837Y-124073801D01*
X44527529Y-123747963D01*
X44361462Y-123550052D01*
X44146354Y-123425858D01*
X44232599Y-123323074D01*
X44363744Y-123095924D01*
X44453452Y-122849452D01*
X44498999Y-122591145D01*
X44498999Y-122328855D01*
X44453452Y-122070548D01*
X44363744Y-121824076D01*
X44232599Y-121596926D01*
X44064002Y-121395998D01*
X43863074Y-121227401D01*
X43635924Y-121096256D01*
X43389452Y-121006548D01*
X43131145Y-120961001D01*
X42868855Y-120961001D01*
X42610548Y-121006548D01*
X42364076Y-121096256D01*
X42136926Y-121227401D01*
X41935998Y-121395998D01*
X41767401Y-121596926D01*
X41636256Y-121824076D01*
X41546548Y-122070548D01*
X41501001Y-122328855D01*
X41501001Y-122591145D01*
X41546548Y-122849452D01*
X41636256Y-123095924D01*
X41767401Y-123323074D01*
X41866180Y-123440795D01*
X41747963Y-123472471D01*
X41550052Y-123638538D01*
X41425388Y-123854461D01*
X41385163Y-124082590D01*
X38599000Y-124082590D01*
X38599000Y-93142559D01*
X39598633Y-93142559D01*
X39635722Y-93520818D01*
X39714744Y-93892584D01*
X39834712Y-94253226D01*
X39994135Y-94598247D01*
X40191023Y-94923347D01*
X40422922Y-95224474D01*
X40686942Y-95497875D01*
X40979793Y-95740142D01*
X41297824Y-95948256D01*
X41637071Y-96119622D01*
X41993305Y-96252104D01*
X42362088Y-96344052D01*
X42738821Y-96394319D01*
X43118810Y-96402279D01*
X43497318Y-96367832D01*
X43869627Y-96291408D01*
X44231098Y-96173959D01*
X44577223Y-96016950D01*
X44903690Y-95822336D01*
X45206429Y-95592545D01*
X45481666Y-95330440D01*
X45725972Y-95039288D01*
X45751001Y-95001616D01*
X45751001Y-95920108D01*
X45741501Y-95964231D01*
X45751001Y-96044498D01*
X45751001Y-96062138D01*
X45758227Y-96105555D01*
X45771855Y-96220691D01*
X45779560Y-96233721D01*
X45781599Y-96245967D01*
X45900003Y-96465407D01*
X45981462Y-96540706D01*
X49984989Y-100544235D01*
X49737344Y-100577938D01*
X49489109Y-100688718D01*
X49281944Y-100864719D01*
X49132504Y-101091788D01*
X49052801Y-101351672D01*
X49049243Y-101623482D01*
X49122115Y-101885365D01*
X49251000Y-102092829D01*
X49251001Y-108945879D01*
X49251000Y-108945883D01*
X49251000Y-109189755D01*
X49189755Y-109251000D01*
X45585184Y-109251000D01*
X45522169Y-109195931D01*
X45275505Y-109081695D01*
X45006693Y-109041281D01*
X44737344Y-109077938D01*
X44489109Y-109188718D01*
X44299000Y-109350229D01*
X44299000Y-105830955D01*
X45198175Y-104931781D01*
X45251372Y-104925203D01*
X45500941Y-104817463D01*
X45710241Y-104644007D01*
X45862445Y-104418780D01*
X45945695Y-104158706D01*
X45949525Y-103866104D01*
X45873111Y-103603939D01*
X45726855Y-103374806D01*
X45522169Y-103195931D01*
X45275505Y-103081695D01*
X45006693Y-103041281D01*
X44737344Y-103077938D01*
X44489109Y-103188718D01*
X44281944Y-103364719D01*
X44132504Y-103591788D01*
X44068031Y-103802013D01*
X43002220Y-104867825D01*
X42845538Y-105024506D01*
X42816636Y-105081231D01*
X42779212Y-105132740D01*
X42759538Y-105193293D01*
X42730635Y-105250018D01*
X42720675Y-105312902D01*
X42701001Y-105373452D01*
X42701001Y-105452779D01*
X42701000Y-110563690D01*
X42701001Y-110563696D01*
X42701001Y-110626548D01*
X42720673Y-110687095D01*
X42730634Y-110749981D01*
X42759539Y-110806711D01*
X42779213Y-110867260D01*
X42816634Y-110918767D01*
X42845538Y-110975493D01*
X43025053Y-111155010D01*
X43025057Y-111155012D01*
X46478411Y-114608368D01*
X46478414Y-114608370D01*
X46524506Y-114654463D01*
X46581235Y-114683367D01*
X46632738Y-114720787D01*
X46693288Y-114740461D01*
X46750018Y-114769366D01*
X46812903Y-114779327D01*
X46873450Y-114798999D01*
X46936303Y-114798999D01*
X46936309Y-114799000D01*
X50563691Y-114799000D01*
X50563697Y-114798999D01*
X50626548Y-114798999D01*
X50687091Y-114779327D01*
X50749981Y-114769367D01*
X50806715Y-114740460D01*
X50867261Y-114720787D01*
X50918761Y-114683370D01*
X50975495Y-114654462D01*
X51155010Y-114474946D01*
X51155011Y-114474944D01*
X51201001Y-114428955D01*
X51201000Y-114952779D01*
X51201000Y-114987710D01*
X51132504Y-115091788D01*
X51052801Y-115351672D01*
X51049243Y-115623482D01*
X51122115Y-115885365D01*
X51265561Y-116116268D01*
X51468048Y-116297630D01*
X51713297Y-116414870D01*
X51981594Y-116458565D01*
X52251372Y-116425203D01*
X52500941Y-116317463D01*
X52504085Y-116314857D01*
X52713297Y-116414870D01*
X52745488Y-116420113D01*
X52632504Y-116591788D01*
X52552801Y-116851672D01*
X52549243Y-117123482D01*
X52622115Y-117385365D01*
X52765561Y-117616268D01*
X52968048Y-117797630D01*
X53213297Y-117914870D01*
X53481594Y-117958565D01*
X53751372Y-117925203D01*
X54000941Y-117817463D01*
X54210241Y-117644007D01*
X54362445Y-117418780D01*
X54445695Y-117158706D01*
X54446294Y-117112952D01*
X54473131Y-117086116D01*
X54511046Y-117061634D01*
X54561084Y-116998162D01*
X54573562Y-116985684D01*
X54599161Y-116949861D01*
X54670927Y-116858826D01*
X54674692Y-116844166D01*
X54681911Y-116834063D01*
X54753354Y-116595171D01*
X54749000Y-116484340D01*
X54749000Y-114579893D01*
X54758500Y-114535770D01*
X54749000Y-114455505D01*
X54749000Y-114437860D01*
X54741771Y-114394431D01*
X54728145Y-114279308D01*
X54720441Y-114266282D01*
X54718403Y-114254035D01*
X54599998Y-114034593D01*
X54518538Y-113959293D01*
X54249000Y-113689755D01*
X54249000Y-113123482D01*
X61549243Y-113123482D01*
X61622115Y-113385365D01*
X61765561Y-113616268D01*
X61968048Y-113797630D01*
X62213297Y-113914870D01*
X62251001Y-113921010D01*
X62251000Y-117911737D01*
X62132504Y-118091788D01*
X62052801Y-118351672D01*
X62049243Y-118623482D01*
X62122115Y-118885365D01*
X62265561Y-119116268D01*
X62468048Y-119297630D01*
X62713297Y-119414870D01*
X62981594Y-119458565D01*
X63251372Y-119425203D01*
X63500941Y-119317463D01*
X63710241Y-119144007D01*
X63862445Y-118918780D01*
X63945695Y-118658706D01*
X63949525Y-118366104D01*
X63873111Y-118103939D01*
X63749000Y-117909499D01*
X63749000Y-113579893D01*
X63758500Y-113535770D01*
X63749000Y-113455505D01*
X63749000Y-113437860D01*
X63741771Y-113394431D01*
X63728145Y-113279308D01*
X63720441Y-113266282D01*
X63718403Y-113254035D01*
X63599998Y-113034593D01*
X63518538Y-112959293D01*
X63449213Y-112889968D01*
X63449525Y-112866103D01*
X63373111Y-112603939D01*
X63226855Y-112374806D01*
X63022169Y-112195931D01*
X62890604Y-112135000D01*
X67409316Y-112135000D01*
X67520743Y-112583580D01*
X67626739Y-112825620D01*
X67772002Y-113046340D01*
X67952376Y-113239430D01*
X68162704Y-113399367D01*
X68396974Y-113521580D01*
X68648486Y-113602574D01*
X68945000Y-113645038D01*
X68945000Y-112135000D01*
X67409316Y-112135000D01*
X62890604Y-112135000D01*
X62775505Y-112081695D01*
X62506693Y-112041281D01*
X62237344Y-112077938D01*
X61989109Y-112188718D01*
X61781944Y-112364719D01*
X61632504Y-112591788D01*
X61552801Y-112851672D01*
X61549243Y-113123482D01*
X54249000Y-113123482D01*
X54249000Y-96260244D01*
X54981793Y-95527451D01*
X55018145Y-95581855D01*
X55216282Y-95714245D01*
X55430400Y-95756836D01*
X57169600Y-95756836D01*
X57383718Y-95714245D01*
X57581855Y-95581855D01*
X57714245Y-95383718D01*
X57756836Y-95169600D01*
X57756836Y-93430400D01*
X57714245Y-93216282D01*
X57664986Y-93142559D01*
X58598633Y-93142559D01*
X58635722Y-93520818D01*
X58714744Y-93892584D01*
X58834712Y-94253226D01*
X58994135Y-94598247D01*
X59191023Y-94923347D01*
X59422922Y-95224474D01*
X59686942Y-95497875D01*
X59979793Y-95740142D01*
X60297824Y-95948256D01*
X60637071Y-96119622D01*
X60993305Y-96252104D01*
X61362088Y-96344052D01*
X61738821Y-96394319D01*
X62118810Y-96402279D01*
X62497318Y-96367832D01*
X62869627Y-96291408D01*
X63231098Y-96173959D01*
X63577223Y-96016950D01*
X63903690Y-95822336D01*
X64206429Y-95592545D01*
X64481666Y-95330440D01*
X64725972Y-95039288D01*
X64936301Y-94722717D01*
X65110032Y-94384675D01*
X65244997Y-94029373D01*
X65339517Y-93661242D01*
X65392607Y-93283488D01*
X65399200Y-92811350D01*
X65356679Y-92432260D01*
X65272474Y-92061634D01*
X65147481Y-91702702D01*
X64983257Y-91359940D01*
X64781850Y-91037621D01*
X64545768Y-90739761D01*
X64277957Y-90470073D01*
X63981752Y-90231918D01*
X63660847Y-90028265D01*
X63319240Y-89861653D01*
X62961190Y-89734156D01*
X62591160Y-89647367D01*
X62213761Y-89602365D01*
X61833698Y-89599711D01*
X61455708Y-89639440D01*
X61084502Y-89721055D01*
X60724707Y-89843539D01*
X60380807Y-90005366D01*
X60057089Y-90204518D01*
X59757589Y-90438515D01*
X59486038Y-90704437D01*
X59245821Y-90998972D01*
X59039932Y-91318448D01*
X58870939Y-91658883D01*
X58740947Y-92016034D01*
X58651576Y-92385449D01*
X58603940Y-92762525D01*
X58598633Y-93142559D01*
X57664986Y-93142559D01*
X57581855Y-93018145D01*
X57383718Y-92885755D01*
X57251938Y-92859542D01*
X57256378Y-92856316D01*
X57435404Y-92669630D01*
X57578541Y-92454191D01*
X57681265Y-92216810D01*
X57740929Y-91962429D01*
X57749549Y-91633260D01*
X57703280Y-91376107D01*
X57613119Y-91133674D01*
X57481454Y-90911039D01*
X57312444Y-90715239D01*
X57111431Y-90552462D01*
X56884770Y-90427855D01*
X56639626Y-90345354D01*
X56383747Y-90307569D01*
X56125220Y-90315694D01*
X55872217Y-90369471D01*
X55632737Y-90467201D01*
X55414348Y-90605795D01*
X55223953Y-90780872D01*
X55087229Y-90961000D01*
X54299000Y-90961000D01*
X54299000Y-87956836D01*
X54369600Y-87956836D01*
X54583718Y-87914245D01*
X54781855Y-87781855D01*
X54914245Y-87583718D01*
X54956836Y-87369600D01*
X54956836Y-85630400D01*
X54914245Y-85416282D01*
X54781855Y-85218145D01*
X54583718Y-85085755D01*
X54369600Y-85043164D01*
X52630400Y-85043164D01*
X52416282Y-85085755D01*
X52218145Y-85218145D01*
X52085755Y-85416282D01*
X52058236Y-85554630D01*
X51972444Y-85455239D01*
X51771431Y-85292462D01*
X51544770Y-85167855D01*
X51299626Y-85085354D01*
X51043747Y-85047569D01*
X50785220Y-85055694D01*
X50532217Y-85109471D01*
X50292737Y-85207201D01*
X50074348Y-85345795D01*
X49883953Y-85520872D01*
X49753040Y-85693344D01*
X49716997Y-85628454D01*
X49551608Y-85422384D01*
X49353864Y-85247126D01*
X49129417Y-85107692D01*
X48884685Y-85008068D01*
X48475000Y-84917617D01*
X48475000Y-88076593D01*
X48853339Y-88001337D01*
X49100103Y-87906860D01*
X49327420Y-87772156D01*
X49528792Y-87601078D01*
X49698461Y-87398518D01*
X49753937Y-87303391D01*
X49834184Y-87421470D01*
X50015155Y-87606271D01*
X50225992Y-87756105D01*
X50460029Y-87866235D01*
X50709870Y-87933179D01*
X50967617Y-87954823D01*
X51225124Y-87930481D01*
X51474250Y-87860924D01*
X51707122Y-87748350D01*
X51916378Y-87596316D01*
X52058733Y-87447870D01*
X52085755Y-87583718D01*
X52218145Y-87781855D01*
X52416282Y-87914245D01*
X52630400Y-87956836D01*
X52701000Y-87956836D01*
X52701001Y-91169043D01*
X51525056Y-92344989D01*
X51525054Y-92344990D01*
X51468412Y-92401632D01*
X50429045Y-93441000D01*
X49911001Y-93441000D01*
X49881454Y-93391039D01*
X49712444Y-93195239D01*
X49646203Y-93141599D01*
X49783718Y-93114245D01*
X49981855Y-92981855D01*
X50114245Y-92783718D01*
X50156836Y-92569600D01*
X50156836Y-90830400D01*
X50114245Y-90616282D01*
X49981855Y-90418145D01*
X49783718Y-90285755D01*
X49569600Y-90243164D01*
X47830400Y-90243164D01*
X47616282Y-90285755D01*
X47418145Y-90418145D01*
X47285755Y-90616282D01*
X47249000Y-90801061D01*
X47249000Y-89586654D01*
X47362445Y-89418780D01*
X47445695Y-89158706D01*
X47449525Y-88866104D01*
X47373111Y-88603939D01*
X47226855Y-88374806D01*
X47022169Y-88195931D01*
X46775505Y-88081695D01*
X46506693Y-88041281D01*
X46237344Y-88077938D01*
X45989109Y-88188718D01*
X45781944Y-88364719D01*
X45632504Y-88591788D01*
X45552801Y-88851672D01*
X45549243Y-89123482D01*
X45622115Y-89385365D01*
X45751000Y-89592829D01*
X45751000Y-90998698D01*
X45545768Y-90739761D01*
X45277957Y-90470073D01*
X44981752Y-90231918D01*
X44660847Y-90028265D01*
X44319240Y-89861653D01*
X43961190Y-89734156D01*
X43591160Y-89647367D01*
X43213761Y-89602365D01*
X42833698Y-89599711D01*
X42455708Y-89639440D01*
X42084502Y-89721055D01*
X41724707Y-89843539D01*
X41380807Y-90005366D01*
X41057089Y-90204518D01*
X40757589Y-90438515D01*
X40486038Y-90704437D01*
X40245821Y-90998972D01*
X40039932Y-91318448D01*
X39870939Y-91658883D01*
X39740947Y-92016034D01*
X39651576Y-92385449D01*
X39603940Y-92762525D01*
X39598633Y-93142559D01*
X38599000Y-93142559D01*
X38599000Y-85055000D01*
X41385163Y-85055000D01*
X41385163Y-85926199D01*
X41472471Y-86252038D01*
X41638538Y-86449949D01*
X41854461Y-86574612D01*
X42082590Y-86614837D01*
X42945000Y-86614837D01*
X42945000Y-85055000D01*
X43055000Y-85055000D01*
X43055000Y-86614837D01*
X43926199Y-86614837D01*
X44149514Y-86555000D01*
X46829316Y-86555000D01*
X46940743Y-87003580D01*
X47046739Y-87245620D01*
X47192002Y-87466340D01*
X47372376Y-87659430D01*
X47582704Y-87819367D01*
X47816974Y-87941580D01*
X48068486Y-88022574D01*
X48365000Y-88065038D01*
X48365000Y-86555000D01*
X46829316Y-86555000D01*
X44149514Y-86555000D01*
X44252038Y-86527529D01*
X44350392Y-86445000D01*
X46821799Y-86445000D01*
X48365000Y-86445000D01*
X48365000Y-84938151D01*
X48100449Y-84970398D01*
X47847296Y-85046108D01*
X47610518Y-85163387D01*
X47396886Y-85318886D01*
X47212508Y-85508155D01*
X47062655Y-85725784D01*
X46951613Y-85965551D01*
X46821799Y-86445000D01*
X44350392Y-86445000D01*
X44449949Y-86361462D01*
X44574612Y-86145539D01*
X44614837Y-85917410D01*
X44614837Y-85055000D01*
X43055000Y-85055000D01*
X42945000Y-85055000D01*
X41385163Y-85055000D01*
X38599000Y-85055000D01*
X38599000Y-84082590D01*
X41385163Y-84082590D01*
X41385163Y-84945000D01*
X44614837Y-84945000D01*
X44614837Y-84073801D01*
X44527529Y-83747963D01*
X44361462Y-83550052D01*
X44146354Y-83425858D01*
X44232599Y-83323074D01*
X44363744Y-83095924D01*
X44453452Y-82849452D01*
X44498999Y-82591145D01*
X44498999Y-82445000D01*
X66401799Y-82445000D01*
X67945000Y-82445000D01*
X68055000Y-82445000D01*
X69570026Y-82445000D01*
X69512851Y-82108750D01*
X69425301Y-81859444D01*
X69296997Y-81628454D01*
X69131608Y-81422384D01*
X68933864Y-81247126D01*
X68709417Y-81107692D01*
X68464685Y-81008068D01*
X68055000Y-80917617D01*
X68055000Y-82445000D01*
X67945000Y-82445000D01*
X67945000Y-80938151D01*
X67680449Y-80970398D01*
X67427296Y-81046108D01*
X67190518Y-81163387D01*
X66976886Y-81318886D01*
X66792508Y-81508155D01*
X66642655Y-81725784D01*
X66531613Y-81965551D01*
X66401799Y-82445000D01*
X44498999Y-82445000D01*
X44498999Y-82328855D01*
X44453452Y-82070548D01*
X44363744Y-81824076D01*
X44232599Y-81596926D01*
X44064002Y-81395998D01*
X43863074Y-81227401D01*
X43635924Y-81096256D01*
X43389452Y-81006548D01*
X43131145Y-80961001D01*
X42868855Y-80961001D01*
X42610548Y-81006548D01*
X42364076Y-81096256D01*
X42136926Y-81227401D01*
X41935998Y-81395998D01*
X41767401Y-81596926D01*
X41636256Y-81824076D01*
X41546548Y-82070548D01*
X41501001Y-82328855D01*
X41501001Y-82591145D01*
X41546548Y-82849452D01*
X41636256Y-83095924D01*
X41767401Y-83323074D01*
X41866180Y-83440795D01*
X41747963Y-83472471D01*
X41550052Y-83638538D01*
X41425388Y-83854461D01*
X41385163Y-84082590D01*
X38599000Y-84082590D01*
X38599000Y-76584630D01*
X39297019Y-76584630D01*
X39330921Y-76894189D01*
X39408102Y-77195881D01*
X39527022Y-77483691D01*
X39685309Y-77751872D01*
X39879803Y-77995075D01*
X40106624Y-78208447D01*
X40361247Y-78387732D01*
X40638592Y-78529351D01*
X40933124Y-78630478D01*
X41238965Y-78689098D01*
X41550017Y-78704039D01*
X41860069Y-78675003D01*
X42162938Y-78602570D01*
X42452579Y-78488186D01*
X42723214Y-78334131D01*
X42969442Y-78143481D01*
X43186351Y-77920038D01*
X43369612Y-77668263D01*
X43515570Y-77393178D01*
X43621312Y-77100270D01*
X43685368Y-76792308D01*
X43692076Y-76584630D01*
X65297019Y-76584630D01*
X65330921Y-76894189D01*
X65408102Y-77195881D01*
X65527022Y-77483691D01*
X65685309Y-77751872D01*
X65879803Y-77995075D01*
X66106624Y-78208447D01*
X66361247Y-78387732D01*
X66638592Y-78529351D01*
X66933124Y-78630478D01*
X67238965Y-78689098D01*
X67550017Y-78704039D01*
X67860069Y-78675003D01*
X68162938Y-78602570D01*
X68452579Y-78488186D01*
X68723214Y-78334131D01*
X68969442Y-78143481D01*
X69186351Y-77920038D01*
X69369612Y-77668263D01*
X69515570Y-77393178D01*
X69621312Y-77100270D01*
X69685368Y-76792308D01*
X69699677Y-76349329D01*
X69655627Y-76037873D01*
X69569008Y-75738754D01*
X69441106Y-75454822D01*
X69274474Y-75191745D01*
X69072436Y-74954771D01*
X68839024Y-74748629D01*
X68578896Y-74577431D01*
X68297239Y-74444593D01*
X67999677Y-74352767D01*
X67692144Y-74303783D01*
X67380777Y-74298620D01*
X67071790Y-74337380D01*
X66771346Y-74419290D01*
X66485441Y-74542716D01*
X66219779Y-74705195D01*
X65979660Y-74903486D01*
X65769877Y-75133631D01*
X65594615Y-75391039D01*
X65457369Y-75670574D01*
X65360880Y-75966657D01*
X65307072Y-76273383D01*
X65297019Y-76584630D01*
X43692076Y-76584630D01*
X43699677Y-76349329D01*
X43655627Y-76037873D01*
X43569008Y-75738754D01*
X43441106Y-75454822D01*
X43274474Y-75191745D01*
X43072436Y-74954771D01*
X42839024Y-74748629D01*
X42578896Y-74577431D01*
X42297239Y-74444593D01*
X41999677Y-74352767D01*
X41692144Y-74303783D01*
X41380777Y-74298620D01*
X41071790Y-74337380D01*
X40771346Y-74419290D01*
X40485441Y-74542716D01*
X40219779Y-74705195D01*
X39979660Y-74903486D01*
X39769877Y-75133631D01*
X39594615Y-75391039D01*
X39457369Y-75670574D01*
X39360880Y-75966657D01*
X39307072Y-76273383D01*
X39297019Y-76584630D01*
X38599000Y-76584630D01*
X38599000Y-73599000D01*
X70401001Y-73599000D01*
X70401001Y-97502423D01*
M02*
