G04 #@! TF.GenerationSoftware,KiCad,Pcbnew,(5.99.0-492-g30da2b31e)*
G04 #@! TF.CreationDate,2019-12-10T20:32:49+01:00*
G04 #@! TF.ProjectId,gabel,67616265-6c2e-46b6-9963-61645f706362,rev?*
G04 #@! TF.SameCoordinates,Original*
G04 #@! TF.FileFunction,Copper,L1,Top*
G04 #@! TF.FilePolarity,Positive*
%FSLAX46Y46*%
G04 Gerber Fmt 4.6, Leading zero omitted, Abs format (unit mm)*
G04 Created by KiCad (PCBNEW (5.99.0-492-g30da2b31e)) date 2019-12-10 20:32:49*
%MOMM*%
%LPD*%
G04 APERTURE LIST*
%ADD10R,1.250000X1.000000*%
%ADD11R,3.000000X1.000000*%
%ADD12R,0.610000X1.910000*%
%ADD13R,1.910000X0.610000*%
%ADD14R,1.800000X1.800000*%
%ADD15C,1.800000*%
%ADD16R,1.300000X0.700000*%
%ADD17R,0.700000X1.300000*%
%ADD18R,1.700000X1.700000*%
%ADD19O,1.700000X1.700000*%
%ADD20C,5.600000*%
%ADD21R,1.200000X1.200000*%
%ADD22R,1.000000X1.250000*%
%ADD23C,0.700000*%
%ADD24C,0.400000*%
%ADD25C,0.300000*%
%ADD26C,0.200000*%
G04 APERTURE END LIST*
D10*
X53000000Y-94000000D03*
X53000000Y-92000000D03*
X52500000Y-134500000D03*
X52500000Y-136500000D03*
D11*
X58500000Y-85800000D03*
X58500000Y-81200000D03*
D12*
X46595000Y-109780000D03*
X47865000Y-109780000D03*
X49135000Y-109780000D03*
X50405000Y-109780000D03*
X50405000Y-104220000D03*
X49135000Y-104220000D03*
X47865000Y-104220000D03*
X46595000Y-104220000D03*
D13*
X51720000Y-120095000D03*
X51720000Y-121365000D03*
X51720000Y-122635000D03*
X51720000Y-123905000D03*
X57280000Y-123905000D03*
X57280000Y-122635000D03*
X57280000Y-121365000D03*
X57280000Y-120095000D03*
D14*
X43000000Y-85000000D03*
D15*
X43000000Y-82460000D03*
D14*
X43000000Y-125000000D03*
D15*
X43000000Y-122460000D03*
D16*
X45000000Y-88950000D03*
X45000000Y-87050000D03*
X41500000Y-117550000D03*
X41500000Y-119450000D03*
X61500000Y-123450000D03*
X61500000Y-121550000D03*
X64500000Y-123450000D03*
X64500000Y-121550000D03*
X61500000Y-127450000D03*
X61500000Y-125550000D03*
X45500000Y-119050000D03*
X45500000Y-120950000D03*
X47500000Y-123050000D03*
X47500000Y-124950000D03*
X48000000Y-119050000D03*
X48000000Y-120950000D03*
X60000000Y-107050000D03*
X60000000Y-108950000D03*
X57000000Y-106050000D03*
X57000000Y-107950000D03*
D17*
X56450000Y-138500000D03*
X54550000Y-138500000D03*
X56550000Y-98000000D03*
X58450000Y-98000000D03*
X46550000Y-138500000D03*
X48450000Y-138500000D03*
X47050000Y-98000000D03*
X48950000Y-98000000D03*
D18*
X69000000Y-116000000D03*
D19*
X69000000Y-118540000D03*
X69000000Y-121080000D03*
D18*
X69000000Y-107000000D03*
D19*
X69000000Y-109540000D03*
X69000000Y-112080000D03*
D18*
X53500000Y-86500000D03*
D19*
X50960000Y-86500000D03*
X48420000Y-86500000D03*
D18*
X68000000Y-85040000D03*
D19*
X68000000Y-82500000D03*
D18*
X66500000Y-98000000D03*
D19*
X69040000Y-98000000D03*
X66500000Y-100540000D03*
X69040000Y-100540000D03*
X66500000Y-103080000D03*
X69040000Y-103080000D03*
D18*
X48700000Y-131699998D03*
D19*
X48700000Y-134239998D03*
D18*
X48700000Y-91700000D03*
D19*
X48700000Y-94240000D03*
D18*
X56300000Y-134299998D03*
D19*
X56300000Y-131759998D03*
D18*
X56300000Y-94300000D03*
D19*
X56300000Y-91760000D03*
D20*
X62000000Y-132999998D03*
X62000000Y-93000000D03*
X43000000Y-93000000D03*
X43000000Y-132999998D03*
D21*
X59900000Y-111000000D03*
X62100000Y-111000000D03*
X54900000Y-111000000D03*
X57100000Y-111000000D03*
D22*
X57500000Y-117000000D03*
X55500000Y-117000000D03*
D10*
X43500000Y-104000000D03*
X43500000Y-106000000D03*
X43500000Y-110000000D03*
X43500000Y-112000000D03*
D23*
X57500000Y-117500000D03*
X53000000Y-115500000D03*
X52000000Y-115500000D03*
X45000000Y-104000000D03*
X57500000Y-118500000D03*
X61500000Y-128000000D03*
X62500000Y-82000000D03*
X62500000Y-83000000D03*
X62500000Y-84000000D03*
X61500000Y-84000000D03*
X61500000Y-83000000D03*
X61500000Y-82000000D03*
X49500000Y-112500000D03*
X46500000Y-89000000D03*
X63000000Y-118500000D03*
X62500000Y-113000000D03*
X58000000Y-111000000D03*
X63000000Y-111000000D03*
X61500000Y-107000000D03*
X50000000Y-101500000D03*
X45000000Y-110000000D03*
X53500000Y-117000000D03*
X55500000Y-118500000D03*
X54500000Y-118500000D03*
X51500000Y-126000000D03*
X50500000Y-126000000D03*
X49500000Y-126000000D03*
X49500000Y-127000000D03*
X50500000Y-127000000D03*
X51500000Y-127000000D03*
X41000000Y-112000000D03*
X41000000Y-110500000D03*
X41000000Y-109000000D03*
X41000000Y-107500000D03*
X41000000Y-106000000D03*
X52000000Y-138500000D03*
D24*
X57500000Y-116075000D02*
X57500000Y-117500000D01*
D25*
X57500000Y-116075000D02*
X57500000Y-116000000D01*
D24*
X57000000Y-115500000D02*
X57500000Y-116000000D01*
X53000000Y-115500000D02*
X57000000Y-115500000D01*
D25*
X57500000Y-117500000D02*
X57500000Y-118500000D01*
X57500000Y-117000000D02*
X57500000Y-117500000D01*
X53000000Y-115500000D02*
X50500000Y-115500000D01*
X53000000Y-94000000D02*
X56000000Y-94000000D01*
X56000000Y-94000000D02*
X56300000Y-94300000D01*
X49500000Y-100500000D02*
X50000000Y-100000000D01*
X50960000Y-99040000D02*
X50000000Y-100000000D01*
X50960000Y-86500000D02*
X50960000Y-99040000D01*
X52500000Y-134500000D02*
X56099998Y-134500000D01*
X56099998Y-134500000D02*
X56300000Y-134299998D01*
X45000000Y-104000000D02*
X46375000Y-104000000D01*
X43500000Y-104000000D02*
X45000000Y-104000000D01*
X57500000Y-118500000D02*
X57500000Y-119875000D01*
X61500000Y-127450000D02*
X61500000Y-128000000D01*
X50500000Y-115500000D02*
X48000000Y-118000000D01*
X48000000Y-118000000D02*
X48000000Y-119050000D01*
X57500000Y-117000000D02*
X57500000Y-116075000D01*
X62500000Y-84000000D02*
X62500000Y-83000000D01*
X61500000Y-83000000D02*
X61500000Y-84000000D01*
D24*
X63700000Y-81200000D02*
X62200000Y-81200000D01*
X62200000Y-81200000D02*
X58500000Y-81200000D01*
D25*
X62200000Y-81200000D02*
X62200000Y-81300000D01*
X62200000Y-81300000D02*
X61500000Y-82000000D01*
X49500000Y-112500000D02*
X49135000Y-112865000D01*
X49135000Y-112865000D02*
X49135000Y-113135000D01*
X46450000Y-88950000D02*
X46500000Y-89000000D01*
X45000000Y-88950000D02*
X46450000Y-88950000D01*
X43000000Y-82460000D02*
X44272792Y-82460000D01*
X44272792Y-82460000D02*
X45000000Y-83187208D01*
X45000000Y-83187208D02*
X45000000Y-83500000D01*
X45000000Y-87050000D02*
X45000000Y-83500000D01*
D24*
X52000000Y-81000000D02*
X48420000Y-84580000D01*
X48420000Y-84580000D02*
X48420000Y-86500000D01*
X56400000Y-81000000D02*
X52000000Y-81000000D01*
X58500000Y-81200000D02*
X56600000Y-81200000D01*
X56600000Y-81200000D02*
X56400000Y-81000000D01*
X65000000Y-82500000D02*
X63700000Y-81200000D01*
X68000000Y-82500000D02*
X65000000Y-82500000D01*
X63200000Y-85800000D02*
X63960000Y-85040000D01*
X63960000Y-85040000D02*
X68000000Y-85040000D01*
X58500000Y-85800000D02*
X63200000Y-85800000D01*
X54750000Y-86500000D02*
X55450000Y-85800000D01*
X53500000Y-86500000D02*
X54750000Y-86500000D01*
X55450000Y-85800000D02*
X58500000Y-85800000D01*
D26*
X47500000Y-123050000D02*
X48950000Y-123050000D01*
X49365000Y-122635000D02*
X51720000Y-122635000D01*
X48950000Y-123050000D02*
X49365000Y-122635000D01*
X47800000Y-120950000D02*
X47850000Y-121000000D01*
X47500000Y-120950000D02*
X47800000Y-120950000D01*
X47850000Y-121000000D02*
X48000000Y-121000000D01*
X49635000Y-122635000D02*
X51720000Y-122635000D01*
X48000000Y-121000000D02*
X49635000Y-122635000D01*
X47700000Y-120950000D02*
X45500000Y-120950000D01*
X48000000Y-120950000D02*
X47700000Y-120950000D01*
X41500000Y-117550000D02*
X42550000Y-117550000D01*
X44050000Y-119050000D02*
X45500000Y-119050000D01*
X42550000Y-117550000D02*
X44050000Y-119050000D01*
X41500000Y-120960000D02*
X43000000Y-122460000D01*
X41500000Y-119450000D02*
X41500000Y-120960000D01*
D25*
X45500000Y-119050000D02*
X45500000Y-119500000D01*
X45500000Y-119500000D02*
X46000000Y-120000000D01*
X46000000Y-120000000D02*
X50000000Y-120000000D01*
X50095000Y-120095000D02*
X51720000Y-120095000D01*
X50000000Y-120000000D02*
X50095000Y-120095000D01*
X57280000Y-123905000D02*
X59595000Y-123905000D01*
X60050000Y-123450000D02*
X61500000Y-123450000D01*
X59595000Y-123905000D02*
X60050000Y-123450000D01*
X64500000Y-123450000D02*
X61500000Y-123450000D01*
X61500000Y-123450000D02*
X61500000Y-125550000D01*
X57280000Y-121365000D02*
X60365000Y-121365000D01*
X60550000Y-121550000D02*
X61500000Y-121550000D01*
X60365000Y-121365000D02*
X60550000Y-121550000D01*
X57500000Y-119875000D02*
X57280000Y-120095000D01*
X45500000Y-119050000D02*
X45500000Y-116500000D01*
X47865000Y-114135000D02*
X47865000Y-109780000D01*
X45500000Y-116500000D02*
X47865000Y-114135000D01*
X47865000Y-114135000D02*
X62135000Y-114135000D01*
X64000000Y-116000000D02*
X69000000Y-116000000D01*
X62135000Y-114135000D02*
X64000000Y-116000000D01*
X67797919Y-118540000D02*
X67757919Y-118500000D01*
X69000000Y-118540000D02*
X67797919Y-118540000D01*
X67757919Y-118500000D02*
X63000000Y-118500000D01*
X61500000Y-120000000D02*
X61500000Y-121550000D01*
X63000000Y-118500000D02*
X61500000Y-120000000D01*
X62500000Y-113000000D02*
X62000000Y-113500000D01*
X62000000Y-113500000D02*
X49500000Y-113500000D01*
X49135000Y-113135000D02*
X49135000Y-109780000D01*
X49500000Y-113500000D02*
X49135000Y-113135000D01*
X67797919Y-109540000D02*
X67757919Y-109500000D01*
X69000000Y-109540000D02*
X67797919Y-109540000D01*
X67757919Y-109500000D02*
X64000000Y-109500000D01*
X64000000Y-109500000D02*
X61500000Y-107000000D01*
X61500000Y-107000000D02*
X50000000Y-107000000D01*
X49135000Y-106135000D02*
X49135000Y-104220000D01*
X50000000Y-107000000D02*
X49135000Y-106135000D01*
X50405000Y-105475000D02*
X50930000Y-106000000D01*
X50405000Y-104220000D02*
X50405000Y-105475000D01*
X50930000Y-106000000D02*
X62500000Y-106000000D01*
X63500000Y-107000000D02*
X69000000Y-107000000D01*
X62500000Y-106000000D02*
X63500000Y-107000000D01*
X47550000Y-131699998D02*
X47000000Y-132249998D01*
X48700000Y-131699998D02*
X47550000Y-131699998D01*
X47000000Y-132249998D02*
X47000000Y-135000000D01*
X48450000Y-136450000D02*
X48450000Y-138500000D01*
X47000000Y-135000000D02*
X48450000Y-136450000D01*
X48700000Y-134239998D02*
X50760002Y-134239998D01*
X53240002Y-131759998D02*
X56300000Y-131759998D01*
X50760002Y-134239998D02*
X53240002Y-131759998D01*
X56450000Y-134449998D02*
X56300000Y-134299998D01*
X56450000Y-138500000D02*
X56450000Y-134449998D01*
X57450000Y-134299998D02*
X58000000Y-133749998D01*
X56300000Y-134299998D02*
X57450000Y-134299998D01*
X58000000Y-133749998D02*
X58000000Y-129000000D01*
X58000000Y-129000000D02*
X54000000Y-125000000D01*
X54000000Y-122000000D02*
X53365000Y-121365000D01*
X53365000Y-121365000D02*
X51720000Y-121365000D01*
X54000000Y-125000000D02*
X54000000Y-122000000D01*
X43720000Y-109780000D02*
X43500000Y-110000000D01*
X59900000Y-109050000D02*
X60000000Y-108950000D01*
X59900000Y-111000000D02*
X59900000Y-109050000D01*
X57000000Y-107950000D02*
X55550000Y-107950000D01*
X54900000Y-108600000D02*
X54900000Y-111000000D01*
X55550000Y-107950000D02*
X54900000Y-108600000D01*
X57100000Y-111000000D02*
X58000000Y-111000000D01*
X63000000Y-111000000D02*
X62100000Y-111000000D01*
X67839999Y-104660001D02*
X69000000Y-105820002D01*
X69040000Y-100540000D02*
X67839999Y-101740001D01*
X69000000Y-105820002D02*
X69000000Y-107000000D01*
X67839999Y-101740001D02*
X67839999Y-104660001D01*
X47865000Y-102135000D02*
X47865000Y-104220000D01*
X49460000Y-100540000D02*
X47865000Y-102135000D01*
X65297919Y-103080000D02*
X63717919Y-101500000D01*
X66500000Y-103080000D02*
X65297919Y-103080000D01*
X63717919Y-101500000D02*
X50000000Y-101500000D01*
X45220000Y-109780000D02*
X45000000Y-110000000D01*
X45220000Y-109780000D02*
X43720000Y-109780000D01*
X46595000Y-109780000D02*
X45220000Y-109780000D01*
X46375000Y-104000000D02*
X46595000Y-104220000D01*
X66500000Y-100540000D02*
X49500000Y-100500000D01*
X49500000Y-100500000D02*
X49460000Y-100540000D01*
X56550000Y-94550000D02*
X56300000Y-94300000D01*
X56550000Y-98000000D02*
X56550000Y-94550000D01*
X47550000Y-91700000D02*
X48700000Y-91700000D01*
X47000000Y-92250000D02*
X47550000Y-91700000D01*
X47000000Y-95100000D02*
X47000000Y-92250000D01*
X48950000Y-97050000D02*
X47000000Y-95100000D01*
X48950000Y-98000000D02*
X48950000Y-97050000D01*
X53500000Y-120110000D02*
X53500000Y-119000000D01*
X56025000Y-122635000D02*
X53500000Y-120110000D01*
X53500000Y-119000000D02*
X53500000Y-117000000D01*
X57280000Y-122635000D02*
X56025000Y-122635000D01*
X55500000Y-117000000D02*
X55500000Y-118500000D01*
X51720000Y-123905000D02*
X51720000Y-125780000D01*
X51720000Y-125780000D02*
X51500000Y-126000000D01*
X50500000Y-126000000D02*
X49500000Y-126000000D01*
X49500000Y-127000000D02*
X50500000Y-127000000D01*
X43500000Y-112000000D02*
X41000000Y-112000000D01*
X41000000Y-110500000D02*
X41000000Y-109000000D01*
X41000000Y-107500000D02*
X41000000Y-106000000D01*
X54550000Y-138500000D02*
X52000000Y-138500000D01*
G36*
X70401001Y-97502423D02*
G01*
X70353119Y-97373674D01*
X70221454Y-97151039D01*
X70052444Y-96955239D01*
X69851431Y-96792462D01*
X69624770Y-96667855D01*
X69379626Y-96585354D01*
X69123747Y-96547569D01*
X68865220Y-96555694D01*
X68612217Y-96609471D01*
X68372737Y-96707201D01*
X68154348Y-96845795D01*
X67963953Y-97020872D01*
X67941051Y-97051044D01*
X67914245Y-96916282D01*
X67781855Y-96718145D01*
X67583718Y-96585755D01*
X67369600Y-96543164D01*
X65630400Y-96543164D01*
X65416282Y-96585755D01*
X65218145Y-96718145D01*
X65085755Y-96916282D01*
X65043164Y-97130400D01*
X65043164Y-98869600D01*
X65085755Y-99083718D01*
X65218145Y-99281855D01*
X65416282Y-99414245D01*
X65553686Y-99441577D01*
X65423953Y-99560872D01*
X65267571Y-99766898D01*
X65256781Y-99788074D01*
X51304002Y-99755244D01*
X51433129Y-99626117D01*
X51471047Y-99601633D01*
X51521084Y-99538162D01*
X51533562Y-99525684D01*
X51559161Y-99489861D01*
X51630927Y-99398826D01*
X51634692Y-99384166D01*
X51641911Y-99374063D01*
X51713354Y-99135171D01*
X51709000Y-99024340D01*
X51709000Y-92708462D01*
X51747471Y-92852038D01*
X51913538Y-93049949D01*
X51944030Y-93067554D01*
X51943145Y-93068145D01*
X51810755Y-93266282D01*
X51768164Y-93480400D01*
X51768164Y-94519600D01*
X51810755Y-94733718D01*
X51943145Y-94931855D01*
X52141282Y-95064245D01*
X52355400Y-95106836D01*
X53644600Y-95106836D01*
X53858718Y-95064245D01*
X54056855Y-94931855D01*
X54179033Y-94749000D01*
X54843164Y-94749000D01*
X54843164Y-95169600D01*
X54885755Y-95383718D01*
X55018145Y-95581855D01*
X55216282Y-95714245D01*
X55430400Y-95756836D01*
X55801001Y-95756836D01*
X55801000Y-96896192D01*
X55768145Y-96918145D01*
X55635755Y-97116282D01*
X55593164Y-97330400D01*
X55593164Y-98669600D01*
X55635755Y-98883718D01*
X55768145Y-99081855D01*
X55966282Y-99214245D01*
X56180400Y-99256836D01*
X56919600Y-99256836D01*
X57133718Y-99214245D01*
X57331855Y-99081855D01*
X57447487Y-98908798D01*
X57472471Y-99002038D01*
X57638538Y-99199949D01*
X57854461Y-99324612D01*
X58082590Y-99364837D01*
X58395000Y-99364837D01*
X58395000Y-98055000D01*
X58505000Y-98055000D01*
X58505000Y-99364837D01*
X58826199Y-99364837D01*
X59152038Y-99277529D01*
X59349949Y-99111462D01*
X59474612Y-98895539D01*
X59514837Y-98667410D01*
X59514837Y-98055000D01*
X58505000Y-98055000D01*
X58395000Y-98055000D01*
X58395000Y-96635163D01*
X58505000Y-96635163D01*
X58505000Y-97945000D01*
X59514837Y-97945000D01*
X59514837Y-97323801D01*
X59427529Y-96997963D01*
X59261462Y-96800052D01*
X59045539Y-96675388D01*
X58817410Y-96635163D01*
X58505000Y-96635163D01*
X58395000Y-96635163D01*
X58073801Y-96635163D01*
X57747963Y-96722471D01*
X57550052Y-96888538D01*
X57439739Y-97079605D01*
X57331855Y-96918145D01*
X57299000Y-96896192D01*
X57299000Y-95731097D01*
X57383718Y-95714245D01*
X57581855Y-95581855D01*
X57714245Y-95383718D01*
X57756836Y-95169600D01*
X57756836Y-93430400D01*
X57714245Y-93216282D01*
X57664986Y-93142559D01*
X58598633Y-93142559D01*
X58635722Y-93520818D01*
X58714744Y-93892584D01*
X58834712Y-94253226D01*
X58994135Y-94598247D01*
X59191023Y-94923347D01*
X59422922Y-95224474D01*
X59686942Y-95497875D01*
X59979793Y-95740142D01*
X60297824Y-95948256D01*
X60637071Y-96119622D01*
X60993305Y-96252104D01*
X61362088Y-96344052D01*
X61738821Y-96394319D01*
X62118810Y-96402279D01*
X62497318Y-96367832D01*
X62869627Y-96291408D01*
X63231098Y-96173959D01*
X63577223Y-96016950D01*
X63903690Y-95822336D01*
X64206429Y-95592545D01*
X64481666Y-95330440D01*
X64725972Y-95039288D01*
X64936301Y-94722717D01*
X65110032Y-94384675D01*
X65244997Y-94029373D01*
X65339517Y-93661242D01*
X65392607Y-93283488D01*
X65399200Y-92811350D01*
X65356679Y-92432260D01*
X65272474Y-92061634D01*
X65147481Y-91702702D01*
X64983257Y-91359940D01*
X64781850Y-91037621D01*
X64545768Y-90739761D01*
X64277957Y-90470073D01*
X63981752Y-90231918D01*
X63660847Y-90028265D01*
X63319240Y-89861653D01*
X62961190Y-89734156D01*
X62591160Y-89647367D01*
X62213761Y-89602365D01*
X61833698Y-89599711D01*
X61455708Y-89639440D01*
X61084502Y-89721055D01*
X60724707Y-89843539D01*
X60380807Y-90005366D01*
X60057089Y-90204518D01*
X59757589Y-90438515D01*
X59486038Y-90704437D01*
X59245821Y-90998972D01*
X59039932Y-91318448D01*
X58870939Y-91658883D01*
X58740947Y-92016034D01*
X58651576Y-92385449D01*
X58603940Y-92762525D01*
X58598633Y-93142559D01*
X57664986Y-93142559D01*
X57581855Y-93018145D01*
X57383718Y-92885755D01*
X57251938Y-92859542D01*
X57256378Y-92856316D01*
X57435404Y-92669630D01*
X57578541Y-92454191D01*
X57681265Y-92216810D01*
X57740929Y-91962429D01*
X57749549Y-91633260D01*
X57703280Y-91376107D01*
X57613119Y-91133674D01*
X57481454Y-90911039D01*
X57312444Y-90715239D01*
X57111431Y-90552462D01*
X56884770Y-90427855D01*
X56639626Y-90345354D01*
X56383747Y-90307569D01*
X56125220Y-90315694D01*
X55872217Y-90369471D01*
X55632737Y-90467201D01*
X55414348Y-90605795D01*
X55223953Y-90780872D01*
X55067571Y-90986898D01*
X54950144Y-91217361D01*
X54875384Y-91464976D01*
X54845655Y-91721917D01*
X54861897Y-91980061D01*
X54923595Y-92231249D01*
X55028798Y-92467541D01*
X55174184Y-92681470D01*
X55348484Y-92859458D01*
X55216282Y-92885755D01*
X55018145Y-93018145D01*
X54885755Y-93216282D01*
X54878849Y-93251000D01*
X54179033Y-93251000D01*
X54056855Y-93068145D01*
X54051819Y-93064780D01*
X54174949Y-92961462D01*
X54299612Y-92745539D01*
X54339837Y-92517410D01*
X54339837Y-92055000D01*
X52945000Y-92055000D01*
X52945000Y-90785163D01*
X53055000Y-90785163D01*
X53055000Y-91945000D01*
X54339837Y-91945000D01*
X54339837Y-91473801D01*
X54252529Y-91147963D01*
X54086462Y-90950052D01*
X53870539Y-90825388D01*
X53642410Y-90785163D01*
X53055000Y-90785163D01*
X52945000Y-90785163D01*
X52348801Y-90785163D01*
X52022963Y-90872471D01*
X51825052Y-91038538D01*
X51709000Y-91239545D01*
X51709000Y-87746986D01*
X51916378Y-87596316D01*
X52058733Y-87447870D01*
X52085755Y-87583718D01*
X52218145Y-87781855D01*
X52416282Y-87914245D01*
X52630400Y-87956836D01*
X54369600Y-87956836D01*
X54583718Y-87914245D01*
X54781855Y-87781855D01*
X54914245Y-87583718D01*
X54956836Y-87369600D01*
X54956836Y-87276200D01*
X54999981Y-87269367D01*
X55056715Y-87240460D01*
X55117261Y-87220787D01*
X55168761Y-87183370D01*
X55225495Y-87154462D01*
X55405010Y-86974946D01*
X55405011Y-86974944D01*
X55780956Y-86599000D01*
X56479375Y-86599000D01*
X56568145Y-86731855D01*
X56766282Y-86864245D01*
X56980400Y-86906836D01*
X60019600Y-86906836D01*
X60233718Y-86864245D01*
X60431855Y-86731855D01*
X60520625Y-86599000D01*
X63263691Y-86599000D01*
X63263697Y-86598999D01*
X63326548Y-86598999D01*
X63387091Y-86579327D01*
X63449981Y-86569367D01*
X63506715Y-86540460D01*
X63567261Y-86520787D01*
X63618761Y-86483370D01*
X63675495Y-86454462D01*
X63855010Y-86274946D01*
X63855011Y-86274944D01*
X64290956Y-85839000D01*
X66543164Y-85839000D01*
X66543164Y-85909600D01*
X66585755Y-86123718D01*
X66718145Y-86321855D01*
X66916282Y-86454245D01*
X67130400Y-86496836D01*
X68869600Y-86496836D01*
X69083718Y-86454245D01*
X69281855Y-86321855D01*
X69414245Y-86123718D01*
X69456836Y-85909600D01*
X69456836Y-84170400D01*
X69414245Y-83956282D01*
X69281855Y-83758145D01*
X69083718Y-83625755D01*
X69080499Y-83625115D01*
X69108792Y-83601078D01*
X69278461Y-83398518D01*
X69411574Y-83170265D01*
X69504325Y-82922847D01*
X69574829Y-82555000D01*
X66409316Y-82555000D01*
X66520743Y-83003580D01*
X66626739Y-83245620D01*
X66772002Y-83466340D01*
X66920192Y-83624977D01*
X66916282Y-83625755D01*
X66718145Y-83758145D01*
X66585755Y-83956282D01*
X66543164Y-84170400D01*
X66543164Y-84241000D01*
X63896309Y-84241000D01*
X63896303Y-84241001D01*
X63833450Y-84241001D01*
X63772903Y-84260673D01*
X63710018Y-84270634D01*
X63653288Y-84299539D01*
X63592739Y-84319213D01*
X63541232Y-84356634D01*
X63484505Y-84385538D01*
X63428412Y-84441632D01*
X62869045Y-85001000D01*
X60520625Y-85001000D01*
X60431855Y-84868145D01*
X60233718Y-84735755D01*
X60019600Y-84693164D01*
X56980400Y-84693164D01*
X56766282Y-84735755D01*
X56568145Y-84868145D01*
X56479375Y-85001000D01*
X55386309Y-85001000D01*
X55386303Y-85001001D01*
X55323450Y-85001001D01*
X55262903Y-85020673D01*
X55200018Y-85030634D01*
X55143288Y-85059539D01*
X55082738Y-85079213D01*
X55031235Y-85116633D01*
X54974506Y-85145537D01*
X54928414Y-85191630D01*
X54928411Y-85191632D01*
X54829937Y-85290106D01*
X54781855Y-85218145D01*
X54583718Y-85085755D01*
X54369600Y-85043164D01*
X52630400Y-85043164D01*
X52416282Y-85085755D01*
X52218145Y-85218145D01*
X52085755Y-85416282D01*
X52058236Y-85554630D01*
X51972444Y-85455239D01*
X51771431Y-85292462D01*
X51544770Y-85167855D01*
X51299626Y-85085354D01*
X51043747Y-85047569D01*
X50785220Y-85055694D01*
X50532217Y-85109471D01*
X50292737Y-85207201D01*
X50074348Y-85345795D01*
X49883953Y-85520872D01*
X49753040Y-85693344D01*
X49716997Y-85628454D01*
X49551608Y-85422384D01*
X49353864Y-85247126D01*
X49129417Y-85107692D01*
X48884685Y-85008068D01*
X48475000Y-84917617D01*
X48475000Y-88076593D01*
X48853339Y-88001337D01*
X49100103Y-87906860D01*
X49327420Y-87772156D01*
X49528792Y-87601078D01*
X49698461Y-87398518D01*
X49753937Y-87303391D01*
X49834184Y-87421470D01*
X50015155Y-87606271D01*
X50211000Y-87745451D01*
X50211001Y-98729754D01*
X49048605Y-99892150D01*
X49036007Y-99898909D01*
X48959879Y-99980876D01*
X47391874Y-101548881D01*
X47353952Y-101573367D01*
X47303917Y-101636837D01*
X47291437Y-101649317D01*
X47265836Y-101685144D01*
X47194073Y-101776175D01*
X47190308Y-101790835D01*
X47183089Y-101800938D01*
X47111646Y-102039830D01*
X47116000Y-102150661D01*
X47116000Y-102697231D01*
X46919600Y-102658164D01*
X46270400Y-102658164D01*
X46056282Y-102700755D01*
X45858145Y-102833145D01*
X45725755Y-103031282D01*
X45683164Y-103245400D01*
X45683164Y-103251000D01*
X45585184Y-103251000D01*
X45522169Y-103195931D01*
X45275505Y-103081695D01*
X45006693Y-103041281D01*
X44737344Y-103077938D01*
X44603353Y-103137734D01*
X44556855Y-103068145D01*
X44358718Y-102935755D01*
X44144600Y-102893164D01*
X42855400Y-102893164D01*
X42641282Y-102935755D01*
X42443145Y-103068145D01*
X42310755Y-103266282D01*
X42268164Y-103480400D01*
X42268164Y-104519600D01*
X42310755Y-104733718D01*
X42443145Y-104931855D01*
X42448181Y-104935220D01*
X42325052Y-105038538D01*
X42200388Y-105254461D01*
X42160163Y-105482590D01*
X42160163Y-105945000D01*
X44839837Y-105945000D01*
X44839837Y-105473801D01*
X44752529Y-105147963D01*
X44586462Y-104950052D01*
X44555969Y-104932447D01*
X44556855Y-104931855D01*
X44603329Y-104862301D01*
X44713297Y-104914870D01*
X44981594Y-104958565D01*
X45251372Y-104925203D01*
X45500941Y-104817463D01*
X45583552Y-104749000D01*
X45683164Y-104749000D01*
X45683164Y-105194600D01*
X45725755Y-105408718D01*
X45858145Y-105606855D01*
X46056282Y-105739245D01*
X46270400Y-105781836D01*
X46919600Y-105781836D01*
X47133718Y-105739245D01*
X47230000Y-105674912D01*
X47326282Y-105739245D01*
X47540400Y-105781836D01*
X48189600Y-105781836D01*
X48386000Y-105742769D01*
X48386000Y-106055109D01*
X48376501Y-106099231D01*
X48386000Y-106179490D01*
X48386000Y-106197137D01*
X48393229Y-106240572D01*
X48406855Y-106355692D01*
X48414560Y-106368720D01*
X48416598Y-106380965D01*
X48535002Y-106600406D01*
X48616474Y-106675718D01*
X49413883Y-107473129D01*
X49438367Y-107511047D01*
X49501838Y-107561084D01*
X49514316Y-107573562D01*
X49550139Y-107599161D01*
X49641174Y-107670927D01*
X49655835Y-107674692D01*
X49665936Y-107681910D01*
X49904829Y-107753355D01*
X50015676Y-107749000D01*
X54691755Y-107749000D01*
X54426874Y-108013881D01*
X54388952Y-108038367D01*
X54338917Y-108101837D01*
X54326437Y-108114317D01*
X54300836Y-108150144D01*
X54229073Y-108241175D01*
X54225308Y-108255835D01*
X54218089Y-108265938D01*
X54146646Y-108504830D01*
X54151000Y-108615661D01*
X54151001Y-109818903D01*
X54066282Y-109835755D01*
X53868145Y-109968145D01*
X53735755Y-110166282D01*
X53693164Y-110380400D01*
X53693164Y-111619600D01*
X53735755Y-111833718D01*
X53868145Y-112031855D01*
X54066282Y-112164245D01*
X54280400Y-112206836D01*
X55519600Y-112206836D01*
X55733718Y-112164245D01*
X55931855Y-112031855D01*
X55935220Y-112026819D01*
X56038538Y-112149949D01*
X56254461Y-112274612D01*
X56482590Y-112314837D01*
X57045000Y-112314837D01*
X57045000Y-111055000D01*
X57155000Y-111055000D01*
X57155000Y-112314837D01*
X57726199Y-112314837D01*
X58052038Y-112227529D01*
X58249949Y-112061462D01*
X58374612Y-111845539D01*
X58414837Y-111617410D01*
X58414837Y-111055000D01*
X57155000Y-111055000D01*
X57045000Y-111055000D01*
X57045000Y-109685163D01*
X57155000Y-109685163D01*
X57155000Y-110945000D01*
X58414837Y-110945000D01*
X58414837Y-110373801D01*
X58327529Y-110047963D01*
X58161462Y-109850052D01*
X57945539Y-109725388D01*
X57717410Y-109685163D01*
X57155000Y-109685163D01*
X57045000Y-109685163D01*
X56473801Y-109685163D01*
X56147963Y-109772471D01*
X55950052Y-109938538D01*
X55932447Y-109969031D01*
X55931855Y-109968145D01*
X55733718Y-109835755D01*
X55649000Y-109818903D01*
X55649000Y-108910245D01*
X55860245Y-108699000D01*
X55896192Y-108699000D01*
X55918145Y-108731855D01*
X56116282Y-108864245D01*
X56330400Y-108906836D01*
X57669600Y-108906836D01*
X57883718Y-108864245D01*
X58081855Y-108731855D01*
X58214245Y-108533718D01*
X58256836Y-108319600D01*
X58256836Y-107749000D01*
X58862784Y-107749000D01*
X58918145Y-107831855D01*
X59116282Y-107964245D01*
X59296033Y-108000000D01*
X59116282Y-108035755D01*
X58918145Y-108168145D01*
X58785755Y-108366282D01*
X58743164Y-108580400D01*
X58743164Y-109319600D01*
X58785755Y-109533718D01*
X58918145Y-109731855D01*
X59071955Y-109834627D01*
X59066282Y-109835755D01*
X58868145Y-109968145D01*
X58735755Y-110166282D01*
X58693164Y-110380400D01*
X58693164Y-111619600D01*
X58735755Y-111833718D01*
X58868145Y-112031855D01*
X59066282Y-112164245D01*
X59280400Y-112206836D01*
X60519600Y-112206836D01*
X60733718Y-112164245D01*
X60931855Y-112031855D01*
X60935220Y-112026819D01*
X61038538Y-112149949D01*
X61254461Y-112274612D01*
X61482590Y-112314837D01*
X61840658Y-112314837D01*
X61781944Y-112364719D01*
X61632504Y-112591788D01*
X61583676Y-112751000D01*
X50416151Y-112751000D01*
X50445695Y-112658706D01*
X50449525Y-112366104D01*
X50373111Y-112103939D01*
X50226855Y-111874806D01*
X50022169Y-111695931D01*
X49884000Y-111631941D01*
X49884000Y-111414820D01*
X50082590Y-111449837D01*
X50350000Y-111449837D01*
X50350000Y-109835000D01*
X50460000Y-109835000D01*
X50460000Y-111449837D01*
X50736199Y-111449837D01*
X51062038Y-111362529D01*
X51259949Y-111196462D01*
X51384612Y-110980539D01*
X51424837Y-110752410D01*
X51424837Y-109835000D01*
X50460000Y-109835000D01*
X50350000Y-109835000D01*
X50350000Y-108110163D01*
X50460000Y-108110163D01*
X50460000Y-109725000D01*
X51424837Y-109725000D01*
X51424837Y-108798801D01*
X51337529Y-108472963D01*
X51171462Y-108275052D01*
X50955539Y-108150388D01*
X50727410Y-108110163D01*
X50460000Y-108110163D01*
X50350000Y-108110163D01*
X50073801Y-108110163D01*
X49747963Y-108197471D01*
X49672769Y-108260566D01*
X49459600Y-108218164D01*
X48810400Y-108218164D01*
X48596282Y-108260755D01*
X48500000Y-108325088D01*
X48403718Y-108260755D01*
X48189600Y-108218164D01*
X47540400Y-108218164D01*
X47326282Y-108260755D01*
X47230000Y-108325088D01*
X47133718Y-108260755D01*
X46919600Y-108218164D01*
X46270400Y-108218164D01*
X46056282Y-108260755D01*
X45858145Y-108393145D01*
X45725755Y-108591282D01*
X45683164Y-108805400D01*
X45683164Y-109031000D01*
X45299891Y-109031000D01*
X45255769Y-109021501D01*
X45175510Y-109031000D01*
X44501264Y-109031000D01*
X44358718Y-108935755D01*
X44144600Y-108893164D01*
X42855400Y-108893164D01*
X42641282Y-108935755D01*
X42443145Y-109068145D01*
X42310755Y-109266282D01*
X42268164Y-109480400D01*
X42268164Y-110519600D01*
X42310755Y-110733718D01*
X42443145Y-110931855D01*
X42448181Y-110935220D01*
X42325052Y-111038538D01*
X42200388Y-111254461D01*
X42160163Y-111482590D01*
X42160163Y-111945000D01*
X44839837Y-111945000D01*
X44839837Y-111473801D01*
X44752529Y-111147963D01*
X44586462Y-110950052D01*
X44555969Y-110932447D01*
X44556855Y-110931855D01*
X44603329Y-110862301D01*
X44713297Y-110914870D01*
X44981594Y-110958565D01*
X45251372Y-110925203D01*
X45500941Y-110817463D01*
X45683164Y-110666447D01*
X45683164Y-110754600D01*
X45725755Y-110968718D01*
X45858145Y-111166855D01*
X46056282Y-111299245D01*
X46270400Y-111341836D01*
X46919600Y-111341836D01*
X47116001Y-111302769D01*
X47116000Y-113824755D01*
X45026872Y-115913883D01*
X44988954Y-115938367D01*
X44938917Y-116001838D01*
X44926438Y-116014317D01*
X44900834Y-116050146D01*
X44829069Y-116141179D01*
X44825306Y-116155837D01*
X44818090Y-116165935D01*
X44746646Y-116404830D01*
X44751001Y-116515686D01*
X44751000Y-118108958D01*
X44616282Y-118135755D01*
X44418145Y-118268145D01*
X44362784Y-118351000D01*
X44339535Y-118351000D01*
X43065856Y-117077322D01*
X43006240Y-117006274D01*
X42925923Y-116959904D01*
X42849968Y-116906719D01*
X42819805Y-116898636D01*
X42792759Y-116883022D01*
X42701428Y-116866917D01*
X42636168Y-116849431D01*
X42581855Y-116768145D01*
X42383718Y-116635755D01*
X42169600Y-116593164D01*
X40830400Y-116593164D01*
X40616282Y-116635755D01*
X40418145Y-116768145D01*
X40285755Y-116966282D01*
X40243164Y-117180400D01*
X40243164Y-117919600D01*
X40285755Y-118133718D01*
X40418145Y-118331855D01*
X40616282Y-118464245D01*
X40796033Y-118500000D01*
X40616282Y-118535755D01*
X40418145Y-118668145D01*
X40285755Y-118866282D01*
X40243164Y-119080400D01*
X40243164Y-119819600D01*
X40285755Y-120033718D01*
X40418145Y-120231855D01*
X40616282Y-120364245D01*
X40801001Y-120400988D01*
X40801001Y-120929474D01*
X40792918Y-121021861D01*
X40816920Y-121111439D01*
X40833023Y-121202760D01*
X40848636Y-121229801D01*
X40856719Y-121259967D01*
X40909910Y-121335932D01*
X40956276Y-121416240D01*
X41027313Y-121475847D01*
X41566685Y-122015220D01*
X41546547Y-122070548D01*
X41501001Y-122328855D01*
X41501001Y-122591145D01*
X41546548Y-122849452D01*
X41636256Y-123095924D01*
X41767401Y-123323074D01*
X41866180Y-123440795D01*
X41747963Y-123472471D01*
X41550052Y-123638538D01*
X41425388Y-123854461D01*
X41385163Y-124082590D01*
X41385163Y-124945000D01*
X44614837Y-124945000D01*
X44614837Y-124073801D01*
X44527529Y-123747963D01*
X44361462Y-123550052D01*
X44146354Y-123425858D01*
X44232599Y-123323074D01*
X44363744Y-123095924D01*
X44453452Y-122849452D01*
X44498999Y-122591145D01*
X44498999Y-122328855D01*
X44453452Y-122070548D01*
X44363744Y-121824076D01*
X44232599Y-121596926D01*
X44064002Y-121395998D01*
X43863074Y-121227401D01*
X43635924Y-121096256D01*
X43389452Y-121006548D01*
X43131145Y-120961001D01*
X42868855Y-120961001D01*
X42610548Y-121006547D01*
X42555220Y-121026685D01*
X42199000Y-120670466D01*
X42199000Y-120400988D01*
X42383718Y-120364245D01*
X42581855Y-120231855D01*
X42714245Y-120033718D01*
X42756836Y-119819600D01*
X42756836Y-119080400D01*
X42714245Y-118866282D01*
X42581855Y-118668145D01*
X42383718Y-118535755D01*
X42203967Y-118500000D01*
X42383718Y-118464245D01*
X42438864Y-118427398D01*
X43534149Y-119522684D01*
X43593760Y-119593726D01*
X43674079Y-119640097D01*
X43750031Y-119693279D01*
X43780193Y-119701362D01*
X43807242Y-119716978D01*
X43898568Y-119733082D01*
X43988137Y-119757082D01*
X44080514Y-119749000D01*
X44362784Y-119749000D01*
X44418145Y-119831855D01*
X44616282Y-119964245D01*
X44796033Y-120000000D01*
X44616282Y-120035755D01*
X44418145Y-120168145D01*
X44285755Y-120366282D01*
X44243164Y-120580400D01*
X44243164Y-121319600D01*
X44285755Y-121533718D01*
X44418145Y-121731855D01*
X44616282Y-121864245D01*
X44830400Y-121906836D01*
X46169600Y-121906836D01*
X46383718Y-121864245D01*
X46581855Y-121731855D01*
X46637216Y-121649000D01*
X46862784Y-121649000D01*
X46918145Y-121731855D01*
X47116282Y-121864245D01*
X47330400Y-121906836D01*
X47918302Y-121906836D01*
X48104630Y-122093164D01*
X46830400Y-122093164D01*
X46616282Y-122135755D01*
X46418145Y-122268145D01*
X46285755Y-122466282D01*
X46243164Y-122680400D01*
X46243164Y-123419600D01*
X46285755Y-123633718D01*
X46418145Y-123831855D01*
X46591203Y-123947488D01*
X46497963Y-123972471D01*
X46300052Y-124138538D01*
X46175388Y-124354461D01*
X46135163Y-124582590D01*
X46135163Y-124895000D01*
X48864837Y-124895000D01*
X48864837Y-124573801D01*
X48777529Y-124247963D01*
X48611462Y-124050052D01*
X48455488Y-123960000D01*
X50050163Y-123960000D01*
X50050163Y-124236199D01*
X50137471Y-124562038D01*
X50303538Y-124759949D01*
X50519461Y-124884612D01*
X50747590Y-124924837D01*
X51665000Y-124924837D01*
X51665000Y-123960000D01*
X50050163Y-123960000D01*
X48455488Y-123960000D01*
X48420395Y-123939739D01*
X48581855Y-123831855D01*
X48637216Y-123749000D01*
X48919485Y-123749000D01*
X49011861Y-123757082D01*
X49101428Y-123733083D01*
X49192759Y-123716978D01*
X49219805Y-123701364D01*
X49249968Y-123693281D01*
X49325923Y-123640096D01*
X49406240Y-123593726D01*
X49465852Y-123522682D01*
X49653481Y-123335053D01*
X49665517Y-123334000D01*
X50102201Y-123334000D01*
X50090388Y-123354461D01*
X50050163Y-123582590D01*
X50050163Y-123850000D01*
X51775000Y-123850000D01*
X51775000Y-124924837D01*
X52701199Y-124924837D01*
X53027038Y-124837529D01*
X53224949Y-124671462D01*
X53251000Y-124626340D01*
X53251000Y-124920109D01*
X53241501Y-124964231D01*
X53251000Y-125044490D01*
X53251000Y-125062137D01*
X53258229Y-125105572D01*
X53271855Y-125220692D01*
X53279560Y-125233720D01*
X53281598Y-125245965D01*
X53400002Y-125465406D01*
X53481475Y-125540719D01*
X57251001Y-129310246D01*
X57251001Y-130665481D01*
X57111431Y-130552460D01*
X56884770Y-130427853D01*
X56639626Y-130345352D01*
X56383747Y-130307567D01*
X56125220Y-130315692D01*
X55872217Y-130369469D01*
X55632737Y-130467199D01*
X55414348Y-130605793D01*
X55223953Y-130780870D01*
X55067571Y-130986896D01*
X55055290Y-131010998D01*
X53319895Y-131010998D01*
X53275772Y-131001498D01*
X53195507Y-131010998D01*
X53177862Y-131010998D01*
X53134433Y-131018227D01*
X53019310Y-131031853D01*
X53006284Y-131039557D01*
X52994037Y-131041595D01*
X52774595Y-131160000D01*
X52699295Y-131241460D01*
X50449757Y-133490998D01*
X49940571Y-133490998D01*
X49881454Y-133391037D01*
X49712444Y-133195237D01*
X49646203Y-133141597D01*
X49783718Y-133114243D01*
X49981855Y-132981853D01*
X50114245Y-132783716D01*
X50156836Y-132569598D01*
X50156836Y-130830398D01*
X50114245Y-130616280D01*
X49981855Y-130418143D01*
X49783718Y-130285753D01*
X49569600Y-130243162D01*
X47830400Y-130243162D01*
X47616282Y-130285753D01*
X47418145Y-130418143D01*
X47285755Y-130616280D01*
X47243164Y-130830398D01*
X47243164Y-131014440D01*
X47084593Y-131100000D01*
X47009293Y-131181459D01*
X46526873Y-131663880D01*
X46488954Y-131688364D01*
X46438914Y-131751838D01*
X46426434Y-131764320D01*
X46400836Y-131800141D01*
X46329073Y-131891173D01*
X46325308Y-131905833D01*
X46318089Y-131915936D01*
X46273356Y-132065514D01*
X46272474Y-132061632D01*
X46147481Y-131702700D01*
X45983257Y-131359938D01*
X45781850Y-131037619D01*
X45545768Y-130739759D01*
X45277957Y-130470071D01*
X44981752Y-130231916D01*
X44660847Y-130028263D01*
X44319240Y-129861651D01*
X43961190Y-129734154D01*
X43591160Y-129647365D01*
X43213761Y-129602363D01*
X42833698Y-129599709D01*
X42455708Y-129639438D01*
X42084502Y-129721053D01*
X41724707Y-129843537D01*
X41380807Y-130005364D01*
X41057089Y-130204516D01*
X40757589Y-130438513D01*
X40486038Y-130704435D01*
X40245821Y-130998970D01*
X40039932Y-131318446D01*
X39870939Y-131658881D01*
X39740947Y-132016032D01*
X39651576Y-132385447D01*
X39603940Y-132762523D01*
X39598633Y-133142557D01*
X39635722Y-133520816D01*
X39714744Y-133892582D01*
X39834712Y-134253224D01*
X39994135Y-134598245D01*
X40191023Y-134923345D01*
X40422922Y-135224472D01*
X40686942Y-135497873D01*
X40979793Y-135740140D01*
X41297824Y-135948254D01*
X41637071Y-136119620D01*
X41993305Y-136252102D01*
X42362088Y-136344050D01*
X42738821Y-136394317D01*
X43118810Y-136402277D01*
X43497318Y-136367830D01*
X43869627Y-136291406D01*
X44231098Y-136173957D01*
X44577223Y-136016948D01*
X44903690Y-135822334D01*
X45206429Y-135592543D01*
X45481666Y-135330438D01*
X45725972Y-135039286D01*
X45936301Y-134722715D01*
X46110032Y-134384673D01*
X46244997Y-134029371D01*
X46251001Y-134005988D01*
X46251001Y-134920108D01*
X46241501Y-134964231D01*
X46251001Y-135044498D01*
X46251001Y-135062138D01*
X46258227Y-135105555D01*
X46271855Y-135220691D01*
X46279560Y-135233721D01*
X46281599Y-135245967D01*
X46400003Y-135465407D01*
X46481462Y-135540706D01*
X47701000Y-136760246D01*
X47701001Y-137396192D01*
X47668145Y-137418145D01*
X47552512Y-137591203D01*
X47527529Y-137497963D01*
X47361462Y-137300052D01*
X47145539Y-137175388D01*
X46917410Y-137135163D01*
X46605000Y-137135163D01*
X46605000Y-139864837D01*
X46926199Y-139864837D01*
X47252038Y-139777529D01*
X47449949Y-139611462D01*
X47560262Y-139420395D01*
X47668145Y-139581855D01*
X47866282Y-139714245D01*
X48080400Y-139756836D01*
X48819600Y-139756836D01*
X49033718Y-139714245D01*
X49231855Y-139581855D01*
X49364245Y-139383718D01*
X49406836Y-139169600D01*
X49406836Y-138555000D01*
X53485163Y-138555000D01*
X53485163Y-139176199D01*
X53572471Y-139502038D01*
X53738538Y-139699949D01*
X53954461Y-139824612D01*
X54182590Y-139864837D01*
X54495000Y-139864837D01*
X54495000Y-138555000D01*
X53485163Y-138555000D01*
X49406836Y-138555000D01*
X49406836Y-137830400D01*
X49364245Y-137616282D01*
X49231855Y-137418145D01*
X49199000Y-137396192D01*
X49199000Y-136555000D01*
X51160163Y-136555000D01*
X51160163Y-137026199D01*
X51247471Y-137352038D01*
X51413538Y-137549949D01*
X51629461Y-137674612D01*
X51857590Y-137714837D01*
X52445000Y-137714837D01*
X52445000Y-136555000D01*
X52555000Y-136555000D01*
X52555000Y-137714837D01*
X53151199Y-137714837D01*
X53477038Y-137627529D01*
X53544989Y-137570511D01*
X53525388Y-137604461D01*
X53485163Y-137832590D01*
X53485163Y-138445000D01*
X54495000Y-138445000D01*
X54495000Y-137135163D01*
X54173801Y-137135163D01*
X53847963Y-137222471D01*
X53780010Y-137279490D01*
X53799612Y-137245539D01*
X53839837Y-137017410D01*
X53839837Y-136555000D01*
X52555000Y-136555000D01*
X52445000Y-136555000D01*
X51160163Y-136555000D01*
X49199000Y-136555000D01*
X49199000Y-136529893D01*
X49208500Y-136485770D01*
X49199000Y-136405505D01*
X49199000Y-136387860D01*
X49191771Y-136344431D01*
X49178145Y-136229308D01*
X49170441Y-136216282D01*
X49168403Y-136204035D01*
X49049998Y-135984593D01*
X48968538Y-135909293D01*
X48750054Y-135690809D01*
X48965124Y-135670479D01*
X49214250Y-135600922D01*
X49447122Y-135488348D01*
X49656378Y-135336314D01*
X49835404Y-135149628D01*
X49942126Y-134988998D01*
X50680111Y-134988998D01*
X50724233Y-134998497D01*
X50804492Y-134988998D01*
X50822142Y-134988998D01*
X50865577Y-134981768D01*
X50980693Y-134968143D01*
X50993719Y-134960440D01*
X51005967Y-134958401D01*
X51225408Y-134839996D01*
X51268164Y-134793744D01*
X51268164Y-135019600D01*
X51310755Y-135233718D01*
X51443145Y-135431855D01*
X51448181Y-135435220D01*
X51325052Y-135538538D01*
X51200388Y-135754461D01*
X51160163Y-135982590D01*
X51160163Y-136445000D01*
X53839837Y-136445000D01*
X53839837Y-135973801D01*
X53752529Y-135647963D01*
X53586462Y-135450052D01*
X53555969Y-135432447D01*
X53556855Y-135431855D01*
X53679033Y-135249000D01*
X54858958Y-135249000D01*
X54885755Y-135383716D01*
X55018145Y-135581853D01*
X55216282Y-135714243D01*
X55430400Y-135756834D01*
X55701001Y-135756834D01*
X55701000Y-137396192D01*
X55668145Y-137418145D01*
X55552512Y-137591203D01*
X55527529Y-137497963D01*
X55361462Y-137300052D01*
X55145539Y-137175388D01*
X54917410Y-137135163D01*
X54605000Y-137135163D01*
X54605000Y-139864837D01*
X54926199Y-139864837D01*
X55252038Y-139777529D01*
X55449949Y-139611462D01*
X55560262Y-139420395D01*
X55668145Y-139581855D01*
X55866282Y-139714245D01*
X56080400Y-139756836D01*
X56819600Y-139756836D01*
X57033718Y-139714245D01*
X57231855Y-139581855D01*
X57364245Y-139383718D01*
X57406836Y-139169600D01*
X57406836Y-137830400D01*
X57364245Y-137616282D01*
X57231855Y-137418145D01*
X57199000Y-137396192D01*
X57199000Y-135750986D01*
X57383718Y-135714243D01*
X57581855Y-135581853D01*
X57714245Y-135383716D01*
X57756836Y-135169598D01*
X57756836Y-134985557D01*
X57915407Y-134899996D01*
X57990718Y-134818524D01*
X58473126Y-134336117D01*
X58511047Y-134311631D01*
X58561086Y-134248157D01*
X58573560Y-134235684D01*
X58599153Y-134199871D01*
X58670927Y-134108824D01*
X58674692Y-134094164D01*
X58681911Y-134084061D01*
X58727609Y-133931256D01*
X58834712Y-134253224D01*
X58994135Y-134598245D01*
X59191023Y-134923345D01*
X59422922Y-135224472D01*
X59686942Y-135497873D01*
X59979793Y-135740140D01*
X60297824Y-135948254D01*
X60637071Y-136119620D01*
X60993305Y-136252102D01*
X61362088Y-136344050D01*
X61738821Y-136394317D01*
X62118810Y-136402277D01*
X62497318Y-136367830D01*
X62869627Y-136291406D01*
X63231098Y-136173957D01*
X63577223Y-136016948D01*
X63903690Y-135822334D01*
X64206429Y-135592543D01*
X64481666Y-135330438D01*
X64725972Y-135039286D01*
X64936301Y-134722715D01*
X65110032Y-134384673D01*
X65244997Y-134029371D01*
X65339517Y-133661240D01*
X65392607Y-133283486D01*
X65399200Y-132811348D01*
X65356679Y-132432258D01*
X65272474Y-132061632D01*
X65147481Y-131702700D01*
X64983257Y-131359938D01*
X64781850Y-131037619D01*
X64545768Y-130739759D01*
X64277957Y-130470071D01*
X63981752Y-130231916D01*
X63660847Y-130028263D01*
X63319240Y-129861651D01*
X62961190Y-129734154D01*
X62591160Y-129647365D01*
X62213761Y-129602363D01*
X61833698Y-129599709D01*
X61455708Y-129639438D01*
X61084502Y-129721053D01*
X60724707Y-129843537D01*
X60380807Y-130005364D01*
X60057089Y-130204516D01*
X59757589Y-130438513D01*
X59486038Y-130704435D01*
X59245821Y-130998970D01*
X59039932Y-131318446D01*
X58870939Y-131658881D01*
X58749000Y-131993907D01*
X58749000Y-129079891D01*
X58758499Y-129035769D01*
X58749000Y-128955510D01*
X58749000Y-128937860D01*
X58741769Y-128894420D01*
X58728145Y-128779308D01*
X58720441Y-128766280D01*
X58718402Y-128754034D01*
X58599998Y-128534593D01*
X58518552Y-128459306D01*
X54749000Y-124689755D01*
X54749000Y-122418244D01*
X55438881Y-123108126D01*
X55463367Y-123146047D01*
X55526841Y-123196086D01*
X55539314Y-123208560D01*
X55575127Y-123234153D01*
X55666174Y-123305927D01*
X55680834Y-123309692D01*
X55690937Y-123316911D01*
X55776622Y-123342536D01*
X55760755Y-123366282D01*
X55718164Y-123580400D01*
X55718164Y-124229600D01*
X55760755Y-124443718D01*
X55893145Y-124641855D01*
X56091282Y-124774245D01*
X56305400Y-124816836D01*
X58254600Y-124816836D01*
X58468718Y-124774245D01*
X58648679Y-124654000D01*
X59515109Y-124654000D01*
X59559231Y-124663499D01*
X59639490Y-124654000D01*
X59657140Y-124654000D01*
X59700575Y-124646770D01*
X59815691Y-124633145D01*
X59828717Y-124625442D01*
X59840965Y-124623403D01*
X60060407Y-124504998D01*
X60135717Y-124423527D01*
X60360245Y-124199000D01*
X60396192Y-124199000D01*
X60418145Y-124231855D01*
X60616282Y-124364245D01*
X60751000Y-124391042D01*
X60751001Y-124608958D01*
X60616282Y-124635755D01*
X60418145Y-124768145D01*
X60285755Y-124966282D01*
X60243164Y-125180400D01*
X60243164Y-125919600D01*
X60285755Y-126133718D01*
X60418145Y-126331855D01*
X60616282Y-126464245D01*
X60796033Y-126500000D01*
X60616282Y-126535755D01*
X60418145Y-126668145D01*
X60285755Y-126866282D01*
X60243164Y-127080400D01*
X60243164Y-127819600D01*
X60285755Y-128033718D01*
X60418145Y-128231855D01*
X60616228Y-128364209D01*
X60622115Y-128385365D01*
X60765561Y-128616268D01*
X60968048Y-128797630D01*
X61213297Y-128914870D01*
X61481594Y-128958565D01*
X61751372Y-128925203D01*
X62000941Y-128817463D01*
X62210241Y-128644007D01*
X62362445Y-128418780D01*
X62379642Y-128365056D01*
X62383717Y-128364245D01*
X62581855Y-128231855D01*
X62714245Y-128033718D01*
X62756836Y-127819600D01*
X62756836Y-127080400D01*
X62714245Y-126866282D01*
X62581855Y-126668145D01*
X62383718Y-126535755D01*
X62203967Y-126500000D01*
X62383718Y-126464245D01*
X62581855Y-126331855D01*
X62714245Y-126133718D01*
X62756836Y-125919600D01*
X62756836Y-125180400D01*
X62714245Y-124966282D01*
X62581855Y-124768145D01*
X62383718Y-124635755D01*
X62249000Y-124608958D01*
X62249000Y-124391042D01*
X62383718Y-124364245D01*
X62581855Y-124231855D01*
X62603808Y-124199000D01*
X63396192Y-124199000D01*
X63418145Y-124231855D01*
X63616282Y-124364245D01*
X63830400Y-124406836D01*
X65169600Y-124406836D01*
X65383718Y-124364245D01*
X65581855Y-124231855D01*
X65714245Y-124033718D01*
X65756836Y-123819600D01*
X65756836Y-123080400D01*
X65714245Y-122866282D01*
X65581855Y-122668145D01*
X65408798Y-122552513D01*
X65502038Y-122527529D01*
X65699949Y-122361462D01*
X65824612Y-122145539D01*
X65864837Y-121917410D01*
X65864837Y-121605000D01*
X63135163Y-121605000D01*
X63135163Y-121926199D01*
X63222471Y-122252038D01*
X63388538Y-122449949D01*
X63579605Y-122560262D01*
X63418145Y-122668145D01*
X63396192Y-122701000D01*
X62603808Y-122701000D01*
X62581855Y-122668145D01*
X62383718Y-122535755D01*
X62203967Y-122500000D01*
X62383718Y-122464245D01*
X62581855Y-122331855D01*
X62714245Y-122133718D01*
X62756836Y-121919600D01*
X62756836Y-121182590D01*
X63135163Y-121182590D01*
X63135163Y-121495000D01*
X64445000Y-121495000D01*
X64445000Y-120485163D01*
X64555000Y-120485163D01*
X64555000Y-121495000D01*
X65864837Y-121495000D01*
X65864837Y-121173801D01*
X65854441Y-121135000D01*
X67409316Y-121135000D01*
X67520743Y-121583580D01*
X67626739Y-121825620D01*
X67772002Y-122046340D01*
X67952376Y-122239430D01*
X68162704Y-122399367D01*
X68396974Y-122521580D01*
X68648486Y-122602574D01*
X68945000Y-122645038D01*
X68945000Y-121135000D01*
X67409316Y-121135000D01*
X65854441Y-121135000D01*
X65777529Y-120847963D01*
X65611462Y-120650052D01*
X65395539Y-120525388D01*
X65167410Y-120485163D01*
X64555000Y-120485163D01*
X64445000Y-120485163D01*
X63823801Y-120485163D01*
X63497963Y-120572471D01*
X63300052Y-120738538D01*
X63175388Y-120954461D01*
X63135163Y-121182590D01*
X62756836Y-121182590D01*
X62756836Y-121180400D01*
X62714245Y-120966282D01*
X62581855Y-120768145D01*
X62383718Y-120635755D01*
X62249000Y-120608958D01*
X62249000Y-120310244D01*
X63117484Y-119441760D01*
X63251372Y-119425203D01*
X63500941Y-119317463D01*
X63583552Y-119249000D01*
X67554435Y-119249000D01*
X67702750Y-119293355D01*
X67758446Y-119291167D01*
X67874184Y-119461470D01*
X68055155Y-119646271D01*
X68191280Y-119743010D01*
X68190518Y-119743387D01*
X67976886Y-119898886D01*
X67792508Y-120088155D01*
X67642655Y-120305784D01*
X67531613Y-120545551D01*
X67401799Y-121025000D01*
X69055000Y-121025000D01*
X69055000Y-122656593D01*
X69433339Y-122581337D01*
X69680103Y-122486860D01*
X69907420Y-122352156D01*
X70108792Y-122181078D01*
X70278461Y-121978518D01*
X70401000Y-121768396D01*
X70401000Y-144401000D01*
X38599000Y-144401000D01*
X38599000Y-141584630D01*
X39297019Y-141584630D01*
X39330921Y-141894189D01*
X39408102Y-142195881D01*
X39527022Y-142483691D01*
X39685309Y-142751872D01*
X39879803Y-142995075D01*
X40106624Y-143208447D01*
X40361247Y-143387732D01*
X40638592Y-143529351D01*
X40933124Y-143630478D01*
X41238965Y-143689098D01*
X41550017Y-143704039D01*
X41860069Y-143675003D01*
X42162938Y-143602570D01*
X42452579Y-143488186D01*
X42723214Y-143334131D01*
X42969442Y-143143481D01*
X43186351Y-142920038D01*
X43369612Y-142668263D01*
X43515570Y-142393178D01*
X43621312Y-142100270D01*
X43685368Y-141792308D01*
X43692076Y-141584630D01*
X65297019Y-141584630D01*
X65330921Y-141894189D01*
X65408102Y-142195881D01*
X65527022Y-142483691D01*
X65685309Y-142751872D01*
X65879803Y-142995075D01*
X66106624Y-143208447D01*
X66361247Y-143387732D01*
X66638592Y-143529351D01*
X66933124Y-143630478D01*
X67238965Y-143689098D01*
X67550017Y-143704039D01*
X67860069Y-143675003D01*
X68162938Y-143602570D01*
X68452579Y-143488186D01*
X68723214Y-143334131D01*
X68969442Y-143143481D01*
X69186351Y-142920038D01*
X69369612Y-142668263D01*
X69515570Y-142393178D01*
X69621312Y-142100270D01*
X69685368Y-141792308D01*
X69699677Y-141349329D01*
X69655627Y-141037873D01*
X69569008Y-140738754D01*
X69441106Y-140454822D01*
X69274474Y-140191745D01*
X69072436Y-139954771D01*
X68839024Y-139748629D01*
X68578896Y-139577431D01*
X68297239Y-139444593D01*
X67999677Y-139352767D01*
X67692144Y-139303783D01*
X67380777Y-139298620D01*
X67071790Y-139337380D01*
X66771346Y-139419290D01*
X66485441Y-139542716D01*
X66219779Y-139705195D01*
X65979660Y-139903486D01*
X65769877Y-140133631D01*
X65594615Y-140391039D01*
X65457369Y-140670574D01*
X65360880Y-140966657D01*
X65307072Y-141273383D01*
X65297019Y-141584630D01*
X43692076Y-141584630D01*
X43699677Y-141349329D01*
X43655627Y-141037873D01*
X43569008Y-140738754D01*
X43441106Y-140454822D01*
X43274474Y-140191745D01*
X43072436Y-139954771D01*
X42839024Y-139748629D01*
X42578896Y-139577431D01*
X42297239Y-139444593D01*
X41999677Y-139352767D01*
X41692144Y-139303783D01*
X41380777Y-139298620D01*
X41071790Y-139337380D01*
X40771346Y-139419290D01*
X40485441Y-139542716D01*
X40219779Y-139705195D01*
X39979660Y-139903486D01*
X39769877Y-140133631D01*
X39594615Y-140391039D01*
X39457369Y-140670574D01*
X39360880Y-140966657D01*
X39307072Y-141273383D01*
X39297019Y-141584630D01*
X38599000Y-141584630D01*
X38599000Y-138555000D01*
X45485163Y-138555000D01*
X45485163Y-139176199D01*
X45572471Y-139502038D01*
X45738538Y-139699949D01*
X45954461Y-139824612D01*
X46182590Y-139864837D01*
X46495000Y-139864837D01*
X46495000Y-138555000D01*
X45485163Y-138555000D01*
X38599000Y-138555000D01*
X38599000Y-137832590D01*
X45485163Y-137832590D01*
X45485163Y-138445000D01*
X46495000Y-138445000D01*
X46495000Y-137135163D01*
X46173801Y-137135163D01*
X45847963Y-137222471D01*
X45650052Y-137388538D01*
X45525388Y-137604461D01*
X45485163Y-137832590D01*
X38599000Y-137832590D01*
X38599000Y-125055000D01*
X41385163Y-125055000D01*
X41385163Y-125926199D01*
X41472471Y-126252038D01*
X41638538Y-126449949D01*
X41854461Y-126574612D01*
X42082590Y-126614837D01*
X42945000Y-126614837D01*
X42945000Y-125055000D01*
X43055000Y-125055000D01*
X43055000Y-126614837D01*
X43926199Y-126614837D01*
X44252038Y-126527529D01*
X44449949Y-126361462D01*
X44574612Y-126145539D01*
X44614837Y-125917410D01*
X44614837Y-125055000D01*
X43055000Y-125055000D01*
X42945000Y-125055000D01*
X41385163Y-125055000D01*
X38599000Y-125055000D01*
X38599000Y-125005000D01*
X46135163Y-125005000D01*
X46135163Y-125326199D01*
X46222471Y-125652038D01*
X46388538Y-125849949D01*
X46604461Y-125974612D01*
X46832590Y-126014837D01*
X47445000Y-126014837D01*
X47445000Y-125005000D01*
X47555000Y-125005000D01*
X47555000Y-126014837D01*
X48176199Y-126014837D01*
X48502038Y-125927529D01*
X48699949Y-125761462D01*
X48824612Y-125545539D01*
X48864837Y-125317410D01*
X48864837Y-125005000D01*
X47555000Y-125005000D01*
X47445000Y-125005000D01*
X46135163Y-125005000D01*
X38599000Y-125005000D01*
X38599000Y-112055000D01*
X42160163Y-112055000D01*
X42160163Y-112526199D01*
X42247471Y-112852038D01*
X42413538Y-113049949D01*
X42629461Y-113174612D01*
X42857590Y-113214837D01*
X43445000Y-113214837D01*
X43445000Y-112055000D01*
X43555000Y-112055000D01*
X43555000Y-113214837D01*
X44151199Y-113214837D01*
X44477038Y-113127529D01*
X44674949Y-112961462D01*
X44799612Y-112745539D01*
X44839837Y-112517410D01*
X44839837Y-112055000D01*
X43555000Y-112055000D01*
X43445000Y-112055000D01*
X42160163Y-112055000D01*
X38599000Y-112055000D01*
X38599000Y-106055000D01*
X42160163Y-106055000D01*
X42160163Y-106526199D01*
X42247471Y-106852038D01*
X42413538Y-107049949D01*
X42629461Y-107174612D01*
X42857590Y-107214837D01*
X43445000Y-107214837D01*
X43445000Y-106055000D01*
X43555000Y-106055000D01*
X43555000Y-107214837D01*
X44151199Y-107214837D01*
X44477038Y-107127529D01*
X44674949Y-106961462D01*
X44799612Y-106745539D01*
X44839837Y-106517410D01*
X44839837Y-106055000D01*
X43555000Y-106055000D01*
X43445000Y-106055000D01*
X42160163Y-106055000D01*
X38599000Y-106055000D01*
X38599000Y-98055000D01*
X45985163Y-98055000D01*
X45985163Y-98676199D01*
X46072471Y-99002038D01*
X46238538Y-99199949D01*
X46454461Y-99324612D01*
X46682590Y-99364837D01*
X46995000Y-99364837D01*
X46995000Y-98055000D01*
X45985163Y-98055000D01*
X38599000Y-98055000D01*
X38599000Y-97332590D01*
X45985163Y-97332590D01*
X45985163Y-97945000D01*
X46995000Y-97945000D01*
X46995000Y-96635163D01*
X46673801Y-96635163D01*
X46347963Y-96722471D01*
X46150052Y-96888538D01*
X46025388Y-97104461D01*
X45985163Y-97332590D01*
X38599000Y-97332590D01*
X38599000Y-93142559D01*
X39598633Y-93142559D01*
X39635722Y-93520818D01*
X39714744Y-93892584D01*
X39834712Y-94253226D01*
X39994135Y-94598247D01*
X40191023Y-94923347D01*
X40422922Y-95224474D01*
X40686942Y-95497875D01*
X40979793Y-95740142D01*
X41297824Y-95948256D01*
X41637071Y-96119622D01*
X41993305Y-96252104D01*
X42362088Y-96344052D01*
X42738821Y-96394319D01*
X43118810Y-96402279D01*
X43497318Y-96367832D01*
X43869627Y-96291408D01*
X44231098Y-96173959D01*
X44577223Y-96016950D01*
X44903690Y-95822336D01*
X45206429Y-95592545D01*
X45481666Y-95330440D01*
X45725972Y-95039288D01*
X45936301Y-94722717D01*
X46110032Y-94384675D01*
X46244997Y-94029373D01*
X46251000Y-94005991D01*
X46251000Y-95020109D01*
X46241501Y-95064231D01*
X46251000Y-95144490D01*
X46251000Y-95162137D01*
X46258229Y-95205572D01*
X46271855Y-95320692D01*
X46279560Y-95333720D01*
X46281598Y-95345965D01*
X46400002Y-95565406D01*
X46481475Y-95640719D01*
X47488443Y-96647688D01*
X47417410Y-96635163D01*
X47105000Y-96635163D01*
X47105000Y-99364837D01*
X47426199Y-99364837D01*
X47752038Y-99277529D01*
X47949949Y-99111462D01*
X48060262Y-98920395D01*
X48168145Y-99081855D01*
X48366282Y-99214245D01*
X48580400Y-99256836D01*
X49319600Y-99256836D01*
X49533718Y-99214245D01*
X49731855Y-99081855D01*
X49864245Y-98883718D01*
X49906836Y-98669600D01*
X49906836Y-97330400D01*
X49864245Y-97116282D01*
X49731855Y-96918145D01*
X49684950Y-96886805D01*
X49678145Y-96829308D01*
X49670441Y-96816280D01*
X49668402Y-96804034D01*
X49549998Y-96584593D01*
X49468539Y-96509293D01*
X48649160Y-95689914D01*
X48707617Y-95694823D01*
X48965124Y-95670481D01*
X49214250Y-95600924D01*
X49447122Y-95488350D01*
X49656378Y-95336316D01*
X49835404Y-95149630D01*
X49978541Y-94934191D01*
X50081265Y-94696810D01*
X50140929Y-94442429D01*
X50149549Y-94113260D01*
X50103280Y-93856107D01*
X50013119Y-93613674D01*
X49881454Y-93391039D01*
X49712444Y-93195239D01*
X49646203Y-93141599D01*
X49783718Y-93114245D01*
X49981855Y-92981855D01*
X50114245Y-92783718D01*
X50156836Y-92569600D01*
X50156836Y-90830400D01*
X50114245Y-90616282D01*
X49981855Y-90418145D01*
X49783718Y-90285755D01*
X49569600Y-90243164D01*
X47830400Y-90243164D01*
X47616282Y-90285755D01*
X47418145Y-90418145D01*
X47285755Y-90616282D01*
X47243164Y-90830400D01*
X47243164Y-91014442D01*
X47084593Y-91100002D01*
X47009293Y-91181461D01*
X46526872Y-91663883D01*
X46488954Y-91688367D01*
X46438917Y-91751838D01*
X46426438Y-91764317D01*
X46400834Y-91800146D01*
X46329069Y-91891179D01*
X46325306Y-91905837D01*
X46318090Y-91915935D01*
X46273356Y-92065517D01*
X46272474Y-92061634D01*
X46147481Y-91702702D01*
X45983257Y-91359940D01*
X45781850Y-91037621D01*
X45545768Y-90739761D01*
X45277957Y-90470073D01*
X44981752Y-90231918D01*
X44660847Y-90028265D01*
X44411879Y-89906836D01*
X45669600Y-89906836D01*
X45883718Y-89864245D01*
X45977006Y-89801913D01*
X46213297Y-89914870D01*
X46481594Y-89958565D01*
X46751372Y-89925203D01*
X47000941Y-89817463D01*
X47210241Y-89644007D01*
X47362445Y-89418780D01*
X47445695Y-89158706D01*
X47449525Y-88866104D01*
X47373111Y-88603939D01*
X47226855Y-88374806D01*
X47022169Y-88195931D01*
X46775505Y-88081695D01*
X46506693Y-88041281D01*
X46237344Y-88077938D01*
X46063176Y-88155664D01*
X45883718Y-88035755D01*
X45703967Y-88000000D01*
X45883718Y-87964245D01*
X46081855Y-87831855D01*
X46214245Y-87633718D01*
X46256836Y-87419600D01*
X46256836Y-86680400D01*
X46231893Y-86555000D01*
X46829316Y-86555000D01*
X46940743Y-87003580D01*
X47046739Y-87245620D01*
X47192002Y-87466340D01*
X47372376Y-87659430D01*
X47582704Y-87819367D01*
X47816974Y-87941580D01*
X48068486Y-88022574D01*
X48365000Y-88065038D01*
X48365000Y-86555000D01*
X46829316Y-86555000D01*
X46231893Y-86555000D01*
X46214245Y-86466282D01*
X46200025Y-86445000D01*
X46821799Y-86445000D01*
X48365000Y-86445000D01*
X48365000Y-84938151D01*
X48100449Y-84970398D01*
X47847296Y-85046108D01*
X47610518Y-85163387D01*
X47396886Y-85318886D01*
X47212508Y-85508155D01*
X47062655Y-85725784D01*
X46951613Y-85965551D01*
X46821799Y-86445000D01*
X46200025Y-86445000D01*
X46081855Y-86268145D01*
X45883718Y-86135755D01*
X45749000Y-86108958D01*
X45749000Y-83267099D01*
X45758499Y-83222977D01*
X45749000Y-83142718D01*
X45749000Y-83125068D01*
X45741769Y-83081628D01*
X45728145Y-82966516D01*
X45720441Y-82953488D01*
X45718402Y-82941242D01*
X45599998Y-82721801D01*
X45518539Y-82646501D01*
X45317038Y-82445000D01*
X66401799Y-82445000D01*
X67945000Y-82445000D01*
X68055000Y-82445000D01*
X69570026Y-82445000D01*
X69512851Y-82108750D01*
X69425301Y-81859444D01*
X69296997Y-81628454D01*
X69131608Y-81422384D01*
X68933864Y-81247126D01*
X68709417Y-81107692D01*
X68464685Y-81008068D01*
X68055000Y-80917617D01*
X68055000Y-82445000D01*
X67945000Y-82445000D01*
X67945000Y-80938151D01*
X67680449Y-80970398D01*
X67427296Y-81046108D01*
X67190518Y-81163387D01*
X66976886Y-81318886D01*
X66792508Y-81508155D01*
X66642655Y-81725784D01*
X66531613Y-81965551D01*
X66401799Y-82445000D01*
X45317038Y-82445000D01*
X44858910Y-81986872D01*
X44834424Y-81948952D01*
X44770949Y-81898912D01*
X44758475Y-81886438D01*
X44722660Y-81860844D01*
X44631616Y-81789071D01*
X44616954Y-81785306D01*
X44606854Y-81778089D01*
X44367962Y-81706646D01*
X44297543Y-81709412D01*
X44232599Y-81596926D01*
X44064002Y-81395998D01*
X43895966Y-81255000D01*
X56285163Y-81255000D01*
X56285163Y-81726199D01*
X56372471Y-82052038D01*
X56538538Y-82249949D01*
X56754461Y-82374612D01*
X56982590Y-82414837D01*
X58445000Y-82414837D01*
X58445000Y-81255000D01*
X58555000Y-81255000D01*
X58555000Y-82414837D01*
X60026199Y-82414837D01*
X60352038Y-82327529D01*
X60549949Y-82161462D01*
X60674612Y-81945539D01*
X60714837Y-81717410D01*
X60714837Y-81255000D01*
X58555000Y-81255000D01*
X58445000Y-81255000D01*
X56285163Y-81255000D01*
X43895966Y-81255000D01*
X43863074Y-81227401D01*
X43635924Y-81096256D01*
X43389452Y-81006548D01*
X43131145Y-80961001D01*
X42868855Y-80961001D01*
X42610548Y-81006548D01*
X42364076Y-81096256D01*
X42136926Y-81227401D01*
X41935998Y-81395998D01*
X41767401Y-81596926D01*
X41636256Y-81824076D01*
X41546548Y-82070548D01*
X41501001Y-82328855D01*
X41501001Y-82591145D01*
X41546548Y-82849452D01*
X41636256Y-83095924D01*
X41767401Y-83323074D01*
X41866180Y-83440795D01*
X41747963Y-83472471D01*
X41550052Y-83638538D01*
X41425388Y-83854461D01*
X41385163Y-84082590D01*
X41385163Y-84945000D01*
X43055000Y-84945000D01*
X43055000Y-86614837D01*
X43756205Y-86614837D01*
X43743164Y-86680400D01*
X43743164Y-87419600D01*
X43785755Y-87633718D01*
X43918145Y-87831855D01*
X44116282Y-87964245D01*
X44296033Y-88000000D01*
X44116282Y-88035755D01*
X43918145Y-88168145D01*
X43785755Y-88366282D01*
X43743164Y-88580400D01*
X43743164Y-89319600D01*
X43785755Y-89533718D01*
X43911969Y-89722611D01*
X43591160Y-89647367D01*
X43213761Y-89602365D01*
X42833698Y-89599711D01*
X42455708Y-89639440D01*
X42084502Y-89721055D01*
X41724707Y-89843539D01*
X41380807Y-90005366D01*
X41057089Y-90204518D01*
X40757589Y-90438515D01*
X40486038Y-90704437D01*
X40245821Y-90998972D01*
X40039932Y-91318448D01*
X39870939Y-91658883D01*
X39740947Y-92016034D01*
X39651576Y-92385449D01*
X39603940Y-92762525D01*
X39598633Y-93142559D01*
X38599000Y-93142559D01*
X38599000Y-85055000D01*
X41385163Y-85055000D01*
X41385163Y-85926199D01*
X41472471Y-86252038D01*
X41638538Y-86449949D01*
X41854461Y-86574612D01*
X42082590Y-86614837D01*
X42945000Y-86614837D01*
X42945000Y-85055000D01*
X41385163Y-85055000D01*
X38599000Y-85055000D01*
X38599000Y-80682590D01*
X56285163Y-80682590D01*
X56285163Y-81145000D01*
X58445000Y-81145000D01*
X58445000Y-79985163D01*
X58555000Y-79985163D01*
X58555000Y-81145000D01*
X60714837Y-81145000D01*
X60714837Y-80673801D01*
X60627529Y-80347963D01*
X60461462Y-80150052D01*
X60245539Y-80025388D01*
X60017410Y-79985163D01*
X58555000Y-79985163D01*
X58445000Y-79985163D01*
X56973801Y-79985163D01*
X56647963Y-80072471D01*
X56450052Y-80238538D01*
X56325388Y-80454461D01*
X56285163Y-80682590D01*
X38599000Y-80682590D01*
X38599000Y-76584630D01*
X39297019Y-76584630D01*
X39330921Y-76894189D01*
X39408102Y-77195881D01*
X39527022Y-77483691D01*
X39685309Y-77751872D01*
X39879803Y-77995075D01*
X40106624Y-78208447D01*
X40361247Y-78387732D01*
X40638592Y-78529351D01*
X40933124Y-78630478D01*
X41238965Y-78689098D01*
X41550017Y-78704039D01*
X41860069Y-78675003D01*
X42162938Y-78602570D01*
X42452579Y-78488186D01*
X42723214Y-78334131D01*
X42969442Y-78143481D01*
X43186351Y-77920038D01*
X43369612Y-77668263D01*
X43515570Y-77393178D01*
X43621312Y-77100270D01*
X43685368Y-76792308D01*
X43692076Y-76584630D01*
X65297019Y-76584630D01*
X65330921Y-76894189D01*
X65408102Y-77195881D01*
X65527022Y-77483691D01*
X65685309Y-77751872D01*
X65879803Y-77995075D01*
X66106624Y-78208447D01*
X66361247Y-78387732D01*
X66638592Y-78529351D01*
X66933124Y-78630478D01*
X67238965Y-78689098D01*
X67550017Y-78704039D01*
X67860069Y-78675003D01*
X68162938Y-78602570D01*
X68452579Y-78488186D01*
X68723214Y-78334131D01*
X68969442Y-78143481D01*
X69186351Y-77920038D01*
X69369612Y-77668263D01*
X69515570Y-77393178D01*
X69621312Y-77100270D01*
X69685368Y-76792308D01*
X69699677Y-76349329D01*
X69655627Y-76037873D01*
X69569008Y-75738754D01*
X69441106Y-75454822D01*
X69274474Y-75191745D01*
X69072436Y-74954771D01*
X68839024Y-74748629D01*
X68578896Y-74577431D01*
X68297239Y-74444593D01*
X67999677Y-74352767D01*
X67692144Y-74303783D01*
X67380777Y-74298620D01*
X67071790Y-74337380D01*
X66771346Y-74419290D01*
X66485441Y-74542716D01*
X66219779Y-74705195D01*
X65979660Y-74903486D01*
X65769877Y-75133631D01*
X65594615Y-75391039D01*
X65457369Y-75670574D01*
X65360880Y-75966657D01*
X65307072Y-76273383D01*
X65297019Y-76584630D01*
X43692076Y-76584630D01*
X43699677Y-76349329D01*
X43655627Y-76037873D01*
X43569008Y-75738754D01*
X43441106Y-75454822D01*
X43274474Y-75191745D01*
X43072436Y-74954771D01*
X42839024Y-74748629D01*
X42578896Y-74577431D01*
X42297239Y-74444593D01*
X41999677Y-74352767D01*
X41692144Y-74303783D01*
X41380777Y-74298620D01*
X41071790Y-74337380D01*
X40771346Y-74419290D01*
X40485441Y-74542716D01*
X40219779Y-74705195D01*
X39979660Y-74903486D01*
X39769877Y-75133631D01*
X39594615Y-75391039D01*
X39457369Y-75670574D01*
X39360880Y-75966657D01*
X39307072Y-76273383D01*
X39297019Y-76584630D01*
X38599000Y-76584630D01*
X38599000Y-73599000D01*
X70401001Y-73599000D01*
X70401001Y-97502423D01*
G37*
D24*
X70401001Y-97502423D02*
X70353119Y-97373674D01*
X70221454Y-97151039D01*
X70052444Y-96955239D01*
X69851431Y-96792462D01*
X69624770Y-96667855D01*
X69379626Y-96585354D01*
X69123747Y-96547569D01*
X68865220Y-96555694D01*
X68612217Y-96609471D01*
X68372737Y-96707201D01*
X68154348Y-96845795D01*
X67963953Y-97020872D01*
X67941051Y-97051044D01*
X67914245Y-96916282D01*
X67781855Y-96718145D01*
X67583718Y-96585755D01*
X67369600Y-96543164D01*
X65630400Y-96543164D01*
X65416282Y-96585755D01*
X65218145Y-96718145D01*
X65085755Y-96916282D01*
X65043164Y-97130400D01*
X65043164Y-98869600D01*
X65085755Y-99083718D01*
X65218145Y-99281855D01*
X65416282Y-99414245D01*
X65553686Y-99441577D01*
X65423953Y-99560872D01*
X65267571Y-99766898D01*
X65256781Y-99788074D01*
X51304002Y-99755244D01*
X51433129Y-99626117D01*
X51471047Y-99601633D01*
X51521084Y-99538162D01*
X51533562Y-99525684D01*
X51559161Y-99489861D01*
X51630927Y-99398826D01*
X51634692Y-99384166D01*
X51641911Y-99374063D01*
X51713354Y-99135171D01*
X51709000Y-99024340D01*
X51709000Y-92708462D01*
X51747471Y-92852038D01*
X51913538Y-93049949D01*
X51944030Y-93067554D01*
X51943145Y-93068145D01*
X51810755Y-93266282D01*
X51768164Y-93480400D01*
X51768164Y-94519600D01*
X51810755Y-94733718D01*
X51943145Y-94931855D01*
X52141282Y-95064245D01*
X52355400Y-95106836D01*
X53644600Y-95106836D01*
X53858718Y-95064245D01*
X54056855Y-94931855D01*
X54179033Y-94749000D01*
X54843164Y-94749000D01*
X54843164Y-95169600D01*
X54885755Y-95383718D01*
X55018145Y-95581855D01*
X55216282Y-95714245D01*
X55430400Y-95756836D01*
X55801001Y-95756836D01*
X55801000Y-96896192D01*
X55768145Y-96918145D01*
X55635755Y-97116282D01*
X55593164Y-97330400D01*
X55593164Y-98669600D01*
X55635755Y-98883718D01*
X55768145Y-99081855D01*
X55966282Y-99214245D01*
X56180400Y-99256836D01*
X56919600Y-99256836D01*
X57133718Y-99214245D01*
X57331855Y-99081855D01*
X57447487Y-98908798D01*
X57472471Y-99002038D01*
X57638538Y-99199949D01*
X57854461Y-99324612D01*
X58082590Y-99364837D01*
X58395000Y-99364837D01*
X58395000Y-98055000D01*
X58505000Y-98055000D01*
X58505000Y-99364837D01*
X58826199Y-99364837D01*
X59152038Y-99277529D01*
X59349949Y-99111462D01*
X59474612Y-98895539D01*
X59514837Y-98667410D01*
X59514837Y-98055000D01*
X58505000Y-98055000D01*
X58395000Y-98055000D01*
X58395000Y-96635163D01*
X58505000Y-96635163D01*
X58505000Y-97945000D01*
X59514837Y-97945000D01*
X59514837Y-97323801D01*
X59427529Y-96997963D01*
X59261462Y-96800052D01*
X59045539Y-96675388D01*
X58817410Y-96635163D01*
X58505000Y-96635163D01*
X58395000Y-96635163D01*
X58073801Y-96635163D01*
X57747963Y-96722471D01*
X57550052Y-96888538D01*
X57439739Y-97079605D01*
X57331855Y-96918145D01*
X57299000Y-96896192D01*
X57299000Y-95731097D01*
X57383718Y-95714245D01*
X57581855Y-95581855D01*
X57714245Y-95383718D01*
X57756836Y-95169600D01*
X57756836Y-93430400D01*
X57714245Y-93216282D01*
X57664986Y-93142559D01*
X58598633Y-93142559D01*
X58635722Y-93520818D01*
X58714744Y-93892584D01*
X58834712Y-94253226D01*
X58994135Y-94598247D01*
X59191023Y-94923347D01*
X59422922Y-95224474D01*
X59686942Y-95497875D01*
X59979793Y-95740142D01*
X60297824Y-95948256D01*
X60637071Y-96119622D01*
X60993305Y-96252104D01*
X61362088Y-96344052D01*
X61738821Y-96394319D01*
X62118810Y-96402279D01*
X62497318Y-96367832D01*
X62869627Y-96291408D01*
X63231098Y-96173959D01*
X63577223Y-96016950D01*
X63903690Y-95822336D01*
X64206429Y-95592545D01*
X64481666Y-95330440D01*
X64725972Y-95039288D01*
X64936301Y-94722717D01*
X65110032Y-94384675D01*
X65244997Y-94029373D01*
X65339517Y-93661242D01*
X65392607Y-93283488D01*
X65399200Y-92811350D01*
X65356679Y-92432260D01*
X65272474Y-92061634D01*
X65147481Y-91702702D01*
X64983257Y-91359940D01*
X64781850Y-91037621D01*
X64545768Y-90739761D01*
X64277957Y-90470073D01*
X63981752Y-90231918D01*
X63660847Y-90028265D01*
X63319240Y-89861653D01*
X62961190Y-89734156D01*
X62591160Y-89647367D01*
X62213761Y-89602365D01*
X61833698Y-89599711D01*
X61455708Y-89639440D01*
X61084502Y-89721055D01*
X60724707Y-89843539D01*
X60380807Y-90005366D01*
X60057089Y-90204518D01*
X59757589Y-90438515D01*
X59486038Y-90704437D01*
X59245821Y-90998972D01*
X59039932Y-91318448D01*
X58870939Y-91658883D01*
X58740947Y-92016034D01*
X58651576Y-92385449D01*
X58603940Y-92762525D01*
X58598633Y-93142559D01*
X57664986Y-93142559D01*
X57581855Y-93018145D01*
X57383718Y-92885755D01*
X57251938Y-92859542D01*
X57256378Y-92856316D01*
X57435404Y-92669630D01*
X57578541Y-92454191D01*
X57681265Y-92216810D01*
X57740929Y-91962429D01*
X57749549Y-91633260D01*
X57703280Y-91376107D01*
X57613119Y-91133674D01*
X57481454Y-90911039D01*
X57312444Y-90715239D01*
X57111431Y-90552462D01*
X56884770Y-90427855D01*
X56639626Y-90345354D01*
X56383747Y-90307569D01*
X56125220Y-90315694D01*
X55872217Y-90369471D01*
X55632737Y-90467201D01*
X55414348Y-90605795D01*
X55223953Y-90780872D01*
X55067571Y-90986898D01*
X54950144Y-91217361D01*
X54875384Y-91464976D01*
X54845655Y-91721917D01*
X54861897Y-91980061D01*
X54923595Y-92231249D01*
X55028798Y-92467541D01*
X55174184Y-92681470D01*
X55348484Y-92859458D01*
X55216282Y-92885755D01*
X55018145Y-93018145D01*
X54885755Y-93216282D01*
X54878849Y-93251000D01*
X54179033Y-93251000D01*
X54056855Y-93068145D01*
X54051819Y-93064780D01*
X54174949Y-92961462D01*
X54299612Y-92745539D01*
X54339837Y-92517410D01*
X54339837Y-92055000D01*
X52945000Y-92055000D01*
X52945000Y-90785163D01*
X53055000Y-90785163D01*
X53055000Y-91945000D01*
X54339837Y-91945000D01*
X54339837Y-91473801D01*
X54252529Y-91147963D01*
X54086462Y-90950052D01*
X53870539Y-90825388D01*
X53642410Y-90785163D01*
X53055000Y-90785163D01*
X52945000Y-90785163D01*
X52348801Y-90785163D01*
X52022963Y-90872471D01*
X51825052Y-91038538D01*
X51709000Y-91239545D01*
X51709000Y-87746986D01*
X51916378Y-87596316D01*
X52058733Y-87447870D01*
X52085755Y-87583718D01*
X52218145Y-87781855D01*
X52416282Y-87914245D01*
X52630400Y-87956836D01*
X54369600Y-87956836D01*
X54583718Y-87914245D01*
X54781855Y-87781855D01*
X54914245Y-87583718D01*
X54956836Y-87369600D01*
X54956836Y-87276200D01*
X54999981Y-87269367D01*
X55056715Y-87240460D01*
X55117261Y-87220787D01*
X55168761Y-87183370D01*
X55225495Y-87154462D01*
X55405010Y-86974946D01*
X55405011Y-86974944D01*
X55780956Y-86599000D01*
X56479375Y-86599000D01*
X56568145Y-86731855D01*
X56766282Y-86864245D01*
X56980400Y-86906836D01*
X60019600Y-86906836D01*
X60233718Y-86864245D01*
X60431855Y-86731855D01*
X60520625Y-86599000D01*
X63263691Y-86599000D01*
X63263697Y-86598999D01*
X63326548Y-86598999D01*
X63387091Y-86579327D01*
X63449981Y-86569367D01*
X63506715Y-86540460D01*
X63567261Y-86520787D01*
X63618761Y-86483370D01*
X63675495Y-86454462D01*
X63855010Y-86274946D01*
X63855011Y-86274944D01*
X64290956Y-85839000D01*
X66543164Y-85839000D01*
X66543164Y-85909600D01*
X66585755Y-86123718D01*
X66718145Y-86321855D01*
X66916282Y-86454245D01*
X67130400Y-86496836D01*
X68869600Y-86496836D01*
X69083718Y-86454245D01*
X69281855Y-86321855D01*
X69414245Y-86123718D01*
X69456836Y-85909600D01*
X69456836Y-84170400D01*
X69414245Y-83956282D01*
X69281855Y-83758145D01*
X69083718Y-83625755D01*
X69080499Y-83625115D01*
X69108792Y-83601078D01*
X69278461Y-83398518D01*
X69411574Y-83170265D01*
X69504325Y-82922847D01*
X69574829Y-82555000D01*
X66409316Y-82555000D01*
X66520743Y-83003580D01*
X66626739Y-83245620D01*
X66772002Y-83466340D01*
X66920192Y-83624977D01*
X66916282Y-83625755D01*
X66718145Y-83758145D01*
X66585755Y-83956282D01*
X66543164Y-84170400D01*
X66543164Y-84241000D01*
X63896309Y-84241000D01*
X63896303Y-84241001D01*
X63833450Y-84241001D01*
X63772903Y-84260673D01*
X63710018Y-84270634D01*
X63653288Y-84299539D01*
X63592739Y-84319213D01*
X63541232Y-84356634D01*
X63484505Y-84385538D01*
X63428412Y-84441632D01*
X62869045Y-85001000D01*
X60520625Y-85001000D01*
X60431855Y-84868145D01*
X60233718Y-84735755D01*
X60019600Y-84693164D01*
X56980400Y-84693164D01*
X56766282Y-84735755D01*
X56568145Y-84868145D01*
X56479375Y-85001000D01*
X55386309Y-85001000D01*
X55386303Y-85001001D01*
X55323450Y-85001001D01*
X55262903Y-85020673D01*
X55200018Y-85030634D01*
X55143288Y-85059539D01*
X55082738Y-85079213D01*
X55031235Y-85116633D01*
X54974506Y-85145537D01*
X54928414Y-85191630D01*
X54928411Y-85191632D01*
X54829937Y-85290106D01*
X54781855Y-85218145D01*
X54583718Y-85085755D01*
X54369600Y-85043164D01*
X52630400Y-85043164D01*
X52416282Y-85085755D01*
X52218145Y-85218145D01*
X52085755Y-85416282D01*
X52058236Y-85554630D01*
X51972444Y-85455239D01*
X51771431Y-85292462D01*
X51544770Y-85167855D01*
X51299626Y-85085354D01*
X51043747Y-85047569D01*
X50785220Y-85055694D01*
X50532217Y-85109471D01*
X50292737Y-85207201D01*
X50074348Y-85345795D01*
X49883953Y-85520872D01*
X49753040Y-85693344D01*
X49716997Y-85628454D01*
X49551608Y-85422384D01*
X49353864Y-85247126D01*
X49129417Y-85107692D01*
X48884685Y-85008068D01*
X48475000Y-84917617D01*
X48475000Y-88076593D01*
X48853339Y-88001337D01*
X49100103Y-87906860D01*
X49327420Y-87772156D01*
X49528792Y-87601078D01*
X49698461Y-87398518D01*
X49753937Y-87303391D01*
X49834184Y-87421470D01*
X50015155Y-87606271D01*
X50211000Y-87745451D01*
X50211001Y-98729754D01*
X49048605Y-99892150D01*
X49036007Y-99898909D01*
X48959879Y-99980876D01*
X47391874Y-101548881D01*
X47353952Y-101573367D01*
X47303917Y-101636837D01*
X47291437Y-101649317D01*
X47265836Y-101685144D01*
X47194073Y-101776175D01*
X47190308Y-101790835D01*
X47183089Y-101800938D01*
X47111646Y-102039830D01*
X47116000Y-102150661D01*
X47116000Y-102697231D01*
X46919600Y-102658164D01*
X46270400Y-102658164D01*
X46056282Y-102700755D01*
X45858145Y-102833145D01*
X45725755Y-103031282D01*
X45683164Y-103245400D01*
X45683164Y-103251000D01*
X45585184Y-103251000D01*
X45522169Y-103195931D01*
X45275505Y-103081695D01*
X45006693Y-103041281D01*
X44737344Y-103077938D01*
X44603353Y-103137734D01*
X44556855Y-103068145D01*
X44358718Y-102935755D01*
X44144600Y-102893164D01*
X42855400Y-102893164D01*
X42641282Y-102935755D01*
X42443145Y-103068145D01*
X42310755Y-103266282D01*
X42268164Y-103480400D01*
X42268164Y-104519600D01*
X42310755Y-104733718D01*
X42443145Y-104931855D01*
X42448181Y-104935220D01*
X42325052Y-105038538D01*
X42200388Y-105254461D01*
X42160163Y-105482590D01*
X42160163Y-105945000D01*
X44839837Y-105945000D01*
X44839837Y-105473801D01*
X44752529Y-105147963D01*
X44586462Y-104950052D01*
X44555969Y-104932447D01*
X44556855Y-104931855D01*
X44603329Y-104862301D01*
X44713297Y-104914870D01*
X44981594Y-104958565D01*
X45251372Y-104925203D01*
X45500941Y-104817463D01*
X45583552Y-104749000D01*
X45683164Y-104749000D01*
X45683164Y-105194600D01*
X45725755Y-105408718D01*
X45858145Y-105606855D01*
X46056282Y-105739245D01*
X46270400Y-105781836D01*
X46919600Y-105781836D01*
X47133718Y-105739245D01*
X47230000Y-105674912D01*
X47326282Y-105739245D01*
X47540400Y-105781836D01*
X48189600Y-105781836D01*
X48386000Y-105742769D01*
X48386000Y-106055109D01*
X48376501Y-106099231D01*
X48386000Y-106179490D01*
X48386000Y-106197137D01*
X48393229Y-106240572D01*
X48406855Y-106355692D01*
X48414560Y-106368720D01*
X48416598Y-106380965D01*
X48535002Y-106600406D01*
X48616474Y-106675718D01*
X49413883Y-107473129D01*
X49438367Y-107511047D01*
X49501838Y-107561084D01*
X49514316Y-107573562D01*
X49550139Y-107599161D01*
X49641174Y-107670927D01*
X49655835Y-107674692D01*
X49665936Y-107681910D01*
X49904829Y-107753355D01*
X50015676Y-107749000D01*
X54691755Y-107749000D01*
X54426874Y-108013881D01*
X54388952Y-108038367D01*
X54338917Y-108101837D01*
X54326437Y-108114317D01*
X54300836Y-108150144D01*
X54229073Y-108241175D01*
X54225308Y-108255835D01*
X54218089Y-108265938D01*
X54146646Y-108504830D01*
X54151000Y-108615661D01*
X54151001Y-109818903D01*
X54066282Y-109835755D01*
X53868145Y-109968145D01*
X53735755Y-110166282D01*
X53693164Y-110380400D01*
X53693164Y-111619600D01*
X53735755Y-111833718D01*
X53868145Y-112031855D01*
X54066282Y-112164245D01*
X54280400Y-112206836D01*
X55519600Y-112206836D01*
X55733718Y-112164245D01*
X55931855Y-112031855D01*
X55935220Y-112026819D01*
X56038538Y-112149949D01*
X56254461Y-112274612D01*
X56482590Y-112314837D01*
X57045000Y-112314837D01*
X57045000Y-111055000D01*
X57155000Y-111055000D01*
X57155000Y-112314837D01*
X57726199Y-112314837D01*
X58052038Y-112227529D01*
X58249949Y-112061462D01*
X58374612Y-111845539D01*
X58414837Y-111617410D01*
X58414837Y-111055000D01*
X57155000Y-111055000D01*
X57045000Y-111055000D01*
X57045000Y-109685163D01*
X57155000Y-109685163D01*
X57155000Y-110945000D01*
X58414837Y-110945000D01*
X58414837Y-110373801D01*
X58327529Y-110047963D01*
X58161462Y-109850052D01*
X57945539Y-109725388D01*
X57717410Y-109685163D01*
X57155000Y-109685163D01*
X57045000Y-109685163D01*
X56473801Y-109685163D01*
X56147963Y-109772471D01*
X55950052Y-109938538D01*
X55932447Y-109969031D01*
X55931855Y-109968145D01*
X55733718Y-109835755D01*
X55649000Y-109818903D01*
X55649000Y-108910245D01*
X55860245Y-108699000D01*
X55896192Y-108699000D01*
X55918145Y-108731855D01*
X56116282Y-108864245D01*
X56330400Y-108906836D01*
X57669600Y-108906836D01*
X57883718Y-108864245D01*
X58081855Y-108731855D01*
X58214245Y-108533718D01*
X58256836Y-108319600D01*
X58256836Y-107749000D01*
X58862784Y-107749000D01*
X58918145Y-107831855D01*
X59116282Y-107964245D01*
X59296033Y-108000000D01*
X59116282Y-108035755D01*
X58918145Y-108168145D01*
X58785755Y-108366282D01*
X58743164Y-108580400D01*
X58743164Y-109319600D01*
X58785755Y-109533718D01*
X58918145Y-109731855D01*
X59071955Y-109834627D01*
X59066282Y-109835755D01*
X58868145Y-109968145D01*
X58735755Y-110166282D01*
X58693164Y-110380400D01*
X58693164Y-111619600D01*
X58735755Y-111833718D01*
X58868145Y-112031855D01*
X59066282Y-112164245D01*
X59280400Y-112206836D01*
X60519600Y-112206836D01*
X60733718Y-112164245D01*
X60931855Y-112031855D01*
X60935220Y-112026819D01*
X61038538Y-112149949D01*
X61254461Y-112274612D01*
X61482590Y-112314837D01*
X61840658Y-112314837D01*
X61781944Y-112364719D01*
X61632504Y-112591788D01*
X61583676Y-112751000D01*
X50416151Y-112751000D01*
X50445695Y-112658706D01*
X50449525Y-112366104D01*
X50373111Y-112103939D01*
X50226855Y-111874806D01*
X50022169Y-111695931D01*
X49884000Y-111631941D01*
X49884000Y-111414820D01*
X50082590Y-111449837D01*
X50350000Y-111449837D01*
X50350000Y-109835000D01*
X50460000Y-109835000D01*
X50460000Y-111449837D01*
X50736199Y-111449837D01*
X51062038Y-111362529D01*
X51259949Y-111196462D01*
X51384612Y-110980539D01*
X51424837Y-110752410D01*
X51424837Y-109835000D01*
X50460000Y-109835000D01*
X50350000Y-109835000D01*
X50350000Y-108110163D01*
X50460000Y-108110163D01*
X50460000Y-109725000D01*
X51424837Y-109725000D01*
X51424837Y-108798801D01*
X51337529Y-108472963D01*
X51171462Y-108275052D01*
X50955539Y-108150388D01*
X50727410Y-108110163D01*
X50460000Y-108110163D01*
X50350000Y-108110163D01*
X50073801Y-108110163D01*
X49747963Y-108197471D01*
X49672769Y-108260566D01*
X49459600Y-108218164D01*
X48810400Y-108218164D01*
X48596282Y-108260755D01*
X48500000Y-108325088D01*
X48403718Y-108260755D01*
X48189600Y-108218164D01*
X47540400Y-108218164D01*
X47326282Y-108260755D01*
X47230000Y-108325088D01*
X47133718Y-108260755D01*
X46919600Y-108218164D01*
X46270400Y-108218164D01*
X46056282Y-108260755D01*
X45858145Y-108393145D01*
X45725755Y-108591282D01*
X45683164Y-108805400D01*
X45683164Y-109031000D01*
X45299891Y-109031000D01*
X45255769Y-109021501D01*
X45175510Y-109031000D01*
X44501264Y-109031000D01*
X44358718Y-108935755D01*
X44144600Y-108893164D01*
X42855400Y-108893164D01*
X42641282Y-108935755D01*
X42443145Y-109068145D01*
X42310755Y-109266282D01*
X42268164Y-109480400D01*
X42268164Y-110519600D01*
X42310755Y-110733718D01*
X42443145Y-110931855D01*
X42448181Y-110935220D01*
X42325052Y-111038538D01*
X42200388Y-111254461D01*
X42160163Y-111482590D01*
X42160163Y-111945000D01*
X44839837Y-111945000D01*
X44839837Y-111473801D01*
X44752529Y-111147963D01*
X44586462Y-110950052D01*
X44555969Y-110932447D01*
X44556855Y-110931855D01*
X44603329Y-110862301D01*
X44713297Y-110914870D01*
X44981594Y-110958565D01*
X45251372Y-110925203D01*
X45500941Y-110817463D01*
X45683164Y-110666447D01*
X45683164Y-110754600D01*
X45725755Y-110968718D01*
X45858145Y-111166855D01*
X46056282Y-111299245D01*
X46270400Y-111341836D01*
X46919600Y-111341836D01*
X47116001Y-111302769D01*
X47116000Y-113824755D01*
X45026872Y-115913883D01*
X44988954Y-115938367D01*
X44938917Y-116001838D01*
X44926438Y-116014317D01*
X44900834Y-116050146D01*
X44829069Y-116141179D01*
X44825306Y-116155837D01*
X44818090Y-116165935D01*
X44746646Y-116404830D01*
X44751001Y-116515686D01*
X44751000Y-118108958D01*
X44616282Y-118135755D01*
X44418145Y-118268145D01*
X44362784Y-118351000D01*
X44339535Y-118351000D01*
X43065856Y-117077322D01*
X43006240Y-117006274D01*
X42925923Y-116959904D01*
X42849968Y-116906719D01*
X42819805Y-116898636D01*
X42792759Y-116883022D01*
X42701428Y-116866917D01*
X42636168Y-116849431D01*
X42581855Y-116768145D01*
X42383718Y-116635755D01*
X42169600Y-116593164D01*
X40830400Y-116593164D01*
X40616282Y-116635755D01*
X40418145Y-116768145D01*
X40285755Y-116966282D01*
X40243164Y-117180400D01*
X40243164Y-117919600D01*
X40285755Y-118133718D01*
X40418145Y-118331855D01*
X40616282Y-118464245D01*
X40796033Y-118500000D01*
X40616282Y-118535755D01*
X40418145Y-118668145D01*
X40285755Y-118866282D01*
X40243164Y-119080400D01*
X40243164Y-119819600D01*
X40285755Y-120033718D01*
X40418145Y-120231855D01*
X40616282Y-120364245D01*
X40801001Y-120400988D01*
X40801001Y-120929474D01*
X40792918Y-121021861D01*
X40816920Y-121111439D01*
X40833023Y-121202760D01*
X40848636Y-121229801D01*
X40856719Y-121259967D01*
X40909910Y-121335932D01*
X40956276Y-121416240D01*
X41027313Y-121475847D01*
X41566685Y-122015220D01*
X41546547Y-122070548D01*
X41501001Y-122328855D01*
X41501001Y-122591145D01*
X41546548Y-122849452D01*
X41636256Y-123095924D01*
X41767401Y-123323074D01*
X41866180Y-123440795D01*
X41747963Y-123472471D01*
X41550052Y-123638538D01*
X41425388Y-123854461D01*
X41385163Y-124082590D01*
X41385163Y-124945000D01*
X44614837Y-124945000D01*
X44614837Y-124073801D01*
X44527529Y-123747963D01*
X44361462Y-123550052D01*
X44146354Y-123425858D01*
X44232599Y-123323074D01*
X44363744Y-123095924D01*
X44453452Y-122849452D01*
X44498999Y-122591145D01*
X44498999Y-122328855D01*
X44453452Y-122070548D01*
X44363744Y-121824076D01*
X44232599Y-121596926D01*
X44064002Y-121395998D01*
X43863074Y-121227401D01*
X43635924Y-121096256D01*
X43389452Y-121006548D01*
X43131145Y-120961001D01*
X42868855Y-120961001D01*
X42610548Y-121006547D01*
X42555220Y-121026685D01*
X42199000Y-120670466D01*
X42199000Y-120400988D01*
X42383718Y-120364245D01*
X42581855Y-120231855D01*
X42714245Y-120033718D01*
X42756836Y-119819600D01*
X42756836Y-119080400D01*
X42714245Y-118866282D01*
X42581855Y-118668145D01*
X42383718Y-118535755D01*
X42203967Y-118500000D01*
X42383718Y-118464245D01*
X42438864Y-118427398D01*
X43534149Y-119522684D01*
X43593760Y-119593726D01*
X43674079Y-119640097D01*
X43750031Y-119693279D01*
X43780193Y-119701362D01*
X43807242Y-119716978D01*
X43898568Y-119733082D01*
X43988137Y-119757082D01*
X44080514Y-119749000D01*
X44362784Y-119749000D01*
X44418145Y-119831855D01*
X44616282Y-119964245D01*
X44796033Y-120000000D01*
X44616282Y-120035755D01*
X44418145Y-120168145D01*
X44285755Y-120366282D01*
X44243164Y-120580400D01*
X44243164Y-121319600D01*
X44285755Y-121533718D01*
X44418145Y-121731855D01*
X44616282Y-121864245D01*
X44830400Y-121906836D01*
X46169600Y-121906836D01*
X46383718Y-121864245D01*
X46581855Y-121731855D01*
X46637216Y-121649000D01*
X46862784Y-121649000D01*
X46918145Y-121731855D01*
X47116282Y-121864245D01*
X47330400Y-121906836D01*
X47918302Y-121906836D01*
X48104630Y-122093164D01*
X46830400Y-122093164D01*
X46616282Y-122135755D01*
X46418145Y-122268145D01*
X46285755Y-122466282D01*
X46243164Y-122680400D01*
X46243164Y-123419600D01*
X46285755Y-123633718D01*
X46418145Y-123831855D01*
X46591203Y-123947488D01*
X46497963Y-123972471D01*
X46300052Y-124138538D01*
X46175388Y-124354461D01*
X46135163Y-124582590D01*
X46135163Y-124895000D01*
X48864837Y-124895000D01*
X48864837Y-124573801D01*
X48777529Y-124247963D01*
X48611462Y-124050052D01*
X48455488Y-123960000D01*
X50050163Y-123960000D01*
X50050163Y-124236199D01*
X50137471Y-124562038D01*
X50303538Y-124759949D01*
X50519461Y-124884612D01*
X50747590Y-124924837D01*
X51665000Y-124924837D01*
X51665000Y-123960000D01*
X50050163Y-123960000D01*
X48455488Y-123960000D01*
X48420395Y-123939739D01*
X48581855Y-123831855D01*
X48637216Y-123749000D01*
X48919485Y-123749000D01*
X49011861Y-123757082D01*
X49101428Y-123733083D01*
X49192759Y-123716978D01*
X49219805Y-123701364D01*
X49249968Y-123693281D01*
X49325923Y-123640096D01*
X49406240Y-123593726D01*
X49465852Y-123522682D01*
X49653481Y-123335053D01*
X49665517Y-123334000D01*
X50102201Y-123334000D01*
X50090388Y-123354461D01*
X50050163Y-123582590D01*
X50050163Y-123850000D01*
X51775000Y-123850000D01*
X51775000Y-124924837D01*
X52701199Y-124924837D01*
X53027038Y-124837529D01*
X53224949Y-124671462D01*
X53251000Y-124626340D01*
X53251000Y-124920109D01*
X53241501Y-124964231D01*
X53251000Y-125044490D01*
X53251000Y-125062137D01*
X53258229Y-125105572D01*
X53271855Y-125220692D01*
X53279560Y-125233720D01*
X53281598Y-125245965D01*
X53400002Y-125465406D01*
X53481475Y-125540719D01*
X57251001Y-129310246D01*
X57251001Y-130665481D01*
X57111431Y-130552460D01*
X56884770Y-130427853D01*
X56639626Y-130345352D01*
X56383747Y-130307567D01*
X56125220Y-130315692D01*
X55872217Y-130369469D01*
X55632737Y-130467199D01*
X55414348Y-130605793D01*
X55223953Y-130780870D01*
X55067571Y-130986896D01*
X55055290Y-131010998D01*
X53319895Y-131010998D01*
X53275772Y-131001498D01*
X53195507Y-131010998D01*
X53177862Y-131010998D01*
X53134433Y-131018227D01*
X53019310Y-131031853D01*
X53006284Y-131039557D01*
X52994037Y-131041595D01*
X52774595Y-131160000D01*
X52699295Y-131241460D01*
X50449757Y-133490998D01*
X49940571Y-133490998D01*
X49881454Y-133391037D01*
X49712444Y-133195237D01*
X49646203Y-133141597D01*
X49783718Y-133114243D01*
X49981855Y-132981853D01*
X50114245Y-132783716D01*
X50156836Y-132569598D01*
X50156836Y-130830398D01*
X50114245Y-130616280D01*
X49981855Y-130418143D01*
X49783718Y-130285753D01*
X49569600Y-130243162D01*
X47830400Y-130243162D01*
X47616282Y-130285753D01*
X47418145Y-130418143D01*
X47285755Y-130616280D01*
X47243164Y-130830398D01*
X47243164Y-131014440D01*
X47084593Y-131100000D01*
X47009293Y-131181459D01*
X46526873Y-131663880D01*
X46488954Y-131688364D01*
X46438914Y-131751838D01*
X46426434Y-131764320D01*
X46400836Y-131800141D01*
X46329073Y-131891173D01*
X46325308Y-131905833D01*
X46318089Y-131915936D01*
X46273356Y-132065514D01*
X46272474Y-132061632D01*
X46147481Y-131702700D01*
X45983257Y-131359938D01*
X45781850Y-131037619D01*
X45545768Y-130739759D01*
X45277957Y-130470071D01*
X44981752Y-130231916D01*
X44660847Y-130028263D01*
X44319240Y-129861651D01*
X43961190Y-129734154D01*
X43591160Y-129647365D01*
X43213761Y-129602363D01*
X42833698Y-129599709D01*
X42455708Y-129639438D01*
X42084502Y-129721053D01*
X41724707Y-129843537D01*
X41380807Y-130005364D01*
X41057089Y-130204516D01*
X40757589Y-130438513D01*
X40486038Y-130704435D01*
X40245821Y-130998970D01*
X40039932Y-131318446D01*
X39870939Y-131658881D01*
X39740947Y-132016032D01*
X39651576Y-132385447D01*
X39603940Y-132762523D01*
X39598633Y-133142557D01*
X39635722Y-133520816D01*
X39714744Y-133892582D01*
X39834712Y-134253224D01*
X39994135Y-134598245D01*
X40191023Y-134923345D01*
X40422922Y-135224472D01*
X40686942Y-135497873D01*
X40979793Y-135740140D01*
X41297824Y-135948254D01*
X41637071Y-136119620D01*
X41993305Y-136252102D01*
X42362088Y-136344050D01*
X42738821Y-136394317D01*
X43118810Y-136402277D01*
X43497318Y-136367830D01*
X43869627Y-136291406D01*
X44231098Y-136173957D01*
X44577223Y-136016948D01*
X44903690Y-135822334D01*
X45206429Y-135592543D01*
X45481666Y-135330438D01*
X45725972Y-135039286D01*
X45936301Y-134722715D01*
X46110032Y-134384673D01*
X46244997Y-134029371D01*
X46251001Y-134005988D01*
X46251001Y-134920108D01*
X46241501Y-134964231D01*
X46251001Y-135044498D01*
X46251001Y-135062138D01*
X46258227Y-135105555D01*
X46271855Y-135220691D01*
X46279560Y-135233721D01*
X46281599Y-135245967D01*
X46400003Y-135465407D01*
X46481462Y-135540706D01*
X47701000Y-136760246D01*
X47701001Y-137396192D01*
X47668145Y-137418145D01*
X47552512Y-137591203D01*
X47527529Y-137497963D01*
X47361462Y-137300052D01*
X47145539Y-137175388D01*
X46917410Y-137135163D01*
X46605000Y-137135163D01*
X46605000Y-139864837D01*
X46926199Y-139864837D01*
X47252038Y-139777529D01*
X47449949Y-139611462D01*
X47560262Y-139420395D01*
X47668145Y-139581855D01*
X47866282Y-139714245D01*
X48080400Y-139756836D01*
X48819600Y-139756836D01*
X49033718Y-139714245D01*
X49231855Y-139581855D01*
X49364245Y-139383718D01*
X49406836Y-139169600D01*
X49406836Y-138555000D01*
X53485163Y-138555000D01*
X53485163Y-139176199D01*
X53572471Y-139502038D01*
X53738538Y-139699949D01*
X53954461Y-139824612D01*
X54182590Y-139864837D01*
X54495000Y-139864837D01*
X54495000Y-138555000D01*
X53485163Y-138555000D01*
X49406836Y-138555000D01*
X49406836Y-137830400D01*
X49364245Y-137616282D01*
X49231855Y-137418145D01*
X49199000Y-137396192D01*
X49199000Y-136555000D01*
X51160163Y-136555000D01*
X51160163Y-137026199D01*
X51247471Y-137352038D01*
X51413538Y-137549949D01*
X51629461Y-137674612D01*
X51857590Y-137714837D01*
X52445000Y-137714837D01*
X52445000Y-136555000D01*
X52555000Y-136555000D01*
X52555000Y-137714837D01*
X53151199Y-137714837D01*
X53477038Y-137627529D01*
X53544989Y-137570511D01*
X53525388Y-137604461D01*
X53485163Y-137832590D01*
X53485163Y-138445000D01*
X54495000Y-138445000D01*
X54495000Y-137135163D01*
X54173801Y-137135163D01*
X53847963Y-137222471D01*
X53780010Y-137279490D01*
X53799612Y-137245539D01*
X53839837Y-137017410D01*
X53839837Y-136555000D01*
X52555000Y-136555000D01*
X52445000Y-136555000D01*
X51160163Y-136555000D01*
X49199000Y-136555000D01*
X49199000Y-136529893D01*
X49208500Y-136485770D01*
X49199000Y-136405505D01*
X49199000Y-136387860D01*
X49191771Y-136344431D01*
X49178145Y-136229308D01*
X49170441Y-136216282D01*
X49168403Y-136204035D01*
X49049998Y-135984593D01*
X48968538Y-135909293D01*
X48750054Y-135690809D01*
X48965124Y-135670479D01*
X49214250Y-135600922D01*
X49447122Y-135488348D01*
X49656378Y-135336314D01*
X49835404Y-135149628D01*
X49942126Y-134988998D01*
X50680111Y-134988998D01*
X50724233Y-134998497D01*
X50804492Y-134988998D01*
X50822142Y-134988998D01*
X50865577Y-134981768D01*
X50980693Y-134968143D01*
X50993719Y-134960440D01*
X51005967Y-134958401D01*
X51225408Y-134839996D01*
X51268164Y-134793744D01*
X51268164Y-135019600D01*
X51310755Y-135233718D01*
X51443145Y-135431855D01*
X51448181Y-135435220D01*
X51325052Y-135538538D01*
X51200388Y-135754461D01*
X51160163Y-135982590D01*
X51160163Y-136445000D01*
X53839837Y-136445000D01*
X53839837Y-135973801D01*
X53752529Y-135647963D01*
X53586462Y-135450052D01*
X53555969Y-135432447D01*
X53556855Y-135431855D01*
X53679033Y-135249000D01*
X54858958Y-135249000D01*
X54885755Y-135383716D01*
X55018145Y-135581853D01*
X55216282Y-135714243D01*
X55430400Y-135756834D01*
X55701001Y-135756834D01*
X55701000Y-137396192D01*
X55668145Y-137418145D01*
X55552512Y-137591203D01*
X55527529Y-137497963D01*
X55361462Y-137300052D01*
X55145539Y-137175388D01*
X54917410Y-137135163D01*
X54605000Y-137135163D01*
X54605000Y-139864837D01*
X54926199Y-139864837D01*
X55252038Y-139777529D01*
X55449949Y-139611462D01*
X55560262Y-139420395D01*
X55668145Y-139581855D01*
X55866282Y-139714245D01*
X56080400Y-139756836D01*
X56819600Y-139756836D01*
X57033718Y-139714245D01*
X57231855Y-139581855D01*
X57364245Y-139383718D01*
X57406836Y-139169600D01*
X57406836Y-137830400D01*
X57364245Y-137616282D01*
X57231855Y-137418145D01*
X57199000Y-137396192D01*
X57199000Y-135750986D01*
X57383718Y-135714243D01*
X57581855Y-135581853D01*
X57714245Y-135383716D01*
X57756836Y-135169598D01*
X57756836Y-134985557D01*
X57915407Y-134899996D01*
X57990718Y-134818524D01*
X58473126Y-134336117D01*
X58511047Y-134311631D01*
X58561086Y-134248157D01*
X58573560Y-134235684D01*
X58599153Y-134199871D01*
X58670927Y-134108824D01*
X58674692Y-134094164D01*
X58681911Y-134084061D01*
X58727609Y-133931256D01*
X58834712Y-134253224D01*
X58994135Y-134598245D01*
X59191023Y-134923345D01*
X59422922Y-135224472D01*
X59686942Y-135497873D01*
X59979793Y-135740140D01*
X60297824Y-135948254D01*
X60637071Y-136119620D01*
X60993305Y-136252102D01*
X61362088Y-136344050D01*
X61738821Y-136394317D01*
X62118810Y-136402277D01*
X62497318Y-136367830D01*
X62869627Y-136291406D01*
X63231098Y-136173957D01*
X63577223Y-136016948D01*
X63903690Y-135822334D01*
X64206429Y-135592543D01*
X64481666Y-135330438D01*
X64725972Y-135039286D01*
X64936301Y-134722715D01*
X65110032Y-134384673D01*
X65244997Y-134029371D01*
X65339517Y-133661240D01*
X65392607Y-133283486D01*
X65399200Y-132811348D01*
X65356679Y-132432258D01*
X65272474Y-132061632D01*
X65147481Y-131702700D01*
X64983257Y-131359938D01*
X64781850Y-131037619D01*
X64545768Y-130739759D01*
X64277957Y-130470071D01*
X63981752Y-130231916D01*
X63660847Y-130028263D01*
X63319240Y-129861651D01*
X62961190Y-129734154D01*
X62591160Y-129647365D01*
X62213761Y-129602363D01*
X61833698Y-129599709D01*
X61455708Y-129639438D01*
X61084502Y-129721053D01*
X60724707Y-129843537D01*
X60380807Y-130005364D01*
X60057089Y-130204516D01*
X59757589Y-130438513D01*
X59486038Y-130704435D01*
X59245821Y-130998970D01*
X59039932Y-131318446D01*
X58870939Y-131658881D01*
X58749000Y-131993907D01*
X58749000Y-129079891D01*
X58758499Y-129035769D01*
X58749000Y-128955510D01*
X58749000Y-128937860D01*
X58741769Y-128894420D01*
X58728145Y-128779308D01*
X58720441Y-128766280D01*
X58718402Y-128754034D01*
X58599998Y-128534593D01*
X58518552Y-128459306D01*
X54749000Y-124689755D01*
X54749000Y-122418244D01*
X55438881Y-123108126D01*
X55463367Y-123146047D01*
X55526841Y-123196086D01*
X55539314Y-123208560D01*
X55575127Y-123234153D01*
X55666174Y-123305927D01*
X55680834Y-123309692D01*
X55690937Y-123316911D01*
X55776622Y-123342536D01*
X55760755Y-123366282D01*
X55718164Y-123580400D01*
X55718164Y-124229600D01*
X55760755Y-124443718D01*
X55893145Y-124641855D01*
X56091282Y-124774245D01*
X56305400Y-124816836D01*
X58254600Y-124816836D01*
X58468718Y-124774245D01*
X58648679Y-124654000D01*
X59515109Y-124654000D01*
X59559231Y-124663499D01*
X59639490Y-124654000D01*
X59657140Y-124654000D01*
X59700575Y-124646770D01*
X59815691Y-124633145D01*
X59828717Y-124625442D01*
X59840965Y-124623403D01*
X60060407Y-124504998D01*
X60135717Y-124423527D01*
X60360245Y-124199000D01*
X60396192Y-124199000D01*
X60418145Y-124231855D01*
X60616282Y-124364245D01*
X60751000Y-124391042D01*
X60751001Y-124608958D01*
X60616282Y-124635755D01*
X60418145Y-124768145D01*
X60285755Y-124966282D01*
X60243164Y-125180400D01*
X60243164Y-125919600D01*
X60285755Y-126133718D01*
X60418145Y-126331855D01*
X60616282Y-126464245D01*
X60796033Y-126500000D01*
X60616282Y-126535755D01*
X60418145Y-126668145D01*
X60285755Y-126866282D01*
X60243164Y-127080400D01*
X60243164Y-127819600D01*
X60285755Y-128033718D01*
X60418145Y-128231855D01*
X60616228Y-128364209D01*
X60622115Y-128385365D01*
X60765561Y-128616268D01*
X60968048Y-128797630D01*
X61213297Y-128914870D01*
X61481594Y-128958565D01*
X61751372Y-128925203D01*
X62000941Y-128817463D01*
X62210241Y-128644007D01*
X62362445Y-128418780D01*
X62379642Y-128365056D01*
X62383717Y-128364245D01*
X62581855Y-128231855D01*
X62714245Y-128033718D01*
X62756836Y-127819600D01*
X62756836Y-127080400D01*
X62714245Y-126866282D01*
X62581855Y-126668145D01*
X62383718Y-126535755D01*
X62203967Y-126500000D01*
X62383718Y-126464245D01*
X62581855Y-126331855D01*
X62714245Y-126133718D01*
X62756836Y-125919600D01*
X62756836Y-125180400D01*
X62714245Y-124966282D01*
X62581855Y-124768145D01*
X62383718Y-124635755D01*
X62249000Y-124608958D01*
X62249000Y-124391042D01*
X62383718Y-124364245D01*
X62581855Y-124231855D01*
X62603808Y-124199000D01*
X63396192Y-124199000D01*
X63418145Y-124231855D01*
X63616282Y-124364245D01*
X63830400Y-124406836D01*
X65169600Y-124406836D01*
X65383718Y-124364245D01*
X65581855Y-124231855D01*
X65714245Y-124033718D01*
X65756836Y-123819600D01*
X65756836Y-123080400D01*
X65714245Y-122866282D01*
X65581855Y-122668145D01*
X65408798Y-122552513D01*
X65502038Y-122527529D01*
X65699949Y-122361462D01*
X65824612Y-122145539D01*
X65864837Y-121917410D01*
X65864837Y-121605000D01*
X63135163Y-121605000D01*
X63135163Y-121926199D01*
X63222471Y-122252038D01*
X63388538Y-122449949D01*
X63579605Y-122560262D01*
X63418145Y-122668145D01*
X63396192Y-122701000D01*
X62603808Y-122701000D01*
X62581855Y-122668145D01*
X62383718Y-122535755D01*
X62203967Y-122500000D01*
X62383718Y-122464245D01*
X62581855Y-122331855D01*
X62714245Y-122133718D01*
X62756836Y-121919600D01*
X62756836Y-121182590D01*
X63135163Y-121182590D01*
X63135163Y-121495000D01*
X64445000Y-121495000D01*
X64445000Y-120485163D01*
X64555000Y-120485163D01*
X64555000Y-121495000D01*
X65864837Y-121495000D01*
X65864837Y-121173801D01*
X65854441Y-121135000D01*
X67409316Y-121135000D01*
X67520743Y-121583580D01*
X67626739Y-121825620D01*
X67772002Y-122046340D01*
X67952376Y-122239430D01*
X68162704Y-122399367D01*
X68396974Y-122521580D01*
X68648486Y-122602574D01*
X68945000Y-122645038D01*
X68945000Y-121135000D01*
X67409316Y-121135000D01*
X65854441Y-121135000D01*
X65777529Y-120847963D01*
X65611462Y-120650052D01*
X65395539Y-120525388D01*
X65167410Y-120485163D01*
X64555000Y-120485163D01*
X64445000Y-120485163D01*
X63823801Y-120485163D01*
X63497963Y-120572471D01*
X63300052Y-120738538D01*
X63175388Y-120954461D01*
X63135163Y-121182590D01*
X62756836Y-121182590D01*
X62756836Y-121180400D01*
X62714245Y-120966282D01*
X62581855Y-120768145D01*
X62383718Y-120635755D01*
X62249000Y-120608958D01*
X62249000Y-120310244D01*
X63117484Y-119441760D01*
X63251372Y-119425203D01*
X63500941Y-119317463D01*
X63583552Y-119249000D01*
X67554435Y-119249000D01*
X67702750Y-119293355D01*
X67758446Y-119291167D01*
X67874184Y-119461470D01*
X68055155Y-119646271D01*
X68191280Y-119743010D01*
X68190518Y-119743387D01*
X67976886Y-119898886D01*
X67792508Y-120088155D01*
X67642655Y-120305784D01*
X67531613Y-120545551D01*
X67401799Y-121025000D01*
X69055000Y-121025000D01*
X69055000Y-122656593D01*
X69433339Y-122581337D01*
X69680103Y-122486860D01*
X69907420Y-122352156D01*
X70108792Y-122181078D01*
X70278461Y-121978518D01*
X70401000Y-121768396D01*
X70401000Y-144401000D01*
X38599000Y-144401000D01*
X38599000Y-141584630D01*
X39297019Y-141584630D01*
X39330921Y-141894189D01*
X39408102Y-142195881D01*
X39527022Y-142483691D01*
X39685309Y-142751872D01*
X39879803Y-142995075D01*
X40106624Y-143208447D01*
X40361247Y-143387732D01*
X40638592Y-143529351D01*
X40933124Y-143630478D01*
X41238965Y-143689098D01*
X41550017Y-143704039D01*
X41860069Y-143675003D01*
X42162938Y-143602570D01*
X42452579Y-143488186D01*
X42723214Y-143334131D01*
X42969442Y-143143481D01*
X43186351Y-142920038D01*
X43369612Y-142668263D01*
X43515570Y-142393178D01*
X43621312Y-142100270D01*
X43685368Y-141792308D01*
X43692076Y-141584630D01*
X65297019Y-141584630D01*
X65330921Y-141894189D01*
X65408102Y-142195881D01*
X65527022Y-142483691D01*
X65685309Y-142751872D01*
X65879803Y-142995075D01*
X66106624Y-143208447D01*
X66361247Y-143387732D01*
X66638592Y-143529351D01*
X66933124Y-143630478D01*
X67238965Y-143689098D01*
X67550017Y-143704039D01*
X67860069Y-143675003D01*
X68162938Y-143602570D01*
X68452579Y-143488186D01*
X68723214Y-143334131D01*
X68969442Y-143143481D01*
X69186351Y-142920038D01*
X69369612Y-142668263D01*
X69515570Y-142393178D01*
X69621312Y-142100270D01*
X69685368Y-141792308D01*
X69699677Y-141349329D01*
X69655627Y-141037873D01*
X69569008Y-140738754D01*
X69441106Y-140454822D01*
X69274474Y-140191745D01*
X69072436Y-139954771D01*
X68839024Y-139748629D01*
X68578896Y-139577431D01*
X68297239Y-139444593D01*
X67999677Y-139352767D01*
X67692144Y-139303783D01*
X67380777Y-139298620D01*
X67071790Y-139337380D01*
X66771346Y-139419290D01*
X66485441Y-139542716D01*
X66219779Y-139705195D01*
X65979660Y-139903486D01*
X65769877Y-140133631D01*
X65594615Y-140391039D01*
X65457369Y-140670574D01*
X65360880Y-140966657D01*
X65307072Y-141273383D01*
X65297019Y-141584630D01*
X43692076Y-141584630D01*
X43699677Y-141349329D01*
X43655627Y-141037873D01*
X43569008Y-140738754D01*
X43441106Y-140454822D01*
X43274474Y-140191745D01*
X43072436Y-139954771D01*
X42839024Y-139748629D01*
X42578896Y-139577431D01*
X42297239Y-139444593D01*
X41999677Y-139352767D01*
X41692144Y-139303783D01*
X41380777Y-139298620D01*
X41071790Y-139337380D01*
X40771346Y-139419290D01*
X40485441Y-139542716D01*
X40219779Y-139705195D01*
X39979660Y-139903486D01*
X39769877Y-140133631D01*
X39594615Y-140391039D01*
X39457369Y-140670574D01*
X39360880Y-140966657D01*
X39307072Y-141273383D01*
X39297019Y-141584630D01*
X38599000Y-141584630D01*
X38599000Y-138555000D01*
X45485163Y-138555000D01*
X45485163Y-139176199D01*
X45572471Y-139502038D01*
X45738538Y-139699949D01*
X45954461Y-139824612D01*
X46182590Y-139864837D01*
X46495000Y-139864837D01*
X46495000Y-138555000D01*
X45485163Y-138555000D01*
X38599000Y-138555000D01*
X38599000Y-137832590D01*
X45485163Y-137832590D01*
X45485163Y-138445000D01*
X46495000Y-138445000D01*
X46495000Y-137135163D01*
X46173801Y-137135163D01*
X45847963Y-137222471D01*
X45650052Y-137388538D01*
X45525388Y-137604461D01*
X45485163Y-137832590D01*
X38599000Y-137832590D01*
X38599000Y-125055000D01*
X41385163Y-125055000D01*
X41385163Y-125926199D01*
X41472471Y-126252038D01*
X41638538Y-126449949D01*
X41854461Y-126574612D01*
X42082590Y-126614837D01*
X42945000Y-126614837D01*
X42945000Y-125055000D01*
X43055000Y-125055000D01*
X43055000Y-126614837D01*
X43926199Y-126614837D01*
X44252038Y-126527529D01*
X44449949Y-126361462D01*
X44574612Y-126145539D01*
X44614837Y-125917410D01*
X44614837Y-125055000D01*
X43055000Y-125055000D01*
X42945000Y-125055000D01*
X41385163Y-125055000D01*
X38599000Y-125055000D01*
X38599000Y-125005000D01*
X46135163Y-125005000D01*
X46135163Y-125326199D01*
X46222471Y-125652038D01*
X46388538Y-125849949D01*
X46604461Y-125974612D01*
X46832590Y-126014837D01*
X47445000Y-126014837D01*
X47445000Y-125005000D01*
X47555000Y-125005000D01*
X47555000Y-126014837D01*
X48176199Y-126014837D01*
X48502038Y-125927529D01*
X48699949Y-125761462D01*
X48824612Y-125545539D01*
X48864837Y-125317410D01*
X48864837Y-125005000D01*
X47555000Y-125005000D01*
X47445000Y-125005000D01*
X46135163Y-125005000D01*
X38599000Y-125005000D01*
X38599000Y-112055000D01*
X42160163Y-112055000D01*
X42160163Y-112526199D01*
X42247471Y-112852038D01*
X42413538Y-113049949D01*
X42629461Y-113174612D01*
X42857590Y-113214837D01*
X43445000Y-113214837D01*
X43445000Y-112055000D01*
X43555000Y-112055000D01*
X43555000Y-113214837D01*
X44151199Y-113214837D01*
X44477038Y-113127529D01*
X44674949Y-112961462D01*
X44799612Y-112745539D01*
X44839837Y-112517410D01*
X44839837Y-112055000D01*
X43555000Y-112055000D01*
X43445000Y-112055000D01*
X42160163Y-112055000D01*
X38599000Y-112055000D01*
X38599000Y-106055000D01*
X42160163Y-106055000D01*
X42160163Y-106526199D01*
X42247471Y-106852038D01*
X42413538Y-107049949D01*
X42629461Y-107174612D01*
X42857590Y-107214837D01*
X43445000Y-107214837D01*
X43445000Y-106055000D01*
X43555000Y-106055000D01*
X43555000Y-107214837D01*
X44151199Y-107214837D01*
X44477038Y-107127529D01*
X44674949Y-106961462D01*
X44799612Y-106745539D01*
X44839837Y-106517410D01*
X44839837Y-106055000D01*
X43555000Y-106055000D01*
X43445000Y-106055000D01*
X42160163Y-106055000D01*
X38599000Y-106055000D01*
X38599000Y-98055000D01*
X45985163Y-98055000D01*
X45985163Y-98676199D01*
X46072471Y-99002038D01*
X46238538Y-99199949D01*
X46454461Y-99324612D01*
X46682590Y-99364837D01*
X46995000Y-99364837D01*
X46995000Y-98055000D01*
X45985163Y-98055000D01*
X38599000Y-98055000D01*
X38599000Y-97332590D01*
X45985163Y-97332590D01*
X45985163Y-97945000D01*
X46995000Y-97945000D01*
X46995000Y-96635163D01*
X46673801Y-96635163D01*
X46347963Y-96722471D01*
X46150052Y-96888538D01*
X46025388Y-97104461D01*
X45985163Y-97332590D01*
X38599000Y-97332590D01*
X38599000Y-93142559D01*
X39598633Y-93142559D01*
X39635722Y-93520818D01*
X39714744Y-93892584D01*
X39834712Y-94253226D01*
X39994135Y-94598247D01*
X40191023Y-94923347D01*
X40422922Y-95224474D01*
X40686942Y-95497875D01*
X40979793Y-95740142D01*
X41297824Y-95948256D01*
X41637071Y-96119622D01*
X41993305Y-96252104D01*
X42362088Y-96344052D01*
X42738821Y-96394319D01*
X43118810Y-96402279D01*
X43497318Y-96367832D01*
X43869627Y-96291408D01*
X44231098Y-96173959D01*
X44577223Y-96016950D01*
X44903690Y-95822336D01*
X45206429Y-95592545D01*
X45481666Y-95330440D01*
X45725972Y-95039288D01*
X45936301Y-94722717D01*
X46110032Y-94384675D01*
X46244997Y-94029373D01*
X46251000Y-94005991D01*
X46251000Y-95020109D01*
X46241501Y-95064231D01*
X46251000Y-95144490D01*
X46251000Y-95162137D01*
X46258229Y-95205572D01*
X46271855Y-95320692D01*
X46279560Y-95333720D01*
X46281598Y-95345965D01*
X46400002Y-95565406D01*
X46481475Y-95640719D01*
X47488443Y-96647688D01*
X47417410Y-96635163D01*
X47105000Y-96635163D01*
X47105000Y-99364837D01*
X47426199Y-99364837D01*
X47752038Y-99277529D01*
X47949949Y-99111462D01*
X48060262Y-98920395D01*
X48168145Y-99081855D01*
X48366282Y-99214245D01*
X48580400Y-99256836D01*
X49319600Y-99256836D01*
X49533718Y-99214245D01*
X49731855Y-99081855D01*
X49864245Y-98883718D01*
X49906836Y-98669600D01*
X49906836Y-97330400D01*
X49864245Y-97116282D01*
X49731855Y-96918145D01*
X49684950Y-96886805D01*
X49678145Y-96829308D01*
X49670441Y-96816280D01*
X49668402Y-96804034D01*
X49549998Y-96584593D01*
X49468539Y-96509293D01*
X48649160Y-95689914D01*
X48707617Y-95694823D01*
X48965124Y-95670481D01*
X49214250Y-95600924D01*
X49447122Y-95488350D01*
X49656378Y-95336316D01*
X49835404Y-95149630D01*
X49978541Y-94934191D01*
X50081265Y-94696810D01*
X50140929Y-94442429D01*
X50149549Y-94113260D01*
X50103280Y-93856107D01*
X50013119Y-93613674D01*
X49881454Y-93391039D01*
X49712444Y-93195239D01*
X49646203Y-93141599D01*
X49783718Y-93114245D01*
X49981855Y-92981855D01*
X50114245Y-92783718D01*
X50156836Y-92569600D01*
X50156836Y-90830400D01*
X50114245Y-90616282D01*
X49981855Y-90418145D01*
X49783718Y-90285755D01*
X49569600Y-90243164D01*
X47830400Y-90243164D01*
X47616282Y-90285755D01*
X47418145Y-90418145D01*
X47285755Y-90616282D01*
X47243164Y-90830400D01*
X47243164Y-91014442D01*
X47084593Y-91100002D01*
X47009293Y-91181461D01*
X46526872Y-91663883D01*
X46488954Y-91688367D01*
X46438917Y-91751838D01*
X46426438Y-91764317D01*
X46400834Y-91800146D01*
X46329069Y-91891179D01*
X46325306Y-91905837D01*
X46318090Y-91915935D01*
X46273356Y-92065517D01*
X46272474Y-92061634D01*
X46147481Y-91702702D01*
X45983257Y-91359940D01*
X45781850Y-91037621D01*
X45545768Y-90739761D01*
X45277957Y-90470073D01*
X44981752Y-90231918D01*
X44660847Y-90028265D01*
X44411879Y-89906836D01*
X45669600Y-89906836D01*
X45883718Y-89864245D01*
X45977006Y-89801913D01*
X46213297Y-89914870D01*
X46481594Y-89958565D01*
X46751372Y-89925203D01*
X47000941Y-89817463D01*
X47210241Y-89644007D01*
X47362445Y-89418780D01*
X47445695Y-89158706D01*
X47449525Y-88866104D01*
X47373111Y-88603939D01*
X47226855Y-88374806D01*
X47022169Y-88195931D01*
X46775505Y-88081695D01*
X46506693Y-88041281D01*
X46237344Y-88077938D01*
X46063176Y-88155664D01*
X45883718Y-88035755D01*
X45703967Y-88000000D01*
X45883718Y-87964245D01*
X46081855Y-87831855D01*
X46214245Y-87633718D01*
X46256836Y-87419600D01*
X46256836Y-86680400D01*
X46231893Y-86555000D01*
X46829316Y-86555000D01*
X46940743Y-87003580D01*
X47046739Y-87245620D01*
X47192002Y-87466340D01*
X47372376Y-87659430D01*
X47582704Y-87819367D01*
X47816974Y-87941580D01*
X48068486Y-88022574D01*
X48365000Y-88065038D01*
X48365000Y-86555000D01*
X46829316Y-86555000D01*
X46231893Y-86555000D01*
X46214245Y-86466282D01*
X46200025Y-86445000D01*
X46821799Y-86445000D01*
X48365000Y-86445000D01*
X48365000Y-84938151D01*
X48100449Y-84970398D01*
X47847296Y-85046108D01*
X47610518Y-85163387D01*
X47396886Y-85318886D01*
X47212508Y-85508155D01*
X47062655Y-85725784D01*
X46951613Y-85965551D01*
X46821799Y-86445000D01*
X46200025Y-86445000D01*
X46081855Y-86268145D01*
X45883718Y-86135755D01*
X45749000Y-86108958D01*
X45749000Y-83267099D01*
X45758499Y-83222977D01*
X45749000Y-83142718D01*
X45749000Y-83125068D01*
X45741769Y-83081628D01*
X45728145Y-82966516D01*
X45720441Y-82953488D01*
X45718402Y-82941242D01*
X45599998Y-82721801D01*
X45518539Y-82646501D01*
X45317038Y-82445000D01*
X66401799Y-82445000D01*
X67945000Y-82445000D01*
X68055000Y-82445000D01*
X69570026Y-82445000D01*
X69512851Y-82108750D01*
X69425301Y-81859444D01*
X69296997Y-81628454D01*
X69131608Y-81422384D01*
X68933864Y-81247126D01*
X68709417Y-81107692D01*
X68464685Y-81008068D01*
X68055000Y-80917617D01*
X68055000Y-82445000D01*
X67945000Y-82445000D01*
X67945000Y-80938151D01*
X67680449Y-80970398D01*
X67427296Y-81046108D01*
X67190518Y-81163387D01*
X66976886Y-81318886D01*
X66792508Y-81508155D01*
X66642655Y-81725784D01*
X66531613Y-81965551D01*
X66401799Y-82445000D01*
X45317038Y-82445000D01*
X44858910Y-81986872D01*
X44834424Y-81948952D01*
X44770949Y-81898912D01*
X44758475Y-81886438D01*
X44722660Y-81860844D01*
X44631616Y-81789071D01*
X44616954Y-81785306D01*
X44606854Y-81778089D01*
X44367962Y-81706646D01*
X44297543Y-81709412D01*
X44232599Y-81596926D01*
X44064002Y-81395998D01*
X43895966Y-81255000D01*
X56285163Y-81255000D01*
X56285163Y-81726199D01*
X56372471Y-82052038D01*
X56538538Y-82249949D01*
X56754461Y-82374612D01*
X56982590Y-82414837D01*
X58445000Y-82414837D01*
X58445000Y-81255000D01*
X58555000Y-81255000D01*
X58555000Y-82414837D01*
X60026199Y-82414837D01*
X60352038Y-82327529D01*
X60549949Y-82161462D01*
X60674612Y-81945539D01*
X60714837Y-81717410D01*
X60714837Y-81255000D01*
X58555000Y-81255000D01*
X58445000Y-81255000D01*
X56285163Y-81255000D01*
X43895966Y-81255000D01*
X43863074Y-81227401D01*
X43635924Y-81096256D01*
X43389452Y-81006548D01*
X43131145Y-80961001D01*
X42868855Y-80961001D01*
X42610548Y-81006548D01*
X42364076Y-81096256D01*
X42136926Y-81227401D01*
X41935998Y-81395998D01*
X41767401Y-81596926D01*
X41636256Y-81824076D01*
X41546548Y-82070548D01*
X41501001Y-82328855D01*
X41501001Y-82591145D01*
X41546548Y-82849452D01*
X41636256Y-83095924D01*
X41767401Y-83323074D01*
X41866180Y-83440795D01*
X41747963Y-83472471D01*
X41550052Y-83638538D01*
X41425388Y-83854461D01*
X41385163Y-84082590D01*
X41385163Y-84945000D01*
X43055000Y-84945000D01*
X43055000Y-86614837D01*
X43756205Y-86614837D01*
X43743164Y-86680400D01*
X43743164Y-87419600D01*
X43785755Y-87633718D01*
X43918145Y-87831855D01*
X44116282Y-87964245D01*
X44296033Y-88000000D01*
X44116282Y-88035755D01*
X43918145Y-88168145D01*
X43785755Y-88366282D01*
X43743164Y-88580400D01*
X43743164Y-89319600D01*
X43785755Y-89533718D01*
X43911969Y-89722611D01*
X43591160Y-89647367D01*
X43213761Y-89602365D01*
X42833698Y-89599711D01*
X42455708Y-89639440D01*
X42084502Y-89721055D01*
X41724707Y-89843539D01*
X41380807Y-90005366D01*
X41057089Y-90204518D01*
X40757589Y-90438515D01*
X40486038Y-90704437D01*
X40245821Y-90998972D01*
X40039932Y-91318448D01*
X39870939Y-91658883D01*
X39740947Y-92016034D01*
X39651576Y-92385449D01*
X39603940Y-92762525D01*
X39598633Y-93142559D01*
X38599000Y-93142559D01*
X38599000Y-85055000D01*
X41385163Y-85055000D01*
X41385163Y-85926199D01*
X41472471Y-86252038D01*
X41638538Y-86449949D01*
X41854461Y-86574612D01*
X42082590Y-86614837D01*
X42945000Y-86614837D01*
X42945000Y-85055000D01*
X41385163Y-85055000D01*
X38599000Y-85055000D01*
X38599000Y-80682590D01*
X56285163Y-80682590D01*
X56285163Y-81145000D01*
X58445000Y-81145000D01*
X58445000Y-79985163D01*
X58555000Y-79985163D01*
X58555000Y-81145000D01*
X60714837Y-81145000D01*
X60714837Y-80673801D01*
X60627529Y-80347963D01*
X60461462Y-80150052D01*
X60245539Y-80025388D01*
X60017410Y-79985163D01*
X58555000Y-79985163D01*
X58445000Y-79985163D01*
X56973801Y-79985163D01*
X56647963Y-80072471D01*
X56450052Y-80238538D01*
X56325388Y-80454461D01*
X56285163Y-80682590D01*
X38599000Y-80682590D01*
X38599000Y-76584630D01*
X39297019Y-76584630D01*
X39330921Y-76894189D01*
X39408102Y-77195881D01*
X39527022Y-77483691D01*
X39685309Y-77751872D01*
X39879803Y-77995075D01*
X40106624Y-78208447D01*
X40361247Y-78387732D01*
X40638592Y-78529351D01*
X40933124Y-78630478D01*
X41238965Y-78689098D01*
X41550017Y-78704039D01*
X41860069Y-78675003D01*
X42162938Y-78602570D01*
X42452579Y-78488186D01*
X42723214Y-78334131D01*
X42969442Y-78143481D01*
X43186351Y-77920038D01*
X43369612Y-77668263D01*
X43515570Y-77393178D01*
X43621312Y-77100270D01*
X43685368Y-76792308D01*
X43692076Y-76584630D01*
X65297019Y-76584630D01*
X65330921Y-76894189D01*
X65408102Y-77195881D01*
X65527022Y-77483691D01*
X65685309Y-77751872D01*
X65879803Y-77995075D01*
X66106624Y-78208447D01*
X66361247Y-78387732D01*
X66638592Y-78529351D01*
X66933124Y-78630478D01*
X67238965Y-78689098D01*
X67550017Y-78704039D01*
X67860069Y-78675003D01*
X68162938Y-78602570D01*
X68452579Y-78488186D01*
X68723214Y-78334131D01*
X68969442Y-78143481D01*
X69186351Y-77920038D01*
X69369612Y-77668263D01*
X69515570Y-77393178D01*
X69621312Y-77100270D01*
X69685368Y-76792308D01*
X69699677Y-76349329D01*
X69655627Y-76037873D01*
X69569008Y-75738754D01*
X69441106Y-75454822D01*
X69274474Y-75191745D01*
X69072436Y-74954771D01*
X68839024Y-74748629D01*
X68578896Y-74577431D01*
X68297239Y-74444593D01*
X67999677Y-74352767D01*
X67692144Y-74303783D01*
X67380777Y-74298620D01*
X67071790Y-74337380D01*
X66771346Y-74419290D01*
X66485441Y-74542716D01*
X66219779Y-74705195D01*
X65979660Y-74903486D01*
X65769877Y-75133631D01*
X65594615Y-75391039D01*
X65457369Y-75670574D01*
X65360880Y-75966657D01*
X65307072Y-76273383D01*
X65297019Y-76584630D01*
X43692076Y-76584630D01*
X43699677Y-76349329D01*
X43655627Y-76037873D01*
X43569008Y-75738754D01*
X43441106Y-75454822D01*
X43274474Y-75191745D01*
X43072436Y-74954771D01*
X42839024Y-74748629D01*
X42578896Y-74577431D01*
X42297239Y-74444593D01*
X41999677Y-74352767D01*
X41692144Y-74303783D01*
X41380777Y-74298620D01*
X41071790Y-74337380D01*
X40771346Y-74419290D01*
X40485441Y-74542716D01*
X40219779Y-74705195D01*
X39979660Y-74903486D01*
X39769877Y-75133631D01*
X39594615Y-75391039D01*
X39457369Y-75670574D01*
X39360880Y-75966657D01*
X39307072Y-76273383D01*
X39297019Y-76584630D01*
X38599000Y-76584630D01*
X38599000Y-73599000D01*
X70401001Y-73599000D01*
X70401001Y-97502423D01*
G36*
X55555000Y-118339837D02*
G01*
X56026199Y-118339837D01*
X56352038Y-118252529D01*
X56549949Y-118086462D01*
X56567554Y-118055970D01*
X56568145Y-118056855D01*
X56630450Y-118098485D01*
X56552801Y-118351672D01*
X56549243Y-118623482D01*
X56622115Y-118885365D01*
X56751000Y-119092830D01*
X56751000Y-119183164D01*
X56305400Y-119183164D01*
X56091282Y-119225755D01*
X55893145Y-119358145D01*
X55760755Y-119556282D01*
X55718164Y-119770400D01*
X55718164Y-120419600D01*
X55760755Y-120633718D01*
X55825088Y-120730000D01*
X55760755Y-120826282D01*
X55718164Y-121040400D01*
X55718164Y-121268918D01*
X54249000Y-119799755D01*
X54249000Y-117586654D01*
X54285163Y-117533140D01*
X54285163Y-117651199D01*
X54372471Y-117977038D01*
X54538538Y-118174949D01*
X54754461Y-118299612D01*
X54982590Y-118339837D01*
X55445000Y-118339837D01*
X55445000Y-116945000D01*
X55555000Y-116945000D01*
X55555000Y-118339837D01*
G37*
X55555000Y-118339837D02*
X56026199Y-118339837D01*
X56352038Y-118252529D01*
X56549949Y-118086462D01*
X56567554Y-118055970D01*
X56568145Y-118056855D01*
X56630450Y-118098485D01*
X56552801Y-118351672D01*
X56549243Y-118623482D01*
X56622115Y-118885365D01*
X56751000Y-119092830D01*
X56751000Y-119183164D01*
X56305400Y-119183164D01*
X56091282Y-119225755D01*
X55893145Y-119358145D01*
X55760755Y-119556282D01*
X55718164Y-119770400D01*
X55718164Y-120419600D01*
X55760755Y-120633718D01*
X55825088Y-120730000D01*
X55760755Y-120826282D01*
X55718164Y-121040400D01*
X55718164Y-121268918D01*
X54249000Y-119799755D01*
X54249000Y-117586654D01*
X54285163Y-117533140D01*
X54285163Y-117651199D01*
X54372471Y-117977038D01*
X54538538Y-118174949D01*
X54754461Y-118299612D01*
X54982590Y-118339837D01*
X55445000Y-118339837D01*
X55445000Y-116945000D01*
X55555000Y-116945000D01*
X55555000Y-118339837D01*
G36*
X61213297Y-107914870D02*
G01*
X61383315Y-107942559D01*
X63413883Y-109973129D01*
X63438367Y-110011047D01*
X63501838Y-110061084D01*
X63514316Y-110073562D01*
X63550139Y-110099161D01*
X63641174Y-110170927D01*
X63655834Y-110174692D01*
X63665937Y-110181911D01*
X63904829Y-110253354D01*
X64015660Y-110249000D01*
X67554435Y-110249000D01*
X67702750Y-110293355D01*
X67758446Y-110291167D01*
X67874184Y-110461470D01*
X68055155Y-110646271D01*
X68191280Y-110743010D01*
X68190518Y-110743387D01*
X67976886Y-110898886D01*
X67792508Y-111088155D01*
X67642655Y-111305784D01*
X67531613Y-111545551D01*
X67401799Y-112025000D01*
X69055000Y-112025000D01*
X69055000Y-113656593D01*
X69433339Y-113581337D01*
X69680103Y-113486860D01*
X69907420Y-113352156D01*
X70108792Y-113181078D01*
X70278461Y-112978518D01*
X70401000Y-112768396D01*
X70401000Y-114896460D01*
X70281855Y-114718145D01*
X70083718Y-114585755D01*
X69869600Y-114543164D01*
X68130400Y-114543164D01*
X67916282Y-114585755D01*
X67718145Y-114718145D01*
X67585755Y-114916282D01*
X67543164Y-115130400D01*
X67543164Y-115251000D01*
X64310246Y-115251000D01*
X62914168Y-113854923D01*
X63000941Y-113817463D01*
X63210241Y-113644007D01*
X63362445Y-113418780D01*
X63445695Y-113158706D01*
X63449525Y-112866104D01*
X63373111Y-112603939D01*
X63226855Y-112374806D01*
X63055246Y-112224837D01*
X63162309Y-112135000D01*
X67409316Y-112135000D01*
X67520743Y-112583580D01*
X67626739Y-112825620D01*
X67772002Y-113046340D01*
X67952376Y-113239430D01*
X68162704Y-113399367D01*
X68396974Y-113521580D01*
X68648486Y-113602574D01*
X68945000Y-113645038D01*
X68945000Y-112135000D01*
X67409316Y-112135000D01*
X63162309Y-112135000D01*
X63249949Y-112061462D01*
X63374612Y-111845539D01*
X63414837Y-111617410D01*
X63414837Y-111055000D01*
X62045000Y-111055000D01*
X62045000Y-109685163D01*
X62155000Y-109685163D01*
X62155000Y-110945000D01*
X63414837Y-110945000D01*
X63414837Y-110373801D01*
X63327529Y-110047963D01*
X63161462Y-109850052D01*
X62945539Y-109725388D01*
X62717410Y-109685163D01*
X62155000Y-109685163D01*
X62045000Y-109685163D01*
X61473801Y-109685163D01*
X61147963Y-109772471D01*
X60950052Y-109938538D01*
X60932447Y-109969031D01*
X60931855Y-109968145D01*
X60800986Y-109880702D01*
X60883718Y-109864245D01*
X61081855Y-109731855D01*
X61214245Y-109533718D01*
X61256836Y-109319600D01*
X61256836Y-108580400D01*
X61214245Y-108366282D01*
X61081855Y-108168145D01*
X60883718Y-108035755D01*
X60703967Y-108000000D01*
X60883718Y-107964245D01*
X61064249Y-107843619D01*
X61213297Y-107914870D01*
G37*
X61213297Y-107914870D02*
X61383315Y-107942559D01*
X63413883Y-109973129D01*
X63438367Y-110011047D01*
X63501838Y-110061084D01*
X63514316Y-110073562D01*
X63550139Y-110099161D01*
X63641174Y-110170927D01*
X63655834Y-110174692D01*
X63665937Y-110181911D01*
X63904829Y-110253354D01*
X64015660Y-110249000D01*
X67554435Y-110249000D01*
X67702750Y-110293355D01*
X67758446Y-110291167D01*
X67874184Y-110461470D01*
X68055155Y-110646271D01*
X68191280Y-110743010D01*
X68190518Y-110743387D01*
X67976886Y-110898886D01*
X67792508Y-111088155D01*
X67642655Y-111305784D01*
X67531613Y-111545551D01*
X67401799Y-112025000D01*
X69055000Y-112025000D01*
X69055000Y-113656593D01*
X69433339Y-113581337D01*
X69680103Y-113486860D01*
X69907420Y-113352156D01*
X70108792Y-113181078D01*
X70278461Y-112978518D01*
X70401000Y-112768396D01*
X70401000Y-114896460D01*
X70281855Y-114718145D01*
X70083718Y-114585755D01*
X69869600Y-114543164D01*
X68130400Y-114543164D01*
X67916282Y-114585755D01*
X67718145Y-114718145D01*
X67585755Y-114916282D01*
X67543164Y-115130400D01*
X67543164Y-115251000D01*
X64310246Y-115251000D01*
X62914168Y-113854923D01*
X63000941Y-113817463D01*
X63210241Y-113644007D01*
X63362445Y-113418780D01*
X63445695Y-113158706D01*
X63449525Y-112866104D01*
X63373111Y-112603939D01*
X63226855Y-112374806D01*
X63055246Y-112224837D01*
X63162309Y-112135000D01*
X67409316Y-112135000D01*
X67520743Y-112583580D01*
X67626739Y-112825620D01*
X67772002Y-113046340D01*
X67952376Y-113239430D01*
X68162704Y-113399367D01*
X68396974Y-113521580D01*
X68648486Y-113602574D01*
X68945000Y-113645038D01*
X68945000Y-112135000D01*
X67409316Y-112135000D01*
X63162309Y-112135000D01*
X63249949Y-112061462D01*
X63374612Y-111845539D01*
X63414837Y-111617410D01*
X63414837Y-111055000D01*
X62045000Y-111055000D01*
X62045000Y-109685163D01*
X62155000Y-109685163D01*
X62155000Y-110945000D01*
X63414837Y-110945000D01*
X63414837Y-110373801D01*
X63327529Y-110047963D01*
X63161462Y-109850052D01*
X62945539Y-109725388D01*
X62717410Y-109685163D01*
X62155000Y-109685163D01*
X62045000Y-109685163D01*
X61473801Y-109685163D01*
X61147963Y-109772471D01*
X60950052Y-109938538D01*
X60932447Y-109969031D01*
X60931855Y-109968145D01*
X60800986Y-109880702D01*
X60883718Y-109864245D01*
X61081855Y-109731855D01*
X61214245Y-109533718D01*
X61256836Y-109319600D01*
X61256836Y-108580400D01*
X61214245Y-108366282D01*
X61081855Y-108168145D01*
X60883718Y-108035755D01*
X60703967Y-108000000D01*
X60883718Y-107964245D01*
X61064249Y-107843619D01*
X61213297Y-107914870D01*
G36*
X69095000Y-104656593D02*
G01*
X69473339Y-104581337D01*
X69720103Y-104486860D01*
X69947420Y-104352156D01*
X70148792Y-104181078D01*
X70318461Y-103978518D01*
X70401001Y-103836985D01*
X70401001Y-105896460D01*
X70281855Y-105718145D01*
X70083718Y-105585755D01*
X69869600Y-105543164D01*
X69701744Y-105543164D01*
X69599998Y-105354595D01*
X69518539Y-105279295D01*
X68867446Y-104628203D01*
X68985000Y-104645038D01*
X68985000Y-103025000D01*
X69095000Y-103025000D01*
X69095000Y-104656593D01*
G37*
X69095000Y-104656593D02*
X69473339Y-104581337D01*
X69720103Y-104486860D01*
X69947420Y-104352156D01*
X70148792Y-104181078D01*
X70318461Y-103978518D01*
X70401001Y-103836985D01*
X70401001Y-105896460D01*
X70281855Y-105718145D01*
X70083718Y-105585755D01*
X69869600Y-105543164D01*
X69701744Y-105543164D01*
X69599998Y-105354595D01*
X69518539Y-105279295D01*
X68867446Y-104628203D01*
X68985000Y-104645038D01*
X68985000Y-103025000D01*
X69095000Y-103025000D01*
X69095000Y-104656593D01*
M02*
