G04 #@! TF.GenerationSoftware,KiCad,Pcbnew,(5.99.0-492-g30da2b31e)*
G04 #@! TF.CreationDate,2019-12-10T20:32:49+01:00*
G04 #@! TF.ProjectId,gabel,67616265-6c2e-46b6-9963-61645f706362,rev?*
G04 #@! TF.SameCoordinates,Original*
G04 #@! TF.FileFunction,Paste,Top*
G04 #@! TF.FilePolarity,Positive*
%FSLAX46Y46*%
G04 Gerber Fmt 4.6, Leading zero omitted, Abs format (unit mm)*
G04 Created by KiCad (PCBNEW (5.99.0-492-g30da2b31e)) date 2019-12-10 20:32:49*
%MOMM*%
%LPD*%
G04 APERTURE LIST*
%ADD10R,1.250000X1.000000*%
%ADD11R,3.000000X1.000000*%
%ADD12R,0.610000X1.910000*%
%ADD13R,1.910000X0.610000*%
%ADD14R,1.300000X0.700000*%
%ADD15R,0.700000X1.300000*%
%ADD16R,1.200000X1.200000*%
%ADD17R,1.000000X1.250000*%
G04 APERTURE END LIST*
D10*
X53000000Y-94000000D03*
X53000000Y-92000000D03*
X52500000Y-134500000D03*
X52500000Y-136500000D03*
D11*
X58500000Y-85800000D03*
X58500000Y-81200000D03*
D12*
X46595000Y-109780000D03*
X47865000Y-109780000D03*
X49135000Y-109780000D03*
X50405000Y-109780000D03*
X50405000Y-104220000D03*
X49135000Y-104220000D03*
X47865000Y-104220000D03*
X46595000Y-104220000D03*
D13*
X51720000Y-120095000D03*
X51720000Y-121365000D03*
X51720000Y-122635000D03*
X51720000Y-123905000D03*
X57280000Y-123905000D03*
X57280000Y-122635000D03*
X57280000Y-121365000D03*
X57280000Y-120095000D03*
D14*
X45000000Y-88950000D03*
X45000000Y-87050000D03*
X41500000Y-117550000D03*
X41500000Y-119450000D03*
X61500000Y-123450000D03*
X61500000Y-121550000D03*
X64500000Y-123450000D03*
X64500000Y-121550000D03*
X61500000Y-127450000D03*
X61500000Y-125550000D03*
X45500000Y-119050000D03*
X45500000Y-120950000D03*
X47500000Y-123050000D03*
X47500000Y-124950000D03*
X48000000Y-119050000D03*
X48000000Y-120950000D03*
X60000000Y-107050000D03*
X60000000Y-108950000D03*
X57000000Y-106050000D03*
X57000000Y-107950000D03*
D15*
X56450000Y-138500000D03*
X54550000Y-138500000D03*
X56550000Y-98000000D03*
X58450000Y-98000000D03*
X46550000Y-138500000D03*
X48450000Y-138500000D03*
X47050000Y-98000000D03*
X48950000Y-98000000D03*
D16*
X59900000Y-111000000D03*
X62100000Y-111000000D03*
X54900000Y-111000000D03*
X57100000Y-111000000D03*
D17*
X57500000Y-117000000D03*
X55500000Y-117000000D03*
D10*
X43500000Y-104000000D03*
X43500000Y-106000000D03*
X43500000Y-110000000D03*
X43500000Y-112000000D03*
M02*
