G04 #@! TF.GenerationSoftware,KiCad,Pcbnew,(5.99.0-492-g30da2b31e)*
G04 #@! TF.CreationDate,2019-12-10T20:32:50+01:00*
G04 #@! TF.ProjectId,gabel,67616265-6c2e-46b6-9963-61645f706362,rev?*
G04 #@! TF.SameCoordinates,Original*
G04 #@! TF.FileFunction,Soldermask,Bot*
G04 #@! TF.FilePolarity,Negative*
%FSLAX46Y46*%
G04 Gerber Fmt 4.6, Leading zero omitted, Abs format (unit mm)*
G04 Created by KiCad (PCBNEW (5.99.0-492-g30da2b31e)) date 2019-12-10 20:32:50*
%MOMM*%
%LPD*%
G04 APERTURE LIST*
G04 APERTURE END LIST*
G36*
X41573730Y-139849000D02*
G01*
X41629937Y-139849000D01*
X41700874Y-139860235D01*
X41767558Y-139866128D01*
X41824072Y-139879748D01*
X41886610Y-139889653D01*
X41948179Y-139909658D01*
X42006121Y-139923622D01*
X42066809Y-139948203D01*
X42133764Y-139969958D01*
X42185106Y-139996118D01*
X42233565Y-140015746D01*
X42296309Y-140052779D01*
X42365312Y-140087938D01*
X42406161Y-140117616D01*
X42444891Y-140140476D01*
X42507232Y-140191049D01*
X42575554Y-140240688D01*
X42606207Y-140271341D01*
X42635465Y-140295076D01*
X42694718Y-140359852D01*
X42759312Y-140424446D01*
X42780574Y-140453711D01*
X42801091Y-140476140D01*
X42854400Y-140555323D01*
X42912062Y-140634688D01*
X42925230Y-140660531D01*
X42938137Y-140679703D01*
X42982562Y-140773052D01*
X43030042Y-140866236D01*
X43036784Y-140886987D01*
X43043587Y-140901281D01*
X43076245Y-141008436D01*
X43110347Y-141113390D01*
X43112634Y-141127830D01*
X43115129Y-141136016D01*
X43133244Y-141257955D01*
X43151000Y-141370063D01*
X43151000Y-141629937D01*
X43142684Y-141682440D01*
X43141885Y-141711983D01*
X43124640Y-141796367D01*
X43110347Y-141886610D01*
X43099164Y-141921027D01*
X43093080Y-141950799D01*
X43060365Y-142040439D01*
X43030042Y-142133764D01*
X43016872Y-142159612D01*
X43008950Y-142181318D01*
X42959540Y-142272131D01*
X42912062Y-142365312D01*
X42899241Y-142382959D01*
X42891672Y-142396870D01*
X42824158Y-142486301D01*
X42759312Y-142575554D01*
X42748976Y-142585890D01*
X42743819Y-142592721D01*
X42655782Y-142679084D01*
X42575554Y-142759312D01*
X42569558Y-142763668D01*
X42568640Y-142764569D01*
X42393110Y-142891866D01*
X42365312Y-142912062D01*
X42264629Y-142963363D01*
X42152223Y-143021753D01*
X42145505Y-143024060D01*
X42133764Y-143030042D01*
X42027902Y-143064439D01*
X41920133Y-143101441D01*
X41905994Y-143104049D01*
X41886610Y-143110347D01*
X41782080Y-143126903D01*
X41678808Y-143145950D01*
X41657170Y-143146687D01*
X41629937Y-143151000D01*
X41530480Y-143151000D01*
X41433553Y-143154300D01*
X41404812Y-143151000D01*
X41370063Y-143151000D01*
X41278482Y-143136495D01*
X41189768Y-143126309D01*
X41154791Y-143116904D01*
X41113390Y-143110347D01*
X41031749Y-143083820D01*
X40952788Y-143062589D01*
X40912903Y-143045205D01*
X40866236Y-143030042D01*
X40795965Y-142994237D01*
X40727832Y-142964541D01*
X40684765Y-142937578D01*
X40634688Y-142912062D01*
X40576590Y-142869851D01*
X40519843Y-142834323D01*
X40475667Y-142796526D01*
X40424446Y-142759312D01*
X40378671Y-142713537D01*
X40333382Y-142674788D01*
X40290465Y-142625331D01*
X40240688Y-142575554D01*
X40206823Y-142528943D01*
X40172556Y-142489454D01*
X40133461Y-142427969D01*
X40087938Y-142365312D01*
X40065015Y-142320323D01*
X40040884Y-142282372D01*
X40008299Y-142209012D01*
X39969958Y-142133764D01*
X39956561Y-142092533D01*
X39941269Y-142058105D01*
X39917885Y-141973501D01*
X39889653Y-141886610D01*
X39883993Y-141850874D01*
X39875897Y-141821582D01*
X39864348Y-141726843D01*
X39849000Y-141629937D01*
X39849000Y-141600932D01*
X39846203Y-141577987D01*
X39849000Y-141474628D01*
X39849000Y-141370063D01*
X39852413Y-141348516D01*
X39852841Y-141332689D01*
X39872390Y-141222382D01*
X39889653Y-141113390D01*
X39894171Y-141099485D01*
X39895664Y-141091061D01*
X39934876Y-140974207D01*
X39969958Y-140866236D01*
X39973325Y-140859628D01*
X39973732Y-140858415D01*
X40071710Y-140666538D01*
X40087938Y-140634688D01*
X40154366Y-140543258D01*
X40228002Y-140440214D01*
X40232942Y-140435107D01*
X40240688Y-140424446D01*
X40319390Y-140345744D01*
X40398621Y-140263841D01*
X40410037Y-140255097D01*
X40424446Y-140240688D01*
X40510048Y-140178494D01*
X40593440Y-140114621D01*
X40612390Y-140104139D01*
X40634688Y-140087938D01*
X40723279Y-140042798D01*
X40808164Y-139995843D01*
X40835275Y-139985734D01*
X40866236Y-139969958D01*
X40954418Y-139941306D01*
X41038091Y-139910105D01*
X41073527Y-139902605D01*
X41113390Y-139889653D01*
X41198177Y-139876224D01*
X41278171Y-139859294D01*
X41321600Y-139856676D01*
X41370063Y-139849000D01*
X41448917Y-139849000D01*
X41523111Y-139844527D01*
X41573730Y-139849000D01*
G37*
G36*
X67573730Y-139849000D02*
G01*
X67629937Y-139849000D01*
X67700874Y-139860235D01*
X67767558Y-139866128D01*
X67824072Y-139879748D01*
X67886610Y-139889653D01*
X67948179Y-139909658D01*
X68006121Y-139923622D01*
X68066809Y-139948203D01*
X68133764Y-139969958D01*
X68185106Y-139996118D01*
X68233565Y-140015746D01*
X68296309Y-140052779D01*
X68365312Y-140087938D01*
X68406161Y-140117616D01*
X68444891Y-140140476D01*
X68507232Y-140191049D01*
X68575554Y-140240688D01*
X68606207Y-140271341D01*
X68635465Y-140295076D01*
X68694718Y-140359852D01*
X68759312Y-140424446D01*
X68780574Y-140453711D01*
X68801091Y-140476140D01*
X68854400Y-140555323D01*
X68912062Y-140634688D01*
X68925230Y-140660531D01*
X68938137Y-140679703D01*
X68982562Y-140773052D01*
X69030042Y-140866236D01*
X69036784Y-140886987D01*
X69043587Y-140901281D01*
X69076245Y-141008436D01*
X69110347Y-141113390D01*
X69112634Y-141127830D01*
X69115129Y-141136016D01*
X69133244Y-141257955D01*
X69151000Y-141370063D01*
X69151000Y-141629937D01*
X69142684Y-141682440D01*
X69141885Y-141711983D01*
X69124640Y-141796367D01*
X69110347Y-141886610D01*
X69099164Y-141921027D01*
X69093080Y-141950799D01*
X69060365Y-142040439D01*
X69030042Y-142133764D01*
X69016872Y-142159612D01*
X69008950Y-142181318D01*
X68959540Y-142272131D01*
X68912062Y-142365312D01*
X68899241Y-142382959D01*
X68891672Y-142396870D01*
X68824158Y-142486301D01*
X68759312Y-142575554D01*
X68748976Y-142585890D01*
X68743819Y-142592721D01*
X68655782Y-142679084D01*
X68575554Y-142759312D01*
X68569558Y-142763668D01*
X68568640Y-142764569D01*
X68393110Y-142891866D01*
X68365312Y-142912062D01*
X68264629Y-142963363D01*
X68152223Y-143021753D01*
X68145505Y-143024060D01*
X68133764Y-143030042D01*
X68027902Y-143064439D01*
X67920133Y-143101441D01*
X67905994Y-143104049D01*
X67886610Y-143110347D01*
X67782080Y-143126903D01*
X67678808Y-143145950D01*
X67657170Y-143146687D01*
X67629937Y-143151000D01*
X67530480Y-143151000D01*
X67433553Y-143154300D01*
X67404812Y-143151000D01*
X67370063Y-143151000D01*
X67278482Y-143136495D01*
X67189768Y-143126309D01*
X67154791Y-143116904D01*
X67113390Y-143110347D01*
X67031749Y-143083820D01*
X66952788Y-143062589D01*
X66912903Y-143045205D01*
X66866236Y-143030042D01*
X66795965Y-142994237D01*
X66727832Y-142964541D01*
X66684765Y-142937578D01*
X66634688Y-142912062D01*
X66576590Y-142869851D01*
X66519843Y-142834323D01*
X66475667Y-142796526D01*
X66424446Y-142759312D01*
X66378671Y-142713537D01*
X66333382Y-142674788D01*
X66290465Y-142625331D01*
X66240688Y-142575554D01*
X66206823Y-142528943D01*
X66172556Y-142489454D01*
X66133461Y-142427969D01*
X66087938Y-142365312D01*
X66065015Y-142320323D01*
X66040884Y-142282372D01*
X66008299Y-142209012D01*
X65969958Y-142133764D01*
X65956561Y-142092533D01*
X65941269Y-142058105D01*
X65917885Y-141973501D01*
X65889653Y-141886610D01*
X65883993Y-141850874D01*
X65875897Y-141821582D01*
X65864348Y-141726843D01*
X65849000Y-141629937D01*
X65849000Y-141600932D01*
X65846203Y-141577987D01*
X65849000Y-141474628D01*
X65849000Y-141370063D01*
X65852413Y-141348516D01*
X65852841Y-141332689D01*
X65872390Y-141222382D01*
X65889653Y-141113390D01*
X65894171Y-141099485D01*
X65895664Y-141091061D01*
X65934876Y-140974207D01*
X65969958Y-140866236D01*
X65973325Y-140859628D01*
X65973732Y-140858415D01*
X66071710Y-140666538D01*
X66087938Y-140634688D01*
X66154366Y-140543258D01*
X66228002Y-140440214D01*
X66232942Y-140435107D01*
X66240688Y-140424446D01*
X66319390Y-140345744D01*
X66398621Y-140263841D01*
X66410037Y-140255097D01*
X66424446Y-140240688D01*
X66510048Y-140178494D01*
X66593440Y-140114621D01*
X66612390Y-140104139D01*
X66634688Y-140087938D01*
X66723279Y-140042798D01*
X66808164Y-139995843D01*
X66835275Y-139985734D01*
X66866236Y-139969958D01*
X66954418Y-139941306D01*
X67038091Y-139910105D01*
X67073527Y-139902605D01*
X67113390Y-139889653D01*
X67198177Y-139876224D01*
X67278171Y-139859294D01*
X67321600Y-139856676D01*
X67370063Y-139849000D01*
X67448917Y-139849000D01*
X67523111Y-139844527D01*
X67573730Y-139849000D01*
G37*
G36*
X43014068Y-130145805D02*
G01*
X43044857Y-130144515D01*
X43176224Y-130154162D01*
X43313403Y-130161231D01*
X43344505Y-130166519D01*
X43372757Y-130168594D01*
X43504413Y-130193709D01*
X43642464Y-130217182D01*
X43670353Y-130225364D01*
X43695726Y-130230204D01*
X43825831Y-130270976D01*
X43962749Y-130311144D01*
X43987184Y-130321541D01*
X44009466Y-130328524D01*
X44136144Y-130384925D01*
X44269885Y-130441832D01*
X44290765Y-130453766D01*
X44309825Y-130462252D01*
X44431096Y-130533972D01*
X44559675Y-130607461D01*
X44577016Y-130620269D01*
X44592834Y-130629624D01*
X44706812Y-130716138D01*
X44828163Y-130805769D01*
X44842061Y-130818798D01*
X44854716Y-130828403D01*
X44959518Y-130928904D01*
X45071680Y-131034047D01*
X45082347Y-131046692D01*
X45092023Y-131055971D01*
X45185840Y-131169377D01*
X45286901Y-131289178D01*
X45294643Y-131300897D01*
X45301597Y-131309303D01*
X45382648Y-131434111D01*
X45470885Y-131567676D01*
X45476083Y-131577989D01*
X45480668Y-131585049D01*
X45547390Y-131719459D01*
X45621121Y-131865738D01*
X45624222Y-131874235D01*
X45626860Y-131879549D01*
X45677808Y-132021062D01*
X45735555Y-132179292D01*
X45737066Y-132185657D01*
X45738233Y-132188900D01*
X45771965Y-132332719D01*
X45812626Y-132504056D01*
X45813095Y-132508074D01*
X45813309Y-132508989D01*
X45827467Y-132631349D01*
X45851279Y-132835594D01*
X45849616Y-132873691D01*
X45834803Y-133345025D01*
X45827189Y-133387343D01*
X45826100Y-133412281D01*
X45799409Y-133541739D01*
X45776928Y-133666682D01*
X45766586Y-133700937D01*
X45758699Y-133739189D01*
X45717888Y-133862229D01*
X45681899Y-133981430D01*
X45666704Y-134016543D01*
X45653617Y-134056000D01*
X45599815Y-134171116D01*
X45551320Y-134283183D01*
X45530944Y-134318475D01*
X45512290Y-134358388D01*
X45446782Y-134464247D01*
X45386926Y-134567921D01*
X45361146Y-134602634D01*
X45336648Y-134642222D01*
X45260832Y-134737706D01*
X45190901Y-134831869D01*
X45159600Y-134865201D01*
X45129091Y-134903625D01*
X45044442Y-134987832D01*
X44965831Y-135071544D01*
X44929015Y-135102656D01*
X44892453Y-135139027D01*
X44800552Y-135211216D01*
X44714695Y-135283771D01*
X44672473Y-135311823D01*
X44629967Y-135345212D01*
X44532454Y-135404851D01*
X44440854Y-135465710D01*
X44393480Y-135489848D01*
X44345217Y-135519366D01*
X44243682Y-135566174D01*
X44147891Y-135614982D01*
X44095731Y-135634380D01*
X44042094Y-135659107D01*
X43938218Y-135692959D01*
X43839735Y-135729584D01*
X43783275Y-135743452D01*
X43724736Y-135762529D01*
X43620094Y-135783533D01*
X43520432Y-135808013D01*
X43460287Y-135815611D01*
X43397480Y-135828218D01*
X43293617Y-135836666D01*
X43194241Y-135849220D01*
X43131149Y-135849881D01*
X43064795Y-135855278D01*
X42963174Y-135851641D01*
X42865471Y-135852664D01*
X42800249Y-135845809D01*
X42731225Y-135843338D01*
X42633199Y-135828250D01*
X42538492Y-135818296D01*
X42472092Y-135803454D01*
X42401326Y-135792562D01*
X42308134Y-135766805D01*
X42217613Y-135746571D01*
X42151014Y-135723379D01*
X42079604Y-135703642D01*
X41992406Y-135668146D01*
X41907119Y-135638446D01*
X41841386Y-135606670D01*
X41770454Y-135577795D01*
X41690201Y-135533584D01*
X41611107Y-135495349D01*
X41547368Y-135454899D01*
X41478097Y-135416738D01*
X41405583Y-135364919D01*
X41333498Y-135319172D01*
X41272915Y-135270113D01*
X41206528Y-135222672D01*
X41142415Y-135164436D01*
X41077988Y-135112264D01*
X41021715Y-135054800D01*
X40959455Y-134998247D01*
X40904220Y-134934819D01*
X40847947Y-134877354D01*
X40797130Y-134811842D01*
X40740254Y-134746528D01*
X40694219Y-134679170D01*
X40646434Y-134617566D01*
X40602208Y-134544540D01*
X40551917Y-134470954D01*
X40515206Y-134400881D01*
X40476108Y-134336322D01*
X40439544Y-134256460D01*
X40397019Y-134175289D01*
X40369636Y-134103767D01*
X40339244Y-134037386D01*
X40311338Y-133951500D01*
X40277673Y-133863571D01*
X40259435Y-133791760D01*
X40237643Y-133724690D01*
X40219307Y-133633755D01*
X40195511Y-133540057D01*
X40186105Y-133469092D01*
X40172656Y-133402391D01*
X40164688Y-133307500D01*
X40151655Y-133209167D01*
X40150630Y-133140081D01*
X40145144Y-133074749D01*
X40148212Y-132977122D01*
X40146703Y-132875420D01*
X40153490Y-132809183D01*
X40155471Y-132746132D01*
X40170100Y-132647064D01*
X40180724Y-132543375D01*
X40194648Y-132480825D01*
X40203501Y-132420874D01*
X40230054Y-132321776D01*
X40253252Y-132217566D01*
X40273553Y-132159433D01*
X40288598Y-132103284D01*
X40327277Y-132005593D01*
X40363298Y-131902445D01*
X40389145Y-131849333D01*
X40409632Y-131797589D01*
X40460435Y-131702842D01*
X40509357Y-131602314D01*
X40539879Y-131554680D01*
X40564998Y-131507833D01*
X40627747Y-131417549D01*
X40689435Y-131321275D01*
X40723717Y-131279465D01*
X40752647Y-131237840D01*
X40826992Y-131153512D01*
X40901073Y-131063164D01*
X40938190Y-131027383D01*
X40970072Y-130991220D01*
X41055430Y-130914363D01*
X41141379Y-130831508D01*
X41180428Y-130801815D01*
X41214412Y-130771215D01*
X41310020Y-130703270D01*
X41407072Y-130629470D01*
X41447169Y-130605804D01*
X41482412Y-130580758D01*
X41587306Y-130523092D01*
X41694521Y-130459811D01*
X41734818Y-130441996D01*
X41770530Y-130422363D01*
X41883598Y-130376221D01*
X41999802Y-130324848D01*
X42039517Y-130312592D01*
X42074946Y-130298134D01*
X42194895Y-130264643D01*
X42318745Y-130226424D01*
X42357150Y-130219341D01*
X42391618Y-130209717D01*
X42516992Y-130189860D01*
X42646992Y-130165883D01*
X42683474Y-130163492D01*
X42716362Y-130158283D01*
X42845579Y-130152867D01*
X42980061Y-130144053D01*
X43014068Y-130145805D01*
G37*
G36*
X62014068Y-130145805D02*
G01*
X62044857Y-130144515D01*
X62176224Y-130154162D01*
X62313403Y-130161231D01*
X62344505Y-130166519D01*
X62372757Y-130168594D01*
X62504413Y-130193709D01*
X62642464Y-130217182D01*
X62670353Y-130225364D01*
X62695726Y-130230204D01*
X62825831Y-130270976D01*
X62962749Y-130311144D01*
X62987184Y-130321541D01*
X63009466Y-130328524D01*
X63136144Y-130384925D01*
X63269885Y-130441832D01*
X63290765Y-130453766D01*
X63309825Y-130462252D01*
X63431096Y-130533972D01*
X63559675Y-130607461D01*
X63577016Y-130620269D01*
X63592834Y-130629624D01*
X63706812Y-130716138D01*
X63828163Y-130805769D01*
X63842061Y-130818798D01*
X63854716Y-130828403D01*
X63959518Y-130928904D01*
X64071680Y-131034047D01*
X64082347Y-131046692D01*
X64092023Y-131055971D01*
X64185840Y-131169377D01*
X64286901Y-131289178D01*
X64294643Y-131300897D01*
X64301597Y-131309303D01*
X64382648Y-131434111D01*
X64470885Y-131567676D01*
X64476083Y-131577989D01*
X64480668Y-131585049D01*
X64547390Y-131719459D01*
X64621121Y-131865738D01*
X64624222Y-131874235D01*
X64626860Y-131879549D01*
X64677808Y-132021062D01*
X64735555Y-132179292D01*
X64737066Y-132185657D01*
X64738233Y-132188900D01*
X64771965Y-132332719D01*
X64812626Y-132504056D01*
X64813095Y-132508074D01*
X64813309Y-132508989D01*
X64827467Y-132631349D01*
X64851279Y-132835594D01*
X64849616Y-132873691D01*
X64834803Y-133345025D01*
X64827189Y-133387343D01*
X64826100Y-133412281D01*
X64799409Y-133541739D01*
X64776928Y-133666682D01*
X64766586Y-133700937D01*
X64758699Y-133739189D01*
X64717888Y-133862229D01*
X64681899Y-133981430D01*
X64666704Y-134016543D01*
X64653617Y-134056000D01*
X64599815Y-134171116D01*
X64551320Y-134283183D01*
X64530944Y-134318475D01*
X64512290Y-134358388D01*
X64446782Y-134464247D01*
X64386926Y-134567921D01*
X64361146Y-134602634D01*
X64336648Y-134642222D01*
X64260832Y-134737706D01*
X64190901Y-134831869D01*
X64159600Y-134865201D01*
X64129091Y-134903625D01*
X64044442Y-134987832D01*
X63965831Y-135071544D01*
X63929015Y-135102656D01*
X63892453Y-135139027D01*
X63800552Y-135211216D01*
X63714695Y-135283771D01*
X63672473Y-135311823D01*
X63629967Y-135345212D01*
X63532454Y-135404851D01*
X63440854Y-135465710D01*
X63393480Y-135489848D01*
X63345217Y-135519366D01*
X63243682Y-135566174D01*
X63147891Y-135614982D01*
X63095731Y-135634380D01*
X63042094Y-135659107D01*
X62938218Y-135692959D01*
X62839735Y-135729584D01*
X62783275Y-135743452D01*
X62724736Y-135762529D01*
X62620094Y-135783533D01*
X62520432Y-135808013D01*
X62460287Y-135815611D01*
X62397480Y-135828218D01*
X62293617Y-135836666D01*
X62194241Y-135849220D01*
X62131149Y-135849881D01*
X62064795Y-135855278D01*
X61963174Y-135851641D01*
X61865471Y-135852664D01*
X61800249Y-135845809D01*
X61731225Y-135843338D01*
X61633199Y-135828250D01*
X61538492Y-135818296D01*
X61472092Y-135803454D01*
X61401326Y-135792562D01*
X61308134Y-135766805D01*
X61217613Y-135746571D01*
X61151014Y-135723379D01*
X61079604Y-135703642D01*
X60992406Y-135668146D01*
X60907119Y-135638446D01*
X60841386Y-135606670D01*
X60770454Y-135577795D01*
X60690201Y-135533584D01*
X60611107Y-135495349D01*
X60547368Y-135454899D01*
X60478097Y-135416738D01*
X60405583Y-135364919D01*
X60333498Y-135319172D01*
X60272915Y-135270113D01*
X60206528Y-135222672D01*
X60142415Y-135164436D01*
X60077988Y-135112264D01*
X60021715Y-135054800D01*
X59959455Y-134998247D01*
X59904220Y-134934819D01*
X59847947Y-134877354D01*
X59797130Y-134811842D01*
X59740254Y-134746528D01*
X59694219Y-134679170D01*
X59646434Y-134617566D01*
X59602208Y-134544540D01*
X59551917Y-134470954D01*
X59515206Y-134400881D01*
X59476108Y-134336322D01*
X59439544Y-134256460D01*
X59397019Y-134175289D01*
X59369636Y-134103767D01*
X59339244Y-134037386D01*
X59311338Y-133951500D01*
X59277673Y-133863571D01*
X59259435Y-133791760D01*
X59237643Y-133724690D01*
X59219307Y-133633755D01*
X59195511Y-133540057D01*
X59186105Y-133469092D01*
X59172656Y-133402391D01*
X59164688Y-133307500D01*
X59151655Y-133209167D01*
X59150630Y-133140081D01*
X59145144Y-133074749D01*
X59148212Y-132977122D01*
X59146703Y-132875420D01*
X59153490Y-132809183D01*
X59155471Y-132746132D01*
X59170100Y-132647064D01*
X59180724Y-132543375D01*
X59194648Y-132480825D01*
X59203501Y-132420874D01*
X59230054Y-132321776D01*
X59253252Y-132217566D01*
X59273553Y-132159433D01*
X59288598Y-132103284D01*
X59327277Y-132005593D01*
X59363298Y-131902445D01*
X59389145Y-131849333D01*
X59409632Y-131797589D01*
X59460435Y-131702842D01*
X59509357Y-131602314D01*
X59539879Y-131554680D01*
X59564998Y-131507833D01*
X59627747Y-131417549D01*
X59689435Y-131321275D01*
X59723717Y-131279465D01*
X59752647Y-131237840D01*
X59826992Y-131153512D01*
X59901073Y-131063164D01*
X59938190Y-131027383D01*
X59970072Y-130991220D01*
X60055430Y-130914363D01*
X60141379Y-130831508D01*
X60180428Y-130801815D01*
X60214412Y-130771215D01*
X60310020Y-130703270D01*
X60407072Y-130629470D01*
X60447169Y-130605804D01*
X60482412Y-130580758D01*
X60587306Y-130523092D01*
X60694521Y-130459811D01*
X60734818Y-130441996D01*
X60770530Y-130422363D01*
X60883598Y-130376221D01*
X60999802Y-130324848D01*
X61039517Y-130312592D01*
X61074946Y-130298134D01*
X61194895Y-130264643D01*
X61318745Y-130226424D01*
X61357150Y-130219341D01*
X61391618Y-130209717D01*
X61516992Y-130189860D01*
X61646992Y-130165883D01*
X61683474Y-130163492D01*
X61716362Y-130158283D01*
X61845579Y-130152867D01*
X61980061Y-130144053D01*
X62014068Y-130145805D01*
G37*
G36*
X57169899Y-133401957D02*
G01*
X57186769Y-133413229D01*
X57198041Y-133430099D01*
X57204448Y-133462310D01*
X57204448Y-135137686D01*
X57201999Y-135149998D01*
X57198041Y-135169897D01*
X57186769Y-135186767D01*
X57169899Y-135198039D01*
X57150000Y-135201997D01*
X57137688Y-135204446D01*
X55462312Y-135204446D01*
X55430101Y-135198039D01*
X55413231Y-135186767D01*
X55401959Y-135169897D01*
X55395552Y-135137686D01*
X55395552Y-133462310D01*
X55401959Y-133430099D01*
X55413231Y-133413229D01*
X55430101Y-133401957D01*
X55462312Y-133395550D01*
X57137688Y-133395550D01*
X57169899Y-133401957D01*
G37*
G36*
X48749902Y-133339281D02*
G01*
X48794637Y-133339593D01*
X48838460Y-133348588D01*
X48888360Y-133353833D01*
X48930132Y-133367406D01*
X48967723Y-133375122D01*
X49014851Y-133394933D01*
X49068488Y-133412361D01*
X49101099Y-133431189D01*
X49130614Y-133443596D01*
X49178301Y-133475761D01*
X49232511Y-133507059D01*
X49255826Y-133528052D01*
X49277101Y-133542402D01*
X49322183Y-133587800D01*
X49373261Y-133633791D01*
X49388003Y-133654081D01*
X49401608Y-133667782D01*
X49440643Y-133726535D01*
X49484586Y-133787017D01*
X49492221Y-133804166D01*
X49499388Y-133814953D01*
X49528865Y-133886470D01*
X49561621Y-133960040D01*
X49564211Y-133972223D01*
X49566724Y-133978321D01*
X49583292Y-134061995D01*
X49600999Y-134145299D01*
X49600999Y-134334697D01*
X49598115Y-134348267D01*
X49598030Y-134354329D01*
X49579342Y-134436583D01*
X49561621Y-134519956D01*
X49559129Y-134525553D01*
X49559078Y-134525778D01*
X49487210Y-134687195D01*
X49487078Y-134687383D01*
X49484586Y-134692979D01*
X49434480Y-134761944D01*
X49385357Y-134831580D01*
X49380585Y-134836124D01*
X49373261Y-134846205D01*
X49313396Y-134900108D01*
X49257396Y-134953436D01*
X49246464Y-134960374D01*
X49232511Y-134972937D01*
X49167764Y-135010319D01*
X49108211Y-135048112D01*
X49090209Y-135055095D01*
X49068488Y-135067635D01*
X49003115Y-135088876D01*
X48943468Y-135112012D01*
X48918200Y-135116467D01*
X48888360Y-135126163D01*
X48826095Y-135132707D01*
X48769460Y-135142693D01*
X48737459Y-135142023D01*
X48700000Y-135145960D01*
X48643902Y-135140064D01*
X48592799Y-135138994D01*
X48555323Y-135130754D01*
X48511640Y-135126163D01*
X48463917Y-135110657D01*
X48420225Y-135101050D01*
X48379230Y-135083140D01*
X48331512Y-135067635D01*
X48293473Y-135045673D01*
X48258310Y-135030311D01*
X48216337Y-135001139D01*
X48167489Y-134972937D01*
X48139504Y-134947739D01*
X48113215Y-134929468D01*
X48073257Y-134888090D01*
X48026739Y-134846205D01*
X48008296Y-134820821D01*
X47990473Y-134802364D01*
X47955821Y-134748595D01*
X47915414Y-134692979D01*
X47905212Y-134670064D01*
X47894754Y-134653837D01*
X47868789Y-134588259D01*
X47838379Y-134519956D01*
X47834476Y-134501594D01*
X47829707Y-134489549D01*
X47815740Y-134413446D01*
X47799001Y-134334697D01*
X47799001Y-134322244D01*
X47797811Y-134315760D01*
X47799001Y-134230533D01*
X47799001Y-134145299D01*
X47800275Y-134139306D01*
X47800278Y-134139075D01*
X47837015Y-133966244D01*
X47837105Y-133966034D01*
X47838379Y-133960040D01*
X47873042Y-133882186D01*
X47906622Y-133803837D01*
X47910348Y-133798395D01*
X47915414Y-133787017D01*
X47962746Y-133721870D01*
X48006452Y-133658039D01*
X48015706Y-133648977D01*
X48026739Y-133633791D01*
X48082297Y-133583767D01*
X48132693Y-133534415D01*
X48148848Y-133523844D01*
X48167489Y-133507059D01*
X48227026Y-133472685D01*
X48280551Y-133437660D01*
X48304340Y-133428048D01*
X48331512Y-133412361D01*
X48391045Y-133393017D01*
X48444376Y-133371470D01*
X48475820Y-133365472D01*
X48511640Y-133353833D01*
X48567744Y-133347936D01*
X48617945Y-133338360D01*
X48656312Y-133338628D01*
X48700000Y-133334036D01*
X48749902Y-133339281D01*
G37*
G36*
X56349902Y-130859281D02*
G01*
X56394637Y-130859593D01*
X56438460Y-130868588D01*
X56488360Y-130873833D01*
X56530132Y-130887406D01*
X56567723Y-130895122D01*
X56614851Y-130914933D01*
X56668488Y-130932361D01*
X56701099Y-130951189D01*
X56730614Y-130963596D01*
X56778301Y-130995761D01*
X56832511Y-131027059D01*
X56855826Y-131048052D01*
X56877101Y-131062402D01*
X56922183Y-131107800D01*
X56973261Y-131153791D01*
X56988003Y-131174081D01*
X57001608Y-131187782D01*
X57040643Y-131246535D01*
X57084586Y-131307017D01*
X57092221Y-131324166D01*
X57099388Y-131334953D01*
X57128865Y-131406470D01*
X57161621Y-131480040D01*
X57164211Y-131492223D01*
X57166724Y-131498321D01*
X57183292Y-131581995D01*
X57200999Y-131665299D01*
X57200999Y-131854697D01*
X57198115Y-131868267D01*
X57198030Y-131874329D01*
X57179342Y-131956583D01*
X57161621Y-132039956D01*
X57159129Y-132045553D01*
X57159078Y-132045778D01*
X57087210Y-132207195D01*
X57087078Y-132207383D01*
X57084586Y-132212979D01*
X57034480Y-132281944D01*
X56985357Y-132351580D01*
X56980585Y-132356124D01*
X56973261Y-132366205D01*
X56913396Y-132420108D01*
X56857396Y-132473436D01*
X56846464Y-132480374D01*
X56832511Y-132492937D01*
X56767764Y-132530319D01*
X56708211Y-132568112D01*
X56690209Y-132575095D01*
X56668488Y-132587635D01*
X56603115Y-132608876D01*
X56543468Y-132632012D01*
X56518200Y-132636467D01*
X56488360Y-132646163D01*
X56426095Y-132652707D01*
X56369460Y-132662693D01*
X56337459Y-132662023D01*
X56300000Y-132665960D01*
X56243902Y-132660064D01*
X56192799Y-132658994D01*
X56155323Y-132650754D01*
X56111640Y-132646163D01*
X56063917Y-132630657D01*
X56020225Y-132621050D01*
X55979230Y-132603140D01*
X55931512Y-132587635D01*
X55893473Y-132565673D01*
X55858310Y-132550311D01*
X55816337Y-132521139D01*
X55767489Y-132492937D01*
X55739504Y-132467739D01*
X55713215Y-132449468D01*
X55673257Y-132408090D01*
X55626739Y-132366205D01*
X55608296Y-132340821D01*
X55590473Y-132322364D01*
X55555821Y-132268595D01*
X55515414Y-132212979D01*
X55505212Y-132190064D01*
X55494754Y-132173837D01*
X55468789Y-132108259D01*
X55438379Y-132039956D01*
X55434476Y-132021594D01*
X55429707Y-132009549D01*
X55415740Y-131933446D01*
X55399001Y-131854697D01*
X55399001Y-131842244D01*
X55397811Y-131835760D01*
X55399001Y-131750533D01*
X55399001Y-131665299D01*
X55400275Y-131659306D01*
X55400278Y-131659075D01*
X55437015Y-131486244D01*
X55437105Y-131486034D01*
X55438379Y-131480040D01*
X55473042Y-131402186D01*
X55506622Y-131323837D01*
X55510348Y-131318395D01*
X55515414Y-131307017D01*
X55562746Y-131241870D01*
X55606452Y-131178039D01*
X55615706Y-131168977D01*
X55626739Y-131153791D01*
X55682297Y-131103767D01*
X55732693Y-131054415D01*
X55748848Y-131043844D01*
X55767489Y-131027059D01*
X55827026Y-130992685D01*
X55880551Y-130957660D01*
X55904340Y-130948048D01*
X55931512Y-130932361D01*
X55991045Y-130913017D01*
X56044376Y-130891470D01*
X56075820Y-130885472D01*
X56111640Y-130873833D01*
X56167744Y-130867936D01*
X56217945Y-130858360D01*
X56256312Y-130858628D01*
X56300000Y-130854036D01*
X56349902Y-130859281D01*
G37*
G36*
X49569899Y-130801957D02*
G01*
X49586769Y-130813229D01*
X49598041Y-130830099D01*
X49604448Y-130862310D01*
X49604448Y-132537686D01*
X49601999Y-132549998D01*
X49598041Y-132569897D01*
X49586769Y-132586767D01*
X49569899Y-132598039D01*
X49550000Y-132601997D01*
X49537688Y-132604446D01*
X47862312Y-132604446D01*
X47830101Y-132598039D01*
X47813231Y-132586767D01*
X47801959Y-132569897D01*
X47795552Y-132537686D01*
X47795552Y-130862310D01*
X47801959Y-130830099D01*
X47813231Y-130813229D01*
X47830101Y-130801957D01*
X47862312Y-130795550D01*
X49537688Y-130795550D01*
X49569899Y-130801957D01*
G37*
G36*
X43919899Y-124051959D02*
G01*
X43936769Y-124063231D01*
X43948041Y-124080101D01*
X43954448Y-124112312D01*
X43954448Y-125887688D01*
X43951999Y-125900000D01*
X43948041Y-125919899D01*
X43936769Y-125936769D01*
X43919899Y-125948041D01*
X43900000Y-125951999D01*
X43887688Y-125954448D01*
X42112312Y-125954448D01*
X42080101Y-125948041D01*
X42063231Y-125936769D01*
X42051959Y-125919899D01*
X42045552Y-125887688D01*
X42045552Y-124112312D01*
X42051959Y-124080101D01*
X42063231Y-124063231D01*
X42080101Y-124051959D01*
X42112312Y-124045552D01*
X43887688Y-124045552D01*
X43919899Y-124051959D01*
G37*
G36*
X43096675Y-121512627D02*
G01*
X43137905Y-121514680D01*
X43186080Y-121526468D01*
X43240954Y-121534963D01*
X43279728Y-121549383D01*
X43314176Y-121557812D01*
X43364544Y-121580925D01*
X43422037Y-121602307D01*
X43452173Y-121621138D01*
X43479107Y-121633498D01*
X43528922Y-121669097D01*
X43585880Y-121704688D01*
X43607387Y-121725168D01*
X43626749Y-121739005D01*
X43672931Y-121787585D01*
X43725790Y-121837922D01*
X43739404Y-121857511D01*
X43751782Y-121870531D01*
X43791083Y-121931866D01*
X43836052Y-121996569D01*
X43843145Y-122013119D01*
X43849683Y-122023322D01*
X43878818Y-122096349D01*
X43912162Y-122174146D01*
X43914606Y-122186051D01*
X43916928Y-122191872D01*
X43932813Y-122274748D01*
X43951010Y-122363400D01*
X43950988Y-122369580D01*
X43951056Y-122369932D01*
X43950404Y-122556704D01*
X43950335Y-122557053D01*
X43950313Y-122563237D01*
X43931491Y-122651785D01*
X43915034Y-122734522D01*
X43912671Y-122740327D01*
X43910144Y-122752215D01*
X43876246Y-122829806D01*
X43846613Y-122902599D01*
X43840009Y-122912748D01*
X43832797Y-122929257D01*
X43787357Y-122993672D01*
X43747645Y-123054707D01*
X43735180Y-123067637D01*
X43721430Y-123087129D01*
X43668221Y-123137096D01*
X43621704Y-123185349D01*
X43602248Y-123199048D01*
X43580593Y-123219384D01*
X43523380Y-123254582D01*
X43473323Y-123289828D01*
X43446302Y-123302000D01*
X43416039Y-123320618D01*
X43358399Y-123341597D01*
X43307868Y-123364360D01*
X43273362Y-123372549D01*
X43234490Y-123386697D01*
X43179568Y-123394807D01*
X43131307Y-123406260D01*
X43090057Y-123408025D01*
X43043363Y-123414920D01*
X42993741Y-123412146D01*
X42950000Y-123414017D01*
X42903403Y-123407095D01*
X42850464Y-123404135D01*
X42808057Y-123392931D01*
X42770504Y-123387352D01*
X42720566Y-123369815D01*
X42663673Y-123354783D01*
X42629600Y-123337869D01*
X42599288Y-123327224D01*
X42548557Y-123297639D01*
X42490621Y-123268879D01*
X42465245Y-123249053D01*
X42442528Y-123235805D01*
X42393930Y-123193335D01*
X42338378Y-123149933D01*
X42321292Y-123129857D01*
X42305884Y-123116392D01*
X42262628Y-123060928D01*
X42213161Y-123002804D01*
X42203277Y-122984825D01*
X42194285Y-122973295D01*
X42159661Y-122905488D01*
X42120086Y-122833501D01*
X42115749Y-122819492D01*
X42111760Y-122811679D01*
X42088983Y-122733022D01*
X42062955Y-122648941D01*
X42062095Y-122640173D01*
X42061285Y-122637375D01*
X42053295Y-122550423D01*
X42044102Y-122456663D01*
X42053949Y-122362976D01*
X42062546Y-122276079D01*
X42063376Y-122273287D01*
X42064297Y-122264521D01*
X42090920Y-122180594D01*
X42114237Y-122102129D01*
X42118280Y-122094346D01*
X42122715Y-122080365D01*
X42162811Y-122008621D01*
X42197891Y-121941090D01*
X42206956Y-121929632D01*
X42216969Y-121911716D01*
X42266849Y-121853930D01*
X42310484Y-121798776D01*
X42325984Y-121785420D01*
X42343210Y-121765464D01*
X42399069Y-121722447D01*
X42447959Y-121680321D01*
X42470768Y-121667232D01*
X42496281Y-121647584D01*
X42554401Y-121619237D01*
X42605350Y-121589999D01*
X42635746Y-121579562D01*
X42669928Y-121562891D01*
X42726921Y-121548258D01*
X42776983Y-121531069D01*
X42814572Y-121525753D01*
X42857059Y-121514844D01*
X42910020Y-121512254D01*
X42956663Y-121505657D01*
X43000388Y-121507834D01*
X43050028Y-121505406D01*
X43096675Y-121512627D01*
G37*
G36*
X69049902Y-120179283D02*
G01*
X69094637Y-120179595D01*
X69138460Y-120188590D01*
X69188360Y-120193835D01*
X69230132Y-120207408D01*
X69267723Y-120215124D01*
X69314851Y-120234935D01*
X69368488Y-120252363D01*
X69401099Y-120271191D01*
X69430614Y-120283598D01*
X69478301Y-120315763D01*
X69532511Y-120347061D01*
X69555826Y-120368054D01*
X69577101Y-120382404D01*
X69622183Y-120427802D01*
X69673261Y-120473793D01*
X69688003Y-120494083D01*
X69701608Y-120507784D01*
X69740643Y-120566537D01*
X69784586Y-120627019D01*
X69792221Y-120644168D01*
X69799388Y-120654955D01*
X69828865Y-120726472D01*
X69861621Y-120800042D01*
X69864211Y-120812225D01*
X69866724Y-120818323D01*
X69883292Y-120901997D01*
X69900999Y-120985301D01*
X69900999Y-121174699D01*
X69898115Y-121188269D01*
X69898030Y-121194331D01*
X69879342Y-121276585D01*
X69861621Y-121359958D01*
X69859129Y-121365555D01*
X69859078Y-121365780D01*
X69787211Y-121527196D01*
X69787077Y-121527386D01*
X69784586Y-121532981D01*
X69734485Y-121601940D01*
X69685357Y-121671582D01*
X69680585Y-121676126D01*
X69673261Y-121686207D01*
X69613396Y-121740110D01*
X69557396Y-121793438D01*
X69546464Y-121800376D01*
X69532511Y-121812939D01*
X69467764Y-121850321D01*
X69408211Y-121888114D01*
X69390209Y-121895097D01*
X69368488Y-121907637D01*
X69303115Y-121928878D01*
X69243468Y-121952014D01*
X69218200Y-121956469D01*
X69188360Y-121966165D01*
X69126095Y-121972709D01*
X69069460Y-121982695D01*
X69037459Y-121982025D01*
X69000000Y-121985962D01*
X68943902Y-121980066D01*
X68892799Y-121978996D01*
X68855323Y-121970756D01*
X68811640Y-121966165D01*
X68763917Y-121950659D01*
X68720225Y-121941052D01*
X68679230Y-121923142D01*
X68631512Y-121907637D01*
X68593473Y-121885675D01*
X68558310Y-121870313D01*
X68516337Y-121841141D01*
X68467489Y-121812939D01*
X68439504Y-121787741D01*
X68413215Y-121769470D01*
X68373257Y-121728092D01*
X68326739Y-121686207D01*
X68308296Y-121660823D01*
X68290473Y-121642366D01*
X68255821Y-121588597D01*
X68215414Y-121532981D01*
X68205212Y-121510066D01*
X68194754Y-121493839D01*
X68168789Y-121428261D01*
X68138379Y-121359958D01*
X68134476Y-121341596D01*
X68129707Y-121329551D01*
X68115740Y-121253448D01*
X68099001Y-121174699D01*
X68099001Y-121162246D01*
X68097811Y-121155762D01*
X68099001Y-121070535D01*
X68099001Y-120985301D01*
X68100275Y-120979308D01*
X68100278Y-120979077D01*
X68137015Y-120806246D01*
X68137105Y-120806036D01*
X68138379Y-120800042D01*
X68173042Y-120722188D01*
X68206622Y-120643839D01*
X68210348Y-120638397D01*
X68215414Y-120627019D01*
X68262746Y-120561872D01*
X68306452Y-120498041D01*
X68315706Y-120488979D01*
X68326739Y-120473793D01*
X68382297Y-120423769D01*
X68432693Y-120374417D01*
X68448848Y-120363846D01*
X68467489Y-120347061D01*
X68527026Y-120312687D01*
X68580551Y-120277662D01*
X68604340Y-120268050D01*
X68631512Y-120252363D01*
X68691045Y-120233019D01*
X68744376Y-120211472D01*
X68775820Y-120205474D01*
X68811640Y-120193835D01*
X68867744Y-120187938D01*
X68917945Y-120178362D01*
X68956312Y-120178630D01*
X69000000Y-120174038D01*
X69049902Y-120179283D01*
G37*
G36*
X69049902Y-117639283D02*
G01*
X69094637Y-117639595D01*
X69138460Y-117648590D01*
X69188360Y-117653835D01*
X69230132Y-117667408D01*
X69267723Y-117675124D01*
X69314851Y-117694935D01*
X69368488Y-117712363D01*
X69401099Y-117731191D01*
X69430614Y-117743598D01*
X69478301Y-117775763D01*
X69532511Y-117807061D01*
X69555826Y-117828054D01*
X69577101Y-117842404D01*
X69622183Y-117887802D01*
X69673261Y-117933793D01*
X69688003Y-117954083D01*
X69701608Y-117967784D01*
X69740643Y-118026537D01*
X69784586Y-118087019D01*
X69792221Y-118104168D01*
X69799388Y-118114955D01*
X69828865Y-118186472D01*
X69861621Y-118260042D01*
X69864211Y-118272225D01*
X69866724Y-118278323D01*
X69883292Y-118361997D01*
X69900999Y-118445301D01*
X69900999Y-118634699D01*
X69898115Y-118648269D01*
X69898030Y-118654331D01*
X69879342Y-118736585D01*
X69861621Y-118819958D01*
X69859129Y-118825555D01*
X69859078Y-118825780D01*
X69787210Y-118987197D01*
X69787078Y-118987385D01*
X69784586Y-118992981D01*
X69734480Y-119061946D01*
X69685357Y-119131582D01*
X69680585Y-119136126D01*
X69673261Y-119146207D01*
X69613396Y-119200110D01*
X69557396Y-119253438D01*
X69546464Y-119260376D01*
X69532511Y-119272939D01*
X69467764Y-119310321D01*
X69408211Y-119348114D01*
X69390209Y-119355097D01*
X69368488Y-119367637D01*
X69303115Y-119388878D01*
X69243468Y-119412014D01*
X69218200Y-119416469D01*
X69188360Y-119426165D01*
X69126095Y-119432709D01*
X69069460Y-119442695D01*
X69037459Y-119442025D01*
X69000000Y-119445962D01*
X68943902Y-119440066D01*
X68892799Y-119438996D01*
X68855323Y-119430756D01*
X68811640Y-119426165D01*
X68763917Y-119410659D01*
X68720225Y-119401052D01*
X68679230Y-119383142D01*
X68631512Y-119367637D01*
X68593473Y-119345675D01*
X68558310Y-119330313D01*
X68516337Y-119301141D01*
X68467489Y-119272939D01*
X68439504Y-119247741D01*
X68413215Y-119229470D01*
X68373257Y-119188092D01*
X68326739Y-119146207D01*
X68308296Y-119120823D01*
X68290473Y-119102366D01*
X68255821Y-119048597D01*
X68215414Y-118992981D01*
X68205212Y-118970066D01*
X68194754Y-118953839D01*
X68168789Y-118888261D01*
X68138379Y-118819958D01*
X68134476Y-118801596D01*
X68129707Y-118789551D01*
X68115740Y-118713448D01*
X68099001Y-118634699D01*
X68099001Y-118622246D01*
X68097811Y-118615762D01*
X68099001Y-118530535D01*
X68099001Y-118445301D01*
X68100275Y-118439308D01*
X68100278Y-118439077D01*
X68137015Y-118266246D01*
X68137105Y-118266036D01*
X68138379Y-118260042D01*
X68173042Y-118182188D01*
X68206622Y-118103839D01*
X68210348Y-118098397D01*
X68215414Y-118087019D01*
X68262746Y-118021872D01*
X68306452Y-117958041D01*
X68315706Y-117948979D01*
X68326739Y-117933793D01*
X68382297Y-117883769D01*
X68432693Y-117834417D01*
X68448848Y-117823846D01*
X68467489Y-117807061D01*
X68527026Y-117772687D01*
X68580551Y-117737662D01*
X68604340Y-117728050D01*
X68631512Y-117712363D01*
X68691045Y-117693019D01*
X68744376Y-117671472D01*
X68775820Y-117665474D01*
X68811640Y-117653835D01*
X68867744Y-117647938D01*
X68917945Y-117638362D01*
X68956312Y-117638630D01*
X69000000Y-117634038D01*
X69049902Y-117639283D01*
G37*
G36*
X69869899Y-115101959D02*
G01*
X69886769Y-115113231D01*
X69898041Y-115130101D01*
X69904448Y-115162312D01*
X69904448Y-116837688D01*
X69901999Y-116850000D01*
X69898041Y-116869899D01*
X69886769Y-116886769D01*
X69869899Y-116898041D01*
X69850000Y-116901999D01*
X69837688Y-116904448D01*
X68162312Y-116904448D01*
X68130101Y-116898041D01*
X68113231Y-116886769D01*
X68101959Y-116869899D01*
X68095552Y-116837688D01*
X68095552Y-115162312D01*
X68101959Y-115130101D01*
X68113231Y-115113231D01*
X68130101Y-115101959D01*
X68162312Y-115095552D01*
X69837688Y-115095552D01*
X69869899Y-115101959D01*
G37*
G36*
X69049902Y-111179283D02*
G01*
X69094637Y-111179595D01*
X69138460Y-111188590D01*
X69188360Y-111193835D01*
X69230132Y-111207408D01*
X69267723Y-111215124D01*
X69314851Y-111234935D01*
X69368488Y-111252363D01*
X69401099Y-111271191D01*
X69430614Y-111283598D01*
X69478301Y-111315763D01*
X69532511Y-111347061D01*
X69555826Y-111368054D01*
X69577101Y-111382404D01*
X69622183Y-111427802D01*
X69673261Y-111473793D01*
X69688003Y-111494083D01*
X69701608Y-111507784D01*
X69740643Y-111566537D01*
X69784586Y-111627019D01*
X69792221Y-111644168D01*
X69799388Y-111654955D01*
X69828865Y-111726472D01*
X69861621Y-111800042D01*
X69864211Y-111812225D01*
X69866724Y-111818323D01*
X69883292Y-111901997D01*
X69900999Y-111985301D01*
X69900999Y-112174699D01*
X69898115Y-112188269D01*
X69898030Y-112194331D01*
X69879342Y-112276585D01*
X69861621Y-112359958D01*
X69859129Y-112365555D01*
X69859078Y-112365780D01*
X69787210Y-112527197D01*
X69787078Y-112527385D01*
X69784586Y-112532981D01*
X69734480Y-112601946D01*
X69685357Y-112671582D01*
X69680585Y-112676126D01*
X69673261Y-112686207D01*
X69613396Y-112740110D01*
X69557396Y-112793438D01*
X69546464Y-112800376D01*
X69532511Y-112812939D01*
X69467764Y-112850321D01*
X69408211Y-112888114D01*
X69390209Y-112895097D01*
X69368488Y-112907637D01*
X69303115Y-112928878D01*
X69243468Y-112952014D01*
X69218200Y-112956469D01*
X69188360Y-112966165D01*
X69126095Y-112972709D01*
X69069460Y-112982695D01*
X69037459Y-112982025D01*
X69000000Y-112985962D01*
X68943902Y-112980066D01*
X68892799Y-112978996D01*
X68855323Y-112970756D01*
X68811640Y-112966165D01*
X68763917Y-112950659D01*
X68720225Y-112941052D01*
X68679230Y-112923142D01*
X68631512Y-112907637D01*
X68593473Y-112885675D01*
X68558310Y-112870313D01*
X68516337Y-112841141D01*
X68467489Y-112812939D01*
X68439504Y-112787741D01*
X68413215Y-112769470D01*
X68373257Y-112728092D01*
X68326739Y-112686207D01*
X68308296Y-112660823D01*
X68290473Y-112642366D01*
X68255821Y-112588597D01*
X68215414Y-112532981D01*
X68205212Y-112510066D01*
X68194754Y-112493839D01*
X68168789Y-112428261D01*
X68138379Y-112359958D01*
X68134476Y-112341596D01*
X68129707Y-112329551D01*
X68115740Y-112253448D01*
X68099001Y-112174699D01*
X68099001Y-112162246D01*
X68097811Y-112155762D01*
X68099001Y-112070535D01*
X68099001Y-111985301D01*
X68100275Y-111979308D01*
X68100278Y-111979077D01*
X68137015Y-111806246D01*
X68137105Y-111806036D01*
X68138379Y-111800042D01*
X68173042Y-111722188D01*
X68206622Y-111643839D01*
X68210348Y-111638397D01*
X68215414Y-111627019D01*
X68262746Y-111561872D01*
X68306452Y-111498041D01*
X68315706Y-111488979D01*
X68326739Y-111473793D01*
X68382297Y-111423769D01*
X68432693Y-111374417D01*
X68448848Y-111363846D01*
X68467489Y-111347061D01*
X68527026Y-111312687D01*
X68580551Y-111277662D01*
X68604340Y-111268050D01*
X68631512Y-111252363D01*
X68691045Y-111233019D01*
X68744376Y-111211472D01*
X68775820Y-111205474D01*
X68811640Y-111193835D01*
X68867744Y-111187938D01*
X68917945Y-111178362D01*
X68956312Y-111178630D01*
X69000000Y-111174038D01*
X69049902Y-111179283D01*
G37*
G36*
X69049902Y-108639283D02*
G01*
X69094637Y-108639595D01*
X69138460Y-108648590D01*
X69188360Y-108653835D01*
X69230132Y-108667408D01*
X69267723Y-108675124D01*
X69314851Y-108694935D01*
X69368488Y-108712363D01*
X69401099Y-108731191D01*
X69430614Y-108743598D01*
X69478301Y-108775763D01*
X69532511Y-108807061D01*
X69555826Y-108828054D01*
X69577101Y-108842404D01*
X69622183Y-108887802D01*
X69673261Y-108933793D01*
X69688003Y-108954083D01*
X69701608Y-108967784D01*
X69740643Y-109026537D01*
X69784586Y-109087019D01*
X69792221Y-109104168D01*
X69799388Y-109114955D01*
X69828865Y-109186472D01*
X69861621Y-109260042D01*
X69864211Y-109272225D01*
X69866724Y-109278323D01*
X69883292Y-109361997D01*
X69900999Y-109445301D01*
X69900999Y-109634699D01*
X69898115Y-109648269D01*
X69898030Y-109654331D01*
X69879342Y-109736585D01*
X69861621Y-109819958D01*
X69859129Y-109825555D01*
X69859078Y-109825780D01*
X69787210Y-109987197D01*
X69787078Y-109987385D01*
X69784586Y-109992981D01*
X69734480Y-110061946D01*
X69685357Y-110131582D01*
X69680585Y-110136126D01*
X69673261Y-110146207D01*
X69613396Y-110200110D01*
X69557396Y-110253438D01*
X69546464Y-110260376D01*
X69532511Y-110272939D01*
X69467764Y-110310321D01*
X69408211Y-110348114D01*
X69390209Y-110355097D01*
X69368488Y-110367637D01*
X69303115Y-110388878D01*
X69243468Y-110412014D01*
X69218200Y-110416469D01*
X69188360Y-110426165D01*
X69126095Y-110432709D01*
X69069460Y-110442695D01*
X69037459Y-110442025D01*
X69000000Y-110445962D01*
X68943902Y-110440066D01*
X68892799Y-110438996D01*
X68855323Y-110430756D01*
X68811640Y-110426165D01*
X68763917Y-110410659D01*
X68720225Y-110401052D01*
X68679230Y-110383142D01*
X68631512Y-110367637D01*
X68593473Y-110345675D01*
X68558310Y-110330313D01*
X68516337Y-110301141D01*
X68467489Y-110272939D01*
X68439504Y-110247741D01*
X68413215Y-110229470D01*
X68373257Y-110188092D01*
X68326739Y-110146207D01*
X68308296Y-110120823D01*
X68290473Y-110102366D01*
X68255821Y-110048597D01*
X68215414Y-109992981D01*
X68205212Y-109970066D01*
X68194754Y-109953839D01*
X68168789Y-109888261D01*
X68138379Y-109819958D01*
X68134476Y-109801596D01*
X68129707Y-109789551D01*
X68115740Y-109713448D01*
X68099001Y-109634699D01*
X68099001Y-109622246D01*
X68097811Y-109615762D01*
X68099001Y-109530535D01*
X68099001Y-109445301D01*
X68100275Y-109439308D01*
X68100278Y-109439077D01*
X68137015Y-109266246D01*
X68137105Y-109266036D01*
X68138379Y-109260042D01*
X68173042Y-109182188D01*
X68206622Y-109103839D01*
X68210348Y-109098397D01*
X68215414Y-109087019D01*
X68262746Y-109021872D01*
X68306452Y-108958041D01*
X68315706Y-108948979D01*
X68326739Y-108933793D01*
X68382297Y-108883769D01*
X68432693Y-108834417D01*
X68448848Y-108823846D01*
X68467489Y-108807061D01*
X68527026Y-108772687D01*
X68580551Y-108737662D01*
X68604340Y-108728050D01*
X68631512Y-108712363D01*
X68691045Y-108693019D01*
X68744376Y-108671472D01*
X68775820Y-108665474D01*
X68811640Y-108653835D01*
X68867744Y-108647938D01*
X68917945Y-108638362D01*
X68956312Y-108638630D01*
X69000000Y-108634038D01*
X69049902Y-108639283D01*
G37*
G36*
X69869899Y-106101959D02*
G01*
X69886769Y-106113231D01*
X69898041Y-106130101D01*
X69904448Y-106162312D01*
X69904448Y-107837688D01*
X69901999Y-107850000D01*
X69898041Y-107869899D01*
X69886769Y-107886769D01*
X69869899Y-107898041D01*
X69850000Y-107901999D01*
X69837688Y-107904448D01*
X68162312Y-107904448D01*
X68130101Y-107898041D01*
X68113231Y-107886769D01*
X68101959Y-107869899D01*
X68095552Y-107837688D01*
X68095552Y-106162312D01*
X68101959Y-106130101D01*
X68113231Y-106113231D01*
X68130101Y-106101959D01*
X68162312Y-106095552D01*
X69837688Y-106095552D01*
X69869899Y-106101959D01*
G37*
G36*
X69089902Y-102179283D02*
G01*
X69134637Y-102179595D01*
X69178460Y-102188590D01*
X69228360Y-102193835D01*
X69270132Y-102207408D01*
X69307723Y-102215124D01*
X69354851Y-102234935D01*
X69408488Y-102252363D01*
X69441099Y-102271191D01*
X69470614Y-102283598D01*
X69518301Y-102315763D01*
X69572511Y-102347061D01*
X69595826Y-102368054D01*
X69617101Y-102382404D01*
X69662183Y-102427802D01*
X69713261Y-102473793D01*
X69728003Y-102494083D01*
X69741608Y-102507784D01*
X69780643Y-102566537D01*
X69824586Y-102627019D01*
X69832221Y-102644168D01*
X69839388Y-102654955D01*
X69868865Y-102726472D01*
X69901621Y-102800042D01*
X69904211Y-102812225D01*
X69906724Y-102818323D01*
X69923292Y-102901997D01*
X69940999Y-102985301D01*
X69940999Y-103174699D01*
X69938115Y-103188269D01*
X69938030Y-103194331D01*
X69919342Y-103276585D01*
X69901621Y-103359958D01*
X69899129Y-103365555D01*
X69899078Y-103365780D01*
X69827210Y-103527197D01*
X69827078Y-103527385D01*
X69824586Y-103532981D01*
X69774480Y-103601946D01*
X69725357Y-103671582D01*
X69720585Y-103676126D01*
X69713261Y-103686207D01*
X69653396Y-103740110D01*
X69597396Y-103793438D01*
X69586464Y-103800376D01*
X69572511Y-103812939D01*
X69507764Y-103850321D01*
X69448211Y-103888114D01*
X69430209Y-103895097D01*
X69408488Y-103907637D01*
X69343115Y-103928878D01*
X69283468Y-103952014D01*
X69258200Y-103956469D01*
X69228360Y-103966165D01*
X69166095Y-103972709D01*
X69109460Y-103982695D01*
X69077459Y-103982025D01*
X69040000Y-103985962D01*
X68983902Y-103980066D01*
X68932799Y-103978996D01*
X68895323Y-103970756D01*
X68851640Y-103966165D01*
X68803917Y-103950659D01*
X68760225Y-103941052D01*
X68719230Y-103923142D01*
X68671512Y-103907637D01*
X68633473Y-103885675D01*
X68598310Y-103870313D01*
X68556337Y-103841141D01*
X68507489Y-103812939D01*
X68479504Y-103787741D01*
X68453215Y-103769470D01*
X68413257Y-103728092D01*
X68366739Y-103686207D01*
X68348296Y-103660823D01*
X68330473Y-103642366D01*
X68295821Y-103588597D01*
X68255414Y-103532981D01*
X68245212Y-103510066D01*
X68234754Y-103493839D01*
X68208789Y-103428261D01*
X68178379Y-103359958D01*
X68174476Y-103341596D01*
X68169707Y-103329551D01*
X68155740Y-103253448D01*
X68139001Y-103174699D01*
X68139001Y-103162246D01*
X68137811Y-103155762D01*
X68139001Y-103070535D01*
X68139001Y-102985301D01*
X68140275Y-102979308D01*
X68140278Y-102979077D01*
X68177015Y-102806246D01*
X68177105Y-102806036D01*
X68178379Y-102800042D01*
X68213042Y-102722188D01*
X68246622Y-102643839D01*
X68250348Y-102638397D01*
X68255414Y-102627019D01*
X68302746Y-102561872D01*
X68346452Y-102498041D01*
X68355706Y-102488979D01*
X68366739Y-102473793D01*
X68422297Y-102423769D01*
X68472693Y-102374417D01*
X68488848Y-102363846D01*
X68507489Y-102347061D01*
X68567026Y-102312687D01*
X68620551Y-102277662D01*
X68644340Y-102268050D01*
X68671512Y-102252363D01*
X68731045Y-102233019D01*
X68784376Y-102211472D01*
X68815820Y-102205474D01*
X68851640Y-102193835D01*
X68907744Y-102187938D01*
X68957945Y-102178362D01*
X68996312Y-102178630D01*
X69040000Y-102174038D01*
X69089902Y-102179283D01*
G37*
G36*
X66549902Y-102179283D02*
G01*
X66594637Y-102179595D01*
X66638460Y-102188590D01*
X66688360Y-102193835D01*
X66730132Y-102207408D01*
X66767723Y-102215124D01*
X66814851Y-102234935D01*
X66868488Y-102252363D01*
X66901099Y-102271191D01*
X66930614Y-102283598D01*
X66978301Y-102315763D01*
X67032511Y-102347061D01*
X67055826Y-102368054D01*
X67077101Y-102382404D01*
X67122183Y-102427802D01*
X67173261Y-102473793D01*
X67188003Y-102494083D01*
X67201608Y-102507784D01*
X67240643Y-102566537D01*
X67284586Y-102627019D01*
X67292221Y-102644168D01*
X67299388Y-102654955D01*
X67328865Y-102726472D01*
X67361621Y-102800042D01*
X67364211Y-102812225D01*
X67366724Y-102818323D01*
X67383292Y-102901997D01*
X67400999Y-102985301D01*
X67400999Y-103174699D01*
X67398115Y-103188269D01*
X67398030Y-103194331D01*
X67379342Y-103276585D01*
X67361621Y-103359958D01*
X67359129Y-103365555D01*
X67359078Y-103365780D01*
X67287210Y-103527197D01*
X67287078Y-103527385D01*
X67284586Y-103532981D01*
X67234480Y-103601946D01*
X67185357Y-103671582D01*
X67180585Y-103676126D01*
X67173261Y-103686207D01*
X67113396Y-103740110D01*
X67057396Y-103793438D01*
X67046464Y-103800376D01*
X67032511Y-103812939D01*
X66967764Y-103850321D01*
X66908211Y-103888114D01*
X66890209Y-103895097D01*
X66868488Y-103907637D01*
X66803115Y-103928878D01*
X66743468Y-103952014D01*
X66718200Y-103956469D01*
X66688360Y-103966165D01*
X66626095Y-103972709D01*
X66569460Y-103982695D01*
X66537459Y-103982025D01*
X66500000Y-103985962D01*
X66443902Y-103980066D01*
X66392799Y-103978996D01*
X66355323Y-103970756D01*
X66311640Y-103966165D01*
X66263917Y-103950659D01*
X66220225Y-103941052D01*
X66179230Y-103923142D01*
X66131512Y-103907637D01*
X66093473Y-103885675D01*
X66058310Y-103870313D01*
X66016337Y-103841141D01*
X65967489Y-103812939D01*
X65939504Y-103787741D01*
X65913215Y-103769470D01*
X65873257Y-103728092D01*
X65826739Y-103686207D01*
X65808296Y-103660823D01*
X65790473Y-103642366D01*
X65755821Y-103588597D01*
X65715414Y-103532981D01*
X65705212Y-103510066D01*
X65694754Y-103493839D01*
X65668789Y-103428261D01*
X65638379Y-103359958D01*
X65634476Y-103341596D01*
X65629707Y-103329551D01*
X65615740Y-103253448D01*
X65599001Y-103174699D01*
X65599001Y-103162246D01*
X65597811Y-103155762D01*
X65599001Y-103070535D01*
X65599001Y-102985301D01*
X65600275Y-102979308D01*
X65600278Y-102979077D01*
X65637015Y-102806246D01*
X65637105Y-102806036D01*
X65638379Y-102800042D01*
X65673042Y-102722188D01*
X65706622Y-102643839D01*
X65710348Y-102638397D01*
X65715414Y-102627019D01*
X65762746Y-102561872D01*
X65806452Y-102498041D01*
X65815706Y-102488979D01*
X65826739Y-102473793D01*
X65882297Y-102423769D01*
X65932693Y-102374417D01*
X65948848Y-102363846D01*
X65967489Y-102347061D01*
X66027026Y-102312687D01*
X66080551Y-102277662D01*
X66104340Y-102268050D01*
X66131512Y-102252363D01*
X66191045Y-102233019D01*
X66244376Y-102211472D01*
X66275820Y-102205474D01*
X66311640Y-102193835D01*
X66367744Y-102187938D01*
X66417945Y-102178362D01*
X66456312Y-102178630D01*
X66500000Y-102174038D01*
X66549902Y-102179283D01*
G37*
G36*
X66549902Y-99639283D02*
G01*
X66594637Y-99639595D01*
X66638460Y-99648590D01*
X66688360Y-99653835D01*
X66730132Y-99667408D01*
X66767723Y-99675124D01*
X66814851Y-99694935D01*
X66868488Y-99712363D01*
X66901099Y-99731191D01*
X66930614Y-99743598D01*
X66978301Y-99775763D01*
X67032511Y-99807061D01*
X67055826Y-99828054D01*
X67077101Y-99842404D01*
X67122183Y-99887802D01*
X67173261Y-99933793D01*
X67188003Y-99954083D01*
X67201608Y-99967784D01*
X67240643Y-100026537D01*
X67284586Y-100087019D01*
X67292221Y-100104168D01*
X67299388Y-100114955D01*
X67328865Y-100186472D01*
X67361621Y-100260042D01*
X67364211Y-100272225D01*
X67366724Y-100278323D01*
X67383292Y-100361997D01*
X67400999Y-100445301D01*
X67400999Y-100634699D01*
X67398115Y-100648269D01*
X67398030Y-100654331D01*
X67379342Y-100736585D01*
X67361621Y-100819958D01*
X67359129Y-100825555D01*
X67359078Y-100825780D01*
X67287210Y-100987197D01*
X67287078Y-100987385D01*
X67284586Y-100992981D01*
X67234480Y-101061946D01*
X67185357Y-101131582D01*
X67180585Y-101136126D01*
X67173261Y-101146207D01*
X67113396Y-101200110D01*
X67057396Y-101253438D01*
X67046464Y-101260376D01*
X67032511Y-101272939D01*
X66967764Y-101310321D01*
X66908211Y-101348114D01*
X66890209Y-101355097D01*
X66868488Y-101367637D01*
X66803115Y-101388878D01*
X66743468Y-101412014D01*
X66718200Y-101416469D01*
X66688360Y-101426165D01*
X66626095Y-101432709D01*
X66569460Y-101442695D01*
X66537459Y-101442025D01*
X66500000Y-101445962D01*
X66443902Y-101440066D01*
X66392799Y-101438996D01*
X66355323Y-101430756D01*
X66311640Y-101426165D01*
X66263917Y-101410659D01*
X66220225Y-101401052D01*
X66179230Y-101383142D01*
X66131512Y-101367637D01*
X66093473Y-101345675D01*
X66058310Y-101330313D01*
X66016337Y-101301141D01*
X65967489Y-101272939D01*
X65939504Y-101247741D01*
X65913215Y-101229470D01*
X65873257Y-101188092D01*
X65826739Y-101146207D01*
X65808296Y-101120823D01*
X65790473Y-101102366D01*
X65755821Y-101048597D01*
X65715414Y-100992981D01*
X65705212Y-100970066D01*
X65694754Y-100953839D01*
X65668789Y-100888261D01*
X65638379Y-100819958D01*
X65634476Y-100801596D01*
X65629707Y-100789551D01*
X65615740Y-100713448D01*
X65599001Y-100634699D01*
X65599001Y-100622246D01*
X65597811Y-100615762D01*
X65599001Y-100530535D01*
X65599001Y-100445301D01*
X65600275Y-100439308D01*
X65600278Y-100439077D01*
X65637015Y-100266246D01*
X65637105Y-100266036D01*
X65638379Y-100260042D01*
X65673042Y-100182188D01*
X65706622Y-100103839D01*
X65710348Y-100098397D01*
X65715414Y-100087019D01*
X65762746Y-100021872D01*
X65806452Y-99958041D01*
X65815706Y-99948979D01*
X65826739Y-99933793D01*
X65882297Y-99883769D01*
X65932693Y-99834417D01*
X65948848Y-99823846D01*
X65967489Y-99807061D01*
X66027026Y-99772687D01*
X66080551Y-99737662D01*
X66104340Y-99728050D01*
X66131512Y-99712363D01*
X66191045Y-99693019D01*
X66244376Y-99671472D01*
X66275820Y-99665474D01*
X66311640Y-99653835D01*
X66367744Y-99647938D01*
X66417945Y-99638362D01*
X66456312Y-99638630D01*
X66500000Y-99634038D01*
X66549902Y-99639283D01*
G37*
G36*
X69089902Y-99639283D02*
G01*
X69134637Y-99639595D01*
X69178460Y-99648590D01*
X69228360Y-99653835D01*
X69270132Y-99667408D01*
X69307723Y-99675124D01*
X69354851Y-99694935D01*
X69408488Y-99712363D01*
X69441099Y-99731191D01*
X69470614Y-99743598D01*
X69518301Y-99775763D01*
X69572511Y-99807061D01*
X69595826Y-99828054D01*
X69617101Y-99842404D01*
X69662183Y-99887802D01*
X69713261Y-99933793D01*
X69728003Y-99954083D01*
X69741608Y-99967784D01*
X69780643Y-100026537D01*
X69824586Y-100087019D01*
X69832221Y-100104168D01*
X69839388Y-100114955D01*
X69868865Y-100186472D01*
X69901621Y-100260042D01*
X69904211Y-100272225D01*
X69906724Y-100278323D01*
X69923292Y-100361997D01*
X69940999Y-100445301D01*
X69940999Y-100634699D01*
X69938115Y-100648269D01*
X69938030Y-100654331D01*
X69919342Y-100736585D01*
X69901621Y-100819958D01*
X69899129Y-100825555D01*
X69899078Y-100825780D01*
X69827210Y-100987197D01*
X69827078Y-100987385D01*
X69824586Y-100992981D01*
X69774480Y-101061946D01*
X69725357Y-101131582D01*
X69720585Y-101136126D01*
X69713261Y-101146207D01*
X69653396Y-101200110D01*
X69597396Y-101253438D01*
X69586464Y-101260376D01*
X69572511Y-101272939D01*
X69507764Y-101310321D01*
X69448211Y-101348114D01*
X69430209Y-101355097D01*
X69408488Y-101367637D01*
X69343115Y-101388878D01*
X69283468Y-101412014D01*
X69258200Y-101416469D01*
X69228360Y-101426165D01*
X69166095Y-101432709D01*
X69109460Y-101442695D01*
X69077459Y-101442025D01*
X69040000Y-101445962D01*
X68983902Y-101440066D01*
X68932799Y-101438996D01*
X68895323Y-101430756D01*
X68851640Y-101426165D01*
X68803917Y-101410659D01*
X68760225Y-101401052D01*
X68719230Y-101383142D01*
X68671512Y-101367637D01*
X68633473Y-101345675D01*
X68598310Y-101330313D01*
X68556337Y-101301141D01*
X68507489Y-101272939D01*
X68479504Y-101247741D01*
X68453215Y-101229470D01*
X68413257Y-101188092D01*
X68366739Y-101146207D01*
X68348296Y-101120823D01*
X68330473Y-101102366D01*
X68295821Y-101048597D01*
X68255414Y-100992981D01*
X68245212Y-100970066D01*
X68234754Y-100953839D01*
X68208789Y-100888261D01*
X68178379Y-100819958D01*
X68174476Y-100801596D01*
X68169707Y-100789551D01*
X68155740Y-100713448D01*
X68139001Y-100634699D01*
X68139001Y-100622246D01*
X68137811Y-100615762D01*
X68139001Y-100530535D01*
X68139001Y-100445301D01*
X68140275Y-100439308D01*
X68140278Y-100439077D01*
X68177015Y-100266246D01*
X68177105Y-100266036D01*
X68178379Y-100260042D01*
X68213042Y-100182188D01*
X68246622Y-100103839D01*
X68250348Y-100098397D01*
X68255414Y-100087019D01*
X68302746Y-100021872D01*
X68346452Y-99958041D01*
X68355706Y-99948979D01*
X68366739Y-99933793D01*
X68422297Y-99883769D01*
X68472693Y-99834417D01*
X68488848Y-99823846D01*
X68507489Y-99807061D01*
X68567026Y-99772687D01*
X68620551Y-99737662D01*
X68644340Y-99728050D01*
X68671512Y-99712363D01*
X68731045Y-99693019D01*
X68784376Y-99671472D01*
X68815820Y-99665474D01*
X68851640Y-99653835D01*
X68907744Y-99647938D01*
X68957945Y-99638362D01*
X68996312Y-99638630D01*
X69040000Y-99634038D01*
X69089902Y-99639283D01*
G37*
G36*
X69089902Y-97099283D02*
G01*
X69134637Y-97099595D01*
X69178460Y-97108590D01*
X69228360Y-97113835D01*
X69270132Y-97127408D01*
X69307723Y-97135124D01*
X69354851Y-97154935D01*
X69408488Y-97172363D01*
X69441099Y-97191191D01*
X69470614Y-97203598D01*
X69518301Y-97235763D01*
X69572511Y-97267061D01*
X69595826Y-97288054D01*
X69617101Y-97302404D01*
X69662183Y-97347802D01*
X69713261Y-97393793D01*
X69728003Y-97414083D01*
X69741608Y-97427784D01*
X69780643Y-97486537D01*
X69824586Y-97547019D01*
X69832221Y-97564168D01*
X69839388Y-97574955D01*
X69868865Y-97646472D01*
X69901621Y-97720042D01*
X69904211Y-97732225D01*
X69906724Y-97738323D01*
X69923292Y-97821997D01*
X69940999Y-97905301D01*
X69940999Y-98094699D01*
X69938115Y-98108269D01*
X69938030Y-98114331D01*
X69919342Y-98196585D01*
X69901621Y-98279958D01*
X69899129Y-98285555D01*
X69899078Y-98285780D01*
X69827210Y-98447197D01*
X69827078Y-98447385D01*
X69824586Y-98452981D01*
X69774480Y-98521946D01*
X69725357Y-98591582D01*
X69720585Y-98596126D01*
X69713261Y-98606207D01*
X69653396Y-98660110D01*
X69597396Y-98713438D01*
X69586464Y-98720376D01*
X69572511Y-98732939D01*
X69507764Y-98770321D01*
X69448211Y-98808114D01*
X69430209Y-98815097D01*
X69408488Y-98827637D01*
X69343115Y-98848878D01*
X69283468Y-98872014D01*
X69258200Y-98876469D01*
X69228360Y-98886165D01*
X69166095Y-98892709D01*
X69109460Y-98902695D01*
X69077459Y-98902025D01*
X69040000Y-98905962D01*
X68983902Y-98900066D01*
X68932799Y-98898996D01*
X68895323Y-98890756D01*
X68851640Y-98886165D01*
X68803917Y-98870659D01*
X68760225Y-98861052D01*
X68719230Y-98843142D01*
X68671512Y-98827637D01*
X68633473Y-98805675D01*
X68598310Y-98790313D01*
X68556337Y-98761141D01*
X68507489Y-98732939D01*
X68479504Y-98707741D01*
X68453215Y-98689470D01*
X68413257Y-98648092D01*
X68366739Y-98606207D01*
X68348296Y-98580823D01*
X68330473Y-98562366D01*
X68295821Y-98508597D01*
X68255414Y-98452981D01*
X68245212Y-98430066D01*
X68234754Y-98413839D01*
X68208789Y-98348261D01*
X68178379Y-98279958D01*
X68174476Y-98261596D01*
X68169707Y-98249551D01*
X68155740Y-98173448D01*
X68139001Y-98094699D01*
X68139001Y-98082246D01*
X68137811Y-98075762D01*
X68139001Y-97990535D01*
X68139001Y-97905301D01*
X68140275Y-97899308D01*
X68140278Y-97899077D01*
X68177015Y-97726246D01*
X68177105Y-97726036D01*
X68178379Y-97720042D01*
X68213042Y-97642188D01*
X68246622Y-97563839D01*
X68250348Y-97558397D01*
X68255414Y-97547019D01*
X68302746Y-97481872D01*
X68346452Y-97418041D01*
X68355706Y-97408979D01*
X68366739Y-97393793D01*
X68422297Y-97343769D01*
X68472693Y-97294417D01*
X68488848Y-97283846D01*
X68507489Y-97267061D01*
X68567026Y-97232687D01*
X68620551Y-97197662D01*
X68644340Y-97188050D01*
X68671512Y-97172363D01*
X68731045Y-97153019D01*
X68784376Y-97131472D01*
X68815820Y-97125474D01*
X68851640Y-97113835D01*
X68907744Y-97107938D01*
X68957945Y-97098362D01*
X68996312Y-97098630D01*
X69040000Y-97094038D01*
X69089902Y-97099283D01*
G37*
G36*
X67369899Y-97101959D02*
G01*
X67386769Y-97113231D01*
X67398041Y-97130101D01*
X67404448Y-97162312D01*
X67404448Y-98837688D01*
X67401999Y-98850000D01*
X67398041Y-98869899D01*
X67386769Y-98886769D01*
X67369899Y-98898041D01*
X67350000Y-98901999D01*
X67337688Y-98904448D01*
X65662312Y-98904448D01*
X65630101Y-98898041D01*
X65613231Y-98886769D01*
X65601959Y-98869899D01*
X65595552Y-98837688D01*
X65595552Y-97162312D01*
X65601959Y-97130101D01*
X65613231Y-97113231D01*
X65630101Y-97101959D01*
X65662312Y-97095552D01*
X67337688Y-97095552D01*
X67369899Y-97101959D01*
G37*
G36*
X43014068Y-90145807D02*
G01*
X43044857Y-90144517D01*
X43176224Y-90154164D01*
X43313403Y-90161233D01*
X43344505Y-90166521D01*
X43372757Y-90168596D01*
X43504413Y-90193711D01*
X43642464Y-90217184D01*
X43670353Y-90225366D01*
X43695726Y-90230206D01*
X43825831Y-90270978D01*
X43962749Y-90311146D01*
X43987184Y-90321543D01*
X44009466Y-90328526D01*
X44136144Y-90384927D01*
X44269885Y-90441834D01*
X44290765Y-90453768D01*
X44309825Y-90462254D01*
X44431096Y-90533974D01*
X44559675Y-90607463D01*
X44577016Y-90620271D01*
X44592834Y-90629626D01*
X44706812Y-90716140D01*
X44828163Y-90805771D01*
X44842061Y-90818800D01*
X44854716Y-90828405D01*
X44959518Y-90928906D01*
X45071680Y-91034049D01*
X45082347Y-91046694D01*
X45092023Y-91055973D01*
X45185840Y-91169379D01*
X45286901Y-91289180D01*
X45294643Y-91300899D01*
X45301597Y-91309305D01*
X45382648Y-91434113D01*
X45470885Y-91567678D01*
X45476083Y-91577991D01*
X45480668Y-91585051D01*
X45547390Y-91719461D01*
X45621121Y-91865740D01*
X45624222Y-91874237D01*
X45626860Y-91879551D01*
X45677808Y-92021064D01*
X45735555Y-92179294D01*
X45737066Y-92185659D01*
X45738233Y-92188902D01*
X45771965Y-92332721D01*
X45812626Y-92504058D01*
X45813095Y-92508076D01*
X45813309Y-92508991D01*
X45827467Y-92631351D01*
X45851279Y-92835596D01*
X45849616Y-92873693D01*
X45834803Y-93345027D01*
X45827189Y-93387345D01*
X45826100Y-93412283D01*
X45799409Y-93541741D01*
X45776928Y-93666684D01*
X45766586Y-93700939D01*
X45758699Y-93739191D01*
X45717888Y-93862231D01*
X45681899Y-93981432D01*
X45666704Y-94016545D01*
X45653617Y-94056002D01*
X45599815Y-94171118D01*
X45551320Y-94283185D01*
X45530944Y-94318477D01*
X45512290Y-94358390D01*
X45446782Y-94464249D01*
X45386926Y-94567923D01*
X45361146Y-94602636D01*
X45336648Y-94642224D01*
X45260832Y-94737708D01*
X45190901Y-94831871D01*
X45159600Y-94865203D01*
X45129091Y-94903627D01*
X45044442Y-94987834D01*
X44965831Y-95071546D01*
X44929015Y-95102658D01*
X44892453Y-95139029D01*
X44800552Y-95211218D01*
X44714695Y-95283773D01*
X44672473Y-95311825D01*
X44629967Y-95345214D01*
X44532454Y-95404853D01*
X44440854Y-95465712D01*
X44393480Y-95489850D01*
X44345217Y-95519368D01*
X44243682Y-95566176D01*
X44147891Y-95614984D01*
X44095731Y-95634382D01*
X44042094Y-95659109D01*
X43938218Y-95692961D01*
X43839735Y-95729586D01*
X43783275Y-95743454D01*
X43724736Y-95762531D01*
X43620094Y-95783535D01*
X43520432Y-95808015D01*
X43460287Y-95815613D01*
X43397480Y-95828220D01*
X43293617Y-95836668D01*
X43194241Y-95849222D01*
X43131149Y-95849883D01*
X43064795Y-95855280D01*
X42963174Y-95851643D01*
X42865471Y-95852666D01*
X42800249Y-95845811D01*
X42731225Y-95843340D01*
X42633199Y-95828252D01*
X42538492Y-95818298D01*
X42472092Y-95803456D01*
X42401326Y-95792564D01*
X42308134Y-95766807D01*
X42217613Y-95746573D01*
X42151014Y-95723381D01*
X42079604Y-95703644D01*
X41992406Y-95668148D01*
X41907119Y-95638448D01*
X41841386Y-95606672D01*
X41770454Y-95577797D01*
X41690201Y-95533586D01*
X41611107Y-95495351D01*
X41547368Y-95454901D01*
X41478097Y-95416740D01*
X41405583Y-95364921D01*
X41333498Y-95319174D01*
X41272915Y-95270115D01*
X41206528Y-95222674D01*
X41142415Y-95164438D01*
X41077988Y-95112266D01*
X41021715Y-95054802D01*
X40959455Y-94998249D01*
X40904220Y-94934821D01*
X40847947Y-94877356D01*
X40797130Y-94811844D01*
X40740254Y-94746530D01*
X40694219Y-94679172D01*
X40646434Y-94617568D01*
X40602208Y-94544542D01*
X40551917Y-94470956D01*
X40515206Y-94400883D01*
X40476108Y-94336324D01*
X40439544Y-94256462D01*
X40397019Y-94175291D01*
X40369636Y-94103769D01*
X40339244Y-94037388D01*
X40311338Y-93951502D01*
X40277673Y-93863573D01*
X40259435Y-93791762D01*
X40237643Y-93724692D01*
X40219307Y-93633757D01*
X40195511Y-93540059D01*
X40186105Y-93469094D01*
X40172656Y-93402393D01*
X40164688Y-93307502D01*
X40151655Y-93209169D01*
X40150630Y-93140083D01*
X40145144Y-93074751D01*
X40148212Y-92977124D01*
X40146703Y-92875422D01*
X40153490Y-92809185D01*
X40155471Y-92746134D01*
X40170100Y-92647066D01*
X40180724Y-92543377D01*
X40194648Y-92480827D01*
X40203501Y-92420876D01*
X40230054Y-92321778D01*
X40253252Y-92217568D01*
X40273553Y-92159435D01*
X40288598Y-92103286D01*
X40327277Y-92005595D01*
X40363298Y-91902447D01*
X40389145Y-91849335D01*
X40409632Y-91797591D01*
X40460435Y-91702844D01*
X40509357Y-91602316D01*
X40539879Y-91554682D01*
X40564998Y-91507835D01*
X40627747Y-91417551D01*
X40689435Y-91321277D01*
X40723717Y-91279467D01*
X40752647Y-91237842D01*
X40826992Y-91153514D01*
X40901073Y-91063166D01*
X40938190Y-91027385D01*
X40970072Y-90991222D01*
X41055430Y-90914365D01*
X41141379Y-90831510D01*
X41180428Y-90801817D01*
X41214412Y-90771217D01*
X41310020Y-90703272D01*
X41407072Y-90629472D01*
X41447169Y-90605806D01*
X41482412Y-90580760D01*
X41587306Y-90523094D01*
X41694521Y-90459813D01*
X41734818Y-90441998D01*
X41770530Y-90422365D01*
X41883598Y-90376223D01*
X41999802Y-90324850D01*
X42039517Y-90312594D01*
X42074946Y-90298136D01*
X42194895Y-90264645D01*
X42318745Y-90226426D01*
X42357150Y-90219343D01*
X42391618Y-90209719D01*
X42516992Y-90189862D01*
X42646992Y-90165885D01*
X42683474Y-90163494D01*
X42716362Y-90158285D01*
X42845579Y-90152869D01*
X42980061Y-90144055D01*
X43014068Y-90145807D01*
G37*
G36*
X62014068Y-90145807D02*
G01*
X62044857Y-90144517D01*
X62176224Y-90154164D01*
X62313403Y-90161233D01*
X62344505Y-90166521D01*
X62372757Y-90168596D01*
X62504413Y-90193711D01*
X62642464Y-90217184D01*
X62670353Y-90225366D01*
X62695726Y-90230206D01*
X62825831Y-90270978D01*
X62962749Y-90311146D01*
X62987184Y-90321543D01*
X63009466Y-90328526D01*
X63136144Y-90384927D01*
X63269885Y-90441834D01*
X63290765Y-90453768D01*
X63309825Y-90462254D01*
X63431096Y-90533974D01*
X63559675Y-90607463D01*
X63577016Y-90620271D01*
X63592834Y-90629626D01*
X63706812Y-90716140D01*
X63828163Y-90805771D01*
X63842061Y-90818800D01*
X63854716Y-90828405D01*
X63959518Y-90928906D01*
X64071680Y-91034049D01*
X64082347Y-91046694D01*
X64092023Y-91055973D01*
X64185840Y-91169379D01*
X64286901Y-91289180D01*
X64294643Y-91300899D01*
X64301597Y-91309305D01*
X64382648Y-91434113D01*
X64470885Y-91567678D01*
X64476083Y-91577991D01*
X64480668Y-91585051D01*
X64547390Y-91719461D01*
X64621121Y-91865740D01*
X64624222Y-91874237D01*
X64626860Y-91879551D01*
X64677808Y-92021064D01*
X64735555Y-92179294D01*
X64737066Y-92185659D01*
X64738233Y-92188902D01*
X64771965Y-92332721D01*
X64812626Y-92504058D01*
X64813095Y-92508076D01*
X64813309Y-92508991D01*
X64827467Y-92631351D01*
X64851279Y-92835596D01*
X64849616Y-92873693D01*
X64834803Y-93345027D01*
X64827189Y-93387345D01*
X64826100Y-93412283D01*
X64799409Y-93541741D01*
X64776928Y-93666684D01*
X64766586Y-93700939D01*
X64758699Y-93739191D01*
X64717888Y-93862231D01*
X64681899Y-93981432D01*
X64666704Y-94016545D01*
X64653617Y-94056002D01*
X64599815Y-94171118D01*
X64551320Y-94283185D01*
X64530944Y-94318477D01*
X64512290Y-94358390D01*
X64446782Y-94464249D01*
X64386926Y-94567923D01*
X64361146Y-94602636D01*
X64336648Y-94642224D01*
X64260832Y-94737708D01*
X64190901Y-94831871D01*
X64159600Y-94865203D01*
X64129091Y-94903627D01*
X64044442Y-94987834D01*
X63965831Y-95071546D01*
X63929015Y-95102658D01*
X63892453Y-95139029D01*
X63800552Y-95211218D01*
X63714695Y-95283773D01*
X63672473Y-95311825D01*
X63629967Y-95345214D01*
X63532454Y-95404853D01*
X63440854Y-95465712D01*
X63393480Y-95489850D01*
X63345217Y-95519368D01*
X63243682Y-95566176D01*
X63147891Y-95614984D01*
X63095731Y-95634382D01*
X63042094Y-95659109D01*
X62938218Y-95692961D01*
X62839735Y-95729586D01*
X62783275Y-95743454D01*
X62724736Y-95762531D01*
X62620094Y-95783535D01*
X62520432Y-95808015D01*
X62460287Y-95815613D01*
X62397480Y-95828220D01*
X62293617Y-95836668D01*
X62194241Y-95849222D01*
X62131149Y-95849883D01*
X62064795Y-95855280D01*
X61963174Y-95851643D01*
X61865471Y-95852666D01*
X61800249Y-95845811D01*
X61731225Y-95843340D01*
X61633199Y-95828252D01*
X61538492Y-95818298D01*
X61472092Y-95803456D01*
X61401326Y-95792564D01*
X61308134Y-95766807D01*
X61217613Y-95746573D01*
X61151014Y-95723381D01*
X61079604Y-95703644D01*
X60992406Y-95668148D01*
X60907119Y-95638448D01*
X60841386Y-95606672D01*
X60770454Y-95577797D01*
X60690201Y-95533586D01*
X60611107Y-95495351D01*
X60547368Y-95454901D01*
X60478097Y-95416740D01*
X60405583Y-95364921D01*
X60333498Y-95319174D01*
X60272915Y-95270115D01*
X60206528Y-95222674D01*
X60142415Y-95164438D01*
X60077988Y-95112266D01*
X60021715Y-95054802D01*
X59959455Y-94998249D01*
X59904220Y-94934821D01*
X59847947Y-94877356D01*
X59797130Y-94811844D01*
X59740254Y-94746530D01*
X59694219Y-94679172D01*
X59646434Y-94617568D01*
X59602208Y-94544542D01*
X59551917Y-94470956D01*
X59515206Y-94400883D01*
X59476108Y-94336324D01*
X59439544Y-94256462D01*
X59397019Y-94175291D01*
X59369636Y-94103769D01*
X59339244Y-94037388D01*
X59311338Y-93951502D01*
X59277673Y-93863573D01*
X59259435Y-93791762D01*
X59237643Y-93724692D01*
X59219307Y-93633757D01*
X59195511Y-93540059D01*
X59186105Y-93469094D01*
X59172656Y-93402393D01*
X59164688Y-93307502D01*
X59151655Y-93209169D01*
X59150630Y-93140083D01*
X59145144Y-93074751D01*
X59148212Y-92977124D01*
X59146703Y-92875422D01*
X59153490Y-92809185D01*
X59155471Y-92746134D01*
X59170100Y-92647066D01*
X59180724Y-92543377D01*
X59194648Y-92480827D01*
X59203501Y-92420876D01*
X59230054Y-92321778D01*
X59253252Y-92217568D01*
X59273553Y-92159435D01*
X59288598Y-92103286D01*
X59327277Y-92005595D01*
X59363298Y-91902447D01*
X59389145Y-91849335D01*
X59409632Y-91797591D01*
X59460435Y-91702844D01*
X59509357Y-91602316D01*
X59539879Y-91554682D01*
X59564998Y-91507835D01*
X59627747Y-91417551D01*
X59689435Y-91321277D01*
X59723717Y-91279467D01*
X59752647Y-91237842D01*
X59826992Y-91153514D01*
X59901073Y-91063166D01*
X59938190Y-91027385D01*
X59970072Y-90991222D01*
X60055430Y-90914365D01*
X60141379Y-90831510D01*
X60180428Y-90801817D01*
X60214412Y-90771217D01*
X60310020Y-90703272D01*
X60407072Y-90629472D01*
X60447169Y-90605806D01*
X60482412Y-90580760D01*
X60587306Y-90523094D01*
X60694521Y-90459813D01*
X60734818Y-90441998D01*
X60770530Y-90422365D01*
X60883598Y-90376223D01*
X60999802Y-90324850D01*
X61039517Y-90312594D01*
X61074946Y-90298136D01*
X61194895Y-90264645D01*
X61318745Y-90226426D01*
X61357150Y-90219343D01*
X61391618Y-90209719D01*
X61516992Y-90189862D01*
X61646992Y-90165885D01*
X61683474Y-90163494D01*
X61716362Y-90158285D01*
X61845579Y-90152869D01*
X61980061Y-90144055D01*
X62014068Y-90145807D01*
G37*
G36*
X57169899Y-93401959D02*
G01*
X57186769Y-93413231D01*
X57198041Y-93430101D01*
X57204448Y-93462312D01*
X57204448Y-95137688D01*
X57201999Y-95150000D01*
X57198041Y-95169899D01*
X57186769Y-95186769D01*
X57169899Y-95198041D01*
X57150000Y-95201999D01*
X57137688Y-95204448D01*
X55462312Y-95204448D01*
X55430101Y-95198041D01*
X55413231Y-95186769D01*
X55401959Y-95169899D01*
X55395552Y-95137688D01*
X55395552Y-93462312D01*
X55401959Y-93430101D01*
X55413231Y-93413231D01*
X55430101Y-93401959D01*
X55462312Y-93395552D01*
X57137688Y-93395552D01*
X57169899Y-93401959D01*
G37*
G36*
X48749902Y-93339283D02*
G01*
X48794637Y-93339595D01*
X48838460Y-93348590D01*
X48888360Y-93353835D01*
X48930132Y-93367408D01*
X48967723Y-93375124D01*
X49014851Y-93394935D01*
X49068488Y-93412363D01*
X49101099Y-93431191D01*
X49130614Y-93443598D01*
X49178301Y-93475763D01*
X49232511Y-93507061D01*
X49255826Y-93528054D01*
X49277101Y-93542404D01*
X49322183Y-93587802D01*
X49373261Y-93633793D01*
X49388003Y-93654083D01*
X49401608Y-93667784D01*
X49440643Y-93726537D01*
X49484586Y-93787019D01*
X49492221Y-93804168D01*
X49499388Y-93814955D01*
X49528865Y-93886472D01*
X49561621Y-93960042D01*
X49564211Y-93972225D01*
X49566724Y-93978323D01*
X49583292Y-94061997D01*
X49600999Y-94145301D01*
X49600999Y-94334699D01*
X49598115Y-94348269D01*
X49598030Y-94354331D01*
X49579342Y-94436585D01*
X49561621Y-94519958D01*
X49559129Y-94525555D01*
X49559078Y-94525780D01*
X49487210Y-94687197D01*
X49487078Y-94687385D01*
X49484586Y-94692981D01*
X49434480Y-94761946D01*
X49385357Y-94831582D01*
X49380585Y-94836126D01*
X49373261Y-94846207D01*
X49313396Y-94900110D01*
X49257396Y-94953438D01*
X49246464Y-94960376D01*
X49232511Y-94972939D01*
X49167764Y-95010321D01*
X49108211Y-95048114D01*
X49090209Y-95055097D01*
X49068488Y-95067637D01*
X49003115Y-95088878D01*
X48943468Y-95112014D01*
X48918200Y-95116469D01*
X48888360Y-95126165D01*
X48826095Y-95132709D01*
X48769460Y-95142695D01*
X48737459Y-95142025D01*
X48700000Y-95145962D01*
X48643902Y-95140066D01*
X48592799Y-95138996D01*
X48555323Y-95130756D01*
X48511640Y-95126165D01*
X48463917Y-95110659D01*
X48420225Y-95101052D01*
X48379230Y-95083142D01*
X48331512Y-95067637D01*
X48293473Y-95045675D01*
X48258310Y-95030313D01*
X48216337Y-95001141D01*
X48167489Y-94972939D01*
X48139504Y-94947741D01*
X48113215Y-94929470D01*
X48073257Y-94888092D01*
X48026739Y-94846207D01*
X48008296Y-94820823D01*
X47990473Y-94802366D01*
X47955821Y-94748597D01*
X47915414Y-94692981D01*
X47905212Y-94670066D01*
X47894754Y-94653839D01*
X47868789Y-94588261D01*
X47838379Y-94519958D01*
X47834476Y-94501596D01*
X47829707Y-94489551D01*
X47815740Y-94413448D01*
X47799001Y-94334699D01*
X47799001Y-94322246D01*
X47797811Y-94315762D01*
X47799001Y-94230535D01*
X47799001Y-94145301D01*
X47800275Y-94139308D01*
X47800278Y-94139077D01*
X47837015Y-93966246D01*
X47837105Y-93966036D01*
X47838379Y-93960042D01*
X47873042Y-93882188D01*
X47906622Y-93803839D01*
X47910348Y-93798397D01*
X47915414Y-93787019D01*
X47962746Y-93721872D01*
X48006452Y-93658041D01*
X48015706Y-93648979D01*
X48026739Y-93633793D01*
X48082297Y-93583769D01*
X48132693Y-93534417D01*
X48148848Y-93523846D01*
X48167489Y-93507061D01*
X48227026Y-93472687D01*
X48280551Y-93437662D01*
X48304340Y-93428050D01*
X48331512Y-93412363D01*
X48391045Y-93393019D01*
X48444376Y-93371472D01*
X48475820Y-93365474D01*
X48511640Y-93353835D01*
X48567744Y-93347938D01*
X48617945Y-93338362D01*
X48656312Y-93338630D01*
X48700000Y-93334038D01*
X48749902Y-93339283D01*
G37*
G36*
X56349902Y-90859283D02*
G01*
X56394637Y-90859595D01*
X56438460Y-90868590D01*
X56488360Y-90873835D01*
X56530132Y-90887408D01*
X56567723Y-90895124D01*
X56614851Y-90914935D01*
X56668488Y-90932363D01*
X56701099Y-90951191D01*
X56730614Y-90963598D01*
X56778301Y-90995763D01*
X56832511Y-91027061D01*
X56855826Y-91048054D01*
X56877101Y-91062404D01*
X56922183Y-91107802D01*
X56973261Y-91153793D01*
X56988003Y-91174083D01*
X57001608Y-91187784D01*
X57040643Y-91246537D01*
X57084586Y-91307019D01*
X57092221Y-91324168D01*
X57099388Y-91334955D01*
X57128865Y-91406472D01*
X57161621Y-91480042D01*
X57164211Y-91492225D01*
X57166724Y-91498323D01*
X57183292Y-91581997D01*
X57200999Y-91665301D01*
X57200999Y-91854699D01*
X57198115Y-91868269D01*
X57198030Y-91874331D01*
X57179342Y-91956585D01*
X57161621Y-92039958D01*
X57159129Y-92045555D01*
X57159078Y-92045780D01*
X57087210Y-92207197D01*
X57087078Y-92207385D01*
X57084586Y-92212981D01*
X57034480Y-92281946D01*
X56985357Y-92351582D01*
X56980585Y-92356126D01*
X56973261Y-92366207D01*
X56913396Y-92420110D01*
X56857396Y-92473438D01*
X56846464Y-92480376D01*
X56832511Y-92492939D01*
X56767764Y-92530321D01*
X56708211Y-92568114D01*
X56690209Y-92575097D01*
X56668488Y-92587637D01*
X56603115Y-92608878D01*
X56543468Y-92632014D01*
X56518200Y-92636469D01*
X56488360Y-92646165D01*
X56426095Y-92652709D01*
X56369460Y-92662695D01*
X56337459Y-92662025D01*
X56300000Y-92665962D01*
X56243902Y-92660066D01*
X56192799Y-92658996D01*
X56155323Y-92650756D01*
X56111640Y-92646165D01*
X56063917Y-92630659D01*
X56020225Y-92621052D01*
X55979230Y-92603142D01*
X55931512Y-92587637D01*
X55893473Y-92565675D01*
X55858310Y-92550313D01*
X55816337Y-92521141D01*
X55767489Y-92492939D01*
X55739504Y-92467741D01*
X55713215Y-92449470D01*
X55673257Y-92408092D01*
X55626739Y-92366207D01*
X55608296Y-92340823D01*
X55590473Y-92322366D01*
X55555821Y-92268597D01*
X55515414Y-92212981D01*
X55505212Y-92190066D01*
X55494754Y-92173839D01*
X55468789Y-92108261D01*
X55438379Y-92039958D01*
X55434476Y-92021596D01*
X55429707Y-92009551D01*
X55415740Y-91933448D01*
X55399001Y-91854699D01*
X55399001Y-91842246D01*
X55397811Y-91835762D01*
X55399001Y-91750535D01*
X55399001Y-91665301D01*
X55400275Y-91659308D01*
X55400278Y-91659077D01*
X55437015Y-91486246D01*
X55437105Y-91486036D01*
X55438379Y-91480042D01*
X55473042Y-91402188D01*
X55506622Y-91323839D01*
X55510348Y-91318397D01*
X55515414Y-91307019D01*
X55562746Y-91241872D01*
X55606452Y-91178041D01*
X55615706Y-91168979D01*
X55626739Y-91153793D01*
X55682297Y-91103769D01*
X55732693Y-91054417D01*
X55748848Y-91043846D01*
X55767489Y-91027061D01*
X55827026Y-90992687D01*
X55880551Y-90957662D01*
X55904340Y-90948050D01*
X55931512Y-90932363D01*
X55991045Y-90913019D01*
X56044376Y-90891472D01*
X56075820Y-90885474D01*
X56111640Y-90873835D01*
X56167744Y-90867938D01*
X56217945Y-90858362D01*
X56256312Y-90858630D01*
X56300000Y-90854038D01*
X56349902Y-90859283D01*
G37*
G36*
X49569899Y-90801959D02*
G01*
X49586769Y-90813231D01*
X49598041Y-90830101D01*
X49604448Y-90862312D01*
X49604448Y-92537688D01*
X49601999Y-92550000D01*
X49598041Y-92569899D01*
X49586769Y-92586769D01*
X49569899Y-92598041D01*
X49550000Y-92601999D01*
X49537688Y-92604448D01*
X47862312Y-92604448D01*
X47830101Y-92598041D01*
X47813231Y-92586769D01*
X47801959Y-92569899D01*
X47795552Y-92537688D01*
X47795552Y-90862312D01*
X47801959Y-90830101D01*
X47813231Y-90813231D01*
X47830101Y-90801959D01*
X47862312Y-90795552D01*
X49537688Y-90795552D01*
X49569899Y-90801959D01*
G37*
G36*
X51009902Y-85599283D02*
G01*
X51054637Y-85599595D01*
X51098460Y-85608590D01*
X51148360Y-85613835D01*
X51190132Y-85627408D01*
X51227723Y-85635124D01*
X51274851Y-85654935D01*
X51328488Y-85672363D01*
X51361099Y-85691191D01*
X51390614Y-85703598D01*
X51438301Y-85735763D01*
X51492511Y-85767061D01*
X51515826Y-85788054D01*
X51537101Y-85802404D01*
X51582183Y-85847802D01*
X51633261Y-85893793D01*
X51648003Y-85914083D01*
X51661608Y-85927784D01*
X51700643Y-85986537D01*
X51744586Y-86047019D01*
X51752221Y-86064168D01*
X51759388Y-86074955D01*
X51788865Y-86146472D01*
X51821621Y-86220042D01*
X51824211Y-86232225D01*
X51826724Y-86238323D01*
X51843292Y-86321997D01*
X51860999Y-86405301D01*
X51860999Y-86594699D01*
X51858115Y-86608269D01*
X51858030Y-86614331D01*
X51839342Y-86696585D01*
X51821621Y-86779958D01*
X51819129Y-86785555D01*
X51819078Y-86785780D01*
X51747210Y-86947197D01*
X51747078Y-86947385D01*
X51744586Y-86952981D01*
X51694480Y-87021946D01*
X51645357Y-87091582D01*
X51640585Y-87096126D01*
X51633261Y-87106207D01*
X51573396Y-87160110D01*
X51517396Y-87213438D01*
X51506464Y-87220376D01*
X51492511Y-87232939D01*
X51427764Y-87270321D01*
X51368211Y-87308114D01*
X51350209Y-87315097D01*
X51328488Y-87327637D01*
X51263115Y-87348878D01*
X51203468Y-87372014D01*
X51178200Y-87376469D01*
X51148360Y-87386165D01*
X51086095Y-87392709D01*
X51029460Y-87402695D01*
X50997459Y-87402025D01*
X50960000Y-87405962D01*
X50903902Y-87400066D01*
X50852799Y-87398996D01*
X50815323Y-87390756D01*
X50771640Y-87386165D01*
X50723917Y-87370659D01*
X50680225Y-87361052D01*
X50639230Y-87343142D01*
X50591512Y-87327637D01*
X50553473Y-87305675D01*
X50518310Y-87290313D01*
X50476337Y-87261141D01*
X50427489Y-87232939D01*
X50399504Y-87207741D01*
X50373215Y-87189470D01*
X50333257Y-87148092D01*
X50286739Y-87106207D01*
X50268296Y-87080823D01*
X50250473Y-87062366D01*
X50215821Y-87008597D01*
X50175414Y-86952981D01*
X50165212Y-86930066D01*
X50154754Y-86913839D01*
X50128789Y-86848261D01*
X50098379Y-86779958D01*
X50094476Y-86761596D01*
X50089707Y-86749551D01*
X50075740Y-86673448D01*
X50059001Y-86594699D01*
X50059001Y-86582246D01*
X50057811Y-86575762D01*
X50059001Y-86490535D01*
X50059001Y-86405301D01*
X50060275Y-86399308D01*
X50060278Y-86399077D01*
X50097015Y-86226246D01*
X50097105Y-86226036D01*
X50098379Y-86220042D01*
X50133042Y-86142188D01*
X50166622Y-86063839D01*
X50170348Y-86058397D01*
X50175414Y-86047019D01*
X50222746Y-85981872D01*
X50266452Y-85918041D01*
X50275706Y-85908979D01*
X50286739Y-85893793D01*
X50342297Y-85843769D01*
X50392693Y-85794417D01*
X50408848Y-85783846D01*
X50427489Y-85767061D01*
X50487026Y-85732687D01*
X50540551Y-85697662D01*
X50564340Y-85688050D01*
X50591512Y-85672363D01*
X50651045Y-85653019D01*
X50704376Y-85631472D01*
X50735820Y-85625474D01*
X50771640Y-85613835D01*
X50827744Y-85607938D01*
X50877945Y-85598362D01*
X50916312Y-85598630D01*
X50960000Y-85594038D01*
X51009902Y-85599283D01*
G37*
G36*
X48469902Y-85599283D02*
G01*
X48514637Y-85599595D01*
X48558460Y-85608590D01*
X48608360Y-85613835D01*
X48650132Y-85627408D01*
X48687723Y-85635124D01*
X48734851Y-85654935D01*
X48788488Y-85672363D01*
X48821099Y-85691191D01*
X48850614Y-85703598D01*
X48898301Y-85735763D01*
X48952511Y-85767061D01*
X48975826Y-85788054D01*
X48997101Y-85802404D01*
X49042183Y-85847802D01*
X49093261Y-85893793D01*
X49108003Y-85914083D01*
X49121608Y-85927784D01*
X49160643Y-85986537D01*
X49204586Y-86047019D01*
X49212221Y-86064168D01*
X49219388Y-86074955D01*
X49248865Y-86146472D01*
X49281621Y-86220042D01*
X49284211Y-86232225D01*
X49286724Y-86238323D01*
X49303292Y-86321997D01*
X49320999Y-86405301D01*
X49320999Y-86594699D01*
X49318115Y-86608269D01*
X49318030Y-86614331D01*
X49299342Y-86696585D01*
X49281621Y-86779958D01*
X49279129Y-86785555D01*
X49279078Y-86785780D01*
X49207210Y-86947197D01*
X49207078Y-86947385D01*
X49204586Y-86952981D01*
X49154480Y-87021946D01*
X49105357Y-87091582D01*
X49100585Y-87096126D01*
X49093261Y-87106207D01*
X49033396Y-87160110D01*
X48977396Y-87213438D01*
X48966464Y-87220376D01*
X48952511Y-87232939D01*
X48887764Y-87270321D01*
X48828211Y-87308114D01*
X48810209Y-87315097D01*
X48788488Y-87327637D01*
X48723115Y-87348878D01*
X48663468Y-87372014D01*
X48638200Y-87376469D01*
X48608360Y-87386165D01*
X48546095Y-87392709D01*
X48489460Y-87402695D01*
X48457459Y-87402025D01*
X48420000Y-87405962D01*
X48363902Y-87400066D01*
X48312799Y-87398996D01*
X48275323Y-87390756D01*
X48231640Y-87386165D01*
X48183917Y-87370659D01*
X48140225Y-87361052D01*
X48099230Y-87343142D01*
X48051512Y-87327637D01*
X48013473Y-87305675D01*
X47978310Y-87290313D01*
X47936337Y-87261141D01*
X47887489Y-87232939D01*
X47859504Y-87207741D01*
X47833215Y-87189470D01*
X47793257Y-87148092D01*
X47746739Y-87106207D01*
X47728296Y-87080823D01*
X47710473Y-87062366D01*
X47675821Y-87008597D01*
X47635414Y-86952981D01*
X47625212Y-86930066D01*
X47614754Y-86913839D01*
X47588789Y-86848261D01*
X47558379Y-86779958D01*
X47554476Y-86761596D01*
X47549707Y-86749551D01*
X47535740Y-86673448D01*
X47519001Y-86594699D01*
X47519001Y-86582246D01*
X47517811Y-86575762D01*
X47519001Y-86490535D01*
X47519001Y-86405301D01*
X47520275Y-86399308D01*
X47520278Y-86399077D01*
X47557015Y-86226246D01*
X47557105Y-86226036D01*
X47558379Y-86220042D01*
X47593042Y-86142188D01*
X47626622Y-86063839D01*
X47630348Y-86058397D01*
X47635414Y-86047019D01*
X47682746Y-85981872D01*
X47726452Y-85918041D01*
X47735706Y-85908979D01*
X47746739Y-85893793D01*
X47802297Y-85843769D01*
X47852693Y-85794417D01*
X47868848Y-85783846D01*
X47887489Y-85767061D01*
X47947026Y-85732687D01*
X48000551Y-85697662D01*
X48024340Y-85688050D01*
X48051512Y-85672363D01*
X48111045Y-85653019D01*
X48164376Y-85631472D01*
X48195820Y-85625474D01*
X48231640Y-85613835D01*
X48287744Y-85607938D01*
X48337945Y-85598362D01*
X48376312Y-85598630D01*
X48420000Y-85594038D01*
X48469902Y-85599283D01*
G37*
G36*
X54369899Y-85601959D02*
G01*
X54386769Y-85613231D01*
X54398041Y-85630101D01*
X54404448Y-85662312D01*
X54404448Y-87337688D01*
X54401999Y-87350000D01*
X54398041Y-87369899D01*
X54386769Y-87386769D01*
X54369899Y-87398041D01*
X54350000Y-87401999D01*
X54337688Y-87404448D01*
X52662312Y-87404448D01*
X52630101Y-87398041D01*
X52613231Y-87386769D01*
X52601959Y-87369899D01*
X52595552Y-87337688D01*
X52595552Y-85662312D01*
X52601959Y-85630101D01*
X52613231Y-85613231D01*
X52630101Y-85601959D01*
X52662312Y-85595552D01*
X54337688Y-85595552D01*
X54369899Y-85601959D01*
G37*
G36*
X43919899Y-84051959D02*
G01*
X43936769Y-84063231D01*
X43948041Y-84080101D01*
X43954448Y-84112312D01*
X43954448Y-85887688D01*
X43951999Y-85900000D01*
X43948041Y-85919899D01*
X43936769Y-85936769D01*
X43919899Y-85948041D01*
X43900000Y-85951999D01*
X43887688Y-85954448D01*
X42112312Y-85954448D01*
X42080101Y-85948041D01*
X42063231Y-85936769D01*
X42051959Y-85919899D01*
X42045552Y-85887688D01*
X42045552Y-84112312D01*
X42051959Y-84080101D01*
X42063231Y-84063231D01*
X42080101Y-84051959D01*
X42112312Y-84045552D01*
X43887688Y-84045552D01*
X43919899Y-84051959D01*
G37*
G36*
X68869899Y-84141959D02*
G01*
X68886769Y-84153231D01*
X68898041Y-84170101D01*
X68904448Y-84202312D01*
X68904448Y-85877688D01*
X68901999Y-85890000D01*
X68898041Y-85909899D01*
X68886769Y-85926769D01*
X68869899Y-85938041D01*
X68850000Y-85941999D01*
X68837688Y-85944448D01*
X67162312Y-85944448D01*
X67130101Y-85938041D01*
X67113231Y-85926769D01*
X67101959Y-85909899D01*
X67095552Y-85877688D01*
X67095552Y-84202312D01*
X67101959Y-84170101D01*
X67113231Y-84153231D01*
X67130101Y-84141959D01*
X67162312Y-84135552D01*
X68837688Y-84135552D01*
X68869899Y-84141959D01*
G37*
G36*
X43096675Y-81512627D02*
G01*
X43137905Y-81514680D01*
X43186080Y-81526468D01*
X43240954Y-81534963D01*
X43279728Y-81549383D01*
X43314176Y-81557812D01*
X43364544Y-81580925D01*
X43422037Y-81602307D01*
X43452173Y-81621138D01*
X43479107Y-81633498D01*
X43528922Y-81669097D01*
X43585880Y-81704688D01*
X43607387Y-81725168D01*
X43626749Y-81739005D01*
X43672931Y-81787585D01*
X43725790Y-81837922D01*
X43739404Y-81857511D01*
X43751782Y-81870531D01*
X43791083Y-81931866D01*
X43836052Y-81996569D01*
X43843145Y-82013119D01*
X43849683Y-82023322D01*
X43878818Y-82096349D01*
X43912162Y-82174146D01*
X43914606Y-82186051D01*
X43916928Y-82191872D01*
X43932813Y-82274748D01*
X43951010Y-82363400D01*
X43950988Y-82369580D01*
X43951056Y-82369932D01*
X43950404Y-82556704D01*
X43950335Y-82557053D01*
X43950313Y-82563237D01*
X43931491Y-82651785D01*
X43915034Y-82734522D01*
X43912671Y-82740327D01*
X43910144Y-82752215D01*
X43876246Y-82829806D01*
X43846613Y-82902599D01*
X43840009Y-82912748D01*
X43832797Y-82929257D01*
X43787357Y-82993672D01*
X43747645Y-83054707D01*
X43735180Y-83067637D01*
X43721430Y-83087129D01*
X43668221Y-83137096D01*
X43621704Y-83185349D01*
X43602248Y-83199048D01*
X43580593Y-83219384D01*
X43523380Y-83254582D01*
X43473323Y-83289828D01*
X43446302Y-83302000D01*
X43416039Y-83320618D01*
X43358399Y-83341597D01*
X43307868Y-83364360D01*
X43273362Y-83372549D01*
X43234490Y-83386697D01*
X43179568Y-83394807D01*
X43131307Y-83406260D01*
X43090057Y-83408025D01*
X43043363Y-83414920D01*
X42993741Y-83412146D01*
X42950000Y-83414017D01*
X42903403Y-83407095D01*
X42850464Y-83404135D01*
X42808057Y-83392931D01*
X42770504Y-83387352D01*
X42720566Y-83369815D01*
X42663673Y-83354783D01*
X42629600Y-83337869D01*
X42599288Y-83327224D01*
X42548557Y-83297639D01*
X42490621Y-83268879D01*
X42465245Y-83249053D01*
X42442528Y-83235805D01*
X42393930Y-83193335D01*
X42338378Y-83149933D01*
X42321292Y-83129857D01*
X42305884Y-83116392D01*
X42262628Y-83060928D01*
X42213161Y-83002804D01*
X42203277Y-82984825D01*
X42194285Y-82973295D01*
X42159661Y-82905488D01*
X42120086Y-82833501D01*
X42115749Y-82819492D01*
X42111760Y-82811679D01*
X42088983Y-82733022D01*
X42062955Y-82648941D01*
X42062095Y-82640173D01*
X42061285Y-82637375D01*
X42053295Y-82550423D01*
X42044102Y-82456663D01*
X42053949Y-82362976D01*
X42062546Y-82276079D01*
X42063376Y-82273287D01*
X42064297Y-82264521D01*
X42090920Y-82180594D01*
X42114237Y-82102129D01*
X42118280Y-82094346D01*
X42122715Y-82080365D01*
X42162811Y-82008621D01*
X42197891Y-81941090D01*
X42206956Y-81929632D01*
X42216969Y-81911716D01*
X42266849Y-81853930D01*
X42310484Y-81798776D01*
X42325984Y-81785420D01*
X42343210Y-81765464D01*
X42399069Y-81722447D01*
X42447959Y-81680321D01*
X42470768Y-81667232D01*
X42496281Y-81647584D01*
X42554401Y-81619237D01*
X42605350Y-81589999D01*
X42635746Y-81579562D01*
X42669928Y-81562891D01*
X42726921Y-81548258D01*
X42776983Y-81531069D01*
X42814572Y-81525753D01*
X42857059Y-81514844D01*
X42910020Y-81512254D01*
X42956663Y-81505657D01*
X43000388Y-81507834D01*
X43050028Y-81505406D01*
X43096675Y-81512627D01*
G37*
G36*
X68049902Y-81599283D02*
G01*
X68094637Y-81599595D01*
X68138460Y-81608590D01*
X68188360Y-81613835D01*
X68230132Y-81627408D01*
X68267723Y-81635124D01*
X68314851Y-81654935D01*
X68368488Y-81672363D01*
X68401099Y-81691191D01*
X68430614Y-81703598D01*
X68478301Y-81735763D01*
X68532511Y-81767061D01*
X68555826Y-81788054D01*
X68577101Y-81802404D01*
X68622183Y-81847802D01*
X68673261Y-81893793D01*
X68688003Y-81914083D01*
X68701608Y-81927784D01*
X68740643Y-81986537D01*
X68784586Y-82047019D01*
X68792221Y-82064168D01*
X68799388Y-82074955D01*
X68828865Y-82146472D01*
X68861621Y-82220042D01*
X68864211Y-82232225D01*
X68866724Y-82238323D01*
X68883292Y-82321997D01*
X68900999Y-82405301D01*
X68900999Y-82594699D01*
X68898115Y-82608269D01*
X68898030Y-82614331D01*
X68879342Y-82696585D01*
X68861621Y-82779958D01*
X68859129Y-82785555D01*
X68859078Y-82785780D01*
X68787210Y-82947197D01*
X68787078Y-82947385D01*
X68784586Y-82952981D01*
X68734480Y-83021946D01*
X68685357Y-83091582D01*
X68680585Y-83096126D01*
X68673261Y-83106207D01*
X68613396Y-83160110D01*
X68557396Y-83213438D01*
X68546464Y-83220376D01*
X68532511Y-83232939D01*
X68467764Y-83270321D01*
X68408211Y-83308114D01*
X68390209Y-83315097D01*
X68368488Y-83327637D01*
X68303115Y-83348878D01*
X68243468Y-83372014D01*
X68218200Y-83376469D01*
X68188360Y-83386165D01*
X68126095Y-83392709D01*
X68069460Y-83402695D01*
X68037459Y-83402025D01*
X68000000Y-83405962D01*
X67943902Y-83400066D01*
X67892799Y-83398996D01*
X67855323Y-83390756D01*
X67811640Y-83386165D01*
X67763917Y-83370659D01*
X67720225Y-83361052D01*
X67679230Y-83343142D01*
X67631512Y-83327637D01*
X67593473Y-83305675D01*
X67558310Y-83290313D01*
X67516337Y-83261141D01*
X67467489Y-83232939D01*
X67439504Y-83207741D01*
X67413215Y-83189470D01*
X67373257Y-83148092D01*
X67326739Y-83106207D01*
X67308296Y-83080823D01*
X67290473Y-83062366D01*
X67255821Y-83008597D01*
X67215414Y-82952981D01*
X67205212Y-82930066D01*
X67194754Y-82913839D01*
X67168789Y-82848261D01*
X67138379Y-82779958D01*
X67134476Y-82761596D01*
X67129707Y-82749551D01*
X67115740Y-82673448D01*
X67099001Y-82594699D01*
X67099001Y-82582246D01*
X67097811Y-82575762D01*
X67099001Y-82490535D01*
X67099001Y-82405301D01*
X67100275Y-82399308D01*
X67100278Y-82399077D01*
X67137015Y-82226246D01*
X67137105Y-82226036D01*
X67138379Y-82220042D01*
X67173042Y-82142188D01*
X67206622Y-82063839D01*
X67210348Y-82058397D01*
X67215414Y-82047019D01*
X67262746Y-81981872D01*
X67306452Y-81918041D01*
X67315706Y-81908979D01*
X67326739Y-81893793D01*
X67382297Y-81843769D01*
X67432693Y-81794417D01*
X67448848Y-81783846D01*
X67467489Y-81767061D01*
X67527026Y-81732687D01*
X67580551Y-81697662D01*
X67604340Y-81688050D01*
X67631512Y-81672363D01*
X67691045Y-81653019D01*
X67744376Y-81631472D01*
X67775820Y-81625474D01*
X67811640Y-81613835D01*
X67867744Y-81607938D01*
X67917945Y-81598362D01*
X67956312Y-81598630D01*
X68000000Y-81594038D01*
X68049902Y-81599283D01*
G37*
G36*
X67573730Y-74849000D02*
G01*
X67629937Y-74849000D01*
X67700874Y-74860235D01*
X67767558Y-74866128D01*
X67824072Y-74879748D01*
X67886610Y-74889653D01*
X67948179Y-74909658D01*
X68006121Y-74923622D01*
X68066809Y-74948203D01*
X68133764Y-74969958D01*
X68185106Y-74996118D01*
X68233565Y-75015746D01*
X68296309Y-75052779D01*
X68365312Y-75087938D01*
X68406161Y-75117616D01*
X68444891Y-75140476D01*
X68507232Y-75191049D01*
X68575554Y-75240688D01*
X68606207Y-75271341D01*
X68635465Y-75295076D01*
X68694718Y-75359852D01*
X68759312Y-75424446D01*
X68780574Y-75453711D01*
X68801091Y-75476140D01*
X68854400Y-75555323D01*
X68912062Y-75634688D01*
X68925230Y-75660531D01*
X68938137Y-75679703D01*
X68982562Y-75773052D01*
X69030042Y-75866236D01*
X69036784Y-75886987D01*
X69043587Y-75901281D01*
X69076245Y-76008436D01*
X69110347Y-76113390D01*
X69112634Y-76127830D01*
X69115129Y-76136016D01*
X69133244Y-76257955D01*
X69151000Y-76370063D01*
X69151000Y-76629937D01*
X69142684Y-76682440D01*
X69141885Y-76711983D01*
X69124640Y-76796367D01*
X69110347Y-76886610D01*
X69099164Y-76921027D01*
X69093080Y-76950799D01*
X69060365Y-77040439D01*
X69030042Y-77133764D01*
X69016872Y-77159612D01*
X69008950Y-77181318D01*
X68959540Y-77272131D01*
X68912062Y-77365312D01*
X68899241Y-77382959D01*
X68891672Y-77396870D01*
X68824158Y-77486301D01*
X68759312Y-77575554D01*
X68748976Y-77585890D01*
X68743819Y-77592721D01*
X68655782Y-77679084D01*
X68575554Y-77759312D01*
X68569558Y-77763668D01*
X68568640Y-77764569D01*
X68393110Y-77891866D01*
X68365312Y-77912062D01*
X68264629Y-77963363D01*
X68152223Y-78021753D01*
X68145505Y-78024060D01*
X68133764Y-78030042D01*
X68027902Y-78064439D01*
X67920133Y-78101441D01*
X67905994Y-78104049D01*
X67886610Y-78110347D01*
X67782080Y-78126903D01*
X67678808Y-78145950D01*
X67657170Y-78146687D01*
X67629937Y-78151000D01*
X67530480Y-78151000D01*
X67433553Y-78154300D01*
X67404812Y-78151000D01*
X67370063Y-78151000D01*
X67278482Y-78136495D01*
X67189768Y-78126309D01*
X67154791Y-78116904D01*
X67113390Y-78110347D01*
X67031749Y-78083820D01*
X66952788Y-78062589D01*
X66912903Y-78045205D01*
X66866236Y-78030042D01*
X66795965Y-77994237D01*
X66727832Y-77964541D01*
X66684765Y-77937578D01*
X66634688Y-77912062D01*
X66576590Y-77869851D01*
X66519843Y-77834323D01*
X66475667Y-77796526D01*
X66424446Y-77759312D01*
X66378671Y-77713537D01*
X66333382Y-77674788D01*
X66290465Y-77625331D01*
X66240688Y-77575554D01*
X66206823Y-77528943D01*
X66172556Y-77489454D01*
X66133461Y-77427969D01*
X66087938Y-77365312D01*
X66065015Y-77320323D01*
X66040884Y-77282372D01*
X66008299Y-77209012D01*
X65969958Y-77133764D01*
X65956561Y-77092533D01*
X65941269Y-77058105D01*
X65917885Y-76973501D01*
X65889653Y-76886610D01*
X65883993Y-76850874D01*
X65875897Y-76821582D01*
X65864348Y-76726843D01*
X65849000Y-76629937D01*
X65849000Y-76600932D01*
X65846203Y-76577987D01*
X65849000Y-76474628D01*
X65849000Y-76370063D01*
X65852413Y-76348516D01*
X65852841Y-76332689D01*
X65872390Y-76222382D01*
X65889653Y-76113390D01*
X65894171Y-76099485D01*
X65895664Y-76091061D01*
X65934876Y-75974207D01*
X65969958Y-75866236D01*
X65973325Y-75859628D01*
X65973732Y-75858415D01*
X66071710Y-75666538D01*
X66087938Y-75634688D01*
X66154366Y-75543258D01*
X66228002Y-75440214D01*
X66232942Y-75435107D01*
X66240688Y-75424446D01*
X66319390Y-75345744D01*
X66398621Y-75263841D01*
X66410037Y-75255097D01*
X66424446Y-75240688D01*
X66510048Y-75178494D01*
X66593440Y-75114621D01*
X66612390Y-75104139D01*
X66634688Y-75087938D01*
X66723279Y-75042798D01*
X66808164Y-74995843D01*
X66835275Y-74985734D01*
X66866236Y-74969958D01*
X66954418Y-74941306D01*
X67038091Y-74910105D01*
X67073527Y-74902605D01*
X67113390Y-74889653D01*
X67198177Y-74876224D01*
X67278171Y-74859294D01*
X67321600Y-74856676D01*
X67370063Y-74849000D01*
X67448917Y-74849000D01*
X67523111Y-74844527D01*
X67573730Y-74849000D01*
G37*
G36*
X41573730Y-74849000D02*
G01*
X41629937Y-74849000D01*
X41700874Y-74860235D01*
X41767558Y-74866128D01*
X41824072Y-74879748D01*
X41886610Y-74889653D01*
X41948179Y-74909658D01*
X42006121Y-74923622D01*
X42066809Y-74948203D01*
X42133764Y-74969958D01*
X42185106Y-74996118D01*
X42233565Y-75015746D01*
X42296309Y-75052779D01*
X42365312Y-75087938D01*
X42406161Y-75117616D01*
X42444891Y-75140476D01*
X42507232Y-75191049D01*
X42575554Y-75240688D01*
X42606207Y-75271341D01*
X42635465Y-75295076D01*
X42694718Y-75359852D01*
X42759312Y-75424446D01*
X42780574Y-75453711D01*
X42801091Y-75476140D01*
X42854400Y-75555323D01*
X42912062Y-75634688D01*
X42925230Y-75660531D01*
X42938137Y-75679703D01*
X42982562Y-75773052D01*
X43030042Y-75866236D01*
X43036784Y-75886987D01*
X43043587Y-75901281D01*
X43076245Y-76008436D01*
X43110347Y-76113390D01*
X43112634Y-76127830D01*
X43115129Y-76136016D01*
X43133244Y-76257955D01*
X43151000Y-76370063D01*
X43151000Y-76629937D01*
X43142684Y-76682440D01*
X43141885Y-76711983D01*
X43124640Y-76796367D01*
X43110347Y-76886610D01*
X43099164Y-76921027D01*
X43093080Y-76950799D01*
X43060365Y-77040439D01*
X43030042Y-77133764D01*
X43016872Y-77159612D01*
X43008950Y-77181318D01*
X42959540Y-77272131D01*
X42912062Y-77365312D01*
X42899241Y-77382959D01*
X42891672Y-77396870D01*
X42824158Y-77486301D01*
X42759312Y-77575554D01*
X42748976Y-77585890D01*
X42743819Y-77592721D01*
X42655782Y-77679084D01*
X42575554Y-77759312D01*
X42569558Y-77763668D01*
X42568640Y-77764569D01*
X42393110Y-77891866D01*
X42365312Y-77912062D01*
X42264629Y-77963363D01*
X42152223Y-78021753D01*
X42145505Y-78024060D01*
X42133764Y-78030042D01*
X42027902Y-78064439D01*
X41920133Y-78101441D01*
X41905994Y-78104049D01*
X41886610Y-78110347D01*
X41782080Y-78126903D01*
X41678808Y-78145950D01*
X41657170Y-78146687D01*
X41629937Y-78151000D01*
X41530480Y-78151000D01*
X41433553Y-78154300D01*
X41404812Y-78151000D01*
X41370063Y-78151000D01*
X41278482Y-78136495D01*
X41189768Y-78126309D01*
X41154791Y-78116904D01*
X41113390Y-78110347D01*
X41031749Y-78083820D01*
X40952788Y-78062589D01*
X40912903Y-78045205D01*
X40866236Y-78030042D01*
X40795965Y-77994237D01*
X40727832Y-77964541D01*
X40684765Y-77937578D01*
X40634688Y-77912062D01*
X40576590Y-77869851D01*
X40519843Y-77834323D01*
X40475667Y-77796526D01*
X40424446Y-77759312D01*
X40378671Y-77713537D01*
X40333382Y-77674788D01*
X40290465Y-77625331D01*
X40240688Y-77575554D01*
X40206823Y-77528943D01*
X40172556Y-77489454D01*
X40133461Y-77427969D01*
X40087938Y-77365312D01*
X40065015Y-77320323D01*
X40040884Y-77282372D01*
X40008299Y-77209012D01*
X39969958Y-77133764D01*
X39956561Y-77092533D01*
X39941269Y-77058105D01*
X39917885Y-76973501D01*
X39889653Y-76886610D01*
X39883993Y-76850874D01*
X39875897Y-76821582D01*
X39864348Y-76726843D01*
X39849000Y-76629937D01*
X39849000Y-76600932D01*
X39846203Y-76577987D01*
X39849000Y-76474628D01*
X39849000Y-76370063D01*
X39852413Y-76348516D01*
X39852841Y-76332689D01*
X39872390Y-76222382D01*
X39889653Y-76113390D01*
X39894171Y-76099485D01*
X39895664Y-76091061D01*
X39934876Y-75974207D01*
X39969958Y-75866236D01*
X39973325Y-75859628D01*
X39973732Y-75858415D01*
X40071710Y-75666538D01*
X40087938Y-75634688D01*
X40154366Y-75543258D01*
X40228002Y-75440214D01*
X40232942Y-75435107D01*
X40240688Y-75424446D01*
X40319390Y-75345744D01*
X40398621Y-75263841D01*
X40410037Y-75255097D01*
X40424446Y-75240688D01*
X40510048Y-75178494D01*
X40593440Y-75114621D01*
X40612390Y-75104139D01*
X40634688Y-75087938D01*
X40723279Y-75042798D01*
X40808164Y-74995843D01*
X40835275Y-74985734D01*
X40866236Y-74969958D01*
X40954418Y-74941306D01*
X41038091Y-74910105D01*
X41073527Y-74902605D01*
X41113390Y-74889653D01*
X41198177Y-74876224D01*
X41278171Y-74859294D01*
X41321600Y-74856676D01*
X41370063Y-74849000D01*
X41448917Y-74849000D01*
X41523111Y-74844527D01*
X41573730Y-74849000D01*
G37*
M02*
