M48
; DRILL file {KiCad (5.99.0-492-g30da2b31e)} date Di 10 Dez 2019 20:32:52 CET
; FORMAT={2:4/ absolute / inch / suppress leading zeros}
; #@! TF.CreationDate,2019-12-10T20:32:52+01:00
; #@! TF.GenerationSoftware,Kicad,Pcbnew,(5.99.0-492-g30da2b31e)
; #@! TF.FileFunction,Plated,1,2,PTH
FMAT,2
INCH,TZ
T1C0.0118
T2C0.0354
T3C0.0394
T4C0.1260
%
G90
G05
T1
X16142Y-41732
X16142Y-42323
X16142Y-42913
X16142Y-43504
X16142Y-44094
X17717Y-40945
X17717Y-43307
X18307Y-35039
X19488Y-44291
X19488Y-49606
X19488Y-50000
X19685Y-39961
X19882Y-49606
X19882Y-50000
X20276Y-49606
X20276Y-50000
X20472Y-45472
X20472Y-54528
X20866Y-45472
X21063Y-46063
X21457Y-46654
X21850Y-46654
X22638Y-46260
X22638Y-46654
X22835Y-43701
X24213Y-32283
X24213Y-32677
X24213Y-33071
X24213Y-42126
X24213Y-50394
X24606Y-32283
X24606Y-32677
X24606Y-33071
X24606Y-44488
X24803Y-43701
X24803Y-46654
T2
X16929Y-32465
X16929Y-33465
X16929Y-48213
X16929Y-49213
T3
X27165Y-45669
X27165Y-46669
X27165Y-47669
X27165Y-42126
X27165Y-43126
X27165Y-44126
X19063Y-34055
X20063Y-34055
X21063Y-34055
X26772Y-32480
X26772Y-33480
X26181Y-38583
X26181Y-39583
X26181Y-40583
X27181Y-38583
X27181Y-39583
X27181Y-40583
X19173Y-51850
X19173Y-52850
X19173Y-36102
X19173Y-37102
X22165Y-51874
X22165Y-52874
X22165Y-36126
X22165Y-37126
T4
X24409Y-52362
X24409Y-36614
X16929Y-36614
X16929Y-52362
T0
M30
