G04 #@! TF.GenerationSoftware,KiCad,Pcbnew,(5.99.0-492-g30da2b31e)*
G04 #@! TF.CreationDate,2019-12-10T20:32:50+01:00*
G04 #@! TF.ProjectId,gabel,67616265-6c2e-46b6-9963-61645f706362,rev?*
G04 #@! TF.SameCoordinates,Original*
G04 #@! TF.FileFunction,Legend,Bot*
G04 #@! TF.FilePolarity,Positive*
%FSLAX46Y46*%
G04 Gerber Fmt 4.6, Leading zero omitted, Abs format (unit mm)*
G04 Created by KiCad (PCBNEW (5.99.0-492-g30da2b31e)) date 2019-12-10 20:32:50*
%MOMM*%
%LPD*%
G04 APERTURE LIST*
%ADD10C,0.120000*%
%ADD11C,0.150000*%
%ADD12R,1.902000X1.902000*%
%ADD13C,1.902000*%
%ADD14R,1.802000X1.802000*%
%ADD15O,1.802000X1.802000*%
%ADD16C,3.302000*%
%ADD17C,5.702000*%
G04 APERTURE END LIST*
D10*
X62000000Y-136500000D02*
X43000000Y-136500000D01*
X43000000Y-129500000D02*
X62000000Y-129500000D01*
X43000000Y-96500000D02*
X62000000Y-96500000D01*
X62000000Y-89500000D02*
X43000000Y-89500000D01*
D11*
X56285714Y-107380952D02*
X56952380Y-107380952D01*
X55904761Y-107142857D02*
X56619047Y-106904761D01*
X56619047Y-107523809D01*
X55952380Y-108095238D02*
X55952380Y-108190476D01*
X56000000Y-108285714D01*
X56047619Y-108333333D01*
X56142857Y-108380952D01*
X56333333Y-108428571D01*
X56571428Y-108428571D01*
X56761904Y-108380952D01*
X56857142Y-108333333D01*
X56904761Y-108285714D01*
X56952380Y-108190476D01*
X56952380Y-108095238D01*
X56904761Y-108000000D01*
X56857142Y-107952380D01*
X56761904Y-107904761D01*
X56571428Y-107857142D01*
X56333333Y-107857142D01*
X56142857Y-107904761D01*
X56047619Y-107952380D01*
X56000000Y-108000000D01*
X55952380Y-108095238D01*
X56952380Y-108857142D02*
X56285714Y-108857142D01*
X56380952Y-108857142D02*
X56333333Y-108904761D01*
X56285714Y-109000000D01*
X56285714Y-109142857D01*
X56333333Y-109238095D01*
X56428571Y-109285714D01*
X56952380Y-109285714D01*
X56428571Y-109285714D02*
X56333333Y-109333333D01*
X56285714Y-109428571D01*
X56285714Y-109571428D01*
X56333333Y-109666666D01*
X56428571Y-109714285D01*
X56952380Y-109714285D01*
X56952380Y-110190476D02*
X56285714Y-110190476D01*
X56380952Y-110190476D02*
X56333333Y-110238095D01*
X56285714Y-110333333D01*
X56285714Y-110476190D01*
X56333333Y-110571428D01*
X56428571Y-110619047D01*
X56952380Y-110619047D01*
X56428571Y-110619047D02*
X56333333Y-110666666D01*
X56285714Y-110761904D01*
X56285714Y-110904761D01*
X56333333Y-111000000D01*
X56428571Y-111047619D01*
X56952380Y-111047619D01*
D10*
X57500000Y-100000000D02*
X56500000Y-101000000D01*
X58500000Y-101000000D02*
X57500000Y-100000000D01*
X57500000Y-100000000D02*
X58500000Y-101000000D01*
X56500000Y-125000000D02*
X57500000Y-126000000D01*
X57500000Y-126000000D02*
X58500000Y-125000000D01*
X57500000Y-100000000D02*
X57500000Y-126000000D01*
X44078608Y-82057665D02*
G75*
G02X44235516Y-85290000I-1078608J-1672335D01*
G01*
X41921392Y-82057665D02*
G75*
G03X41764484Y-85290000I1078608J-1672335D01*
G01*
X44079837Y-82688870D02*
G75*
G02X44080000Y-84770961I-1079837J-1041130D01*
G01*
X41920163Y-82688870D02*
G75*
G03X41920000Y-84770961I1079837J-1041130D01*
G01*
X44236000Y-85290000D02*
X44080000Y-85290000D01*
X41920000Y-85290000D02*
X41764000Y-85290000D01*
X44078608Y-122057665D02*
G75*
G02X44235516Y-125290000I-1078608J-1672335D01*
G01*
X41921392Y-122057665D02*
G75*
G03X41764484Y-125290000I1078608J-1672335D01*
G01*
X44079837Y-122688870D02*
G75*
G02X44080000Y-124770961I-1079837J-1041130D01*
G01*
X41920163Y-122688870D02*
G75*
G03X41920000Y-124770961I1079837J-1041130D01*
G01*
X44236000Y-125290000D02*
X44080000Y-125290000D01*
X41920000Y-125290000D02*
X41764000Y-125290000D01*
X70330000Y-117270000D02*
X70330000Y-122410000D01*
X70330000Y-122410000D02*
X67670000Y-122410000D01*
X67670000Y-122410000D02*
X67670000Y-117270000D01*
X67670000Y-117270000D02*
X70330000Y-117270000D01*
X70330000Y-116000000D02*
X70330000Y-114670000D01*
X70330000Y-114670000D02*
X69000000Y-114670000D01*
X70330000Y-108270000D02*
X70330000Y-113410000D01*
X70330000Y-113410000D02*
X67670000Y-113410000D01*
X67670000Y-113410000D02*
X67670000Y-108270000D01*
X67670000Y-108270000D02*
X70330000Y-108270000D01*
X70330000Y-107000000D02*
X70330000Y-105670000D01*
X70330000Y-105670000D02*
X69000000Y-105670000D01*
X65170000Y-99270000D02*
X65170000Y-104410000D01*
X65170000Y-104410000D02*
X70370000Y-104410000D01*
X70370000Y-104410000D02*
X70370000Y-96670000D01*
X70370000Y-96670000D02*
X67770000Y-96670000D01*
X67770000Y-96670000D02*
X67770000Y-99270000D01*
X67770000Y-99270000D02*
X65170000Y-99270000D01*
X65170000Y-98000000D02*
X65170000Y-96670000D01*
X65170000Y-96670000D02*
X66440000Y-96670000D01*
X50030000Y-132969998D02*
X50030000Y-135569998D01*
X50030000Y-135569998D02*
X47370000Y-135569998D01*
X47370000Y-135569998D02*
X47370000Y-132969998D01*
X47370000Y-132969998D02*
X50030000Y-132969998D01*
X50030000Y-131699998D02*
X50030000Y-130369998D01*
X50030000Y-130369998D02*
X48700000Y-130369998D01*
X50030000Y-92970000D02*
X50030000Y-95570000D01*
X50030000Y-95570000D02*
X47370000Y-95570000D01*
X47370000Y-95570000D02*
X47370000Y-92970000D01*
X47370000Y-92970000D02*
X50030000Y-92970000D01*
X50030000Y-91700000D02*
X50030000Y-90370000D01*
X50030000Y-90370000D02*
X48700000Y-90370000D01*
X54970000Y-133029998D02*
X54970000Y-130429998D01*
X54970000Y-130429998D02*
X57630000Y-130429998D01*
X57630000Y-130429998D02*
X57630000Y-133029998D01*
X57630000Y-133029998D02*
X54970000Y-133029998D01*
X54970000Y-134299998D02*
X54970000Y-135629998D01*
X54970000Y-135629998D02*
X56300000Y-135629998D01*
X54970000Y-93030000D02*
X54970000Y-90430000D01*
X54970000Y-90430000D02*
X57630000Y-90430000D01*
X57630000Y-90430000D02*
X57630000Y-93030000D01*
X57630000Y-93030000D02*
X54970000Y-93030000D01*
X54970000Y-94300000D02*
X54970000Y-95630000D01*
X54970000Y-95630000D02*
X56300000Y-95630000D01*
D11*
X46412380Y-82991904D02*
X45412380Y-82991904D01*
X45412380Y-83230000D01*
X45460000Y-83372857D01*
X45555238Y-83468095D01*
X45650476Y-83515714D01*
X45840952Y-83563333D01*
X45983809Y-83563333D01*
X46174285Y-83515714D01*
X46269523Y-83468095D01*
X46364761Y-83372857D01*
X46412380Y-83230000D01*
X46412380Y-82991904D01*
X45412380Y-84468095D02*
X45412380Y-83991904D01*
X45888571Y-83944285D01*
X45840952Y-83991904D01*
X45793333Y-84087142D01*
X45793333Y-84325238D01*
X45840952Y-84420476D01*
X45888571Y-84468095D01*
X45983809Y-84515714D01*
X46221904Y-84515714D01*
X46317142Y-84468095D01*
X46364761Y-84420476D01*
X46412380Y-84325238D01*
X46412380Y-84087142D01*
X46364761Y-83991904D01*
X46317142Y-83944285D01*
X46412380Y-122991904D02*
X45412380Y-122991904D01*
X45412380Y-123230000D01*
X45460000Y-123372857D01*
X45555238Y-123468095D01*
X45650476Y-123515714D01*
X45840952Y-123563333D01*
X45983809Y-123563333D01*
X46174285Y-123515714D01*
X46269523Y-123468095D01*
X46364761Y-123372857D01*
X46412380Y-123230000D01*
X46412380Y-122991904D01*
X45745714Y-124420476D02*
X46412380Y-124420476D01*
X45364761Y-124182380D02*
X46079047Y-123944285D01*
X46079047Y-124563333D01*
X65952380Y-117690476D02*
X66666666Y-117690476D01*
X66809523Y-117642857D01*
X66904761Y-117547619D01*
X66952380Y-117404761D01*
X66952380Y-117309523D01*
X66952380Y-118690476D02*
X66952380Y-118119047D01*
X66952380Y-118404761D02*
X65952380Y-118404761D01*
X66095238Y-118309523D01*
X66190476Y-118214285D01*
X66238095Y-118119047D01*
X65952380Y-119309523D02*
X65952380Y-119404761D01*
X66000000Y-119500000D01*
X66047619Y-119547619D01*
X66142857Y-119595238D01*
X66333333Y-119642857D01*
X66571428Y-119642857D01*
X66761904Y-119595238D01*
X66857142Y-119547619D01*
X66904761Y-119500000D01*
X66952380Y-119404761D01*
X66952380Y-119309523D01*
X66904761Y-119214285D01*
X66857142Y-119166666D01*
X66761904Y-119119047D01*
X66571428Y-119071428D01*
X66333333Y-119071428D01*
X66142857Y-119119047D01*
X66047619Y-119166666D01*
X66000000Y-119214285D01*
X65952380Y-119309523D01*
X65952380Y-109166666D02*
X66666666Y-109166666D01*
X66809523Y-109119047D01*
X66904761Y-109023809D01*
X66952380Y-108880952D01*
X66952380Y-108785714D01*
X66952380Y-109690476D02*
X66952380Y-109880952D01*
X66904761Y-109976190D01*
X66857142Y-110023809D01*
X66714285Y-110119047D01*
X66523809Y-110166666D01*
X66142857Y-110166666D01*
X66047619Y-110119047D01*
X66000000Y-110071428D01*
X65952380Y-109976190D01*
X65952380Y-109785714D01*
X66000000Y-109690476D01*
X66047619Y-109642857D01*
X66142857Y-109595238D01*
X66380952Y-109595238D01*
X66476190Y-109642857D01*
X66523809Y-109690476D01*
X66571428Y-109785714D01*
X66571428Y-109976190D01*
X66523809Y-110071428D01*
X66476190Y-110119047D01*
X66380952Y-110166666D01*
X63452380Y-100166666D02*
X64166666Y-100166666D01*
X64309523Y-100119047D01*
X64404761Y-100023809D01*
X64452380Y-99880952D01*
X64452380Y-99785714D01*
X63452380Y-101119047D02*
X63452380Y-100642857D01*
X63928571Y-100595238D01*
X63880952Y-100642857D01*
X63833333Y-100738095D01*
X63833333Y-100976190D01*
X63880952Y-101071428D01*
X63928571Y-101119047D01*
X64023809Y-101166666D01*
X64261904Y-101166666D01*
X64357142Y-101119047D01*
X64404761Y-101071428D01*
X64452380Y-100976190D01*
X64452380Y-100738095D01*
X64404761Y-100642857D01*
X64357142Y-100595238D01*
X46833333Y-129952380D02*
X46833333Y-130666666D01*
X46880952Y-130809523D01*
X46976190Y-130904761D01*
X47119047Y-130952380D01*
X47214285Y-130952380D01*
X45928571Y-130285714D02*
X45928571Y-130952380D01*
X46166666Y-129904761D02*
X46404761Y-130619047D01*
X45785714Y-130619047D01*
X46833333Y-89952380D02*
X46833333Y-90666666D01*
X46880952Y-90809523D01*
X46976190Y-90904761D01*
X47119047Y-90952380D01*
X47214285Y-90952380D01*
X46452380Y-89952380D02*
X45833333Y-89952380D01*
X46166666Y-90333333D01*
X46023809Y-90333333D01*
X45928571Y-90380952D01*
X45880952Y-90428571D01*
X45833333Y-90523809D01*
X45833333Y-90761904D01*
X45880952Y-90857142D01*
X45928571Y-90904761D01*
X46023809Y-90952380D01*
X46309523Y-90952380D01*
X46404761Y-90904761D01*
X46452380Y-90857142D01*
X58833333Y-134952380D02*
X58833333Y-135666666D01*
X58880952Y-135809523D01*
X58976190Y-135904761D01*
X59119047Y-135952380D01*
X59214285Y-135952380D01*
X58404761Y-135047619D02*
X58357142Y-135000000D01*
X58261904Y-134952380D01*
X58023809Y-134952380D01*
X57928571Y-135000000D01*
X57880952Y-135047619D01*
X57833333Y-135142857D01*
X57833333Y-135238095D01*
X57880952Y-135380952D01*
X58452380Y-135952380D01*
X57833333Y-135952380D01*
X59333333Y-94952380D02*
X59333333Y-95666666D01*
X59380952Y-95809523D01*
X59476190Y-95904761D01*
X59619047Y-95952380D01*
X59714285Y-95952380D01*
X58333333Y-95952380D02*
X58904761Y-95952380D01*
X58619047Y-95952380D02*
X58619047Y-94952380D01*
X58714285Y-95095238D01*
X58809523Y-95190476D01*
X58904761Y-95238095D01*
X66047619Y-133761904D02*
X67047619Y-133761904D01*
X66571428Y-133761904D02*
X66571428Y-133190476D01*
X66047619Y-133190476D02*
X67047619Y-133190476D01*
X66714285Y-132285714D02*
X66047619Y-132285714D01*
X67095238Y-132523809D02*
X66380952Y-132761904D01*
X66380952Y-132142857D01*
X66252380Y-92238095D02*
X65252380Y-92238095D01*
X65728571Y-92238095D02*
X65728571Y-92809523D01*
X66252380Y-92809523D02*
X65252380Y-92809523D01*
X65252380Y-93190476D02*
X65252380Y-93809523D01*
X65633333Y-93476190D01*
X65633333Y-93619047D01*
X65680952Y-93714285D01*
X65728571Y-93761904D01*
X65823809Y-93809523D01*
X66061904Y-93809523D01*
X66157142Y-93761904D01*
X66204761Y-93714285D01*
X66252380Y-93619047D01*
X66252380Y-93333333D01*
X66204761Y-93238095D01*
X66157142Y-93190476D01*
X39952380Y-92738095D02*
X38952380Y-92738095D01*
X39428571Y-92738095D02*
X39428571Y-93309523D01*
X39952380Y-93309523D02*
X38952380Y-93309523D01*
X39047619Y-93738095D02*
X39000000Y-93785714D01*
X38952380Y-93880952D01*
X38952380Y-94119047D01*
X39000000Y-94214285D01*
X39047619Y-94261904D01*
X39142857Y-94309523D01*
X39238095Y-94309523D01*
X39380952Y-94261904D01*
X39952380Y-93690476D01*
X39952380Y-94309523D01*
X38747619Y-133761902D02*
X39747619Y-133761902D01*
X39271428Y-133761902D02*
X39271428Y-133190474D01*
X38747619Y-133190474D02*
X39747619Y-133190474D01*
X38747619Y-132190474D02*
X38747619Y-132761902D01*
X38747619Y-132476188D02*
X39747619Y-132476188D01*
X39604761Y-132571426D01*
X39509523Y-132666664D01*
X39461904Y-132761902D01*
%LPC*%
D12*
X43000000Y-85000000D03*
D13*
X43000000Y-82460000D03*
D12*
X43000000Y-125000000D03*
D13*
X43000000Y-122460000D03*
D14*
X69000000Y-116000000D03*
D15*
X69000000Y-118540000D03*
X69000000Y-121080000D03*
D14*
X69000000Y-107000000D03*
D15*
X69000000Y-109540000D03*
X69000000Y-112080000D03*
D14*
X53500000Y-86500000D03*
D15*
X50960000Y-86500000D03*
X48420000Y-86500000D03*
D14*
X68000000Y-85040000D03*
D15*
X68000000Y-82500000D03*
D14*
X66500000Y-98000000D03*
D15*
X69040000Y-98000000D03*
X66500000Y-100540000D03*
X69040000Y-100540000D03*
X66500000Y-103080000D03*
X69040000Y-103080000D03*
D14*
X48700000Y-131699998D03*
D15*
X48700000Y-134239998D03*
D14*
X48700000Y-91700000D03*
D15*
X48700000Y-94240000D03*
D14*
X56300000Y-134299998D03*
D15*
X56300000Y-131759998D03*
D14*
X56300000Y-94300000D03*
D15*
X56300000Y-91760000D03*
D16*
X41500000Y-76500000D03*
X67500000Y-141500000D03*
X67500000Y-76500000D03*
X41500000Y-141500000D03*
D17*
X62000000Y-132999998D03*
X62000000Y-93000000D03*
X43000000Y-93000000D03*
X43000000Y-132999998D03*
M02*
