G04 #@! TF.GenerationSoftware,KiCad,Pcbnew,(5.99.0-492-g30da2b31e)*
G04 #@! TF.CreationDate,2019-12-11T09:50:32+01:00*
G04 #@! TF.ProjectId,LED_Panel_Hex,4c45445f-5061-46e6-956c-5f4865782e6b,rev?*
G04 #@! TF.SameCoordinates,Original*
G04 #@! TF.FileFunction,Copper,L1,Top*
G04 #@! TF.FilePolarity,Positive*
%FSLAX46Y46*%
G04 Gerber Fmt 4.6, Leading zero omitted, Abs format (unit mm)*
G04 Created by KiCad (PCBNEW (5.99.0-492-g30da2b31e)) date 2019-12-11 09:50:32*
%MOMM*%
%LPD*%
G04 APERTURE LIST*
%ADD10R,1.300000X0.700000*%
%ADD11R,0.700000X1.300000*%
%ADD12C,5.600000*%
%ADD13R,1.500000X2.600000*%
%ADD14R,2.600000X1.500000*%
%ADD15R,0.900000X0.800000*%
%ADD16R,0.900000X1.700000*%
%ADD17C,0.700000*%
%ADD18C,0.250000*%
%ADD19C,0.500000*%
G04 APERTURE END LIST*
D10*
X113250000Y-94200000D03*
X113250000Y-92300000D03*
X110750000Y-94200000D03*
X110750000Y-92300000D03*
D11*
X112450000Y-72500000D03*
X110550000Y-72500000D03*
D12*
X112750000Y-77500000D03*
X112750000Y-101250000D03*
D13*
X102000000Y-69500000D03*
X105000000Y-69500000D03*
X102000000Y-73500000D03*
X105000000Y-73500000D03*
D14*
X122750000Y-69500000D03*
X122750000Y-66500000D03*
X122750000Y-75500000D03*
X122750000Y-72500000D03*
X128750000Y-90500000D03*
X128750000Y-87500000D03*
X128750000Y-96500000D03*
X128750000Y-93500000D03*
D13*
X102000000Y-77500000D03*
X105000000Y-77500000D03*
X102000000Y-81500000D03*
X105000000Y-81500000D03*
D14*
X122750000Y-81500000D03*
X122750000Y-78500000D03*
X122750000Y-87500000D03*
X122750000Y-84500000D03*
X128750000Y-102500000D03*
X128750000Y-99500000D03*
X128750000Y-108500000D03*
X128750000Y-105500000D03*
D13*
X102000000Y-85500000D03*
X105000000Y-85500000D03*
X102000000Y-89500000D03*
X105000000Y-89500000D03*
D14*
X122750000Y-93500000D03*
X122750000Y-90500000D03*
X122750000Y-99500000D03*
X122750000Y-96500000D03*
X128750000Y-114500000D03*
X128750000Y-111500000D03*
X134750000Y-75500000D03*
X134750000Y-72500000D03*
D13*
X102000000Y-93500000D03*
X105000000Y-93500000D03*
X102000000Y-97500000D03*
X105000000Y-97500000D03*
D14*
X122750000Y-105500000D03*
X122750000Y-102500000D03*
X122750000Y-111500000D03*
X122750000Y-108500000D03*
X134750000Y-81500000D03*
X134750000Y-78500000D03*
X134750000Y-87500000D03*
X134750000Y-84500000D03*
D13*
X102000000Y-101500000D03*
X105000000Y-101500000D03*
X102000000Y-105500000D03*
X105000000Y-105500000D03*
D14*
X122750000Y-117500000D03*
X122750000Y-114500000D03*
X128750000Y-72500000D03*
X128750000Y-69500000D03*
X134750000Y-93500000D03*
X134750000Y-90500000D03*
X134750000Y-99500000D03*
X134750000Y-96500000D03*
D13*
X102000000Y-109500000D03*
X105000000Y-109500000D03*
X102000000Y-113500000D03*
X105000000Y-113500000D03*
D14*
X128750000Y-78500000D03*
X128750000Y-75500000D03*
X128750000Y-84500000D03*
X128750000Y-81500000D03*
X134750000Y-105500000D03*
X134750000Y-102500000D03*
X134750000Y-111500000D03*
X134750000Y-108500000D03*
D15*
X113500000Y-109450000D03*
X113500000Y-107550000D03*
X111500000Y-108500000D03*
X113500000Y-114450000D03*
X113500000Y-112550000D03*
X111500000Y-113500000D03*
D16*
X113950000Y-69500000D03*
X111050000Y-69500000D03*
D17*
X124262653Y-73012653D03*
X126250000Y-85000000D03*
X127750000Y-85000000D03*
X130750000Y-114500000D03*
X135250000Y-77500000D03*
X122750000Y-66500000D03*
X131250000Y-82500000D03*
X134750000Y-111500000D03*
X128750000Y-78500000D03*
X134750000Y-105500000D03*
X126750000Y-69500000D03*
X122750000Y-112000000D03*
X124250000Y-117500000D03*
X127750000Y-74500000D03*
X121750000Y-76500000D03*
X121750000Y-83500000D03*
X121750000Y-88500000D03*
X121750000Y-95500000D03*
X121750000Y-100500000D03*
X121750000Y-108000000D03*
X114000000Y-109500000D03*
X102000000Y-69500000D03*
X105000000Y-77500000D03*
X102000000Y-73500000D03*
X105000000Y-81500000D03*
X102000000Y-77500000D03*
X105000000Y-85500000D03*
X102000000Y-81500000D03*
X105000000Y-89500000D03*
X102000000Y-85500000D03*
X105000000Y-93500000D03*
X102000000Y-89500000D03*
X105000000Y-97500000D03*
X102000000Y-93500000D03*
X105000000Y-101500000D03*
X102000000Y-97500000D03*
X105000000Y-105500000D03*
X102000000Y-101500000D03*
X105000000Y-109500000D03*
X102000000Y-105500000D03*
X105000000Y-112000000D03*
X109000000Y-109500000D03*
X102000000Y-109500000D03*
X108000000Y-113500000D03*
X102000000Y-113500000D03*
X114250000Y-114250000D03*
X113250000Y-91500000D03*
X109750000Y-90250000D03*
X109750000Y-98000000D03*
X111750000Y-95750000D03*
X112500000Y-110750000D03*
X113250000Y-71250000D03*
D18*
X110750000Y-94000000D02*
X110750000Y-97000000D01*
X110750000Y-97000000D02*
X109750000Y-98000000D01*
X110750000Y-92500000D02*
X110750000Y-91250000D01*
X110750000Y-91250000D02*
X109750000Y-90250000D01*
X123750000Y-72500000D02*
X124262653Y-73012653D01*
X122750000Y-72500000D02*
X123750000Y-72500000D01*
X130425001Y-89449999D02*
X129600003Y-88625001D01*
X130425001Y-92374999D02*
X130425001Y-89449999D01*
X126250000Y-87725002D02*
X126250000Y-85000000D01*
X128750000Y-93500000D02*
X129300000Y-93500000D01*
X127149999Y-88625001D02*
X126250000Y-87725002D01*
X129600003Y-88625001D02*
X127149999Y-88625001D01*
X129300000Y-93500000D02*
X130425001Y-92374999D01*
X127750000Y-85000000D02*
X128250000Y-85000000D01*
X128250000Y-85000000D02*
X128750000Y-84500000D01*
X128750000Y-114500000D02*
X130750000Y-114500000D01*
X134750000Y-78000000D02*
X135250000Y-77500000D01*
X134750000Y-78500000D02*
X134750000Y-78000000D01*
X131975001Y-105824999D02*
X131975001Y-74725001D01*
X131975001Y-74725001D02*
X134200000Y-72500000D01*
X134200000Y-72500000D02*
X134750000Y-72500000D01*
X129300000Y-108500000D02*
X131975001Y-105824999D01*
X128750000Y-108500000D02*
X129300000Y-108500000D01*
X136750000Y-89050000D02*
X136750000Y-82950000D01*
X136750000Y-82950000D02*
X135300000Y-81500000D01*
X135300000Y-81500000D02*
X134750000Y-81500000D01*
X134750000Y-90500000D02*
X135300000Y-90500000D01*
X135300000Y-90500000D02*
X136750000Y-89050000D01*
X136750000Y-102050000D02*
X136750000Y-94950000D01*
X136750000Y-94950000D02*
X135300000Y-93500000D01*
X135300000Y-93500000D02*
X134750000Y-93500000D01*
X134750000Y-102500000D02*
X136300000Y-102500000D01*
X136300000Y-102500000D02*
X136750000Y-102050000D01*
X132750000Y-101500000D02*
X132750000Y-107050000D01*
X132750000Y-107050000D02*
X134200000Y-108500000D01*
X134200000Y-108500000D02*
X134750000Y-108500000D01*
X134750000Y-99500000D02*
X132750000Y-101500000D01*
X132750000Y-88950000D02*
X132750000Y-95050000D01*
X132750000Y-95050000D02*
X134200000Y-96500000D01*
X134200000Y-96500000D02*
X134750000Y-96500000D01*
X134750000Y-87500000D02*
X134200000Y-87500000D01*
X134200000Y-87500000D02*
X132750000Y-88950000D01*
X131250000Y-82500000D02*
X131250000Y-85550000D01*
X131250000Y-85550000D02*
X129300000Y-87500000D01*
X129300000Y-87500000D02*
X128750000Y-87500000D01*
X132750000Y-75950000D02*
X132750000Y-83050000D01*
X134200000Y-84500000D02*
X134750000Y-84500000D01*
X132750000Y-83050000D02*
X134200000Y-84500000D01*
X134750000Y-75500000D02*
X133200000Y-75500000D01*
X133200000Y-75500000D02*
X132750000Y-75950000D01*
X128750000Y-84500000D02*
X128200000Y-84500000D01*
X126750000Y-69500000D02*
X128750000Y-69500000D01*
X122750000Y-111500000D02*
X122750000Y-112000000D01*
X124250000Y-117500000D02*
X122750000Y-117500000D01*
X128750000Y-75500000D02*
X127750000Y-74500000D01*
X128750000Y-105500000D02*
X129750000Y-105500000D01*
X129750000Y-105500000D02*
X131250000Y-104000000D01*
X131250000Y-98450000D02*
X129300000Y-96500000D01*
X131250000Y-104000000D02*
X131250000Y-98450000D01*
X129300000Y-96500000D02*
X128750000Y-96500000D01*
X126250000Y-103450000D02*
X126250000Y-109550000D01*
X126250000Y-109550000D02*
X128200000Y-111500000D01*
X128200000Y-111500000D02*
X128750000Y-111500000D01*
X128750000Y-102500000D02*
X127200000Y-102500000D01*
X127200000Y-102500000D02*
X126250000Y-103450000D01*
X126250000Y-91450000D02*
X126250000Y-97550000D01*
X126250000Y-97550000D02*
X128200000Y-99500000D01*
X128200000Y-99500000D02*
X128750000Y-99500000D01*
X128750000Y-90500000D02*
X127200000Y-90500000D01*
X127200000Y-90500000D02*
X126250000Y-91450000D01*
X126250000Y-73450000D02*
X126250000Y-79550000D01*
X128200000Y-81500000D02*
X128750000Y-81500000D01*
X126250000Y-79550000D02*
X128200000Y-81500000D01*
X128750000Y-72500000D02*
X127200000Y-72500000D01*
X127200000Y-72500000D02*
X126250000Y-73450000D01*
X121750000Y-76500000D02*
X122750000Y-75500000D01*
X122750000Y-84500000D02*
X121750000Y-83500000D01*
X121750000Y-88500000D02*
X122750000Y-87500000D01*
X122750000Y-96500000D02*
X121750000Y-95500000D01*
X121750000Y-100500000D02*
X122750000Y-99500000D01*
X122250000Y-108500000D02*
X121750000Y-108000000D01*
X122750000Y-108500000D02*
X122250000Y-108500000D01*
X125250000Y-106450000D02*
X125250000Y-112550000D01*
X125250000Y-112550000D02*
X123300000Y-114500000D01*
X123300000Y-114500000D02*
X122750000Y-114500000D01*
X122750000Y-105500000D02*
X124300000Y-105500000D01*
X124300000Y-105500000D02*
X125250000Y-106450000D01*
X125250000Y-100550000D02*
X123300000Y-102500000D01*
X123300000Y-102500000D02*
X122750000Y-102500000D01*
X125250000Y-94450000D02*
X125250000Y-100550000D01*
X122750000Y-93500000D02*
X124300000Y-93500000D01*
X124300000Y-93500000D02*
X125250000Y-94450000D01*
X125250000Y-83450000D02*
X125250000Y-88550000D01*
X125250000Y-88550000D02*
X123300000Y-90500000D01*
X123300000Y-90500000D02*
X122750000Y-90500000D01*
X122750000Y-81500000D02*
X123300000Y-81500000D01*
X123300000Y-81500000D02*
X125250000Y-83450000D01*
X125250000Y-70450000D02*
X125250000Y-76550000D01*
X125250000Y-76550000D02*
X123300000Y-78500000D01*
X123300000Y-78500000D02*
X122750000Y-78500000D01*
X122750000Y-69500000D02*
X124300000Y-69500000D01*
X124300000Y-69500000D02*
X125250000Y-70450000D01*
X113500000Y-109450000D02*
X113950000Y-109450000D01*
X113950000Y-109450000D02*
X114000000Y-109500000D01*
X108750000Y-73500000D02*
X105000000Y-73500000D01*
X105000000Y-113500000D02*
X105000000Y-112000000D01*
X109000000Y-109500000D02*
X110000000Y-108500000D01*
X110000000Y-108500000D02*
X111500000Y-108500000D01*
X111500000Y-113500000D02*
X109000000Y-113500000D01*
X109000000Y-113500000D02*
X108000000Y-113500000D01*
X113700000Y-114250000D02*
X113500000Y-114450000D01*
X114250000Y-114250000D02*
X113700000Y-114250000D01*
X108750000Y-73500000D02*
X109750000Y-72500000D01*
X109750000Y-72500000D02*
X110750000Y-72500000D01*
X111050000Y-69500000D02*
X110350000Y-69500000D01*
X109050000Y-69500000D02*
X108750000Y-69500000D01*
X110350000Y-69500000D02*
X108750000Y-69500000D01*
X108750000Y-69500000D02*
X105000000Y-69500000D01*
X112250000Y-72300000D02*
X112250000Y-72500000D01*
X113275000Y-71275000D02*
X112250000Y-72300000D01*
X112750000Y-92500000D02*
X112750000Y-92000000D01*
X112750000Y-92000000D02*
X113250000Y-91500000D01*
X111750000Y-95750000D02*
X112500000Y-95750000D01*
X112750000Y-95500000D02*
X112750000Y-94000000D01*
X112500000Y-95750000D02*
X112750000Y-95500000D01*
X112500000Y-108000000D02*
X112950000Y-107550000D01*
X113500000Y-112550000D02*
X113050000Y-112550000D01*
X113050000Y-112550000D02*
X112500000Y-112000000D01*
X112950000Y-107550000D02*
X113500000Y-107550000D01*
X112500000Y-110750000D02*
X112500000Y-108000000D01*
X112500000Y-112000000D02*
X112500000Y-110750000D01*
D19*
X113250000Y-71250000D02*
X113750000Y-70750000D01*
D18*
X113750000Y-70750000D02*
X113275000Y-71275000D01*
D19*
X113750000Y-69700000D02*
X113950000Y-69500000D01*
X113750000Y-70750000D02*
X113750000Y-69700000D01*
X113250000Y-71500000D02*
X112250000Y-72500000D01*
X113250000Y-71250000D02*
X113250000Y-71500000D01*
M02*
