G04 #@! TF.GenerationSoftware,KiCad,Pcbnew,(5.99.0-490-gc7ce93e10)*
G04 #@! TF.CreationDate,2019-12-10T12:05:07+01:00*
G04 #@! TF.ProjectId,LED_Panel_Hex,4c45445f-5061-46e6-956c-5f4865782e6b,rev?*
G04 #@! TF.SameCoordinates,Original*
G04 #@! TF.FileFunction,Legend,Top*
G04 #@! TF.FilePolarity,Positive*
%FSLAX46Y46*%
G04 Gerber Fmt 4.6, Leading zero omitted, Abs format (unit mm)*
G04 Created by KiCad (PCBNEW (5.99.0-490-gc7ce93e10)) date 2019-12-10 12:05:07*
%MOMM*%
%LPD*%
G04 APERTURE LIST*
%ADD10C,0.120000*%
%ADD11C,0.150000*%
%ADD12R,1.700000X1.100000*%
%ADD13R,1.100000X1.700000*%
%ADD14C,6.000000*%
%ADD15R,1.900000X3.000000*%
%ADD16R,3.000000X1.900000*%
%ADD17R,1.300000X1.200000*%
%ADD18R,1.300000X2.100000*%
G04 APERTURE END LIST*
D10*
X114130000Y-92650000D02*
X114130000Y-93850000D01*
X112370000Y-93850000D02*
X112370000Y-92650000D01*
X111630000Y-92650000D02*
X111630000Y-93850000D01*
X109870000Y-93850000D02*
X109870000Y-92650000D01*
X110900000Y-71620000D02*
X112100000Y-71620000D01*
X112100000Y-73380000D02*
X110900000Y-73380000D01*
X101100000Y-67900000D02*
X101100000Y-68700000D01*
X105750000Y-67900000D02*
X101100000Y-67900000D01*
X105750000Y-71100000D02*
X101100000Y-71100000D01*
X101100000Y-71900000D02*
X101100000Y-72700000D01*
X105750000Y-71900000D02*
X101100000Y-71900000D01*
X105750000Y-75100000D02*
X101100000Y-75100000D01*
X121150000Y-70400000D02*
X121950000Y-70400000D01*
X121150000Y-65750000D02*
X121150000Y-70400000D01*
X124350000Y-65750000D02*
X124350000Y-70400000D01*
X121150000Y-76400000D02*
X121950000Y-76400000D01*
X121150000Y-71750000D02*
X121150000Y-76400000D01*
X124350000Y-71750000D02*
X124350000Y-76400000D01*
X127150000Y-91400000D02*
X127950000Y-91400000D01*
X127150000Y-86750000D02*
X127150000Y-91400000D01*
X130350000Y-86750000D02*
X130350000Y-91400000D01*
X127150000Y-97400000D02*
X127950000Y-97400000D01*
X127150000Y-92750000D02*
X127150000Y-97400000D01*
X130350000Y-92750000D02*
X130350000Y-97400000D01*
X101100000Y-75900000D02*
X101100000Y-76700000D01*
X105750000Y-75900000D02*
X101100000Y-75900000D01*
X105750000Y-79100000D02*
X101100000Y-79100000D01*
X101100000Y-79900000D02*
X101100000Y-80700000D01*
X105750000Y-79900000D02*
X101100000Y-79900000D01*
X105750000Y-83100000D02*
X101100000Y-83100000D01*
X121150000Y-82400000D02*
X121950000Y-82400000D01*
X121150000Y-77750000D02*
X121150000Y-82400000D01*
X124350000Y-77750000D02*
X124350000Y-82400000D01*
X121150000Y-88400000D02*
X121950000Y-88400000D01*
X121150000Y-83750000D02*
X121150000Y-88400000D01*
X124350000Y-83750000D02*
X124350000Y-88400000D01*
X127150000Y-103400000D02*
X127950000Y-103400000D01*
X127150000Y-98750000D02*
X127150000Y-103400000D01*
X130350000Y-98750000D02*
X130350000Y-103400000D01*
X127150000Y-109400000D02*
X127950000Y-109400000D01*
X127150000Y-104750000D02*
X127150000Y-109400000D01*
X130350000Y-104750000D02*
X130350000Y-109400000D01*
X101100000Y-83900000D02*
X101100000Y-84700000D01*
X105750000Y-83900000D02*
X101100000Y-83900000D01*
X105750000Y-87100000D02*
X101100000Y-87100000D01*
X101100000Y-87900000D02*
X101100000Y-88700000D01*
X105750000Y-87900000D02*
X101100000Y-87900000D01*
X105750000Y-91100000D02*
X101100000Y-91100000D01*
X121150000Y-94400000D02*
X121950000Y-94400000D01*
X121150000Y-89750000D02*
X121150000Y-94400000D01*
X124350000Y-89750000D02*
X124350000Y-94400000D01*
X121150000Y-100400000D02*
X121950000Y-100400000D01*
X121150000Y-95750000D02*
X121150000Y-100400000D01*
X124350000Y-95750000D02*
X124350000Y-100400000D01*
X127150000Y-115400000D02*
X127950000Y-115400000D01*
X127150000Y-110750000D02*
X127150000Y-115400000D01*
X130350000Y-110750000D02*
X130350000Y-115400000D01*
X133150000Y-76400000D02*
X133950000Y-76400000D01*
X133150000Y-71750000D02*
X133150000Y-76400000D01*
X136350000Y-71750000D02*
X136350000Y-76400000D01*
X101100000Y-91900000D02*
X101100000Y-92700000D01*
X105750000Y-91900000D02*
X101100000Y-91900000D01*
X105750000Y-95100000D02*
X101100000Y-95100000D01*
X101100000Y-95900000D02*
X101100000Y-96700000D01*
X105750000Y-95900000D02*
X101100000Y-95900000D01*
X105750000Y-99100000D02*
X101100000Y-99100000D01*
X121150000Y-106400000D02*
X121950000Y-106400000D01*
X121150000Y-101750000D02*
X121150000Y-106400000D01*
X124350000Y-101750000D02*
X124350000Y-106400000D01*
X121150000Y-112400000D02*
X121950000Y-112400000D01*
X121150000Y-107750000D02*
X121150000Y-112400000D01*
X124350000Y-107750000D02*
X124350000Y-112400000D01*
X133150000Y-82400000D02*
X133950000Y-82400000D01*
X133150000Y-77750000D02*
X133150000Y-82400000D01*
X136350000Y-77750000D02*
X136350000Y-82400000D01*
X133150000Y-88400000D02*
X133950000Y-88400000D01*
X133150000Y-83750000D02*
X133150000Y-88400000D01*
X136350000Y-83750000D02*
X136350000Y-88400000D01*
X101100000Y-99900000D02*
X101100000Y-100700000D01*
X105750000Y-99900000D02*
X101100000Y-99900000D01*
X105750000Y-103100000D02*
X101100000Y-103100000D01*
X101100000Y-103900000D02*
X101100000Y-104700000D01*
X105750000Y-103900000D02*
X101100000Y-103900000D01*
X105750000Y-107100000D02*
X101100000Y-107100000D01*
X121150000Y-118400000D02*
X121950000Y-118400000D01*
X121150000Y-113750000D02*
X121150000Y-118400000D01*
X124350000Y-113750000D02*
X124350000Y-118400000D01*
X127150000Y-73400000D02*
X127950000Y-73400000D01*
X127150000Y-68750000D02*
X127150000Y-73400000D01*
X130350000Y-68750000D02*
X130350000Y-73400000D01*
X133150000Y-94400000D02*
X133950000Y-94400000D01*
X133150000Y-89750000D02*
X133150000Y-94400000D01*
X136350000Y-89750000D02*
X136350000Y-94400000D01*
X133150000Y-100400000D02*
X133950000Y-100400000D01*
X133150000Y-95750000D02*
X133150000Y-100400000D01*
X136350000Y-95750000D02*
X136350000Y-100400000D01*
X101100000Y-107900000D02*
X101100000Y-108700000D01*
X105750000Y-107900000D02*
X101100000Y-107900000D01*
X105750000Y-111100000D02*
X101100000Y-111100000D01*
X101100000Y-111900000D02*
X101100000Y-112700000D01*
X105750000Y-111900000D02*
X101100000Y-111900000D01*
X105750000Y-115100000D02*
X101100000Y-115100000D01*
X127150000Y-79400000D02*
X127950000Y-79400000D01*
X127150000Y-74750000D02*
X127150000Y-79400000D01*
X130350000Y-74750000D02*
X130350000Y-79400000D01*
X127150000Y-85400000D02*
X127950000Y-85400000D01*
X127150000Y-80750000D02*
X127150000Y-85400000D01*
X130350000Y-80750000D02*
X130350000Y-85400000D01*
X133150000Y-106400000D02*
X133950000Y-106400000D01*
X133150000Y-101750000D02*
X133150000Y-106400000D01*
X136350000Y-101750000D02*
X136350000Y-106400000D01*
X133150000Y-112400000D02*
X133950000Y-112400000D01*
X133150000Y-107750000D02*
X133150000Y-112400000D01*
X136350000Y-107750000D02*
X136350000Y-112400000D01*
X111740000Y-106920000D02*
X113200000Y-106920000D01*
X111740000Y-110080000D02*
X113900000Y-110080000D01*
X111740000Y-110080000D02*
X111740000Y-109150000D01*
X111740000Y-106920000D02*
X111740000Y-107850000D01*
X111740000Y-111920000D02*
X113200000Y-111920000D01*
X111740000Y-115080000D02*
X113900000Y-115080000D01*
X111740000Y-115080000D02*
X111740000Y-114150000D01*
X111740000Y-111920000D02*
X111740000Y-112850000D01*
X113500000Y-70570000D02*
X111500000Y-70570000D01*
X111500000Y-68430000D02*
X113500000Y-68430000D01*
D11*
X113452380Y-97142857D02*
X112976190Y-97476190D01*
X113452380Y-97714285D02*
X112452380Y-97714285D01*
X112452380Y-97333333D01*
X112500000Y-97238095D01*
X112547619Y-97190476D01*
X112642857Y-97142857D01*
X112785714Y-97142857D01*
X112880952Y-97190476D01*
X112928571Y-97238095D01*
X112976190Y-97333333D01*
X112976190Y-97714285D01*
X113452380Y-96190476D02*
X113452380Y-96761904D01*
X113452380Y-96476190D02*
X112452380Y-96476190D01*
X112595238Y-96571428D01*
X112690476Y-96666666D01*
X112738095Y-96761904D01*
X112452380Y-95571428D02*
X112452380Y-95476190D01*
X112500000Y-95380952D01*
X112547619Y-95333333D01*
X112642857Y-95285714D01*
X112833333Y-95238095D01*
X113071428Y-95238095D01*
X113261904Y-95285714D01*
X113357142Y-95333333D01*
X113404761Y-95380952D01*
X113452380Y-95476190D01*
X113452380Y-95571428D01*
X113404761Y-95666666D01*
X113357142Y-95714285D01*
X113261904Y-95761904D01*
X113071428Y-95809523D01*
X112833333Y-95809523D01*
X112642857Y-95761904D01*
X112547619Y-95714285D01*
X112500000Y-95666666D01*
X112452380Y-95571428D01*
X110952380Y-96166666D02*
X110476190Y-96500000D01*
X110952380Y-96738095D02*
X109952380Y-96738095D01*
X109952380Y-96357142D01*
X110000000Y-96261904D01*
X110047619Y-96214285D01*
X110142857Y-96166666D01*
X110285714Y-96166666D01*
X110380952Y-96214285D01*
X110428571Y-96261904D01*
X110476190Y-96357142D01*
X110476190Y-96738095D01*
X110952380Y-95690476D02*
X110952380Y-95500000D01*
X110904761Y-95404761D01*
X110857142Y-95357142D01*
X110714285Y-95261904D01*
X110523809Y-95214285D01*
X110142857Y-95214285D01*
X110047619Y-95261904D01*
X110000000Y-95309523D01*
X109952380Y-95404761D01*
X109952380Y-95595238D01*
X110000000Y-95690476D01*
X110047619Y-95738095D01*
X110142857Y-95785714D01*
X110380952Y-95785714D01*
X110476190Y-95738095D01*
X110523809Y-95690476D01*
X110571428Y-95595238D01*
X110571428Y-95404761D01*
X110523809Y-95309523D01*
X110476190Y-95261904D01*
X110380952Y-95214285D01*
X114333333Y-72952380D02*
X114000000Y-72476190D01*
X113761904Y-72952380D02*
X113761904Y-71952380D01*
X114142857Y-71952380D01*
X114238095Y-72000000D01*
X114285714Y-72047619D01*
X114333333Y-72142857D01*
X114333333Y-72285714D01*
X114285714Y-72380952D01*
X114238095Y-72428571D01*
X114142857Y-72476190D01*
X113761904Y-72476190D01*
X114714285Y-72047619D02*
X114761904Y-72000000D01*
X114857142Y-71952380D01*
X115095238Y-71952380D01*
X115190476Y-72000000D01*
X115238095Y-72047619D01*
X115285714Y-72142857D01*
X115285714Y-72238095D01*
X115238095Y-72380952D01*
X114666666Y-72952380D01*
X115285714Y-72952380D01*
X114988095Y-80452380D02*
X114988095Y-79452380D01*
X114988095Y-79928571D02*
X115559523Y-79928571D01*
X115559523Y-80452380D02*
X115559523Y-79452380D01*
X116559523Y-80452380D02*
X115988095Y-80452380D01*
X116273809Y-80452380D02*
X116273809Y-79452380D01*
X116178571Y-79595238D01*
X116083333Y-79690476D01*
X115988095Y-79738095D01*
X115238095Y-104452380D02*
X115238095Y-103452380D01*
X115238095Y-103928571D02*
X115809523Y-103928571D01*
X115809523Y-104452380D02*
X115809523Y-103452380D01*
X116238095Y-103547619D02*
X116285714Y-103500000D01*
X116380952Y-103452380D01*
X116619047Y-103452380D01*
X116714285Y-103500000D01*
X116761904Y-103547619D01*
X116809523Y-103642857D01*
X116809523Y-103738095D01*
X116761904Y-103880952D01*
X116190476Y-104452380D01*
X116809523Y-104452380D01*
X106511904Y-69952380D02*
X106511904Y-68952380D01*
X106750000Y-68952380D01*
X106892857Y-69000000D01*
X106988095Y-69095238D01*
X107035714Y-69190476D01*
X107083333Y-69380952D01*
X107083333Y-69523809D01*
X107035714Y-69714285D01*
X106988095Y-69809523D01*
X106892857Y-69904761D01*
X106750000Y-69952380D01*
X106511904Y-69952380D01*
X108035714Y-69952380D02*
X107464285Y-69952380D01*
X107750000Y-69952380D02*
X107750000Y-68952380D01*
X107654761Y-69095238D01*
X107559523Y-69190476D01*
X107464285Y-69238095D01*
X106761904Y-73952380D02*
X106761904Y-72952380D01*
X107000000Y-72952380D01*
X107142857Y-73000000D01*
X107238095Y-73095238D01*
X107285714Y-73190476D01*
X107333333Y-73380952D01*
X107333333Y-73523809D01*
X107285714Y-73714285D01*
X107238095Y-73809523D01*
X107142857Y-73904761D01*
X107000000Y-73952380D01*
X106761904Y-73952380D01*
X107714285Y-73047619D02*
X107761904Y-73000000D01*
X107857142Y-72952380D01*
X108095238Y-72952380D01*
X108190476Y-73000000D01*
X108238095Y-73047619D01*
X108285714Y-73142857D01*
X108285714Y-73238095D01*
X108238095Y-73380952D01*
X107666666Y-73952380D01*
X108285714Y-73952380D01*
X125702380Y-68738095D02*
X124702380Y-68738095D01*
X124702380Y-68500000D01*
X124750000Y-68357142D01*
X124845238Y-68261904D01*
X124940476Y-68214285D01*
X125130952Y-68166666D01*
X125273809Y-68166666D01*
X125464285Y-68214285D01*
X125559523Y-68261904D01*
X125654761Y-68357142D01*
X125702380Y-68500000D01*
X125702380Y-68738095D01*
X124702380Y-67833333D02*
X124702380Y-67214285D01*
X125083333Y-67547619D01*
X125083333Y-67404761D01*
X125130952Y-67309523D01*
X125178571Y-67261904D01*
X125273809Y-67214285D01*
X125511904Y-67214285D01*
X125607142Y-67261904D01*
X125654761Y-67309523D01*
X125702380Y-67404761D01*
X125702380Y-67690476D01*
X125654761Y-67785714D01*
X125607142Y-67833333D01*
X125702380Y-74738095D02*
X124702380Y-74738095D01*
X124702380Y-74500000D01*
X124750000Y-74357142D01*
X124845238Y-74261904D01*
X124940476Y-74214285D01*
X125130952Y-74166666D01*
X125273809Y-74166666D01*
X125464285Y-74214285D01*
X125559523Y-74261904D01*
X125654761Y-74357142D01*
X125702380Y-74500000D01*
X125702380Y-74738095D01*
X125035714Y-73309523D02*
X125702380Y-73309523D01*
X124654761Y-73547619D02*
X125369047Y-73785714D01*
X125369047Y-73166666D01*
X131702380Y-89738095D02*
X130702380Y-89738095D01*
X130702380Y-89500000D01*
X130750000Y-89357142D01*
X130845238Y-89261904D01*
X130940476Y-89214285D01*
X131130952Y-89166666D01*
X131273809Y-89166666D01*
X131464285Y-89214285D01*
X131559523Y-89261904D01*
X131654761Y-89357142D01*
X131702380Y-89500000D01*
X131702380Y-89738095D01*
X130702380Y-88261904D02*
X130702380Y-88738095D01*
X131178571Y-88785714D01*
X131130952Y-88738095D01*
X131083333Y-88642857D01*
X131083333Y-88404761D01*
X131130952Y-88309523D01*
X131178571Y-88261904D01*
X131273809Y-88214285D01*
X131511904Y-88214285D01*
X131607142Y-88261904D01*
X131654761Y-88309523D01*
X131702380Y-88404761D01*
X131702380Y-88642857D01*
X131654761Y-88738095D01*
X131607142Y-88785714D01*
X131702380Y-95738095D02*
X130702380Y-95738095D01*
X130702380Y-95500000D01*
X130750000Y-95357142D01*
X130845238Y-95261904D01*
X130940476Y-95214285D01*
X131130952Y-95166666D01*
X131273809Y-95166666D01*
X131464285Y-95214285D01*
X131559523Y-95261904D01*
X131654761Y-95357142D01*
X131702380Y-95500000D01*
X131702380Y-95738095D01*
X130702380Y-94309523D02*
X130702380Y-94500000D01*
X130750000Y-94595238D01*
X130797619Y-94642857D01*
X130940476Y-94738095D01*
X131130952Y-94785714D01*
X131511904Y-94785714D01*
X131607142Y-94738095D01*
X131654761Y-94690476D01*
X131702380Y-94595238D01*
X131702380Y-94404761D01*
X131654761Y-94309523D01*
X131607142Y-94261904D01*
X131511904Y-94214285D01*
X131273809Y-94214285D01*
X131178571Y-94261904D01*
X131130952Y-94309523D01*
X131083333Y-94404761D01*
X131083333Y-94595238D01*
X131130952Y-94690476D01*
X131178571Y-94738095D01*
X131273809Y-94785714D01*
X106761904Y-77952380D02*
X106761904Y-76952380D01*
X107000000Y-76952380D01*
X107142857Y-77000000D01*
X107238095Y-77095238D01*
X107285714Y-77190476D01*
X107333333Y-77380952D01*
X107333333Y-77523809D01*
X107285714Y-77714285D01*
X107238095Y-77809523D01*
X107142857Y-77904761D01*
X107000000Y-77952380D01*
X106761904Y-77952380D01*
X107666666Y-76952380D02*
X108333333Y-76952380D01*
X107904761Y-77952380D01*
X106761904Y-81952380D02*
X106761904Y-80952380D01*
X107000000Y-80952380D01*
X107142857Y-81000000D01*
X107238095Y-81095238D01*
X107285714Y-81190476D01*
X107333333Y-81380952D01*
X107333333Y-81523809D01*
X107285714Y-81714285D01*
X107238095Y-81809523D01*
X107142857Y-81904761D01*
X107000000Y-81952380D01*
X106761904Y-81952380D01*
X107904761Y-81380952D02*
X107809523Y-81333333D01*
X107761904Y-81285714D01*
X107714285Y-81190476D01*
X107714285Y-81142857D01*
X107761904Y-81047619D01*
X107809523Y-81000000D01*
X107904761Y-80952380D01*
X108095238Y-80952380D01*
X108190476Y-81000000D01*
X108238095Y-81047619D01*
X108285714Y-81142857D01*
X108285714Y-81190476D01*
X108238095Y-81285714D01*
X108190476Y-81333333D01*
X108095238Y-81380952D01*
X107904761Y-81380952D01*
X107809523Y-81428571D01*
X107761904Y-81476190D01*
X107714285Y-81571428D01*
X107714285Y-81761904D01*
X107761904Y-81857142D01*
X107809523Y-81904761D01*
X107904761Y-81952380D01*
X108095238Y-81952380D01*
X108190476Y-81904761D01*
X108238095Y-81857142D01*
X108285714Y-81761904D01*
X108285714Y-81571428D01*
X108238095Y-81476190D01*
X108190476Y-81428571D01*
X108095238Y-81380952D01*
X125702380Y-80738095D02*
X124702380Y-80738095D01*
X124702380Y-80500000D01*
X124750000Y-80357142D01*
X124845238Y-80261904D01*
X124940476Y-80214285D01*
X125130952Y-80166666D01*
X125273809Y-80166666D01*
X125464285Y-80214285D01*
X125559523Y-80261904D01*
X125654761Y-80357142D01*
X125702380Y-80500000D01*
X125702380Y-80738095D01*
X125702380Y-79690476D02*
X125702380Y-79500000D01*
X125654761Y-79404761D01*
X125607142Y-79357142D01*
X125464285Y-79261904D01*
X125273809Y-79214285D01*
X124892857Y-79214285D01*
X124797619Y-79261904D01*
X124750000Y-79309523D01*
X124702380Y-79404761D01*
X124702380Y-79595238D01*
X124750000Y-79690476D01*
X124797619Y-79738095D01*
X124892857Y-79785714D01*
X125130952Y-79785714D01*
X125226190Y-79738095D01*
X125273809Y-79690476D01*
X125321428Y-79595238D01*
X125321428Y-79404761D01*
X125273809Y-79309523D01*
X125226190Y-79261904D01*
X125130952Y-79214285D01*
X125702380Y-87214285D02*
X124702380Y-87214285D01*
X124702380Y-86976190D01*
X124750000Y-86833333D01*
X124845238Y-86738095D01*
X124940476Y-86690476D01*
X125130952Y-86642857D01*
X125273809Y-86642857D01*
X125464285Y-86690476D01*
X125559523Y-86738095D01*
X125654761Y-86833333D01*
X125702380Y-86976190D01*
X125702380Y-87214285D01*
X125702380Y-85690476D02*
X125702380Y-86261904D01*
X125702380Y-85976190D02*
X124702380Y-85976190D01*
X124845238Y-86071428D01*
X124940476Y-86166666D01*
X124988095Y-86261904D01*
X124702380Y-85071428D02*
X124702380Y-84976190D01*
X124750000Y-84880952D01*
X124797619Y-84833333D01*
X124892857Y-84785714D01*
X125083333Y-84738095D01*
X125321428Y-84738095D01*
X125511904Y-84785714D01*
X125607142Y-84833333D01*
X125654761Y-84880952D01*
X125702380Y-84976190D01*
X125702380Y-85071428D01*
X125654761Y-85166666D01*
X125607142Y-85214285D01*
X125511904Y-85261904D01*
X125321428Y-85309523D01*
X125083333Y-85309523D01*
X124892857Y-85261904D01*
X124797619Y-85214285D01*
X124750000Y-85166666D01*
X124702380Y-85071428D01*
X131702380Y-102214285D02*
X130702380Y-102214285D01*
X130702380Y-101976190D01*
X130750000Y-101833333D01*
X130845238Y-101738095D01*
X130940476Y-101690476D01*
X131130952Y-101642857D01*
X131273809Y-101642857D01*
X131464285Y-101690476D01*
X131559523Y-101738095D01*
X131654761Y-101833333D01*
X131702380Y-101976190D01*
X131702380Y-102214285D01*
X131702380Y-100690476D02*
X131702380Y-101261904D01*
X131702380Y-100976190D02*
X130702380Y-100976190D01*
X130845238Y-101071428D01*
X130940476Y-101166666D01*
X130988095Y-101261904D01*
X131702380Y-99738095D02*
X131702380Y-100309523D01*
X131702380Y-100023809D02*
X130702380Y-100023809D01*
X130845238Y-100119047D01*
X130940476Y-100214285D01*
X130988095Y-100309523D01*
X131702380Y-108214285D02*
X130702380Y-108214285D01*
X130702380Y-107976190D01*
X130750000Y-107833333D01*
X130845238Y-107738095D01*
X130940476Y-107690476D01*
X131130952Y-107642857D01*
X131273809Y-107642857D01*
X131464285Y-107690476D01*
X131559523Y-107738095D01*
X131654761Y-107833333D01*
X131702380Y-107976190D01*
X131702380Y-108214285D01*
X131702380Y-106690476D02*
X131702380Y-107261904D01*
X131702380Y-106976190D02*
X130702380Y-106976190D01*
X130845238Y-107071428D01*
X130940476Y-107166666D01*
X130988095Y-107261904D01*
X130797619Y-106309523D02*
X130750000Y-106261904D01*
X130702380Y-106166666D01*
X130702380Y-105928571D01*
X130750000Y-105833333D01*
X130797619Y-105785714D01*
X130892857Y-105738095D01*
X130988095Y-105738095D01*
X131130952Y-105785714D01*
X131702380Y-106357142D01*
X131702380Y-105738095D01*
X106535714Y-85952380D02*
X106535714Y-84952380D01*
X106773809Y-84952380D01*
X106916666Y-85000000D01*
X107011904Y-85095238D01*
X107059523Y-85190476D01*
X107107142Y-85380952D01*
X107107142Y-85523809D01*
X107059523Y-85714285D01*
X107011904Y-85809523D01*
X106916666Y-85904761D01*
X106773809Y-85952380D01*
X106535714Y-85952380D01*
X108059523Y-85952380D02*
X107488095Y-85952380D01*
X107773809Y-85952380D02*
X107773809Y-84952380D01*
X107678571Y-85095238D01*
X107583333Y-85190476D01*
X107488095Y-85238095D01*
X108392857Y-84952380D02*
X109011904Y-84952380D01*
X108678571Y-85333333D01*
X108821428Y-85333333D01*
X108916666Y-85380952D01*
X108964285Y-85428571D01*
X109011904Y-85523809D01*
X109011904Y-85761904D01*
X108964285Y-85857142D01*
X108916666Y-85904761D01*
X108821428Y-85952380D01*
X108535714Y-85952380D01*
X108440476Y-85904761D01*
X108392857Y-85857142D01*
X106535714Y-89952380D02*
X106535714Y-88952380D01*
X106773809Y-88952380D01*
X106916666Y-89000000D01*
X107011904Y-89095238D01*
X107059523Y-89190476D01*
X107107142Y-89380952D01*
X107107142Y-89523809D01*
X107059523Y-89714285D01*
X107011904Y-89809523D01*
X106916666Y-89904761D01*
X106773809Y-89952380D01*
X106535714Y-89952380D01*
X108059523Y-89952380D02*
X107488095Y-89952380D01*
X107773809Y-89952380D02*
X107773809Y-88952380D01*
X107678571Y-89095238D01*
X107583333Y-89190476D01*
X107488095Y-89238095D01*
X108916666Y-89285714D02*
X108916666Y-89952380D01*
X108678571Y-88904761D02*
X108440476Y-89619047D01*
X109059523Y-89619047D01*
X125702380Y-93214285D02*
X124702380Y-93214285D01*
X124702380Y-92976190D01*
X124750000Y-92833333D01*
X124845238Y-92738095D01*
X124940476Y-92690476D01*
X125130952Y-92642857D01*
X125273809Y-92642857D01*
X125464285Y-92690476D01*
X125559523Y-92738095D01*
X125654761Y-92833333D01*
X125702380Y-92976190D01*
X125702380Y-93214285D01*
X125702380Y-91690476D02*
X125702380Y-92261904D01*
X125702380Y-91976190D02*
X124702380Y-91976190D01*
X124845238Y-92071428D01*
X124940476Y-92166666D01*
X124988095Y-92261904D01*
X124702380Y-90785714D02*
X124702380Y-91261904D01*
X125178571Y-91309523D01*
X125130952Y-91261904D01*
X125083333Y-91166666D01*
X125083333Y-90928571D01*
X125130952Y-90833333D01*
X125178571Y-90785714D01*
X125273809Y-90738095D01*
X125511904Y-90738095D01*
X125607142Y-90785714D01*
X125654761Y-90833333D01*
X125702380Y-90928571D01*
X125702380Y-91166666D01*
X125654761Y-91261904D01*
X125607142Y-91309523D01*
X125702380Y-99214285D02*
X124702380Y-99214285D01*
X124702380Y-98976190D01*
X124750000Y-98833333D01*
X124845238Y-98738095D01*
X124940476Y-98690476D01*
X125130952Y-98642857D01*
X125273809Y-98642857D01*
X125464285Y-98690476D01*
X125559523Y-98738095D01*
X125654761Y-98833333D01*
X125702380Y-98976190D01*
X125702380Y-99214285D01*
X125702380Y-97690476D02*
X125702380Y-98261904D01*
X125702380Y-97976190D02*
X124702380Y-97976190D01*
X124845238Y-98071428D01*
X124940476Y-98166666D01*
X124988095Y-98261904D01*
X124702380Y-96833333D02*
X124702380Y-97023809D01*
X124750000Y-97119047D01*
X124797619Y-97166666D01*
X124940476Y-97261904D01*
X125130952Y-97309523D01*
X125511904Y-97309523D01*
X125607142Y-97261904D01*
X125654761Y-97214285D01*
X125702380Y-97119047D01*
X125702380Y-96928571D01*
X125654761Y-96833333D01*
X125607142Y-96785714D01*
X125511904Y-96738095D01*
X125273809Y-96738095D01*
X125178571Y-96785714D01*
X125130952Y-96833333D01*
X125083333Y-96928571D01*
X125083333Y-97119047D01*
X125130952Y-97214285D01*
X125178571Y-97261904D01*
X125273809Y-97309523D01*
X131702380Y-114214285D02*
X130702380Y-114214285D01*
X130702380Y-113976190D01*
X130750000Y-113833333D01*
X130845238Y-113738095D01*
X130940476Y-113690476D01*
X131130952Y-113642857D01*
X131273809Y-113642857D01*
X131464285Y-113690476D01*
X131559523Y-113738095D01*
X131654761Y-113833333D01*
X131702380Y-113976190D01*
X131702380Y-114214285D01*
X131702380Y-112690476D02*
X131702380Y-113261904D01*
X131702380Y-112976190D02*
X130702380Y-112976190D01*
X130845238Y-113071428D01*
X130940476Y-113166666D01*
X130988095Y-113261904D01*
X130702380Y-112357142D02*
X130702380Y-111690476D01*
X131702380Y-112119047D01*
X137702380Y-75214285D02*
X136702380Y-75214285D01*
X136702380Y-74976190D01*
X136750000Y-74833333D01*
X136845238Y-74738095D01*
X136940476Y-74690476D01*
X137130952Y-74642857D01*
X137273809Y-74642857D01*
X137464285Y-74690476D01*
X137559523Y-74738095D01*
X137654761Y-74833333D01*
X137702380Y-74976190D01*
X137702380Y-75214285D01*
X137702380Y-73690476D02*
X137702380Y-74261904D01*
X137702380Y-73976190D02*
X136702380Y-73976190D01*
X136845238Y-74071428D01*
X136940476Y-74166666D01*
X136988095Y-74261904D01*
X137130952Y-73119047D02*
X137083333Y-73214285D01*
X137035714Y-73261904D01*
X136940476Y-73309523D01*
X136892857Y-73309523D01*
X136797619Y-73261904D01*
X136750000Y-73214285D01*
X136702380Y-73119047D01*
X136702380Y-72928571D01*
X136750000Y-72833333D01*
X136797619Y-72785714D01*
X136892857Y-72738095D01*
X136940476Y-72738095D01*
X137035714Y-72785714D01*
X137083333Y-72833333D01*
X137130952Y-72928571D01*
X137130952Y-73119047D01*
X137178571Y-73214285D01*
X137226190Y-73261904D01*
X137321428Y-73309523D01*
X137511904Y-73309523D01*
X137607142Y-73261904D01*
X137654761Y-73214285D01*
X137702380Y-73119047D01*
X137702380Y-72928571D01*
X137654761Y-72833333D01*
X137607142Y-72785714D01*
X137511904Y-72738095D01*
X137321428Y-72738095D01*
X137226190Y-72785714D01*
X137178571Y-72833333D01*
X137130952Y-72928571D01*
X106285714Y-93952380D02*
X106285714Y-92952380D01*
X106523809Y-92952380D01*
X106666666Y-93000000D01*
X106761904Y-93095238D01*
X106809523Y-93190476D01*
X106857142Y-93380952D01*
X106857142Y-93523809D01*
X106809523Y-93714285D01*
X106761904Y-93809523D01*
X106666666Y-93904761D01*
X106523809Y-93952380D01*
X106285714Y-93952380D01*
X107809523Y-93952380D02*
X107238095Y-93952380D01*
X107523809Y-93952380D02*
X107523809Y-92952380D01*
X107428571Y-93095238D01*
X107333333Y-93190476D01*
X107238095Y-93238095D01*
X108285714Y-93952380D02*
X108476190Y-93952380D01*
X108571428Y-93904761D01*
X108619047Y-93857142D01*
X108714285Y-93714285D01*
X108761904Y-93523809D01*
X108761904Y-93142857D01*
X108714285Y-93047619D01*
X108666666Y-93000000D01*
X108571428Y-92952380D01*
X108380952Y-92952380D01*
X108285714Y-93000000D01*
X108238095Y-93047619D01*
X108190476Y-93142857D01*
X108190476Y-93380952D01*
X108238095Y-93476190D01*
X108285714Y-93523809D01*
X108380952Y-93571428D01*
X108571428Y-93571428D01*
X108666666Y-93523809D01*
X108714285Y-93476190D01*
X108761904Y-93380952D01*
X106285714Y-97952380D02*
X106285714Y-96952380D01*
X106523809Y-96952380D01*
X106666666Y-97000000D01*
X106761904Y-97095238D01*
X106809523Y-97190476D01*
X106857142Y-97380952D01*
X106857142Y-97523809D01*
X106809523Y-97714285D01*
X106761904Y-97809523D01*
X106666666Y-97904761D01*
X106523809Y-97952380D01*
X106285714Y-97952380D01*
X107238095Y-97047619D02*
X107285714Y-97000000D01*
X107380952Y-96952380D01*
X107619047Y-96952380D01*
X107714285Y-97000000D01*
X107761904Y-97047619D01*
X107809523Y-97142857D01*
X107809523Y-97238095D01*
X107761904Y-97380952D01*
X107190476Y-97952380D01*
X107809523Y-97952380D01*
X108428571Y-96952380D02*
X108523809Y-96952380D01*
X108619047Y-97000000D01*
X108666666Y-97047619D01*
X108714285Y-97142857D01*
X108761904Y-97333333D01*
X108761904Y-97571428D01*
X108714285Y-97761904D01*
X108666666Y-97857142D01*
X108619047Y-97904761D01*
X108523809Y-97952380D01*
X108428571Y-97952380D01*
X108333333Y-97904761D01*
X108285714Y-97857142D01*
X108238095Y-97761904D01*
X108190476Y-97571428D01*
X108190476Y-97333333D01*
X108238095Y-97142857D01*
X108285714Y-97047619D01*
X108333333Y-97000000D01*
X108428571Y-96952380D01*
X125702380Y-105214285D02*
X124702380Y-105214285D01*
X124702380Y-104976190D01*
X124750000Y-104833333D01*
X124845238Y-104738095D01*
X124940476Y-104690476D01*
X125130952Y-104642857D01*
X125273809Y-104642857D01*
X125464285Y-104690476D01*
X125559523Y-104738095D01*
X125654761Y-104833333D01*
X125702380Y-104976190D01*
X125702380Y-105214285D01*
X124797619Y-104261904D02*
X124750000Y-104214285D01*
X124702380Y-104119047D01*
X124702380Y-103880952D01*
X124750000Y-103785714D01*
X124797619Y-103738095D01*
X124892857Y-103690476D01*
X124988095Y-103690476D01*
X125130952Y-103738095D01*
X125702380Y-104309523D01*
X125702380Y-103690476D01*
X125702380Y-102738095D02*
X125702380Y-103309523D01*
X125702380Y-103023809D02*
X124702380Y-103023809D01*
X124845238Y-103119047D01*
X124940476Y-103214285D01*
X124988095Y-103309523D01*
X125702380Y-111214285D02*
X124702380Y-111214285D01*
X124702380Y-110976190D01*
X124750000Y-110833333D01*
X124845238Y-110738095D01*
X124940476Y-110690476D01*
X125130952Y-110642857D01*
X125273809Y-110642857D01*
X125464285Y-110690476D01*
X125559523Y-110738095D01*
X125654761Y-110833333D01*
X125702380Y-110976190D01*
X125702380Y-111214285D01*
X124797619Y-110261904D02*
X124750000Y-110214285D01*
X124702380Y-110119047D01*
X124702380Y-109880952D01*
X124750000Y-109785714D01*
X124797619Y-109738095D01*
X124892857Y-109690476D01*
X124988095Y-109690476D01*
X125130952Y-109738095D01*
X125702380Y-110309523D01*
X125702380Y-109690476D01*
X124797619Y-109309523D02*
X124750000Y-109261904D01*
X124702380Y-109166666D01*
X124702380Y-108928571D01*
X124750000Y-108833333D01*
X124797619Y-108785714D01*
X124892857Y-108738095D01*
X124988095Y-108738095D01*
X125130952Y-108785714D01*
X125702380Y-109357142D01*
X125702380Y-108738095D01*
X137702380Y-81214285D02*
X136702380Y-81214285D01*
X136702380Y-80976190D01*
X136750000Y-80833333D01*
X136845238Y-80738095D01*
X136940476Y-80690476D01*
X137130952Y-80642857D01*
X137273809Y-80642857D01*
X137464285Y-80690476D01*
X137559523Y-80738095D01*
X137654761Y-80833333D01*
X137702380Y-80976190D01*
X137702380Y-81214285D01*
X136797619Y-80261904D02*
X136750000Y-80214285D01*
X136702380Y-80119047D01*
X136702380Y-79880952D01*
X136750000Y-79785714D01*
X136797619Y-79738095D01*
X136892857Y-79690476D01*
X136988095Y-79690476D01*
X137130952Y-79738095D01*
X137702380Y-80309523D01*
X137702380Y-79690476D01*
X136702380Y-79357142D02*
X136702380Y-78738095D01*
X137083333Y-79071428D01*
X137083333Y-78928571D01*
X137130952Y-78833333D01*
X137178571Y-78785714D01*
X137273809Y-78738095D01*
X137511904Y-78738095D01*
X137607142Y-78785714D01*
X137654761Y-78833333D01*
X137702380Y-78928571D01*
X137702380Y-79214285D01*
X137654761Y-79309523D01*
X137607142Y-79357142D01*
X137702380Y-87214285D02*
X136702380Y-87214285D01*
X136702380Y-86976190D01*
X136750000Y-86833333D01*
X136845238Y-86738095D01*
X136940476Y-86690476D01*
X137130952Y-86642857D01*
X137273809Y-86642857D01*
X137464285Y-86690476D01*
X137559523Y-86738095D01*
X137654761Y-86833333D01*
X137702380Y-86976190D01*
X137702380Y-87214285D01*
X136797619Y-86261904D02*
X136750000Y-86214285D01*
X136702380Y-86119047D01*
X136702380Y-85880952D01*
X136750000Y-85785714D01*
X136797619Y-85738095D01*
X136892857Y-85690476D01*
X136988095Y-85690476D01*
X137130952Y-85738095D01*
X137702380Y-86309523D01*
X137702380Y-85690476D01*
X137035714Y-84833333D02*
X137702380Y-84833333D01*
X136654761Y-85071428D02*
X137369047Y-85309523D01*
X137369047Y-84690476D01*
X106285714Y-101952380D02*
X106285714Y-100952380D01*
X106523809Y-100952380D01*
X106666666Y-101000000D01*
X106761904Y-101095238D01*
X106809523Y-101190476D01*
X106857142Y-101380952D01*
X106857142Y-101523809D01*
X106809523Y-101714285D01*
X106761904Y-101809523D01*
X106666666Y-101904761D01*
X106523809Y-101952380D01*
X106285714Y-101952380D01*
X107238095Y-101047619D02*
X107285714Y-101000000D01*
X107380952Y-100952380D01*
X107619047Y-100952380D01*
X107714285Y-101000000D01*
X107761904Y-101047619D01*
X107809523Y-101142857D01*
X107809523Y-101238095D01*
X107761904Y-101380952D01*
X107190476Y-101952380D01*
X107809523Y-101952380D01*
X108714285Y-100952380D02*
X108238095Y-100952380D01*
X108190476Y-101428571D01*
X108238095Y-101380952D01*
X108333333Y-101333333D01*
X108571428Y-101333333D01*
X108666666Y-101380952D01*
X108714285Y-101428571D01*
X108761904Y-101523809D01*
X108761904Y-101761904D01*
X108714285Y-101857142D01*
X108666666Y-101904761D01*
X108571428Y-101952380D01*
X108333333Y-101952380D01*
X108238095Y-101904761D01*
X108190476Y-101857142D01*
X106285714Y-105952380D02*
X106285714Y-104952380D01*
X106523809Y-104952380D01*
X106666666Y-105000000D01*
X106761904Y-105095238D01*
X106809523Y-105190476D01*
X106857142Y-105380952D01*
X106857142Y-105523809D01*
X106809523Y-105714285D01*
X106761904Y-105809523D01*
X106666666Y-105904761D01*
X106523809Y-105952380D01*
X106285714Y-105952380D01*
X107238095Y-105047619D02*
X107285714Y-105000000D01*
X107380952Y-104952380D01*
X107619047Y-104952380D01*
X107714285Y-105000000D01*
X107761904Y-105047619D01*
X107809523Y-105142857D01*
X107809523Y-105238095D01*
X107761904Y-105380952D01*
X107190476Y-105952380D01*
X107809523Y-105952380D01*
X108666666Y-104952380D02*
X108476190Y-104952380D01*
X108380952Y-105000000D01*
X108333333Y-105047619D01*
X108238095Y-105190476D01*
X108190476Y-105380952D01*
X108190476Y-105761904D01*
X108238095Y-105857142D01*
X108285714Y-105904761D01*
X108380952Y-105952380D01*
X108571428Y-105952380D01*
X108666666Y-105904761D01*
X108714285Y-105857142D01*
X108761904Y-105761904D01*
X108761904Y-105523809D01*
X108714285Y-105428571D01*
X108666666Y-105380952D01*
X108571428Y-105333333D01*
X108380952Y-105333333D01*
X108285714Y-105380952D01*
X108238095Y-105428571D01*
X108190476Y-105523809D01*
X125702380Y-117214285D02*
X124702380Y-117214285D01*
X124702380Y-116976190D01*
X124750000Y-116833333D01*
X124845238Y-116738095D01*
X124940476Y-116690476D01*
X125130952Y-116642857D01*
X125273809Y-116642857D01*
X125464285Y-116690476D01*
X125559523Y-116738095D01*
X125654761Y-116833333D01*
X125702380Y-116976190D01*
X125702380Y-117214285D01*
X124797619Y-116261904D02*
X124750000Y-116214285D01*
X124702380Y-116119047D01*
X124702380Y-115880952D01*
X124750000Y-115785714D01*
X124797619Y-115738095D01*
X124892857Y-115690476D01*
X124988095Y-115690476D01*
X125130952Y-115738095D01*
X125702380Y-116309523D01*
X125702380Y-115690476D01*
X124702380Y-115357142D02*
X124702380Y-114690476D01*
X125702380Y-115119047D01*
X131702380Y-72214285D02*
X130702380Y-72214285D01*
X130702380Y-71976190D01*
X130750000Y-71833333D01*
X130845238Y-71738095D01*
X130940476Y-71690476D01*
X131130952Y-71642857D01*
X131273809Y-71642857D01*
X131464285Y-71690476D01*
X131559523Y-71738095D01*
X131654761Y-71833333D01*
X131702380Y-71976190D01*
X131702380Y-72214285D01*
X130797619Y-71261904D02*
X130750000Y-71214285D01*
X130702380Y-71119047D01*
X130702380Y-70880952D01*
X130750000Y-70785714D01*
X130797619Y-70738095D01*
X130892857Y-70690476D01*
X130988095Y-70690476D01*
X131130952Y-70738095D01*
X131702380Y-71309523D01*
X131702380Y-70690476D01*
X131130952Y-70119047D02*
X131083333Y-70214285D01*
X131035714Y-70261904D01*
X130940476Y-70309523D01*
X130892857Y-70309523D01*
X130797619Y-70261904D01*
X130750000Y-70214285D01*
X130702380Y-70119047D01*
X130702380Y-69928571D01*
X130750000Y-69833333D01*
X130797619Y-69785714D01*
X130892857Y-69738095D01*
X130940476Y-69738095D01*
X131035714Y-69785714D01*
X131083333Y-69833333D01*
X131130952Y-69928571D01*
X131130952Y-70119047D01*
X131178571Y-70214285D01*
X131226190Y-70261904D01*
X131321428Y-70309523D01*
X131511904Y-70309523D01*
X131607142Y-70261904D01*
X131654761Y-70214285D01*
X131702380Y-70119047D01*
X131702380Y-69928571D01*
X131654761Y-69833333D01*
X131607142Y-69785714D01*
X131511904Y-69738095D01*
X131321428Y-69738095D01*
X131226190Y-69785714D01*
X131178571Y-69833333D01*
X131130952Y-69928571D01*
X137702380Y-93214285D02*
X136702380Y-93214285D01*
X136702380Y-92976190D01*
X136750000Y-92833333D01*
X136845238Y-92738095D01*
X136940476Y-92690476D01*
X137130952Y-92642857D01*
X137273809Y-92642857D01*
X137464285Y-92690476D01*
X137559523Y-92738095D01*
X137654761Y-92833333D01*
X137702380Y-92976190D01*
X137702380Y-93214285D01*
X136797619Y-92261904D02*
X136750000Y-92214285D01*
X136702380Y-92119047D01*
X136702380Y-91880952D01*
X136750000Y-91785714D01*
X136797619Y-91738095D01*
X136892857Y-91690476D01*
X136988095Y-91690476D01*
X137130952Y-91738095D01*
X137702380Y-92309523D01*
X137702380Y-91690476D01*
X137702380Y-91214285D02*
X137702380Y-91023809D01*
X137654761Y-90928571D01*
X137607142Y-90880952D01*
X137464285Y-90785714D01*
X137273809Y-90738095D01*
X136892857Y-90738095D01*
X136797619Y-90785714D01*
X136750000Y-90833333D01*
X136702380Y-90928571D01*
X136702380Y-91119047D01*
X136750000Y-91214285D01*
X136797619Y-91261904D01*
X136892857Y-91309523D01*
X137130952Y-91309523D01*
X137226190Y-91261904D01*
X137273809Y-91214285D01*
X137321428Y-91119047D01*
X137321428Y-90928571D01*
X137273809Y-90833333D01*
X137226190Y-90785714D01*
X137130952Y-90738095D01*
X137702380Y-99214285D02*
X136702380Y-99214285D01*
X136702380Y-98976190D01*
X136750000Y-98833333D01*
X136845238Y-98738095D01*
X136940476Y-98690476D01*
X137130952Y-98642857D01*
X137273809Y-98642857D01*
X137464285Y-98690476D01*
X137559523Y-98738095D01*
X137654761Y-98833333D01*
X137702380Y-98976190D01*
X137702380Y-99214285D01*
X136702380Y-98309523D02*
X136702380Y-97690476D01*
X137083333Y-98023809D01*
X137083333Y-97880952D01*
X137130952Y-97785714D01*
X137178571Y-97738095D01*
X137273809Y-97690476D01*
X137511904Y-97690476D01*
X137607142Y-97738095D01*
X137654761Y-97785714D01*
X137702380Y-97880952D01*
X137702380Y-98166666D01*
X137654761Y-98261904D01*
X137607142Y-98309523D01*
X136702380Y-97071428D02*
X136702380Y-96976190D01*
X136750000Y-96880952D01*
X136797619Y-96833333D01*
X136892857Y-96785714D01*
X137083333Y-96738095D01*
X137321428Y-96738095D01*
X137511904Y-96785714D01*
X137607142Y-96833333D01*
X137654761Y-96880952D01*
X137702380Y-96976190D01*
X137702380Y-97071428D01*
X137654761Y-97166666D01*
X137607142Y-97214285D01*
X137511904Y-97261904D01*
X137321428Y-97309523D01*
X137083333Y-97309523D01*
X136892857Y-97261904D01*
X136797619Y-97214285D01*
X136750000Y-97166666D01*
X136702380Y-97071428D01*
X106285714Y-109952380D02*
X106285714Y-108952380D01*
X106523809Y-108952380D01*
X106666666Y-109000000D01*
X106761904Y-109095238D01*
X106809523Y-109190476D01*
X106857142Y-109380952D01*
X106857142Y-109523809D01*
X106809523Y-109714285D01*
X106761904Y-109809523D01*
X106666666Y-109904761D01*
X106523809Y-109952380D01*
X106285714Y-109952380D01*
X107190476Y-108952380D02*
X107809523Y-108952380D01*
X107476190Y-109333333D01*
X107619047Y-109333333D01*
X107714285Y-109380952D01*
X107761904Y-109428571D01*
X107809523Y-109523809D01*
X107809523Y-109761904D01*
X107761904Y-109857142D01*
X107714285Y-109904761D01*
X107619047Y-109952380D01*
X107333333Y-109952380D01*
X107238095Y-109904761D01*
X107190476Y-109857142D01*
X108761904Y-109952380D02*
X108190476Y-109952380D01*
X108476190Y-109952380D02*
X108476190Y-108952380D01*
X108380952Y-109095238D01*
X108285714Y-109190476D01*
X108190476Y-109238095D01*
X106285714Y-113952380D02*
X106285714Y-112952380D01*
X106523809Y-112952380D01*
X106666666Y-113000000D01*
X106761904Y-113095238D01*
X106809523Y-113190476D01*
X106857142Y-113380952D01*
X106857142Y-113523809D01*
X106809523Y-113714285D01*
X106761904Y-113809523D01*
X106666666Y-113904761D01*
X106523809Y-113952380D01*
X106285714Y-113952380D01*
X107190476Y-112952380D02*
X107809523Y-112952380D01*
X107476190Y-113333333D01*
X107619047Y-113333333D01*
X107714285Y-113380952D01*
X107761904Y-113428571D01*
X107809523Y-113523809D01*
X107809523Y-113761904D01*
X107761904Y-113857142D01*
X107714285Y-113904761D01*
X107619047Y-113952380D01*
X107333333Y-113952380D01*
X107238095Y-113904761D01*
X107190476Y-113857142D01*
X108190476Y-113047619D02*
X108238095Y-113000000D01*
X108333333Y-112952380D01*
X108571428Y-112952380D01*
X108666666Y-113000000D01*
X108714285Y-113047619D01*
X108761904Y-113142857D01*
X108761904Y-113238095D01*
X108714285Y-113380952D01*
X108142857Y-113952380D01*
X108761904Y-113952380D01*
X131702380Y-78214285D02*
X130702380Y-78214285D01*
X130702380Y-77976190D01*
X130750000Y-77833333D01*
X130845238Y-77738095D01*
X130940476Y-77690476D01*
X131130952Y-77642857D01*
X131273809Y-77642857D01*
X131464285Y-77690476D01*
X131559523Y-77738095D01*
X131654761Y-77833333D01*
X131702380Y-77976190D01*
X131702380Y-78214285D01*
X130702380Y-77309523D02*
X130702380Y-76690476D01*
X131083333Y-77023809D01*
X131083333Y-76880952D01*
X131130952Y-76785714D01*
X131178571Y-76738095D01*
X131273809Y-76690476D01*
X131511904Y-76690476D01*
X131607142Y-76738095D01*
X131654761Y-76785714D01*
X131702380Y-76880952D01*
X131702380Y-77166666D01*
X131654761Y-77261904D01*
X131607142Y-77309523D01*
X130702380Y-76357142D02*
X130702380Y-75738095D01*
X131083333Y-76071428D01*
X131083333Y-75928571D01*
X131130952Y-75833333D01*
X131178571Y-75785714D01*
X131273809Y-75738095D01*
X131511904Y-75738095D01*
X131607142Y-75785714D01*
X131654761Y-75833333D01*
X131702380Y-75928571D01*
X131702380Y-76214285D01*
X131654761Y-76309523D01*
X131607142Y-76357142D01*
X131952380Y-84214285D02*
X130952380Y-84214285D01*
X130952380Y-83976190D01*
X131000000Y-83833333D01*
X131095238Y-83738095D01*
X131190476Y-83690476D01*
X131380952Y-83642857D01*
X131523809Y-83642857D01*
X131714285Y-83690476D01*
X131809523Y-83738095D01*
X131904761Y-83833333D01*
X131952380Y-83976190D01*
X131952380Y-84214285D01*
X130952380Y-83309523D02*
X130952380Y-82690476D01*
X131333333Y-83023809D01*
X131333333Y-82880952D01*
X131380952Y-82785714D01*
X131428571Y-82738095D01*
X131523809Y-82690476D01*
X131761904Y-82690476D01*
X131857142Y-82738095D01*
X131904761Y-82785714D01*
X131952380Y-82880952D01*
X131952380Y-83166666D01*
X131904761Y-83261904D01*
X131857142Y-83309523D01*
X131285714Y-81833333D02*
X131952380Y-81833333D01*
X130904761Y-82071428D02*
X131619047Y-82309523D01*
X131619047Y-81690476D01*
X137702380Y-105214285D02*
X136702380Y-105214285D01*
X136702380Y-104976190D01*
X136750000Y-104833333D01*
X136845238Y-104738095D01*
X136940476Y-104690476D01*
X137130952Y-104642857D01*
X137273809Y-104642857D01*
X137464285Y-104690476D01*
X137559523Y-104738095D01*
X137654761Y-104833333D01*
X137702380Y-104976190D01*
X137702380Y-105214285D01*
X136702380Y-104309523D02*
X136702380Y-103690476D01*
X137083333Y-104023809D01*
X137083333Y-103880952D01*
X137130952Y-103785714D01*
X137178571Y-103738095D01*
X137273809Y-103690476D01*
X137511904Y-103690476D01*
X137607142Y-103738095D01*
X137654761Y-103785714D01*
X137702380Y-103880952D01*
X137702380Y-104166666D01*
X137654761Y-104261904D01*
X137607142Y-104309523D01*
X136702380Y-102785714D02*
X136702380Y-103261904D01*
X137178571Y-103309523D01*
X137130952Y-103261904D01*
X137083333Y-103166666D01*
X137083333Y-102928571D01*
X137130952Y-102833333D01*
X137178571Y-102785714D01*
X137273809Y-102738095D01*
X137511904Y-102738095D01*
X137607142Y-102785714D01*
X137654761Y-102833333D01*
X137702380Y-102928571D01*
X137702380Y-103166666D01*
X137654761Y-103261904D01*
X137607142Y-103309523D01*
X137702380Y-111214285D02*
X136702380Y-111214285D01*
X136702380Y-110976190D01*
X136750000Y-110833333D01*
X136845238Y-110738095D01*
X136940476Y-110690476D01*
X137130952Y-110642857D01*
X137273809Y-110642857D01*
X137464285Y-110690476D01*
X137559523Y-110738095D01*
X137654761Y-110833333D01*
X137702380Y-110976190D01*
X137702380Y-111214285D01*
X136702380Y-110309523D02*
X136702380Y-109690476D01*
X137083333Y-110023809D01*
X137083333Y-109880952D01*
X137130952Y-109785714D01*
X137178571Y-109738095D01*
X137273809Y-109690476D01*
X137511904Y-109690476D01*
X137607142Y-109738095D01*
X137654761Y-109785714D01*
X137702380Y-109880952D01*
X137702380Y-110166666D01*
X137654761Y-110261904D01*
X137607142Y-110309523D01*
X136702380Y-108833333D02*
X136702380Y-109023809D01*
X136750000Y-109119047D01*
X136797619Y-109166666D01*
X136940476Y-109261904D01*
X137130952Y-109309523D01*
X137511904Y-109309523D01*
X137607142Y-109261904D01*
X137654761Y-109214285D01*
X137702380Y-109119047D01*
X137702380Y-108928571D01*
X137654761Y-108833333D01*
X137607142Y-108785714D01*
X137511904Y-108738095D01*
X137273809Y-108738095D01*
X137178571Y-108785714D01*
X137130952Y-108833333D01*
X137083333Y-108928571D01*
X137083333Y-109119047D01*
X137130952Y-109214285D01*
X137178571Y-109261904D01*
X137273809Y-109309523D01*
X116047619Y-108595238D02*
X116000000Y-108690476D01*
X115904761Y-108785714D01*
X115761904Y-108928571D01*
X115714285Y-109023809D01*
X115714285Y-109119047D01*
X115952380Y-109071428D02*
X115904761Y-109166666D01*
X115809523Y-109261904D01*
X115619047Y-109309523D01*
X115285714Y-109309523D01*
X115095238Y-109261904D01*
X115000000Y-109166666D01*
X114952380Y-109071428D01*
X114952380Y-108880952D01*
X115000000Y-108785714D01*
X115095238Y-108690476D01*
X115285714Y-108642857D01*
X115619047Y-108642857D01*
X115809523Y-108690476D01*
X115904761Y-108785714D01*
X115952380Y-108880952D01*
X115952380Y-109071428D01*
X114952380Y-108309523D02*
X114952380Y-107690476D01*
X115333333Y-108023809D01*
X115333333Y-107880952D01*
X115380952Y-107785714D01*
X115428571Y-107738095D01*
X115523809Y-107690476D01*
X115761904Y-107690476D01*
X115857142Y-107738095D01*
X115904761Y-107785714D01*
X115952380Y-107880952D01*
X115952380Y-108166666D01*
X115904761Y-108261904D01*
X115857142Y-108309523D01*
X116047619Y-113595238D02*
X116000000Y-113690476D01*
X115904761Y-113785714D01*
X115761904Y-113928571D01*
X115714285Y-114023809D01*
X115714285Y-114119047D01*
X115952380Y-114071428D02*
X115904761Y-114166666D01*
X115809523Y-114261904D01*
X115619047Y-114309523D01*
X115285714Y-114309523D01*
X115095238Y-114261904D01*
X115000000Y-114166666D01*
X114952380Y-114071428D01*
X114952380Y-113880952D01*
X115000000Y-113785714D01*
X115095238Y-113690476D01*
X115285714Y-113642857D01*
X115619047Y-113642857D01*
X115809523Y-113690476D01*
X115904761Y-113785714D01*
X115952380Y-113880952D01*
X115952380Y-114071428D01*
X115285714Y-112785714D02*
X115952380Y-112785714D01*
X114904761Y-113023809D02*
X115619047Y-113261904D01*
X115619047Y-112642857D01*
X112333333Y-67952380D02*
X112000000Y-67476190D01*
X111761904Y-67952380D02*
X111761904Y-66952380D01*
X112142857Y-66952380D01*
X112238095Y-67000000D01*
X112285714Y-67047619D01*
X112333333Y-67142857D01*
X112333333Y-67285714D01*
X112285714Y-67380952D01*
X112238095Y-67428571D01*
X112142857Y-67476190D01*
X111761904Y-67476190D01*
X113285714Y-67952380D02*
X112714285Y-67952380D01*
X113000000Y-67952380D02*
X113000000Y-66952380D01*
X112904761Y-67095238D01*
X112809523Y-67190476D01*
X112714285Y-67238095D01*
%LPC*%
D12*
X113250000Y-94200000D03*
X113250000Y-92300000D03*
X110750000Y-94200000D03*
X110750000Y-92300000D03*
D13*
X112450000Y-72500000D03*
X110550000Y-72500000D03*
D14*
X112750000Y-77500000D03*
X112750000Y-101250000D03*
D15*
X102000000Y-69500000D03*
X105000000Y-69500000D03*
X102000000Y-73500000D03*
X105000000Y-73500000D03*
D16*
X122750000Y-69500000D03*
X122750000Y-66500000D03*
X122750000Y-75500000D03*
X122750000Y-72500000D03*
X128750000Y-90500000D03*
X128750000Y-87500000D03*
X128750000Y-96500000D03*
X128750000Y-93500000D03*
D15*
X102000000Y-77500000D03*
X105000000Y-77500000D03*
X102000000Y-81500000D03*
X105000000Y-81500000D03*
D16*
X122750000Y-81500000D03*
X122750000Y-78500000D03*
X122750000Y-87500000D03*
X122750000Y-84500000D03*
X128750000Y-102500000D03*
X128750000Y-99500000D03*
X128750000Y-108500000D03*
X128750000Y-105500000D03*
D15*
X102000000Y-85500000D03*
X105000000Y-85500000D03*
X102000000Y-89500000D03*
X105000000Y-89500000D03*
D16*
X122750000Y-93500000D03*
X122750000Y-90500000D03*
X122750000Y-99500000D03*
X122750000Y-96500000D03*
X128750000Y-114500000D03*
X128750000Y-111500000D03*
X134750000Y-75500000D03*
X134750000Y-72500000D03*
D15*
X102000000Y-93500000D03*
X105000000Y-93500000D03*
X102000000Y-97500000D03*
X105000000Y-97500000D03*
D16*
X122750000Y-105500000D03*
X122750000Y-102500000D03*
X122750000Y-111500000D03*
X122750000Y-108500000D03*
X134750000Y-81500000D03*
X134750000Y-78500000D03*
X134750000Y-87500000D03*
X134750000Y-84500000D03*
D15*
X102000000Y-101500000D03*
X105000000Y-101500000D03*
X102000000Y-105500000D03*
X105000000Y-105500000D03*
D16*
X122750000Y-117500000D03*
X122750000Y-114500000D03*
X128750000Y-72500000D03*
X128750000Y-69500000D03*
X134750000Y-93500000D03*
X134750000Y-90500000D03*
X134750000Y-99500000D03*
X134750000Y-96500000D03*
D15*
X102000000Y-109500000D03*
X105000000Y-109500000D03*
X102000000Y-113500000D03*
X105000000Y-113500000D03*
D16*
X128750000Y-78500000D03*
X128750000Y-75500000D03*
X128750000Y-84500000D03*
X128750000Y-81500000D03*
X134750000Y-105500000D03*
X134750000Y-102500000D03*
X134750000Y-111500000D03*
X134750000Y-108500000D03*
D17*
X113500000Y-109450000D03*
X113500000Y-107550000D03*
X111500000Y-108500000D03*
X113500000Y-114450000D03*
X113500000Y-112550000D03*
X111500000Y-113500000D03*
D18*
X113950000Y-69500000D03*
X111050000Y-69500000D03*
M02*
