M48
; DRILL file {KiCad (5.99.0-490-gc7ce93e10)} date Di 10 Dez 2019 12:05:08 CET
; FORMAT={2:4/ absolute / inch / suppress leading zeros}
; #@! TF.CreationDate,2019-12-10T12:05:08+01:00
; #@! TF.GenerationSoftware,Kicad,Pcbnew,(5.99.0-490-gc7ce93e10)
; #@! TF.FileFunction,Plated,1,2,PTH
FMAT,2
INCH,TZ
T1C0.0118
T2C0.1260
%
G90
G05
T1
X40157Y-27362
X40157Y-28937
X40157Y-30512
X40157Y-32087
X40157Y-33661
X40157Y-35236
X40157Y-36811
X40157Y-38386
X40157Y-39961
X40157Y-41535
X40157Y-43110
X40157Y-44685
X41339Y-30512
X41339Y-32087
X41339Y-33661
X41339Y-35236
X41339Y-36811
X41339Y-38386
X41339Y-39961
X41339Y-41535
X41339Y-43110
X41339Y-44094
X42520Y-44685
X42913Y-43110
X43209Y-35531
X43209Y-38583
X43996Y-37697
X44291Y-43602
X44587Y-28051
X44587Y-36024
X44882Y-43110
X44980Y-44980
X47933Y-30118
X47933Y-32874
X47933Y-34843
X47933Y-37598
X47933Y-39567
X47933Y-42520
X48327Y-26181
X48327Y-44094
X48917Y-46260
X48922Y-28745
X49705Y-33465
X49902Y-27362
X50295Y-29331
X50295Y-33465
X50689Y-30906
X51476Y-45079
X51673Y-32480
X53051Y-41535
X53051Y-43898
X53248Y-30512
T2
X44390Y-39862
X44390Y-30512
T0
M30
