G04 #@! TF.GenerationSoftware,KiCad,Pcbnew,(5.99.0-492-g30da2b31e)*
G04 #@! TF.CreationDate,2019-12-11T09:50:33+01:00*
G04 #@! TF.ProjectId,LED_Panel_Hex,4c45445f-5061-46e6-956c-5f4865782e6b,rev?*
G04 #@! TF.SameCoordinates,Original*
G04 #@! TF.FileFunction,Paste,Top*
G04 #@! TF.FilePolarity,Positive*
%FSLAX46Y46*%
G04 Gerber Fmt 4.6, Leading zero omitted, Abs format (unit mm)*
G04 Created by KiCad (PCBNEW (5.99.0-492-g30da2b31e)) date 2019-12-11 09:50:33*
%MOMM*%
%LPD*%
G04 APERTURE LIST*
%ADD10R,1.300000X0.700000*%
%ADD11R,0.700000X1.300000*%
%ADD12R,1.500000X2.600000*%
%ADD13R,2.600000X1.500000*%
%ADD14R,0.900000X0.800000*%
%ADD15R,0.900000X1.700000*%
G04 APERTURE END LIST*
D10*
X113250000Y-94200000D03*
X113250000Y-92300000D03*
X110750000Y-94200000D03*
X110750000Y-92300000D03*
D11*
X112450000Y-72500000D03*
X110550000Y-72500000D03*
D12*
X102000000Y-69500000D03*
X105000000Y-69500000D03*
X102000000Y-73500000D03*
X105000000Y-73500000D03*
D13*
X122750000Y-69500000D03*
X122750000Y-66500000D03*
X122750000Y-75500000D03*
X122750000Y-72500000D03*
X128750000Y-90500000D03*
X128750000Y-87500000D03*
X128750000Y-96500000D03*
X128750000Y-93500000D03*
D12*
X102000000Y-77500000D03*
X105000000Y-77500000D03*
X102000000Y-81500000D03*
X105000000Y-81500000D03*
D13*
X122750000Y-81500000D03*
X122750000Y-78500000D03*
X122750000Y-87500000D03*
X122750000Y-84500000D03*
X128750000Y-102500000D03*
X128750000Y-99500000D03*
X128750000Y-108500000D03*
X128750000Y-105500000D03*
D12*
X102000000Y-85500000D03*
X105000000Y-85500000D03*
X102000000Y-89500000D03*
X105000000Y-89500000D03*
D13*
X122750000Y-93500000D03*
X122750000Y-90500000D03*
X122750000Y-99500000D03*
X122750000Y-96500000D03*
X128750000Y-114500000D03*
X128750000Y-111500000D03*
X134750000Y-75500000D03*
X134750000Y-72500000D03*
D12*
X102000000Y-93500000D03*
X105000000Y-93500000D03*
X102000000Y-97500000D03*
X105000000Y-97500000D03*
D13*
X122750000Y-105500000D03*
X122750000Y-102500000D03*
X122750000Y-111500000D03*
X122750000Y-108500000D03*
X134750000Y-81500000D03*
X134750000Y-78500000D03*
X134750000Y-87500000D03*
X134750000Y-84500000D03*
D12*
X102000000Y-101500000D03*
X105000000Y-101500000D03*
X102000000Y-105500000D03*
X105000000Y-105500000D03*
D13*
X122750000Y-117500000D03*
X122750000Y-114500000D03*
X128750000Y-72500000D03*
X128750000Y-69500000D03*
X134750000Y-93500000D03*
X134750000Y-90500000D03*
X134750000Y-99500000D03*
X134750000Y-96500000D03*
D12*
X102000000Y-109500000D03*
X105000000Y-109500000D03*
X102000000Y-113500000D03*
X105000000Y-113500000D03*
D13*
X128750000Y-78500000D03*
X128750000Y-75500000D03*
X128750000Y-84500000D03*
X128750000Y-81500000D03*
X134750000Y-105500000D03*
X134750000Y-102500000D03*
X134750000Y-111500000D03*
X134750000Y-108500000D03*
D14*
X113500000Y-109450000D03*
X113500000Y-107550000D03*
X111500000Y-108500000D03*
X113500000Y-114450000D03*
X113500000Y-112550000D03*
X111500000Y-113500000D03*
D15*
X113950000Y-69500000D03*
X111050000Y-69500000D03*
M02*
